G04 Layer: TopSolderMaskLayer*
G04 EasyEDA Pro v3.2.149, 2026-09-25 09:52:57*
G04 Gerber Generator version 0.3*
G04 Scale: 100 percent, Rotated: No, Reflected: No*
G04 Dimensions in millimeters*
G04 Leading zeros omitted, absolute positions, 4 integers and 5 decimals*
G04 Generated by one-click*
G04 Object Configs: Pad,Via,Track,Text,Image,Dimension,BoardOutline,BoardCutout,CopperFilled,SolidRegion,FPCStiffener,Line,PlaneZone,ComponentProperty,ComponentSilkscreen,TearDrop*
G04 Layer Configs: 1,2,3,4,5,6,7,8,9,10,11,13,14,56*
G04 Copper Areas: 0*
%FSLAX45Y45*%
%MOMM*%
%AMRoundRect*1,1,$1,$2,$3*1,1,$1,$4,$5*1,1,$1,0-$2,0-$3*1,1,$1,0-$4,0-$5*20,1,$1,$2,$3,$4,$5,0*20,1,$1,$4,$5,0-$2,0-$3,0*20,1,$1,0-$2,0-$3,0-$4,0-$5,0*20,1,$1,0-$4,0-$5,$2,$3,0*4,1,4,$2,$3,$4,$5,0-$2,0-$3,0-$4,0-$5,$2,$3,0*%
%ADD10RoundRect,0.1016X-0.45X-0.4X-0.45X0.4*%
%ADD11RoundRect,0.1016X-0.4X0.45X0.4X0.45*%
%ADD12RoundRect,0.1016X-1.005X2.69999X1.005X2.69999*%
%ADD13RoundRect,0.1016X-0.675X-0.705X-0.675X0.705*%
%ADD14RoundRect,0.1016X-2.69999X-1.005X-2.69999X1.005*%
%ADD15RoundRect,0.1016X-0.18421X0.162X0.18421X0.162*%
%ADD16RoundRect,0.1034X-0.27X-0.39505X-0.27X0.39505*%
%ADD17RoundRect,0.1016X-0.27X-0.39505X-0.27X0.39505*%
%ADD18RoundRect,0.1016X-0.705X0.67501X0.705X0.67501*%
%ADD19RoundRect,0.1016X-0.39505X0.27X0.39505X0.27*%
%ADD20RoundRect,0.1016X-0.725X1.0X0.725X1.0*%
%ADD21RoundRect,0.1016X-0.4X0.75X0.4X0.75*%
%ADD22RoundRect,0.1016X-1.02375X1.0962X1.02375X1.0962*%
%ADD23RoundRect,0.1016X-0.81001X-1.02319X-0.81001X1.02319*%
%ADD24RoundRect,0.1016X-0.604X0.665X0.604X0.665*%
%ADD25RoundRect,0.1016X-1.05X0.9X1.05X0.9*%
%ADD26RoundRect,0.1016X-1.0X1.0X1.0X1.0*%
%ADD27C,2.1016*%
%ADD28RoundRect,0.1016X-0.85X0.85X0.85X0.85*%
%ADD29C,1.8016*%
%ADD30RoundRect,0.1016X-1.062X2.11X1.062X2.11*%
%ADD31RoundRect,0.1016X-0.56627X0.68851X0.56627X0.68851*%
%ADD32RoundRect,0.1016X-0.28283X0.27X0.28283X0.27*%
%ADD33RoundRect,0.1016X-0.27X-0.28283X-0.27X0.28283*%
%ADD34C,2.3016*%
%ADD35RoundRect,0.1016X-1.6X1.25X1.6X1.25*%
%ADD36O,0.7016X1.7016*%
%ADD37RoundRect,0.1016X-0.9X0.9X0.9X0.9*%
%ADD38C,1.9016*%
%ADD39RoundRect,0.1016X-0.9X-0.4X-0.9X0.4*%
%ADD40RoundRect,0.10003X-0.5X-0.3X-0.5X0.3*%
%ADD41RoundRect,0.1016X-1.235X1.8X1.235X1.8*%
%ADD42RoundRect,0.1016X-1.235X0.49X1.235X0.49*%
%ADD43RoundRect,0.1016X-0.162X-0.18421X-0.162X0.18421*%
%ADD44RoundRect,0.1016X-0.32501X-0.5X-0.32501X0.5*%
%ADD45RoundRect,0.1016X-0.665X-0.604X-0.665X0.604*%
G75*


G04 Pad Start*
G54D10*
G01X1104900Y2241702D03*
G01X1104900Y2101698D03*
G54D11*
G01X2012798Y1816100D03*
G01X2152802Y1816100D03*
G54D12*
G01X1964487Y1397000D03*
G01X2480513Y1397000D03*
G54D13*
G01X266700Y1817700D03*
G01X266700Y2017700D03*
G54D14*
G01X673100Y1274013D03*
G01X673100Y757987D03*
G54D11*
G01X6686702Y2489200D03*
G01X6546698Y2489200D03*
G01X6699402Y2286000D03*
G01X6559398Y2286000D03*
G54D15*
G01X7304532Y1752600D03*
G01X7249668Y1752600D03*
G54D17*
G01X7251700Y1863192D03*
G01X7251700Y1972208D03*
G54D15*
G01X4929632Y101600D03*
G01X4874768Y101600D03*
G54D18*
G01X2782900Y2501900D03*
G01X2982900Y2501900D03*
G54D19*
G01X1984908Y2095500D03*
G01X1875892Y2095500D03*
G54D15*
G01X1957832Y2209800D03*
G01X1902968Y2209800D03*
G54D20*
G01X6487503Y1354798D03*
G01X7863497Y1354798D03*
G01X7863497Y524802D03*
G01X6487503Y524802D03*
G54D21*
G01X7625499Y1094778D03*
G01X7515492Y1094778D03*
G01X7405510Y1094778D03*
G01X7295502Y1094778D03*
G01X7185495Y1094778D03*
G01X7075513Y1094778D03*
G01X6965506Y1094778D03*
G01X6855498Y1094778D03*
G54D22*
G01X1594968Y1270000D03*
G01X1122832Y1270000D03*
G54D23*
G01X203200Y1038860D03*
G01X203200Y1551940D03*
G54D24*
G01X5819292Y431800D03*
G01X6144108Y431800D03*
G54D25*
G01X3846802Y2171703D03*
G01X3366793Y2171703D03*
G54D26*
G01X4635500Y482600D03*
G54D27*
G01X4381500Y482600D03*
G54D28*
G01X241300Y444500D03*
G54D29*
G01X495300Y444500D03*
G01X749300Y444500D03*
G01X1003300Y444500D03*
G01X1257300Y444500D03*
G54D26*
G01X5334000Y508000D03*
G54D27*
G01X5588000Y508000D03*
G54D30*
G01X1133500Y1739900D03*
G01X1533500Y1739900D03*
G54D31*
G01X709600Y1562100D03*
G01X509600Y1562100D03*
G54D32*
G01X6685382Y2654300D03*
G01X6598818Y2654300D03*
G54D33*
G01X7645400Y1821282D03*
G01X7645400Y1734718D03*
G01X6858000Y1821282D03*
G01X6858000Y1734718D03*
G01X7112000Y1821282D03*
G01X7112000Y1734718D03*
G01X6985000Y1821282D03*
G01X6985000Y1734718D03*
G01X7518400Y1821282D03*
G01X7518400Y1734718D03*
G54D32*
G01X2788818Y2870200D03*
G01X2875382Y2870200D03*
G54D31*
G01X3516300Y190500D03*
G01X3316300Y190500D03*
G01X3697300Y190500D03*
G01X3897300Y190500D03*
G54D32*
G01X6088482Y228600D03*
G01X6001918Y228600D03*
G54D31*
G01X2487600Y190500D03*
G01X2287600Y190500D03*
G01X2681300Y190500D03*
G01X2881300Y190500D03*
G54D27*
G01X8534387Y1358913D03*
G54D34*
G01X8789403Y1103897D03*
G01X8789403Y1613903D03*
G01X8279397Y1613903D03*
G01X8279397Y1103897D03*
G54D27*
G01X8534387Y2590813D03*
G54D34*
G01X8789403Y2335797D03*
G01X8789403Y2845803D03*
G01X8279397Y2845803D03*
G01X8279397Y2335797D03*
G54D35*
G01X698500Y2051050D03*
G54D36*
G01X508000Y2317750D03*
G01X635000Y2317750D03*
G01X762000Y2317750D03*
G01X508000Y1771650D03*
G01X635000Y1771650D03*
G01X762000Y1771650D03*
G01X889000Y2317750D03*
G01X889000Y1771650D03*
G54D37*
G01X1270000Y3111500D03*
G54D38*
G01X1524000Y3111500D03*
G01X1778000Y3111500D03*
G01X2032000Y3111500D03*
G01X2286000Y3111500D03*
G01X2540000Y3111500D03*
G01X2794000Y3111500D03*
G01X3048000Y3111500D03*
G01X3302000Y3111500D03*
G01X3556000Y3111500D03*
G01X3810000Y3111500D03*
G01X4064000Y3111500D03*
G01X4318000Y3111500D03*
G01X4572000Y3111500D03*
G01X4826000Y3111500D03*
G01X5080000Y3111500D03*
G01X5334000Y3111500D03*
G01X5588000Y3111500D03*
G01X5842000Y3111500D03*
G01X6096000Y3111500D03*
G54D37*
G01X1270000Y867175D03*
G54D38*
G01X1524000Y867175D03*
G01X1778000Y867175D03*
G01X2032000Y867175D03*
G01X2286000Y867175D03*
G01X2540000Y867175D03*
G01X2794000Y867175D03*
G01X3048000Y867175D03*
G01X3302000Y867175D03*
G01X3556000Y867175D03*
G01X3810000Y867175D03*
G01X4064000Y867175D03*
G01X4318000Y867175D03*
G01X4572000Y867175D03*
G01X4826000Y867175D03*
G01X5080000Y867175D03*
G01X5334000Y867175D03*
G01X5588000Y867175D03*
G01X5842000Y867175D03*
G01X6096000Y867175D03*
G54D39*
G01X6938340Y3056204D03*
G01X7869860Y3056204D03*
G01X6938340Y2946197D03*
G01X7869860Y2946197D03*
G01X6938340Y2836189D03*
G01X7869860Y2836189D03*
G01X6938340Y2726207D03*
G01X7869860Y2726207D03*
G01X6938340Y2616200D03*
G01X7869860Y2616200D03*
G01X6938340Y2506193D03*
G01X7869860Y2506193D03*
G01X6938340Y2396211D03*
G01X7869860Y2396211D03*
G01X6938340Y2286203D03*
G01X7869860Y2286203D03*
G01X6938340Y2176196D03*
G01X7869860Y2176196D03*
G54D40*
G01X5075700Y317487D03*
G01X5075700Y412483D03*
G01X5075700Y222517D03*
G01X4855685Y412509D03*
G01X4855685Y222491D03*
G54D41*
G01X2531389Y2565400D03*
G54D42*
G01X1964411Y2335403D03*
G01X1964411Y2565400D03*
G01X1964411Y2795397D03*
G54D18*
G01X242900Y177800D03*
G01X442900Y177800D03*
G54D27*
G01X367792Y3366134D03*
G01X1752816Y318134D03*
G01X8751240Y3366134D03*
G01X8739264Y292734D03*
G54D43*
G01X2438400Y582168D03*
G01X2438400Y637032D03*
G54D44*
G01X3625596Y620700D03*
G01X3435604Y620700D03*
G01X3530600Y420700D03*
G01X2800096Y633400D03*
G01X2610104Y633400D03*
G01X2705100Y433400D03*
G54D45*
G01X3098800Y231292D03*
G01X3098800Y556108D03*
G54D24*
G01X3705708Y2641600D03*
G01X3380892Y2641600D03*
G04 Pad End*

M02*

