G04 Layer: TopPasteMaskLayer*
G04 EasyEDA Pro v3.2.149, 2026-09-25 09:52:57*
G04 Gerber Generator version 0.3*
G04 Scale: 100 percent, Rotated: No, Reflected: No*
G04 Dimensions in millimeters*
G04 Leading zeros omitted, absolute positions, 4 integers and 5 decimals*
G04 Generated by one-click*
G04 Object Configs: Pad,Via,Track,Text,Image,Dimension,BoardOutline,BoardCutout,CopperFilled,SolidRegion,FPCStiffener,Line,PlaneZone,ComponentProperty,ComponentSilkscreen,TearDrop*
G04 Layer Configs: 1,2,3,4,5,6,7,8,9,10,11,13,14,56*
G04 Copper Areas: 0*
%FSLAX45Y45*%
%MOMM*%
%ADD10R,0.9X0.8*%
%ADD11R,0.8X0.9*%
%ADD12R,1.45001X2.0*%
%ADD13R,0.8X1.5*%
%ADD14R,2.04749X2.1924*%
%ADD15R,1.62001X2.04638*%
%ADD16R,1.208X1.32999*%
%ADD17R,2.1X1.8*%
%ADD18R,2.124X4.22001*%
%ADD19R,3.2051X2.49999*%
%ADD20R,3.19999X2.49999*%
%ADD21O,0.6X1.6*%
%ADD22R,1.8X0.8*%
%ADD23R,1.0X0.6*%
%ADD24R,2.47X3.59999*%
%ADD25R,2.47X0.98001*%
%ADD26R,0.65001X1.0*%
%ADD27R,1.32999X1.208*%
G75*


G04 PolygonModel Start*
G36*
G01X2065000Y1656999D02*
G01X2065000Y1498801D01*
G01X2055000Y1488801D01*
G01X2006661Y1488801D01*
G01X1996661Y1478801D01*
G01X1996661Y1315199D01*
G01X2006661Y1305199D01*
G01X2055000Y1305199D01*
G01X2065000Y1295199D01*
G01X2065000Y1137001D01*
G01X2055000Y1127001D01*
G01X1873999Y1127001D01*
G01X1863999Y1137001D01*
G01X1863999Y1656999D01*
G01X1873999Y1666999D01*
G01X2055000Y1666999D01*
G01X2065000Y1656999D01*
G37*
G36*
G01X2380000Y1656999D02*
G01X2390000Y1666999D01*
G01X2571001Y1666999D01*
G01X2581001Y1656999D01*
G01X2581001Y1137001D01*
G01X2571001Y1127001D01*
G01X2390000Y1127001D01*
G01X2380000Y1137001D01*
G01X2380000Y1295199D01*
G01X2390000Y1305199D01*
G01X2438339Y1305199D01*
G01X2448339Y1315199D01*
G01X2448339Y1478801D01*
G01X2438339Y1488801D01*
G01X2390000Y1488801D01*
G01X2380000Y1498801D01*
G01X2380000Y1656999D01*
G37*
G36*
G01X202700Y2088198D02*
G01X330698Y2088198D01*
G01X335699Y2083196D01*
G01X335699Y1968195D01*
G01X330698Y1963196D01*
G01X289695Y1962694D01*
G01X289695Y2007695D01*
G01X244696Y2007695D01*
G01X244696Y1963694D01*
G01X202700Y1963196D01*
G01X197698Y1968195D01*
G01X197698Y2083196D01*
G01X202700Y2088198D01*
G37*
G36*
G01X330700Y1747203D02*
G01X202702Y1747203D01*
G01X197701Y1752204D01*
G01X197701Y1867205D01*
G01X202702Y1872204D01*
G01X243705Y1872706D01*
G01X243705Y1827705D01*
G01X288704Y1827705D01*
G01X288704Y1871706D01*
G01X330700Y1872204D01*
G01X335702Y1867205D01*
G01X335702Y1752204D01*
G01X330700Y1747203D01*
G37*
G36*
G01X933099Y1173500D02*
G01X774901Y1173500D01*
G01X764901Y1183500D01*
G01X764901Y1231839D01*
G01X754901Y1241839D01*
G01X591299Y1241839D01*
G01X581299Y1231839D01*
G01X581299Y1183500D01*
G01X571299Y1173500D01*
G01X413101Y1173500D01*
G01X403101Y1183500D01*
G01X403101Y1364501D01*
G01X413101Y1374501D01*
G01X933099Y1374501D01*
G01X943099Y1364501D01*
G01X943099Y1183500D01*
G01X933099Y1173500D01*
G37*
G36*
G01X933099Y858500D02*
G01X943099Y848500D01*
G01X943099Y667499D01*
G01X933099Y657499D01*
G01X413101Y657499D01*
G01X403101Y667499D01*
G01X403101Y848500D01*
G01X413101Y858500D01*
G01X571299Y858500D01*
G01X581299Y848500D01*
G01X581299Y800161D01*
G01X591299Y790161D01*
G01X754901Y790161D01*
G01X764901Y800161D01*
G01X764901Y848500D01*
G01X774901Y858500D01*
G01X933099Y858500D01*
G37*
G36*
G01X7285200Y1738800D02*
G01X7285200Y1766400D01*
G01X7287600Y1768800D01*
G01X7320544Y1768800D01*
G01X7322944Y1766400D01*
G01X7322944Y1738800D01*
G01X7320544Y1736400D01*
G01X7287600Y1736400D01*
G01X7285200Y1738800D01*
G37*
G36*
G01X7269000Y1738800D02*
G01X7266600Y1736400D01*
G01X7233656Y1736400D01*
G01X7231256Y1738800D01*
G01X7231256Y1766400D01*
G01X7233656Y1768800D01*
G01X7266600Y1768800D01*
G01X7269000Y1766400D01*
G01X7269000Y1738800D01*
G37*
G36*
G01X7274202Y1935704D02*
G01X7229201Y1935704D01*
G01X7224202Y1942701D01*
G01X7224202Y1990702D01*
G01X7229201Y1995703D01*
G01X7274202Y1995703D01*
G01X7279201Y1990702D01*
G01X7279201Y1942701D01*
G01X7274202Y1935704D01*
G37*
G36*
G01X7274202Y1839702D02*
G01X7229201Y1839702D01*
G01X7224202Y1844703D01*
G01X7224202Y1892701D01*
G01X7229201Y1899702D01*
G01X7274202Y1899702D01*
G01X7279201Y1892701D01*
G01X7279201Y1844703D01*
G01X7274202Y1839702D01*
G37*
G36*
G01X4910300Y87800D02*
G01X4910300Y115400D01*
G01X4912700Y117800D01*
G01X4945644Y117800D01*
G01X4948044Y115400D01*
G01X4948044Y87800D01*
G01X4945644Y85400D01*
G01X4912700Y85400D01*
G01X4910300Y87800D01*
G37*
G36*
G01X4894100Y87800D02*
G01X4891700Y85400D01*
G01X4858756Y85400D01*
G01X4856356Y87800D01*
G01X4856356Y115400D01*
G01X4858756Y117800D01*
G01X4891700Y117800D01*
G01X4894100Y115400D01*
G01X4894100Y87800D01*
G37*
G36*
G01X3053398Y2565900D02*
G01X3053398Y2437902D01*
G01X3048396Y2432901D01*
G01X2933395Y2432901D01*
G01X2928396Y2437902D01*
G01X2927894Y2478905D01*
G01X2972895Y2478905D01*
G01X2972895Y2523904D01*
G01X2928894Y2523904D01*
G01X2928396Y2565900D01*
G01X2933395Y2570902D01*
G01X3048396Y2570902D01*
G01X3053398Y2565900D01*
G37*
G36*
G01X2712403Y2437900D02*
G01X2712403Y2565898D01*
G01X2717404Y2570899D01*
G01X2832405Y2570899D01*
G01X2837404Y2565898D01*
G01X2837906Y2524895D01*
G01X2792905Y2524895D01*
G01X2792905Y2479896D01*
G01X2836906Y2479896D01*
G01X2837404Y2437900D01*
G01X2832405Y2432898D01*
G01X2717404Y2432898D01*
G01X2712403Y2437900D01*
G37*
G36*
G01X1912396Y2118002D02*
G01X1912396Y2073001D01*
G01X1905399Y2068002D01*
G01X1857398Y2068002D01*
G01X1852397Y2073001D01*
G01X1852397Y2118002D01*
G01X1857398Y2123001D01*
G01X1905399Y2123001D01*
G01X1912396Y2118002D01*
G37*
G36*
G01X2008398Y2118002D02*
G01X2008398Y2073001D01*
G01X2003397Y2068002D01*
G01X1955399Y2068002D01*
G01X1948398Y2073001D01*
G01X1948398Y2118002D01*
G01X1955399Y2123001D01*
G01X2003397Y2123001D01*
G01X2008398Y2118002D01*
G37*
G36*
G01X1938500Y2196000D02*
G01X1938500Y2223600D01*
G01X1940900Y2226000D01*
G01X1973844Y2226000D01*
G01X1976244Y2223600D01*
G01X1976244Y2196000D01*
G01X1973844Y2193600D01*
G01X1940900Y2193600D01*
G01X1938500Y2196000D01*
G37*
G36*
G01X1922300Y2196000D02*
G01X1919900Y2193600D01*
G01X1886956Y2193600D01*
G01X1884556Y2196000D01*
G01X1884556Y2223600D01*
G01X1886956Y2226000D01*
G01X1919900Y2226000D01*
G01X1922300Y2223600D01*
G01X1922300Y2196000D01*
G37*
G36*
G01X439598Y1498100D02*
G01X439598Y1626098D01*
G01X444599Y1631099D01*
G01X559600Y1631099D01*
G01X564599Y1626098D01*
G01X565102Y1585095D01*
G01X520101Y1585095D01*
G01X520101Y1540096D01*
G01X564101Y1540096D01*
G01X564599Y1498100D01*
G01X559600Y1493098D01*
G01X444599Y1493098D01*
G01X439598Y1498100D01*
G37*
G36*
G01X654599Y1498100D02*
G01X654601Y1540096D01*
G01X699099Y1540096D01*
G01X699099Y1585095D01*
G01X655102Y1585095D01*
G01X654599Y1626098D01*
G01X659600Y1631099D01*
G01X774598Y1631099D01*
G01X779600Y1626098D01*
G01X779600Y1498100D01*
G01X774598Y1493098D01*
G01X659600Y1493098D01*
G01X654599Y1498100D01*
G37*
G36*
G01X6655600Y2631300D02*
G01X6655600Y2677300D01*
G01X6659601Y2681300D01*
G01X6709664Y2681300D01*
G01X6713665Y2677300D01*
G01X6713665Y2631300D01*
G01X6709664Y2627300D01*
G01X6659601Y2627300D01*
G01X6655600Y2631300D01*
G37*
G36*
G01X6628600Y2631300D02*
G01X6624599Y2627300D01*
G01X6574536Y2627300D01*
G01X6570536Y2631300D01*
G01X6570536Y2677300D01*
G01X6574536Y2681300D01*
G01X6624599Y2681300D01*
G01X6628600Y2677300D01*
G01X6628600Y2631300D01*
G37*
G36*
G01X7668400Y1791500D02*
G01X7622400Y1791500D01*
G01X7618400Y1795501D01*
G01X7618400Y1845564D01*
G01X7622400Y1849565D01*
G01X7668400Y1849565D01*
G01X7672400Y1845564D01*
G01X7672400Y1795501D01*
G01X7668400Y1791500D01*
G37*
G36*
G01X7668400Y1764500D02*
G01X7672400Y1760499D01*
G01X7672400Y1710436D01*
G01X7668400Y1706436D01*
G01X7622400Y1706436D01*
G01X7618400Y1710436D01*
G01X7618400Y1760499D01*
G01X7622400Y1764500D01*
G01X7668400Y1764500D01*
G37*
G36*
G01X6881000Y1791500D02*
G01X6835000Y1791500D01*
G01X6831000Y1795501D01*
G01X6831000Y1845564D01*
G01X6835000Y1849565D01*
G01X6881000Y1849565D01*
G01X6885000Y1845564D01*
G01X6885000Y1795501D01*
G01X6881000Y1791500D01*
G37*
G36*
G01X6881000Y1764500D02*
G01X6885000Y1760499D01*
G01X6885000Y1710436D01*
G01X6881000Y1706436D01*
G01X6835000Y1706436D01*
G01X6831000Y1710436D01*
G01X6831000Y1760499D01*
G01X6835000Y1764500D01*
G01X6881000Y1764500D01*
G37*
G36*
G01X7135000Y1791500D02*
G01X7089000Y1791500D01*
G01X7085000Y1795501D01*
G01X7085000Y1845564D01*
G01X7089000Y1849565D01*
G01X7135000Y1849565D01*
G01X7139000Y1845564D01*
G01X7139000Y1795501D01*
G01X7135000Y1791500D01*
G37*
G36*
G01X7135000Y1764500D02*
G01X7139000Y1760499D01*
G01X7139000Y1710436D01*
G01X7135000Y1706436D01*
G01X7089000Y1706436D01*
G01X7085000Y1710436D01*
G01X7085000Y1760499D01*
G01X7089000Y1764500D01*
G01X7135000Y1764500D01*
G37*
G36*
G01X7008000Y1791500D02*
G01X6962000Y1791500D01*
G01X6958000Y1795501D01*
G01X6958000Y1845564D01*
G01X6962000Y1849565D01*
G01X7008000Y1849565D01*
G01X7012000Y1845564D01*
G01X7012000Y1795501D01*
G01X7008000Y1791500D01*
G37*
G36*
G01X7008000Y1764500D02*
G01X7012000Y1760499D01*
G01X7012000Y1710436D01*
G01X7008000Y1706436D01*
G01X6962000Y1706436D01*
G01X6958000Y1710436D01*
G01X6958000Y1760499D01*
G01X6962000Y1764500D01*
G01X7008000Y1764500D01*
G37*
G36*
G01X7541400Y1791500D02*
G01X7495400Y1791500D01*
G01X7491400Y1795501D01*
G01X7491400Y1845564D01*
G01X7495400Y1849565D01*
G01X7541400Y1849565D01*
G01X7545400Y1845564D01*
G01X7545400Y1795501D01*
G01X7541400Y1791500D01*
G37*
G36*
G01X7541400Y1764500D02*
G01X7545400Y1760499D01*
G01X7545400Y1710436D01*
G01X7541400Y1706436D01*
G01X7495400Y1706436D01*
G01X7491400Y1710436D01*
G01X7491400Y1760499D01*
G01X7495400Y1764500D01*
G01X7541400Y1764500D01*
G37*
G36*
G01X2818600Y2893200D02*
G01X2818600Y2847200D01*
G01X2814599Y2843200D01*
G01X2764536Y2843200D01*
G01X2760536Y2847200D01*
G01X2760536Y2893200D01*
G01X2764536Y2897200D01*
G01X2814599Y2897200D01*
G01X2818600Y2893200D01*
G37*
G36*
G01X2845600Y2893200D02*
G01X2849601Y2897200D01*
G01X2899664Y2897200D01*
G01X2903665Y2893200D01*
G01X2903665Y2847200D01*
G01X2899664Y2843200D01*
G01X2849601Y2843200D01*
G01X2845600Y2847200D01*
G01X2845600Y2893200D01*
G37*
G36*
G01X3246298Y126500D02*
G01X3246298Y254498D01*
G01X3251299Y259499D01*
G01X3366300Y259499D01*
G01X3371299Y254498D01*
G01X3371802Y213495D01*
G01X3326801Y213495D01*
G01X3326801Y168496D01*
G01X3370801Y168496D01*
G01X3371299Y126500D01*
G01X3366300Y121498D01*
G01X3251299Y121498D01*
G01X3246298Y126500D01*
G37*
G36*
G01X3461299Y126500D02*
G01X3461301Y168496D01*
G01X3505799Y168496D01*
G01X3505799Y213495D01*
G01X3461802Y213495D01*
G01X3461299Y254498D01*
G01X3466300Y259499D01*
G01X3581298Y259499D01*
G01X3586300Y254498D01*
G01X3586300Y126500D01*
G01X3581298Y121498D01*
G01X3466300Y121498D01*
G01X3461299Y126500D01*
G37*
G36*
G01X3967302Y254500D02*
G01X3967302Y126502D01*
G01X3962301Y121501D01*
G01X3847300Y121501D01*
G01X3842301Y126502D01*
G01X3841798Y167505D01*
G01X3886799Y167505D01*
G01X3886799Y212504D01*
G01X3842799Y212504D01*
G01X3842301Y254500D01*
G01X3847300Y259502D01*
G01X3962301Y259502D01*
G01X3967302Y254500D01*
G37*
G36*
G01X3752301Y254500D02*
G01X3752299Y212504D01*
G01X3707801Y212504D01*
G01X3707801Y167505D01*
G01X3751798Y167505D01*
G01X3752301Y126502D01*
G01X3747300Y121501D01*
G01X3632302Y121501D01*
G01X3627300Y126502D01*
G01X3627300Y254500D01*
G01X3632302Y259502D01*
G01X3747300Y259502D01*
G01X3752301Y254500D01*
G37*
G36*
G01X6058700Y205600D02*
G01X6058700Y251600D01*
G01X6062701Y255600D01*
G01X6112764Y255600D01*
G01X6116765Y251600D01*
G01X6116765Y205600D01*
G01X6112764Y201600D01*
G01X6062701Y201600D01*
G01X6058700Y205600D01*
G37*
G36*
G01X6031700Y205600D02*
G01X6027699Y201600D01*
G01X5977636Y201600D01*
G01X5973636Y205600D01*
G01X5973636Y251600D01*
G01X5977636Y255600D01*
G01X6027699Y255600D01*
G01X6031700Y251600D01*
G01X6031700Y205600D01*
G37*
G36*
G01X2217598Y126500D02*
G01X2217598Y254498D01*
G01X2222599Y259499D01*
G01X2337600Y259499D01*
G01X2342599Y254498D01*
G01X2343102Y213495D01*
G01X2298101Y213495D01*
G01X2298101Y168496D01*
G01X2342101Y168496D01*
G01X2342599Y126500D01*
G01X2337600Y121498D01*
G01X2222599Y121498D01*
G01X2217598Y126500D01*
G37*
G36*
G01X2432599Y126500D02*
G01X2432601Y168496D01*
G01X2477099Y168496D01*
G01X2477099Y213495D01*
G01X2433102Y213495D01*
G01X2432599Y254498D01*
G01X2437600Y259499D01*
G01X2552598Y259499D01*
G01X2557600Y254498D01*
G01X2557600Y126500D01*
G01X2552598Y121498D01*
G01X2437600Y121498D01*
G01X2432599Y126500D01*
G37*
G36*
G01X2951302Y254500D02*
G01X2951302Y126502D01*
G01X2946301Y121501D01*
G01X2831300Y121501D01*
G01X2826301Y126502D01*
G01X2825798Y167505D01*
G01X2870799Y167505D01*
G01X2870799Y212504D01*
G01X2826799Y212504D01*
G01X2826301Y254500D01*
G01X2831300Y259502D01*
G01X2946301Y259502D01*
G01X2951302Y254500D01*
G37*
G36*
G01X2736301Y254500D02*
G01X2736299Y212504D01*
G01X2691801Y212504D01*
G01X2691801Y167505D01*
G01X2735798Y167505D01*
G01X2736301Y126502D01*
G01X2731300Y121501D01*
G01X2616302Y121501D01*
G01X2611300Y126502D01*
G01X2611300Y254500D01*
G01X2616302Y259502D01*
G01X2731300Y259502D01*
G01X2736301Y254500D01*
G37*
G36*
G01X513398Y241800D02*
G01X513398Y113802D01*
G01X508396Y108801D01*
G01X393395Y108801D01*
G01X388396Y113802D01*
G01X387894Y154805D01*
G01X432895Y154805D01*
G01X432895Y199804D01*
G01X388894Y199804D01*
G01X388396Y241800D01*
G01X393395Y246802D01*
G01X508396Y246802D01*
G01X513398Y241800D01*
G37*
G36*
G01X172403Y113800D02*
G01X172403Y241798D01*
G01X177404Y246799D01*
G01X292405Y246799D01*
G01X297404Y241798D01*
G01X297906Y200795D01*
G01X252905Y200795D01*
G01X252905Y155796D01*
G01X296906Y155796D01*
G01X297404Y113800D01*
G01X292405Y108798D01*
G01X177404Y108798D01*
G01X172403Y113800D01*
G37*
G36*
G01X2424600Y601500D02*
G01X2452200Y601500D01*
G01X2454600Y599100D01*
G01X2454600Y566156D01*
G01X2452200Y563756D01*
G01X2424600Y563756D01*
G01X2422200Y566156D01*
G01X2422200Y599100D01*
G01X2424600Y601500D01*
G37*
G36*
G01X2424600Y617700D02*
G01X2422200Y620100D01*
G01X2422200Y653044D01*
G01X2424600Y655444D01*
G01X2452200Y655444D01*
G01X2454600Y653044D01*
G01X2454600Y620100D01*
G01X2452200Y617700D01*
G01X2424600Y617700D01*
G37*

G04 Pad Start*
G54D10*
G01X1104900Y2241702D03*
G01X1104900Y2101698D03*
G54D11*
G01X2012798Y1816100D03*
G01X2152802Y1816100D03*
G01X6686702Y2489200D03*
G01X6546698Y2489200D03*
G01X6699402Y2286000D03*
G01X6559398Y2286000D03*
G54D12*
G01X6487503Y1354798D03*
G01X7863497Y1354798D03*
G01X7863497Y524802D03*
G01X6487503Y524802D03*
G54D13*
G01X7625499Y1094778D03*
G01X7515492Y1094778D03*
G01X7405510Y1094778D03*
G01X7295502Y1094778D03*
G01X7185495Y1094778D03*
G01X7075513Y1094778D03*
G01X6965506Y1094778D03*
G01X6855498Y1094778D03*
G54D14*
G01X1594968Y1270000D03*
G01X1122832Y1270000D03*
G54D15*
G01X203200Y1038860D03*
G01X203200Y1551940D03*
G54D16*
G01X5819292Y431800D03*
G01X6144108Y431800D03*
G54D17*
G01X3846802Y2171703D03*
G01X3366793Y2171703D03*
G54D18*
G01X1133500Y1739900D03*
G01X1533500Y1739900D03*
G54D20*
G01X698500Y2051050D03*
G54D21*
G01X508000Y2317750D03*
G01X635000Y2317750D03*
G01X762000Y2317750D03*
G01X508000Y1771650D03*
G01X635000Y1771650D03*
G01X762000Y1771650D03*
G01X889000Y2317750D03*
G01X889000Y1771650D03*
G54D22*
G01X6938340Y3056204D03*
G01X7869860Y3056204D03*
G01X6938340Y2946197D03*
G01X7869860Y2946197D03*
G01X6938340Y2836189D03*
G01X7869860Y2836189D03*
G01X6938340Y2726207D03*
G01X7869860Y2726207D03*
G01X6938340Y2616200D03*
G01X7869860Y2616200D03*
G01X6938340Y2506193D03*
G01X7869860Y2506193D03*
G01X6938340Y2396211D03*
G01X7869860Y2396211D03*
G01X6938340Y2286203D03*
G01X7869860Y2286203D03*
G01X6938340Y2176196D03*
G01X7869860Y2176196D03*
G54D23*
G01X5075700Y317487D03*
G01X5075700Y412483D03*
G01X5075700Y222517D03*
G01X4855685Y412509D03*
G01X4855685Y222491D03*
G54D24*
G01X2531389Y2565400D03*
G54D25*
G01X1964411Y2335403D03*
G01X1964411Y2565400D03*
G01X1964411Y2795397D03*
G54D26*
G01X3625596Y620700D03*
G01X3435604Y620700D03*
G01X3530600Y420700D03*
G01X2800096Y633400D03*
G01X2610104Y633400D03*
G01X2705100Y433400D03*
G54D27*
G01X3098800Y231292D03*
G01X3098800Y556108D03*
G54D16*
G01X3705708Y2641600D03*
G01X3380892Y2641600D03*
G04 Pad End*

M02*

