G04 Layer: TopSilkscreenLayer*
G04 EasyEDA Pro v3.2.149, 2026-09-25 09:52:57*
G04 Gerber Generator version 0.3*
G04 Scale: 100 percent, Rotated: No, Reflected: No*
G04 Dimensions in millimeters*
G04 Leading zeros omitted, absolute positions, 4 integers and 5 decimals*
G04 Generated by one-click*
G04 Object Configs: Pad,Via,Track,Text,Image,Dimension,BoardOutline,BoardCutout,CopperFilled,SolidRegion,FPCStiffener,Line,PlaneZone,ComponentProperty,ComponentSilkscreen,TearDrop*
G04 Layer Configs: 1,2,3,4,5,6,7,8,9,10,11,13,14,56*
G04 Copper Areas: 0*
%FSLAX45Y45*%
%MOMM*%
%ADD10C,0.152*%
%ADD11C,0.1*%
%ADD12C,0.254*%
%ADD13C,0.1524*%
%ADD14C,0.2032*%
%ADD15C,0.2030*%
%ADD16C,0.203*%
%ADD17C,0.12903*%
%ADD18C,0.3*%
G75*


G04 Text Start*
G54D10*
G01X1038860Y2378202D02*
G01X1032510Y2375154D01*
G01X1026414Y2368804D01*
G01X1023366Y2362708D01*
G01X1023366Y2350262D01*
G01X1026414Y2344166D01*
G01X1032510Y2337816D01*
G01X1038860Y2334768D01*
G01X1048004Y2331720D01*
G01X1063498Y2331720D01*
G01X1072896Y2334768D01*
G01X1078992Y2337816D01*
G01X1085342Y2344166D01*
G01X1088390Y2350262D01*
G01X1088390Y2362708D01*
G01X1085342Y2368804D01*
G01X1078992Y2375154D01*
G01X1072896Y2378202D01*
G01X1035558Y2408174D02*
G01X1032510Y2414524D01*
G01X1023366Y2423668D01*
G01X1088390Y2423668D01*
G01X2314702Y1831340D02*
G01X2311654Y1837690D01*
G01X2305304Y1843786D01*
G01X2299208Y1846834D01*
G01X2286762Y1846834D01*
G01X2280666Y1843786D01*
G01X2274316Y1837690D01*
G01X2271268Y1831340D01*
G01X2268220Y1822196D01*
G01X2268220Y1806702D01*
G01X2271268Y1797304D01*
G01X2274316Y1791208D01*
G01X2280666Y1784858D01*
G01X2286762Y1781810D01*
G01X2299208Y1781810D01*
G01X2305304Y1784858D01*
G01X2311654Y1791208D01*
G01X2314702Y1797304D01*
G01X2347976Y1831340D02*
G01X2347976Y1834642D01*
G01X2351024Y1840738D01*
G01X2354072Y1843786D01*
G01X2360168Y1846834D01*
G01X2372614Y1846834D01*
G01X2378710Y1843786D01*
G01X2382012Y1840738D01*
G01X2385060Y1834642D01*
G01X2385060Y1828292D01*
G01X2382012Y1822196D01*
G01X2375662Y1812798D01*
G01X2344674Y1781810D01*
G01X2388108Y1781810D01*
G01X2695702Y1412240D02*
G01X2692654Y1418590D01*
G01X2686304Y1424686D01*
G01X2680208Y1427734D01*
G01X2667762Y1427734D01*
G01X2661666Y1424686D01*
G01X2655316Y1418590D01*
G01X2652268Y1412240D01*
G01X2649220Y1403096D01*
G01X2649220Y1387602D01*
G01X2652268Y1378204D01*
G01X2655316Y1372108D01*
G01X2661666Y1365758D01*
G01X2667762Y1362710D01*
G01X2680208Y1362710D01*
G01X2686304Y1365758D01*
G01X2692654Y1372108D01*
G01X2695702Y1378204D01*
G01X2732024Y1427734D02*
G01X2766060Y1427734D01*
G01X2747518Y1403096D01*
G01X2756662Y1403096D01*
G01X2763012Y1400048D01*
G01X2766060Y1396746D01*
G01X2769108Y1387602D01*
G01X2769108Y1381252D01*
G01X2766060Y1372108D01*
G01X2759710Y1365758D01*
G01X2750566Y1362710D01*
G01X2741168Y1362710D01*
G01X2732024Y1365758D01*
G01X2728976Y1369060D01*
G01X2725674Y1375156D01*
G01X251460Y2175002D02*
G01X245110Y2171954D01*
G01X239014Y2165604D01*
G01X235966Y2159508D01*
G01X235966Y2147062D01*
G01X239014Y2140966D01*
G01X245110Y2134616D01*
G01X251460Y2131568D01*
G01X260604Y2128520D01*
G01X276098Y2128520D01*
G01X285496Y2131568D01*
G01X291592Y2134616D01*
G01X297942Y2140966D01*
G01X300990Y2147062D01*
G01X300990Y2159508D01*
G01X297942Y2165604D01*
G01X291592Y2171954D01*
G01X285496Y2175002D01*
G01X235966Y2242312D02*
G01X235966Y2211324D01*
G01X263652Y2208276D01*
G01X260604Y2211324D01*
G01X257556Y2220468D01*
G01X257556Y2229866D01*
G01X260604Y2239010D01*
G01X266954Y2245360D01*
G01X276098Y2248408D01*
G01X282448Y2248408D01*
G01X291592Y2245360D01*
G01X297942Y2239010D01*
G01X300990Y2229866D01*
G01X300990Y2220468D01*
G01X297942Y2211324D01*
G01X294640Y2208276D01*
G01X288544Y2204974D01*
G01X866902Y1475740D02*
G01X863854Y1482090D01*
G01X857504Y1488186D01*
G01X851408Y1491234D01*
G01X838962Y1491234D01*
G01X832866Y1488186D01*
G01X826516Y1482090D01*
G01X823468Y1475740D01*
G01X820420Y1466596D01*
G01X820420Y1451102D01*
G01X823468Y1441704D01*
G01X826516Y1435608D01*
G01X832866Y1429258D01*
G01X838962Y1426210D01*
G01X851408Y1426210D01*
G01X857504Y1429258D01*
G01X863854Y1435608D01*
G01X866902Y1441704D01*
G01X934212Y1482090D02*
G01X930910Y1488186D01*
G01X921766Y1491234D01*
G01X915670Y1491234D01*
G01X906272Y1488186D01*
G01X900176Y1479042D01*
G01X896874Y1463548D01*
G01X896874Y1448054D01*
G01X900176Y1435608D01*
G01X906272Y1429258D01*
G01X915670Y1426210D01*
G01X918718Y1426210D01*
G01X927862Y1429258D01*
G01X934212Y1435608D01*
G01X937260Y1444752D01*
G01X937260Y1448054D01*
G01X934212Y1457198D01*
G01X927862Y1463548D01*
G01X918718Y1466596D01*
G01X915670Y1466596D01*
G01X906272Y1463548D01*
G01X900176Y1457198D01*
G01X896874Y1448054D01*
G01X6353302Y2529840D02*
G01X6350254Y2536190D01*
G01X6343904Y2542286D01*
G01X6337808Y2545334D01*
G01X6325362Y2545334D01*
G01X6319266Y2542286D01*
G01X6312916Y2536190D01*
G01X6309868Y2529840D01*
G01X6306820Y2520696D01*
G01X6306820Y2505202D01*
G01X6309868Y2495804D01*
G01X6312916Y2489708D01*
G01X6319266Y2483358D01*
G01X6325362Y2480310D01*
G01X6337808Y2480310D01*
G01X6343904Y2483358D01*
G01X6350254Y2489708D01*
G01X6353302Y2495804D01*
G01X6383274Y2533142D02*
G01X6389624Y2536190D01*
G01X6398768Y2545334D01*
G01X6398768Y2480310D01*
G01X6447536Y2545334D02*
G01X6438138Y2542286D01*
G01X6432042Y2533142D01*
G01X6428740Y2517648D01*
G01X6428740Y2508250D01*
G01X6432042Y2492756D01*
G01X6438138Y2483358D01*
G01X6447536Y2480310D01*
G01X6453632Y2480310D01*
G01X6462776Y2483358D01*
G01X6469126Y2492756D01*
G01X6472174Y2508250D01*
G01X6472174Y2517648D01*
G01X6469126Y2533142D01*
G01X6462776Y2542286D01*
G01X6453632Y2545334D01*
G01X6447536Y2545334D01*
G01X6366002Y2301240D02*
G01X6362954Y2307590D01*
G01X6356604Y2313686D01*
G01X6350508Y2316734D01*
G01X6338062Y2316734D01*
G01X6331966Y2313686D01*
G01X6325616Y2307590D01*
G01X6322568Y2301240D01*
G01X6319520Y2292096D01*
G01X6319520Y2276602D01*
G01X6322568Y2267204D01*
G01X6325616Y2261108D01*
G01X6331966Y2254758D01*
G01X6338062Y2251710D01*
G01X6350508Y2251710D01*
G01X6356604Y2254758D01*
G01X6362954Y2261108D01*
G01X6366002Y2267204D01*
G01X6395974Y2304542D02*
G01X6402324Y2307590D01*
G01X6411468Y2316734D01*
G01X6411468Y2251710D01*
G01X6441440Y2304542D02*
G01X6447790Y2307590D01*
G01X6456934Y2316734D01*
G01X6456934Y2251710D01*
G01X7255002Y1678940D02*
G01X7251954Y1685290D01*
G01X7245604Y1691386D01*
G01X7239508Y1694434D01*
G01X7227062Y1694434D01*
G01X7220966Y1691386D01*
G01X7214616Y1685290D01*
G01X7211568Y1678940D01*
G01X7208520Y1669796D01*
G01X7208520Y1654302D01*
G01X7211568Y1644904D01*
G01X7214616Y1638808D01*
G01X7220966Y1632458D01*
G01X7227062Y1629410D01*
G01X7239508Y1629410D01*
G01X7245604Y1632458D01*
G01X7251954Y1638808D01*
G01X7255002Y1644904D01*
G01X7284974Y1682242D02*
G01X7291324Y1685290D01*
G01X7300468Y1694434D01*
G01X7300468Y1629410D01*
G01X7333742Y1678940D02*
G01X7333742Y1682242D01*
G01X7336790Y1688338D01*
G01X7339838Y1691386D01*
G01X7345934Y1694434D01*
G01X7358380Y1694434D01*
G01X7364476Y1691386D01*
G01X7367778Y1688338D01*
G01X7370826Y1682242D01*
G01X7370826Y1675892D01*
G01X7367778Y1669796D01*
G01X7361428Y1660398D01*
G01X7330440Y1629410D01*
G01X7373874Y1629410D01*
G01X7368540Y1977898D02*
G01X7374890Y1980946D01*
G01X7380986Y1987296D01*
G01X7384034Y1993392D01*
G01X7384034Y2005838D01*
G01X7380986Y2011934D01*
G01X7374890Y2018284D01*
G01X7368540Y2021332D01*
G01X7359396Y2024380D01*
G01X7343902Y2024380D01*
G01X7334504Y2021332D01*
G01X7328408Y2018284D01*
G01X7322058Y2011934D01*
G01X7319010Y2005838D01*
G01X7319010Y1993392D01*
G01X7322058Y1987296D01*
G01X7328408Y1980946D01*
G01X7334504Y1977898D01*
G01X7371842Y1947926D02*
G01X7374890Y1941576D01*
G01X7384034Y1932432D01*
G01X7319010Y1932432D01*
G01X7384034Y1896110D02*
G01X7384034Y1862074D01*
G01X7359396Y1880616D01*
G01X7359396Y1871472D01*
G01X7356348Y1865122D01*
G01X7353046Y1862074D01*
G01X7343902Y1859026D01*
G01X7337552Y1859026D01*
G01X7328408Y1862074D01*
G01X7322058Y1868424D01*
G01X7319010Y1877568D01*
G01X7319010Y1886966D01*
G01X7322058Y1896110D01*
G01X7325360Y1899158D01*
G01X7331456Y1902460D01*
G01X4702302Y116840D02*
G01X4699254Y123190D01*
G01X4692904Y129286D01*
G01X4686808Y132334D01*
G01X4674362Y132334D01*
G01X4668266Y129286D01*
G01X4661916Y123190D01*
G01X4658868Y116840D01*
G01X4655820Y107696D01*
G01X4655820Y92202D01*
G01X4658868Y82804D01*
G01X4661916Y76708D01*
G01X4668266Y70358D01*
G01X4674362Y67310D01*
G01X4686808Y67310D01*
G01X4692904Y70358D01*
G01X4699254Y76708D01*
G01X4702302Y82804D01*
G01X4732274Y120142D02*
G01X4738624Y123190D01*
G01X4747768Y132334D01*
G01X4747768Y67310D01*
G01X4808728Y132334D02*
G01X4777740Y89154D01*
G01X4824222Y89154D01*
G01X4808728Y132334D02*
G01X4808728Y67310D01*
G01X3165602Y2529840D02*
G01X3162554Y2536190D01*
G01X3156204Y2542286D01*
G01X3150108Y2545334D01*
G01X3137662Y2545334D01*
G01X3131566Y2542286D01*
G01X3125216Y2536190D01*
G01X3122168Y2529840D01*
G01X3119120Y2520696D01*
G01X3119120Y2505202D01*
G01X3122168Y2495804D01*
G01X3125216Y2489708D01*
G01X3131566Y2483358D01*
G01X3137662Y2480310D01*
G01X3150108Y2480310D01*
G01X3156204Y2483358D01*
G01X3162554Y2489708D01*
G01X3165602Y2495804D01*
G01X3239008Y2545334D02*
G01X3208020Y2480310D01*
G01X3195574Y2545334D02*
G01X3239008Y2545334D01*
G01X1717802Y2123440D02*
G01X1714754Y2129790D01*
G01X1708404Y2135886D01*
G01X1702308Y2138934D01*
G01X1689862Y2138934D01*
G01X1683766Y2135886D01*
G01X1677416Y2129790D01*
G01X1674368Y2123440D01*
G01X1671320Y2114296D01*
G01X1671320Y2098802D01*
G01X1674368Y2089404D01*
G01X1677416Y2083308D01*
G01X1683766Y2076958D01*
G01X1689862Y2073910D01*
G01X1702308Y2073910D01*
G01X1708404Y2076958D01*
G01X1714754Y2083308D01*
G01X1717802Y2089404D01*
G01X1763268Y2138934D02*
G01X1754124Y2135886D01*
G01X1751076Y2129790D01*
G01X1751076Y2123440D01*
G01X1754124Y2117344D01*
G01X1760220Y2114296D01*
G01X1772666Y2111248D01*
G01X1781810Y2107946D01*
G01X1788160Y2101850D01*
G01X1791208Y2095754D01*
G01X1791208Y2086356D01*
G01X1788160Y2080260D01*
G01X1785112Y2076958D01*
G01X1775714Y2073910D01*
G01X1763268Y2073910D01*
G01X1754124Y2076958D01*
G01X1751076Y2080260D01*
G01X1747774Y2086356D01*
G01X1747774Y2095754D01*
G01X1751076Y2101850D01*
G01X1757172Y2107946D01*
G01X1766570Y2111248D01*
G01X1778762Y2114296D01*
G01X1785112Y2117344D01*
G01X1788160Y2123440D01*
G01X1788160Y2129790D01*
G01X1785112Y2135886D01*
G01X1775714Y2138934D01*
G01X1763268Y2138934D01*
G01X1781302Y2225040D02*
G01X1778254Y2231390D01*
G01X1771904Y2237486D01*
G01X1765808Y2240534D01*
G01X1753362Y2240534D01*
G01X1747266Y2237486D01*
G01X1740916Y2231390D01*
G01X1737868Y2225040D01*
G01X1734820Y2215896D01*
G01X1734820Y2200402D01*
G01X1737868Y2191004D01*
G01X1740916Y2184908D01*
G01X1747266Y2178558D01*
G01X1753362Y2175510D01*
G01X1765808Y2175510D01*
G01X1771904Y2178558D01*
G01X1778254Y2184908D01*
G01X1781302Y2191004D01*
G01X1851660Y2218944D02*
G01X1848612Y2209546D01*
G01X1842262Y2203450D01*
G01X1833118Y2200402D01*
G01X1830070Y2200402D01*
G01X1820672Y2203450D01*
G01X1814576Y2209546D01*
G01X1811274Y2218944D01*
G01X1811274Y2221992D01*
G01X1814576Y2231390D01*
G01X1820672Y2237486D01*
G01X1830070Y2240534D01*
G01X1833118Y2240534D01*
G01X1842262Y2237486D01*
G01X1848612Y2231390D01*
G01X1851660Y2218944D01*
G01X1851660Y2203450D01*
G01X1848612Y2187956D01*
G01X1842262Y2178558D01*
G01X1833118Y2175510D01*
G01X1826768Y2175510D01*
G01X1817624Y2178558D01*
G01X1814576Y2184908D01*
G01X7881896Y55977D02*
G01X7884944Y49627D01*
G01X7891294Y43531D01*
G01X7897390Y40483D01*
G01X7909836Y40483D01*
G01X7915932Y43531D01*
G01X7922282Y49627D01*
G01X7925330Y55977D01*
G01X7928378Y65121D01*
G01X7928378Y80615D01*
G01X7925330Y90013D01*
G01X7922282Y96109D01*
G01X7915932Y102459D01*
G01X7909836Y105507D01*
G01X7897390Y105507D01*
G01X7891294Y102459D01*
G01X7884944Y96109D01*
G01X7881896Y90013D01*
G01X7827032Y40483D02*
G01X7851924Y105507D01*
G01X7827032Y40483D02*
G01X7802394Y105507D01*
G01X7842526Y83663D02*
G01X7811538Y83663D01*
G01X7772422Y40483D02*
G01X7772422Y105507D01*
G01X7772422Y40483D02*
G01X7744482Y40483D01*
G01X7735084Y43531D01*
G01X7732036Y46579D01*
G01X7728988Y52675D01*
G01X7728988Y59025D01*
G01X7732036Y65121D01*
G01X7735084Y68169D01*
G01X7744482Y71471D01*
G01X7772422Y71471D01*
G01X7750578Y71471D02*
G01X7728988Y105507D01*
G01X7699016Y40483D02*
G01X7699016Y105507D01*
G01X7699016Y40483D02*
G01X7677172Y40483D01*
G01X7668028Y43531D01*
G01X7661678Y49627D01*
G01X7658630Y55977D01*
G01X7655582Y65121D01*
G01X7655582Y80615D01*
G01X7658630Y90013D01*
G01X7661678Y96109D01*
G01X7668028Y102459D01*
G01X7677172Y105507D01*
G01X7699016Y105507D01*
G01X7625610Y52675D02*
G01X7619260Y49627D01*
G01X7610116Y40483D01*
G01X7610116Y105507D01*
G01X1696720Y1135634D02*
G01X1696720Y1070610D01*
G01X1696720Y1135634D02*
G01X1718310Y1135634D01*
G01X1727708Y1132586D01*
G01X1733804Y1126490D01*
G01X1736852Y1120140D01*
G01X1740154Y1110996D01*
G01X1740154Y1095502D01*
G01X1736852Y1086104D01*
G01X1733804Y1080008D01*
G01X1727708Y1073658D01*
G01X1718310Y1070610D01*
G01X1696720Y1070610D01*
G01X1770126Y1123442D02*
G01X1776476Y1126490D01*
G01X1785620Y1135634D01*
G01X1785620Y1070610D01*
G01X33020Y1745234D02*
G01X33020Y1680210D01*
G01X33020Y1745234D02*
G01X54610Y1745234D01*
G01X64008Y1742186D01*
G01X70104Y1736090D01*
G01X73152Y1729740D01*
G01X76454Y1720596D01*
G01X76454Y1705102D01*
G01X73152Y1695704D01*
G01X70104Y1689608D01*
G01X64008Y1683258D01*
G01X54610Y1680210D01*
G01X33020Y1680210D01*
G01X109728Y1729740D02*
G01X109728Y1733042D01*
G01X112776Y1739138D01*
G01X115824Y1742186D01*
G01X121920Y1745234D01*
G01X134366Y1745234D01*
G01X140462Y1742186D01*
G01X143764Y1739138D01*
G01X146812Y1733042D01*
G01X146812Y1726692D01*
G01X143764Y1720596D01*
G01X137414Y1711198D01*
G01X106426Y1680210D01*
G01X149860Y1680210D01*
G01X5824220Y614934D02*
G01X5824220Y549910D01*
G01X5824220Y614934D02*
G01X5845810Y614934D01*
G01X5855208Y611886D01*
G01X5861304Y605790D01*
G01X5864352Y599440D01*
G01X5867654Y590296D01*
G01X5867654Y574802D01*
G01X5864352Y565404D01*
G01X5861304Y559308D01*
G01X5855208Y552958D01*
G01X5845810Y549910D01*
G01X5824220Y549910D01*
G01X5941060Y614934D02*
G01X5910072Y549910D01*
G01X5897626Y614934D02*
G01X5941060Y614934D01*
G01X3269413Y2432878D02*
G01X3269413Y2367854D01*
G01X3269413Y2432878D02*
G01X3291003Y2432878D01*
G01X3300401Y2429830D01*
G01X3306497Y2423734D01*
G01X3309545Y2417384D01*
G01X3312847Y2408240D01*
G01X3312847Y2392746D01*
G01X3309545Y2383348D01*
G01X3306497Y2377252D01*
G01X3300401Y2370902D01*
G01X3291003Y2367854D01*
G01X3269413Y2367854D01*
G01X3349169Y2432878D02*
G01X3383205Y2432878D01*
G01X3364663Y2408240D01*
G01X3373807Y2408240D01*
G01X3380157Y2405192D01*
G01X3383205Y2401890D01*
G01X3386253Y2392746D01*
G01X3386253Y2386396D01*
G01X3383205Y2377252D01*
G01X3376855Y2370902D01*
G01X3367711Y2367854D01*
G01X3358313Y2367854D01*
G01X3349169Y2370902D01*
G01X3346121Y2374204D01*
G01X3342819Y2380300D01*
G01X4541520Y703834D02*
G01X4541520Y638810D01*
G01X4584954Y703834D02*
G01X4584954Y638810D01*
G01X4541520Y672846D02*
G01X4584954Y672846D01*
G01X4614926Y691642D02*
G01X4621276Y694690D01*
G01X4630420Y703834D01*
G01X4630420Y638810D01*
G01X109220Y691134D02*
G01X109220Y626110D01*
G01X152654Y691134D02*
G01X152654Y626110D01*
G01X109220Y660146D02*
G01X152654Y660146D01*
G01X185928Y675640D02*
G01X185928Y678942D01*
G01X188976Y685038D01*
G01X192024Y688086D01*
G01X198120Y691134D01*
G01X210566Y691134D01*
G01X216662Y688086D01*
G01X219964Y685038D01*
G01X223012Y678942D01*
G01X223012Y672592D01*
G01X219964Y666496D01*
G01X213614Y657098D01*
G01X182626Y626110D01*
G01X226060Y626110D01*
G01X5201920Y716534D02*
G01X5201920Y651510D01*
G01X5245354Y716534D02*
G01X5245354Y651510D01*
G01X5201920Y685546D02*
G01X5245354Y685546D01*
G01X5281676Y716534D02*
G01X5315712Y716534D01*
G01X5297170Y691896D01*
G01X5306314Y691896D01*
G01X5312664Y688848D01*
G01X5315712Y685546D01*
G01X5318760Y676402D01*
G01X5318760Y670052D01*
G01X5315712Y660908D01*
G01X5309362Y654558D01*
G01X5300218Y651510D01*
G01X5290820Y651510D01*
G01X5281676Y654558D01*
G01X5278628Y657860D01*
G01X5275326Y663956D01*
G01X1264920Y2075434D02*
G01X1264920Y2010410D01*
G01X1264920Y2010410D02*
G01X1302004Y2010410D01*
G01X1331976Y2063242D02*
G01X1338326Y2066290D01*
G01X1347470Y2075434D01*
G01X1347470Y2010410D01*
G01X807720Y1643634D02*
G01X807720Y1578610D01*
G01X807720Y1643634D02*
G01X835660Y1643634D01*
G01X844804Y1640586D01*
G01X847852Y1637538D01*
G01X851154Y1631442D01*
G01X851154Y1625092D01*
G01X847852Y1618996D01*
G01X844804Y1615948D01*
G01X835660Y1612646D01*
G01X807720Y1612646D01*
G01X829310Y1612646D02*
G01X851154Y1578610D01*
G01X881126Y1631442D02*
G01X887476Y1634490D01*
G01X896620Y1643634D01*
G01X896620Y1578610D01*
G01X6370320Y2697734D02*
G01X6370320Y2632710D01*
G01X6370320Y2697734D02*
G01X6398260Y2697734D01*
G01X6407404Y2694686D01*
G01X6410452Y2691638D01*
G01X6413754Y2685542D01*
G01X6413754Y2679192D01*
G01X6410452Y2673096D01*
G01X6407404Y2670048D01*
G01X6398260Y2666746D01*
G01X6370320Y2666746D01*
G01X6391910Y2666746D02*
G01X6413754Y2632710D01*
G01X6447028Y2682240D02*
G01X6447028Y2685542D01*
G01X6450076Y2691638D01*
G01X6453124Y2694686D01*
G01X6459220Y2697734D01*
G01X6471666Y2697734D01*
G01X6477762Y2694686D01*
G01X6481064Y2691638D01*
G01X6484112Y2685542D01*
G01X6484112Y2679192D01*
G01X6481064Y2673096D01*
G01X6474714Y2663698D01*
G01X6443726Y2632710D01*
G01X6487160Y2632710D01*
G01X7601966Y1899920D02*
G01X7666990Y1899920D01*
G01X7601966Y1899920D02*
G01X7601966Y1927860D01*
G01X7605014Y1937004D01*
G01X7608062Y1940052D01*
G01X7614158Y1943354D01*
G01X7620508Y1943354D01*
G01X7626604Y1940052D01*
G01X7629652Y1937004D01*
G01X7632954Y1927860D01*
G01X7632954Y1899920D01*
G01X7632954Y1921510D02*
G01X7666990Y1943354D01*
G01X7601966Y1979676D02*
G01X7601966Y2013712D01*
G01X7626604Y1995170D01*
G01X7626604Y2004314D01*
G01X7629652Y2010664D01*
G01X7632954Y2013712D01*
G01X7642098Y2016760D01*
G01X7648448Y2016760D01*
G01X7657592Y2013712D01*
G01X7663942Y2007362D01*
G01X7666990Y1998218D01*
G01X7666990Y1988820D01*
G01X7663942Y1979676D01*
G01X7660640Y1976628D01*
G01X7654544Y1973326D01*
G01X6814566Y1899920D02*
G01X6879590Y1899920D01*
G01X6814566Y1899920D02*
G01X6814566Y1927860D01*
G01X6817614Y1937004D01*
G01X6820662Y1940052D01*
G01X6826758Y1943354D01*
G01X6833108Y1943354D01*
G01X6839204Y1940052D01*
G01X6842252Y1937004D01*
G01X6845554Y1927860D01*
G01X6845554Y1899920D01*
G01X6845554Y1921510D02*
G01X6879590Y1943354D01*
G01X6814566Y2004314D02*
G01X6857746Y1973326D01*
G01X6857746Y2019808D01*
G01X6814566Y2004314D02*
G01X6879590Y2004314D01*
G01X7068937Y1903977D02*
G01X7133961Y1903977D01*
G01X7068937Y1903977D02*
G01X7068937Y1931917D01*
G01X7071985Y1941061D01*
G01X7075033Y1944109D01*
G01X7081129Y1947411D01*
G01X7087479Y1947411D01*
G01X7093575Y1944109D01*
G01X7096623Y1941061D01*
G01X7099925Y1931917D01*
G01X7099925Y1903977D01*
G01X7099925Y1925567D02*
G01X7133961Y1947411D01*
G01X7068937Y2014721D02*
G01X7068937Y1983733D01*
G01X7096623Y1980685D01*
G01X7093575Y1983733D01*
G01X7090527Y1992877D01*
G01X7090527Y2002275D01*
G01X7093575Y2011419D01*
G01X7099925Y2017769D01*
G01X7109069Y2020817D01*
G01X7115419Y2020817D01*
G01X7124563Y2017769D01*
G01X7130913Y2011419D01*
G01X7133961Y2002275D01*
G01X7133961Y1992877D01*
G01X7130913Y1983733D01*
G01X7127611Y1980685D01*
G01X7121515Y1977383D01*
G01X6954266Y1899920D02*
G01X7019290Y1899920D01*
G01X6954266Y1899920D02*
G01X6954266Y1927860D01*
G01X6957314Y1937004D01*
G01X6960362Y1940052D01*
G01X6966458Y1943354D01*
G01X6972808Y1943354D01*
G01X6978904Y1940052D01*
G01X6981952Y1937004D01*
G01X6985254Y1927860D01*
G01X6985254Y1899920D01*
G01X6985254Y1921510D02*
G01X7019290Y1943354D01*
G01X6963410Y2010664D02*
G01X6957314Y2007362D01*
G01X6954266Y1998218D01*
G01X6954266Y1992122D01*
G01X6957314Y1982724D01*
G01X6966458Y1976628D01*
G01X6981952Y1973326D01*
G01X6997446Y1973326D01*
G01X7009892Y1976628D01*
G01X7016242Y1982724D01*
G01X7019290Y1992122D01*
G01X7019290Y1995170D01*
G01X7016242Y2004314D01*
G01X7009892Y2010664D01*
G01X7000748Y2013712D01*
G01X6997446Y2013712D01*
G01X6988302Y2010664D01*
G01X6981952Y2004314D01*
G01X6978904Y1995170D01*
G01X6978904Y1992122D01*
G01X6981952Y1982724D01*
G01X6988302Y1976628D01*
G01X6997446Y1973326D01*
G01X7474966Y1912620D02*
G01X7539990Y1912620D01*
G01X7474966Y1912620D02*
G01X7474966Y1940560D01*
G01X7478014Y1949704D01*
G01X7481062Y1952752D01*
G01X7487158Y1956054D01*
G01X7493508Y1956054D01*
G01X7499604Y1952752D01*
G01X7502652Y1949704D01*
G01X7505954Y1940560D01*
G01X7505954Y1912620D01*
G01X7505954Y1934210D02*
G01X7539990Y1956054D01*
G01X7474966Y2029460D02*
G01X7539990Y1998472D01*
G01X7474966Y1986026D02*
G01X7474966Y2029460D01*
G01X2567960Y2913634D02*
G01X2567960Y2848610D01*
G01X2567960Y2913634D02*
G01X2595900Y2913634D01*
G01X2605044Y2910586D01*
G01X2608092Y2907538D01*
G01X2611394Y2901442D01*
G01X2611394Y2895092D01*
G01X2608092Y2888996D01*
G01X2605044Y2885948D01*
G01X2595900Y2882646D01*
G01X2567960Y2882646D01*
G01X2589550Y2882646D02*
G01X2611394Y2848610D01*
G01X2641366Y2901442D02*
G01X2647716Y2904490D01*
G01X2656860Y2913634D01*
G01X2656860Y2848610D01*
G01X2693182Y2913634D02*
G01X2727218Y2913634D01*
G01X2708676Y2888996D01*
G01X2717820Y2888996D01*
G01X2724170Y2885948D01*
G01X2727218Y2882646D01*
G01X2730266Y2873502D01*
G01X2730266Y2867152D01*
G01X2727218Y2858008D01*
G01X2720868Y2851658D01*
G01X2711724Y2848610D01*
G01X2702326Y2848610D01*
G01X2693182Y2851658D01*
G01X2690134Y2854960D01*
G01X2686832Y2861056D01*
G01X3411220Y386334D02*
G01X3411220Y321310D01*
G01X3411220Y386334D02*
G01X3439160Y386334D01*
G01X3448304Y383286D01*
G01X3451352Y380238D01*
G01X3454654Y374142D01*
G01X3454654Y367792D01*
G01X3451352Y361696D01*
G01X3448304Y358648D01*
G01X3439160Y355346D01*
G01X3411220Y355346D01*
G01X3432810Y355346D02*
G01X3454654Y321310D01*
G01X3500120Y386334D02*
G01X3490976Y383286D01*
G01X3487928Y377190D01*
G01X3487928Y370840D01*
G01X3490976Y364744D01*
G01X3497072Y361696D01*
G01X3509518Y358648D01*
G01X3518662Y355346D01*
G01X3525012Y349250D01*
G01X3528060Y343154D01*
G01X3528060Y333756D01*
G01X3525012Y327660D01*
G01X3521964Y324358D01*
G01X3512566Y321310D01*
G01X3500120Y321310D01*
G01X3490976Y324358D01*
G01X3487928Y327660D01*
G01X3484626Y333756D01*
G01X3484626Y343154D01*
G01X3487928Y349250D01*
G01X3494024Y355346D01*
G01X3503422Y358648D01*
G01X3515614Y361696D01*
G01X3521964Y364744D01*
G01X3525012Y370840D01*
G01X3525012Y377190D01*
G01X3521964Y383286D01*
G01X3512566Y386334D01*
G01X3500120Y386334D01*
G01X3728720Y373634D02*
G01X3728720Y308610D01*
G01X3728720Y373634D02*
G01X3756660Y373634D01*
G01X3765804Y370586D01*
G01X3768852Y367538D01*
G01X3772154Y361442D01*
G01X3772154Y355092D01*
G01X3768852Y348996D01*
G01X3765804Y345948D01*
G01X3756660Y342646D01*
G01X3728720Y342646D01*
G01X3750310Y342646D02*
G01X3772154Y308610D01*
G01X3842512Y352044D02*
G01X3839464Y342646D01*
G01X3833114Y336550D01*
G01X3823970Y333502D01*
G01X3820922Y333502D01*
G01X3811524Y336550D01*
G01X3805428Y342646D01*
G01X3802126Y352044D01*
G01X3802126Y355092D01*
G01X3805428Y364490D01*
G01X3811524Y370586D01*
G01X3820922Y373634D01*
G01X3823970Y373634D01*
G01X3833114Y370586D01*
G01X3839464Y364490D01*
G01X3842512Y352044D01*
G01X3842512Y336550D01*
G01X3839464Y321056D01*
G01X3833114Y311658D01*
G01X3823970Y308610D01*
G01X3817620Y308610D01*
G01X3808476Y311658D01*
G01X3805428Y318008D01*
G01X6179820Y284734D02*
G01X6179820Y219710D01*
G01X6179820Y284734D02*
G01X6207760Y284734D01*
G01X6216904Y281686D01*
G01X6219952Y278638D01*
G01X6223254Y272542D01*
G01X6223254Y266192D01*
G01X6219952Y260096D01*
G01X6216904Y257048D01*
G01X6207760Y253746D01*
G01X6179820Y253746D01*
G01X6201410Y253746D02*
G01X6223254Y219710D01*
G01X6253226Y272542D02*
G01X6259576Y275590D01*
G01X6268720Y284734D01*
G01X6268720Y219710D01*
G01X6317488Y284734D02*
G01X6308090Y281686D01*
G01X6301994Y272542D01*
G01X6298692Y257048D01*
G01X6298692Y247650D01*
G01X6301994Y232156D01*
G01X6308090Y222758D01*
G01X6317488Y219710D01*
G01X6323584Y219710D01*
G01X6332728Y222758D01*
G01X6339078Y232156D01*
G01X6342126Y247650D01*
G01X6342126Y257048D01*
G01X6339078Y272542D01*
G01X6332728Y281686D01*
G01X6323584Y284734D01*
G01X6317488Y284734D01*
G01X2211487Y396763D02*
G01X2211487Y331739D01*
G01X2211487Y396763D02*
G01X2239427Y396763D01*
G01X2248571Y393715D01*
G01X2251619Y390667D01*
G01X2254921Y384571D01*
G01X2254921Y378221D01*
G01X2251619Y372125D01*
G01X2248571Y369077D01*
G01X2239427Y365775D01*
G01X2211487Y365775D01*
G01X2233077Y365775D02*
G01X2254921Y331739D01*
G01X2284893Y384571D02*
G01X2291243Y387619D01*
G01X2300387Y396763D01*
G01X2300387Y331739D01*
G01X2330359Y384571D02*
G01X2336709Y387619D01*
G01X2345853Y396763D01*
G01X2345853Y331739D01*
G01X2636520Y373634D02*
G01X2636520Y308610D01*
G01X2636520Y373634D02*
G01X2664460Y373634D01*
G01X2673604Y370586D01*
G01X2676652Y367538D01*
G01X2679954Y361442D01*
G01X2679954Y355092D01*
G01X2676652Y348996D01*
G01X2673604Y345948D01*
G01X2664460Y342646D01*
G01X2636520Y342646D01*
G01X2658110Y342646D02*
G01X2679954Y308610D01*
G01X2709926Y361442D02*
G01X2716276Y364490D01*
G01X2725420Y373634D01*
G01X2725420Y308610D01*
G01X2758694Y358140D02*
G01X2758694Y361442D01*
G01X2761742Y367538D01*
G01X2764790Y370586D01*
G01X2770886Y373634D01*
G01X2783332Y373634D01*
G01X2789428Y370586D01*
G01X2792730Y367538D01*
G01X2795778Y361442D01*
G01X2795778Y355092D01*
G01X2792730Y348996D01*
G01X2786380Y339598D01*
G01X2755392Y308610D01*
G01X2798826Y308610D01*
G01X8177017Y1830837D02*
G01X8177017Y1765813D01*
G01X8177017Y1830837D02*
G01X8204957Y1830837D01*
G01X8214101Y1827789D01*
G01X8217149Y1824741D01*
G01X8220451Y1818645D01*
G01X8220451Y1812295D01*
G01X8217149Y1806199D01*
G01X8214101Y1803151D01*
G01X8204957Y1799849D01*
G01X8177017Y1799849D01*
G01X8198607Y1799849D02*
G01X8220451Y1765813D01*
G01X8250423Y1830837D02*
G01X8250423Y1765813D01*
G01X8250423Y1830837D02*
G01X8290809Y1830837D01*
G01X8250423Y1799849D02*
G01X8275315Y1799849D01*
G01X8320781Y1818645D02*
G01X8327131Y1821693D01*
G01X8336275Y1830837D01*
G01X8336275Y1765813D01*
G01X8177017Y3062737D02*
G01X8177017Y2997713D01*
G01X8177017Y3062737D02*
G01X8204957Y3062737D01*
G01X8214101Y3059689D01*
G01X8217149Y3056641D01*
G01X8220451Y3050545D01*
G01X8220451Y3044195D01*
G01X8217149Y3038099D01*
G01X8214101Y3035051D01*
G01X8204957Y3031749D01*
G01X8177017Y3031749D01*
G01X8198607Y3031749D02*
G01X8220451Y2997713D01*
G01X8250423Y3062737D02*
G01X8250423Y2997713D01*
G01X8250423Y3062737D02*
G01X8290809Y3062737D01*
G01X8250423Y3031749D02*
G01X8275315Y3031749D01*
G01X8324083Y3047243D02*
G01X8324083Y3050545D01*
G01X8327131Y3056641D01*
G01X8330179Y3059689D01*
G01X8336275Y3062737D01*
G01X8348721Y3062737D01*
G01X8354817Y3059689D01*
G01X8358119Y3056641D01*
G01X8361167Y3050545D01*
G01X8361167Y3044195D01*
G01X8358119Y3038099D01*
G01X8351769Y3028701D01*
G01X8320781Y2997713D01*
G01X8364215Y2997713D01*
G01X490220Y2507234D02*
G01X490220Y2460752D01*
G01X493268Y2451608D01*
G01X499364Y2445258D01*
G01X508762Y2442210D01*
G01X514858Y2442210D01*
G01X524256Y2445258D01*
G01X530352Y2451608D01*
G01X533654Y2460752D01*
G01X533654Y2507234D01*
G01X563626Y2495042D02*
G01X569976Y2498090D01*
G01X579120Y2507234D01*
G01X579120Y2442210D01*
G01X1023366Y3068320D02*
G01X1069848Y3068320D01*
G01X1078992Y3071368D01*
G01X1085342Y3077464D01*
G01X1088390Y3086862D01*
G01X1088390Y3092958D01*
G01X1085342Y3102356D01*
G01X1078992Y3108452D01*
G01X1069848Y3111754D01*
G01X1023366Y3111754D01*
G01X1038860Y3145028D02*
G01X1035558Y3145028D01*
G01X1029462Y3148076D01*
G01X1026414Y3151124D01*
G01X1023366Y3157220D01*
G01X1023366Y3169666D01*
G01X1026414Y3175762D01*
G01X1029462Y3179064D01*
G01X1035558Y3182112D01*
G01X1041908Y3182112D01*
G01X1048004Y3179064D01*
G01X1057402Y3172714D01*
G01X1088390Y3141726D01*
G01X1088390Y3185160D01*
G01X1010666Y807720D02*
G01X1057148Y807720D01*
G01X1066292Y810768D01*
G01X1072642Y816864D01*
G01X1075690Y826262D01*
G01X1075690Y832358D01*
G01X1072642Y841756D01*
G01X1066292Y847852D01*
G01X1057148Y851154D01*
G01X1010666Y851154D01*
G01X1010666Y887476D02*
G01X1010666Y921512D01*
G01X1035304Y902970D01*
G01X1035304Y912114D01*
G01X1038352Y918464D01*
G01X1041654Y921512D01*
G01X1050798Y924560D01*
G01X1057148Y924560D01*
G01X1066292Y921512D01*
G01X1072642Y915162D01*
G01X1075690Y906018D01*
G01X1075690Y896620D01*
G01X1072642Y887476D01*
G01X1069340Y884428D01*
G01X1063244Y881126D01*
G01X6791717Y3283142D02*
G01X6791717Y3236660D01*
G01X6794765Y3227516D01*
G01X6800861Y3221166D01*
G01X6810259Y3218118D01*
G01X6816355Y3218118D01*
G01X6825753Y3221166D01*
G01X6831849Y3227516D01*
G01X6835151Y3236660D01*
G01X6835151Y3283142D01*
G01X6902461Y3283142D02*
G01X6871473Y3283142D01*
G01X6868425Y3255456D01*
G01X6871473Y3258504D01*
G01X6880617Y3261552D01*
G01X6890015Y3261552D01*
G01X6899159Y3258504D01*
G01X6905509Y3252154D01*
G01X6908557Y3243010D01*
G01X6908557Y3236660D01*
G01X6905509Y3227516D01*
G01X6899159Y3221166D01*
G01X6890015Y3218118D01*
G01X6880617Y3218118D01*
G01X6871473Y3221166D01*
G01X6868425Y3224468D01*
G01X6865123Y3230564D01*
G01X4808220Y526034D02*
G01X4808220Y479552D01*
G01X4811268Y470408D01*
G01X4817364Y464058D01*
G01X4826762Y461010D01*
G01X4832858Y461010D01*
G01X4842256Y464058D01*
G01X4848352Y470408D01*
G01X4851654Y479552D01*
G01X4851654Y526034D01*
G01X4918964Y516890D02*
G01X4915662Y522986D01*
G01X4906518Y526034D01*
G01X4900422Y526034D01*
G01X4891024Y522986D01*
G01X4884928Y513842D01*
G01X4881626Y498348D01*
G01X4881626Y482854D01*
G01X4884928Y470408D01*
G01X4891024Y464058D01*
G01X4900422Y461010D01*
G01X4903470Y461010D01*
G01X4912614Y464058D01*
G01X4918964Y470408D01*
G01X4922012Y479552D01*
G01X4922012Y482854D01*
G01X4918964Y491998D01*
G01X4912614Y498348D01*
G01X4903470Y501396D01*
G01X4900422Y501396D01*
G01X4891024Y498348D01*
G01X4884928Y491998D01*
G01X4881626Y482854D01*
G01X2039620Y2989834D02*
G01X2039620Y2943352D01*
G01X2042668Y2934208D01*
G01X2048764Y2927858D01*
G01X2058162Y2924810D01*
G01X2064258Y2924810D01*
G01X2073656Y2927858D01*
G01X2079752Y2934208D01*
G01X2083054Y2943352D01*
G01X2083054Y2989834D01*
G01X2144014Y2989834D02*
G01X2113026Y2946654D01*
G01X2159508Y2946654D01*
G01X2144014Y2989834D02*
G01X2144014Y2924810D01*
G01X612902Y193040D02*
G01X609854Y199390D01*
G01X603504Y205486D01*
G01X597408Y208534D01*
G01X584962Y208534D01*
G01X578866Y205486D01*
G01X572516Y199390D01*
G01X569468Y193040D01*
G01X566420Y183896D01*
G01X566420Y168402D01*
G01X569468Y159004D01*
G01X572516Y152908D01*
G01X578866Y146558D01*
G01X584962Y143510D01*
G01X597408Y143510D01*
G01X603504Y146558D01*
G01X609854Y152908D01*
G01X612902Y159004D01*
G01X673862Y208534D02*
G01X642874Y165354D01*
G01X689356Y165354D01*
G01X673862Y208534D02*
G01X673862Y143510D01*
G54D11*
G01X1201420Y692658D02*
G01X1201420Y636524D01*
G01X1173480Y664718D02*
G01X1229614Y664718D01*
G01X1292098Y702056D02*
G01X1260856Y702056D01*
G01X1257808Y673862D01*
G01X1260856Y677164D01*
G01X1270254Y680212D01*
G01X1279652Y680212D01*
G01X1289050Y677164D01*
G01X1295146Y670814D01*
G01X1298448Y661416D01*
G01X1298448Y655320D01*
G01X1295146Y645922D01*
G01X1289050Y639572D01*
G01X1279652Y636524D01*
G01X1270254Y636524D01*
G01X1260856Y639572D01*
G01X1257808Y642620D01*
G01X1254506Y648970D01*
G01X1323340Y680212D02*
G01X1342136Y636524D01*
G01X1360932Y680212D02*
G01X1342136Y636524D01*
G01X1740916Y686562D02*
G01X1737868Y692658D01*
G01X1731518Y699008D01*
G01X1725422Y702056D01*
G01X1712976Y702056D01*
G01X1706626Y699008D01*
G01X1700276Y692658D01*
G01X1697228Y686562D01*
G01X1694180Y677164D01*
G01X1694180Y661416D01*
G01X1697228Y652018D01*
G01X1700276Y645922D01*
G01X1706626Y639572D01*
G01X1712976Y636524D01*
G01X1725422Y636524D01*
G01X1731518Y639572D01*
G01X1737868Y645922D01*
G01X1740916Y652018D01*
G01X1740916Y661416D01*
G01X1725422Y661416D02*
G01X1740916Y661416D01*
G01X1765808Y702056D02*
G01X1765808Y636524D01*
G01X1765808Y702056D02*
G01X1809750Y636524D01*
G01X1809750Y702056D02*
G01X1809750Y636524D01*
G01X1834642Y702056D02*
G01X1834642Y636524D01*
G01X1834642Y702056D02*
G01X1856740Y702056D01*
G01X1865884Y699008D01*
G01X1872234Y692658D01*
G01X1875282Y686562D01*
G01X1878584Y677164D01*
G01X1878584Y661416D01*
G01X1875282Y652018D01*
G01X1872234Y645922D01*
G01X1865884Y639572D01*
G01X1856740Y636524D01*
G01X1834642Y636524D01*
G01X2048256Y712724D02*
G01X2048256Y678180D01*
G01X2023364Y696976D01*
G01X2023364Y687578D01*
G01X2020062Y681482D01*
G01X2017014Y678180D01*
G01X2007616Y675132D01*
G01X2001520Y675132D01*
G01X1992122Y678180D01*
G01X1985772Y684530D01*
G01X1982724Y693928D01*
G01X1982724Y703326D01*
G01X1985772Y712724D01*
G01X1988820Y715772D01*
G01X1995170Y718820D01*
G01X1998218Y646938D02*
G01X1995170Y650240D01*
G01X1992122Y646938D01*
G01X1995170Y643890D01*
G01X1998218Y646938D01*
G01X2048256Y612648D02*
G01X2048256Y578358D01*
G01X2023364Y596900D01*
G01X2023364Y587756D01*
G01X2020062Y581406D01*
G01X2017014Y578358D01*
G01X2007616Y575056D01*
G01X2001520Y575056D01*
G01X1992122Y578358D01*
G01X1985772Y584454D01*
G01X1982724Y593852D01*
G01X1982724Y603250D01*
G01X1985772Y612648D01*
G01X1988820Y615696D01*
G01X1995170Y618998D01*
G01X1960880Y550164D02*
G01X1960880Y493776D01*
G01X2048256Y468884D02*
G01X1982724Y468884D01*
G01X2048256Y468884D02*
G01X2048256Y428244D01*
G01X2017014Y468884D02*
G01X2017014Y443738D01*
G01X1982724Y468884D02*
G01X1982724Y428244D01*
G01X2048256Y403352D02*
G01X1982724Y403352D01*
G01X2048256Y403352D02*
G01X1982724Y359410D01*
G01X2048256Y359410D02*
G01X1982724Y359410D01*
G01X2305558Y678180D02*
G01X2249424Y678180D01*
G01X2277618Y706120D02*
G01X2277618Y649986D01*
G01X2314956Y618744D02*
G01X2314956Y584454D01*
G01X2290064Y602996D01*
G01X2290064Y593852D01*
G01X2286762Y587502D01*
G01X2283714Y584454D01*
G01X2274316Y581152D01*
G01X2268220Y581152D01*
G01X2258822Y584454D01*
G01X2252472Y590550D01*
G01X2249424Y599948D01*
G01X2249424Y609346D01*
G01X2252472Y618744D01*
G01X2255520Y621792D01*
G01X2261870Y625094D01*
G01X2264918Y552958D02*
G01X2261870Y556260D01*
G01X2258822Y552958D01*
G01X2261870Y549910D01*
G01X2264918Y552958D01*
G01X2314956Y518668D02*
G01X2314956Y484378D01*
G01X2290064Y502920D01*
G01X2290064Y493776D01*
G01X2286762Y487426D01*
G01X2283714Y484378D01*
G01X2274316Y481076D01*
G01X2268220Y481076D01*
G01X2258822Y484378D01*
G01X2252472Y490474D01*
G01X2249424Y499872D01*
G01X2249424Y509270D01*
G01X2252472Y518668D01*
G01X2255520Y521716D01*
G01X2261870Y525018D01*
G01X2293112Y456184D02*
G01X2249424Y437388D01*
G01X2293112Y418592D02*
G01X2249424Y437388D01*
G01X3002574Y695062D02*
G01X2999526Y701158D01*
G01X2993176Y707508D01*
G01X2987080Y710556D01*
G01X2974634Y710556D01*
G01X2968284Y707508D01*
G01X2961934Y701158D01*
G01X2958886Y695062D01*
G01X2955838Y685664D01*
G01X2955838Y669916D01*
G01X2958886Y660518D01*
G01X2961934Y654422D01*
G01X2968284Y648072D01*
G01X2974634Y645024D01*
G01X2987080Y645024D01*
G01X2993176Y648072D01*
G01X2999526Y654422D01*
G01X3002574Y660518D01*
G01X3002574Y669916D01*
G01X2987080Y669916D02*
G01X3002574Y669916D01*
G01X3027466Y710556D02*
G01X3027466Y645024D01*
G01X3027466Y710556D02*
G01X3071408Y645024D01*
G01X3071408Y710556D02*
G01X3071408Y645024D01*
G01X3096300Y710556D02*
G01X3096300Y645024D01*
G01X3096300Y710556D02*
G01X3118398Y710556D01*
G01X3127542Y707508D01*
G01X3133892Y701158D01*
G01X3136940Y695062D01*
G01X3140242Y685664D01*
G01X3140242Y669916D01*
G01X3136940Y660518D01*
G01X3133892Y654422D01*
G01X3127542Y648072D01*
G01X3118398Y645024D01*
G01X3096300Y645024D01*
G01X4272574Y695062D02*
G01X4269526Y701158D01*
G01X4263176Y707508D01*
G01X4257080Y710556D01*
G01X4244634Y710556D01*
G01X4238284Y707508D01*
G01X4231934Y701158D01*
G01X4228886Y695062D01*
G01X4225838Y685664D01*
G01X4225838Y669916D01*
G01X4228886Y660518D01*
G01X4231934Y654422D01*
G01X4238284Y648072D01*
G01X4244634Y645024D01*
G01X4257080Y645024D01*
G01X4263176Y648072D01*
G01X4269526Y654422D01*
G01X4272574Y660518D01*
G01X4272574Y669916D01*
G01X4257080Y669916D02*
G01X4272574Y669916D01*
G01X4297466Y710556D02*
G01X4297466Y645024D01*
G01X4297466Y710556D02*
G01X4341408Y645024D01*
G01X4341408Y710556D02*
G01X4341408Y645024D01*
G01X4366300Y710556D02*
G01X4366300Y645024D01*
G01X4366300Y710556D02*
G01X4388398Y710556D01*
G01X4397542Y707508D01*
G01X4403892Y701158D01*
G01X4406940Y695062D01*
G01X4410242Y685664D01*
G01X4410242Y669916D01*
G01X4406940Y660518D01*
G01X4403892Y654422D01*
G01X4397542Y648072D01*
G01X4388398Y645024D01*
G01X4366300Y645024D01*
G01X5025644Y1021080D02*
G01X5091176Y1021080D01*
G01X5025644Y1021080D02*
G01X5091176Y1045972D01*
G01X5025644Y1071118D02*
G01X5091176Y1045972D01*
G01X5025644Y1071118D02*
G01X5091176Y1071118D01*
G01X5025644Y1114806D02*
G01X5028692Y1108710D01*
G01X5035042Y1102360D01*
G01X5041138Y1099312D01*
G01X5050536Y1096010D01*
G01X5066284Y1096010D01*
G01X5075682Y1099312D01*
G01X5081778Y1102360D01*
G01X5088128Y1108710D01*
G01X5091176Y1114806D01*
G01X5091176Y1127252D01*
G01X5088128Y1133602D01*
G01X5081778Y1139952D01*
G01X5075682Y1143000D01*
G01X5066284Y1146048D01*
G01X5050536Y1146048D01*
G01X5041138Y1143000D01*
G01X5035042Y1139952D01*
G01X5028692Y1133602D01*
G01X5025644Y1127252D01*
G01X5025644Y1114806D01*
G01X5035042Y1214882D02*
G01X5028692Y1208532D01*
G01X5025644Y1199134D01*
G01X5025644Y1186688D01*
G01X5028692Y1177290D01*
G01X5035042Y1170940D01*
G01X5041138Y1170940D01*
G01X5047488Y1174242D01*
G01X5050536Y1177290D01*
G01X5053838Y1183640D01*
G01X5059934Y1202182D01*
G01X5062982Y1208532D01*
G01X5066284Y1211580D01*
G01X5072380Y1214882D01*
G01X5081778Y1214882D01*
G01X5088128Y1208532D01*
G01X5091176Y1199134D01*
G01X5091176Y1186688D01*
G01X5088128Y1177290D01*
G01X5081778Y1170940D01*
G01X5025644Y1239774D02*
G01X5091176Y1239774D01*
G01X5316603Y1066218D02*
G01X5310253Y1059868D01*
G01X5307205Y1050470D01*
G01X5307205Y1038024D01*
G01X5310253Y1028626D01*
G01X5316603Y1022530D01*
G01X5322699Y1022530D01*
G01X5329049Y1025578D01*
G01X5332097Y1028626D01*
G01X5335399Y1034976D01*
G01X5341495Y1053772D01*
G01X5344543Y1059868D01*
G01X5347845Y1063170D01*
G01X5353941Y1066218D01*
G01X5363339Y1066218D01*
G01X5369689Y1059868D01*
G01X5372737Y1050470D01*
G01X5372737Y1038024D01*
G01X5369689Y1028626D01*
G01X5363339Y1022530D01*
G01X5322699Y1138100D02*
G01X5316603Y1135052D01*
G01X5310253Y1128702D01*
G01X5307205Y1122352D01*
G01X5307205Y1109906D01*
G01X5310253Y1103810D01*
G01X5316603Y1097460D01*
G01X5322699Y1094412D01*
G01X5332097Y1091110D01*
G01X5347845Y1091110D01*
G01X5357243Y1094412D01*
G01X5363339Y1097460D01*
G01X5369689Y1103810D01*
G01X5372737Y1109906D01*
G01X5372737Y1122352D01*
G01X5369689Y1128702D01*
G01X5363339Y1135052D01*
G01X5357243Y1138100D01*
G01X5307205Y1162992D02*
G01X5372737Y1162992D01*
G01X5372737Y1162992D02*
G01X5372737Y1200584D01*
G01X5307205Y1225476D02*
G01X5372737Y1225476D01*
G01X5307205Y1269418D02*
G01X5350893Y1225476D01*
G01X5335399Y1241224D02*
G01X5372737Y1269418D01*
G01X5553338Y1066332D02*
G01X5547242Y1063284D01*
G01X5540892Y1056934D01*
G01X5537844Y1050838D01*
G01X5537844Y1038392D01*
G01X5540892Y1032042D01*
G01X5547242Y1025692D01*
G01X5553338Y1022644D01*
G01X5562736Y1019596D01*
G01X5578484Y1019596D01*
G01X5587882Y1022644D01*
G01X5593978Y1025692D01*
G01X5600328Y1032042D01*
G01X5603376Y1038392D01*
G01X5603376Y1050838D01*
G01X5600328Y1056934D01*
G01X5593978Y1063284D01*
G01X5587882Y1066332D01*
G01X5578484Y1066332D01*
G01X5578484Y1050838D02*
G01X5578484Y1066332D01*
G01X5537844Y1091224D02*
G01X5603376Y1091224D01*
G01X5537844Y1091224D02*
G01X5603376Y1135166D01*
G01X5537844Y1135166D02*
G01X5603376Y1135166D01*
G01X5537844Y1160058D02*
G01X5603376Y1160058D01*
G01X5537844Y1160058D02*
G01X5537844Y1182156D01*
G01X5540892Y1191300D01*
G01X5547242Y1197650D01*
G01X5553338Y1200698D01*
G01X5562736Y1204000D01*
G01X5578484Y1204000D01*
G01X5587882Y1200698D01*
G01X5593978Y1197650D01*
G01X5600328Y1191300D01*
G01X5603376Y1182156D01*
G01X5603376Y1160058D01*
G01X5813942Y1056426D02*
G01X5807592Y1050076D01*
G01X5804544Y1040678D01*
G01X5804544Y1028232D01*
G01X5807592Y1018834D01*
G01X5813942Y1012738D01*
G01X5820038Y1012738D01*
G01X5826388Y1015786D01*
G01X5829436Y1018834D01*
G01X5832738Y1025184D01*
G01X5838834Y1043980D01*
G01X5841882Y1050076D01*
G01X5845184Y1053378D01*
G01X5851280Y1056426D01*
G01X5860678Y1056426D01*
G01X5867028Y1050076D01*
G01X5870076Y1040678D01*
G01X5870076Y1028232D01*
G01X5867028Y1018834D01*
G01X5860678Y1012738D01*
G01X5804544Y1081318D02*
G01X5870076Y1081318D01*
G01X5804544Y1081318D02*
G01X5804544Y1109512D01*
G01X5807592Y1118910D01*
G01X5810640Y1121958D01*
G01X5816990Y1125260D01*
G01X5826388Y1125260D01*
G01X5832738Y1121958D01*
G01X5835786Y1118910D01*
G01X5838834Y1109512D01*
G01X5838834Y1081318D01*
G01X5820038Y1197142D02*
G01X5813942Y1194094D01*
G01X5807592Y1187744D01*
G01X5804544Y1181394D01*
G01X5804544Y1168948D01*
G01X5807592Y1162852D01*
G01X5813942Y1156502D01*
G01X5820038Y1153454D01*
G01X5829436Y1150152D01*
G01X5845184Y1150152D01*
G01X5854582Y1153454D01*
G01X5860678Y1156502D01*
G01X5867028Y1162852D01*
G01X5870076Y1168948D01*
G01X5870076Y1181394D01*
G01X5867028Y1187744D01*
G01X5860678Y1194094D01*
G01X5854582Y1197142D01*
G01X5813942Y1265976D02*
G01X5807592Y1259626D01*
G01X5804544Y1250228D01*
G01X5804544Y1237782D01*
G01X5807592Y1228384D01*
G01X5813942Y1222034D01*
G01X5820038Y1222034D01*
G01X5826388Y1225336D01*
G01X5829436Y1228384D01*
G01X5832738Y1234734D01*
G01X5838834Y1253276D01*
G01X5841882Y1259626D01*
G01X5845184Y1262674D01*
G01X5851280Y1265976D01*
G01X5860678Y1265976D01*
G01X5867028Y1259626D01*
G01X5870076Y1250228D01*
G01X5870076Y1237782D01*
G01X5867028Y1228384D01*
G01X5860678Y1222034D01*
G01X6071244Y1016421D02*
G01X6136776Y1016421D01*
G01X6071244Y1016421D02*
G01X6136776Y1041313D01*
G01X6071244Y1066459D02*
G01X6136776Y1041313D01*
G01X6071244Y1066459D02*
G01X6136776Y1066459D01*
G01X6071244Y1091351D02*
G01X6136776Y1091351D01*
G01X6080642Y1160185D02*
G01X6074292Y1153835D01*
G01X6071244Y1144691D01*
G01X6071244Y1131991D01*
G01X6074292Y1122593D01*
G01X6080642Y1116497D01*
G01X6086738Y1116497D01*
G01X6093088Y1119545D01*
G01X6096136Y1122593D01*
G01X6099438Y1128943D01*
G01X6105534Y1147739D01*
G01X6108582Y1153835D01*
G01X6111884Y1157137D01*
G01X6117980Y1160185D01*
G01X6127378Y1160185D01*
G01X6133728Y1153835D01*
G01X6136776Y1144691D01*
G01X6136776Y1131991D01*
G01X6133728Y1122593D01*
G01X6127378Y1116497D01*
G01X6071244Y1203873D02*
G01X6074292Y1197777D01*
G01X6080642Y1191427D01*
G01X6086738Y1188379D01*
G01X6096136Y1185077D01*
G01X6111884Y1185077D01*
G01X6121282Y1188379D01*
G01X6127378Y1191427D01*
G01X6133728Y1197777D01*
G01X6136776Y1203873D01*
G01X6136776Y1216319D01*
G01X6133728Y1222669D01*
G01X6127378Y1229019D01*
G01X6121282Y1232067D01*
G01X6111884Y1235115D01*
G01X6096136Y1235115D01*
G01X6086738Y1232067D01*
G01X6080642Y1229019D01*
G01X6074292Y1222669D01*
G01X6071244Y1216319D01*
G01X6071244Y1203873D01*
G01X1732574Y3323962D02*
G01X1729526Y3330058D01*
G01X1723176Y3336408D01*
G01X1717080Y3339456D01*
G01X1704634Y3339456D01*
G01X1698284Y3336408D01*
G01X1691934Y3330058D01*
G01X1688886Y3323962D01*
G01X1685838Y3314564D01*
G01X1685838Y3298816D01*
G01X1688886Y3289418D01*
G01X1691934Y3283322D01*
G01X1698284Y3276972D01*
G01X1704634Y3273924D01*
G01X1717080Y3273924D01*
G01X1723176Y3276972D01*
G01X1729526Y3283322D01*
G01X1732574Y3289418D01*
G01X1732574Y3298816D01*
G01X1717080Y3298816D02*
G01X1732574Y3298816D01*
G01X1757466Y3339456D02*
G01X1757466Y3273924D01*
G01X1757466Y3339456D02*
G01X1801408Y3273924D01*
G01X1801408Y3339456D02*
G01X1801408Y3273924D01*
G01X1826300Y3339456D02*
G01X1826300Y3273924D01*
G01X1826300Y3339456D02*
G01X1848398Y3339456D01*
G01X1857542Y3336408D01*
G01X1863892Y3330058D01*
G01X1866940Y3323962D01*
G01X1870242Y3314564D01*
G01X1870242Y3298816D01*
G01X1866940Y3289418D01*
G01X1863892Y3283322D01*
G01X1857542Y3276972D01*
G01X1848398Y3273924D01*
G01X1826300Y3273924D01*
G01X1211874Y3336662D02*
G01X1208826Y3342758D01*
G01X1202476Y3349108D01*
G01X1196380Y3352156D01*
G01X1183934Y3352156D01*
G01X1177584Y3349108D01*
G01X1171234Y3342758D01*
G01X1168186Y3336662D01*
G01X1165138Y3327264D01*
G01X1165138Y3311516D01*
G01X1168186Y3302118D01*
G01X1171234Y3296022D01*
G01X1177584Y3289672D01*
G01X1183934Y3286624D01*
G01X1196380Y3286624D01*
G01X1202476Y3289672D01*
G01X1208826Y3296022D01*
G01X1211874Y3302118D01*
G01X1211874Y3311516D01*
G01X1196380Y3311516D02*
G01X1211874Y3311516D01*
G01X1258864Y3352156D02*
G01X1258864Y3286624D01*
G01X1236766Y3352156D02*
G01X1280708Y3352156D01*
G01X1305600Y3352156D02*
G01X1349542Y3286624D01*
G01X1349542Y3352156D02*
G01X1305600Y3286624D01*
G01X1465874Y3336662D02*
G01X1462826Y3342758D01*
G01X1456476Y3349108D01*
G01X1450380Y3352156D01*
G01X1437934Y3352156D01*
G01X1431584Y3349108D01*
G01X1425234Y3342758D01*
G01X1422186Y3336662D01*
G01X1419138Y3327264D01*
G01X1419138Y3311516D01*
G01X1422186Y3302118D01*
G01X1425234Y3296022D01*
G01X1431584Y3289672D01*
G01X1437934Y3286624D01*
G01X1450380Y3286624D01*
G01X1456476Y3289672D01*
G01X1462826Y3296022D01*
G01X1465874Y3302118D01*
G01X1465874Y3311516D01*
G01X1450380Y3311516D02*
G01X1465874Y3311516D01*
G01X1490766Y3352156D02*
G01X1490766Y3286624D01*
G01X1490766Y3352156D02*
G01X1518960Y3352156D01*
G01X1528358Y3349108D01*
G01X1531406Y3346060D01*
G01X1534708Y3339710D01*
G01X1534708Y3333360D01*
G01X1531406Y3327264D01*
G01X1528358Y3323962D01*
G01X1518960Y3320914D01*
G01X1490766Y3320914D01*
G01X1512864Y3320914D02*
G01X1534708Y3286624D01*
G01X1559600Y3352156D02*
G01X1603542Y3286624D01*
G01X1603542Y3352156D02*
G01X1559600Y3286624D01*
G01X1939838Y3339456D02*
G01X1939838Y3273924D01*
G01X1939838Y3339456D02*
G01X1967778Y3339456D01*
G01X1977176Y3336408D01*
G01X1980478Y3333360D01*
G01X1983526Y3327010D01*
G01X1983526Y3320660D01*
G01X1980478Y3314564D01*
G01X1977176Y3311262D01*
G01X1967778Y3308214D01*
G01X1939838Y3308214D01*
G01X1961682Y3308214D02*
G01X1983526Y3273924D01*
G01X2008418Y3339456D02*
G01X2052360Y3273924D01*
G01X2052360Y3339456D02*
G01X2008418Y3273924D01*
G01X2231644Y3281680D02*
G01X2297176Y3281680D01*
G01X2297176Y3281680D02*
G01X2297176Y3319018D01*
G01X2231644Y3362706D02*
G01X2234692Y3356610D01*
G01X2241042Y3350260D01*
G01X2247138Y3347212D01*
G01X2256536Y3343910D01*
G01X2272284Y3343910D01*
G01X2281682Y3347212D01*
G01X2287778Y3350260D01*
G01X2294128Y3356610D01*
G01X2297176Y3362706D01*
G01X2297176Y3375152D01*
G01X2294128Y3381502D01*
G01X2287778Y3387852D01*
G01X2281682Y3390900D01*
G01X2272284Y3393948D01*
G01X2256536Y3393948D01*
G01X2247138Y3390900D01*
G01X2241042Y3387852D01*
G01X2234692Y3381502D01*
G01X2231644Y3375152D01*
G01X2231644Y3362706D01*
G01X2231644Y3437636D02*
G01X2234692Y3431540D01*
G01X2241042Y3425190D01*
G01X2247138Y3422142D01*
G01X2256536Y3418840D01*
G01X2272284Y3418840D01*
G01X2281682Y3422142D01*
G01X2287778Y3425190D01*
G01X2294128Y3431540D01*
G01X2297176Y3437636D01*
G01X2297176Y3450082D01*
G01X2294128Y3456432D01*
G01X2287778Y3462782D01*
G01X2281682Y3465830D01*
G01X2272284Y3468878D01*
G01X2256536Y3468878D01*
G01X2247138Y3465830D01*
G01X2241042Y3462782D01*
G01X2234692Y3456432D01*
G01X2231644Y3450082D01*
G01X2231644Y3437636D01*
G01X2231644Y3493770D02*
G01X2297176Y3493770D01*
G01X2231644Y3493770D02*
G01X2231644Y3521964D01*
G01X2234692Y3531362D01*
G01X2237740Y3534410D01*
G01X2244090Y3537712D01*
G01X2253488Y3537712D01*
G01X2259838Y3534410D01*
G01X2262886Y3531362D01*
G01X2265934Y3521964D01*
G01X2265934Y3493770D01*
G01X2502544Y3284536D02*
G01X2568076Y3284536D01*
G01X2502544Y3309428D02*
G01X2568076Y3309428D01*
G01X2502544Y3309428D02*
G01X2502544Y3337622D01*
G01X2505592Y3347020D01*
G01X2508640Y3350068D01*
G01X2514990Y3353370D01*
G01X2524388Y3353370D01*
G01X2530738Y3350068D01*
G01X2533786Y3347020D01*
G01X2536834Y3337622D01*
G01X2536834Y3309428D01*
G01X2502544Y3378262D02*
G01X2568076Y3378262D01*
G01X2502544Y3378262D02*
G01X2502544Y3406456D01*
G01X2505592Y3415854D01*
G01X2508640Y3418902D01*
G01X2514990Y3422204D01*
G01X2524388Y3422204D01*
G01X2530738Y3418902D01*
G01X2533786Y3415854D01*
G01X2536834Y3406456D01*
G01X2536834Y3378262D01*
G01X2511942Y3491038D02*
G01X2505592Y3484688D01*
G01X2502544Y3475290D01*
G01X2502544Y3462844D01*
G01X2505592Y3453446D01*
G01X2511942Y3447096D01*
G01X2518038Y3447096D01*
G01X2524388Y3450398D01*
G01X2527436Y3453446D01*
G01X2530738Y3459796D01*
G01X2536834Y3478338D01*
G01X2539882Y3484688D01*
G01X2543184Y3487736D01*
G01X2549280Y3491038D01*
G01X2558678Y3491038D01*
G01X2565028Y3484688D01*
G01X2568076Y3475290D01*
G01X2568076Y3462844D01*
G01X2565028Y3453446D01*
G01X2558678Y3447096D01*
G01X2772038Y3320074D02*
G01X2765942Y3317026D01*
G01X2759592Y3310676D01*
G01X2756544Y3304580D01*
G01X2756544Y3292134D01*
G01X2759592Y3285784D01*
G01X2765942Y3279434D01*
G01X2772038Y3276386D01*
G01X2781436Y3273338D01*
G01X2797184Y3273338D01*
G01X2806582Y3276386D01*
G01X2812678Y3279434D01*
G01X2819028Y3285784D01*
G01X2822076Y3292134D01*
G01X2822076Y3304580D01*
G01X2819028Y3310676D01*
G01X2812678Y3317026D01*
G01X2806582Y3320074D01*
G01X2797184Y3320074D01*
G01X2797184Y3304580D02*
G01X2797184Y3320074D01*
G01X2756544Y3344966D02*
G01X2822076Y3344966D01*
G01X2756544Y3344966D02*
G01X2756544Y3373160D01*
G01X2759592Y3382558D01*
G01X2762640Y3385606D01*
G01X2768990Y3388908D01*
G01X2778388Y3388908D01*
G01X2784738Y3385606D01*
G01X2787786Y3382558D01*
G01X2790834Y3373160D01*
G01X2790834Y3344966D01*
G01X2765942Y3457742D02*
G01X2759592Y3451392D01*
G01X2756544Y3441994D01*
G01X2756544Y3429548D01*
G01X2759592Y3420150D01*
G01X2765942Y3413800D01*
G01X2772038Y3413800D01*
G01X2778388Y3417102D01*
G01X2781436Y3420150D01*
G01X2784738Y3426500D01*
G01X2790834Y3445042D01*
G01X2793882Y3451392D01*
G01X2797184Y3454440D01*
G01X2803280Y3457742D01*
G01X2812678Y3457742D01*
G01X2819028Y3451392D01*
G01X2822076Y3441994D01*
G01X2822076Y3429548D01*
G01X2819028Y3420150D01*
G01X2812678Y3413800D01*
G01X2756544Y3501430D02*
G01X2759592Y3495334D01*
G01X2765942Y3488984D01*
G01X2772038Y3485936D01*
G01X2781436Y3482634D01*
G01X2797184Y3482634D01*
G01X2806582Y3485936D01*
G01X2812678Y3488984D01*
G01X2819028Y3495334D01*
G01X2822076Y3501430D01*
G01X2822076Y3513876D01*
G01X2819028Y3520226D01*
G01X2812678Y3526576D01*
G01X2806582Y3529624D01*
G01X2797184Y3532672D01*
G01X2781436Y3532672D01*
G01X2772038Y3529624D01*
G01X2765942Y3526576D01*
G01X2759592Y3520226D01*
G01X2756544Y3513876D01*
G01X2756544Y3501430D01*
G01X2778388Y3557564D02*
G01X2822076Y3557564D01*
G01X2790834Y3557564D02*
G01X2781436Y3566962D01*
G01X2778388Y3573312D01*
G01X2778388Y3582710D01*
G01X2781436Y3588806D01*
G01X2790834Y3592108D01*
G01X2822076Y3592108D01*
G01X3004465Y3349362D02*
G01X3001417Y3355458D01*
G01X2995067Y3361808D01*
G01X2988971Y3364856D01*
G01X2976525Y3364856D01*
G01X2970175Y3361808D01*
G01X2963825Y3355458D01*
G01X2960777Y3349362D01*
G01X2957729Y3339964D01*
G01X2957729Y3324216D01*
G01X2960777Y3314818D01*
G01X2963825Y3308722D01*
G01X2970175Y3302372D01*
G01X2976525Y3299324D01*
G01X2988971Y3299324D01*
G01X2995067Y3302372D01*
G01X3001417Y3308722D01*
G01X3004465Y3314818D01*
G01X3004465Y3324216D01*
G01X2988971Y3324216D02*
G01X3004465Y3324216D01*
G01X3029357Y3364856D02*
G01X3029357Y3299324D01*
G01X3029357Y3364856D02*
G01X3073299Y3299324D01*
G01X3073299Y3364856D02*
G01X3073299Y3299324D01*
G01X3098191Y3364856D02*
G01X3098191Y3299324D01*
G01X3098191Y3364856D02*
G01X3120289Y3364856D01*
G01X3129433Y3361808D01*
G01X3135783Y3355458D01*
G01X3138831Y3349362D01*
G01X3142133Y3339964D01*
G01X3142133Y3324216D01*
G01X3138831Y3314818D01*
G01X3135783Y3308722D01*
G01X3129433Y3302372D01*
G01X3120289Y3299324D01*
G01X3098191Y3299324D01*
G01X3275838Y3315716D02*
G01X3269742Y3312668D01*
G01X3263392Y3306318D01*
G01X3260344Y3300222D01*
G01X3260344Y3287776D01*
G01X3263392Y3281426D01*
G01X3269742Y3275076D01*
G01X3275838Y3272028D01*
G01X3285236Y3268980D01*
G01X3300984Y3268980D01*
G01X3310382Y3272028D01*
G01X3316478Y3275076D01*
G01X3322828Y3281426D01*
G01X3325876Y3287776D01*
G01X3325876Y3300222D01*
G01X3322828Y3306318D01*
G01X3316478Y3312668D01*
G01X3310382Y3315716D01*
G01X3300984Y3315716D01*
G01X3300984Y3300222D02*
G01X3300984Y3315716D01*
G01X3260344Y3340608D02*
G01X3325876Y3340608D01*
G01X3260344Y3340608D02*
G01X3260344Y3368802D01*
G01X3263392Y3378200D01*
G01X3266440Y3381248D01*
G01X3272790Y3384550D01*
G01X3282188Y3384550D01*
G01X3288538Y3381248D01*
G01X3291586Y3378200D01*
G01X3294634Y3368802D01*
G01X3294634Y3340608D01*
G01X3260344Y3409442D02*
G01X3325876Y3409442D01*
G01X3260344Y3409442D02*
G01X3260344Y3437636D01*
G01X3263392Y3447034D01*
G01X3266440Y3450082D01*
G01X3272790Y3453384D01*
G01X3279140Y3453384D01*
G01X3285236Y3450082D01*
G01X3288538Y3447034D01*
G01X3291586Y3437636D01*
G01X3291586Y3409442D01*
G01X3291586Y3431540D02*
G01X3325876Y3453384D01*
G01X3269742Y3522218D02*
G01X3263392Y3515868D01*
G01X3260344Y3506470D01*
G01X3260344Y3494024D01*
G01X3263392Y3484626D01*
G01X3269742Y3478276D01*
G01X3275838Y3478276D01*
G01X3282188Y3481578D01*
G01X3285236Y3484626D01*
G01X3288538Y3490976D01*
G01X3294634Y3509518D01*
G01X3297682Y3515868D01*
G01X3300984Y3518916D01*
G01X3307080Y3522218D01*
G01X3316478Y3522218D01*
G01X3322828Y3515868D01*
G01X3325876Y3506470D01*
G01X3325876Y3494024D01*
G01X3322828Y3484626D01*
G01X3316478Y3478276D01*
G01X4259874Y3323962D02*
G01X4256826Y3330058D01*
G01X4250476Y3336408D01*
G01X4244380Y3339456D01*
G01X4231934Y3339456D01*
G01X4225584Y3336408D01*
G01X4219234Y3330058D01*
G01X4216186Y3323962D01*
G01X4213138Y3314564D01*
G01X4213138Y3298816D01*
G01X4216186Y3289418D01*
G01X4219234Y3283322D01*
G01X4225584Y3276972D01*
G01X4231934Y3273924D01*
G01X4244380Y3273924D01*
G01X4250476Y3276972D01*
G01X4256826Y3283322D01*
G01X4259874Y3289418D01*
G01X4259874Y3298816D01*
G01X4244380Y3298816D02*
G01X4259874Y3298816D01*
G01X4284766Y3339456D02*
G01X4284766Y3273924D01*
G01X4284766Y3339456D02*
G01X4328708Y3273924D01*
G01X4328708Y3339456D02*
G01X4328708Y3273924D01*
G01X4353600Y3339456D02*
G01X4353600Y3273924D01*
G01X4353600Y3339456D02*
G01X4375698Y3339456D01*
G01X4384842Y3336408D01*
G01X4391192Y3330058D01*
G01X4394240Y3323962D01*
G01X4397542Y3314564D01*
G01X4397542Y3298816D01*
G01X4394240Y3289418D01*
G01X4391192Y3283322D01*
G01X4384842Y3276972D01*
G01X4375698Y3273924D01*
G01X4353600Y3273924D01*
G01X5529874Y3323962D02*
G01X5526826Y3330058D01*
G01X5520476Y3336408D01*
G01X5514380Y3339456D01*
G01X5501934Y3339456D01*
G01X5495584Y3336408D01*
G01X5489234Y3330058D01*
G01X5486186Y3323962D01*
G01X5483138Y3314564D01*
G01X5483138Y3298816D01*
G01X5486186Y3289418D01*
G01X5489234Y3283322D01*
G01X5495584Y3276972D01*
G01X5501934Y3273924D01*
G01X5514380Y3273924D01*
G01X5520476Y3276972D01*
G01X5526826Y3283322D01*
G01X5529874Y3289418D01*
G01X5529874Y3298816D01*
G01X5514380Y3298816D02*
G01X5529874Y3298816D01*
G01X5554766Y3339456D02*
G01X5554766Y3273924D01*
G01X5554766Y3339456D02*
G01X5598708Y3273924D01*
G01X5598708Y3339456D02*
G01X5598708Y3273924D01*
G01X5623600Y3339456D02*
G01X5623600Y3273924D01*
G01X5623600Y3339456D02*
G01X5645698Y3339456D01*
G01X5654842Y3336408D01*
G01X5661192Y3330058D01*
G01X5664240Y3323962D01*
G01X5667542Y3314564D01*
G01X5667542Y3298816D01*
G01X5664240Y3289418D01*
G01X5661192Y3283322D01*
G01X5654842Y3276972D01*
G01X5645698Y3273924D01*
G01X5623600Y3273924D01*
G54D10*
G01X2466340Y479298D02*
G01X2472690Y482346D01*
G01X2478786Y488696D01*
G01X2481834Y494792D01*
G01X2481834Y507238D01*
G01X2478786Y513334D01*
G01X2472690Y519684D01*
G01X2466340Y522732D01*
G01X2457196Y525780D01*
G01X2441702Y525780D01*
G01X2432304Y522732D01*
G01X2426208Y519684D01*
G01X2419858Y513334D01*
G01X2416810Y507238D01*
G01X2416810Y494792D01*
G01X2419858Y488696D01*
G01X2426208Y482346D01*
G01X2432304Y479298D01*
G01X2469642Y449326D02*
G01X2472690Y442976D01*
G01X2481834Y433832D01*
G01X2416810Y433832D01*
G01X2481834Y366522D02*
G01X2481834Y397510D01*
G01X2454148Y400558D01*
G01X2457196Y397510D01*
G01X2460244Y388366D01*
G01X2460244Y378968D01*
G01X2457196Y369824D01*
G01X2450846Y363474D01*
G01X2441702Y360426D01*
G01X2435352Y360426D01*
G01X2426208Y363474D01*
G01X2419858Y369824D01*
G01X2416810Y378968D01*
G01X2416810Y388366D01*
G01X2419858Y397510D01*
G01X2423160Y400558D01*
G01X2429256Y403860D01*
G01X3283966Y452120D02*
G01X3348990Y452120D01*
G01X3283966Y452120D02*
G01X3283966Y473710D01*
G01X3287014Y483108D01*
G01X3293110Y489204D01*
G01X3299460Y492252D01*
G01X3308604Y495554D01*
G01X3324098Y495554D01*
G01X3333496Y492252D01*
G01X3339592Y489204D01*
G01X3345942Y483108D01*
G01X3348990Y473710D01*
G01X3348990Y452120D01*
G01X3283966Y556514D02*
G01X3327146Y525526D01*
G01X3327146Y572008D01*
G01X3283966Y556514D02*
G01X3348990Y556514D01*
G01X2939034Y589280D02*
G01X2874010Y589280D01*
G01X2939034Y589280D02*
G01X2939034Y567690D01*
G01X2935986Y558292D01*
G01X2929890Y552196D01*
G01X2923540Y549148D01*
G01X2914396Y545846D01*
G01X2898902Y545846D01*
G01X2889504Y549148D01*
G01X2883408Y552196D01*
G01X2877058Y558292D01*
G01X2874010Y567690D01*
G01X2874010Y589280D01*
G01X2939034Y478536D02*
G01X2939034Y509524D01*
G01X2911348Y512572D01*
G01X2914396Y509524D01*
G01X2917444Y500380D01*
G01X2917444Y490982D01*
G01X2914396Y481838D01*
G01X2908046Y475488D01*
G01X2898902Y472440D01*
G01X2892552Y472440D01*
G01X2883408Y475488D01*
G01X2877058Y481838D01*
G01X2874010Y490982D01*
G01X2874010Y500380D01*
G01X2877058Y509524D01*
G01X2880360Y512572D01*
G01X2886456Y515874D01*
G01X2928366Y325120D02*
G01X2993390Y325120D01*
G01X2928366Y325120D02*
G01X2928366Y346710D01*
G01X2931414Y356108D01*
G01X2937510Y362204D01*
G01X2943860Y365252D01*
G01X2953004Y368554D01*
G01X2968498Y368554D01*
G01X2977896Y365252D01*
G01X2983992Y362204D01*
G01X2990342Y356108D01*
G01X2993390Y346710D01*
G01X2993390Y325120D01*
G01X2937510Y435864D02*
G01X2931414Y432562D01*
G01X2928366Y423418D01*
G01X2928366Y417322D01*
G01X2931414Y407924D01*
G01X2940558Y401828D01*
G01X2956052Y398526D01*
G01X2971546Y398526D01*
G01X2983992Y401828D01*
G01X2990342Y407924D01*
G01X2993390Y417322D01*
G01X2993390Y420370D01*
G01X2990342Y429514D01*
G01X2983992Y435864D01*
G01X2974848Y438912D01*
G01X2971546Y438912D01*
G01X2962402Y435864D01*
G01X2956052Y429514D01*
G01X2953004Y420370D01*
G01X2953004Y417322D01*
G01X2956052Y407924D01*
G01X2962402Y401828D01*
G01X2971546Y398526D01*
G01X3487420Y2824734D02*
G01X3487420Y2759710D01*
G01X3487420Y2824734D02*
G01X3509010Y2824734D01*
G01X3518408Y2821686D01*
G01X3524504Y2815590D01*
G01X3527552Y2809240D01*
G01X3530854Y2800096D01*
G01X3530854Y2784602D01*
G01X3527552Y2775204D01*
G01X3524504Y2769108D01*
G01X3518408Y2762758D01*
G01X3509010Y2759710D01*
G01X3487420Y2759710D01*
G01X3576320Y2824734D02*
G01X3567176Y2821686D01*
G01X3564128Y2815590D01*
G01X3564128Y2809240D01*
G01X3567176Y2803144D01*
G01X3573272Y2800096D01*
G01X3585718Y2797048D01*
G01X3594862Y2793746D01*
G01X3601212Y2787650D01*
G01X3604260Y2781554D01*
G01X3604260Y2772156D01*
G01X3601212Y2766060D01*
G01X3598164Y2762758D01*
G01X3588766Y2759710D01*
G01X3576320Y2759710D01*
G01X3567176Y2762758D01*
G01X3564128Y2766060D01*
G01X3560826Y2772156D01*
G01X3560826Y2781554D01*
G01X3564128Y2787650D01*
G01X3570224Y2793746D01*
G01X3579622Y2797048D01*
G01X3591814Y2800096D01*
G01X3598164Y2803144D01*
G01X3601212Y2809240D01*
G01X3601212Y2815590D01*
G01X3598164Y2821686D01*
G01X3588766Y2824734D01*
G01X3576320Y2824734D01*
G54D11*
G01X8196580Y3153156D02*
G01X8196580Y3087624D01*
G01X8196580Y3153156D02*
G01X8224520Y3153156D01*
G01X8233918Y3150108D01*
G01X8237220Y3147060D01*
G01X8240268Y3140710D01*
G01X8240268Y3131312D01*
G01X8237220Y3124962D01*
G01X8233918Y3121914D01*
G01X8224520Y3118866D01*
G01X8196580Y3118866D01*
G01X8280908Y3131312D02*
G01X8274558Y3128264D01*
G01X8268462Y3121914D01*
G01X8265160Y3112516D01*
G01X8265160Y3106420D01*
G01X8268462Y3097022D01*
G01X8274558Y3090672D01*
G01X8280908Y3087624D01*
G01X8290306Y3087624D01*
G01X8296402Y3090672D01*
G01X8302752Y3097022D01*
G01X8305800Y3106420D01*
G01X8305800Y3112516D01*
G01X8302752Y3121914D01*
G01X8296402Y3128264D01*
G01X8290306Y3131312D01*
G01X8280908Y3131312D01*
G01X8330692Y3131312D02*
G01X8343392Y3087624D01*
G01X8355838Y3131312D02*
G01X8343392Y3087624D01*
G01X8355838Y3131312D02*
G01X8368284Y3087624D01*
G01X8380730Y3131312D02*
G01X8368284Y3087624D01*
G01X8405622Y3112516D02*
G01X8443214Y3112516D01*
G01X8443214Y3118866D01*
G01X8440166Y3124962D01*
G01X8436864Y3128264D01*
G01X8430768Y3131312D01*
G01X8421370Y3131312D01*
G01X8415020Y3128264D01*
G01X8408924Y3121914D01*
G01X8405622Y3112516D01*
G01X8405622Y3106420D01*
G01X8408924Y3097022D01*
G01X8415020Y3090672D01*
G01X8421370Y3087624D01*
G01X8430768Y3087624D01*
G01X8436864Y3090672D01*
G01X8443214Y3097022D01*
G01X8468106Y3131312D02*
G01X8468106Y3087624D01*
G01X8468106Y3112516D02*
G01X8471408Y3121914D01*
G01X8477504Y3128264D01*
G01X8483854Y3131312D01*
G01X8493252Y3131312D01*
G01X8518144Y3112516D02*
G01X8555736Y3112516D01*
G01X8555736Y3118866D01*
G01X8552688Y3124962D01*
G01X8549386Y3128264D01*
G01X8543290Y3131312D01*
G01X8533892Y3131312D01*
G01X8527542Y3128264D01*
G01X8521446Y3121914D01*
G01X8518144Y3112516D01*
G01X8518144Y3106420D01*
G01X8521446Y3097022D01*
G01X8527542Y3090672D01*
G01X8533892Y3087624D01*
G01X8543290Y3087624D01*
G01X8549386Y3090672D01*
G01X8555736Y3097022D01*
G01X8618220Y3153156D02*
G01X8618220Y3087624D01*
G01X8618220Y3121914D02*
G01X8611870Y3128264D01*
G01X8605774Y3131312D01*
G01X8596376Y3131312D01*
G01X8590026Y3128264D01*
G01X8583930Y3121914D01*
G01X8580628Y3112516D01*
G01X8580628Y3106420D01*
G01X8583930Y3097022D01*
G01X8590026Y3090672D01*
G01X8596376Y3087624D01*
G01X8605774Y3087624D01*
G01X8611870Y3090672D01*
G01X8618220Y3097022D01*
G01X8738108Y3153156D02*
G01X8713216Y3087624D01*
G01X8738108Y3153156D02*
G01X8763254Y3087624D01*
G01X8722614Y3109468D02*
G01X8753856Y3109468D01*
G01X8788146Y3131312D02*
G01X8788146Y3087624D01*
G01X8788146Y3118866D02*
G01X8797544Y3128264D01*
G01X8803894Y3131312D01*
G01X8813292Y3131312D01*
G01X8819388Y3128264D01*
G01X8822690Y3118866D01*
G01X8822690Y3087624D01*
G01X8856980Y3153156D02*
G01X8856980Y3100070D01*
G01X8860282Y3090672D01*
G01X8866378Y3087624D01*
G01X8872728Y3087624D01*
G01X8847582Y3131312D02*
G01X8869680Y3131312D01*
G01X8209066Y1955156D02*
G01X8209066Y1889624D01*
G01X8209066Y1955156D02*
G01X8237006Y1955156D01*
G01X8246404Y1952108D01*
G01X8249706Y1949060D01*
G01X8252754Y1942710D01*
G01X8252754Y1933312D01*
G01X8249706Y1926962D01*
G01X8246404Y1923914D01*
G01X8237006Y1920866D01*
G01X8209066Y1920866D01*
G01X8315238Y1933312D02*
G01X8315238Y1889624D01*
G01X8315238Y1923914D02*
G01X8308888Y1930264D01*
G01X8302792Y1933312D01*
G01X8293394Y1933312D01*
G01X8287044Y1930264D01*
G01X8280948Y1923914D01*
G01X8277646Y1914516D01*
G01X8277646Y1908420D01*
G01X8280948Y1899022D01*
G01X8287044Y1892672D01*
G01X8293394Y1889624D01*
G01X8302792Y1889624D01*
G01X8308888Y1892672D01*
G01X8315238Y1899022D01*
G01X8374674Y1923914D02*
G01X8371372Y1930264D01*
G01X8362228Y1933312D01*
G01X8352830Y1933312D01*
G01X8343432Y1930264D01*
G01X8340130Y1923914D01*
G01X8343432Y1917818D01*
G01X8349528Y1914516D01*
G01X8365276Y1911468D01*
G01X8371372Y1908420D01*
G01X8374674Y1902070D01*
G01X8374674Y1899022D01*
G01X8371372Y1892672D01*
G01X8362228Y1889624D01*
G01X8352830Y1889624D01*
G01X8343432Y1892672D01*
G01X8340130Y1899022D01*
G01X8434110Y1923914D02*
G01X8430808Y1930264D01*
G01X8421664Y1933312D01*
G01X8412266Y1933312D01*
G01X8402868Y1930264D01*
G01X8399566Y1923914D01*
G01X8402868Y1917818D01*
G01X8408964Y1914516D01*
G01X8424712Y1911468D01*
G01X8430808Y1908420D01*
G01X8434110Y1902070D01*
G01X8434110Y1899022D01*
G01X8430808Y1892672D01*
G01X8421664Y1889624D01*
G01X8412266Y1889624D01*
G01X8402868Y1892672D01*
G01X8399566Y1899022D01*
G01X8459002Y1955156D02*
G01X8462304Y1952108D01*
G01X8465352Y1955156D01*
G01X8462304Y1958204D01*
G01X8459002Y1955156D01*
G01X8462304Y1933312D02*
G01X8462304Y1889624D01*
G01X8490244Y1933312D02*
G01X8509040Y1889624D01*
G01X8527836Y1933312D02*
G01X8509040Y1889624D01*
G01X8552728Y1914516D02*
G01X8590320Y1914516D01*
G01X8590320Y1920866D01*
G01X8587272Y1926962D01*
G01X8583970Y1930264D01*
G01X8577874Y1933312D01*
G01X8568476Y1933312D01*
G01X8562126Y1930264D01*
G01X8556030Y1923914D01*
G01X8552728Y1914516D01*
G01X8552728Y1908420D01*
G01X8556030Y1899022D01*
G01X8562126Y1892672D01*
G01X8568476Y1889624D01*
G01X8577874Y1889624D01*
G01X8583970Y1892672D01*
G01X8590320Y1899022D01*
G01X8710208Y1955156D02*
G01X8685316Y1889624D01*
G01X8710208Y1955156D02*
G01X8735354Y1889624D01*
G01X8694714Y1911468D02*
G01X8725956Y1911468D01*
G01X8760246Y1933312D02*
G01X8760246Y1889624D01*
G01X8760246Y1920866D02*
G01X8769644Y1930264D01*
G01X8775994Y1933312D01*
G01X8785392Y1933312D01*
G01X8791488Y1930264D01*
G01X8794790Y1920866D01*
G01X8794790Y1889624D01*
G01X8829080Y1955156D02*
G01X8829080Y1902070D01*
G01X8832382Y1892672D01*
G01X8838478Y1889624D01*
G01X8844828Y1889624D01*
G01X8819682Y1933312D02*
G01X8841780Y1933312D01*
G04 Text End*

G04 PolygonModel Start*
G54D12*
G01X1175857Y2143681D02*
G01X1175857Y2063684D01*
G01X1175903Y2199726D02*
G01X1175903Y2279724D01*
G01X1033889Y2143681D02*
G01X1033889Y2063684D01*
G01X1033937Y2199726D02*
G01X1033937Y2279724D01*
G01X1144875Y2032709D02*
G01X1064870Y2032709D01*
G01X1064923Y2310702D02*
G01X1144925Y2310702D01*
G01X1033937Y2279719D02*
G02X1064923Y2310702I30983J0D01*
G01X1144920Y2310702D02*
G02X1175903Y2279719I0J-30983D01*
G01X1175857Y2063689D02*
G02X1144875Y2032709I-30983J3D01*
G01X1064877Y2032709D02*
G02X1033889Y2063689I-5J30983D01*
G01X2110819Y1887057D02*
G01X2190816Y1887057D01*
G01X2054774Y1887103D02*
G01X1974776Y1887103D01*
G01X2110819Y1745089D02*
G01X2190816Y1745089D01*
G01X2054774Y1745137D02*
G01X1974776Y1745137D01*
G01X2221791Y1856075D02*
G01X2221791Y1776070D01*
G01X1943799Y1776123D02*
G01X1943799Y1856125D01*
G01X1974781Y1745137D02*
G02X1943799Y1776123I0J30983D01*
G01X1943799Y1856120D02*
G02X1974781Y1887103I30983J0D01*
G01X2190811Y1887057D02*
G02X2221791Y1856075I-3J-30983D01*
G01X2221791Y1776077D02*
G02X2190811Y1745089I-30983J-5D01*
G54D13*
G01X1856379Y1104141D02*
G01X2057380Y1104141D01*
G01X2057380Y1689859D02*
G01X1856379Y1689859D01*
G01X1841139Y1674619D02*
G01X1841139Y1119381D01*
G01X2588621Y1104141D02*
G01X2387620Y1104141D01*
G01X2387620Y1689859D02*
G01X2588621Y1689859D01*
G01X2603861Y1674619D02*
G01X2603861Y1119381D01*
G01X1856379Y1689859D02*
G03X1841139Y1674619I0J-15240D01*
G01X1841139Y1119381D02*
G03X1856379Y1104141I15240J0D01*
G01X2588621Y1689859D02*
G02X2603861Y1674619I0J-15240D01*
G01X2603861Y1119381D02*
G02X2588621Y1104141I-15240J0D01*
G01X357061Y1736580D02*
G01X357061Y1877581D01*
G01X176340Y1877581D02*
G01X176340Y1736580D01*
G01X191580Y1721340D02*
G01X341821Y1721340D01*
G01X357061Y2098820D02*
G01X357061Y1957819D01*
G01X176340Y1957819D02*
G01X176340Y2098820D01*
G01X191580Y2114060D02*
G01X341821Y2114060D01*
G01X176340Y1736580D02*
G03X191580Y1721340I15240J0D01*
G01X341821Y1721340D02*
G03X357061Y1736580I0J15240D01*
G01X176340Y2098820D02*
G02X191580Y2114060I15240J0D01*
G01X341821Y2114060D02*
G02X357061Y2098820I0J-15240D01*
G01X380241Y1382121D02*
G01X380241Y1181120D01*
G01X965959Y1181120D02*
G01X965959Y1382121D01*
G01X950719Y1397361D02*
G01X395481Y1397361D01*
G01X380241Y649879D02*
G01X380241Y850880D01*
G01X965959Y850880D02*
G01X965959Y649879D01*
G01X950719Y634639D02*
G01X395481Y634639D01*
G01X965959Y1382121D02*
G03X950719Y1397361I-15240J0D01*
G01X395481Y1397361D02*
G03X380241Y1382121I0J-15240D01*
G01X965959Y649879D02*
G02X950719Y634639I-15240J0D01*
G01X395481Y634639D02*
G02X380241Y649879I0J15240D01*
G54D12*
G01X6588681Y2418243D02*
G01X6508684Y2418243D01*
G01X6644726Y2418197D02*
G01X6724724Y2418197D01*
G01X6588681Y2560211D02*
G01X6508684Y2560211D01*
G01X6644726Y2560163D02*
G01X6724724Y2560163D01*
G01X6477709Y2449225D02*
G01X6477709Y2529230D01*
G01X6755702Y2529177D02*
G01X6755702Y2449175D01*
G01X6724719Y2560163D02*
G02X6755702Y2529177I0J-30983D01*
G01X6755702Y2449180D02*
G02X6724719Y2418197I-30983J0D01*
G01X6508689Y2418243D02*
G02X6477709Y2449225I3J30983D01*
G01X6477709Y2529223D02*
G02X6508689Y2560211I30983J5D01*
G01X6601381Y2215043D02*
G01X6521384Y2215043D01*
G01X6657426Y2214997D02*
G01X6737424Y2214997D01*
G01X6601381Y2357011D02*
G01X6521384Y2357011D01*
G01X6657426Y2356963D02*
G01X6737424Y2356963D01*
G01X6490409Y2246025D02*
G01X6490409Y2326030D01*
G01X6768402Y2325977D02*
G01X6768402Y2245975D01*
G01X6737419Y2356963D02*
G02X6768402Y2325977I0J-30983D01*
G01X6768402Y2245980D02*
G02X6737419Y2214997I-30983J0D01*
G01X6521389Y2215043D02*
G02X6490409Y2246025I3J30983D01*
G01X6490409Y2326023D02*
G02X6521389Y2357011I30983J5D01*
G54D13*
G01X7330564Y1791660D02*
G01X7293719Y1791660D01*
G01X7293719Y1713540D02*
G01X7330564Y1713540D01*
G01X7345804Y1728780D02*
G01X7345804Y1776420D01*
G01X7223636Y1791660D02*
G01X7260481Y1791660D01*
G01X7260481Y1713540D02*
G01X7223636Y1713540D01*
G01X7208396Y1728780D02*
G01X7208396Y1776420D01*
G01X7330564Y1713540D02*
G03X7345804Y1728780I0J15240D01*
G01X7345804Y1776420D02*
G03X7330564Y1791660I-15240J0D01*
G01X7223636Y1713540D02*
G02X7208396Y1728780I0J15240D01*
G01X7208396Y1776420D02*
G02X7223636Y1791660I15240J0D01*
G01X7301560Y1816070D02*
G01X7301560Y1895079D01*
G01X7201840Y1895079D02*
G01X7201840Y1816070D01*
G01X7217080Y1800830D02*
G01X7286320Y1800830D01*
G01X7301560Y2019330D02*
G01X7301560Y1940321D01*
G01X7201840Y1940321D02*
G01X7201840Y2019330D01*
G01X7217080Y2034570D02*
G01X7286320Y2034570D01*
G01X7201840Y1816070D02*
G03X7217080Y1800830I15240J0D01*
G01X7286320Y1800830D02*
G03X7301560Y1816070I0J15240D01*
G01X7201840Y2019330D02*
G02X7217080Y2034570I15240J0D01*
G01X7286320Y2034570D02*
G02X7301560Y2019330I0J-15240D01*
G01X4955664Y140660D02*
G01X4918819Y140660D01*
G01X4918819Y62540D02*
G01X4955664Y62540D01*
G01X4970904Y77780D02*
G01X4970904Y125420D01*
G01X4848736Y140660D02*
G01X4885581Y140660D01*
G01X4885581Y62540D02*
G01X4848736Y62540D01*
G01X4833496Y77780D02*
G01X4833496Y125420D01*
G01X4955664Y62540D02*
G03X4970904Y77780I0J15240D01*
G01X4970904Y125420D02*
G03X4955664Y140660I-15240J0D01*
G01X4848736Y62540D02*
G02X4833496Y77780I0J15240D01*
G01X4833496Y125420D02*
G02X4848736Y140660I15240J0D01*
G01X2701780Y2411540D02*
G01X2842781Y2411540D01*
G01X2842781Y2592261D02*
G01X2701780Y2592261D01*
G01X2686540Y2577021D02*
G01X2686540Y2426780D01*
G01X3064020Y2411540D02*
G01X2923019Y2411540D01*
G01X2923019Y2592261D02*
G01X3064020Y2592261D01*
G01X3079260Y2577021D02*
G01X3079260Y2426780D01*
G01X2701780Y2592261D02*
G03X2686540Y2577021I0J-15240D01*
G01X2686540Y2426780D02*
G03X2701780Y2411540I15240J0D01*
G01X3064020Y2592261D02*
G02X3079260Y2577021I0J-15240D01*
G01X3079260Y2426780D02*
G02X3064020Y2411540I-15240J0D01*
G01X2032030Y2145360D02*
G01X1953021Y2145360D01*
G01X1953021Y2045640D02*
G01X2032030Y2045640D01*
G01X2047270Y2060880D02*
G01X2047270Y2130120D01*
G01X1828770Y2145360D02*
G01X1907779Y2145360D01*
G01X1907779Y2045640D02*
G01X1828770Y2045640D01*
G01X1813530Y2060880D02*
G01X1813530Y2130120D01*
G01X2032030Y2045640D02*
G03X2047270Y2060880I0J15240D01*
G01X2047270Y2130120D02*
G03X2032030Y2145360I-15240J0D01*
G01X1828770Y2045640D02*
G02X1813530Y2060880I0J15240D01*
G01X1813530Y2130120D02*
G02X1828770Y2145360I15240J0D01*
G01X1983864Y2248860D02*
G01X1947019Y2248860D01*
G01X1947019Y2170740D02*
G01X1983864Y2170740D01*
G01X1999104Y2185980D02*
G01X1999104Y2233620D01*
G01X1876936Y2248860D02*
G01X1913781Y2248860D01*
G01X1913781Y2170740D02*
G01X1876936Y2170740D01*
G01X1861696Y2185980D02*
G01X1861696Y2233620D01*
G01X1983864Y2170740D02*
G03X1999104Y2185980I0J15240D01*
G01X1999104Y2233620D02*
G03X1983864Y2248860I-15240J0D01*
G01X1876936Y2170740D02*
G02X1861696Y2185980I0J15240D01*
G01X1861696Y2233620D02*
G02X1876936Y2248860I15240J0D01*
G54D12*
G01X7673500Y688790D02*
G01X7618633Y633928D01*
G01X7618633Y633928D02*
G01X7563515Y688790D01*
G01X7563515Y688790D02*
G01X7508649Y743905D01*
G01X7508649Y743905D02*
G01X7563515Y743905D01*
G01X7563515Y743905D02*
G01X7563515Y909005D01*
G01X7563515Y909005D02*
G01X7673500Y909005D01*
G01X7673500Y909005D02*
G01X7673500Y743905D01*
G01X7673500Y743905D02*
G01X7728615Y743905D01*
G01X7728615Y743905D02*
G01X7673500Y688790D01*
G01X7848600Y161115D02*
G01X7848600Y404787D01*
G01X6486464Y404787D02*
G01X6486464Y160117D01*
G01X7848600Y644787D02*
G01X7848600Y1239789D01*
G01X6486464Y1239789D02*
G01X6486464Y644787D01*
G01X7848600Y1469789D02*
G01X7848600Y1609789D01*
G01X6486464Y1609789D02*
G01X6486464Y1469789D01*
G01X6486464Y1609789D02*
G01X7846479Y1609789D01*
G01X7848600Y1609789D02*
G01X6486464Y1609789D01*
G01X6672737Y857702D02*
G01X6727599Y912564D01*
G01X6727599Y912564D02*
G01X6782719Y857702D01*
G01X6782719Y857702D02*
G01X6837583Y802579D01*
G01X6837583Y802579D02*
G01X6782719Y802579D01*
G01X6782719Y802579D02*
G01X6782719Y637479D01*
G01X6782719Y637479D02*
G01X6672737Y637479D01*
G01X6672737Y637479D02*
G01X6672737Y802579D01*
G01X6672737Y802579D02*
G01X6617619Y802579D01*
G01X6617619Y802579D02*
G01X6672737Y857702D01*
G01X7691765Y1605981D02*
G01X7691765Y1592946D01*
G01X7691765Y1592946D02*
G01X7581788Y1482969D01*
G01X7581788Y1482969D02*
G01X6701780Y1482969D01*
G01X6701780Y1482969D02*
G01X6591772Y1592971D01*
G01X6591772Y1592971D02*
G01X6591772Y1605981D01*
G01X6486464Y160117D02*
G01X7848600Y160117D01*
G01X7725499Y992797D02*
G01X6629387Y992797D01*
G01X6629387Y1195997D01*
G01X7725499Y1195997D01*
G01X7725499Y992797D01*
G01X7725499Y170117D02*
G01X6625501Y170117D01*
G01X6625501Y390106D01*
G01X7725499Y390106D01*
G01X7725499Y170117D01*
G54D10*
G01X1257300Y1458620D02*
G01X1257300Y1081380D01*
G54D13*
G01X1084529Y1458620D02*
G01X1633271Y1458620D01*
G01X1084529Y1081380D02*
G01X1633271Y1081380D01*
G01X1633271Y1458620D02*
G01X1633271Y1399939D01*
G01X1633271Y1081380D02*
G01X1633271Y1140061D01*
G36*
G01X1092149Y1466240D02*
G01X1092149Y1394859D01*
G01X1046429Y1394859D01*
G01X1046429Y1466240D01*
G01X1092149Y1466240D01*
G37*
G36*
G01X1092149Y1073760D02*
G01X1046429Y1073760D01*
G01X1046429Y1145141D01*
G01X1092149Y1145141D01*
G01X1092149Y1073760D01*
G37*
G01X339568Y1565514D02*
G01X339568Y1025281D01*
G01X66827Y1565514D02*
G01X66827Y1025281D01*
G01X339568Y1429294D02*
G01X66827Y1429294D01*
G01X339568Y1025281D02*
G01X304518Y1025281D01*
G01X66827Y1025281D02*
G01X101877Y1025281D01*
G36*
G01X347188Y1557896D02*
G01X299438Y1557896D01*
G01X299438Y1603616D01*
G01X347188Y1603616D01*
G01X347188Y1557896D01*
G37*
G36*
G01X59207Y1557896D02*
G01X59207Y1603616D01*
G01X106957Y1603616D01*
G01X106957Y1557896D01*
G01X59207Y1557896D01*
G37*
G54D10*
G01X5824080Y347287D02*
G01X5824080Y331681D01*
G01X5824080Y531919D02*
G01X5824080Y516313D01*
G54D13*
G01X5824080Y531919D02*
G01X6139320Y531919D01*
G01X5824080Y331681D02*
G01X6139320Y331681D01*
G01X6060839Y531919D02*
G01X6060839Y331681D01*
G36*
G01X6121700Y539519D02*
G01X6161700Y539519D01*
G01X6161700Y509519D01*
G01X6121700Y509519D01*
G01X6121700Y539519D01*
G37*
G36*
G01X6166515Y324081D02*
G01X6126516Y324081D01*
G01X6126516Y354081D01*
G01X6166515Y354081D01*
G01X6166515Y324081D01*
G37*
G01X3876914Y2318073D02*
G01X3876914Y2283023D01*
G01X3336681Y2318073D02*
G01X3876914Y2318073D01*
G01X3876914Y2025333D02*
G01X3876914Y2060382D01*
G01X3336681Y2025333D02*
G01X3876914Y2025333D01*
G01X3502904Y2308070D02*
G01X3502904Y2035330D01*
G36*
G01X3344301Y2325690D02*
G01X3344301Y2277941D01*
G01X3298581Y2277941D01*
G01X3298581Y2325690D01*
G01X3344301Y2325690D01*
G37*
G36*
G01X3344301Y2017710D02*
G01X3298581Y2017710D01*
G01X3298581Y2065459D01*
G01X3344301Y2065459D01*
G01X3344301Y2017710D01*
G37*
G54D14*
G01X4254500Y355600D02*
G01X4254500Y609600D01*
G01X4254500Y609600D02*
G01X4762500Y609600D01*
G01X4762500Y609600D02*
G01X4762500Y355600D01*
G01X4762500Y355600D02*
G01X4572000Y355600D01*
G54D16*
G01X4254500Y355600D02*
G01X4572000Y355600D01*
G54D12*
G01X1384300Y571500D02*
G01X1384300Y317500D01*
G01X1384300Y317500D02*
G01X114300Y317500D01*
G01X114300Y317500D02*
G01X114300Y571500D01*
G01X114300Y571500D02*
G01X1384300Y571500D01*
G01X370652Y571500D02*
G01X370652Y317500D01*
G54D14*
G01X5715000Y635000D02*
G01X5715000Y381000D01*
G01X5715000Y381000D02*
G01X5207000Y381000D01*
G01X5207000Y381000D02*
G01X5207000Y635000D01*
G01X5207000Y635000D02*
G01X5397500Y635000D01*
G54D16*
G01X5715000Y635000D02*
G01X5397500Y635000D01*
G54D13*
G01X1586121Y1513660D02*
G01X1586121Y1487279D01*
G01X1586121Y1487279D02*
G01X1080879Y1487279D01*
G01X1080879Y1487279D02*
G01X1080879Y1513660D01*
G01X1586121Y1966140D02*
G01X1586121Y1992521D01*
G01X1586121Y1992521D02*
G01X1080879Y1992521D01*
G01X1080879Y1992521D02*
G01X1080879Y1966140D01*
G01X657220Y1470391D02*
G01X785713Y1470391D01*
G01X785713Y1470391D02*
G01X785713Y1653809D01*
G01X785713Y1653809D02*
G01X657220Y1653809D01*
G01X561980Y1470391D02*
G01X433487Y1470391D01*
G01X433487Y1470391D02*
G01X433487Y1653809D01*
G01X433487Y1653809D02*
G01X561980Y1653809D01*
G01X6619479Y2604440D02*
G01X6547676Y2604440D01*
G01X6547676Y2604440D02*
G01X6547676Y2704160D01*
G01X6547676Y2704160D02*
G01X6619479Y2704160D01*
G01X6664721Y2604440D02*
G01X6736525Y2604440D01*
G01X6736525Y2604440D02*
G01X6736525Y2704160D01*
G01X6736525Y2704160D02*
G01X6664721Y2704160D01*
G01X7695260Y1755379D02*
G01X7695260Y1683576D01*
G01X7695260Y1683576D02*
G01X7595540Y1683576D01*
G01X7595540Y1683576D02*
G01X7595540Y1755379D01*
G01X7695260Y1800621D02*
G01X7695260Y1872425D01*
G01X7695260Y1872425D02*
G01X7595540Y1872425D01*
G01X7595540Y1872425D02*
G01X7595540Y1800621D01*
G01X6907860Y1755379D02*
G01X6907860Y1683576D01*
G01X6907860Y1683576D02*
G01X6808140Y1683576D01*
G01X6808140Y1683576D02*
G01X6808140Y1755379D01*
G01X6907860Y1800621D02*
G01X6907860Y1872425D01*
G01X6907860Y1872425D02*
G01X6808140Y1872425D01*
G01X6808140Y1872425D02*
G01X6808140Y1800621D01*
G01X7161860Y1755379D02*
G01X7161860Y1683576D01*
G01X7161860Y1683576D02*
G01X7062140Y1683576D01*
G01X7062140Y1683576D02*
G01X7062140Y1755379D01*
G01X7161860Y1800621D02*
G01X7161860Y1872425D01*
G01X7161860Y1872425D02*
G01X7062140Y1872425D01*
G01X7062140Y1872425D02*
G01X7062140Y1800621D01*
G01X7034860Y1755379D02*
G01X7034860Y1683576D01*
G01X7034860Y1683576D02*
G01X6935140Y1683576D01*
G01X6935140Y1683576D02*
G01X6935140Y1755379D01*
G01X7034860Y1800621D02*
G01X7034860Y1872425D01*
G01X7034860Y1872425D02*
G01X6935140Y1872425D01*
G01X6935140Y1872425D02*
G01X6935140Y1800621D01*
G01X7568260Y1755379D02*
G01X7568260Y1683576D01*
G01X7568260Y1683576D02*
G01X7468540Y1683576D01*
G01X7468540Y1683576D02*
G01X7468540Y1755379D01*
G01X7568260Y1800621D02*
G01X7568260Y1872425D01*
G01X7568260Y1872425D02*
G01X7468540Y1872425D01*
G01X7468540Y1872425D02*
G01X7468540Y1800621D01*
G01X2854721Y2920060D02*
G01X2926525Y2920060D01*
G01X2926525Y2920060D02*
G01X2926525Y2820340D01*
G01X2926525Y2820340D02*
G01X2854721Y2820340D01*
G01X2809479Y2920060D02*
G01X2737676Y2920060D01*
G01X2737676Y2920060D02*
G01X2737676Y2820340D01*
G01X2737676Y2820340D02*
G01X2809479Y2820340D01*
G01X3463920Y98791D02*
G01X3592413Y98791D01*
G01X3592413Y98791D02*
G01X3592413Y282209D01*
G01X3592413Y282209D02*
G01X3463920Y282209D01*
G01X3368680Y98791D02*
G01X3240187Y98791D01*
G01X3240187Y98791D02*
G01X3240187Y282209D01*
G01X3240187Y282209D02*
G01X3368680Y282209D01*
G01X3749680Y282209D02*
G01X3621187Y282209D01*
G01X3621187Y282209D02*
G01X3621187Y98791D01*
G01X3621187Y98791D02*
G01X3749680Y98791D01*
G01X3844920Y282209D02*
G01X3973413Y282209D01*
G01X3973413Y282209D02*
G01X3973413Y98791D01*
G01X3973413Y98791D02*
G01X3844920Y98791D01*
G01X6022579Y178740D02*
G01X5950776Y178740D01*
G01X5950776Y178740D02*
G01X5950776Y278460D01*
G01X5950776Y278460D02*
G01X6022579Y278460D01*
G01X6067821Y178740D02*
G01X6139625Y178740D01*
G01X6139625Y178740D02*
G01X6139625Y278460D01*
G01X6139625Y278460D02*
G01X6067821Y278460D01*
G01X2435220Y98791D02*
G01X2563713Y98791D01*
G01X2563713Y98791D02*
G01X2563713Y282209D01*
G01X2563713Y282209D02*
G01X2435220Y282209D01*
G01X2339980Y98791D02*
G01X2211487Y98791D01*
G01X2211487Y98791D02*
G01X2211487Y282209D01*
G01X2211487Y282209D02*
G01X2339980Y282209D01*
G01X2733680Y282209D02*
G01X2605187Y282209D01*
G01X2605187Y282209D02*
G01X2605187Y98791D01*
G01X2605187Y98791D02*
G01X2733680Y98791D01*
G01X2828920Y282209D02*
G01X2957413Y282209D01*
G01X2957413Y282209D02*
G01X2957413Y98791D01*
G01X2957413Y98791D02*
G01X2828920Y98791D01*
G54D12*
G01X9697397Y1626900D02*
G01X9697397Y1663700D01*
G01X8912832Y1663700D02*
G01X9694398Y1663700D01*
G01X8912832Y1054100D02*
G01X9697397Y1054100D01*
G01X9697397Y1096899D02*
G01X9697397Y1058901D01*
G01X9697397Y1626900D02*
G01X9697397Y1096899D01*
G01X9575800Y1092200D02*
G01X9657080Y1622201D01*
G01X9657080Y1622201D02*
G01X9657738Y1092200D01*
G01X9479280Y1622201D02*
G01X9479938Y1092200D01*
G01X9486900Y1092200D02*
G01X9568180Y1622201D01*
G01X9568180Y1622201D02*
G01X9568838Y1092200D01*
G01X9398000Y1092200D02*
G01X9479280Y1622201D01*
G01X9390367Y1625600D02*
G01X9391025Y1095599D01*
G01X9309087Y1095599D02*
G01X9390367Y1625600D01*
G01X9309087Y1625600D02*
G01X9309087Y1095599D01*
G01X8665972Y1663700D02*
G01X8402828Y1663700D01*
G01X8839200Y1227328D02*
G01X8839200Y1490472D01*
G01X8402828Y1054100D02*
G01X8665972Y1054100D01*
G01X8229600Y1490472D02*
G01X8229600Y1227328D01*
G01X9697397Y2858800D02*
G01X9697397Y2895600D01*
G01X8912832Y2895600D02*
G01X9694398Y2895600D01*
G01X8912832Y2286000D02*
G01X9697397Y2286000D01*
G01X9697397Y2328799D02*
G01X9697397Y2290801D01*
G01X9697397Y2858800D02*
G01X9697397Y2328799D01*
G01X9575800Y2324100D02*
G01X9657080Y2854101D01*
G01X9657080Y2854101D02*
G01X9657738Y2324100D01*
G01X9479280Y2854101D02*
G01X9479938Y2324100D01*
G01X9486900Y2324100D02*
G01X9568180Y2854101D01*
G01X9568180Y2854101D02*
G01X9568838Y2324100D01*
G01X9398000Y2324100D02*
G01X9479280Y2854101D01*
G01X9390367Y2857500D02*
G01X9391025Y2327499D01*
G01X9309087Y2327499D02*
G01X9390367Y2857500D01*
G01X9309087Y2857500D02*
G01X9309087Y2327499D01*
G01X8665972Y2895600D02*
G01X8402828Y2895600D01*
G01X8839200Y2459228D02*
G01X8839200Y2722372D01*
G01X8402828Y2286000D02*
G01X8665972Y2286000D01*
G01X8229600Y2722372D02*
G01X8229600Y2459228D01*
G54D17*
G01X948492Y1851058D02*
G01X948492Y2006059D01*
G01X448493Y1851058D02*
G01X448493Y2251057D01*
G01X948492Y1851058D02*
G01X448493Y1851058D01*
G01X948492Y2251057D02*
G01X448493Y2251057D01*
G01X948492Y2251057D02*
G01X948492Y2088558D01*
G01X948492Y2006059D02*
G02X948428Y2088650I-32J41295D01*
G54D12*
G01X1397000Y3236498D02*
G01X1397000Y2986499D01*
G01X1118006Y2986499D02*
G01X6247996Y2986499D01*
G01X1118006Y3236498D02*
G01X1118006Y2986499D01*
G01X6247996Y3236498D02*
G01X1118006Y3236498D01*
G01X6247996Y2986499D02*
G01X6247996Y3236498D01*
G01X1397000Y992174D02*
G01X1397000Y742174D01*
G01X1118006Y742174D02*
G01X6247996Y742174D01*
G01X1118006Y992174D02*
G01X1118006Y742174D01*
G01X6247996Y992174D02*
G01X1118006Y992174D01*
G01X6247996Y742174D02*
G01X6247996Y992174D01*
G01X7889100Y3119316D02*
G01X7889100Y3121198D01*
G01X7889100Y3121198D02*
G01X6914101Y3121198D01*
G01X6919102Y2113079D02*
G01X6919102Y2111200D01*
G01X6919102Y2111200D02*
G01X7889100Y2111200D01*
G01X7889100Y2111200D02*
G01X7889100Y2113079D01*
G01X6919102Y3121198D02*
G01X6919102Y3119316D01*
G01X4895850Y165103D02*
G01X5035547Y165097D01*
G01X4923455Y457197D02*
G01X5007933Y457197D01*
G01X4876797Y279403D02*
G01X4876797Y355597D01*
G54D13*
G01X2385040Y2898018D02*
G01X2385040Y2232782D01*
G01X2385040Y2232782D02*
G01X2110760Y2232782D01*
G01X2110760Y2232782D02*
G01X2110760Y2898018D01*
G01X2110760Y2898018D02*
G01X2385040Y2898018D01*
G01X161780Y87440D02*
G01X302781Y87440D01*
G01X302781Y268161D02*
G01X161780Y268161D01*
G01X146540Y252921D02*
G01X146540Y102680D01*
G01X524020Y87440D02*
G01X383019Y87440D01*
G01X383019Y268161D02*
G01X524020Y268161D01*
G01X539260Y252921D02*
G01X539260Y102680D01*
G01X161780Y268161D02*
G03X146540Y252921I0J-15240D01*
G01X146540Y102680D02*
G03X161780Y87440I15240J0D01*
G01X524020Y268161D02*
G02X539260Y252921I0J-15240D01*
G01X539260Y102680D02*
G02X524020Y87440I-15240J0D01*
G01X2477460Y556136D02*
G01X2477460Y592981D01*
G01X2399340Y592981D02*
G01X2399340Y556136D01*
G01X2414580Y540896D02*
G01X2462220Y540896D01*
G01X2477460Y663064D02*
G01X2477460Y626219D01*
G01X2399340Y626219D02*
G01X2399340Y663064D01*
G01X2414580Y678304D02*
G01X2462220Y678304D01*
G01X2399340Y556136D02*
G03X2414580Y540896I15240J0D01*
G01X2462220Y540896D02*
G03X2477460Y556136I0J15240D01*
G01X2399340Y663064D02*
G02X2414580Y678304I15240J0D01*
G01X2462220Y678304D02*
G02X2477460Y663064I0J-15240D01*
G01X3377979Y593321D02*
G01X3377979Y448079D01*
G01X3377979Y448079D02*
G01X3481141Y448079D01*
G01X3683221Y593321D02*
G01X3683221Y448079D01*
G01X3683221Y448079D02*
G01X3580059Y448079D01*
G01X3485060Y593321D02*
G01X3576140Y593321D01*
G01X2552479Y606021D02*
G01X2552479Y460779D01*
G01X2552479Y460779D02*
G01X2655641Y460779D01*
G01X2857721Y606021D02*
G01X2857721Y460779D01*
G01X2857721Y460779D02*
G01X2754559Y460779D01*
G01X2659560Y606021D02*
G01X2750640Y606021D01*
G54D10*
G01X3183313Y236080D02*
G01X3198919Y236080D01*
G01X2998681Y236080D02*
G01X3014287Y236080D01*
G54D13*
G01X2998681Y236080D02*
G01X2998681Y551320D01*
G01X3198919Y236080D02*
G01X3198919Y551320D01*
G01X2998681Y472839D02*
G01X3198919Y472839D01*
G36*
G01X2991081Y533700D02*
G01X2991081Y573700D01*
G01X3021081Y573700D01*
G01X3021081Y533700D01*
G01X2991081Y533700D01*
G37*
G36*
G01X3206519Y578515D02*
G01X3206519Y538516D01*
G01X3176519Y538516D01*
G01X3176519Y578515D01*
G01X3206519Y578515D01*
G37*
G54D10*
G01X3700920Y2726113D02*
G01X3700920Y2741719D01*
G01X3700920Y2541481D02*
G01X3700920Y2557087D01*
G54D13*
G01X3700920Y2541481D02*
G01X3385680Y2541481D01*
G01X3700920Y2741719D02*
G01X3385680Y2741719D01*
G01X3464161Y2541481D02*
G01X3464161Y2741719D01*
G36*
G01X3403300Y2533881D02*
G01X3363300Y2533881D01*
G01X3363300Y2563881D01*
G01X3403300Y2563881D01*
G01X3403300Y2533881D01*
G37*
G36*
G01X3358485Y2749319D02*
G01X3398484Y2749319D01*
G01X3398484Y2719319D01*
G01X3358485Y2719319D01*
G01X3358485Y2749319D01*
G37*

G04 Circle Start*
G54D18*
G01X886699Y2197100D02*
G03X916701Y2197100I15001J0D01*
G03X886699Y2197100I-15001J0D01*
G01X950199Y2298700D02*
G03X980201Y2298700I15001J0D01*
G03X950199Y2298700I-15001J0D01*
G01X6799097Y3146196D02*
G03X6829120Y3146196I15011J0D01*
G03X6799097Y3146196I-15011J0D01*
G01X5151679Y221478D02*
G03X5181702Y221478I15011J0D01*
G03X5151679Y221478I-15011J0D01*
G04 Circle End*

M02*

