G04 Layer: DrillDrawingLayer*
G04 EasyEDA Pro v3.2.149, 2026-09-25 09:52:57*
G04 Gerber Generator version 0.3*
G04 Scale: 100 percent, Rotated: No, Reflected: No*
G04 Dimensions in millimeters*
G04 Leading zeros omitted, absolute positions, 4 integers and 5 decimals*
G04 Generated by one-click*
G04 Object Configs: Pad,Via,Track,Text,Image,Dimension,BoardOutline,BoardCutout,CopperFilled,SolidRegion,FPCStiffener,Line,PlaneZone,ComponentProperty,ComponentSilkscreen,TearDrop*
G04 Layer Configs: 1,2,3,4,5,6,7,8,9,10,11,13,14,56*
G04 Copper Areas: 0*
%FSLAX45Y45*%
%MOMM*%
%AMIconRect*4,1,4,0.28,-0.28,-0.28,-0.28,-0.28,0.28,0.28,0.28,0.28,-0.28,0*4,0,4,0.233333,-0.233333,0.233333,0.233333,-0.233333,0.233333,-0.233333,-0.233333,0.233333,-0.233333,0*%
%AMIconTriangle*4,1,3,-0.339593,0.240473,0.339593,0.240473,0,-0.37884,-0.339593,0.240473,0*4,0,3,-0.265673,0.19404,0,-0.27342,0.266233,0.19404,-0.265673,0.19404,0*%
%AMIconStar6*4,1,12,0.12068,0.20888,0.298527,0.172713,0.241313,0,0.298527,-0.17206,0.12068,-0.208227,0,-0.344073,-0.120073,-0.208227,-0.298573,-0.17206,-0.240707,0,-0.298573,0.17206,-0.120073,0.20888,0,0.344073,0.12068,0.20888,0*4,0,12,-0.000467,0.273467,-0.090067,0.171733,-0.237533,0.136733,-0.193667,-0.007467,-0.237533,-0.1372,-0.090067,-0.171733,-0.000467,-0.273933,0.090067,-0.171733,0.237533,-0.1372,0.194133,0.007,0.237533,0.1372,0.090067,0.171267,-0.000467,0.273467,0*%
%AMIconStar4*4,1,8,-0.311733,0.311733,0,0.202533,0.311733,0.311733,0.202533,0,0.311733,-0.311733,0,-0.202533,-0.304407,-0.311733,-0.202533,0,-0.311733,0.311733,0*4,0,8,0.233333,-0.233333,0.1512,0,0.233333,0.233333,0,0.1512,-0.233333,0.233333,-0.1512,0,-0.233333,-0.233333,0,-0.1512,0.233333,-0.233333,0*%
%AMIconPlus*4,1,12,0.1736,-0.28,-0.1736,-0.28,-0.1736,-0.1736,-0.28,-0.1736,-0.28,0.1736,-0.1736,0.1736,-0.1736,0.28,0.1736,0.28,0.1736,0.1736,0.28,0.1736,0.28,-0.1736,0.1736,-0.1736,0.1736,-0.28,0*4,0,12,0.126933,-0.233333,0.126933,-0.126933,0.233333,-0.126933,0.233333,0.126933,0.126933,0.126933,0.126933,0.233333,-0.126933,0.233333,-0.126933,0.126933,-0.233333,0.126933,-0.233333,-0.126933,-0.126933,-0.126933,-0.126933,-0.233333,0.126933,-0.233333,0*%
%AMIconX*4,1,16,0.28,-0.28,0.076347,-0.28,0,-0.203653,-0.076347,-0.28,-0.28,-0.28,-0.28,-0.076347,-0.203653,0,-0.28,0.076347,-0.28,0.28,-0.076347,0.28,0,0.203653,0.076347,0.28,0.28,0.28,0.28,0.076347,0.203653,0,0.28,-0.076347,0.28,-0.28,0*4,0,16,0.23352,-0.23296,0.23352,-0.095853,0.137107,0.000093,0.23352,0.095853,0.23352,0.2331,0.095853,0.2331,0,0.137107,-0.095853,0.2331,-0.23352,0.2331,-0.23352,0.095853,-0.137107,0.000093,-0.23352,-0.095853,-0.23352,-0.23296,-0.095853,-0.23296,0,-0.137107,0.095853,-0.23296,0.23352,-0.23296,0*%
%ADD10IconRect*%
%ADD11C,0.616X0.522667*%
%ADD12IconTriangle*%
%ADD13IconStar6*%
%ADD14IconStar4*%
%ADD15IconPlus*%
%ADD16IconX*%
%ADD17C,0.2032*%
%ADD18C,0.254*%
G75*


G04 Drill Drawing Start*
G54D10*
G01X342900Y1663700D03*
G01X698500Y1079500D03*
G54D11*
G01X8534387Y1358913D03*
G01X8534387Y2590813D03*
G54D12*
G01X367792Y3366134D03*
G01X1752816Y318134D03*
G01X8739264Y292734D03*
G01X8751240Y3366134D03*
G54D13*
G01X241300Y444500D03*
G01X495300Y444500D03*
G01X749300Y444500D03*
G01X1003300Y444500D03*
G01X1257300Y444500D03*
G54D14*
G01X8279389Y1103914D03*
G01X8279389Y1613911D03*
G01X8279389Y2335814D03*
G01X8279389Y2845811D03*
G01X8789386Y1103914D03*
G01X8789386Y1613911D03*
G01X8789386Y2335814D03*
G01X8789386Y2845811D03*
G54D15*
G01X1270000Y867175D03*
G01X1270000Y3111500D03*
G01X1524000Y867175D03*
G01X1524000Y3111500D03*
G01X1778000Y867175D03*
G01X1778000Y3111500D03*
G01X2032000Y867175D03*
G01X2032000Y3111500D03*
G01X2286000Y867175D03*
G01X2286000Y3111500D03*
G01X2540000Y867175D03*
G01X2540000Y3111500D03*
G01X2794000Y867175D03*
G01X2794000Y3111500D03*
G01X3048000Y867175D03*
G01X3048000Y3111500D03*
G01X3302000Y867175D03*
G01X3302000Y3111500D03*
G01X3556000Y867175D03*
G01X3556000Y3111500D03*
G01X3810000Y867175D03*
G01X3810000Y3111500D03*
G01X4064000Y867175D03*
G01X4064000Y3111500D03*
G01X4318000Y867175D03*
G01X4318000Y3111500D03*
G01X4381500Y482600D03*
G01X4572000Y867175D03*
G01X4572000Y3111500D03*
G01X4635500Y482600D03*
G01X4826000Y867175D03*
G01X4826000Y3111500D03*
G01X5080000Y867175D03*
G01X5080000Y3111500D03*
G01X5334000Y508000D03*
G01X5334000Y867175D03*
G01X5334000Y3111500D03*
G01X5588000Y508000D03*
G01X5588000Y867175D03*
G01X5588000Y3111500D03*
G01X5842000Y867175D03*
G01X5842000Y3111500D03*
G01X6096000Y867175D03*
G01X6096000Y3111500D03*
G54D16*
G01X571500Y1879600D03*
G01X584200Y2603500D03*
G01X609600Y1444124D03*
G01X609600Y1981200D03*
G01X609600Y2120900D03*
G01X695949Y1879600D03*
G01X800100Y1981200D03*
G01X800100Y2120900D03*
G01X1397000Y1155700D03*
G01X1511300Y2077700D03*
G01X1728704Y2806700D03*
G01X1765300Y1796512D03*
G01X1765300Y1882843D03*
G01X2146300Y190500D03*
G01X2171700Y2781300D03*
G01X2295205Y1397000D03*
G01X2480501Y1779095D03*
G01X2515226Y637032D03*
G01X2590800Y342900D03*
G01X2679700Y1079500D03*
G01X2679700Y1473200D03*
G01X2781300Y2667000D03*
G01X2959100Y546100D03*
G01X2997200Y2286000D03*
G01X3060700Y419100D03*
G01X3086100Y2857500D03*
G01X3115705Y2286000D03*
G01X3136900Y419100D03*
G01X3149600Y2590800D03*
G01X3213100Y114300D03*
G01X3227008Y2590800D03*
G01X3289300Y1866900D03*
G01X3608400Y337905D03*
G01X3670300Y2489200D03*
G01X3848100Y1943100D03*
G01X3848100Y2641600D03*
G01X4038600Y2171700D03*
G01X4508500Y266700D03*
G01X5073650Y514350D03*
G01X6362700Y2806700D03*
G01X6489700Y2895600D03*
G01X6686702Y2391827D03*
G01X6756400Y2946400D03*
G01X6965506Y901700D03*
G01X7112000Y1365046D03*
G01X7340600Y1282700D03*
G01X7404100Y1816182D03*
G01X7405204Y884953D03*
G01X7405204Y1402552D03*
G01X7405204Y1657161D03*
G01X7512050Y1314450D03*
G04 Drill Drawing End*

G04 Text Start*
G54D17*
G01X11368246Y3512094D02*
G01X11368246Y3391952D01*
G01X11368246Y3512094D02*
G01X11413966Y3391952D01*
G01X11459686Y3512094D02*
G01X11413966Y3391952D01*
G01X11459686Y3512094D02*
G01X11459686Y3391952D01*
G01X11576018Y3471962D02*
G01X11576018Y3391952D01*
G01X11576018Y3454944D02*
G01X11564588Y3466374D01*
G01X11553158Y3471962D01*
G01X11536140Y3471962D01*
G01X11524710Y3466374D01*
G01X11513280Y3454944D01*
G01X11507438Y3437672D01*
G01X11507438Y3426242D01*
G01X11513280Y3409224D01*
G01X11524710Y3397794D01*
G01X11536140Y3391952D01*
G01X11553158Y3391952D01*
G01X11564588Y3397794D01*
G01X11576018Y3409224D01*
G01X11623770Y3471962D02*
G01X11623770Y3391952D01*
G01X11623770Y3437672D02*
G01X11629612Y3454944D01*
G01X11641042Y3466374D01*
G01X11652472Y3471962D01*
G01X11669490Y3471962D01*
G01X11717242Y3512094D02*
G01X11717242Y3391952D01*
G01X11774392Y3471962D02*
G01X11717242Y3414812D01*
G01X11740102Y3437672D02*
G01X11780234Y3391952D01*
G01X12905526Y3483392D02*
G01X12899684Y3494822D01*
G01X12888254Y3506252D01*
G01X12876824Y3512094D01*
G01X12853964Y3512094D01*
G01X12842534Y3506252D01*
G01X12831104Y3494822D01*
G01X12825516Y3483392D01*
G01X12819674Y3466374D01*
G01X12819674Y3437672D01*
G01X12825516Y3420654D01*
G01X12831104Y3409224D01*
G01X12842534Y3397794D01*
G01X12853964Y3391952D01*
G01X12876824Y3391952D01*
G01X12888254Y3397794D01*
G01X12899684Y3409224D01*
G01X12905526Y3420654D01*
G01X12981980Y3471962D02*
G01X12970550Y3466374D01*
G01X12959120Y3454944D01*
G01X12953278Y3437672D01*
G01X12953278Y3426242D01*
G01X12959120Y3409224D01*
G01X12970550Y3397794D01*
G01X12981980Y3391952D01*
G01X12998998Y3391952D01*
G01X13010428Y3397794D01*
G01X13021858Y3409224D01*
G01X13027700Y3426242D01*
G01X13027700Y3437672D01*
G01X13021858Y3454944D01*
G01X13010428Y3466374D01*
G01X12998998Y3471962D01*
G01X12981980Y3471962D01*
G01X13075452Y3471962D02*
G01X13075452Y3414812D01*
G01X13081294Y3397794D01*
G01X13092724Y3391952D01*
G01X13109742Y3391952D01*
G01X13121172Y3397794D01*
G01X13138444Y3414812D01*
G01X13138444Y3471962D02*
G01X13138444Y3391952D01*
G01X13186196Y3471962D02*
G01X13186196Y3391952D01*
G01X13186196Y3449102D02*
G01X13203468Y3466374D01*
G01X13214898Y3471962D01*
G01X13231916Y3471962D01*
G01X13243346Y3466374D01*
G01X13249188Y3449102D01*
G01X13249188Y3391952D01*
G01X13314212Y3512094D02*
G01X13314212Y3414812D01*
G01X13319800Y3397794D01*
G01X13331230Y3391952D01*
G01X13342660Y3391952D01*
G01X13296940Y3471962D02*
G01X13337072Y3471962D01*
G01X14313847Y3494822D02*
G01X14302417Y3506252D01*
G01X14285399Y3512094D01*
G01X14262539Y3512094D01*
G01X14245267Y3506252D01*
G01X14233837Y3494822D01*
G01X14233837Y3483392D01*
G01X14239679Y3471962D01*
G01X14245267Y3466374D01*
G01X14256697Y3460532D01*
G01X14290987Y3449102D01*
G01X14302417Y3443514D01*
G01X14308259Y3437672D01*
G01X14313847Y3426242D01*
G01X14313847Y3409224D01*
G01X14302417Y3397794D01*
G01X14285399Y3391952D01*
G01X14262539Y3391952D01*
G01X14245267Y3397794D01*
G01X14233837Y3409224D01*
G01X14361599Y3512094D02*
G01X14367441Y3506252D01*
G01X14373029Y3512094D01*
G01X14367441Y3517682D01*
G01X14361599Y3512094D01*
G01X14367441Y3471962D02*
G01X14367441Y3391952D01*
G01X14483773Y3471962D02*
G01X14420781Y3391952D01*
G01X14420781Y3471962D02*
G01X14483773Y3471962D01*
G01X14420781Y3391952D02*
G01X14483773Y3391952D01*
G01X14531525Y3437672D02*
G01X14600105Y3437672D01*
G01X14600105Y3449102D01*
G01X14594517Y3460532D01*
G01X14588675Y3466374D01*
G01X14577245Y3471962D01*
G01X14560227Y3471962D01*
G01X14548797Y3466374D01*
G01X14537367Y3454944D01*
G01X14531525Y3437672D01*
G01X14531525Y3426242D01*
G01X14537367Y3409224D01*
G01X14548797Y3397794D01*
G01X14560227Y3391952D01*
G01X14577245Y3391952D01*
G01X14588675Y3397794D01*
G01X14600105Y3409224D01*
G01X18127295Y3512094D02*
G01X18127295Y3391952D01*
G01X18127295Y3512094D02*
G01X18178857Y3512094D01*
G01X18195875Y3506252D01*
G01X18201717Y3500664D01*
G01X18207305Y3489234D01*
G01X18207305Y3471962D01*
G01X18201717Y3460532D01*
G01X18195875Y3454944D01*
G01X18178857Y3449102D01*
G01X18127295Y3449102D01*
G01X18255057Y3512094D02*
G01X18255057Y3391952D01*
G01X18371389Y3471962D02*
G01X18371389Y3391952D01*
G01X18371389Y3454944D02*
G01X18359959Y3466374D01*
G01X18348529Y3471962D01*
G01X18331511Y3471962D01*
G01X18320081Y3466374D01*
G01X18308651Y3454944D01*
G01X18302809Y3437672D01*
G01X18302809Y3426242D01*
G01X18308651Y3409224D01*
G01X18320081Y3397794D01*
G01X18331511Y3391952D01*
G01X18348529Y3391952D01*
G01X18359959Y3397794D01*
G01X18371389Y3409224D01*
G01X18436413Y3512094D02*
G01X18436413Y3414812D01*
G01X18442001Y3397794D01*
G01X18453431Y3391952D01*
G01X18464861Y3391952D01*
G01X18419141Y3471962D02*
G01X18459273Y3471962D01*
G01X18512613Y3437672D02*
G01X18581193Y3437672D01*
G01X18581193Y3449102D01*
G01X18575605Y3460532D01*
G01X18569763Y3466374D01*
G01X18558333Y3471962D01*
G01X18541315Y3471962D01*
G01X18529885Y3466374D01*
G01X18518455Y3454944D01*
G01X18512613Y3437672D01*
G01X18512613Y3426242D01*
G01X18518455Y3409224D01*
G01X18529885Y3397794D01*
G01X18541315Y3391952D01*
G01X18558333Y3391952D01*
G01X18569763Y3397794D01*
G01X18581193Y3409224D01*
G01X18697525Y3512094D02*
G01X18697525Y3391952D01*
G01X18697525Y3454944D02*
G01X18686095Y3466374D01*
G01X18674665Y3471962D01*
G01X18657647Y3471962D01*
G01X18646217Y3466374D01*
G01X18634787Y3454944D01*
G01X18628945Y3437672D01*
G01X18628945Y3426242D01*
G01X18634787Y3409224D01*
G01X18646217Y3397794D01*
G01X18657647Y3391952D01*
G01X18674665Y3391952D01*
G01X18686095Y3397794D01*
G01X18697525Y3409224D01*
G01X19668712Y3494822D02*
G01X19657282Y3506252D01*
G01X19640264Y3512094D01*
G01X19617404Y3512094D01*
G01X19600132Y3506252D01*
G01X19588702Y3494822D01*
G01X19588702Y3483392D01*
G01X19594544Y3471962D01*
G01X19600132Y3466374D01*
G01X19611562Y3460532D01*
G01X19645852Y3449102D01*
G01X19657282Y3443514D01*
G01X19663124Y3437672D01*
G01X19668712Y3426242D01*
G01X19668712Y3409224D01*
G01X19657282Y3397794D01*
G01X19640264Y3391952D01*
G01X19617404Y3391952D01*
G01X19600132Y3397794D01*
G01X19588702Y3409224D01*
G01X19716464Y3512094D02*
G01X19716464Y3391952D01*
G01X19716464Y3449102D02*
G01X19733736Y3466374D01*
G01X19745166Y3471962D01*
G01X19762184Y3471962D01*
G01X19773614Y3466374D01*
G01X19779456Y3449102D01*
G01X19779456Y3391952D01*
G01X19895788Y3471962D02*
G01X19895788Y3391952D01*
G01X19895788Y3454944D02*
G01X19884358Y3466374D01*
G01X19872928Y3471962D01*
G01X19855910Y3471962D01*
G01X19844480Y3466374D01*
G01X19833050Y3454944D01*
G01X19827208Y3437672D01*
G01X19827208Y3426242D01*
G01X19833050Y3409224D01*
G01X19844480Y3397794D01*
G01X19855910Y3391952D01*
G01X19872928Y3391952D01*
G01X19884358Y3397794D01*
G01X19895788Y3409224D01*
G01X19943540Y3471962D02*
G01X19943540Y3352074D01*
G01X19943540Y3454944D02*
G01X19954970Y3466374D01*
G01X19966400Y3471962D01*
G01X19983672Y3471962D01*
G01X19995102Y3466374D01*
G01X20006532Y3454944D01*
G01X20012120Y3437672D01*
G01X20012120Y3426242D01*
G01X20006532Y3409224D01*
G01X19995102Y3397794D01*
G01X19983672Y3391952D01*
G01X19966400Y3391952D01*
G01X19954970Y3397794D01*
G01X19943540Y3409224D01*
G01X20059872Y3437672D02*
G01X20128452Y3437672D01*
G01X20128452Y3449102D01*
G01X20122864Y3460532D01*
G01X20117022Y3466374D01*
G01X20105592Y3471962D01*
G01X20088574Y3471962D01*
G01X20077144Y3466374D01*
G01X20065714Y3454944D01*
G01X20059872Y3437672D01*
G01X20059872Y3426242D01*
G01X20065714Y3409224D01*
G01X20077144Y3397794D01*
G01X20088574Y3391952D01*
G01X20105592Y3391952D01*
G01X20117022Y3397794D01*
G01X20128452Y3409224D01*
G01X21019883Y3512094D02*
G01X21065603Y3391952D01*
G01X21111323Y3512094D02*
G01X21065603Y3391952D01*
G01X21159075Y3512094D02*
G01X21164917Y3506252D01*
G01X21170505Y3512094D01*
G01X21164917Y3517682D01*
G01X21159075Y3512094D01*
G01X21164917Y3471962D02*
G01X21164917Y3391952D01*
G01X21286837Y3471962D02*
G01X21286837Y3391952D01*
G01X21286837Y3454944D02*
G01X21275407Y3466374D01*
G01X21263977Y3471962D01*
G01X21246959Y3471962D01*
G01X21235529Y3466374D01*
G01X21224099Y3454944D01*
G01X21218257Y3437672D01*
G01X21218257Y3426242D01*
G01X21224099Y3409224D01*
G01X21235529Y3397794D01*
G01X21246959Y3391952D01*
G01X21263977Y3391952D01*
G01X21275407Y3397794D01*
G01X21286837Y3409224D01*
G01X21437459Y3534954D02*
G01X21334589Y3352074D01*
G01X21485211Y3512094D02*
G01X21485211Y3391952D01*
G01X21485211Y3512094D02*
G01X21536773Y3512094D01*
G01X21553791Y3506252D01*
G01X21559633Y3500664D01*
G01X21565221Y3489234D01*
G01X21565221Y3471962D01*
G01X21559633Y3460532D01*
G01X21553791Y3454944D01*
G01X21536773Y3449102D01*
G01X21485211Y3449102D01*
G01X21681553Y3471962D02*
G01X21681553Y3391952D01*
G01X21681553Y3454944D02*
G01X21670123Y3466374D01*
G01X21658693Y3471962D01*
G01X21641675Y3471962D01*
G01X21630245Y3466374D01*
G01X21618815Y3454944D01*
G01X21612973Y3437672D01*
G01X21612973Y3426242D01*
G01X21618815Y3409224D01*
G01X21630245Y3397794D01*
G01X21641675Y3391952D01*
G01X21658693Y3391952D01*
G01X21670123Y3397794D01*
G01X21681553Y3409224D01*
G01X21797885Y3512094D02*
G01X21797885Y3391952D01*
G01X21797885Y3454944D02*
G01X21786455Y3466374D01*
G01X21775025Y3471962D01*
G01X21758007Y3471962D01*
G01X21746577Y3466374D01*
G01X21735147Y3454944D01*
G01X21729305Y3437672D01*
G01X21729305Y3426242D01*
G01X21735147Y3409224D01*
G01X21746577Y3397794D01*
G01X21758007Y3391952D01*
G01X21775025Y3391952D01*
G01X21786455Y3397794D01*
G01X21797885Y3409224D01*
G01X22689062Y3512094D02*
G01X22689062Y3391952D01*
G01X22689062Y3512094D02*
G01X22740624Y3512094D01*
G01X22757642Y3506252D01*
G01X22763484Y3500664D01*
G01X22769072Y3489234D01*
G01X22769072Y3471962D01*
G01X22763484Y3460532D01*
G01X22757642Y3454944D01*
G01X22740624Y3449102D01*
G01X22689062Y3449102D01*
G01X22885404Y3471962D02*
G01X22885404Y3391952D01*
G01X22885404Y3454944D02*
G01X22873974Y3466374D01*
G01X22862544Y3471962D01*
G01X22845526Y3471962D01*
G01X22834096Y3466374D01*
G01X22822666Y3454944D01*
G01X22816824Y3437672D01*
G01X22816824Y3426242D01*
G01X22822666Y3409224D01*
G01X22834096Y3397794D01*
G01X22845526Y3391952D01*
G01X22862544Y3391952D01*
G01X22873974Y3397794D01*
G01X22885404Y3409224D01*
G01X23001736Y3512094D02*
G01X23001736Y3391952D01*
G01X23001736Y3454944D02*
G01X22990306Y3466374D01*
G01X22978876Y3471962D01*
G01X22961858Y3471962D01*
G01X22950428Y3466374D01*
G01X22938998Y3454944D01*
G01X22933156Y3437672D01*
G01X22933156Y3426242D01*
G01X22938998Y3409224D01*
G01X22950428Y3397794D01*
G01X22961858Y3391952D01*
G01X22978876Y3391952D01*
G01X22990306Y3397794D01*
G01X23001736Y3409224D01*
G01X23257514Y3494822D02*
G01X23246084Y3506252D01*
G01X23229066Y3512094D01*
G01X23206206Y3512094D01*
G01X23188934Y3506252D01*
G01X23177504Y3494822D01*
G01X23177504Y3483392D01*
G01X23183346Y3471962D01*
G01X23188934Y3466374D01*
G01X23200364Y3460532D01*
G01X23234654Y3449102D01*
G01X23246084Y3443514D01*
G01X23251926Y3437672D01*
G01X23257514Y3426242D01*
G01X23257514Y3409224D01*
G01X23246084Y3397794D01*
G01X23229066Y3391952D01*
G01X23206206Y3391952D01*
G01X23188934Y3397794D01*
G01X23177504Y3409224D01*
G01X23305266Y3512094D02*
G01X23305266Y3391952D01*
G01X23305266Y3449102D02*
G01X23322538Y3466374D01*
G01X23333968Y3471962D01*
G01X23350986Y3471962D01*
G01X23362416Y3466374D01*
G01X23368258Y3449102D01*
G01X23368258Y3391952D01*
G01X23484590Y3471962D02*
G01X23484590Y3391952D01*
G01X23484590Y3454944D02*
G01X23473160Y3466374D01*
G01X23461730Y3471962D01*
G01X23444712Y3471962D01*
G01X23433282Y3466374D01*
G01X23421852Y3454944D01*
G01X23416010Y3437672D01*
G01X23416010Y3426242D01*
G01X23421852Y3409224D01*
G01X23433282Y3397794D01*
G01X23444712Y3391952D01*
G01X23461730Y3391952D01*
G01X23473160Y3397794D01*
G01X23484590Y3409224D01*
G01X23532342Y3471962D02*
G01X23532342Y3352074D01*
G01X23532342Y3454944D02*
G01X23543772Y3466374D01*
G01X23555202Y3471962D01*
G01X23572474Y3471962D01*
G01X23583904Y3466374D01*
G01X23595334Y3454944D01*
G01X23600922Y3437672D01*
G01X23600922Y3426242D01*
G01X23595334Y3409224D01*
G01X23583904Y3397794D01*
G01X23572474Y3391952D01*
G01X23555202Y3391952D01*
G01X23543772Y3397794D01*
G01X23532342Y3409224D01*
G01X23648674Y3437672D02*
G01X23717254Y3437672D01*
G01X23717254Y3449102D01*
G01X23711666Y3460532D01*
G01X23705824Y3466374D01*
G01X23694394Y3471962D01*
G01X23677376Y3471962D01*
G01X23665946Y3466374D01*
G01X23654516Y3454944D01*
G01X23648674Y3437672D01*
G01X23648674Y3426242D01*
G01X23654516Y3409224D01*
G01X23665946Y3397794D01*
G01X23677376Y3391952D01*
G01X23694394Y3391952D01*
G01X23705824Y3397794D01*
G01X23717254Y3409224D01*
G01X24608431Y3512094D02*
G01X24608431Y3391952D01*
G01X24608431Y3391952D02*
G01X24677011Y3391952D01*
G01X24793343Y3471962D02*
G01X24793343Y3391952D01*
G01X24793343Y3454944D02*
G01X24781913Y3466374D01*
G01X24770483Y3471962D01*
G01X24753465Y3471962D01*
G01X24742035Y3466374D01*
G01X24730605Y3454944D01*
G01X24724763Y3437672D01*
G01X24724763Y3426242D01*
G01X24730605Y3409224D01*
G01X24742035Y3397794D01*
G01X24753465Y3391952D01*
G01X24770483Y3391952D01*
G01X24781913Y3397794D01*
G01X24793343Y3409224D01*
G01X24846937Y3471962D02*
G01X24881227Y3391952D01*
G01X24915517Y3471962D02*
G01X24881227Y3391952D01*
G01X24869797Y3369092D01*
G01X24858367Y3357662D01*
G01X24846937Y3352074D01*
G01X24841095Y3352074D01*
G01X24963269Y3437672D02*
G01X25031849Y3437672D01*
G01X25031849Y3449102D01*
G01X25026261Y3460532D01*
G01X25020419Y3466374D01*
G01X25008989Y3471962D01*
G01X24991971Y3471962D01*
G01X24980541Y3466374D01*
G01X24969111Y3454944D01*
G01X24963269Y3437672D01*
G01X24963269Y3426242D01*
G01X24969111Y3409224D01*
G01X24980541Y3397794D01*
G01X24991971Y3391952D01*
G01X25008989Y3391952D01*
G01X25020419Y3397794D01*
G01X25031849Y3409224D01*
G01X25079601Y3471962D02*
G01X25079601Y3391952D01*
G01X25079601Y3437672D02*
G01X25085443Y3454944D01*
G01X25096873Y3466374D01*
G01X25108303Y3471962D01*
G01X25125321Y3471962D01*
G01X25301089Y3512094D02*
G01X25301089Y3391952D01*
G01X25301089Y3512094D02*
G01X25352651Y3512094D01*
G01X25369669Y3506252D01*
G01X25375511Y3500664D01*
G01X25381099Y3489234D01*
G01X25381099Y3471962D01*
G01X25375511Y3460532D01*
G01X25369669Y3454944D01*
G01X25352651Y3449102D01*
G01X25301089Y3449102D01*
G01X25497431Y3471962D02*
G01X25497431Y3391952D01*
G01X25497431Y3454944D02*
G01X25486001Y3466374D01*
G01X25474571Y3471962D01*
G01X25457553Y3471962D01*
G01X25446123Y3466374D01*
G01X25434693Y3454944D01*
G01X25428851Y3437672D01*
G01X25428851Y3426242D01*
G01X25434693Y3409224D01*
G01X25446123Y3397794D01*
G01X25457553Y3391952D01*
G01X25474571Y3391952D01*
G01X25486001Y3397794D01*
G01X25497431Y3409224D01*
G01X25545183Y3512094D02*
G01X25551025Y3506252D01*
G01X25556613Y3512094D01*
G01X25551025Y3517682D01*
G01X25545183Y3512094D01*
G01X25551025Y3471962D02*
G01X25551025Y3391952D01*
G01X25604365Y3471962D02*
G01X25604365Y3391952D01*
G01X25604365Y3437672D02*
G01X25610207Y3454944D01*
G01X25621637Y3466374D01*
G01X25633067Y3471962D01*
G01X25650085Y3471962D01*
G01X12825516Y2902821D02*
G01X12825516Y2908663D01*
G01X12831104Y2920093D01*
G01X12836946Y2925681D01*
G01X12848376Y2931523D01*
G01X12871236Y2931523D01*
G01X12882666Y2925681D01*
G01X12888254Y2920093D01*
G01X12894096Y2908663D01*
G01X12894096Y2897233D01*
G01X12888254Y2885803D01*
G01X12876824Y2868531D01*
G01X12819674Y2811381D01*
G01X12899684Y2811381D01*
G01X14233837Y2908663D02*
G01X14245267Y2914251D01*
G01X14262539Y2931523D01*
G01X14262539Y2811381D01*
G01X14378871Y2914251D02*
G01X14373283Y2925681D01*
G01X14356011Y2931523D01*
G01X14344581Y2931523D01*
G01X14327563Y2925681D01*
G01X14316133Y2908663D01*
G01X14310291Y2879961D01*
G01X14310291Y2851513D01*
G01X14316133Y2828653D01*
G01X14327563Y2817223D01*
G01X14344581Y2811381D01*
G01X14350423Y2811381D01*
G01X14367441Y2817223D01*
G01X14378871Y2828653D01*
G01X14384713Y2845671D01*
G01X14384713Y2851513D01*
G01X14378871Y2868531D01*
G01X14367441Y2879961D01*
G01X14350423Y2885803D01*
G01X14344581Y2885803D01*
G01X14327563Y2879961D01*
G01X14316133Y2868531D01*
G01X14310291Y2851513D01*
G01X14438307Y2840083D02*
G01X14432465Y2834241D01*
G01X14438307Y2828653D01*
G01X14443895Y2834241D01*
G01X14438307Y2840083D01*
G01X14491647Y2908663D02*
G01X14503077Y2914251D01*
G01X14520349Y2931523D01*
G01X14520349Y2811381D01*
G01X14568101Y2891391D02*
G01X14568101Y2811381D01*
G01X14568101Y2868531D02*
G01X14585373Y2885803D01*
G01X14596803Y2891391D01*
G01X14613821Y2891391D01*
G01X14625251Y2885803D01*
G01X14631093Y2868531D01*
G01X14631093Y2811381D01*
G01X14631093Y2868531D02*
G01X14648111Y2885803D01*
G01X14659541Y2891391D01*
G01X14676813Y2891391D01*
G01X14688243Y2885803D01*
G01X14693831Y2868531D01*
G01X14693831Y2811381D01*
G01X14741583Y2931523D02*
G01X14747425Y2925681D01*
G01X14753013Y2931523D01*
G01X14747425Y2937111D01*
G01X14741583Y2931523D01*
G01X14747425Y2891391D02*
G01X14747425Y2811381D01*
G01X14800765Y2931523D02*
G01X14800765Y2811381D01*
G01X14888649Y2954383D02*
G01X14877219Y2942953D01*
G01X14865789Y2925681D01*
G01X14854359Y2902821D01*
G01X14848517Y2874373D01*
G01X14848517Y2851513D01*
G01X14854359Y2822811D01*
G01X14865789Y2799951D01*
G01X14877219Y2782933D01*
G01X14888649Y2771503D01*
G01X14970691Y2931523D02*
G01X14953673Y2925681D01*
G01X14942243Y2908663D01*
G01X14936401Y2879961D01*
G01X14936401Y2862943D01*
G01X14942243Y2834241D01*
G01X14953673Y2817223D01*
G01X14970691Y2811381D01*
G01X14982121Y2811381D01*
G01X14999393Y2817223D01*
G01X15010823Y2834241D01*
G01X15016411Y2862943D01*
G01X15016411Y2879961D01*
G01X15010823Y2908663D01*
G01X14999393Y2925681D01*
G01X14982121Y2931523D01*
G01X14970691Y2931523D01*
G01X15070005Y2840083D02*
G01X15064163Y2834241D01*
G01X15070005Y2828653D01*
G01X15075593Y2834241D01*
G01X15070005Y2840083D01*
G01X15180495Y2931523D02*
G01X15123345Y2851513D01*
G01X15209197Y2851513D01*
G01X15180495Y2931523D02*
G01X15180495Y2811381D01*
G01X15256949Y2908663D02*
G01X15268379Y2914251D01*
G01X15285651Y2931523D01*
G01X15285651Y2811381D01*
G01X15367693Y2931523D02*
G01X15350675Y2925681D01*
G01X15339245Y2908663D01*
G01X15333403Y2879961D01*
G01X15333403Y2862943D01*
G01X15339245Y2834241D01*
G01X15350675Y2817223D01*
G01X15367693Y2811381D01*
G01X15379123Y2811381D01*
G01X15396395Y2817223D01*
G01X15407825Y2834241D01*
G01X15413413Y2862943D01*
G01X15413413Y2879961D01*
G01X15407825Y2908663D01*
G01X15396395Y2925681D01*
G01X15379123Y2931523D01*
G01X15367693Y2931523D01*
G01X15461165Y2891391D02*
G01X15461165Y2811381D01*
G01X15461165Y2868531D02*
G01X15478437Y2885803D01*
G01X15489867Y2891391D01*
G01X15506885Y2891391D01*
G01X15518315Y2885803D01*
G01X15524157Y2868531D01*
G01X15524157Y2811381D01*
G01X15524157Y2868531D02*
G01X15541175Y2885803D01*
G01X15552605Y2891391D01*
G01X15569877Y2891391D01*
G01X15581307Y2885803D01*
G01X15586895Y2868531D01*
G01X15586895Y2811381D01*
G01X15634647Y2891391D02*
G01X15634647Y2811381D01*
G01X15634647Y2868531D02*
G01X15651919Y2885803D01*
G01X15663349Y2891391D01*
G01X15680367Y2891391D01*
G01X15691797Y2885803D01*
G01X15697639Y2868531D01*
G01X15697639Y2811381D01*
G01X15697639Y2868531D02*
G01X15714657Y2885803D01*
G01X15726087Y2891391D01*
G01X15743359Y2891391D01*
G01X15754789Y2885803D01*
G01X15760377Y2868531D01*
G01X15760377Y2811381D01*
G01X15808129Y2954383D02*
G01X15819559Y2942953D01*
G01X15830989Y2925681D01*
G01X15842419Y2902821D01*
G01X15848261Y2874373D01*
G01X15848261Y2851513D01*
G01X15842419Y2822811D01*
G01X15830989Y2799951D01*
G01X15819559Y2782933D01*
G01X15808129Y2771503D01*
G01X18127295Y2931523D02*
G01X18127295Y2811381D01*
G01X18127295Y2931523D02*
G01X18178857Y2931523D01*
G01X18195875Y2925681D01*
G01X18201717Y2920093D01*
G01X18207305Y2908663D01*
G01X18207305Y2891391D01*
G01X18201717Y2879961D01*
G01X18195875Y2874373D01*
G01X18178857Y2868531D01*
G01X18127295Y2868531D01*
G01X18295189Y2931523D02*
G01X18295189Y2811381D01*
G01X18255057Y2931523D02*
G01X18335067Y2931523D01*
G01X18382819Y2931523D02*
G01X18382819Y2811381D01*
G01X18462829Y2931523D02*
G01X18462829Y2811381D01*
G01X18382819Y2874373D02*
G01X18462829Y2874373D01*
G01X19588702Y2931523D02*
G01X19588702Y2811381D01*
G01X19588702Y2931523D02*
G01X19640264Y2931523D01*
G01X19657282Y2925681D01*
G01X19663124Y2920093D01*
G01X19668712Y2908663D01*
G01X19668712Y2897233D01*
G01X19663124Y2885803D01*
G01X19657282Y2879961D01*
G01X19640264Y2874373D01*
G01X19588702Y2874373D01*
G01X19628834Y2874373D02*
G01X19668712Y2811381D01*
G01X19745166Y2891391D02*
G01X19733736Y2885803D01*
G01X19722306Y2874373D01*
G01X19716464Y2857101D01*
G01X19716464Y2845671D01*
G01X19722306Y2828653D01*
G01X19733736Y2817223D01*
G01X19745166Y2811381D01*
G01X19762184Y2811381D01*
G01X19773614Y2817223D01*
G01X19785044Y2828653D01*
G01X19790886Y2845671D01*
G01X19790886Y2857101D01*
G01X19785044Y2874373D01*
G01X19773614Y2885803D01*
G01X19762184Y2891391D01*
G01X19745166Y2891391D01*
G01X19838638Y2891391D02*
G01X19838638Y2834241D01*
G01X19844480Y2817223D01*
G01X19855910Y2811381D01*
G01X19872928Y2811381D01*
G01X19884358Y2817223D01*
G01X19901630Y2834241D01*
G01X19901630Y2891391D02*
G01X19901630Y2811381D01*
G01X19949382Y2891391D02*
G01X19949382Y2811381D01*
G01X19949382Y2868531D02*
G01X19966654Y2885803D01*
G01X19978084Y2891391D01*
G01X19995102Y2891391D01*
G01X20006532Y2885803D01*
G01X20012374Y2868531D01*
G01X20012374Y2811381D01*
G01X20128706Y2931523D02*
G01X20128706Y2811381D01*
G01X20128706Y2874373D02*
G01X20117276Y2885803D01*
G01X20105846Y2891391D01*
G01X20088828Y2891391D01*
G01X20077398Y2885803D01*
G01X20065968Y2874373D01*
G01X20060126Y2857101D01*
G01X20060126Y2845671D01*
G01X20065968Y2828653D01*
G01X20077398Y2817223D01*
G01X20088828Y2811381D01*
G01X20105846Y2811381D01*
G01X20117276Y2817223D01*
G01X20128706Y2828653D01*
G01X21019883Y2931523D02*
G01X21065603Y2811381D01*
G01X21111323Y2931523D02*
G01X21065603Y2811381D01*
G01X21159075Y2931523D02*
G01X21164917Y2925681D01*
G01X21170505Y2931523D01*
G01X21164917Y2937111D01*
G01X21159075Y2931523D01*
G01X21164917Y2891391D02*
G01X21164917Y2811381D01*
G01X21286837Y2891391D02*
G01X21286837Y2811381D01*
G01X21286837Y2874373D02*
G01X21275407Y2885803D01*
G01X21263977Y2891391D01*
G01X21246959Y2891391D01*
G01X21235529Y2885803D01*
G01X21224099Y2874373D01*
G01X21218257Y2857101D01*
G01X21218257Y2845671D01*
G01X21224099Y2828653D01*
G01X21235529Y2817223D01*
G01X21246959Y2811381D01*
G01X21263977Y2811381D01*
G01X21275407Y2817223D01*
G01X21286837Y2828653D01*
G01X24648563Y2931523D02*
G01X24648563Y2811381D01*
G01X24608431Y2931523D02*
G01X24688441Y2931523D01*
G01X24764895Y2891391D02*
G01X24753465Y2885803D01*
G01X24742035Y2874373D01*
G01X24736193Y2857101D01*
G01X24736193Y2845671D01*
G01X24742035Y2828653D01*
G01X24753465Y2817223D01*
G01X24764895Y2811381D01*
G01X24781913Y2811381D01*
G01X24793343Y2817223D01*
G01X24804773Y2828653D01*
G01X24810615Y2845671D01*
G01X24810615Y2857101D01*
G01X24804773Y2874373D01*
G01X24793343Y2885803D01*
G01X24781913Y2891391D01*
G01X24764895Y2891391D01*
G01X24858367Y2891391D02*
G01X24858367Y2771503D01*
G01X24858367Y2874373D02*
G01X24869797Y2885803D01*
G01X24881227Y2891391D01*
G01X24898499Y2891391D01*
G01X24909929Y2885803D01*
G01X24921359Y2874373D01*
G01X24926947Y2857101D01*
G01X24926947Y2845671D01*
G01X24921359Y2828653D01*
G01X24909929Y2817223D01*
G01X24898499Y2811381D01*
G01X24881227Y2811381D01*
G01X24869797Y2817223D01*
G01X24858367Y2828653D01*
G01X25102715Y2931523D02*
G01X25102715Y2811381D01*
G01X25102715Y2811381D02*
G01X25171295Y2811381D01*
G01X25287627Y2891391D02*
G01X25287627Y2811381D01*
G01X25287627Y2874373D02*
G01X25276197Y2885803D01*
G01X25264767Y2891391D01*
G01X25247749Y2891391D01*
G01X25236319Y2885803D01*
G01X25224889Y2874373D01*
G01X25219047Y2857101D01*
G01X25219047Y2845671D01*
G01X25224889Y2828653D01*
G01X25236319Y2817223D01*
G01X25247749Y2811381D01*
G01X25264767Y2811381D01*
G01X25276197Y2817223D01*
G01X25287627Y2828653D01*
G01X25341221Y2891391D02*
G01X25375511Y2811381D01*
G01X25409801Y2891391D02*
G01X25375511Y2811381D01*
G01X25364081Y2788521D01*
G01X25352651Y2777091D01*
G01X25341221Y2771503D01*
G01X25335379Y2771503D01*
G01X25457553Y2857101D02*
G01X25526133Y2857101D01*
G01X25526133Y2868531D01*
G01X25520545Y2879961D01*
G01X25514703Y2885803D01*
G01X25503273Y2891391D01*
G01X25486255Y2891391D01*
G01X25474825Y2885803D01*
G01X25463395Y2874373D01*
G01X25457553Y2857101D01*
G01X25457553Y2845671D01*
G01X25463395Y2828653D01*
G01X25474825Y2817223D01*
G01X25486255Y2811381D01*
G01X25503273Y2811381D01*
G01X25514703Y2817223D01*
G01X25526133Y2828653D01*
G01X25573885Y2891391D02*
G01X25573885Y2811381D01*
G01X25573885Y2857101D02*
G01X25579727Y2874373D01*
G01X25591157Y2885803D01*
G01X25602587Y2891391D01*
G01X25619605Y2891391D01*
G01X25667357Y2862943D02*
G01X25770227Y2862943D01*
G01X25817979Y2931523D02*
G01X25817979Y2811381D01*
G01X25817979Y2931523D02*
G01X25869541Y2931523D01*
G01X25886559Y2925681D01*
G01X25892401Y2920093D01*
G01X25897989Y2908663D01*
G01X25897989Y2897233D01*
G01X25892401Y2885803D01*
G01X25886559Y2879961D01*
G01X25869541Y2874373D01*
G01X25817979Y2874373D02*
G01X25869541Y2874373D01*
G01X25886559Y2868531D01*
G01X25892401Y2862943D01*
G01X25897989Y2851513D01*
G01X25897989Y2834241D01*
G01X25892401Y2822811D01*
G01X25886559Y2817223D01*
G01X25869541Y2811381D01*
G01X25817979Y2811381D01*
G01X25974443Y2891391D02*
G01X25963013Y2885803D01*
G01X25951583Y2874373D01*
G01X25945741Y2857101D01*
G01X25945741Y2845671D01*
G01X25951583Y2828653D01*
G01X25963013Y2817223D01*
G01X25974443Y2811381D01*
G01X25991461Y2811381D01*
G01X26002891Y2817223D01*
G01X26014321Y2828653D01*
G01X26020163Y2845671D01*
G01X26020163Y2857101D01*
G01X26014321Y2874373D01*
G01X26002891Y2885803D01*
G01X25991461Y2891391D01*
G01X25974443Y2891391D01*
G01X26085187Y2931523D02*
G01X26085187Y2834241D01*
G01X26090775Y2817223D01*
G01X26102205Y2811381D01*
G01X26113635Y2811381D01*
G01X26067915Y2891391D02*
G01X26108047Y2891391D01*
G01X26178659Y2931523D02*
G01X26178659Y2834241D01*
G01X26184247Y2817223D01*
G01X26195677Y2811381D01*
G01X26207107Y2811381D01*
G01X26161387Y2891391D02*
G01X26201519Y2891391D01*
G01X26283561Y2891391D02*
G01X26272131Y2885803D01*
G01X26260701Y2874373D01*
G01X26254859Y2857101D01*
G01X26254859Y2845671D01*
G01X26260701Y2828653D01*
G01X26272131Y2817223D01*
G01X26283561Y2811381D01*
G01X26300579Y2811381D01*
G01X26312009Y2817223D01*
G01X26323439Y2828653D01*
G01X26329281Y2845671D01*
G01X26329281Y2857101D01*
G01X26323439Y2874373D01*
G01X26312009Y2885803D01*
G01X26300579Y2891391D01*
G01X26283561Y2891391D01*
G01X26377033Y2891391D02*
G01X26377033Y2811381D01*
G01X26377033Y2868531D02*
G01X26394305Y2885803D01*
G01X26405735Y2891391D01*
G01X26422753Y2891391D01*
G01X26434183Y2885803D01*
G01X26440025Y2868531D01*
G01X26440025Y2811381D01*
G01X26440025Y2868531D02*
G01X26457043Y2885803D01*
G01X26468473Y2891391D01*
G01X26485745Y2891391D01*
G01X26497175Y2885803D01*
G01X26502763Y2868531D01*
G01X26502763Y2811381D01*
G01X26678531Y2931523D02*
G01X26678531Y2811381D01*
G01X26678531Y2811381D02*
G01X26747111Y2811381D01*
G01X26863443Y2891391D02*
G01X26863443Y2811381D01*
G01X26863443Y2874373D02*
G01X26852013Y2885803D01*
G01X26840583Y2891391D01*
G01X26823565Y2891391D01*
G01X26812135Y2885803D01*
G01X26800705Y2874373D01*
G01X26794863Y2857101D01*
G01X26794863Y2845671D01*
G01X26800705Y2828653D01*
G01X26812135Y2817223D01*
G01X26823565Y2811381D01*
G01X26840583Y2811381D01*
G01X26852013Y2817223D01*
G01X26863443Y2828653D01*
G01X26917037Y2891391D02*
G01X26951327Y2811381D01*
G01X26985617Y2891391D02*
G01X26951327Y2811381D01*
G01X26939897Y2788521D01*
G01X26928467Y2777091D01*
G01X26917037Y2771503D01*
G01X26911195Y2771503D01*
G01X27033369Y2857101D02*
G01X27101949Y2857101D01*
G01X27101949Y2868531D01*
G01X27096361Y2879961D01*
G01X27090519Y2885803D01*
G01X27079089Y2891391D01*
G01X27062071Y2891391D01*
G01X27050641Y2885803D01*
G01X27039211Y2874373D01*
G01X27033369Y2857101D01*
G01X27033369Y2845671D01*
G01X27039211Y2828653D01*
G01X27050641Y2817223D01*
G01X27062071Y2811381D01*
G01X27079089Y2811381D01*
G01X27090519Y2817223D01*
G01X27101949Y2828653D01*
G01X27149701Y2891391D02*
G01X27149701Y2811381D01*
G01X27149701Y2857101D02*
G01X27155543Y2874373D01*
G01X27166973Y2885803D01*
G01X27178403Y2891391D01*
G01X27195421Y2891391D01*
G01X12825516Y2322249D02*
G01X12825516Y2328091D01*
G01X12831104Y2339521D01*
G01X12836946Y2345109D01*
G01X12848376Y2350951D01*
G01X12871236Y2350951D01*
G01X12882666Y2345109D01*
G01X12888254Y2339521D01*
G01X12894096Y2328091D01*
G01X12894096Y2316661D01*
G01X12888254Y2305231D01*
G01X12876824Y2287959D01*
G01X12819674Y2230809D01*
G01X12899684Y2230809D01*
G01X14302417Y2350951D02*
G01X14245267Y2350951D01*
G01X14239679Y2299389D01*
G01X14245267Y2305231D01*
G01X14262539Y2310819D01*
G01X14279557Y2310819D01*
G01X14296829Y2305231D01*
G01X14308259Y2293801D01*
G01X14313847Y2276529D01*
G01X14313847Y2265099D01*
G01X14308259Y2248081D01*
G01X14296829Y2236651D01*
G01X14279557Y2230809D01*
G01X14262539Y2230809D01*
G01X14245267Y2236651D01*
G01X14239679Y2242239D01*
G01X14233837Y2253669D01*
G01X14361599Y2328091D02*
G01X14373029Y2333679D01*
G01X14390301Y2350951D01*
G01X14390301Y2230809D01*
G01X14443895Y2259511D02*
G01X14438053Y2253669D01*
G01X14443895Y2248081D01*
G01X14449483Y2253669D01*
G01X14443895Y2259511D01*
G01X14503077Y2322249D02*
G01X14503077Y2328091D01*
G01X14508665Y2339521D01*
G01X14514507Y2345109D01*
G01X14525937Y2350951D01*
G01X14548797Y2350951D01*
G01X14560227Y2345109D01*
G01X14565815Y2339521D01*
G01X14571657Y2328091D01*
G01X14571657Y2316661D01*
G01X14565815Y2305231D01*
G01X14554385Y2287959D01*
G01X14497235Y2230809D01*
G01X14577245Y2230809D01*
G01X14624997Y2310819D02*
G01X14687989Y2230809D01*
G01X14687989Y2310819D02*
G01X14624997Y2230809D01*
G01X14804321Y2350951D02*
G01X14747171Y2350951D01*
G01X14741583Y2299389D01*
G01X14747171Y2305231D01*
G01X14764443Y2310819D01*
G01X14781461Y2310819D01*
G01X14798733Y2305231D01*
G01X14810163Y2293801D01*
G01X14815751Y2276529D01*
G01X14815751Y2265099D01*
G01X14810163Y2248081D01*
G01X14798733Y2236651D01*
G01X14781461Y2230809D01*
G01X14764443Y2230809D01*
G01X14747171Y2236651D01*
G01X14741583Y2242239D01*
G01X14735741Y2253669D01*
G01X14863503Y2328091D02*
G01X14874933Y2333679D01*
G01X14892205Y2350951D01*
G01X14892205Y2230809D01*
G01X14945799Y2259511D02*
G01X14939957Y2253669D01*
G01X14945799Y2248081D01*
G01X14951387Y2253669D01*
G01X14945799Y2259511D01*
G01X15004981Y2322249D02*
G01X15004981Y2328091D01*
G01X15010569Y2339521D01*
G01X15016411Y2345109D01*
G01X15027841Y2350951D01*
G01X15050701Y2350951D01*
G01X15062131Y2345109D01*
G01X15067719Y2339521D01*
G01X15073561Y2328091D01*
G01X15073561Y2316661D01*
G01X15067719Y2305231D01*
G01X15056289Y2287959D01*
G01X14999139Y2230809D01*
G01X15079149Y2230809D01*
G01X15126901Y2310819D02*
G01X15126901Y2230809D01*
G01X15126901Y2287959D02*
G01X15144173Y2305231D01*
G01X15155603Y2310819D01*
G01X15172621Y2310819D01*
G01X15184051Y2305231D01*
G01X15189893Y2287959D01*
G01X15189893Y2230809D01*
G01X15189893Y2287959D02*
G01X15206911Y2305231D01*
G01X15218341Y2310819D01*
G01X15235613Y2310819D01*
G01X15247043Y2305231D01*
G01X15252631Y2287959D01*
G01X15252631Y2230809D01*
G01X15300383Y2350951D02*
G01X15306225Y2345109D01*
G01X15311813Y2350951D01*
G01X15306225Y2356539D01*
G01X15300383Y2350951D01*
G01X15306225Y2310819D02*
G01X15306225Y2230809D01*
G01X15359565Y2350951D02*
G01X15359565Y2230809D01*
G01X15447449Y2373811D02*
G01X15436019Y2362381D01*
G01X15424589Y2345109D01*
G01X15413159Y2322249D01*
G01X15407317Y2293801D01*
G01X15407317Y2270941D01*
G01X15413159Y2242239D01*
G01X15424589Y2219379D01*
G01X15436019Y2202361D01*
G01X15447449Y2190931D01*
G01X15495201Y2328091D02*
G01X15506631Y2333679D01*
G01X15523903Y2350951D01*
G01X15523903Y2230809D01*
G01X15577497Y2259511D02*
G01X15571655Y2253669D01*
G01X15577497Y2248081D01*
G01X15583085Y2253669D01*
G01X15577497Y2259511D01*
G01X15642267Y2350951D02*
G01X15705259Y2350951D01*
G01X15670969Y2305231D01*
G01X15687987Y2305231D01*
G01X15699417Y2299389D01*
G01X15705259Y2293801D01*
G01X15710847Y2276529D01*
G01X15710847Y2265099D01*
G01X15705259Y2248081D01*
G01X15693829Y2236651D01*
G01X15676557Y2230809D01*
G01X15659539Y2230809D01*
G01X15642267Y2236651D01*
G01X15636679Y2242239D01*
G01X15630837Y2253669D01*
G01X15792889Y2350951D02*
G01X15775871Y2345109D01*
G01X15764441Y2328091D01*
G01X15758599Y2299389D01*
G01X15758599Y2282371D01*
G01X15764441Y2253669D01*
G01X15775871Y2236651D01*
G01X15792889Y2230809D01*
G01X15804319Y2230809D01*
G01X15821591Y2236651D01*
G01X15833021Y2253669D01*
G01X15838609Y2282371D01*
G01X15838609Y2299389D01*
G01X15833021Y2328091D01*
G01X15821591Y2345109D01*
G01X15804319Y2350951D01*
G01X15792889Y2350951D01*
G01X15920651Y2350951D02*
G01X15903633Y2345109D01*
G01X15892203Y2328091D01*
G01X15886361Y2299389D01*
G01X15886361Y2282371D01*
G01X15892203Y2253669D01*
G01X15903633Y2236651D01*
G01X15920651Y2230809D01*
G01X15932081Y2230809D01*
G01X15949353Y2236651D01*
G01X15960783Y2253669D01*
G01X15966371Y2282371D01*
G01X15966371Y2299389D01*
G01X15960783Y2328091D01*
G01X15949353Y2345109D01*
G01X15932081Y2350951D01*
G01X15920651Y2350951D01*
G01X16014123Y2310819D02*
G01X16077115Y2230809D01*
G01X16077115Y2310819D02*
G01X16014123Y2230809D01*
G01X16124867Y2328091D02*
G01X16136297Y2333679D01*
G01X16153569Y2350951D01*
G01X16153569Y2230809D01*
G01X16207163Y2259511D02*
G01X16201321Y2253669D01*
G01X16207163Y2248081D01*
G01X16212751Y2253669D01*
G01X16207163Y2259511D01*
G01X16271933Y2350951D02*
G01X16334925Y2350951D01*
G01X16300635Y2305231D01*
G01X16317653Y2305231D01*
G01X16329083Y2299389D01*
G01X16334925Y2293801D01*
G01X16340513Y2276529D01*
G01X16340513Y2265099D01*
G01X16334925Y2248081D01*
G01X16323495Y2236651D01*
G01X16306223Y2230809D01*
G01X16289205Y2230809D01*
G01X16271933Y2236651D01*
G01X16266345Y2242239D01*
G01X16260503Y2253669D01*
G01X16422555Y2350951D02*
G01X16405537Y2345109D01*
G01X16394107Y2328091D01*
G01X16388265Y2299389D01*
G01X16388265Y2282371D01*
G01X16394107Y2253669D01*
G01X16405537Y2236651D01*
G01X16422555Y2230809D01*
G01X16433985Y2230809D01*
G01X16451257Y2236651D01*
G01X16462687Y2253669D01*
G01X16468275Y2282371D01*
G01X16468275Y2299389D01*
G01X16462687Y2328091D01*
G01X16451257Y2345109D01*
G01X16433985Y2350951D01*
G01X16422555Y2350951D01*
G01X16550317Y2350951D02*
G01X16533299Y2345109D01*
G01X16521869Y2328091D01*
G01X16516027Y2299389D01*
G01X16516027Y2282371D01*
G01X16521869Y2253669D01*
G01X16533299Y2236651D01*
G01X16550317Y2230809D01*
G01X16561747Y2230809D01*
G01X16579019Y2236651D01*
G01X16590449Y2253669D01*
G01X16596037Y2282371D01*
G01X16596037Y2299389D01*
G01X16590449Y2328091D01*
G01X16579019Y2345109D01*
G01X16561747Y2350951D01*
G01X16550317Y2350951D01*
G01X16643789Y2310819D02*
G01X16643789Y2230809D01*
G01X16643789Y2287959D02*
G01X16661061Y2305231D01*
G01X16672491Y2310819D01*
G01X16689509Y2310819D01*
G01X16700939Y2305231D01*
G01X16706781Y2287959D01*
G01X16706781Y2230809D01*
G01X16706781Y2287959D02*
G01X16723799Y2305231D01*
G01X16735229Y2310819D01*
G01X16752501Y2310819D01*
G01X16763931Y2305231D01*
G01X16769519Y2287959D01*
G01X16769519Y2230809D01*
G01X16817271Y2310819D02*
G01X16817271Y2230809D01*
G01X16817271Y2287959D02*
G01X16834543Y2305231D01*
G01X16845973Y2310819D01*
G01X16862991Y2310819D01*
G01X16874421Y2305231D01*
G01X16880263Y2287959D01*
G01X16880263Y2230809D01*
G01X16880263Y2287959D02*
G01X16897281Y2305231D01*
G01X16908711Y2310819D01*
G01X16925983Y2310819D01*
G01X16937413Y2305231D01*
G01X16943001Y2287959D01*
G01X16943001Y2230809D01*
G01X16990753Y2373811D02*
G01X17002183Y2362381D01*
G01X17013613Y2345109D01*
G01X17025043Y2322249D01*
G01X17030885Y2293801D01*
G01X17030885Y2270941D01*
G01X17025043Y2242239D01*
G01X17013613Y2219379D01*
G01X17002183Y2202361D01*
G01X16990753Y2190931D01*
G01X18127295Y2350951D02*
G01X18127295Y2230809D01*
G01X18127295Y2350951D02*
G01X18178857Y2350951D01*
G01X18195875Y2345109D01*
G01X18201717Y2339521D01*
G01X18207305Y2328091D01*
G01X18207305Y2310819D01*
G01X18201717Y2299389D01*
G01X18195875Y2293801D01*
G01X18178857Y2287959D01*
G01X18127295Y2287959D01*
G01X18295189Y2350951D02*
G01X18295189Y2230809D01*
G01X18255057Y2350951D02*
G01X18335067Y2350951D01*
G01X18382819Y2350951D02*
G01X18382819Y2230809D01*
G01X18462829Y2350951D02*
G01X18462829Y2230809D01*
G01X18382819Y2293801D02*
G01X18462829Y2293801D01*
G01X19588702Y2350951D02*
G01X19588702Y2230809D01*
G01X19588702Y2350951D02*
G01X19640264Y2350951D01*
G01X19657282Y2345109D01*
G01X19663124Y2339521D01*
G01X19668712Y2328091D01*
G01X19668712Y2316661D01*
G01X19663124Y2305231D01*
G01X19657282Y2299389D01*
G01X19640264Y2293801D01*
G01X19588702Y2293801D01*
G01X19628834Y2293801D02*
G01X19668712Y2230809D01*
G01X19745166Y2310819D02*
G01X19733736Y2305231D01*
G01X19722306Y2293801D01*
G01X19716464Y2276529D01*
G01X19716464Y2265099D01*
G01X19722306Y2248081D01*
G01X19733736Y2236651D01*
G01X19745166Y2230809D01*
G01X19762184Y2230809D01*
G01X19773614Y2236651D01*
G01X19785044Y2248081D01*
G01X19790886Y2265099D01*
G01X19790886Y2276529D01*
G01X19785044Y2293801D01*
G01X19773614Y2305231D01*
G01X19762184Y2310819D01*
G01X19745166Y2310819D01*
G01X19838638Y2310819D02*
G01X19838638Y2253669D01*
G01X19844480Y2236651D01*
G01X19855910Y2230809D01*
G01X19872928Y2230809D01*
G01X19884358Y2236651D01*
G01X19901630Y2253669D01*
G01X19901630Y2310819D02*
G01X19901630Y2230809D01*
G01X19949382Y2310819D02*
G01X19949382Y2230809D01*
G01X19949382Y2287959D02*
G01X19966654Y2305231D01*
G01X19978084Y2310819D01*
G01X19995102Y2310819D01*
G01X20006532Y2305231D01*
G01X20012374Y2287959D01*
G01X20012374Y2230809D01*
G01X20128706Y2350951D02*
G01X20128706Y2230809D01*
G01X20128706Y2293801D02*
G01X20117276Y2305231D01*
G01X20105846Y2310819D01*
G01X20088828Y2310819D01*
G01X20077398Y2305231D01*
G01X20065968Y2293801D01*
G01X20060126Y2276529D01*
G01X20060126Y2265099D01*
G01X20065968Y2248081D01*
G01X20077398Y2236651D01*
G01X20088828Y2230809D01*
G01X20105846Y2230809D01*
G01X20117276Y2236651D01*
G01X20128706Y2248081D01*
G01X21019883Y2350951D02*
G01X21019883Y2230809D01*
G01X21019883Y2350951D02*
G01X21071445Y2350951D01*
G01X21088463Y2345109D01*
G01X21094305Y2339521D01*
G01X21099893Y2328091D01*
G01X21099893Y2310819D01*
G01X21094305Y2299389D01*
G01X21088463Y2293801D01*
G01X21071445Y2287959D01*
G01X21019883Y2287959D01*
G01X21216225Y2310819D02*
G01X21216225Y2230809D01*
G01X21216225Y2293801D02*
G01X21204795Y2305231D01*
G01X21193365Y2310819D01*
G01X21176347Y2310819D01*
G01X21164917Y2305231D01*
G01X21153487Y2293801D01*
G01X21147645Y2276529D01*
G01X21147645Y2265099D01*
G01X21153487Y2248081D01*
G01X21164917Y2236651D01*
G01X21176347Y2230809D01*
G01X21193365Y2230809D01*
G01X21204795Y2236651D01*
G01X21216225Y2248081D01*
G01X21332557Y2350951D02*
G01X21332557Y2230809D01*
G01X21332557Y2293801D02*
G01X21321127Y2305231D01*
G01X21309697Y2310819D01*
G01X21292679Y2310819D01*
G01X21281249Y2305231D01*
G01X21269819Y2293801D01*
G01X21263977Y2276529D01*
G01X21263977Y2265099D01*
G01X21269819Y2248081D01*
G01X21281249Y2236651D01*
G01X21292679Y2230809D01*
G01X21309697Y2230809D01*
G01X21321127Y2236651D01*
G01X21332557Y2248081D01*
G01X22689062Y2350951D02*
G01X22689062Y2230809D01*
G01X22689062Y2350951D02*
G01X22740624Y2350951D01*
G01X22757642Y2345109D01*
G01X22763484Y2339521D01*
G01X22769072Y2328091D01*
G01X22769072Y2316661D01*
G01X22763484Y2305231D01*
G01X22757642Y2299389D01*
G01X22740624Y2293801D01*
G01X22689062Y2293801D01*
G01X22729194Y2293801D02*
G01X22769072Y2230809D01*
G01X22845526Y2310819D02*
G01X22834096Y2305231D01*
G01X22822666Y2293801D01*
G01X22816824Y2276529D01*
G01X22816824Y2265099D01*
G01X22822666Y2248081D01*
G01X22834096Y2236651D01*
G01X22845526Y2230809D01*
G01X22862544Y2230809D01*
G01X22873974Y2236651D01*
G01X22885404Y2248081D01*
G01X22891246Y2265099D01*
G01X22891246Y2276529D01*
G01X22885404Y2293801D01*
G01X22873974Y2305231D01*
G01X22862544Y2310819D01*
G01X22845526Y2310819D01*
G01X22938998Y2310819D02*
G01X22938998Y2253669D01*
G01X22944840Y2236651D01*
G01X22956270Y2230809D01*
G01X22973288Y2230809D01*
G01X22984718Y2236651D01*
G01X23001990Y2253669D01*
G01X23001990Y2310819D02*
G01X23001990Y2230809D01*
G01X23049742Y2310819D02*
G01X23049742Y2230809D01*
G01X23049742Y2287959D02*
G01X23067014Y2305231D01*
G01X23078444Y2310819D01*
G01X23095462Y2310819D01*
G01X23106892Y2305231D01*
G01X23112734Y2287959D01*
G01X23112734Y2230809D01*
G01X23229066Y2350951D02*
G01X23229066Y2230809D01*
G01X23229066Y2293801D02*
G01X23217636Y2305231D01*
G01X23206206Y2310819D01*
G01X23189188Y2310819D01*
G01X23177758Y2305231D01*
G01X23166328Y2293801D01*
G01X23160486Y2276529D01*
G01X23160486Y2265099D01*
G01X23166328Y2248081D01*
G01X23177758Y2236651D01*
G01X23189188Y2230809D01*
G01X23206206Y2230809D01*
G01X23217636Y2236651D01*
G01X23229066Y2248081D01*
G01X24648563Y2350951D02*
G01X24648563Y2230809D01*
G01X24608431Y2350951D02*
G01X24688441Y2350951D01*
G01X24764895Y2310819D02*
G01X24753465Y2305231D01*
G01X24742035Y2293801D01*
G01X24736193Y2276529D01*
G01X24736193Y2265099D01*
G01X24742035Y2248081D01*
G01X24753465Y2236651D01*
G01X24764895Y2230809D01*
G01X24781913Y2230809D01*
G01X24793343Y2236651D01*
G01X24804773Y2248081D01*
G01X24810615Y2265099D01*
G01X24810615Y2276529D01*
G01X24804773Y2293801D01*
G01X24793343Y2305231D01*
G01X24781913Y2310819D01*
G01X24764895Y2310819D01*
G01X24858367Y2310819D02*
G01X24858367Y2190931D01*
G01X24858367Y2293801D02*
G01X24869797Y2305231D01*
G01X24881227Y2310819D01*
G01X24898499Y2310819D01*
G01X24909929Y2305231D01*
G01X24921359Y2293801D01*
G01X24926947Y2276529D01*
G01X24926947Y2265099D01*
G01X24921359Y2248081D01*
G01X24909929Y2236651D01*
G01X24898499Y2230809D01*
G01X24881227Y2230809D01*
G01X24869797Y2236651D01*
G01X24858367Y2248081D01*
G01X25102715Y2350951D02*
G01X25102715Y2230809D01*
G01X25102715Y2230809D02*
G01X25171295Y2230809D01*
G01X25287627Y2310819D02*
G01X25287627Y2230809D01*
G01X25287627Y2293801D02*
G01X25276197Y2305231D01*
G01X25264767Y2310819D01*
G01X25247749Y2310819D01*
G01X25236319Y2305231D01*
G01X25224889Y2293801D01*
G01X25219047Y2276529D01*
G01X25219047Y2265099D01*
G01X25224889Y2248081D01*
G01X25236319Y2236651D01*
G01X25247749Y2230809D01*
G01X25264767Y2230809D01*
G01X25276197Y2236651D01*
G01X25287627Y2248081D01*
G01X25341221Y2310819D02*
G01X25375511Y2230809D01*
G01X25409801Y2310819D02*
G01X25375511Y2230809D01*
G01X25364081Y2207949D01*
G01X25352651Y2196519D01*
G01X25341221Y2190931D01*
G01X25335379Y2190931D01*
G01X25457553Y2276529D02*
G01X25526133Y2276529D01*
G01X25526133Y2287959D01*
G01X25520545Y2299389D01*
G01X25514703Y2305231D01*
G01X25503273Y2310819D01*
G01X25486255Y2310819D01*
G01X25474825Y2305231D01*
G01X25463395Y2293801D01*
G01X25457553Y2276529D01*
G01X25457553Y2265099D01*
G01X25463395Y2248081D01*
G01X25474825Y2236651D01*
G01X25486255Y2230809D01*
G01X25503273Y2230809D01*
G01X25514703Y2236651D01*
G01X25526133Y2248081D01*
G01X25573885Y2310819D02*
G01X25573885Y2230809D01*
G01X25573885Y2276529D02*
G01X25579727Y2293801D01*
G01X25591157Y2305231D01*
G01X25602587Y2310819D01*
G01X25619605Y2310819D01*
G01X25667357Y2282371D02*
G01X25770227Y2282371D01*
G01X25817979Y2350951D02*
G01X25817979Y2230809D01*
G01X25817979Y2350951D02*
G01X25869541Y2350951D01*
G01X25886559Y2345109D01*
G01X25892401Y2339521D01*
G01X25897989Y2328091D01*
G01X25897989Y2316661D01*
G01X25892401Y2305231D01*
G01X25886559Y2299389D01*
G01X25869541Y2293801D01*
G01X25817979Y2293801D02*
G01X25869541Y2293801D01*
G01X25886559Y2287959D01*
G01X25892401Y2282371D01*
G01X25897989Y2270941D01*
G01X25897989Y2253669D01*
G01X25892401Y2242239D01*
G01X25886559Y2236651D01*
G01X25869541Y2230809D01*
G01X25817979Y2230809D01*
G01X25974443Y2310819D02*
G01X25963013Y2305231D01*
G01X25951583Y2293801D01*
G01X25945741Y2276529D01*
G01X25945741Y2265099D01*
G01X25951583Y2248081D01*
G01X25963013Y2236651D01*
G01X25974443Y2230809D01*
G01X25991461Y2230809D01*
G01X26002891Y2236651D01*
G01X26014321Y2248081D01*
G01X26020163Y2265099D01*
G01X26020163Y2276529D01*
G01X26014321Y2293801D01*
G01X26002891Y2305231D01*
G01X25991461Y2310819D01*
G01X25974443Y2310819D01*
G01X26085187Y2350951D02*
G01X26085187Y2253669D01*
G01X26090775Y2236651D01*
G01X26102205Y2230809D01*
G01X26113635Y2230809D01*
G01X26067915Y2310819D02*
G01X26108047Y2310819D01*
G01X26178659Y2350951D02*
G01X26178659Y2253669D01*
G01X26184247Y2236651D01*
G01X26195677Y2230809D01*
G01X26207107Y2230809D01*
G01X26161387Y2310819D02*
G01X26201519Y2310819D01*
G01X26283561Y2310819D02*
G01X26272131Y2305231D01*
G01X26260701Y2293801D01*
G01X26254859Y2276529D01*
G01X26254859Y2265099D01*
G01X26260701Y2248081D01*
G01X26272131Y2236651D01*
G01X26283561Y2230809D01*
G01X26300579Y2230809D01*
G01X26312009Y2236651D01*
G01X26323439Y2248081D01*
G01X26329281Y2265099D01*
G01X26329281Y2276529D01*
G01X26323439Y2293801D01*
G01X26312009Y2305231D01*
G01X26300579Y2310819D01*
G01X26283561Y2310819D01*
G01X26377033Y2310819D02*
G01X26377033Y2230809D01*
G01X26377033Y2287959D02*
G01X26394305Y2305231D01*
G01X26405735Y2310819D01*
G01X26422753Y2310819D01*
G01X26434183Y2305231D01*
G01X26440025Y2287959D01*
G01X26440025Y2230809D01*
G01X26440025Y2287959D02*
G01X26457043Y2305231D01*
G01X26468473Y2310819D01*
G01X26485745Y2310819D01*
G01X26497175Y2305231D01*
G01X26502763Y2287959D01*
G01X26502763Y2230809D01*
G01X26678531Y2350951D02*
G01X26678531Y2230809D01*
G01X26678531Y2230809D02*
G01X26747111Y2230809D01*
G01X26863443Y2310819D02*
G01X26863443Y2230809D01*
G01X26863443Y2293801D02*
G01X26852013Y2305231D01*
G01X26840583Y2310819D01*
G01X26823565Y2310819D01*
G01X26812135Y2305231D01*
G01X26800705Y2293801D01*
G01X26794863Y2276529D01*
G01X26794863Y2265099D01*
G01X26800705Y2248081D01*
G01X26812135Y2236651D01*
G01X26823565Y2230809D01*
G01X26840583Y2230809D01*
G01X26852013Y2236651D01*
G01X26863443Y2248081D01*
G01X26917037Y2310819D02*
G01X26951327Y2230809D01*
G01X26985617Y2310819D02*
G01X26951327Y2230809D01*
G01X26939897Y2207949D01*
G01X26928467Y2196519D01*
G01X26917037Y2190931D01*
G01X26911195Y2190931D01*
G01X27033369Y2276529D02*
G01X27101949Y2276529D01*
G01X27101949Y2287959D01*
G01X27096361Y2299389D01*
G01X27090519Y2305231D01*
G01X27079089Y2310819D01*
G01X27062071Y2310819D01*
G01X27050641Y2305231D01*
G01X27039211Y2293801D01*
G01X27033369Y2276529D01*
G01X27033369Y2265099D01*
G01X27039211Y2248081D01*
G01X27050641Y2236651D01*
G01X27062071Y2230809D01*
G01X27079089Y2230809D01*
G01X27090519Y2236651D01*
G01X27101949Y2248081D01*
G01X27149701Y2310819D02*
G01X27149701Y2230809D01*
G01X27149701Y2276529D02*
G01X27155543Y2293801D01*
G01X27166973Y2305231D01*
G01X27178403Y2310819D01*
G01X27195421Y2310819D01*
G01X12876824Y1770380D02*
G01X12819674Y1690370D01*
G01X12905526Y1690370D01*
G01X12876824Y1770380D02*
G01X12876824Y1650238D01*
G01X14313847Y1770380D02*
G01X14256697Y1650238D01*
G01X14233837Y1770380D02*
G01X14313847Y1770380D01*
G01X14390301Y1770380D02*
G01X14373029Y1764538D01*
G01X14367441Y1753108D01*
G01X14367441Y1741678D01*
G01X14373029Y1730248D01*
G01X14384459Y1724660D01*
G01X14407319Y1718818D01*
G01X14424591Y1713230D01*
G01X14436021Y1701800D01*
G01X14441609Y1690370D01*
G01X14441609Y1673098D01*
G01X14436021Y1661668D01*
G01X14430179Y1656080D01*
G01X14413161Y1650238D01*
G01X14390301Y1650238D01*
G01X14373029Y1656080D01*
G01X14367441Y1661668D01*
G01X14361599Y1673098D01*
G01X14361599Y1690370D01*
G01X14367441Y1701800D01*
G01X14378871Y1713230D01*
G01X14395889Y1718818D01*
G01X14418749Y1724660D01*
G01X14430179Y1730248D01*
G01X14436021Y1741678D01*
G01X14436021Y1753108D01*
G01X14430179Y1764538D01*
G01X14413161Y1770380D01*
G01X14390301Y1770380D01*
G01X14495203Y1678940D02*
G01X14489361Y1673098D01*
G01X14495203Y1667510D01*
G01X14500791Y1673098D01*
G01X14495203Y1678940D01*
G01X14628553Y1770380D02*
G01X14571403Y1650238D01*
G01X14548543Y1770380D02*
G01X14628553Y1770380D01*
G01X14676305Y1730248D02*
G01X14739297Y1650238D01*
G01X14739297Y1730248D02*
G01X14676305Y1650238D01*
G01X14867059Y1770380D02*
G01X14809909Y1650238D01*
G01X14787049Y1770380D02*
G01X14867059Y1770380D01*
G01X14943513Y1770380D02*
G01X14926241Y1764538D01*
G01X14920653Y1753108D01*
G01X14920653Y1741678D01*
G01X14926241Y1730248D01*
G01X14937671Y1724660D01*
G01X14960531Y1718818D01*
G01X14977803Y1713230D01*
G01X14989233Y1701800D01*
G01X14994821Y1690370D01*
G01X14994821Y1673098D01*
G01X14989233Y1661668D01*
G01X14983391Y1656080D01*
G01X14966373Y1650238D01*
G01X14943513Y1650238D01*
G01X14926241Y1656080D01*
G01X14920653Y1661668D01*
G01X14914811Y1673098D01*
G01X14914811Y1690370D01*
G01X14920653Y1701800D01*
G01X14932083Y1713230D01*
G01X14949101Y1718818D01*
G01X14971961Y1724660D01*
G01X14983391Y1730248D01*
G01X14989233Y1741678D01*
G01X14989233Y1753108D01*
G01X14983391Y1764538D01*
G01X14966373Y1770380D01*
G01X14943513Y1770380D01*
G01X15048415Y1678940D02*
G01X15042573Y1673098D01*
G01X15048415Y1667510D01*
G01X15054003Y1673098D01*
G01X15048415Y1678940D01*
G01X15181765Y1770380D02*
G01X15124615Y1650238D01*
G01X15101755Y1770380D02*
G01X15181765Y1770380D01*
G01X15229517Y1730248D02*
G01X15229517Y1650238D01*
G01X15229517Y1707388D02*
G01X15246789Y1724660D01*
G01X15258219Y1730248D01*
G01X15275237Y1730248D01*
G01X15286667Y1724660D01*
G01X15292509Y1707388D01*
G01X15292509Y1650238D01*
G01X15292509Y1707388D02*
G01X15309527Y1724660D01*
G01X15320957Y1730248D01*
G01X15338229Y1730248D01*
G01X15349659Y1724660D01*
G01X15355247Y1707388D01*
G01X15355247Y1650238D01*
G01X15402999Y1770380D02*
G01X15408841Y1764538D01*
G01X15414429Y1770380D01*
G01X15408841Y1775968D01*
G01X15402999Y1770380D01*
G01X15408841Y1730248D02*
G01X15408841Y1650238D01*
G01X15462181Y1770380D02*
G01X15462181Y1650238D01*
G01X15550065Y1793240D02*
G01X15538635Y1781810D01*
G01X15527205Y1764538D01*
G01X15515775Y1741678D01*
G01X15509933Y1713230D01*
G01X15509933Y1690370D01*
G01X15515775Y1661668D01*
G01X15527205Y1638808D01*
G01X15538635Y1621790D01*
G01X15550065Y1610360D01*
G01X15603659Y1741678D02*
G01X15603659Y1747520D01*
G01X15609247Y1758950D01*
G01X15615089Y1764538D01*
G01X15626519Y1770380D01*
G01X15649379Y1770380D01*
G01X15660809Y1764538D01*
G01X15666397Y1758950D01*
G01X15672239Y1747520D01*
G01X15672239Y1736090D01*
G01X15666397Y1724660D01*
G01X15654967Y1707388D01*
G01X15597817Y1650238D01*
G01X15677827Y1650238D01*
G01X15731421Y1678940D02*
G01X15725579Y1673098D01*
G01X15731421Y1667510D01*
G01X15737009Y1673098D01*
G01X15731421Y1678940D01*
G01X15819051Y1770380D02*
G01X15802033Y1764538D01*
G01X15790603Y1747520D01*
G01X15784761Y1718818D01*
G01X15784761Y1701800D01*
G01X15790603Y1673098D01*
G01X15802033Y1656080D01*
G01X15819051Y1650238D01*
G01X15830481Y1650238D01*
G01X15847753Y1656080D01*
G01X15859183Y1673098D01*
G01X15864771Y1701800D01*
G01X15864771Y1718818D01*
G01X15859183Y1747520D01*
G01X15847753Y1764538D01*
G01X15830481Y1770380D01*
G01X15819051Y1770380D01*
G01X15946813Y1770380D02*
G01X15929795Y1764538D01*
G01X15918365Y1747520D01*
G01X15912523Y1718818D01*
G01X15912523Y1701800D01*
G01X15918365Y1673098D01*
G01X15929795Y1656080D01*
G01X15946813Y1650238D01*
G01X15958243Y1650238D01*
G01X15975515Y1656080D01*
G01X15986945Y1673098D01*
G01X15992533Y1701800D01*
G01X15992533Y1718818D01*
G01X15986945Y1747520D01*
G01X15975515Y1764538D01*
G01X15958243Y1770380D01*
G01X15946813Y1770380D01*
G01X16074575Y1770380D02*
G01X16057557Y1764538D01*
G01X16046127Y1747520D01*
G01X16040285Y1718818D01*
G01X16040285Y1701800D01*
G01X16046127Y1673098D01*
G01X16057557Y1656080D01*
G01X16074575Y1650238D01*
G01X16086005Y1650238D01*
G01X16103277Y1656080D01*
G01X16114707Y1673098D01*
G01X16120295Y1701800D01*
G01X16120295Y1718818D01*
G01X16114707Y1747520D01*
G01X16103277Y1764538D01*
G01X16086005Y1770380D01*
G01X16074575Y1770380D01*
G01X16168047Y1730248D02*
G01X16231039Y1650238D01*
G01X16231039Y1730248D02*
G01X16168047Y1650238D01*
G01X16284633Y1741678D02*
G01X16284633Y1747520D01*
G01X16290221Y1758950D01*
G01X16296063Y1764538D01*
G01X16307493Y1770380D01*
G01X16330353Y1770380D01*
G01X16341783Y1764538D01*
G01X16347371Y1758950D01*
G01X16353213Y1747520D01*
G01X16353213Y1736090D01*
G01X16347371Y1724660D01*
G01X16335941Y1707388D01*
G01X16278791Y1650238D01*
G01X16358801Y1650238D01*
G01X16412395Y1678940D02*
G01X16406553Y1673098D01*
G01X16412395Y1667510D01*
G01X16417983Y1673098D01*
G01X16412395Y1678940D01*
G01X16500025Y1770380D02*
G01X16483007Y1764538D01*
G01X16471577Y1747520D01*
G01X16465735Y1718818D01*
G01X16465735Y1701800D01*
G01X16471577Y1673098D01*
G01X16483007Y1656080D01*
G01X16500025Y1650238D01*
G01X16511455Y1650238D01*
G01X16528727Y1656080D01*
G01X16540157Y1673098D01*
G01X16545745Y1701800D01*
G01X16545745Y1718818D01*
G01X16540157Y1747520D01*
G01X16528727Y1764538D01*
G01X16511455Y1770380D01*
G01X16500025Y1770380D01*
G01X16627787Y1770380D02*
G01X16610769Y1764538D01*
G01X16599339Y1747520D01*
G01X16593497Y1718818D01*
G01X16593497Y1701800D01*
G01X16599339Y1673098D01*
G01X16610769Y1656080D01*
G01X16627787Y1650238D01*
G01X16639217Y1650238D01*
G01X16656489Y1656080D01*
G01X16667919Y1673098D01*
G01X16673507Y1701800D01*
G01X16673507Y1718818D01*
G01X16667919Y1747520D01*
G01X16656489Y1764538D01*
G01X16639217Y1770380D01*
G01X16627787Y1770380D01*
G01X16755549Y1770380D02*
G01X16738531Y1764538D01*
G01X16727101Y1747520D01*
G01X16721259Y1718818D01*
G01X16721259Y1701800D01*
G01X16727101Y1673098D01*
G01X16738531Y1656080D01*
G01X16755549Y1650238D01*
G01X16766979Y1650238D01*
G01X16784251Y1656080D01*
G01X16795681Y1673098D01*
G01X16801269Y1701800D01*
G01X16801269Y1718818D01*
G01X16795681Y1747520D01*
G01X16784251Y1764538D01*
G01X16766979Y1770380D01*
G01X16755549Y1770380D01*
G01X16849021Y1730248D02*
G01X16849021Y1650238D01*
G01X16849021Y1707388D02*
G01X16866293Y1724660D01*
G01X16877723Y1730248D01*
G01X16894741Y1730248D01*
G01X16906171Y1724660D01*
G01X16912013Y1707388D01*
G01X16912013Y1650238D01*
G01X16912013Y1707388D02*
G01X16929031Y1724660D01*
G01X16940461Y1730248D01*
G01X16957733Y1730248D01*
G01X16969163Y1724660D01*
G01X16974751Y1707388D01*
G01X16974751Y1650238D01*
G01X17022503Y1730248D02*
G01X17022503Y1650238D01*
G01X17022503Y1707388D02*
G01X17039775Y1724660D01*
G01X17051205Y1730248D01*
G01X17068223Y1730248D01*
G01X17079653Y1724660D01*
G01X17085495Y1707388D01*
G01X17085495Y1650238D01*
G01X17085495Y1707388D02*
G01X17102513Y1724660D01*
G01X17113943Y1730248D01*
G01X17131215Y1730248D01*
G01X17142645Y1724660D01*
G01X17148233Y1707388D01*
G01X17148233Y1650238D01*
G01X17195985Y1793240D02*
G01X17207415Y1781810D01*
G01X17218845Y1764538D01*
G01X17230275Y1741678D01*
G01X17236117Y1713230D01*
G01X17236117Y1690370D01*
G01X17230275Y1661668D01*
G01X17218845Y1638808D01*
G01X17207415Y1621790D01*
G01X17195985Y1610360D01*
G01X18127295Y1770380D02*
G01X18127295Y1650238D01*
G01X18127295Y1770380D02*
G01X18178857Y1770380D01*
G01X18195875Y1764538D01*
G01X18201717Y1758950D01*
G01X18207305Y1747520D01*
G01X18207305Y1730248D01*
G01X18201717Y1718818D01*
G01X18195875Y1713230D01*
G01X18178857Y1707388D01*
G01X18127295Y1707388D01*
G01X18295189Y1770380D02*
G01X18295189Y1650238D01*
G01X18255057Y1770380D02*
G01X18335067Y1770380D01*
G01X18382819Y1770380D02*
G01X18382819Y1650238D01*
G01X18462829Y1770380D02*
G01X18462829Y1650238D01*
G01X18382819Y1713230D02*
G01X18462829Y1713230D01*
G01X19588702Y1770380D02*
G01X19588702Y1650238D01*
G01X19588702Y1770380D02*
G01X19640264Y1770380D01*
G01X19657282Y1764538D01*
G01X19663124Y1758950D01*
G01X19668712Y1747520D01*
G01X19668712Y1736090D01*
G01X19663124Y1724660D01*
G01X19657282Y1718818D01*
G01X19640264Y1713230D01*
G01X19588702Y1713230D01*
G01X19628834Y1713230D02*
G01X19668712Y1650238D01*
G01X19745166Y1730248D02*
G01X19733736Y1724660D01*
G01X19722306Y1713230D01*
G01X19716464Y1695958D01*
G01X19716464Y1684528D01*
G01X19722306Y1667510D01*
G01X19733736Y1656080D01*
G01X19745166Y1650238D01*
G01X19762184Y1650238D01*
G01X19773614Y1656080D01*
G01X19785044Y1667510D01*
G01X19790886Y1684528D01*
G01X19790886Y1695958D01*
G01X19785044Y1713230D01*
G01X19773614Y1724660D01*
G01X19762184Y1730248D01*
G01X19745166Y1730248D01*
G01X19838638Y1730248D02*
G01X19838638Y1673098D01*
G01X19844480Y1656080D01*
G01X19855910Y1650238D01*
G01X19872928Y1650238D01*
G01X19884358Y1656080D01*
G01X19901630Y1673098D01*
G01X19901630Y1730248D02*
G01X19901630Y1650238D01*
G01X19949382Y1730248D02*
G01X19949382Y1650238D01*
G01X19949382Y1707388D02*
G01X19966654Y1724660D01*
G01X19978084Y1730248D01*
G01X19995102Y1730248D01*
G01X20006532Y1724660D01*
G01X20012374Y1707388D01*
G01X20012374Y1650238D01*
G01X20128706Y1770380D02*
G01X20128706Y1650238D01*
G01X20128706Y1713230D02*
G01X20117276Y1724660D01*
G01X20105846Y1730248D01*
G01X20088828Y1730248D01*
G01X20077398Y1724660D01*
G01X20065968Y1713230D01*
G01X20060126Y1695958D01*
G01X20060126Y1684528D01*
G01X20065968Y1667510D01*
G01X20077398Y1656080D01*
G01X20088828Y1650238D01*
G01X20105846Y1650238D01*
G01X20117276Y1656080D01*
G01X20128706Y1667510D01*
G01X21019883Y1770380D02*
G01X21019883Y1650238D01*
G01X21019883Y1770380D02*
G01X21071445Y1770380D01*
G01X21088463Y1764538D01*
G01X21094305Y1758950D01*
G01X21099893Y1747520D01*
G01X21099893Y1730248D01*
G01X21094305Y1718818D01*
G01X21088463Y1713230D01*
G01X21071445Y1707388D01*
G01X21019883Y1707388D01*
G01X21216225Y1730248D02*
G01X21216225Y1650238D01*
G01X21216225Y1713230D02*
G01X21204795Y1724660D01*
G01X21193365Y1730248D01*
G01X21176347Y1730248D01*
G01X21164917Y1724660D01*
G01X21153487Y1713230D01*
G01X21147645Y1695958D01*
G01X21147645Y1684528D01*
G01X21153487Y1667510D01*
G01X21164917Y1656080D01*
G01X21176347Y1650238D01*
G01X21193365Y1650238D01*
G01X21204795Y1656080D01*
G01X21216225Y1667510D01*
G01X21332557Y1770380D02*
G01X21332557Y1650238D01*
G01X21332557Y1713230D02*
G01X21321127Y1724660D01*
G01X21309697Y1730248D01*
G01X21292679Y1730248D01*
G01X21281249Y1724660D01*
G01X21269819Y1713230D01*
G01X21263977Y1695958D01*
G01X21263977Y1684528D01*
G01X21269819Y1667510D01*
G01X21281249Y1656080D01*
G01X21292679Y1650238D01*
G01X21309697Y1650238D01*
G01X21321127Y1656080D01*
G01X21332557Y1667510D01*
G01X22689062Y1770380D02*
G01X22689062Y1650238D01*
G01X22689062Y1770380D02*
G01X22740624Y1770380D01*
G01X22757642Y1764538D01*
G01X22763484Y1758950D01*
G01X22769072Y1747520D01*
G01X22769072Y1736090D01*
G01X22763484Y1724660D01*
G01X22757642Y1718818D01*
G01X22740624Y1713230D01*
G01X22689062Y1713230D01*
G01X22729194Y1713230D02*
G01X22769072Y1650238D01*
G01X22845526Y1730248D02*
G01X22834096Y1724660D01*
G01X22822666Y1713230D01*
G01X22816824Y1695958D01*
G01X22816824Y1684528D01*
G01X22822666Y1667510D01*
G01X22834096Y1656080D01*
G01X22845526Y1650238D01*
G01X22862544Y1650238D01*
G01X22873974Y1656080D01*
G01X22885404Y1667510D01*
G01X22891246Y1684528D01*
G01X22891246Y1695958D01*
G01X22885404Y1713230D01*
G01X22873974Y1724660D01*
G01X22862544Y1730248D01*
G01X22845526Y1730248D01*
G01X22938998Y1730248D02*
G01X22938998Y1673098D01*
G01X22944840Y1656080D01*
G01X22956270Y1650238D01*
G01X22973288Y1650238D01*
G01X22984718Y1656080D01*
G01X23001990Y1673098D01*
G01X23001990Y1730248D02*
G01X23001990Y1650238D01*
G01X23049742Y1730248D02*
G01X23049742Y1650238D01*
G01X23049742Y1707388D02*
G01X23067014Y1724660D01*
G01X23078444Y1730248D01*
G01X23095462Y1730248D01*
G01X23106892Y1724660D01*
G01X23112734Y1707388D01*
G01X23112734Y1650238D01*
G01X23229066Y1770380D02*
G01X23229066Y1650238D01*
G01X23229066Y1713230D02*
G01X23217636Y1724660D01*
G01X23206206Y1730248D01*
G01X23189188Y1730248D01*
G01X23177758Y1724660D01*
G01X23166328Y1713230D01*
G01X23160486Y1695958D01*
G01X23160486Y1684528D01*
G01X23166328Y1667510D01*
G01X23177758Y1656080D01*
G01X23189188Y1650238D01*
G01X23206206Y1650238D01*
G01X23217636Y1656080D01*
G01X23229066Y1667510D01*
G01X24648563Y1770380D02*
G01X24648563Y1650238D01*
G01X24608431Y1770380D02*
G01X24688441Y1770380D01*
G01X24764895Y1730248D02*
G01X24753465Y1724660D01*
G01X24742035Y1713230D01*
G01X24736193Y1695958D01*
G01X24736193Y1684528D01*
G01X24742035Y1667510D01*
G01X24753465Y1656080D01*
G01X24764895Y1650238D01*
G01X24781913Y1650238D01*
G01X24793343Y1656080D01*
G01X24804773Y1667510D01*
G01X24810615Y1684528D01*
G01X24810615Y1695958D01*
G01X24804773Y1713230D01*
G01X24793343Y1724660D01*
G01X24781913Y1730248D01*
G01X24764895Y1730248D01*
G01X24858367Y1730248D02*
G01X24858367Y1610360D01*
G01X24858367Y1713230D02*
G01X24869797Y1724660D01*
G01X24881227Y1730248D01*
G01X24898499Y1730248D01*
G01X24909929Y1724660D01*
G01X24921359Y1713230D01*
G01X24926947Y1695958D01*
G01X24926947Y1684528D01*
G01X24921359Y1667510D01*
G01X24909929Y1656080D01*
G01X24898499Y1650238D01*
G01X24881227Y1650238D01*
G01X24869797Y1656080D01*
G01X24858367Y1667510D01*
G01X25102715Y1770380D02*
G01X25102715Y1650238D01*
G01X25102715Y1650238D02*
G01X25171295Y1650238D01*
G01X25287627Y1730248D02*
G01X25287627Y1650238D01*
G01X25287627Y1713230D02*
G01X25276197Y1724660D01*
G01X25264767Y1730248D01*
G01X25247749Y1730248D01*
G01X25236319Y1724660D01*
G01X25224889Y1713230D01*
G01X25219047Y1695958D01*
G01X25219047Y1684528D01*
G01X25224889Y1667510D01*
G01X25236319Y1656080D01*
G01X25247749Y1650238D01*
G01X25264767Y1650238D01*
G01X25276197Y1656080D01*
G01X25287627Y1667510D01*
G01X25341221Y1730248D02*
G01X25375511Y1650238D01*
G01X25409801Y1730248D02*
G01X25375511Y1650238D01*
G01X25364081Y1627378D01*
G01X25352651Y1615948D01*
G01X25341221Y1610360D01*
G01X25335379Y1610360D01*
G01X25457553Y1695958D02*
G01X25526133Y1695958D01*
G01X25526133Y1707388D01*
G01X25520545Y1718818D01*
G01X25514703Y1724660D01*
G01X25503273Y1730248D01*
G01X25486255Y1730248D01*
G01X25474825Y1724660D01*
G01X25463395Y1713230D01*
G01X25457553Y1695958D01*
G01X25457553Y1684528D01*
G01X25463395Y1667510D01*
G01X25474825Y1656080D01*
G01X25486255Y1650238D01*
G01X25503273Y1650238D01*
G01X25514703Y1656080D01*
G01X25526133Y1667510D01*
G01X25573885Y1730248D02*
G01X25573885Y1650238D01*
G01X25573885Y1695958D02*
G01X25579727Y1713230D01*
G01X25591157Y1724660D01*
G01X25602587Y1730248D01*
G01X25619605Y1730248D01*
G01X25667357Y1701800D02*
G01X25770227Y1701800D01*
G01X25817979Y1770380D02*
G01X25817979Y1650238D01*
G01X25817979Y1770380D02*
G01X25869541Y1770380D01*
G01X25886559Y1764538D01*
G01X25892401Y1758950D01*
G01X25897989Y1747520D01*
G01X25897989Y1736090D01*
G01X25892401Y1724660D01*
G01X25886559Y1718818D01*
G01X25869541Y1713230D01*
G01X25817979Y1713230D02*
G01X25869541Y1713230D01*
G01X25886559Y1707388D01*
G01X25892401Y1701800D01*
G01X25897989Y1690370D01*
G01X25897989Y1673098D01*
G01X25892401Y1661668D01*
G01X25886559Y1656080D01*
G01X25869541Y1650238D01*
G01X25817979Y1650238D01*
G01X25974443Y1730248D02*
G01X25963013Y1724660D01*
G01X25951583Y1713230D01*
G01X25945741Y1695958D01*
G01X25945741Y1684528D01*
G01X25951583Y1667510D01*
G01X25963013Y1656080D01*
G01X25974443Y1650238D01*
G01X25991461Y1650238D01*
G01X26002891Y1656080D01*
G01X26014321Y1667510D01*
G01X26020163Y1684528D01*
G01X26020163Y1695958D01*
G01X26014321Y1713230D01*
G01X26002891Y1724660D01*
G01X25991461Y1730248D01*
G01X25974443Y1730248D01*
G01X26085187Y1770380D02*
G01X26085187Y1673098D01*
G01X26090775Y1656080D01*
G01X26102205Y1650238D01*
G01X26113635Y1650238D01*
G01X26067915Y1730248D02*
G01X26108047Y1730248D01*
G01X26178659Y1770380D02*
G01X26178659Y1673098D01*
G01X26184247Y1656080D01*
G01X26195677Y1650238D01*
G01X26207107Y1650238D01*
G01X26161387Y1730248D02*
G01X26201519Y1730248D01*
G01X26283561Y1730248D02*
G01X26272131Y1724660D01*
G01X26260701Y1713230D01*
G01X26254859Y1695958D01*
G01X26254859Y1684528D01*
G01X26260701Y1667510D01*
G01X26272131Y1656080D01*
G01X26283561Y1650238D01*
G01X26300579Y1650238D01*
G01X26312009Y1656080D01*
G01X26323439Y1667510D01*
G01X26329281Y1684528D01*
G01X26329281Y1695958D01*
G01X26323439Y1713230D01*
G01X26312009Y1724660D01*
G01X26300579Y1730248D01*
G01X26283561Y1730248D01*
G01X26377033Y1730248D02*
G01X26377033Y1650238D01*
G01X26377033Y1707388D02*
G01X26394305Y1724660D01*
G01X26405735Y1730248D01*
G01X26422753Y1730248D01*
G01X26434183Y1724660D01*
G01X26440025Y1707388D01*
G01X26440025Y1650238D01*
G01X26440025Y1707388D02*
G01X26457043Y1724660D01*
G01X26468473Y1730248D01*
G01X26485745Y1730248D01*
G01X26497175Y1724660D01*
G01X26502763Y1707388D01*
G01X26502763Y1650238D01*
G01X26678531Y1770380D02*
G01X26678531Y1650238D01*
G01X26678531Y1650238D02*
G01X26747111Y1650238D01*
G01X26863443Y1730248D02*
G01X26863443Y1650238D01*
G01X26863443Y1713230D02*
G01X26852013Y1724660D01*
G01X26840583Y1730248D01*
G01X26823565Y1730248D01*
G01X26812135Y1724660D01*
G01X26800705Y1713230D01*
G01X26794863Y1695958D01*
G01X26794863Y1684528D01*
G01X26800705Y1667510D01*
G01X26812135Y1656080D01*
G01X26823565Y1650238D01*
G01X26840583Y1650238D01*
G01X26852013Y1656080D01*
G01X26863443Y1667510D01*
G01X26917037Y1730248D02*
G01X26951327Y1650238D01*
G01X26985617Y1730248D02*
G01X26951327Y1650238D01*
G01X26939897Y1627378D01*
G01X26928467Y1615948D01*
G01X26917037Y1610360D01*
G01X26911195Y1610360D01*
G01X27033369Y1695958D02*
G01X27101949Y1695958D01*
G01X27101949Y1707388D01*
G01X27096361Y1718818D01*
G01X27090519Y1724660D01*
G01X27079089Y1730248D01*
G01X27062071Y1730248D01*
G01X27050641Y1724660D01*
G01X27039211Y1713230D01*
G01X27033369Y1695958D01*
G01X27033369Y1684528D01*
G01X27039211Y1667510D01*
G01X27050641Y1656080D01*
G01X27062071Y1650238D01*
G01X27079089Y1650238D01*
G01X27090519Y1656080D01*
G01X27101949Y1667510D01*
G01X27149701Y1730248D02*
G01X27149701Y1650238D01*
G01X27149701Y1695958D02*
G01X27155543Y1713230D01*
G01X27166973Y1724660D01*
G01X27178403Y1730248D01*
G01X27195421Y1730248D01*
G01X12888254Y1189809D02*
G01X12831104Y1189809D01*
G01X12825516Y1138247D01*
G01X12831104Y1144089D01*
G01X12848376Y1149677D01*
G01X12865394Y1149677D01*
G01X12882666Y1144089D01*
G01X12894096Y1132659D01*
G01X12899684Y1115387D01*
G01X12899684Y1103957D01*
G01X12894096Y1086939D01*
G01X12882666Y1075509D01*
G01X12865394Y1069667D01*
G01X12848376Y1069667D01*
G01X12831104Y1075509D01*
G01X12825516Y1081097D01*
G01X12819674Y1092527D01*
G01X14290987Y1189809D02*
G01X14233837Y1109799D01*
G01X14319689Y1109799D01*
G01X14290987Y1189809D02*
G01X14290987Y1069667D01*
G01X14378871Y1189809D02*
G01X14441863Y1189809D01*
G01X14407573Y1144089D01*
G01X14424591Y1144089D01*
G01X14436021Y1138247D01*
G01X14441863Y1132659D01*
G01X14447451Y1115387D01*
G01X14447451Y1103957D01*
G01X14441863Y1086939D01*
G01X14430433Y1075509D01*
G01X14413161Y1069667D01*
G01X14396143Y1069667D01*
G01X14378871Y1075509D01*
G01X14373283Y1081097D01*
G01X14367441Y1092527D01*
G01X14501045Y1098369D02*
G01X14495203Y1092527D01*
G01X14501045Y1086939D01*
G01X14506633Y1092527D01*
G01X14501045Y1098369D01*
G01X14565815Y1189809D02*
G01X14628807Y1189809D01*
G01X14594517Y1144089D01*
G01X14611535Y1144089D01*
G01X14622965Y1138247D01*
G01X14628807Y1132659D01*
G01X14634395Y1115387D01*
G01X14634395Y1103957D01*
G01X14628807Y1086939D01*
G01X14617377Y1075509D01*
G01X14600105Y1069667D01*
G01X14583087Y1069667D01*
G01X14565815Y1075509D01*
G01X14560227Y1081097D01*
G01X14554385Y1092527D01*
G01X14682147Y1149677D02*
G01X14745139Y1069667D01*
G01X14745139Y1149677D02*
G01X14682147Y1069667D01*
G01X14850041Y1189809D02*
G01X14792891Y1109799D01*
G01X14878743Y1109799D01*
G01X14850041Y1189809D02*
G01X14850041Y1069667D01*
G01X14937925Y1189809D02*
G01X15000917Y1189809D01*
G01X14966627Y1144089D01*
G01X14983645Y1144089D01*
G01X14995075Y1138247D01*
G01X15000917Y1132659D01*
G01X15006505Y1115387D01*
G01X15006505Y1103957D01*
G01X15000917Y1086939D01*
G01X14989487Y1075509D01*
G01X14972215Y1069667D01*
G01X14955197Y1069667D01*
G01X14937925Y1075509D01*
G01X14932337Y1081097D01*
G01X14926495Y1092527D01*
G01X15060099Y1098369D02*
G01X15054257Y1092527D01*
G01X15060099Y1086939D01*
G01X15065687Y1092527D01*
G01X15060099Y1098369D01*
G01X15124869Y1189809D02*
G01X15187861Y1189809D01*
G01X15153571Y1144089D01*
G01X15170589Y1144089D01*
G01X15182019Y1138247D01*
G01X15187861Y1132659D01*
G01X15193449Y1115387D01*
G01X15193449Y1103957D01*
G01X15187861Y1086939D01*
G01X15176431Y1075509D01*
G01X15159159Y1069667D01*
G01X15142141Y1069667D01*
G01X15124869Y1075509D01*
G01X15119281Y1081097D01*
G01X15113439Y1092527D01*
G01X15241201Y1149677D02*
G01X15241201Y1069667D01*
G01X15241201Y1126817D02*
G01X15258473Y1144089D01*
G01X15269903Y1149677D01*
G01X15286921Y1149677D01*
G01X15298351Y1144089D01*
G01X15304193Y1126817D01*
G01X15304193Y1069667D01*
G01X15304193Y1126817D02*
G01X15321211Y1144089D01*
G01X15332641Y1149677D01*
G01X15349913Y1149677D01*
G01X15361343Y1144089D01*
G01X15366931Y1126817D01*
G01X15366931Y1069667D01*
G01X15414683Y1189809D02*
G01X15420525Y1183967D01*
G01X15426113Y1189809D01*
G01X15420525Y1195397D01*
G01X15414683Y1189809D01*
G01X15420525Y1149677D02*
G01X15420525Y1069667D01*
G01X15473865Y1189809D02*
G01X15473865Y1069667D01*
G01X15561749Y1212669D02*
G01X15550319Y1201239D01*
G01X15538889Y1183967D01*
G01X15527459Y1161107D01*
G01X15521617Y1132659D01*
G01X15521617Y1109799D01*
G01X15527459Y1081097D01*
G01X15538889Y1058237D01*
G01X15550319Y1041219D01*
G01X15561749Y1029789D01*
G01X15609501Y1166949D02*
G01X15620931Y1172537D01*
G01X15638203Y1189809D01*
G01X15638203Y1069667D01*
G01X15691797Y1098369D02*
G01X15685955Y1092527D01*
G01X15691797Y1086939D01*
G01X15697385Y1092527D01*
G01X15691797Y1098369D01*
G01X15745137Y1166949D02*
G01X15756567Y1172537D01*
G01X15773839Y1189809D01*
G01X15773839Y1069667D01*
G01X15855881Y1189809D02*
G01X15838863Y1183967D01*
G01X15827433Y1166949D01*
G01X15821591Y1138247D01*
G01X15821591Y1121229D01*
G01X15827433Y1092527D01*
G01X15838863Y1075509D01*
G01X15855881Y1069667D01*
G01X15867311Y1069667D01*
G01X15884583Y1075509D01*
G01X15896013Y1092527D01*
G01X15901601Y1121229D01*
G01X15901601Y1138247D01*
G01X15896013Y1166949D01*
G01X15884583Y1183967D01*
G01X15867311Y1189809D01*
G01X15855881Y1189809D01*
G01X15983643Y1189809D02*
G01X15966625Y1183967D01*
G01X15955195Y1166949D01*
G01X15949353Y1138247D01*
G01X15949353Y1121229D01*
G01X15955195Y1092527D01*
G01X15966625Y1075509D01*
G01X15983643Y1069667D01*
G01X15995073Y1069667D01*
G01X16012345Y1075509D01*
G01X16023775Y1092527D01*
G01X16029363Y1121229D01*
G01X16029363Y1138247D01*
G01X16023775Y1166949D01*
G01X16012345Y1183967D01*
G01X15995073Y1189809D01*
G01X15983643Y1189809D01*
G01X16077115Y1149677D02*
G01X16140107Y1069667D01*
G01X16140107Y1149677D02*
G01X16077115Y1069667D01*
G01X16187859Y1166949D02*
G01X16199289Y1172537D01*
G01X16216561Y1189809D01*
G01X16216561Y1069667D01*
G01X16270155Y1098369D02*
G01X16264313Y1092527D01*
G01X16270155Y1086939D01*
G01X16275743Y1092527D01*
G01X16270155Y1098369D01*
G01X16323495Y1166949D02*
G01X16334925Y1172537D01*
G01X16352197Y1189809D01*
G01X16352197Y1069667D01*
G01X16434239Y1189809D02*
G01X16417221Y1183967D01*
G01X16405791Y1166949D01*
G01X16399949Y1138247D01*
G01X16399949Y1121229D01*
G01X16405791Y1092527D01*
G01X16417221Y1075509D01*
G01X16434239Y1069667D01*
G01X16445669Y1069667D01*
G01X16462941Y1075509D01*
G01X16474371Y1092527D01*
G01X16479959Y1121229D01*
G01X16479959Y1138247D01*
G01X16474371Y1166949D01*
G01X16462941Y1183967D01*
G01X16445669Y1189809D01*
G01X16434239Y1189809D01*
G01X16562001Y1189809D02*
G01X16544983Y1183967D01*
G01X16533553Y1166949D01*
G01X16527711Y1138247D01*
G01X16527711Y1121229D01*
G01X16533553Y1092527D01*
G01X16544983Y1075509D01*
G01X16562001Y1069667D01*
G01X16573431Y1069667D01*
G01X16590703Y1075509D01*
G01X16602133Y1092527D01*
G01X16607721Y1121229D01*
G01X16607721Y1138247D01*
G01X16602133Y1166949D01*
G01X16590703Y1183967D01*
G01X16573431Y1189809D01*
G01X16562001Y1189809D01*
G01X16655473Y1149677D02*
G01X16655473Y1069667D01*
G01X16655473Y1126817D02*
G01X16672745Y1144089D01*
G01X16684175Y1149677D01*
G01X16701193Y1149677D01*
G01X16712623Y1144089D01*
G01X16718465Y1126817D01*
G01X16718465Y1069667D01*
G01X16718465Y1126817D02*
G01X16735483Y1144089D01*
G01X16746913Y1149677D01*
G01X16764185Y1149677D01*
G01X16775615Y1144089D01*
G01X16781203Y1126817D01*
G01X16781203Y1069667D01*
G01X16828955Y1149677D02*
G01X16828955Y1069667D01*
G01X16828955Y1126817D02*
G01X16846227Y1144089D01*
G01X16857657Y1149677D01*
G01X16874675Y1149677D01*
G01X16886105Y1144089D01*
G01X16891947Y1126817D01*
G01X16891947Y1069667D01*
G01X16891947Y1126817D02*
G01X16908965Y1144089D01*
G01X16920395Y1149677D01*
G01X16937667Y1149677D01*
G01X16949097Y1144089D01*
G01X16954685Y1126817D01*
G01X16954685Y1069667D01*
G01X17002437Y1212669D02*
G01X17013867Y1201239D01*
G01X17025297Y1183967D01*
G01X17036727Y1161107D01*
G01X17042569Y1132659D01*
G01X17042569Y1109799D01*
G01X17036727Y1081097D01*
G01X17025297Y1058237D01*
G01X17013867Y1041219D01*
G01X17002437Y1029789D01*
G01X18127295Y1189809D02*
G01X18127295Y1069667D01*
G01X18127295Y1189809D02*
G01X18178857Y1189809D01*
G01X18195875Y1183967D01*
G01X18201717Y1178379D01*
G01X18207305Y1166949D01*
G01X18207305Y1149677D01*
G01X18201717Y1138247D01*
G01X18195875Y1132659D01*
G01X18178857Y1126817D01*
G01X18127295Y1126817D01*
G01X18295189Y1189809D02*
G01X18295189Y1069667D01*
G01X18255057Y1189809D02*
G01X18335067Y1189809D01*
G01X18382819Y1189809D02*
G01X18382819Y1069667D01*
G01X18462829Y1189809D02*
G01X18462829Y1069667D01*
G01X18382819Y1132659D02*
G01X18462829Y1132659D01*
G01X19588702Y1189809D02*
G01X19588702Y1069667D01*
G01X19588702Y1189809D02*
G01X19640264Y1189809D01*
G01X19657282Y1183967D01*
G01X19663124Y1178379D01*
G01X19668712Y1166949D01*
G01X19668712Y1155519D01*
G01X19663124Y1144089D01*
G01X19657282Y1138247D01*
G01X19640264Y1132659D01*
G01X19588702Y1132659D01*
G01X19628834Y1132659D02*
G01X19668712Y1069667D01*
G01X19745166Y1149677D02*
G01X19733736Y1144089D01*
G01X19722306Y1132659D01*
G01X19716464Y1115387D01*
G01X19716464Y1103957D01*
G01X19722306Y1086939D01*
G01X19733736Y1075509D01*
G01X19745166Y1069667D01*
G01X19762184Y1069667D01*
G01X19773614Y1075509D01*
G01X19785044Y1086939D01*
G01X19790886Y1103957D01*
G01X19790886Y1115387D01*
G01X19785044Y1132659D01*
G01X19773614Y1144089D01*
G01X19762184Y1149677D01*
G01X19745166Y1149677D01*
G01X19838638Y1149677D02*
G01X19838638Y1092527D01*
G01X19844480Y1075509D01*
G01X19855910Y1069667D01*
G01X19872928Y1069667D01*
G01X19884358Y1075509D01*
G01X19901630Y1092527D01*
G01X19901630Y1149677D02*
G01X19901630Y1069667D01*
G01X19949382Y1149677D02*
G01X19949382Y1069667D01*
G01X19949382Y1126817D02*
G01X19966654Y1144089D01*
G01X19978084Y1149677D01*
G01X19995102Y1149677D01*
G01X20006532Y1144089D01*
G01X20012374Y1126817D01*
G01X20012374Y1069667D01*
G01X20128706Y1189809D02*
G01X20128706Y1069667D01*
G01X20128706Y1132659D02*
G01X20117276Y1144089D01*
G01X20105846Y1149677D01*
G01X20088828Y1149677D01*
G01X20077398Y1144089D01*
G01X20065968Y1132659D01*
G01X20060126Y1115387D01*
G01X20060126Y1103957D01*
G01X20065968Y1086939D01*
G01X20077398Y1075509D01*
G01X20088828Y1069667D01*
G01X20105846Y1069667D01*
G01X20117276Y1075509D01*
G01X20128706Y1086939D01*
G01X21019883Y1189809D02*
G01X21019883Y1069667D01*
G01X21019883Y1189809D02*
G01X21071445Y1189809D01*
G01X21088463Y1183967D01*
G01X21094305Y1178379D01*
G01X21099893Y1166949D01*
G01X21099893Y1149677D01*
G01X21094305Y1138247D01*
G01X21088463Y1132659D01*
G01X21071445Y1126817D01*
G01X21019883Y1126817D01*
G01X21216225Y1149677D02*
G01X21216225Y1069667D01*
G01X21216225Y1132659D02*
G01X21204795Y1144089D01*
G01X21193365Y1149677D01*
G01X21176347Y1149677D01*
G01X21164917Y1144089D01*
G01X21153487Y1132659D01*
G01X21147645Y1115387D01*
G01X21147645Y1103957D01*
G01X21153487Y1086939D01*
G01X21164917Y1075509D01*
G01X21176347Y1069667D01*
G01X21193365Y1069667D01*
G01X21204795Y1075509D01*
G01X21216225Y1086939D01*
G01X21332557Y1189809D02*
G01X21332557Y1069667D01*
G01X21332557Y1132659D02*
G01X21321127Y1144089D01*
G01X21309697Y1149677D01*
G01X21292679Y1149677D01*
G01X21281249Y1144089D01*
G01X21269819Y1132659D01*
G01X21263977Y1115387D01*
G01X21263977Y1103957D01*
G01X21269819Y1086939D01*
G01X21281249Y1075509D01*
G01X21292679Y1069667D01*
G01X21309697Y1069667D01*
G01X21321127Y1075509D01*
G01X21332557Y1086939D01*
G01X22729194Y1212669D02*
G01X22717764Y1201239D01*
G01X22706334Y1183967D01*
G01X22694904Y1161107D01*
G01X22689062Y1132659D01*
G01X22689062Y1109799D01*
G01X22694904Y1081097D01*
G01X22706334Y1058237D01*
G01X22717764Y1041219D01*
G01X22729194Y1029789D01*
G01X22776946Y1189809D02*
G01X22776946Y1069667D01*
G01X22776946Y1189809D02*
G01X22822666Y1069667D01*
G01X22868386Y1189809D02*
G01X22822666Y1069667D01*
G01X22868386Y1189809D02*
G01X22868386Y1069667D01*
G01X22916138Y1189809D02*
G01X22921980Y1183967D01*
G01X22927568Y1189809D01*
G01X22921980Y1195397D01*
G01X22916138Y1189809D01*
G01X22921980Y1149677D02*
G01X22921980Y1069667D01*
G01X22975320Y1149677D02*
G01X23038312Y1069667D01*
G01X23038312Y1149677D02*
G01X22975320Y1069667D01*
G01X23086064Y1115387D02*
G01X23154644Y1115387D01*
G01X23154644Y1126817D01*
G01X23149056Y1138247D01*
G01X23143214Y1144089D01*
G01X23131784Y1149677D01*
G01X23114766Y1149677D01*
G01X23103336Y1144089D01*
G01X23091906Y1132659D01*
G01X23086064Y1115387D01*
G01X23086064Y1103957D01*
G01X23091906Y1086939D01*
G01X23103336Y1075509D01*
G01X23114766Y1069667D01*
G01X23131784Y1069667D01*
G01X23143214Y1075509D01*
G01X23154644Y1086939D01*
G01X23270976Y1189809D02*
G01X23270976Y1069667D01*
G01X23270976Y1132659D02*
G01X23259546Y1144089D01*
G01X23248116Y1149677D01*
G01X23231098Y1149677D01*
G01X23219668Y1144089D01*
G01X23208238Y1132659D01*
G01X23202396Y1115387D01*
G01X23202396Y1103957D01*
G01X23208238Y1086939D01*
G01X23219668Y1075509D01*
G01X23231098Y1069667D01*
G01X23248116Y1069667D01*
G01X23259546Y1075509D01*
G01X23270976Y1086939D01*
G01X23318728Y1212669D02*
G01X23330158Y1201239D01*
G01X23341588Y1183967D01*
G01X23353018Y1161107D01*
G01X23358860Y1132659D01*
G01X23358860Y1109799D01*
G01X23353018Y1081097D01*
G01X23341588Y1058237D01*
G01X23330158Y1041219D01*
G01X23318728Y1029789D01*
G01X24648563Y1189809D02*
G01X24648563Y1069667D01*
G01X24608431Y1189809D02*
G01X24688441Y1189809D01*
G01X24764895Y1149677D02*
G01X24753465Y1144089D01*
G01X24742035Y1132659D01*
G01X24736193Y1115387D01*
G01X24736193Y1103957D01*
G01X24742035Y1086939D01*
G01X24753465Y1075509D01*
G01X24764895Y1069667D01*
G01X24781913Y1069667D01*
G01X24793343Y1075509D01*
G01X24804773Y1086939D01*
G01X24810615Y1103957D01*
G01X24810615Y1115387D01*
G01X24804773Y1132659D01*
G01X24793343Y1144089D01*
G01X24781913Y1149677D01*
G01X24764895Y1149677D01*
G01X24858367Y1149677D02*
G01X24858367Y1029789D01*
G01X24858367Y1132659D02*
G01X24869797Y1144089D01*
G01X24881227Y1149677D01*
G01X24898499Y1149677D01*
G01X24909929Y1144089D01*
G01X24921359Y1132659D01*
G01X24926947Y1115387D01*
G01X24926947Y1103957D01*
G01X24921359Y1086939D01*
G01X24909929Y1075509D01*
G01X24898499Y1069667D01*
G01X24881227Y1069667D01*
G01X24869797Y1075509D01*
G01X24858367Y1086939D01*
G01X25102715Y1189809D02*
G01X25102715Y1069667D01*
G01X25102715Y1069667D02*
G01X25171295Y1069667D01*
G01X25287627Y1149677D02*
G01X25287627Y1069667D01*
G01X25287627Y1132659D02*
G01X25276197Y1144089D01*
G01X25264767Y1149677D01*
G01X25247749Y1149677D01*
G01X25236319Y1144089D01*
G01X25224889Y1132659D01*
G01X25219047Y1115387D01*
G01X25219047Y1103957D01*
G01X25224889Y1086939D01*
G01X25236319Y1075509D01*
G01X25247749Y1069667D01*
G01X25264767Y1069667D01*
G01X25276197Y1075509D01*
G01X25287627Y1086939D01*
G01X25341221Y1149677D02*
G01X25375511Y1069667D01*
G01X25409801Y1149677D02*
G01X25375511Y1069667D01*
G01X25364081Y1046807D01*
G01X25352651Y1035377D01*
G01X25341221Y1029789D01*
G01X25335379Y1029789D01*
G01X25457553Y1115387D02*
G01X25526133Y1115387D01*
G01X25526133Y1126817D01*
G01X25520545Y1138247D01*
G01X25514703Y1144089D01*
G01X25503273Y1149677D01*
G01X25486255Y1149677D01*
G01X25474825Y1144089D01*
G01X25463395Y1132659D01*
G01X25457553Y1115387D01*
G01X25457553Y1103957D01*
G01X25463395Y1086939D01*
G01X25474825Y1075509D01*
G01X25486255Y1069667D01*
G01X25503273Y1069667D01*
G01X25514703Y1075509D01*
G01X25526133Y1086939D01*
G01X25573885Y1149677D02*
G01X25573885Y1069667D01*
G01X25573885Y1115387D02*
G01X25579727Y1132659D01*
G01X25591157Y1144089D01*
G01X25602587Y1149677D01*
G01X25619605Y1149677D01*
G01X25667357Y1121229D02*
G01X25770227Y1121229D01*
G01X25817979Y1189809D02*
G01X25817979Y1069667D01*
G01X25817979Y1189809D02*
G01X25869541Y1189809D01*
G01X25886559Y1183967D01*
G01X25892401Y1178379D01*
G01X25897989Y1166949D01*
G01X25897989Y1155519D01*
G01X25892401Y1144089D01*
G01X25886559Y1138247D01*
G01X25869541Y1132659D01*
G01X25817979Y1132659D02*
G01X25869541Y1132659D01*
G01X25886559Y1126817D01*
G01X25892401Y1121229D01*
G01X25897989Y1109799D01*
G01X25897989Y1092527D01*
G01X25892401Y1081097D01*
G01X25886559Y1075509D01*
G01X25869541Y1069667D01*
G01X25817979Y1069667D01*
G01X25974443Y1149677D02*
G01X25963013Y1144089D01*
G01X25951583Y1132659D01*
G01X25945741Y1115387D01*
G01X25945741Y1103957D01*
G01X25951583Y1086939D01*
G01X25963013Y1075509D01*
G01X25974443Y1069667D01*
G01X25991461Y1069667D01*
G01X26002891Y1075509D01*
G01X26014321Y1086939D01*
G01X26020163Y1103957D01*
G01X26020163Y1115387D01*
G01X26014321Y1132659D01*
G01X26002891Y1144089D01*
G01X25991461Y1149677D01*
G01X25974443Y1149677D01*
G01X26085187Y1189809D02*
G01X26085187Y1092527D01*
G01X26090775Y1075509D01*
G01X26102205Y1069667D01*
G01X26113635Y1069667D01*
G01X26067915Y1149677D02*
G01X26108047Y1149677D01*
G01X26178659Y1189809D02*
G01X26178659Y1092527D01*
G01X26184247Y1075509D01*
G01X26195677Y1069667D01*
G01X26207107Y1069667D01*
G01X26161387Y1149677D02*
G01X26201519Y1149677D01*
G01X26283561Y1149677D02*
G01X26272131Y1144089D01*
G01X26260701Y1132659D01*
G01X26254859Y1115387D01*
G01X26254859Y1103957D01*
G01X26260701Y1086939D01*
G01X26272131Y1075509D01*
G01X26283561Y1069667D01*
G01X26300579Y1069667D01*
G01X26312009Y1075509D01*
G01X26323439Y1086939D01*
G01X26329281Y1103957D01*
G01X26329281Y1115387D01*
G01X26323439Y1132659D01*
G01X26312009Y1144089D01*
G01X26300579Y1149677D01*
G01X26283561Y1149677D01*
G01X26377033Y1149677D02*
G01X26377033Y1069667D01*
G01X26377033Y1126817D02*
G01X26394305Y1144089D01*
G01X26405735Y1149677D01*
G01X26422753Y1149677D01*
G01X26434183Y1144089D01*
G01X26440025Y1126817D01*
G01X26440025Y1069667D01*
G01X26440025Y1126817D02*
G01X26457043Y1144089D01*
G01X26468473Y1149677D01*
G01X26485745Y1149677D01*
G01X26497175Y1144089D01*
G01X26502763Y1126817D01*
G01X26502763Y1069667D01*
G01X26678531Y1189809D02*
G01X26678531Y1069667D01*
G01X26678531Y1069667D02*
G01X26747111Y1069667D01*
G01X26863443Y1149677D02*
G01X26863443Y1069667D01*
G01X26863443Y1132659D02*
G01X26852013Y1144089D01*
G01X26840583Y1149677D01*
G01X26823565Y1149677D01*
G01X26812135Y1144089D01*
G01X26800705Y1132659D01*
G01X26794863Y1115387D01*
G01X26794863Y1103957D01*
G01X26800705Y1086939D01*
G01X26812135Y1075509D01*
G01X26823565Y1069667D01*
G01X26840583Y1069667D01*
G01X26852013Y1075509D01*
G01X26863443Y1086939D01*
G01X26917037Y1149677D02*
G01X26951327Y1069667D01*
G01X26985617Y1149677D02*
G01X26951327Y1069667D01*
G01X26939897Y1046807D01*
G01X26928467Y1035377D01*
G01X26917037Y1029789D01*
G01X26911195Y1029789D01*
G01X27033369Y1115387D02*
G01X27101949Y1115387D01*
G01X27101949Y1126817D01*
G01X27096361Y1138247D01*
G01X27090519Y1144089D01*
G01X27079089Y1149677D01*
G01X27062071Y1149677D01*
G01X27050641Y1144089D01*
G01X27039211Y1132659D01*
G01X27033369Y1115387D01*
G01X27033369Y1103957D01*
G01X27039211Y1086939D01*
G01X27050641Y1075509D01*
G01X27062071Y1069667D01*
G01X27079089Y1069667D01*
G01X27090519Y1075509D01*
G01X27101949Y1086939D01*
G01X27149701Y1149677D02*
G01X27149701Y1069667D01*
G01X27149701Y1115387D02*
G01X27155543Y1132659D01*
G01X27166973Y1144089D01*
G01X27178403Y1149677D01*
G01X27195421Y1149677D01*
G01X12848376Y609237D02*
G01X12831104Y603395D01*
G01X12825516Y591965D01*
G01X12825516Y580535D01*
G01X12831104Y569105D01*
G01X12842534Y563517D01*
G01X12865394Y557675D01*
G01X12882666Y552087D01*
G01X12894096Y540657D01*
G01X12899684Y529227D01*
G01X12899684Y511955D01*
G01X12894096Y500525D01*
G01X12888254Y494937D01*
G01X12871236Y489095D01*
G01X12848376Y489095D01*
G01X12831104Y494937D01*
G01X12825516Y500525D01*
G01X12819674Y511955D01*
G01X12819674Y529227D01*
G01X12825516Y540657D01*
G01X12836946Y552087D01*
G01X12853964Y557675D01*
G01X12876824Y563517D01*
G01X12888254Y569105D01*
G01X12894096Y580535D01*
G01X12894096Y591965D01*
G01X12888254Y603395D01*
G01X12871236Y609237D01*
G01X12848376Y609237D01*
G01X14302417Y591965D02*
G01X14296829Y603395D01*
G01X14279557Y609237D01*
G01X14268127Y609237D01*
G01X14251109Y603395D01*
G01X14239679Y586377D01*
G01X14233837Y557675D01*
G01X14233837Y529227D01*
G01X14239679Y506367D01*
G01X14251109Y494937D01*
G01X14268127Y489095D01*
G01X14273969Y489095D01*
G01X14290987Y494937D01*
G01X14302417Y506367D01*
G01X14308259Y523385D01*
G01X14308259Y529227D01*
G01X14302417Y546245D01*
G01X14290987Y557675D01*
G01X14273969Y563517D01*
G01X14268127Y563517D01*
G01X14251109Y557675D01*
G01X14239679Y546245D01*
G01X14233837Y529227D01*
G01X14367441Y609237D02*
G01X14430433Y609237D01*
G01X14396143Y563517D01*
G01X14413161Y563517D01*
G01X14424591Y557675D01*
G01X14430433Y552087D01*
G01X14436021Y534815D01*
G01X14436021Y523385D01*
G01X14430433Y506367D01*
G01X14419003Y494937D01*
G01X14401731Y489095D01*
G01X14384713Y489095D01*
G01X14367441Y494937D01*
G01X14361853Y500525D01*
G01X14356011Y511955D01*
G01X14489615Y517797D02*
G01X14483773Y511955D01*
G01X14489615Y506367D01*
G01X14495203Y511955D01*
G01X14489615Y517797D01*
G01X14577245Y609237D02*
G01X14560227Y603395D01*
G01X14548797Y586377D01*
G01X14542955Y557675D01*
G01X14542955Y540657D01*
G01X14548797Y511955D01*
G01X14560227Y494937D01*
G01X14577245Y489095D01*
G01X14588675Y489095D01*
G01X14605947Y494937D01*
G01X14617377Y511955D01*
G01X14622965Y540657D01*
G01X14622965Y557675D01*
G01X14617377Y586377D01*
G01X14605947Y603395D01*
G01X14588675Y609237D01*
G01X14577245Y609237D01*
G01X14670717Y569105D02*
G01X14733709Y489095D01*
G01X14733709Y569105D02*
G01X14670717Y489095D01*
G01X14850041Y591965D02*
G01X14844453Y603395D01*
G01X14827181Y609237D01*
G01X14815751Y609237D01*
G01X14798733Y603395D01*
G01X14787303Y586377D01*
G01X14781461Y557675D01*
G01X14781461Y529227D01*
G01X14787303Y506367D01*
G01X14798733Y494937D01*
G01X14815751Y489095D01*
G01X14821593Y489095D01*
G01X14838611Y494937D01*
G01X14850041Y506367D01*
G01X14855883Y523385D01*
G01X14855883Y529227D01*
G01X14850041Y546245D01*
G01X14838611Y557675D01*
G01X14821593Y563517D01*
G01X14815751Y563517D01*
G01X14798733Y557675D01*
G01X14787303Y546245D01*
G01X14781461Y529227D01*
G01X14915065Y609237D02*
G01X14978057Y609237D01*
G01X14943767Y563517D01*
G01X14960785Y563517D01*
G01X14972215Y557675D01*
G01X14978057Y552087D01*
G01X14983645Y534815D01*
G01X14983645Y523385D01*
G01X14978057Y506367D01*
G01X14966627Y494937D01*
G01X14949355Y489095D01*
G01X14932337Y489095D01*
G01X14915065Y494937D01*
G01X14909477Y500525D01*
G01X14903635Y511955D01*
G01X15037239Y517797D02*
G01X15031397Y511955D01*
G01X15037239Y506367D01*
G01X15042827Y511955D01*
G01X15037239Y517797D01*
G01X15124869Y609237D02*
G01X15107851Y603395D01*
G01X15096421Y586377D01*
G01X15090579Y557675D01*
G01X15090579Y540657D01*
G01X15096421Y511955D01*
G01X15107851Y494937D01*
G01X15124869Y489095D01*
G01X15136299Y489095D01*
G01X15153571Y494937D01*
G01X15165001Y511955D01*
G01X15170589Y540657D01*
G01X15170589Y557675D01*
G01X15165001Y586377D01*
G01X15153571Y603395D01*
G01X15136299Y609237D01*
G01X15124869Y609237D01*
G01X15218341Y569105D02*
G01X15218341Y489095D01*
G01X15218341Y546245D02*
G01X15235613Y563517D01*
G01X15247043Y569105D01*
G01X15264061Y569105D01*
G01X15275491Y563517D01*
G01X15281333Y546245D01*
G01X15281333Y489095D01*
G01X15281333Y546245D02*
G01X15298351Y563517D01*
G01X15309781Y569105D01*
G01X15327053Y569105D01*
G01X15338483Y563517D01*
G01X15344071Y546245D01*
G01X15344071Y489095D01*
G01X15391823Y609237D02*
G01X15397665Y603395D01*
G01X15403253Y609237D01*
G01X15397665Y614825D01*
G01X15391823Y609237D01*
G01X15397665Y569105D02*
G01X15397665Y489095D01*
G01X15451005Y609237D02*
G01X15451005Y489095D01*
G01X15538889Y632097D02*
G01X15527459Y620667D01*
G01X15516029Y603395D01*
G01X15504599Y580535D01*
G01X15498757Y552087D01*
G01X15498757Y529227D01*
G01X15504599Y500525D01*
G01X15516029Y477665D01*
G01X15527459Y460647D01*
G01X15538889Y449217D01*
G01X15586641Y586377D02*
G01X15598071Y591965D01*
G01X15615343Y609237D01*
G01X15615343Y489095D01*
G01X15668937Y517797D02*
G01X15663095Y511955D01*
G01X15668937Y506367D01*
G01X15674525Y511955D01*
G01X15668937Y517797D01*
G01X15790857Y591965D02*
G01X15785269Y603395D01*
G01X15767997Y609237D01*
G01X15756567Y609237D01*
G01X15739549Y603395D01*
G01X15728119Y586377D01*
G01X15722277Y557675D01*
G01X15722277Y529227D01*
G01X15728119Y506367D01*
G01X15739549Y494937D01*
G01X15756567Y489095D01*
G01X15762409Y489095D01*
G01X15779427Y494937D01*
G01X15790857Y506367D01*
G01X15796699Y523385D01*
G01X15796699Y529227D01*
G01X15790857Y546245D01*
G01X15779427Y557675D01*
G01X15762409Y563517D01*
G01X15756567Y563517D01*
G01X15739549Y557675D01*
G01X15728119Y546245D01*
G01X15722277Y529227D01*
G01X15878741Y609237D02*
G01X15861723Y603395D01*
G01X15850293Y586377D01*
G01X15844451Y557675D01*
G01X15844451Y540657D01*
G01X15850293Y511955D01*
G01X15861723Y494937D01*
G01X15878741Y489095D01*
G01X15890171Y489095D01*
G01X15907443Y494937D01*
G01X15918873Y511955D01*
G01X15924461Y540657D01*
G01X15924461Y557675D01*
G01X15918873Y586377D01*
G01X15907443Y603395D01*
G01X15890171Y609237D01*
G01X15878741Y609237D01*
G01X16006503Y609237D02*
G01X15989485Y603395D01*
G01X15978055Y586377D01*
G01X15972213Y557675D01*
G01X15972213Y540657D01*
G01X15978055Y511955D01*
G01X15989485Y494937D01*
G01X16006503Y489095D01*
G01X16017933Y489095D01*
G01X16035205Y494937D01*
G01X16046635Y511955D01*
G01X16052223Y540657D01*
G01X16052223Y557675D01*
G01X16046635Y586377D01*
G01X16035205Y603395D01*
G01X16017933Y609237D01*
G01X16006503Y609237D01*
G01X16099975Y569105D02*
G01X16162967Y489095D01*
G01X16162967Y569105D02*
G01X16099975Y489095D01*
G01X16210719Y586377D02*
G01X16222149Y591965D01*
G01X16239421Y609237D01*
G01X16239421Y489095D01*
G01X16293015Y517797D02*
G01X16287173Y511955D01*
G01X16293015Y506367D01*
G01X16298603Y511955D01*
G01X16293015Y517797D01*
G01X16414935Y591965D02*
G01X16409347Y603395D01*
G01X16392075Y609237D01*
G01X16380645Y609237D01*
G01X16363627Y603395D01*
G01X16352197Y586377D01*
G01X16346355Y557675D01*
G01X16346355Y529227D01*
G01X16352197Y506367D01*
G01X16363627Y494937D01*
G01X16380645Y489095D01*
G01X16386487Y489095D01*
G01X16403505Y494937D01*
G01X16414935Y506367D01*
G01X16420777Y523385D01*
G01X16420777Y529227D01*
G01X16414935Y546245D01*
G01X16403505Y557675D01*
G01X16386487Y563517D01*
G01X16380645Y563517D01*
G01X16363627Y557675D01*
G01X16352197Y546245D01*
G01X16346355Y529227D01*
G01X16502819Y609237D02*
G01X16485801Y603395D01*
G01X16474371Y586377D01*
G01X16468529Y557675D01*
G01X16468529Y540657D01*
G01X16474371Y511955D01*
G01X16485801Y494937D01*
G01X16502819Y489095D01*
G01X16514249Y489095D01*
G01X16531521Y494937D01*
G01X16542951Y511955D01*
G01X16548539Y540657D01*
G01X16548539Y557675D01*
G01X16542951Y586377D01*
G01X16531521Y603395D01*
G01X16514249Y609237D01*
G01X16502819Y609237D01*
G01X16630581Y609237D02*
G01X16613563Y603395D01*
G01X16602133Y586377D01*
G01X16596291Y557675D01*
G01X16596291Y540657D01*
G01X16602133Y511955D01*
G01X16613563Y494937D01*
G01X16630581Y489095D01*
G01X16642011Y489095D01*
G01X16659283Y494937D01*
G01X16670713Y511955D01*
G01X16676301Y540657D01*
G01X16676301Y557675D01*
G01X16670713Y586377D01*
G01X16659283Y603395D01*
G01X16642011Y609237D01*
G01X16630581Y609237D01*
G01X16724053Y569105D02*
G01X16724053Y489095D01*
G01X16724053Y546245D02*
G01X16741325Y563517D01*
G01X16752755Y569105D01*
G01X16769773Y569105D01*
G01X16781203Y563517D01*
G01X16787045Y546245D01*
G01X16787045Y489095D01*
G01X16787045Y546245D02*
G01X16804063Y563517D01*
G01X16815493Y569105D01*
G01X16832765Y569105D01*
G01X16844195Y563517D01*
G01X16849783Y546245D01*
G01X16849783Y489095D01*
G01X16897535Y569105D02*
G01X16897535Y489095D01*
G01X16897535Y546245D02*
G01X16914807Y563517D01*
G01X16926237Y569105D01*
G01X16943255Y569105D01*
G01X16954685Y563517D01*
G01X16960527Y546245D01*
G01X16960527Y489095D01*
G01X16960527Y546245D02*
G01X16977545Y563517D01*
G01X16988975Y569105D01*
G01X17006247Y569105D01*
G01X17017677Y563517D01*
G01X17023265Y546245D01*
G01X17023265Y489095D01*
G01X17071017Y632097D02*
G01X17082447Y620667D01*
G01X17093877Y603395D01*
G01X17105307Y580535D01*
G01X17111149Y552087D01*
G01X17111149Y529227D01*
G01X17105307Y500525D01*
G01X17093877Y477665D01*
G01X17082447Y460647D01*
G01X17071017Y449217D01*
G01X18127295Y609237D02*
G01X18127295Y489095D01*
G01X18127295Y609237D02*
G01X18178857Y609237D01*
G01X18195875Y603395D01*
G01X18201717Y597807D01*
G01X18207305Y586377D01*
G01X18207305Y569105D01*
G01X18201717Y557675D01*
G01X18195875Y552087D01*
G01X18178857Y546245D01*
G01X18127295Y546245D01*
G01X18295189Y609237D02*
G01X18295189Y489095D01*
G01X18255057Y609237D02*
G01X18335067Y609237D01*
G01X18382819Y609237D02*
G01X18382819Y489095D01*
G01X18462829Y609237D02*
G01X18462829Y489095D01*
G01X18382819Y552087D02*
G01X18462829Y552087D01*
G01X19588702Y609237D02*
G01X19588702Y489095D01*
G01X19588702Y609237D02*
G01X19640264Y609237D01*
G01X19657282Y603395D01*
G01X19663124Y597807D01*
G01X19668712Y586377D01*
G01X19668712Y574947D01*
G01X19663124Y563517D01*
G01X19657282Y557675D01*
G01X19640264Y552087D01*
G01X19588702Y552087D01*
G01X19628834Y552087D02*
G01X19668712Y489095D01*
G01X19745166Y569105D02*
G01X19733736Y563517D01*
G01X19722306Y552087D01*
G01X19716464Y534815D01*
G01X19716464Y523385D01*
G01X19722306Y506367D01*
G01X19733736Y494937D01*
G01X19745166Y489095D01*
G01X19762184Y489095D01*
G01X19773614Y494937D01*
G01X19785044Y506367D01*
G01X19790886Y523385D01*
G01X19790886Y534815D01*
G01X19785044Y552087D01*
G01X19773614Y563517D01*
G01X19762184Y569105D01*
G01X19745166Y569105D01*
G01X19838638Y569105D02*
G01X19838638Y511955D01*
G01X19844480Y494937D01*
G01X19855910Y489095D01*
G01X19872928Y489095D01*
G01X19884358Y494937D01*
G01X19901630Y511955D01*
G01X19901630Y569105D02*
G01X19901630Y489095D01*
G01X19949382Y569105D02*
G01X19949382Y489095D01*
G01X19949382Y546245D02*
G01X19966654Y563517D01*
G01X19978084Y569105D01*
G01X19995102Y569105D01*
G01X20006532Y563517D01*
G01X20012374Y546245D01*
G01X20012374Y489095D01*
G01X20128706Y609237D02*
G01X20128706Y489095D01*
G01X20128706Y552087D02*
G01X20117276Y563517D01*
G01X20105846Y569105D01*
G01X20088828Y569105D01*
G01X20077398Y563517D01*
G01X20065968Y552087D01*
G01X20060126Y534815D01*
G01X20060126Y523385D01*
G01X20065968Y506367D01*
G01X20077398Y494937D01*
G01X20088828Y489095D01*
G01X20105846Y489095D01*
G01X20117276Y494937D01*
G01X20128706Y506367D01*
G01X21019883Y609237D02*
G01X21019883Y489095D01*
G01X21019883Y609237D02*
G01X21071445Y609237D01*
G01X21088463Y603395D01*
G01X21094305Y597807D01*
G01X21099893Y586377D01*
G01X21099893Y569105D01*
G01X21094305Y557675D01*
G01X21088463Y552087D01*
G01X21071445Y546245D01*
G01X21019883Y546245D01*
G01X21216225Y569105D02*
G01X21216225Y489095D01*
G01X21216225Y552087D02*
G01X21204795Y563517D01*
G01X21193365Y569105D01*
G01X21176347Y569105D01*
G01X21164917Y563517D01*
G01X21153487Y552087D01*
G01X21147645Y534815D01*
G01X21147645Y523385D01*
G01X21153487Y506367D01*
G01X21164917Y494937D01*
G01X21176347Y489095D01*
G01X21193365Y489095D01*
G01X21204795Y494937D01*
G01X21216225Y506367D01*
G01X21332557Y609237D02*
G01X21332557Y489095D01*
G01X21332557Y552087D02*
G01X21321127Y563517D01*
G01X21309697Y569105D01*
G01X21292679Y569105D01*
G01X21281249Y563517D01*
G01X21269819Y552087D01*
G01X21263977Y534815D01*
G01X21263977Y523385D01*
G01X21269819Y506367D01*
G01X21281249Y494937D01*
G01X21292679Y489095D01*
G01X21309697Y489095D01*
G01X21321127Y494937D01*
G01X21332557Y506367D01*
G01X22689062Y609237D02*
G01X22689062Y489095D01*
G01X22689062Y609237D02*
G01X22740624Y609237D01*
G01X22757642Y603395D01*
G01X22763484Y597807D01*
G01X22769072Y586377D01*
G01X22769072Y574947D01*
G01X22763484Y563517D01*
G01X22757642Y557675D01*
G01X22740624Y552087D01*
G01X22689062Y552087D01*
G01X22729194Y552087D02*
G01X22769072Y489095D01*
G01X22845526Y569105D02*
G01X22834096Y563517D01*
G01X22822666Y552087D01*
G01X22816824Y534815D01*
G01X22816824Y523385D01*
G01X22822666Y506367D01*
G01X22834096Y494937D01*
G01X22845526Y489095D01*
G01X22862544Y489095D01*
G01X22873974Y494937D01*
G01X22885404Y506367D01*
G01X22891246Y523385D01*
G01X22891246Y534815D01*
G01X22885404Y552087D01*
G01X22873974Y563517D01*
G01X22862544Y569105D01*
G01X22845526Y569105D01*
G01X22938998Y569105D02*
G01X22938998Y511955D01*
G01X22944840Y494937D01*
G01X22956270Y489095D01*
G01X22973288Y489095D01*
G01X22984718Y494937D01*
G01X23001990Y511955D01*
G01X23001990Y569105D02*
G01X23001990Y489095D01*
G01X23049742Y569105D02*
G01X23049742Y489095D01*
G01X23049742Y546245D02*
G01X23067014Y563517D01*
G01X23078444Y569105D01*
G01X23095462Y569105D01*
G01X23106892Y563517D01*
G01X23112734Y546245D01*
G01X23112734Y489095D01*
G01X23229066Y609237D02*
G01X23229066Y489095D01*
G01X23229066Y552087D02*
G01X23217636Y563517D01*
G01X23206206Y569105D01*
G01X23189188Y569105D01*
G01X23177758Y563517D01*
G01X23166328Y552087D01*
G01X23160486Y534815D01*
G01X23160486Y523385D01*
G01X23166328Y506367D01*
G01X23177758Y494937D01*
G01X23189188Y489095D01*
G01X23206206Y489095D01*
G01X23217636Y494937D01*
G01X23229066Y506367D01*
G01X24648563Y609237D02*
G01X24648563Y489095D01*
G01X24608431Y609237D02*
G01X24688441Y609237D01*
G01X24764895Y569105D02*
G01X24753465Y563517D01*
G01X24742035Y552087D01*
G01X24736193Y534815D01*
G01X24736193Y523385D01*
G01X24742035Y506367D01*
G01X24753465Y494937D01*
G01X24764895Y489095D01*
G01X24781913Y489095D01*
G01X24793343Y494937D01*
G01X24804773Y506367D01*
G01X24810615Y523385D01*
G01X24810615Y534815D01*
G01X24804773Y552087D01*
G01X24793343Y563517D01*
G01X24781913Y569105D01*
G01X24764895Y569105D01*
G01X24858367Y569105D02*
G01X24858367Y449217D01*
G01X24858367Y552087D02*
G01X24869797Y563517D01*
G01X24881227Y569105D01*
G01X24898499Y569105D01*
G01X24909929Y563517D01*
G01X24921359Y552087D01*
G01X24926947Y534815D01*
G01X24926947Y523385D01*
G01X24921359Y506367D01*
G01X24909929Y494937D01*
G01X24898499Y489095D01*
G01X24881227Y489095D01*
G01X24869797Y494937D01*
G01X24858367Y506367D01*
G01X25102715Y609237D02*
G01X25102715Y489095D01*
G01X25102715Y489095D02*
G01X25171295Y489095D01*
G01X25287627Y569105D02*
G01X25287627Y489095D01*
G01X25287627Y552087D02*
G01X25276197Y563517D01*
G01X25264767Y569105D01*
G01X25247749Y569105D01*
G01X25236319Y563517D01*
G01X25224889Y552087D01*
G01X25219047Y534815D01*
G01X25219047Y523385D01*
G01X25224889Y506367D01*
G01X25236319Y494937D01*
G01X25247749Y489095D01*
G01X25264767Y489095D01*
G01X25276197Y494937D01*
G01X25287627Y506367D01*
G01X25341221Y569105D02*
G01X25375511Y489095D01*
G01X25409801Y569105D02*
G01X25375511Y489095D01*
G01X25364081Y466235D01*
G01X25352651Y454805D01*
G01X25341221Y449217D01*
G01X25335379Y449217D01*
G01X25457553Y534815D02*
G01X25526133Y534815D01*
G01X25526133Y546245D01*
G01X25520545Y557675D01*
G01X25514703Y563517D01*
G01X25503273Y569105D01*
G01X25486255Y569105D01*
G01X25474825Y563517D01*
G01X25463395Y552087D01*
G01X25457553Y534815D01*
G01X25457553Y523385D01*
G01X25463395Y506367D01*
G01X25474825Y494937D01*
G01X25486255Y489095D01*
G01X25503273Y489095D01*
G01X25514703Y494937D01*
G01X25526133Y506367D01*
G01X25573885Y569105D02*
G01X25573885Y489095D01*
G01X25573885Y534815D02*
G01X25579727Y552087D01*
G01X25591157Y563517D01*
G01X25602587Y569105D01*
G01X25619605Y569105D01*
G01X25667357Y540657D02*
G01X25770227Y540657D01*
G01X25817979Y609237D02*
G01X25817979Y489095D01*
G01X25817979Y609237D02*
G01X25869541Y609237D01*
G01X25886559Y603395D01*
G01X25892401Y597807D01*
G01X25897989Y586377D01*
G01X25897989Y574947D01*
G01X25892401Y563517D01*
G01X25886559Y557675D01*
G01X25869541Y552087D01*
G01X25817979Y552087D02*
G01X25869541Y552087D01*
G01X25886559Y546245D01*
G01X25892401Y540657D01*
G01X25897989Y529227D01*
G01X25897989Y511955D01*
G01X25892401Y500525D01*
G01X25886559Y494937D01*
G01X25869541Y489095D01*
G01X25817979Y489095D01*
G01X25974443Y569105D02*
G01X25963013Y563517D01*
G01X25951583Y552087D01*
G01X25945741Y534815D01*
G01X25945741Y523385D01*
G01X25951583Y506367D01*
G01X25963013Y494937D01*
G01X25974443Y489095D01*
G01X25991461Y489095D01*
G01X26002891Y494937D01*
G01X26014321Y506367D01*
G01X26020163Y523385D01*
G01X26020163Y534815D01*
G01X26014321Y552087D01*
G01X26002891Y563517D01*
G01X25991461Y569105D01*
G01X25974443Y569105D01*
G01X26085187Y609237D02*
G01X26085187Y511955D01*
G01X26090775Y494937D01*
G01X26102205Y489095D01*
G01X26113635Y489095D01*
G01X26067915Y569105D02*
G01X26108047Y569105D01*
G01X26178659Y609237D02*
G01X26178659Y511955D01*
G01X26184247Y494937D01*
G01X26195677Y489095D01*
G01X26207107Y489095D01*
G01X26161387Y569105D02*
G01X26201519Y569105D01*
G01X26283561Y569105D02*
G01X26272131Y563517D01*
G01X26260701Y552087D01*
G01X26254859Y534815D01*
G01X26254859Y523385D01*
G01X26260701Y506367D01*
G01X26272131Y494937D01*
G01X26283561Y489095D01*
G01X26300579Y489095D01*
G01X26312009Y494937D01*
G01X26323439Y506367D01*
G01X26329281Y523385D01*
G01X26329281Y534815D01*
G01X26323439Y552087D01*
G01X26312009Y563517D01*
G01X26300579Y569105D01*
G01X26283561Y569105D01*
G01X26377033Y569105D02*
G01X26377033Y489095D01*
G01X26377033Y546245D02*
G01X26394305Y563517D01*
G01X26405735Y569105D01*
G01X26422753Y569105D01*
G01X26434183Y563517D01*
G01X26440025Y546245D01*
G01X26440025Y489095D01*
G01X26440025Y546245D02*
G01X26457043Y563517D01*
G01X26468473Y569105D01*
G01X26485745Y569105D01*
G01X26497175Y563517D01*
G01X26502763Y546245D01*
G01X26502763Y489095D01*
G01X26678531Y609237D02*
G01X26678531Y489095D01*
G01X26678531Y489095D02*
G01X26747111Y489095D01*
G01X26863443Y569105D02*
G01X26863443Y489095D01*
G01X26863443Y552087D02*
G01X26852013Y563517D01*
G01X26840583Y569105D01*
G01X26823565Y569105D01*
G01X26812135Y563517D01*
G01X26800705Y552087D01*
G01X26794863Y534815D01*
G01X26794863Y523385D01*
G01X26800705Y506367D01*
G01X26812135Y494937D01*
G01X26823565Y489095D01*
G01X26840583Y489095D01*
G01X26852013Y494937D01*
G01X26863443Y506367D01*
G01X26917037Y569105D02*
G01X26951327Y489095D01*
G01X26985617Y569105D02*
G01X26951327Y489095D01*
G01X26939897Y466235D01*
G01X26928467Y454805D01*
G01X26917037Y449217D01*
G01X26911195Y449217D01*
G01X27033369Y534815D02*
G01X27101949Y534815D01*
G01X27101949Y546245D01*
G01X27096361Y557675D01*
G01X27090519Y563517D01*
G01X27079089Y569105D01*
G01X27062071Y569105D01*
G01X27050641Y563517D01*
G01X27039211Y552087D01*
G01X27033369Y534815D01*
G01X27033369Y523385D01*
G01X27039211Y506367D01*
G01X27050641Y494937D01*
G01X27062071Y489095D01*
G01X27079089Y489095D01*
G01X27090519Y494937D01*
G01X27101949Y506367D01*
G01X27149701Y569105D02*
G01X27149701Y489095D01*
G01X27149701Y534815D02*
G01X27155543Y552087D01*
G01X27166973Y563517D01*
G01X27178403Y569105D01*
G01X27195421Y569105D01*
G01X12876824Y28666D02*
G01X12819674Y-51344D01*
G01X12905526Y-51344D01*
G01X12876824Y28666D02*
G01X12876824Y-91476D01*
G01X13010428Y28666D02*
G01X12953278Y-51344D01*
G01X13039130Y-51344D01*
G01X13010428Y28666D02*
G01X13010428Y-91476D01*
G01X14290987Y28666D02*
G01X14233837Y-51344D01*
G01X14319689Y-51344D01*
G01X14290987Y28666D02*
G01X14290987Y-91476D01*
G01X14447451Y28666D02*
G01X14390301Y-91476D01*
G01X14367441Y28666D02*
G01X14447451Y28666D01*
G01X14501045Y-62774D02*
G01X14495203Y-68616D01*
G01X14501045Y-74204D01*
G01X14506633Y-68616D01*
G01X14501045Y-62774D01*
G01X14560227Y-36D02*
G01X14560227Y5806D01*
G01X14565815Y17236D01*
G01X14571657Y22824D01*
G01X14583087Y28666D01*
G01X14605947Y28666D01*
G01X14617377Y22824D01*
G01X14622965Y17236D01*
G01X14628807Y5806D01*
G01X14628807Y-5624D01*
G01X14622965Y-17054D01*
G01X14611535Y-34326D01*
G01X14554385Y-91476D01*
G01X14634395Y-91476D01*
G01X14682147Y-11466D02*
G01X14745139Y-91476D01*
G01X14745139Y-11466D02*
G01X14682147Y-91476D01*
G01X14850041Y28666D02*
G01X14792891Y-51344D01*
G01X14878743Y-51344D01*
G01X14850041Y28666D02*
G01X14850041Y-91476D01*
G01X15006505Y28666D02*
G01X14949355Y-91476D01*
G01X14926495Y28666D02*
G01X15006505Y28666D01*
G01X15060099Y-62774D02*
G01X15054257Y-68616D01*
G01X15060099Y-74204D01*
G01X15065687Y-68616D01*
G01X15060099Y-62774D01*
G01X15119281Y-36D02*
G01X15119281Y5806D01*
G01X15124869Y17236D01*
G01X15130711Y22824D01*
G01X15142141Y28666D01*
G01X15165001Y28666D01*
G01X15176431Y22824D01*
G01X15182019Y17236D01*
G01X15187861Y5806D01*
G01X15187861Y-5624D01*
G01X15182019Y-17054D01*
G01X15170589Y-34326D01*
G01X15113439Y-91476D01*
G01X15193449Y-91476D01*
G01X15241201Y-11466D02*
G01X15241201Y-91476D01*
G01X15241201Y-34326D02*
G01X15258473Y-17054D01*
G01X15269903Y-11466D01*
G01X15286921Y-11466D01*
G01X15298351Y-17054D01*
G01X15304193Y-34326D01*
G01X15304193Y-91476D01*
G01X15304193Y-34326D02*
G01X15321211Y-17054D01*
G01X15332641Y-11466D01*
G01X15349913Y-11466D01*
G01X15361343Y-17054D01*
G01X15366931Y-34326D01*
G01X15366931Y-91476D01*
G01X15414683Y28666D02*
G01X15420525Y22824D01*
G01X15426113Y28666D01*
G01X15420525Y34254D01*
G01X15414683Y28666D01*
G01X15420525Y-11466D02*
G01X15420525Y-91476D01*
G01X15473865Y28666D02*
G01X15473865Y-91476D01*
G01X15561749Y51526D02*
G01X15550319Y40096D01*
G01X15538889Y22824D01*
G01X15527459Y-36D01*
G01X15521617Y-28484D01*
G01X15521617Y-51344D01*
G01X15527459Y-80046D01*
G01X15538889Y-102906D01*
G01X15550319Y-119924D01*
G01X15561749Y-131354D01*
G01X15609501Y5806D02*
G01X15620931Y11394D01*
G01X15638203Y28666D01*
G01X15638203Y-91476D01*
G01X15691797Y-62774D02*
G01X15685955Y-68616D01*
G01X15691797Y-74204D01*
G01X15697385Y-68616D01*
G01X15691797Y-62774D01*
G01X15750979Y-36D02*
G01X15750979Y5806D01*
G01X15756567Y17236D01*
G01X15762409Y22824D01*
G01X15773839Y28666D01*
G01X15796699Y28666D01*
G01X15808129Y22824D01*
G01X15813717Y17236D01*
G01X15819559Y5806D01*
G01X15819559Y-5624D01*
G01X15813717Y-17054D01*
G01X15802287Y-34326D01*
G01X15745137Y-91476D01*
G01X15825147Y-91476D01*
G01X15907189Y28666D02*
G01X15890171Y22824D01*
G01X15878741Y5806D01*
G01X15872899Y-22896D01*
G01X15872899Y-39914D01*
G01X15878741Y-68616D01*
G01X15890171Y-85634D01*
G01X15907189Y-91476D01*
G01X15918619Y-91476D01*
G01X15935891Y-85634D01*
G01X15947321Y-68616D01*
G01X15952909Y-39914D01*
G01X15952909Y-22896D01*
G01X15947321Y5806D01*
G01X15935891Y22824D01*
G01X15918619Y28666D01*
G01X15907189Y28666D01*
G01X16034951Y28666D02*
G01X16017933Y22824D01*
G01X16006503Y5806D01*
G01X16000661Y-22896D01*
G01X16000661Y-39914D01*
G01X16006503Y-68616D01*
G01X16017933Y-85634D01*
G01X16034951Y-91476D01*
G01X16046381Y-91476D01*
G01X16063653Y-85634D01*
G01X16075083Y-68616D01*
G01X16080671Y-39914D01*
G01X16080671Y-22896D01*
G01X16075083Y5806D01*
G01X16063653Y22824D01*
G01X16046381Y28666D01*
G01X16034951Y28666D01*
G01X16128423Y-11466D02*
G01X16191415Y-91476D01*
G01X16191415Y-11466D02*
G01X16128423Y-91476D01*
G01X16239167Y5806D02*
G01X16250597Y11394D01*
G01X16267869Y28666D01*
G01X16267869Y-91476D01*
G01X16321463Y-62774D02*
G01X16315621Y-68616D01*
G01X16321463Y-74204D01*
G01X16327051Y-68616D01*
G01X16321463Y-62774D01*
G01X16380645Y-36D02*
G01X16380645Y5806D01*
G01X16386233Y17236D01*
G01X16392075Y22824D01*
G01X16403505Y28666D01*
G01X16426365Y28666D01*
G01X16437795Y22824D01*
G01X16443383Y17236D01*
G01X16449225Y5806D01*
G01X16449225Y-5624D01*
G01X16443383Y-17054D01*
G01X16431953Y-34326D01*
G01X16374803Y-91476D01*
G01X16454813Y-91476D01*
G01X16536855Y28666D02*
G01X16519837Y22824D01*
G01X16508407Y5806D01*
G01X16502565Y-22896D01*
G01X16502565Y-39914D01*
G01X16508407Y-68616D01*
G01X16519837Y-85634D01*
G01X16536855Y-91476D01*
G01X16548285Y-91476D01*
G01X16565557Y-85634D01*
G01X16576987Y-68616D01*
G01X16582575Y-39914D01*
G01X16582575Y-22896D01*
G01X16576987Y5806D01*
G01X16565557Y22824D01*
G01X16548285Y28666D01*
G01X16536855Y28666D01*
G01X16664617Y28666D02*
G01X16647599Y22824D01*
G01X16636169Y5806D01*
G01X16630327Y-22896D01*
G01X16630327Y-39914D01*
G01X16636169Y-68616D01*
G01X16647599Y-85634D01*
G01X16664617Y-91476D01*
G01X16676047Y-91476D01*
G01X16693319Y-85634D01*
G01X16704749Y-68616D01*
G01X16710337Y-39914D01*
G01X16710337Y-22896D01*
G01X16704749Y5806D01*
G01X16693319Y22824D01*
G01X16676047Y28666D01*
G01X16664617Y28666D01*
G01X16758089Y-11466D02*
G01X16758089Y-91476D01*
G01X16758089Y-34326D02*
G01X16775361Y-17054D01*
G01X16786791Y-11466D01*
G01X16803809Y-11466D01*
G01X16815239Y-17054D01*
G01X16821081Y-34326D01*
G01X16821081Y-91476D01*
G01X16821081Y-34326D02*
G01X16838099Y-17054D01*
G01X16849529Y-11466D01*
G01X16866801Y-11466D01*
G01X16878231Y-17054D01*
G01X16883819Y-34326D01*
G01X16883819Y-91476D01*
G01X16931571Y-11466D02*
G01X16931571Y-91476D01*
G01X16931571Y-34326D02*
G01X16948843Y-17054D01*
G01X16960273Y-11466D01*
G01X16977291Y-11466D01*
G01X16988721Y-17054D01*
G01X16994563Y-34326D01*
G01X16994563Y-91476D01*
G01X16994563Y-34326D02*
G01X17011581Y-17054D01*
G01X17023011Y-11466D01*
G01X17040283Y-11466D01*
G01X17051713Y-17054D01*
G01X17057301Y-34326D01*
G01X17057301Y-91476D01*
G01X17105053Y51526D02*
G01X17116483Y40096D01*
G01X17127913Y22824D01*
G01X17139343Y-36D01*
G01X17145185Y-28484D01*
G01X17145185Y-51344D01*
G01X17139343Y-80046D01*
G01X17127913Y-102906D01*
G01X17116483Y-119924D01*
G01X17105053Y-131354D01*
G01X18127295Y28666D02*
G01X18127295Y-91476D01*
G01X18127295Y28666D02*
G01X18178857Y28666D01*
G01X18195875Y22824D01*
G01X18201717Y17236D01*
G01X18207305Y5806D01*
G01X18207305Y-11466D01*
G01X18201717Y-22896D01*
G01X18195875Y-28484D01*
G01X18178857Y-34326D01*
G01X18127295Y-34326D01*
G01X18295189Y28666D02*
G01X18295189Y-91476D01*
G01X18255057Y28666D02*
G01X18335067Y28666D01*
G01X18382819Y28666D02*
G01X18382819Y-91476D01*
G01X18462829Y28666D02*
G01X18462829Y-91476D01*
G01X18382819Y-28484D02*
G01X18462829Y-28484D01*
G01X19588702Y28666D02*
G01X19588702Y-91476D01*
G01X19588702Y28666D02*
G01X19640264Y28666D01*
G01X19657282Y22824D01*
G01X19663124Y17236D01*
G01X19668712Y5806D01*
G01X19668712Y-5624D01*
G01X19663124Y-17054D01*
G01X19657282Y-22896D01*
G01X19640264Y-28484D01*
G01X19588702Y-28484D01*
G01X19628834Y-28484D02*
G01X19668712Y-91476D01*
G01X19745166Y-11466D02*
G01X19733736Y-17054D01*
G01X19722306Y-28484D01*
G01X19716464Y-45756D01*
G01X19716464Y-57186D01*
G01X19722306Y-74204D01*
G01X19733736Y-85634D01*
G01X19745166Y-91476D01*
G01X19762184Y-91476D01*
G01X19773614Y-85634D01*
G01X19785044Y-74204D01*
G01X19790886Y-57186D01*
G01X19790886Y-45756D01*
G01X19785044Y-28484D01*
G01X19773614Y-17054D01*
G01X19762184Y-11466D01*
G01X19745166Y-11466D01*
G01X19838638Y-11466D02*
G01X19838638Y-68616D01*
G01X19844480Y-85634D01*
G01X19855910Y-91476D01*
G01X19872928Y-91476D01*
G01X19884358Y-85634D01*
G01X19901630Y-68616D01*
G01X19901630Y-11466D02*
G01X19901630Y-91476D01*
G01X19949382Y-11466D02*
G01X19949382Y-91476D01*
G01X19949382Y-34326D02*
G01X19966654Y-17054D01*
G01X19978084Y-11466D01*
G01X19995102Y-11466D01*
G01X20006532Y-17054D01*
G01X20012374Y-34326D01*
G01X20012374Y-91476D01*
G01X20128706Y28666D02*
G01X20128706Y-91476D01*
G01X20128706Y-28484D02*
G01X20117276Y-17054D01*
G01X20105846Y-11466D01*
G01X20088828Y-11466D01*
G01X20077398Y-17054D01*
G01X20065968Y-28484D01*
G01X20060126Y-45756D01*
G01X20060126Y-57186D01*
G01X20065968Y-74204D01*
G01X20077398Y-85634D01*
G01X20088828Y-91476D01*
G01X20105846Y-91476D01*
G01X20117276Y-85634D01*
G01X20128706Y-74204D01*
G01X21019883Y28666D02*
G01X21019883Y-91476D01*
G01X21019883Y28666D02*
G01X21071445Y28666D01*
G01X21088463Y22824D01*
G01X21094305Y17236D01*
G01X21099893Y5806D01*
G01X21099893Y-11466D01*
G01X21094305Y-22896D01*
G01X21088463Y-28484D01*
G01X21071445Y-34326D01*
G01X21019883Y-34326D01*
G01X21216225Y-11466D02*
G01X21216225Y-91476D01*
G01X21216225Y-28484D02*
G01X21204795Y-17054D01*
G01X21193365Y-11466D01*
G01X21176347Y-11466D01*
G01X21164917Y-17054D01*
G01X21153487Y-28484D01*
G01X21147645Y-45756D01*
G01X21147645Y-57186D01*
G01X21153487Y-74204D01*
G01X21164917Y-85634D01*
G01X21176347Y-91476D01*
G01X21193365Y-91476D01*
G01X21204795Y-85634D01*
G01X21216225Y-74204D01*
G01X21332557Y28666D02*
G01X21332557Y-91476D01*
G01X21332557Y-28484D02*
G01X21321127Y-17054D01*
G01X21309697Y-11466D01*
G01X21292679Y-11466D01*
G01X21281249Y-17054D01*
G01X21269819Y-28484D01*
G01X21263977Y-45756D01*
G01X21263977Y-57186D01*
G01X21269819Y-74204D01*
G01X21281249Y-85634D01*
G01X21292679Y-91476D01*
G01X21309697Y-91476D01*
G01X21321127Y-85634D01*
G01X21332557Y-74204D01*
G01X22729194Y51526D02*
G01X22717764Y40096D01*
G01X22706334Y22824D01*
G01X22694904Y-36D01*
G01X22689062Y-28484D01*
G01X22689062Y-51344D01*
G01X22694904Y-80046D01*
G01X22706334Y-102906D01*
G01X22717764Y-119924D01*
G01X22729194Y-131354D01*
G01X22776946Y28666D02*
G01X22776946Y-91476D01*
G01X22776946Y28666D02*
G01X22822666Y-91476D01*
G01X22868386Y28666D02*
G01X22822666Y-91476D01*
G01X22868386Y28666D02*
G01X22868386Y-91476D01*
G01X22916138Y28666D02*
G01X22921980Y22824D01*
G01X22927568Y28666D01*
G01X22921980Y34254D01*
G01X22916138Y28666D01*
G01X22921980Y-11466D02*
G01X22921980Y-91476D01*
G01X22975320Y-11466D02*
G01X23038312Y-91476D01*
G01X23038312Y-11466D02*
G01X22975320Y-91476D01*
G01X23086064Y-45756D02*
G01X23154644Y-45756D01*
G01X23154644Y-34326D01*
G01X23149056Y-22896D01*
G01X23143214Y-17054D01*
G01X23131784Y-11466D01*
G01X23114766Y-11466D01*
G01X23103336Y-17054D01*
G01X23091906Y-28484D01*
G01X23086064Y-45756D01*
G01X23086064Y-57186D01*
G01X23091906Y-74204D01*
G01X23103336Y-85634D01*
G01X23114766Y-91476D01*
G01X23131784Y-91476D01*
G01X23143214Y-85634D01*
G01X23154644Y-74204D01*
G01X23270976Y28666D02*
G01X23270976Y-91476D01*
G01X23270976Y-28484D02*
G01X23259546Y-17054D01*
G01X23248116Y-11466D01*
G01X23231098Y-11466D01*
G01X23219668Y-17054D01*
G01X23208238Y-28484D01*
G01X23202396Y-45756D01*
G01X23202396Y-57186D01*
G01X23208238Y-74204D01*
G01X23219668Y-85634D01*
G01X23231098Y-91476D01*
G01X23248116Y-91476D01*
G01X23259546Y-85634D01*
G01X23270976Y-74204D01*
G01X23318728Y51526D02*
G01X23330158Y40096D01*
G01X23341588Y22824D01*
G01X23353018Y-36D01*
G01X23358860Y-28484D01*
G01X23358860Y-51344D01*
G01X23353018Y-80046D01*
G01X23341588Y-102906D01*
G01X23330158Y-119924D01*
G01X23318728Y-131354D01*
G01X24648563Y28666D02*
G01X24648563Y-91476D01*
G01X24608431Y28666D02*
G01X24688441Y28666D01*
G01X24764895Y-11466D02*
G01X24753465Y-17054D01*
G01X24742035Y-28484D01*
G01X24736193Y-45756D01*
G01X24736193Y-57186D01*
G01X24742035Y-74204D01*
G01X24753465Y-85634D01*
G01X24764895Y-91476D01*
G01X24781913Y-91476D01*
G01X24793343Y-85634D01*
G01X24804773Y-74204D01*
G01X24810615Y-57186D01*
G01X24810615Y-45756D01*
G01X24804773Y-28484D01*
G01X24793343Y-17054D01*
G01X24781913Y-11466D01*
G01X24764895Y-11466D01*
G01X24858367Y-11466D02*
G01X24858367Y-131354D01*
G01X24858367Y-28484D02*
G01X24869797Y-17054D01*
G01X24881227Y-11466D01*
G01X24898499Y-11466D01*
G01X24909929Y-17054D01*
G01X24921359Y-28484D01*
G01X24926947Y-45756D01*
G01X24926947Y-57186D01*
G01X24921359Y-74204D01*
G01X24909929Y-85634D01*
G01X24898499Y-91476D01*
G01X24881227Y-91476D01*
G01X24869797Y-85634D01*
G01X24858367Y-74204D01*
G01X25102715Y28666D02*
G01X25102715Y-91476D01*
G01X25102715Y-91476D02*
G01X25171295Y-91476D01*
G01X25287627Y-11466D02*
G01X25287627Y-91476D01*
G01X25287627Y-28484D02*
G01X25276197Y-17054D01*
G01X25264767Y-11466D01*
G01X25247749Y-11466D01*
G01X25236319Y-17054D01*
G01X25224889Y-28484D01*
G01X25219047Y-45756D01*
G01X25219047Y-57186D01*
G01X25224889Y-74204D01*
G01X25236319Y-85634D01*
G01X25247749Y-91476D01*
G01X25264767Y-91476D01*
G01X25276197Y-85634D01*
G01X25287627Y-74204D01*
G01X25341221Y-11466D02*
G01X25375511Y-91476D01*
G01X25409801Y-11466D02*
G01X25375511Y-91476D01*
G01X25364081Y-114336D01*
G01X25352651Y-125766D01*
G01X25341221Y-131354D01*
G01X25335379Y-131354D01*
G01X25457553Y-45756D02*
G01X25526133Y-45756D01*
G01X25526133Y-34326D01*
G01X25520545Y-22896D01*
G01X25514703Y-17054D01*
G01X25503273Y-11466D01*
G01X25486255Y-11466D01*
G01X25474825Y-17054D01*
G01X25463395Y-28484D01*
G01X25457553Y-45756D01*
G01X25457553Y-57186D01*
G01X25463395Y-74204D01*
G01X25474825Y-85634D01*
G01X25486255Y-91476D01*
G01X25503273Y-91476D01*
G01X25514703Y-85634D01*
G01X25526133Y-74204D01*
G01X25573885Y-11466D02*
G01X25573885Y-91476D01*
G01X25573885Y-45756D02*
G01X25579727Y-28484D01*
G01X25591157Y-17054D01*
G01X25602587Y-11466D01*
G01X25619605Y-11466D01*
G01X25667357Y-39914D02*
G01X25770227Y-39914D01*
G01X25817979Y28666D02*
G01X25817979Y-91476D01*
G01X25817979Y28666D02*
G01X25869541Y28666D01*
G01X25886559Y22824D01*
G01X25892401Y17236D01*
G01X25897989Y5806D01*
G01X25897989Y-5624D01*
G01X25892401Y-17054D01*
G01X25886559Y-22896D01*
G01X25869541Y-28484D01*
G01X25817979Y-28484D02*
G01X25869541Y-28484D01*
G01X25886559Y-34326D01*
G01X25892401Y-39914D01*
G01X25897989Y-51344D01*
G01X25897989Y-68616D01*
G01X25892401Y-80046D01*
G01X25886559Y-85634D01*
G01X25869541Y-91476D01*
G01X25817979Y-91476D01*
G01X25974443Y-11466D02*
G01X25963013Y-17054D01*
G01X25951583Y-28484D01*
G01X25945741Y-45756D01*
G01X25945741Y-57186D01*
G01X25951583Y-74204D01*
G01X25963013Y-85634D01*
G01X25974443Y-91476D01*
G01X25991461Y-91476D01*
G01X26002891Y-85634D01*
G01X26014321Y-74204D01*
G01X26020163Y-57186D01*
G01X26020163Y-45756D01*
G01X26014321Y-28484D01*
G01X26002891Y-17054D01*
G01X25991461Y-11466D01*
G01X25974443Y-11466D01*
G01X26085187Y28666D02*
G01X26085187Y-68616D01*
G01X26090775Y-85634D01*
G01X26102205Y-91476D01*
G01X26113635Y-91476D01*
G01X26067915Y-11466D02*
G01X26108047Y-11466D01*
G01X26178659Y28666D02*
G01X26178659Y-68616D01*
G01X26184247Y-85634D01*
G01X26195677Y-91476D01*
G01X26207107Y-91476D01*
G01X26161387Y-11466D02*
G01X26201519Y-11466D01*
G01X26283561Y-11466D02*
G01X26272131Y-17054D01*
G01X26260701Y-28484D01*
G01X26254859Y-45756D01*
G01X26254859Y-57186D01*
G01X26260701Y-74204D01*
G01X26272131Y-85634D01*
G01X26283561Y-91476D01*
G01X26300579Y-91476D01*
G01X26312009Y-85634D01*
G01X26323439Y-74204D01*
G01X26329281Y-57186D01*
G01X26329281Y-45756D01*
G01X26323439Y-28484D01*
G01X26312009Y-17054D01*
G01X26300579Y-11466D01*
G01X26283561Y-11466D01*
G01X26377033Y-11466D02*
G01X26377033Y-91476D01*
G01X26377033Y-34326D02*
G01X26394305Y-17054D01*
G01X26405735Y-11466D01*
G01X26422753Y-11466D01*
G01X26434183Y-17054D01*
G01X26440025Y-34326D01*
G01X26440025Y-91476D01*
G01X26440025Y-34326D02*
G01X26457043Y-17054D01*
G01X26468473Y-11466D01*
G01X26485745Y-11466D01*
G01X26497175Y-17054D01*
G01X26502763Y-34326D01*
G01X26502763Y-91476D01*
G01X26678531Y28666D02*
G01X26678531Y-91476D01*
G01X26678531Y-91476D02*
G01X26747111Y-91476D01*
G01X26863443Y-11466D02*
G01X26863443Y-91476D01*
G01X26863443Y-28484D02*
G01X26852013Y-17054D01*
G01X26840583Y-11466D01*
G01X26823565Y-11466D01*
G01X26812135Y-17054D01*
G01X26800705Y-28484D01*
G01X26794863Y-45756D01*
G01X26794863Y-57186D01*
G01X26800705Y-74204D01*
G01X26812135Y-85634D01*
G01X26823565Y-91476D01*
G01X26840583Y-91476D01*
G01X26852013Y-85634D01*
G01X26863443Y-74204D01*
G01X26917037Y-11466D02*
G01X26951327Y-91476D01*
G01X26985617Y-11466D02*
G01X26951327Y-91476D01*
G01X26939897Y-114336D01*
G01X26928467Y-125766D01*
G01X26917037Y-131354D01*
G01X26911195Y-131354D01*
G01X27033369Y-45756D02*
G01X27101949Y-45756D01*
G01X27101949Y-34326D01*
G01X27096361Y-22896D01*
G01X27090519Y-17054D01*
G01X27079089Y-11466D01*
G01X27062071Y-11466D01*
G01X27050641Y-17054D01*
G01X27039211Y-28484D01*
G01X27033369Y-45756D01*
G01X27033369Y-57186D01*
G01X27039211Y-74204D01*
G01X27050641Y-85634D01*
G01X27062071Y-91476D01*
G01X27079089Y-91476D01*
G01X27090519Y-85634D01*
G01X27101949Y-74204D01*
G01X27149701Y-11466D02*
G01X27149701Y-91476D01*
G01X27149701Y-45756D02*
G01X27155543Y-28484D01*
G01X27166973Y-17054D01*
G01X27178403Y-11466D01*
G01X27195421Y-11466D01*
G01X12888254Y-551906D02*
G01X12831104Y-551906D01*
G01X12825516Y-603468D01*
G01X12831104Y-597626D01*
G01X12848376Y-592038D01*
G01X12865394Y-592038D01*
G01X12882666Y-597626D01*
G01X12894096Y-609056D01*
G01X12899684Y-626328D01*
G01X12899684Y-637758D01*
G01X12894096Y-654776D01*
G01X12882666Y-666206D01*
G01X12865394Y-672048D01*
G01X12848376Y-672048D01*
G01X12831104Y-666206D01*
G01X12825516Y-660618D01*
G01X12819674Y-649188D01*
G01X12947436Y-574766D02*
G01X12958866Y-569178D01*
G01X12976138Y-551906D01*
G01X12976138Y-672048D01*
G01X14233837Y-574766D02*
G01X14245267Y-569178D01*
G01X14262539Y-551906D01*
G01X14262539Y-672048D01*
G01X14316133Y-580608D02*
G01X14316133Y-574766D01*
G01X14321721Y-563336D01*
G01X14327563Y-557748D01*
G01X14338993Y-551906D01*
G01X14361853Y-551906D01*
G01X14373283Y-557748D01*
G01X14378871Y-563336D01*
G01X14384713Y-574766D01*
G01X14384713Y-586196D01*
G01X14378871Y-597626D01*
G01X14367441Y-614898D01*
G01X14310291Y-672048D01*
G01X14390301Y-672048D01*
G01X14443895Y-643346D02*
G01X14438053Y-649188D01*
G01X14443895Y-654776D01*
G01X14449483Y-649188D01*
G01X14443895Y-643346D01*
G01X14531525Y-551906D02*
G01X14514507Y-557748D01*
G01X14503077Y-574766D01*
G01X14497235Y-603468D01*
G01X14497235Y-620486D01*
G01X14503077Y-649188D01*
G01X14514507Y-666206D01*
G01X14531525Y-672048D01*
G01X14542955Y-672048D01*
G01X14560227Y-666206D01*
G01X14571657Y-649188D01*
G01X14577245Y-620486D01*
G01X14577245Y-603468D01*
G01X14571657Y-574766D01*
G01X14560227Y-557748D01*
G01X14542955Y-551906D01*
G01X14531525Y-551906D01*
G01X14624997Y-592038D02*
G01X14624997Y-672048D01*
G01X14624997Y-614898D02*
G01X14642269Y-597626D01*
G01X14653699Y-592038D01*
G01X14670717Y-592038D01*
G01X14682147Y-597626D01*
G01X14687989Y-614898D01*
G01X14687989Y-672048D01*
G01X14687989Y-614898D02*
G01X14705007Y-597626D01*
G01X14716437Y-592038D01*
G01X14733709Y-592038D01*
G01X14745139Y-597626D01*
G01X14750727Y-614898D01*
G01X14750727Y-672048D01*
G01X14798479Y-551906D02*
G01X14804321Y-557748D01*
G01X14809909Y-551906D01*
G01X14804321Y-546318D01*
G01X14798479Y-551906D01*
G01X14804321Y-592038D02*
G01X14804321Y-672048D01*
G01X14857661Y-551906D02*
G01X14857661Y-672048D01*
G01X14945545Y-529046D02*
G01X14934115Y-540476D01*
G01X14922685Y-557748D01*
G01X14911255Y-580608D01*
G01X14905413Y-609056D01*
G01X14905413Y-631916D01*
G01X14911255Y-660618D01*
G01X14922685Y-683478D01*
G01X14934115Y-700496D01*
G01X14945545Y-711926D01*
G01X15027587Y-551906D02*
G01X15010569Y-557748D01*
G01X14999139Y-574766D01*
G01X14993297Y-603468D01*
G01X14993297Y-620486D01*
G01X14999139Y-649188D01*
G01X15010569Y-666206D01*
G01X15027587Y-672048D01*
G01X15039017Y-672048D01*
G01X15056289Y-666206D01*
G01X15067719Y-649188D01*
G01X15073307Y-620486D01*
G01X15073307Y-603468D01*
G01X15067719Y-574766D01*
G01X15056289Y-557748D01*
G01X15039017Y-551906D01*
G01X15027587Y-551906D01*
G01X15126901Y-643346D02*
G01X15121059Y-649188D01*
G01X15126901Y-654776D01*
G01X15132489Y-649188D01*
G01X15126901Y-643346D01*
G01X15191671Y-551906D02*
G01X15254663Y-551906D01*
G01X15220373Y-597626D01*
G01X15237391Y-597626D01*
G01X15248821Y-603468D01*
G01X15254663Y-609056D01*
G01X15260251Y-626328D01*
G01X15260251Y-637758D01*
G01X15254663Y-654776D01*
G01X15243233Y-666206D01*
G01X15225961Y-672048D01*
G01X15208943Y-672048D01*
G01X15191671Y-666206D01*
G01X15186083Y-660618D01*
G01X15180241Y-649188D01*
G01X15342293Y-551906D02*
G01X15325275Y-557748D01*
G01X15313845Y-574766D01*
G01X15308003Y-603468D01*
G01X15308003Y-620486D01*
G01X15313845Y-649188D01*
G01X15325275Y-666206D01*
G01X15342293Y-672048D01*
G01X15353723Y-672048D01*
G01X15370995Y-666206D01*
G01X15382425Y-649188D01*
G01X15388013Y-620486D01*
G01X15388013Y-603468D01*
G01X15382425Y-574766D01*
G01X15370995Y-557748D01*
G01X15353723Y-551906D01*
G01X15342293Y-551906D01*
G01X15504345Y-551906D02*
G01X15447195Y-551906D01*
G01X15441607Y-603468D01*
G01X15447195Y-597626D01*
G01X15464467Y-592038D01*
G01X15481485Y-592038D01*
G01X15498757Y-597626D01*
G01X15510187Y-609056D01*
G01X15515775Y-626328D01*
G01X15515775Y-637758D01*
G01X15510187Y-654776D01*
G01X15498757Y-666206D01*
G01X15481485Y-672048D01*
G01X15464467Y-672048D01*
G01X15447195Y-666206D01*
G01X15441607Y-660618D01*
G01X15435765Y-649188D01*
G01X15563527Y-592038D02*
G01X15563527Y-672048D01*
G01X15563527Y-614898D02*
G01X15580799Y-597626D01*
G01X15592229Y-592038D01*
G01X15609247Y-592038D01*
G01X15620677Y-597626D01*
G01X15626519Y-614898D01*
G01X15626519Y-672048D01*
G01X15626519Y-614898D02*
G01X15643537Y-597626D01*
G01X15654967Y-592038D01*
G01X15672239Y-592038D01*
G01X15683669Y-597626D01*
G01X15689257Y-614898D01*
G01X15689257Y-672048D01*
G01X15737009Y-592038D02*
G01X15737009Y-672048D01*
G01X15737009Y-614898D02*
G01X15754281Y-597626D01*
G01X15765711Y-592038D01*
G01X15782729Y-592038D01*
G01X15794159Y-597626D01*
G01X15800001Y-614898D01*
G01X15800001Y-672048D01*
G01X15800001Y-614898D02*
G01X15817019Y-597626D01*
G01X15828449Y-592038D01*
G01X15845721Y-592038D01*
G01X15857151Y-597626D01*
G01X15862739Y-614898D01*
G01X15862739Y-672048D01*
G01X15910491Y-529046D02*
G01X15921921Y-540476D01*
G01X15933351Y-557748D01*
G01X15944781Y-580608D01*
G01X15950623Y-609056D01*
G01X15950623Y-631916D01*
G01X15944781Y-660618D01*
G01X15933351Y-683478D01*
G01X15921921Y-700496D01*
G01X15910491Y-711926D01*
G01X18127295Y-551906D02*
G01X18127295Y-672048D01*
G01X18127295Y-551906D02*
G01X18178857Y-551906D01*
G01X18195875Y-557748D01*
G01X18201717Y-563336D01*
G01X18207305Y-574766D01*
G01X18207305Y-592038D01*
G01X18201717Y-603468D01*
G01X18195875Y-609056D01*
G01X18178857Y-614898D01*
G01X18127295Y-614898D01*
G01X18295189Y-551906D02*
G01X18295189Y-672048D01*
G01X18255057Y-551906D02*
G01X18335067Y-551906D01*
G01X18382819Y-551906D02*
G01X18382819Y-672048D01*
G01X18462829Y-551906D02*
G01X18462829Y-672048D01*
G01X18382819Y-609056D02*
G01X18462829Y-609056D01*
G01X19588702Y-551906D02*
G01X19588702Y-672048D01*
G01X19588702Y-551906D02*
G01X19640264Y-551906D01*
G01X19657282Y-557748D01*
G01X19663124Y-563336D01*
G01X19668712Y-574766D01*
G01X19668712Y-586196D01*
G01X19663124Y-597626D01*
G01X19657282Y-603468D01*
G01X19640264Y-609056D01*
G01X19588702Y-609056D01*
G01X19628834Y-609056D02*
G01X19668712Y-672048D01*
G01X19745166Y-592038D02*
G01X19733736Y-597626D01*
G01X19722306Y-609056D01*
G01X19716464Y-626328D01*
G01X19716464Y-637758D01*
G01X19722306Y-654776D01*
G01X19733736Y-666206D01*
G01X19745166Y-672048D01*
G01X19762184Y-672048D01*
G01X19773614Y-666206D01*
G01X19785044Y-654776D01*
G01X19790886Y-637758D01*
G01X19790886Y-626328D01*
G01X19785044Y-609056D01*
G01X19773614Y-597626D01*
G01X19762184Y-592038D01*
G01X19745166Y-592038D01*
G01X19838638Y-592038D02*
G01X19838638Y-649188D01*
G01X19844480Y-666206D01*
G01X19855910Y-672048D01*
G01X19872928Y-672048D01*
G01X19884358Y-666206D01*
G01X19901630Y-649188D01*
G01X19901630Y-592038D02*
G01X19901630Y-672048D01*
G01X19949382Y-592038D02*
G01X19949382Y-672048D01*
G01X19949382Y-614898D02*
G01X19966654Y-597626D01*
G01X19978084Y-592038D01*
G01X19995102Y-592038D01*
G01X20006532Y-597626D01*
G01X20012374Y-614898D01*
G01X20012374Y-672048D01*
G01X20128706Y-551906D02*
G01X20128706Y-672048D01*
G01X20128706Y-609056D02*
G01X20117276Y-597626D01*
G01X20105846Y-592038D01*
G01X20088828Y-592038D01*
G01X20077398Y-597626D01*
G01X20065968Y-609056D01*
G01X20060126Y-626328D01*
G01X20060126Y-637758D01*
G01X20065968Y-654776D01*
G01X20077398Y-666206D01*
G01X20088828Y-672048D01*
G01X20105846Y-672048D01*
G01X20117276Y-666206D01*
G01X20128706Y-654776D01*
G01X21019883Y-551906D02*
G01X21065603Y-672048D01*
G01X21111323Y-551906D02*
G01X21065603Y-672048D01*
G01X21159075Y-551906D02*
G01X21164917Y-557748D01*
G01X21170505Y-551906D01*
G01X21164917Y-546318D01*
G01X21159075Y-551906D01*
G01X21164917Y-592038D02*
G01X21164917Y-672048D01*
G01X21286837Y-592038D02*
G01X21286837Y-672048D01*
G01X21286837Y-609056D02*
G01X21275407Y-597626D01*
G01X21263977Y-592038D01*
G01X21246959Y-592038D01*
G01X21235529Y-597626D01*
G01X21224099Y-609056D01*
G01X21218257Y-626328D01*
G01X21218257Y-637758D01*
G01X21224099Y-654776D01*
G01X21235529Y-666206D01*
G01X21246959Y-672048D01*
G01X21263977Y-672048D01*
G01X21275407Y-666206D01*
G01X21286837Y-654776D01*
G01X24648563Y-551906D02*
G01X24648563Y-672048D01*
G01X24608431Y-551906D02*
G01X24688441Y-551906D01*
G01X24764895Y-592038D02*
G01X24753465Y-597626D01*
G01X24742035Y-609056D01*
G01X24736193Y-626328D01*
G01X24736193Y-637758D01*
G01X24742035Y-654776D01*
G01X24753465Y-666206D01*
G01X24764895Y-672048D01*
G01X24781913Y-672048D01*
G01X24793343Y-666206D01*
G01X24804773Y-654776D01*
G01X24810615Y-637758D01*
G01X24810615Y-626328D01*
G01X24804773Y-609056D01*
G01X24793343Y-597626D01*
G01X24781913Y-592038D01*
G01X24764895Y-592038D01*
G01X24858367Y-592038D02*
G01X24858367Y-711926D01*
G01X24858367Y-609056D02*
G01X24869797Y-597626D01*
G01X24881227Y-592038D01*
G01X24898499Y-592038D01*
G01X24909929Y-597626D01*
G01X24921359Y-609056D01*
G01X24926947Y-626328D01*
G01X24926947Y-637758D01*
G01X24921359Y-654776D01*
G01X24909929Y-666206D01*
G01X24898499Y-672048D01*
G01X24881227Y-672048D01*
G01X24869797Y-666206D01*
G01X24858367Y-654776D01*
G01X25102715Y-551906D02*
G01X25102715Y-672048D01*
G01X25102715Y-672048D02*
G01X25171295Y-672048D01*
G01X25287627Y-592038D02*
G01X25287627Y-672048D01*
G01X25287627Y-609056D02*
G01X25276197Y-597626D01*
G01X25264767Y-592038D01*
G01X25247749Y-592038D01*
G01X25236319Y-597626D01*
G01X25224889Y-609056D01*
G01X25219047Y-626328D01*
G01X25219047Y-637758D01*
G01X25224889Y-654776D01*
G01X25236319Y-666206D01*
G01X25247749Y-672048D01*
G01X25264767Y-672048D01*
G01X25276197Y-666206D01*
G01X25287627Y-654776D01*
G01X25341221Y-592038D02*
G01X25375511Y-672048D01*
G01X25409801Y-592038D02*
G01X25375511Y-672048D01*
G01X25364081Y-694908D01*
G01X25352651Y-706338D01*
G01X25341221Y-711926D01*
G01X25335379Y-711926D01*
G01X25457553Y-626328D02*
G01X25526133Y-626328D01*
G01X25526133Y-614898D01*
G01X25520545Y-603468D01*
G01X25514703Y-597626D01*
G01X25503273Y-592038D01*
G01X25486255Y-592038D01*
G01X25474825Y-597626D01*
G01X25463395Y-609056D01*
G01X25457553Y-626328D01*
G01X25457553Y-637758D01*
G01X25463395Y-654776D01*
G01X25474825Y-666206D01*
G01X25486255Y-672048D01*
G01X25503273Y-672048D01*
G01X25514703Y-666206D01*
G01X25526133Y-654776D01*
G01X25573885Y-592038D02*
G01X25573885Y-672048D01*
G01X25573885Y-626328D02*
G01X25579727Y-609056D01*
G01X25591157Y-597626D01*
G01X25602587Y-592038D01*
G01X25619605Y-592038D01*
G01X25667357Y-620486D02*
G01X25770227Y-620486D01*
G01X25817979Y-551906D02*
G01X25817979Y-672048D01*
G01X25817979Y-551906D02*
G01X25869541Y-551906D01*
G01X25886559Y-557748D01*
G01X25892401Y-563336D01*
G01X25897989Y-574766D01*
G01X25897989Y-586196D01*
G01X25892401Y-597626D01*
G01X25886559Y-603468D01*
G01X25869541Y-609056D01*
G01X25817979Y-609056D02*
G01X25869541Y-609056D01*
G01X25886559Y-614898D01*
G01X25892401Y-620486D01*
G01X25897989Y-631916D01*
G01X25897989Y-649188D01*
G01X25892401Y-660618D01*
G01X25886559Y-666206D01*
G01X25869541Y-672048D01*
G01X25817979Y-672048D01*
G01X25974443Y-592038D02*
G01X25963013Y-597626D01*
G01X25951583Y-609056D01*
G01X25945741Y-626328D01*
G01X25945741Y-637758D01*
G01X25951583Y-654776D01*
G01X25963013Y-666206D01*
G01X25974443Y-672048D01*
G01X25991461Y-672048D01*
G01X26002891Y-666206D01*
G01X26014321Y-654776D01*
G01X26020163Y-637758D01*
G01X26020163Y-626328D01*
G01X26014321Y-609056D01*
G01X26002891Y-597626D01*
G01X25991461Y-592038D01*
G01X25974443Y-592038D01*
G01X26085187Y-551906D02*
G01X26085187Y-649188D01*
G01X26090775Y-666206D01*
G01X26102205Y-672048D01*
G01X26113635Y-672048D01*
G01X26067915Y-592038D02*
G01X26108047Y-592038D01*
G01X26178659Y-551906D02*
G01X26178659Y-649188D01*
G01X26184247Y-666206D01*
G01X26195677Y-672048D01*
G01X26207107Y-672048D01*
G01X26161387Y-592038D02*
G01X26201519Y-592038D01*
G01X26283561Y-592038D02*
G01X26272131Y-597626D01*
G01X26260701Y-609056D01*
G01X26254859Y-626328D01*
G01X26254859Y-637758D01*
G01X26260701Y-654776D01*
G01X26272131Y-666206D01*
G01X26283561Y-672048D01*
G01X26300579Y-672048D01*
G01X26312009Y-666206D01*
G01X26323439Y-654776D01*
G01X26329281Y-637758D01*
G01X26329281Y-626328D01*
G01X26323439Y-609056D01*
G01X26312009Y-597626D01*
G01X26300579Y-592038D01*
G01X26283561Y-592038D01*
G01X26377033Y-592038D02*
G01X26377033Y-672048D01*
G01X26377033Y-614898D02*
G01X26394305Y-597626D01*
G01X26405735Y-592038D01*
G01X26422753Y-592038D01*
G01X26434183Y-597626D01*
G01X26440025Y-614898D01*
G01X26440025Y-672048D01*
G01X26440025Y-614898D02*
G01X26457043Y-597626D01*
G01X26468473Y-592038D01*
G01X26485745Y-592038D01*
G01X26497175Y-597626D01*
G01X26502763Y-614898D01*
G01X26502763Y-672048D01*
G01X26678531Y-551906D02*
G01X26678531Y-672048D01*
G01X26678531Y-672048D02*
G01X26747111Y-672048D01*
G01X26863443Y-592038D02*
G01X26863443Y-672048D01*
G01X26863443Y-609056D02*
G01X26852013Y-597626D01*
G01X26840583Y-592038D01*
G01X26823565Y-592038D01*
G01X26812135Y-597626D01*
G01X26800705Y-609056D01*
G01X26794863Y-626328D01*
G01X26794863Y-637758D01*
G01X26800705Y-654776D01*
G01X26812135Y-666206D01*
G01X26823565Y-672048D01*
G01X26840583Y-672048D01*
G01X26852013Y-666206D01*
G01X26863443Y-654776D01*
G01X26917037Y-592038D02*
G01X26951327Y-672048D01*
G01X26985617Y-592038D02*
G01X26951327Y-672048D01*
G01X26939897Y-694908D01*
G01X26928467Y-706338D01*
G01X26917037Y-711926D01*
G01X26911195Y-711926D01*
G01X27033369Y-626328D02*
G01X27101949Y-626328D01*
G01X27101949Y-614898D01*
G01X27096361Y-603468D01*
G01X27090519Y-597626D01*
G01X27079089Y-592038D01*
G01X27062071Y-592038D01*
G01X27050641Y-597626D01*
G01X27039211Y-609056D01*
G01X27033369Y-626328D01*
G01X27033369Y-637758D01*
G01X27039211Y-654776D01*
G01X27050641Y-666206D01*
G01X27062071Y-672048D01*
G01X27079089Y-672048D01*
G01X27090519Y-666206D01*
G01X27101949Y-654776D01*
G01X27149701Y-592038D02*
G01X27149701Y-672048D01*
G01X27149701Y-626328D02*
G01X27155543Y-609056D01*
G01X27166973Y-597626D01*
G01X27178403Y-592038D01*
G01X27195421Y-592038D01*

G04 Image Start*
G36*
G01X11655063Y1009196D02*
G01X11549449Y1020677D01*
G01X11506574Y923471D01*
G01X11463699Y1020677D01*
G01X11358086Y1009196D01*
G01X11420849Y1094921D01*
G01X11381127Y1149176D01*
G01X11412620Y1149176D01*
G01X11452320Y1094921D01*
G01X11412620Y1040667D01*
G01X11479447Y1047931D01*
G01X11479447Y1047931D01*
G01X11506574Y986438D01*
G01X11533701Y1047931D01*
G01X11600529Y1040667D01*
G01X11560829Y1094921D01*
G01X11600503Y1149150D01*
G01X11533676Y1141886D01*
G01X11506574Y1203405D01*
G01X11479447Y1141911D01*
G01X11412620Y1149176D01*
G01X11381127Y1149176D01*
G01X11358086Y1180646D01*
G01X11463724Y1169166D01*
G01X11506574Y1266371D01*
G01X11549449Y1169166D01*
G01X11655063Y1180646D01*
G01X11592299Y1094921D01*
G01X11655063Y1009196D01*
G37*
G36*
G01X11526069Y2123501D02*
G01X11518329Y2122913D01*
G01X11510486Y2122714D01*
G01X11502643Y2122913D01*
G01X11494902Y2123501D01*
G01X11487275Y2124470D01*
G01X11479770Y2125810D01*
G01X11465164Y2129565D01*
G01X11451162Y2134690D01*
G01X11437840Y2141107D01*
G01X11425274Y2148740D01*
G01X11413542Y2157513D01*
G01X11402720Y2167348D01*
G01X11392884Y2178171D01*
G01X11384111Y2189903D01*
G01X11376478Y2202468D01*
G01X11370061Y2215790D01*
G01X11364937Y2229792D01*
G01X11361182Y2244398D01*
G01X11359842Y2251904D01*
G01X11358872Y2259531D01*
G01X11358284Y2267271D01*
G01X11358086Y2275114D01*
G01X11383486Y2275114D01*
G01X11384143Y2262148D01*
G01X11386070Y2249552D01*
G01X11389205Y2237390D01*
G01X11393482Y2225728D01*
G01X11398837Y2214628D01*
G01X11405205Y2204157D01*
G01X11412523Y2194377D01*
G01X11420725Y2185354D01*
G01X11429749Y2177151D01*
G01X11439528Y2169834D01*
G01X11450000Y2163465D01*
G01X11461099Y2158110D01*
G01X11472762Y2153834D01*
G01X11484923Y2150699D01*
G01X11484923Y2150699D01*
G01X11497519Y2148771D01*
G01X11510486Y2148114D01*
G01X11523452Y2148771D01*
G01X11536048Y2150699D01*
G01X11548210Y2153834D01*
G01X11559872Y2158110D01*
G01X11570972Y2163465D01*
G01X11581443Y2169834D01*
G01X11591223Y2177151D01*
G01X11600246Y2185354D01*
G01X11608449Y2194377D01*
G01X11615766Y2204157D01*
G01X11622135Y2214628D01*
G01X11627490Y2225728D01*
G01X11631766Y2237390D01*
G01X11634901Y2249552D01*
G01X11636829Y2262148D01*
G01X11637486Y2275114D01*
G01X11636829Y2288081D01*
G01X11634901Y2300677D01*
G01X11631766Y2312838D01*
G01X11627490Y2324501D01*
G01X11622135Y2335600D01*
G01X11615766Y2346072D01*
G01X11608449Y2355851D01*
G01X11600246Y2364875D01*
G01X11591223Y2373077D01*
G01X11581443Y2380395D01*
G01X11570972Y2386763D01*
G01X11559872Y2392118D01*
G01X11548210Y2396395D01*
G01X11536048Y2399529D01*
G01X11523452Y2401457D01*
G01X11510486Y2402114D01*
G01X11497519Y2401457D01*
G01X11484923Y2399529D01*
G01X11472762Y2396395D01*
G01X11461099Y2392118D01*
G01X11450000Y2386763D01*
G01X11439528Y2380395D01*
G01X11429749Y2373077D01*
G01X11420725Y2364875D01*
G01X11412523Y2355851D01*
G01X11405205Y2346072D01*
G01X11398837Y2335600D01*
G01X11393482Y2324501D01*
G01X11389205Y2312838D01*
G01X11386070Y2300677D01*
G01X11384143Y2288081D01*
G01X11383486Y2275114D01*
G01X11358086Y2275114D01*
G01X11358284Y2282957D01*
G01X11358872Y2290698D01*
G01X11359842Y2298325D01*
G01X11361182Y2305830D01*
G01X11364937Y2320436D01*
G01X11370061Y2334438D01*
G01X11376478Y2347760D01*
G01X11384111Y2360326D01*
G01X11392884Y2372058D01*
G01X11402720Y2382880D01*
G01X11413542Y2392716D01*
G01X11425274Y2401489D01*
G01X11437840Y2409122D01*
G01X11451162Y2415539D01*
G01X11465164Y2420663D01*
G01X11479770Y2424418D01*
G01X11487275Y2425758D01*
G01X11494902Y2426728D01*
G01X11502643Y2427316D01*
G01X11510486Y2427514D01*
G01X11518329Y2427316D01*
G01X11526069Y2426728D01*
G01X11533696Y2425758D01*
G01X11541202Y2424418D01*
G01X11555808Y2420663D01*
G01X11569810Y2415539D01*
G01X11583132Y2409122D01*
G01X11595697Y2401489D01*
G01X11607429Y2392716D01*
G01X11618252Y2382880D01*
G01X11628087Y2372058D01*
G01X11636860Y2360326D01*
G01X11644493Y2347760D01*
G01X11650910Y2334438D01*
G01X11656035Y2320436D01*
G01X11659790Y2305830D01*
G01X11661130Y2298325D01*
G01X11662099Y2290698D01*
G01X11662687Y2282957D01*
G01X11662886Y2275114D01*
G01X11662687Y2267271D01*
G01X11662099Y2259531D01*
G01X11661130Y2251904D01*
G01X11659790Y2244398D01*
G01X11656035Y2229792D01*
G01X11650910Y2215790D01*
G01X11644493Y2202468D01*
G01X11636860Y2189903D01*
G01X11628087Y2178171D01*
G01X11618252Y2167348D01*
G01X11607429Y2157513D01*
G01X11595697Y2148740D01*
G01X11583132Y2141107D01*
G01X11569810Y2134690D01*
G01X11555808Y2129565D01*
G01X11541202Y2125810D01*
G01X11533696Y2124470D01*
G01X11526069Y2123501D01*
G37*
G36*
G01X11662886Y-116437D02*
G01X11579777Y-116437D01*
G01X11579777Y-199571D01*
G01X11441220Y-199571D01*
G01X11441220Y-116463D01*
G01X11358086Y-116463D01*
G01X11358086Y-3306D01*
G01X11383486Y-3306D01*
G01X11383486Y-91037D01*
G01X11466620Y-91037D01*
G01X11466620Y-174171D01*
G01X11466620Y-174171D01*
G01X11554352Y-174171D01*
G01X11554352Y-91063D01*
G01X11637486Y-91063D01*
G01X11637486Y-3306D01*
G01X11554352Y-3306D01*
G01X11554352Y79829D01*
G01X11466620Y79829D01*
G01X11466620Y-3306D01*
G01X11383486Y-3306D01*
G01X11358086Y-3306D01*
G01X11358086Y22094D01*
G01X11441220Y22094D01*
G01X11441220Y105229D01*
G01X11579752Y105229D01*
G01X11579752Y22094D01*
G01X11662886Y22094D01*
G01X11662886Y-116437D01*
G37*
G36*
G01X11662886Y685800D02*
G01X11592858Y533400D01*
G01X11662886Y381000D01*
G01X11510486Y451028D01*
G01X11358086Y381000D01*
G01X11381848Y432714D01*
G01X11409800Y432714D01*
G01X11499869Y474116D01*
G01X11510486Y478993D01*
G01X11521103Y474116D01*
G01X11611171Y432714D01*
G01X11569769Y522783D01*
G01X11564893Y533400D01*
G01X11569769Y544017D01*
G01X11611171Y634086D01*
G01X11521103Y592684D01*
G01X11510486Y587807D01*
G01X11499869Y592684D01*
G01X11409800Y634086D01*
G01X11451202Y544017D01*
G01X11456079Y533400D01*
G01X11456079Y533400D01*
G01X11451202Y522783D01*
G01X11409800Y432714D01*
G01X11381848Y432714D01*
G01X11428114Y533400D01*
G01X11358086Y685800D01*
G01X11510486Y615772D01*
G01X11662886Y685800D01*
G37*
G36*
G01X11358086Y1846943D02*
G01X11662886Y1846943D01*
G01X11510486Y1582986D01*
G01X11372751Y1821543D01*
G01X11402079Y1821543D01*
G01X11510486Y1633786D01*
G01X11618893Y1821543D01*
G01X11618893Y1821543D01*
G01X11402079Y1821543D01*
G01X11372751Y1821543D01*
G01X11358086Y1846943D01*
G37*
G36*
G01X11358086Y3008086D02*
G01X11637486Y3008086D01*
G01X11637486Y2728686D01*
G01X11358086Y2728686D01*
G01X11358086Y2982686D01*
G01X11383486Y2982686D01*
G01X11383486Y2754086D01*
G01X11612086Y2754086D01*
G01X11612086Y2982686D01*
G01X11612086Y2982686D01*
G01X11383486Y2982686D01*
G01X11358086Y2982686D01*
G01X11358086Y3008086D01*
G37*
G36*
G01X11637486Y-754743D02*
G01X11535886Y-754743D01*
G01X11497786Y-678543D01*
G01X11459686Y-754743D01*
G01X11358086Y-754743D01*
G01X11358086Y-729343D01*
G01X11383486Y-729343D01*
G01X11443989Y-729343D01*
G01X11475053Y-667189D01*
G01X11497786Y-621748D01*
G01X11520519Y-667189D01*
G01X11551583Y-729343D01*
G01X11612086Y-729343D01*
G01X11612086Y-668840D01*
G01X11549932Y-637750D01*
G01X11504491Y-615043D01*
G01X11549932Y-592335D01*
G01X11612086Y-561246D01*
G01X11612086Y-500743D01*
G01X11551583Y-500743D01*
G01X11520519Y-562897D01*
G01X11497786Y-608337D01*
G01X11475053Y-562897D01*
G01X11443989Y-500743D01*
G01X11383486Y-500743D01*
G01X11383486Y-561246D01*
G01X11445640Y-592335D01*
G01X11491080Y-615043D01*
G01X11445640Y-637750D01*
G01X11383486Y-668840D01*
G01X11383486Y-729343D01*
G01X11383486Y-729343D01*
G01X11358086Y-729343D01*
G01X11358086Y-653143D01*
G01X11434286Y-615043D01*
G01X11358086Y-576943D01*
G01X11358086Y-475343D01*
G01X11459686Y-475343D01*
G01X11497786Y-551543D01*
G01X11535886Y-475343D01*
G01X11637486Y-475343D01*
G01X11637486Y-576943D01*
G01X11561286Y-615043D01*
G01X11637486Y-653143D01*
G01X11637486Y-754743D01*
G37*

G04 PolygonModel Start*
G54D18*
G01X11067800Y-910771D02*
G01X27786153Y-910771D01*
G01X11067800Y-330200D02*
G01X27786153Y-330200D01*
G01X11067800Y250371D02*
G01X27786153Y250371D01*
G01X11067800Y830943D02*
G01X27786153Y830943D01*
G01X11067800Y1411514D02*
G01X27786153Y1411514D01*
G01X11067800Y1992086D02*
G01X27786153Y1992086D01*
G01X11067800Y2572657D02*
G01X27786153Y2572657D01*
G01X11067800Y3153229D02*
G01X27786153Y3153229D01*
G01X11067800Y3733800D02*
G01X27786153Y3733800D01*
G01X11067800Y3733800D02*
G01X11067800Y-885371D01*
G01X12519229Y3733800D02*
G01X12519229Y-885371D01*
G01X13933392Y3733800D02*
G01X13933392Y-885371D01*
G01X17826849Y3733800D02*
G01X17826849Y-885371D01*
G01X19288256Y3733800D02*
G01X19288256Y-885371D01*
G01X20719437Y3733800D02*
G01X20719437Y-885371D01*
G01X22388616Y3733800D02*
G01X22388616Y-885371D01*
G01X24307985Y3733800D02*
G01X24307985Y-885371D01*
G01X27786153Y3733800D02*
G01X27786153Y-885371D01*

M02*

