;TYPE=PLATED
;Layer: PTH_Through
;EasyEDA Pro v3.2.149, 2026-09-25 09:59:01
;Gerber Generator version 0.3
M48
METRIC,LZ,0000.00000
;Hole size 1 = 0.30500 METRIC
T01C0.30500
;Hole size 2 = 0.41000 METRIC
T02C0.41000
;Hole size 3 = 1.10002 METRIC
T03C1.10002
;Hole size 4 = 1.20000 METRIC
T04C1.20000
;Hole size 5 = 1.30002 METRIC
T05C1.30002
;Hole size 6 = 1.60000 METRIC
T06C1.60000
;Hole size 7 = 2.20000 METRIC
T07C2.20000
%
G05
G90
T01
X5.842Y26.035
X15.113Y20.777
X17.653Y18.82843
X17.653Y17.96512
X6.096Y14.44124
X5.715Y18.796
X6.95949Y18.796
X6.096Y21.209
X8.001Y21.209
X8.001Y19.812
X6.096Y19.812
X73.406Y12.827
X71.12Y13.65046
X69.65506Y9.017
X75.1205Y13.1445
X66.86702Y23.91827
X74.041Y18.16182
X74.05204Y16.57161
X74.05204Y14.02552
X74.05204Y8.84953
X36.084Y3.37905
X25.908Y3.429
X32.131Y1.143
X45.085Y2.667
X30.861Y28.575
X67.564Y29.464
X63.627Y28.067
X64.897Y28.956
X32.893Y18.669
X21.463Y1.905
X50.7365Y5.1435
X25.15226Y6.37032
X29.591Y5.461
X38.481Y19.431
X40.386Y21.717
X38.481Y26.416
X36.703Y24.892
X29.972Y22.86
X31.15705Y22.86
X31.496Y25.908
X32.27008Y25.908
X27.813Y26.67
X21.717Y27.813
X17.28704Y28.067
X26.797Y14.732
X22.95205Y13.97
X26.797Y10.795
X24.80501Y17.79095
X13.97Y11.557
X30.607Y4.191
X31.369Y4.191
T02
X6.985Y10.795
X3.429Y16.637
T03
X2.413Y4.445
X4.953Y4.445
X7.493Y4.445
X10.033Y4.445
X12.573Y4.445
T04
X46.355Y4.826
X43.815Y4.826
X53.34Y5.08
X55.88Y5.08
X12.7Y31.115
X15.24Y31.115
X17.78Y31.115
X20.32Y31.115
X22.86Y31.115
X25.4Y31.115
X27.94Y31.115
X30.48Y31.115
X33.02Y31.115
X35.56Y31.115
X38.1Y31.115
X40.64Y31.115
X43.18Y31.115
X45.72Y31.115
X48.26Y31.115
X50.8Y31.115
X53.34Y31.115
X55.88Y31.115
X58.42Y31.115
X60.96Y31.115
X12.7Y8.67175
X15.24Y8.67175
X17.78Y8.67175
X20.32Y8.67175
X22.86Y8.67175
X25.4Y8.67175
X27.94Y8.67175
X30.48Y8.67175
X33.02Y8.67175
X35.56Y8.67175
X38.1Y8.67175
X40.64Y8.67175
X43.18Y8.67175
X45.72Y8.67175
X48.26Y8.67175
X50.8Y8.67175
X53.34Y8.67175
X55.88Y8.67175
X58.42Y8.67175
X60.96Y8.67175
T05
X85.34387Y13.58913
X85.34387Y25.90813
T06
X87.89386Y11.03914
X87.89386Y16.13911
X82.79389Y16.13911
X82.79389Y11.03914
X87.89386Y23.35814
X87.89386Y28.45811
X82.79389Y28.45811
X82.79389Y23.35814
T07
X3.67792Y33.66134
X17.52816Y3.18134
X87.5124Y33.66134
X87.39264Y2.92734
M30