;TYPE=PLATED
;Layer: PTH_Through_Via
;EasyEDA Pro v3.2.149, 2026-09-25 09:59:01
;Gerber Generator version 0.3
M48
METRIC,LZ,0000.00000
;Hole size 1 = 0.30500 METRIC
T01C0.30500
;Hole size 2 = 0.41000 METRIC
T02C0.41000
%
G05
G90
T01
X5.842Y26.035
X15.113Y20.777
X17.653Y18.82843
X17.653Y17.96512
X6.096Y14.44124
X5.715Y18.796
X6.95949Y18.796
X6.096Y21.209
X8.001Y21.209
X8.001Y19.812
X6.096Y19.812
X73.406Y12.827
X71.12Y13.65046
X69.65506Y9.017
X75.1205Y13.1445
X66.86702Y23.91827
X74.041Y18.16182
X74.05204Y16.57161
X74.05204Y14.02552
X74.05204Y8.84953
X36.084Y3.37905
X25.908Y3.429
X32.131Y1.143
X45.085Y2.667
X30.861Y28.575
X67.564Y29.464
X63.627Y28.067
X64.897Y28.956
X32.893Y18.669
X21.463Y1.905
X50.7365Y5.1435
X25.15226Y6.37032
X29.591Y5.461
X38.481Y19.431
X40.386Y21.717
X38.481Y26.416
X36.703Y24.892
X29.972Y22.86
X31.15705Y22.86
X31.496Y25.908
X32.27008Y25.908
X27.813Y26.67
X21.717Y27.813
X17.28704Y28.067
X26.797Y14.732
X22.95205Y13.97
X26.797Y10.795
X24.80501Y17.79095
X13.97Y11.557
X30.607Y4.191
X31.369Y4.191
T02
X6.985Y10.795
X3.429Y16.637
M30