G04 Layer: TopLayer*
G04 EasyEDA Pro v3.2.149, 2026-09-25 09:59:00*
G04 Gerber Generator version 0.3*
G04 Scale: 100 percent, Rotated: No, Reflected: No*
G04 Dimensions in millimeters*
G04 Leading zeros omitted, absolute positions, 4 integers and 5 decimals*
G04 Generated by one-click*
G04 Object Configs: Pad,Via,Track,Text,Image,Dimension,BoardOutline,BoardCutout,CopperFilled,SolidRegion,FPCStiffener,Line,PlaneZone,ComponentProperty,ComponentSilkscreen,TearDrop*
G04 Layer Configs: 1,2,3,4,5,6,7,8,9,10,11,13,14,56*
G04 Copper Areas: 206*
%FSLAX45Y45*%
%MOMM*%
%ADD10C,0.2032*%
%ADD11C,0.254*%
%ADD12R,0.9X0.8*%
%ADD13R,0.8X0.9*%
%ADD14R,2.01X5.39999*%
%ADD15R,1.35001X1.41*%
%ADD16R,5.39999X2.01*%
%ADD17R,0.36843X0.324*%
%ADD18R,0.54X0.79009*%
%ADD19R,1.4114X1.35001*%
%ADD20R,1.41X1.35001*%
%ADD21R,0.79009X0.54*%
%ADD22R,1.45001X2.0*%
%ADD23R,0.8X1.5*%
%ADD24R,2.04749X2.1924*%
%ADD25R,1.62001X2.04638*%
%ADD26R,1.208X1.32999*%
%ADD27R,2.1X1.8*%
%ADD28R,2.0X2.0*%
%ADD29C,2.0*%
%ADD30R,1.7X1.7*%
%ADD31C,1.7*%
%ADD32R,2.124X4.22001*%
%ADD33R,1.13254X1.37701*%
%ADD34R,0.56566X0.54*%
%ADD35R,0.54X0.56566*%
%ADD36C,2.2*%
%ADD37R,3.19999X2.49999*%
%ADD38O,0.6X1.6*%
%ADD39R,1.8X1.8*%
%ADD40C,1.8*%
%ADD41R,1.8X0.8*%
%ADD42R,1.0X0.6*%
%ADD43R,2.47X3.59999*%
%ADD44R,2.47X0.98001*%
%ADD45R,0.324X0.36843*%
%ADD46R,0.65001X1.0*%
%ADD47R,1.32999X1.208*%
%ADD48C,0.82*%
%ADD49C,0.61*%
%ADD50C,0.5*%
%ADD51C,0.8*%
%ADD52C,0.6*%
%ADD53C,0.41*%
%ADD54C,0.4*%
G75*


G04 Copper Start*
G36*
G01X9031986Y3697986D02*
G01X9031986Y35814D01*
G01X48514Y35814D01*
G01X48514Y936541D01*
G01X86385Y936541D01*
G01X88138Y925474D01*
G01X93225Y915490D01*
G01X101148Y907567D01*
G01X111132Y902480D01*
G01X122199Y900727D01*
G01X180486Y900727D01*
G01X180486Y565314D01*
G01X180486Y565314D01*
G01X156300Y565314D01*
G01X145233Y563561D01*
G01X135249Y558474D01*
G01X127326Y550551D01*
G01X122239Y540567D01*
G01X120486Y529500D01*
G01X120486Y359500D01*
G01X122239Y348433D01*
G01X127326Y338449D01*
G01X135249Y330526D01*
G01X145233Y325439D01*
G01X156300Y323686D01*
G01X182086Y323686D01*
G01X182086Y281115D01*
G01X172400Y281115D01*
G01X161333Y279362D01*
G01X151349Y274275D01*
G01X143426Y266351D01*
G01X138339Y256368D01*
G01X136586Y245301D01*
G01X136586Y110300D01*
G01X138339Y99232D01*
G01X143426Y89249D01*
G01X151349Y81325D01*
G01X161333Y76238D01*
G01X172400Y74486D01*
G01X313400Y74486D01*
G01X324756Y76333D01*
G01X334939Y81686D01*
G01X342900Y89991D01*
G01X350861Y81686D01*
G01X361044Y76333D01*
G01X372400Y74486D01*
G01X513400Y74486D01*
G01X524467Y76238D01*
G01X534451Y81325D01*
G01X542374Y89249D01*
G01X547461Y99232D01*
G01X549214Y110300D01*
G01X549214Y245301D01*
G01X547461Y256368D01*
G01X542374Y266351D01*
G01X534451Y274275D01*
G01X524467Y279362D01*
G01X513400Y281115D01*
G01X372400Y281115D01*
G01X361044Y279267D01*
G01X350861Y273914D01*
G01X342900Y265609D01*
G01X334939Y273914D01*
G01X324756Y279267D01*
G01X313400Y281115D01*
G01X303714Y281115D01*
G01X303714Y318134D01*
G01X1607002Y318134D01*
G01X1608991Y294134D01*
G01X1614902Y270788D01*
G01X1624576Y248734D01*
G01X1637748Y228573D01*
G01X1654059Y210855D01*
G01X1673063Y196063D01*
G01X1694243Y184601D01*
G01X1717021Y176782D01*
G01X1740775Y172818D01*
G01X1764857Y172818D01*
G01X1788611Y176782D01*
G01X1811389Y184601D01*
G01X1822288Y190500D01*
G01X2079986Y190500D01*
G01X2081764Y175247D01*
G01X2087003Y160811D01*
G01X2095422Y147968D01*
G01X2106569Y137406D01*
G01X2119847Y129690D01*
G01X2134544Y125236D01*
G01X2149871Y124282D01*
G01X2165006Y126879D01*
G01X2179139Y132888D01*
G01X2191510Y141986D01*
G01X2195159Y141986D01*
G01X2195159Y121649D01*
G01X2195159Y121649D01*
G01X2196912Y110582D01*
G01X2201999Y100599D01*
G01X2209922Y92675D01*
G01X2219906Y87588D01*
G01X2230973Y85835D01*
G01X2344227Y85835D01*
G01X2355294Y87588D01*
G01X2365278Y92675D01*
G01X2373201Y100599D01*
G01X2378288Y110582D01*
G01X2380041Y121649D01*
G01X2380041Y259351D01*
G01X2395159Y259351D01*
G01X2395159Y121649D01*
G01X2396912Y110582D01*
G01X2401999Y100599D01*
G01X2409922Y92675D01*
G01X2419906Y87588D01*
G01X2430973Y85835D01*
G01X2544227Y85835D01*
G01X2555294Y87588D01*
G01X2565278Y92675D01*
G01X2573201Y100599D01*
G01X2578288Y110582D01*
G01X2580041Y121649D01*
G01X2580041Y141986D01*
G01X2588859Y141986D01*
G01X2588859Y121649D01*
G01X2590612Y110582D01*
G01X2595699Y100599D01*
G01X2603622Y92675D01*
G01X2613606Y87588D01*
G01X2624673Y85835D01*
G01X2737927Y85835D01*
G01X2748994Y87588D01*
G01X2758978Y92675D01*
G01X2766901Y100599D01*
G01X2771988Y110582D01*
G01X2773741Y121649D01*
G01X2773741Y259351D01*
G01X2788859Y259351D01*
G01X2788859Y121649D01*
G01X2790612Y110582D01*
G01X2795699Y100599D01*
G01X2803622Y92675D01*
G01X2813606Y87588D01*
G01X2824673Y85835D01*
G01X2937927Y85835D01*
G01X2948994Y87588D01*
G01X2958978Y92675D01*
G01X2966901Y100599D01*
G01X2971988Y110582D01*
G01X2973741Y121649D01*
G01X2973741Y259351D01*
G01X2973741Y259351D01*
G01X2971988Y270418D01*
G01X2966901Y280401D01*
G01X2958978Y288325D01*
G01X2952368Y291692D01*
G01X2996486Y291692D01*
G01X2996486Y170892D01*
G01X2998239Y159825D01*
G01X3003326Y149842D01*
G01X3011249Y141918D01*
G01X3021233Y136831D01*
G01X3032300Y135078D01*
G01X3150125Y135078D01*
G01X3147139Y121133D01*
G01X3147203Y106872D01*
G01X3150315Y92954D01*
G01X3156331Y80024D01*
G01X3164973Y68679D01*
G01X3175840Y59444D01*
G01X3188430Y52745D01*
G01X3188430Y52745D01*
G01X3202162Y48894D01*
G01X3216399Y48068D01*
G01X3230484Y50305D01*
G01X3243765Y55502D01*
G01X3255628Y63418D01*
G01X3265523Y73688D01*
G01X3272994Y85835D01*
G01X3372927Y85835D01*
G01X3383994Y87588D01*
G01X3393978Y92675D01*
G01X3401901Y100599D01*
G01X3406988Y110582D01*
G01X3408741Y121649D01*
G01X3408741Y259351D01*
G01X3423859Y259351D01*
G01X3423859Y121649D01*
G01X3425612Y110582D01*
G01X3430699Y100599D01*
G01X3438622Y92675D01*
G01X3448606Y87588D01*
G01X3459673Y85835D01*
G01X3572927Y85835D01*
G01X3583853Y87543D01*
G01X3593737Y92502D01*
G01X3601637Y100241D01*
G01X3606800Y110021D01*
G01X3611963Y100241D01*
G01X3619863Y92502D01*
G01X3629747Y87543D01*
G01X3640673Y85835D01*
G01X3753927Y85835D01*
G01X3764994Y87588D01*
G01X3774978Y92675D01*
G01X3782901Y100599D01*
G01X3787988Y110582D01*
G01X3789741Y121649D01*
G01X3789741Y259351D01*
G01X3804859Y259351D01*
G01X3804859Y121649D01*
G01X3806612Y110582D01*
G01X3811699Y100599D01*
G01X3819622Y92675D01*
G01X3829606Y87588D01*
G01X3840673Y85835D01*
G01X3953927Y85835D01*
G01X3964994Y87588D01*
G01X3974978Y92675D01*
G01X3982901Y100599D01*
G01X3987988Y110582D01*
G01X3989741Y121649D01*
G01X3989741Y259351D01*
G01X3989741Y259351D01*
G01X3987988Y270418D01*
G01X3986875Y272601D01*
G01X4442449Y272601D01*
G01X4442863Y257250D01*
G01X4446796Y242406D01*
G01X4454039Y228864D01*
G01X4464202Y217352D01*
G01X4476741Y208486D01*
G01X4490982Y202741D01*
G01X4506164Y200427D01*
G01X4639295Y67295D01*
G01X4649343Y59586D01*
G01X4661044Y54739D01*
G01X4673600Y53086D01*
G01X4840905Y53086D01*
G01X4848430Y50472D01*
G01X4856347Y49586D01*
G01X4893189Y49586D01*
G01X4902200Y50738D01*
G01X4911211Y49586D01*
G01X4948053Y49586D01*
G01X4959120Y51339D01*
G01X4969104Y56426D01*
G01X4977027Y64349D01*
G01X4982114Y74333D01*
G01X4983867Y85400D01*
G01X4983867Y117800D01*
G01X4982114Y128867D01*
G01X4977027Y138851D01*
G01X4969104Y146774D01*
G01X4959120Y151861D01*
G01X4948053Y153614D01*
G01X4923282Y153614D01*
G01X4923282Y161299D01*
G01X4930819Y166979D01*
G01X4936611Y174430D01*
G01X4940255Y183136D01*
G01X4941499Y192491D01*
G01X4941499Y252491D01*
G01X4939746Y263558D01*
G01X4934659Y273542D01*
G01X4926736Y281465D01*
G01X4916752Y286552D01*
G01X4905685Y288305D01*
G01X4805685Y288305D01*
G01X4794618Y286552D01*
G01X4784634Y281465D01*
G01X4776711Y273542D01*
G01X4771624Y263558D01*
G01X4769871Y252491D01*
G01X4769871Y192491D01*
G01X4771624Y181424D01*
G01X4776711Y171440D01*
G01X4784634Y163517D01*
G01X4794618Y158430D01*
G01X4805685Y156677D01*
G01X4826254Y156677D01*
G01X4826254Y150114D01*
G01X4693695Y150114D01*
G01X4574773Y269036D01*
G01X4572459Y284218D01*
G01X4566714Y298459D01*
G01X4557848Y310998D01*
G01X4546336Y321161D01*
G01X4532794Y328404D01*
G01X4517950Y332337D01*
G01X4502599Y332751D01*
G01X4487564Y329622D01*
G01X4473652Y323120D01*
G01X4461609Y313591D01*
G01X4461609Y313591D01*
G01X4452080Y301548D01*
G01X4445578Y287636D01*
G01X4442449Y272601D01*
G01X3986875Y272601D01*
G01X3982901Y280401D01*
G01X3974978Y288325D01*
G01X3964994Y293412D01*
G01X3953927Y295165D01*
G01X3840673Y295165D01*
G01X3829606Y293412D01*
G01X3819622Y288325D01*
G01X3811699Y280401D01*
G01X3806612Y270418D01*
G01X3804859Y259351D01*
G01X3789741Y259351D01*
G01X3787988Y270418D01*
G01X3782901Y280401D01*
G01X3774978Y288325D01*
G01X3764994Y293412D01*
G01X3753927Y295165D01*
G01X3659103Y295165D01*
G01X3667875Y308575D01*
G01X3673174Y323698D01*
G01X3674691Y339650D01*
G01X3672337Y355501D01*
G01X3666250Y370324D01*
G01X3656784Y383255D01*
G01X3654592Y394533D01*
G01X3649810Y404980D01*
G01X3642705Y414009D01*
G01X3598915Y457799D01*
G01X3598915Y470700D01*
G01X3597162Y481767D01*
G01X3596737Y482600D01*
G01X4245686Y482600D01*
G01X4247512Y460406D01*
G01X4252940Y438809D01*
G01X4261824Y418389D01*
G01X4273926Y399695D01*
G01X4288920Y383230D01*
G01X4306403Y369437D01*
G01X4325905Y358686D01*
G01X4346902Y351267D01*
G01X4368829Y347379D01*
G01X4391096Y347126D01*
G01X4413106Y350515D01*
G01X4434266Y357455D01*
G01X4454007Y367760D01*
G01X4471799Y381153D01*
G01X4487163Y397273D01*
G01X4499686Y415687D01*
G01X4499686Y382600D01*
G01X4499686Y382600D01*
G01X4501439Y371533D01*
G01X4506526Y361549D01*
G01X4514449Y353626D01*
G01X4524433Y348539D01*
G01X4535500Y346786D01*
G01X4735500Y346786D01*
G01X4745180Y348119D01*
G01X4754139Y352019D01*
G01X4761711Y358195D01*
G01X4767332Y366188D01*
G01X4770583Y375403D01*
G01X4773819Y366163D01*
G01X4779436Y358145D01*
G01X4787014Y351947D01*
G01X4795987Y348033D01*
G01X4805685Y346695D01*
G01X4905685Y346695D01*
G01X4916752Y348448D01*
G01X4926736Y353535D01*
G01X4934659Y361458D01*
G01X4939746Y371442D01*
G01X4941499Y382509D01*
G01X4941499Y442509D01*
G01X4939746Y453576D01*
G01X4934659Y463560D01*
G01X4926736Y471483D01*
G01X4916752Y476570D01*
G01X4905685Y478323D01*
G01X4858480Y478323D01*
G01X4819898Y516905D01*
G01X4809851Y524614D01*
G01X4798150Y529461D01*
G01X4785594Y531114D01*
G01X4771314Y531114D01*
G01X4771314Y582600D01*
G01X4769561Y593667D01*
G01X4764474Y603651D01*
G01X4756551Y611574D01*
G01X4746567Y616661D01*
G01X4735500Y618414D01*
G01X4535500Y618414D01*
G01X4524433Y616661D01*
G01X4514449Y611574D01*
G01X4506526Y603651D01*
G01X4501439Y593667D01*
G01X4499686Y582600D01*
G01X4499686Y549513D01*
G01X4487163Y567927D01*
G01X4471799Y584047D01*
G01X4454007Y597440D01*
G01X4434266Y607745D01*
G01X4413106Y614685D01*
G01X4391096Y618074D01*
G01X4368829Y617821D01*
G01X4346902Y613933D01*
G01X4325905Y606514D01*
G01X4306403Y595763D01*
G01X4288920Y581970D01*
G01X4273926Y565505D01*
G01X4261824Y546811D01*
G01X4252940Y526391D01*
G01X4247512Y504794D01*
G01X4245686Y482600D01*
G01X3596737Y482600D01*
G01X3592075Y491751D01*
G01X3584152Y499674D01*
G01X3574168Y504761D01*
G01X3563101Y506514D01*
G01X3498099Y506514D01*
G01X3487032Y504761D01*
G01X3477048Y499674D01*
G01X3469125Y491751D01*
G01X3464038Y481767D01*
G01X3462285Y470700D01*
G01X3462285Y370700D01*
G01X3464038Y359633D01*
G01X3469125Y349649D01*
G01X3477048Y341726D01*
G01X3487032Y336639D01*
G01X3498099Y334886D01*
G01X3542155Y334886D01*
G01X3544381Y320612D01*
G01X3549645Y307159D01*
G01X3557697Y295165D01*
G01X3459673Y295165D01*
G01X3459673Y295165D01*
G01X3448606Y293412D01*
G01X3438622Y288325D01*
G01X3430699Y280401D01*
G01X3425612Y270418D01*
G01X3423859Y259351D01*
G01X3408741Y259351D01*
G01X3408741Y259351D01*
G01X3406988Y270418D01*
G01X3401901Y280401D01*
G01X3393978Y288325D01*
G01X3383994Y293412D01*
G01X3372927Y295165D01*
G01X3259673Y295165D01*
G01X3248606Y293412D01*
G01X3238622Y288325D01*
G01X3230699Y280401D01*
G01X3225612Y270418D01*
G01X3223859Y259351D01*
G01X3223859Y238885D01*
G01X3212009Y236508D01*
G01X3201114Y231275D01*
G01X3201114Y291692D01*
G01X3199361Y302759D01*
G01X3194274Y312743D01*
G01X3186351Y320666D01*
G01X3176367Y325753D01*
G01X3165300Y327506D01*
G01X3032300Y327506D01*
G01X3021233Y325753D01*
G01X3011249Y320666D01*
G01X3003326Y312743D01*
G01X2998239Y302759D01*
G01X2996486Y291692D01*
G01X2952368Y291692D01*
G01X2948994Y293412D01*
G01X2937927Y295165D01*
G01X2824673Y295165D01*
G01X2813606Y293412D01*
G01X2803622Y288325D01*
G01X2795699Y280401D01*
G01X2790612Y270418D01*
G01X2788859Y259351D01*
G01X2773741Y259351D01*
G01X2771988Y270418D01*
G01X2766901Y280401D01*
G01X2758978Y288325D01*
G01X2748994Y293412D01*
G01X2737927Y295165D01*
G01X2636831Y295165D01*
G01X2645098Y304830D01*
G01X2651367Y315896D01*
G01X2655408Y327955D01*
G01X2657073Y340564D01*
G01X2664927Y348418D01*
G01X2672599Y347586D01*
G01X2737601Y347586D01*
G01X2748668Y349339D01*
G01X2758652Y354426D01*
G01X2766575Y362349D01*
G01X2771662Y372333D01*
G01X2773415Y383400D01*
G01X2773415Y483400D01*
G01X2771662Y494467D01*
G01X2766575Y504451D01*
G01X2758652Y512374D01*
G01X2748668Y517461D01*
G01X2737601Y519214D01*
G01X2672599Y519214D01*
G01X2661532Y517461D01*
G01X2651548Y512374D01*
G01X2643625Y504451D01*
G01X2638538Y494467D01*
G01X2636785Y483400D01*
G01X2636785Y457495D01*
G01X2588464Y409173D01*
G01X2574421Y407160D01*
G01X2561128Y402206D01*
G01X2549193Y394538D01*
G01X2539162Y384507D01*
G01X2531494Y372572D01*
G01X2526540Y359279D01*
G01X2524527Y345236D01*
G01X2474455Y295165D01*
G01X2430973Y295165D01*
G01X2430973Y295165D01*
G01X2419906Y293412D01*
G01X2409922Y288325D01*
G01X2401999Y280401D01*
G01X2396912Y270418D01*
G01X2395159Y259351D01*
G01X2380041Y259351D01*
G01X2380041Y259351D01*
G01X2378288Y270418D01*
G01X2373201Y280401D01*
G01X2365278Y288325D01*
G01X2355294Y293412D01*
G01X2344227Y295165D01*
G01X2230973Y295165D01*
G01X2219906Y293412D01*
G01X2209922Y288325D01*
G01X2201999Y280401D01*
G01X2196912Y270418D01*
G01X2195159Y259351D01*
G01X2195159Y239014D01*
G01X2191510Y239014D01*
G01X2179139Y248112D01*
G01X2165006Y254121D01*
G01X2149871Y256718D01*
G01X2134544Y255764D01*
G01X2119847Y251310D01*
G01X2106569Y243594D01*
G01X2095422Y233032D01*
G01X2087003Y220189D01*
G01X2081764Y205753D01*
G01X2079986Y190500D01*
G01X1822288Y190500D01*
G01X1832569Y196063D01*
G01X1851573Y210855D01*
G01X1867884Y228573D01*
G01X1881056Y248734D01*
G01X1890729Y270788D01*
G01X1896641Y294134D01*
G01X1898630Y318134D01*
G01X1898630Y318134D01*
G01X1896641Y342134D01*
G01X1890729Y365480D01*
G01X1881056Y387534D01*
G01X1867884Y407695D01*
G01X1851573Y425413D01*
G01X1832569Y440205D01*
G01X1811389Y451667D01*
G01X1788611Y459486D01*
G01X1764857Y463450D01*
G01X1740775Y463450D01*
G01X1717021Y459486D01*
G01X1694243Y451667D01*
G01X1673063Y440205D01*
G01X1654059Y425413D01*
G01X1637748Y407695D01*
G01X1624576Y387534D01*
G01X1614902Y365480D01*
G01X1608991Y342134D01*
G01X1607002Y318134D01*
G01X303714Y318134D01*
G01X303714Y323686D01*
G01X326300Y323686D01*
G01X337367Y325439D01*
G01X347351Y330526D01*
G01X355274Y338449D01*
G01X360361Y348433D01*
G01X362114Y359500D01*
G01X362114Y444500D01*
G01X374486Y444500D01*
G01X376322Y423521D01*
G01X381772Y403179D01*
G01X390672Y384093D01*
G01X402751Y366842D01*
G01X417642Y351951D01*
G01X434893Y339872D01*
G01X453979Y330972D01*
G01X474321Y325522D01*
G01X495300Y323686D01*
G01X516279Y325522D01*
G01X536621Y330972D01*
G01X555707Y339872D01*
G01X572958Y351951D01*
G01X587849Y366842D01*
G01X599928Y384093D01*
G01X608828Y403179D01*
G01X614278Y423521D01*
G01X616114Y444500D01*
G01X628486Y444500D01*
G01X630322Y423521D01*
G01X635772Y403179D01*
G01X644672Y384093D01*
G01X656751Y366842D01*
G01X671642Y351951D01*
G01X688893Y339872D01*
G01X707979Y330972D01*
G01X728321Y325522D01*
G01X749300Y323686D01*
G01X770279Y325522D01*
G01X790621Y330972D01*
G01X809707Y339872D01*
G01X826958Y351951D01*
G01X841849Y366842D01*
G01X853928Y384093D01*
G01X862828Y403179D01*
G01X868278Y423521D01*
G01X870114Y444500D01*
G01X882486Y444500D01*
G01X884322Y423521D01*
G01X889772Y403179D01*
G01X898672Y384093D01*
G01X910751Y366842D01*
G01X925642Y351951D01*
G01X942893Y339872D01*
G01X961979Y330972D01*
G01X982321Y325522D01*
G01X1003300Y323686D01*
G01X1024279Y325522D01*
G01X1044621Y330972D01*
G01X1063707Y339872D01*
G01X1080958Y351951D01*
G01X1095849Y366842D01*
G01X1107928Y384093D01*
G01X1116828Y403179D01*
G01X1122278Y423521D01*
G01X1124114Y444500D01*
G01X1136486Y444500D01*
G01X1138322Y423521D01*
G01X1143772Y403179D01*
G01X1152672Y384093D01*
G01X1164751Y366842D01*
G01X1179642Y351951D01*
G01X1196893Y339872D01*
G01X1215979Y330972D01*
G01X1236321Y325522D01*
G01X1257300Y323686D01*
G01X1278279Y325522D01*
G01X1298621Y330972D01*
G01X1317707Y339872D01*
G01X1334958Y351951D01*
G01X1349849Y366842D01*
G01X1361928Y384093D01*
G01X1370828Y403179D01*
G01X1376278Y423521D01*
G01X1378114Y444500D01*
G01X1376278Y465479D01*
G01X1370828Y485821D01*
G01X1361928Y504907D01*
G01X1349849Y522158D01*
G01X1334958Y537049D01*
G01X1317707Y549128D01*
G01X1298621Y558028D01*
G01X1278279Y563478D01*
G01X1257300Y565314D01*
G01X1236321Y563478D01*
G01X1215979Y558028D01*
G01X1196893Y549128D01*
G01X1179642Y537049D01*
G01X1164751Y522158D01*
G01X1152672Y504907D01*
G01X1143772Y485821D01*
G01X1138322Y465479D01*
G01X1136486Y444500D01*
G01X1136486Y444500D01*
G01X1124114Y444500D01*
G01X1122278Y465479D01*
G01X1116828Y485821D01*
G01X1107928Y504907D01*
G01X1095849Y522158D01*
G01X1080958Y537049D01*
G01X1063707Y549128D01*
G01X1044621Y558028D01*
G01X1024279Y563478D01*
G01X1003300Y565314D01*
G01X982321Y563478D01*
G01X961979Y558028D01*
G01X942893Y549128D01*
G01X925642Y537049D01*
G01X910751Y522158D01*
G01X898672Y504907D01*
G01X889772Y485821D01*
G01X884322Y465479D01*
G01X882486Y444500D01*
G01X882486Y444500D01*
G01X870114Y444500D01*
G01X868278Y465479D01*
G01X862828Y485821D01*
G01X853928Y504907D01*
G01X841849Y522158D01*
G01X826958Y537049D01*
G01X809707Y549128D01*
G01X790621Y558028D01*
G01X770279Y563478D01*
G01X749300Y565314D01*
G01X728321Y563478D01*
G01X707979Y558028D01*
G01X688893Y549128D01*
G01X671642Y537049D01*
G01X656751Y522158D01*
G01X644672Y504907D01*
G01X635772Y485821D01*
G01X630322Y465479D01*
G01X628486Y444500D01*
G01X628486Y444500D01*
G01X616114Y444500D01*
G01X614278Y465479D01*
G01X608828Y485821D01*
G01X599928Y504907D01*
G01X587849Y522158D01*
G01X572958Y537049D01*
G01X555707Y549128D01*
G01X536621Y558028D01*
G01X516279Y563478D01*
G01X495300Y565314D01*
G01X474321Y563478D01*
G01X453979Y558028D01*
G01X434893Y549128D01*
G01X417642Y537049D01*
G01X402751Y522158D01*
G01X390672Y504907D01*
G01X381772Y485821D01*
G01X376322Y465479D01*
G01X374486Y444500D01*
G01X374486Y444500D01*
G01X362114Y444500D01*
G01X362114Y529500D01*
G01X360361Y540567D01*
G01X355274Y550551D01*
G01X347351Y558474D01*
G01X337367Y563561D01*
G01X326300Y565314D01*
G01X302114Y565314D01*
G01X302114Y858487D01*
G01X367287Y858487D01*
G01X367287Y657487D01*
G01X369039Y646419D01*
G01X374126Y636436D01*
G01X382050Y628512D01*
G01X392033Y623425D01*
G01X403101Y621673D01*
G01X943099Y621673D01*
G01X943099Y621673D01*
G01X954167Y623425D01*
G01X964150Y628512D01*
G01X972074Y636436D01*
G01X977161Y646419D01*
G01X978913Y657487D01*
G01X978913Y858487D01*
G01X977161Y869554D01*
G01X972074Y879538D01*
G01X964150Y887461D01*
G01X954167Y892548D01*
G01X943099Y894301D01*
G01X403101Y894301D01*
G01X392033Y892548D01*
G01X382050Y887461D01*
G01X374126Y879538D01*
G01X369039Y869554D01*
G01X367287Y858487D01*
G01X302114Y858487D01*
G01X302114Y905529D01*
G01X309529Y911221D01*
G01X315218Y918637D01*
G01X318795Y927274D01*
G01X320015Y936541D01*
G01X320015Y957175D01*
G01X1144186Y957175D01*
G01X1144186Y777175D01*
G01X1145939Y766108D01*
G01X1151026Y756125D01*
G01X1158949Y748201D01*
G01X1168933Y743114D01*
G01X1180000Y741361D01*
G01X1360000Y741361D01*
G01X1360000Y741361D01*
G01X1371067Y743114D01*
G01X1381051Y748201D01*
G01X1388974Y756125D01*
G01X1394061Y766108D01*
G01X1395814Y777175D01*
G01X1395814Y867175D01*
G01X1398186Y867175D01*
G01X1400098Y845328D01*
G01X1405774Y824144D01*
G01X1415042Y804268D01*
G01X1427621Y786304D01*
G01X1443128Y770796D01*
G01X1461093Y758217D01*
G01X1480969Y748949D01*
G01X1502153Y743273D01*
G01X1524000Y741361D01*
G01X1545847Y743273D01*
G01X1567031Y748949D01*
G01X1586907Y758217D01*
G01X1604872Y770796D01*
G01X1620379Y786304D01*
G01X1632958Y804268D01*
G01X1642226Y824144D01*
G01X1647902Y845328D01*
G01X1649814Y867175D01*
G01X1652186Y867175D01*
G01X1654098Y845328D01*
G01X1659774Y824144D01*
G01X1669042Y804268D01*
G01X1681621Y786304D01*
G01X1697128Y770796D01*
G01X1715093Y758217D01*
G01X1734969Y748949D01*
G01X1756153Y743273D01*
G01X1778000Y741361D01*
G01X1799847Y743273D01*
G01X1821031Y748949D01*
G01X1840907Y758217D01*
G01X1858872Y770796D01*
G01X1874379Y786304D01*
G01X1886958Y804268D01*
G01X1896226Y824144D01*
G01X1901902Y845328D01*
G01X1903814Y867175D01*
G01X1906186Y867175D01*
G01X1908098Y845328D01*
G01X1913774Y824144D01*
G01X1923042Y804268D01*
G01X1935621Y786304D01*
G01X1951128Y770796D01*
G01X1969093Y758217D01*
G01X1988969Y748949D01*
G01X2010153Y743273D01*
G01X2032000Y741361D01*
G01X2053847Y743273D01*
G01X2075031Y748949D01*
G01X2094907Y758217D01*
G01X2112872Y770796D01*
G01X2128379Y786304D01*
G01X2140958Y804268D01*
G01X2150226Y824144D01*
G01X2155902Y845328D01*
G01X2157633Y865111D01*
G01X2160203Y865111D01*
G01X2162523Y843037D01*
G01X2168686Y821715D01*
G01X2178500Y801808D01*
G01X2191659Y783935D01*
G01X2207755Y768652D01*
G01X2226285Y756436D01*
G01X2246674Y747666D01*
G01X2268286Y742615D01*
G01X2268286Y698500D01*
G01X2268286Y698500D01*
G01X2270188Y684054D01*
G01X2275764Y670593D01*
G01X2284634Y659034D01*
G01X2346102Y597566D01*
G01X2357661Y588696D01*
G01X2371122Y583120D01*
G01X2385568Y581218D01*
G01X2386386Y581218D01*
G01X2386386Y563747D01*
G01X2388139Y552680D01*
G01X2393226Y542696D01*
G01X2401149Y534773D01*
G01X2411133Y529686D01*
G01X2422200Y527933D01*
G01X2454600Y527933D01*
G01X2465667Y529686D01*
G01X2475651Y534773D01*
G01X2483574Y542696D01*
G01X2485309Y546100D01*
G01X2892786Y546100D01*
G01X2894809Y529847D01*
G01X2900753Y514585D01*
G01X2910257Y501246D01*
G01X2922740Y490642D01*
G01X2937442Y483422D01*
G01X2953465Y480026D01*
G01X2969831Y480660D01*
G01X2985543Y485286D01*
G01X2998036Y485286D01*
G01X3003031Y475069D01*
G01X3010977Y466934D01*
G01X3021072Y461699D01*
G01X3032300Y459894D01*
G01X3165300Y459894D01*
G01X3176288Y461621D01*
G01X3186216Y466637D01*
G01X3194127Y474456D01*
G01X3199257Y484326D01*
G01X3201111Y495294D01*
G01X3248508Y495294D01*
G01X3260372Y496462D01*
G01X3271780Y499923D01*
G01X3282294Y505543D01*
G01X3291510Y513106D01*
G01X3327190Y548786D01*
G01X3374776Y548786D01*
G01X3382638Y541309D01*
G01X3392379Y536529D01*
G01X3403103Y534886D01*
G01X3468105Y534886D01*
G01X3479172Y536639D01*
G01X3489156Y541726D01*
G01X3497079Y549649D01*
G01X3502166Y559633D01*
G01X3503919Y570700D01*
G01X3503919Y670700D01*
G01X3557281Y670700D01*
G01X3557281Y570700D01*
G01X3559034Y559633D01*
G01X3564121Y549649D01*
G01X3572044Y541726D01*
G01X3582028Y536639D01*
G01X3593095Y534886D01*
G01X3658097Y534886D01*
G01X3658097Y534886D01*
G01X3669164Y536639D01*
G01X3679148Y541726D01*
G01X3687071Y549649D01*
G01X3692158Y559633D01*
G01X3693911Y570700D01*
G01X3693911Y670700D01*
G01X3692158Y681767D01*
G01X3687071Y691751D01*
G01X3679148Y699674D01*
G01X3669164Y704761D01*
G01X3658097Y706514D01*
G01X3593095Y706514D01*
G01X3582028Y704761D01*
G01X3572044Y699674D01*
G01X3564121Y691751D01*
G01X3559034Y681767D01*
G01X3557281Y670700D01*
G01X3503919Y670700D01*
G01X3502166Y681767D01*
G01X3497079Y691751D01*
G01X3489156Y699674D01*
G01X3479172Y704761D01*
G01X3468105Y706514D01*
G01X3403103Y706514D01*
G01X3392036Y704761D01*
G01X3382052Y699674D01*
G01X3374129Y691751D01*
G01X3369042Y681767D01*
G01X3367289Y670700D01*
G01X3367289Y670414D01*
G01X3302000Y670414D01*
G01X3302000Y670414D01*
G01X3290136Y669245D01*
G01X3278728Y665785D01*
G01X3268214Y660165D01*
G01X3258998Y652602D01*
G01X3223318Y616922D01*
G01X3201111Y616922D01*
G01X3199257Y627889D01*
G01X3194127Y637759D01*
G01X3186216Y645579D01*
G01X3176288Y650594D01*
G01X3165300Y652322D01*
G01X3032300Y652322D01*
G01X3021233Y650569D01*
G01X3011249Y645482D01*
G01X3003326Y637558D01*
G01X2998239Y627575D01*
G01X2996486Y616508D01*
G01X2996486Y606914D01*
G01X2985543Y606914D01*
G01X2969831Y611540D01*
G01X2953465Y612174D01*
G01X2937442Y608778D01*
G01X2922740Y601558D01*
G01X2910257Y590954D01*
G01X2900753Y577615D01*
G01X2894809Y562353D01*
G01X2892786Y546100D01*
G01X2485309Y546100D01*
G01X2488661Y552680D01*
G01X2490414Y563747D01*
G01X2490414Y575534D01*
G01X2503232Y571811D01*
G01X2516536Y570731D01*
G01X2529787Y572336D01*
G01X2542448Y576563D01*
G01X2545638Y567250D01*
G01X2551242Y559157D01*
G01X2558839Y552895D01*
G01X2567853Y548939D01*
G01X2577603Y547586D01*
G01X2642605Y547586D01*
G01X2653672Y549339D01*
G01X2663656Y554426D01*
G01X2671579Y562349D01*
G01X2676666Y572333D01*
G01X2678419Y583400D01*
G01X2678419Y683400D01*
G01X2731781Y683400D01*
G01X2731781Y583400D01*
G01X2733534Y572333D01*
G01X2738621Y562349D01*
G01X2746544Y554426D01*
G01X2756528Y549339D01*
G01X2767595Y547586D01*
G01X2832597Y547586D01*
G01X2832597Y547586D01*
G01X2843664Y549339D01*
G01X2853648Y554426D01*
G01X2861571Y562349D01*
G01X2866658Y572333D01*
G01X2868411Y583400D01*
G01X2868411Y683400D01*
G01X2866658Y694467D01*
G01X2861571Y704451D01*
G01X2853648Y712374D01*
G01X2843664Y717461D01*
G01X2832597Y719214D01*
G01X2767595Y719214D01*
G01X2756528Y717461D01*
G01X2746544Y712374D01*
G01X2738621Y704451D01*
G01X2733534Y694467D01*
G01X2731781Y683400D01*
G01X2678419Y683400D01*
G01X2676666Y694467D01*
G01X2671579Y704451D01*
G01X2663656Y712374D01*
G01X2653672Y717461D01*
G01X2642605Y719214D01*
G01X2577603Y719214D01*
G01X2567083Y717634D01*
G01X2557490Y713033D01*
G01X2549673Y705817D01*
G01X2544320Y696623D01*
G01X2531585Y701297D01*
G01X2518165Y703281D01*
G01X2504622Y702493D01*
G01X2491523Y698965D01*
G01X2479416Y692846D01*
G01X2408687Y692846D01*
G01X2379914Y721619D01*
G01X2379914Y783454D01*
G01X2393164Y801259D01*
G01X2403080Y821116D01*
G01X2409352Y842407D01*
G01X2411785Y864468D01*
G01X2411604Y867175D01*
G01X2414186Y867175D01*
G01X2416098Y845328D01*
G01X2421774Y824144D01*
G01X2431042Y804268D01*
G01X2443621Y786304D01*
G01X2459128Y770796D01*
G01X2477093Y758217D01*
G01X2496969Y748949D01*
G01X2518153Y743273D01*
G01X2540000Y741361D01*
G01X2561847Y743273D01*
G01X2583031Y748949D01*
G01X2602907Y758217D01*
G01X2620872Y770796D01*
G01X2636379Y786304D01*
G01X2648958Y804268D01*
G01X2658226Y824144D01*
G01X2663902Y845328D01*
G01X2665814Y867175D01*
G01X2668186Y867175D01*
G01X2670098Y845328D01*
G01X2675774Y824144D01*
G01X2685042Y804268D01*
G01X2697621Y786304D01*
G01X2713128Y770796D01*
G01X2731093Y758217D01*
G01X2750969Y748949D01*
G01X2772153Y743273D01*
G01X2794000Y741361D01*
G01X2815847Y743273D01*
G01X2837031Y748949D01*
G01X2856907Y758217D01*
G01X2874872Y770796D01*
G01X2890379Y786304D01*
G01X2902958Y804268D01*
G01X2912226Y824144D01*
G01X2917902Y845328D01*
G01X2919814Y867175D01*
G01X2922186Y867175D01*
G01X2924098Y845328D01*
G01X2929774Y824144D01*
G01X2939042Y804268D01*
G01X2951621Y786304D01*
G01X2967128Y770796D01*
G01X2985093Y758217D01*
G01X3004969Y748949D01*
G01X3026153Y743273D01*
G01X3048000Y741361D01*
G01X3069847Y743273D01*
G01X3091031Y748949D01*
G01X3110907Y758217D01*
G01X3128872Y770796D01*
G01X3144379Y786304D01*
G01X3156958Y804268D01*
G01X3166226Y824144D01*
G01X3171902Y845328D01*
G01X3173814Y867175D01*
G01X3176186Y867175D01*
G01X3178098Y845328D01*
G01X3183774Y824144D01*
G01X3193042Y804268D01*
G01X3205621Y786304D01*
G01X3221128Y770796D01*
G01X3239093Y758217D01*
G01X3258969Y748949D01*
G01X3280153Y743273D01*
G01X3302000Y741361D01*
G01X3323847Y743273D01*
G01X3345031Y748949D01*
G01X3364907Y758217D01*
G01X3382872Y770796D01*
G01X3398379Y786304D01*
G01X3410958Y804268D01*
G01X3420226Y824144D01*
G01X3425902Y845328D01*
G01X3427814Y867175D01*
G01X3430186Y867175D01*
G01X3432098Y845328D01*
G01X3437774Y824144D01*
G01X3447042Y804268D01*
G01X3459621Y786304D01*
G01X3475128Y770796D01*
G01X3493093Y758217D01*
G01X3512969Y748949D01*
G01X3534153Y743273D01*
G01X3556000Y741361D01*
G01X3577847Y743273D01*
G01X3599031Y748949D01*
G01X3618907Y758217D01*
G01X3636872Y770796D01*
G01X3652379Y786304D01*
G01X3664958Y804268D01*
G01X3674226Y824144D01*
G01X3679902Y845328D01*
G01X3681814Y867175D01*
G01X3684186Y867175D01*
G01X3686098Y845328D01*
G01X3691774Y824144D01*
G01X3701042Y804268D01*
G01X3713621Y786304D01*
G01X3729128Y770796D01*
G01X3747093Y758217D01*
G01X3766969Y748949D01*
G01X3788153Y743273D01*
G01X3810000Y741361D01*
G01X3831847Y743273D01*
G01X3853031Y748949D01*
G01X3872907Y758217D01*
G01X3890872Y770796D01*
G01X3906379Y786304D01*
G01X3918958Y804268D01*
G01X3928226Y824144D01*
G01X3933902Y845328D01*
G01X3935814Y867175D01*
G01X3938186Y867175D01*
G01X3940098Y845328D01*
G01X3945774Y824144D01*
G01X3955042Y804268D01*
G01X3967621Y786304D01*
G01X3983128Y770796D01*
G01X4001093Y758217D01*
G01X4020969Y748949D01*
G01X4042153Y743273D01*
G01X4064000Y741361D01*
G01X4085847Y743273D01*
G01X4107031Y748949D01*
G01X4126907Y758217D01*
G01X4144872Y770796D01*
G01X4160379Y786304D01*
G01X4172958Y804268D01*
G01X4182226Y824144D01*
G01X4187902Y845328D01*
G01X4189814Y867175D01*
G01X4192186Y867175D01*
G01X4194098Y845328D01*
G01X4199774Y824144D01*
G01X4209042Y804268D01*
G01X4221621Y786304D01*
G01X4237128Y770796D01*
G01X4255093Y758217D01*
G01X4274969Y748949D01*
G01X4296153Y743273D01*
G01X4318000Y741361D01*
G01X4339847Y743273D01*
G01X4361031Y748949D01*
G01X4380907Y758217D01*
G01X4398872Y770796D01*
G01X4414379Y786304D01*
G01X4426958Y804268D01*
G01X4436226Y824144D01*
G01X4441902Y845328D01*
G01X4443814Y867175D01*
G01X4446186Y867175D01*
G01X4448098Y845328D01*
G01X4453774Y824144D01*
G01X4463042Y804268D01*
G01X4475621Y786304D01*
G01X4491128Y770796D01*
G01X4509093Y758217D01*
G01X4528969Y748949D01*
G01X4550153Y743273D01*
G01X4572000Y741361D01*
G01X4593847Y743273D01*
G01X4615031Y748949D01*
G01X4634907Y758217D01*
G01X4652872Y770796D01*
G01X4668379Y786304D01*
G01X4680958Y804268D01*
G01X4690226Y824144D01*
G01X4695902Y845328D01*
G01X4697814Y867175D01*
G01X4695902Y889023D01*
G01X4690226Y910206D01*
G01X4680958Y930082D01*
G01X4668379Y948047D01*
G01X4652872Y963554D01*
G01X4634907Y976133D01*
G01X4615031Y985402D01*
G01X4593847Y991078D01*
G01X4572000Y992989D01*
G01X4550153Y991078D01*
G01X4528969Y985402D01*
G01X4509093Y976133D01*
G01X4491128Y963554D01*
G01X4475621Y948047D01*
G01X4463042Y930082D01*
G01X4453774Y910206D01*
G01X4448098Y889023D01*
G01X4446186Y867175D01*
G01X4446186Y867175D01*
G01X4443814Y867175D01*
G01X4441902Y889023D01*
G01X4436226Y910206D01*
G01X4426958Y930082D01*
G01X4414379Y948047D01*
G01X4398872Y963554D01*
G01X4380907Y976133D01*
G01X4361031Y985402D01*
G01X4339847Y991078D01*
G01X4318000Y992989D01*
G01X4296153Y991078D01*
G01X4274969Y985402D01*
G01X4255093Y976133D01*
G01X4237128Y963554D01*
G01X4221621Y948047D01*
G01X4209042Y930082D01*
G01X4199774Y910206D01*
G01X4194098Y889023D01*
G01X4192186Y867175D01*
G01X4192186Y867175D01*
G01X4189814Y867175D01*
G01X4187902Y889023D01*
G01X4182226Y910206D01*
G01X4172958Y930082D01*
G01X4160379Y948047D01*
G01X4144872Y963554D01*
G01X4126907Y976133D01*
G01X4107031Y985402D01*
G01X4085847Y991078D01*
G01X4064000Y992989D01*
G01X4042153Y991078D01*
G01X4020969Y985402D01*
G01X4001093Y976133D01*
G01X3983128Y963554D01*
G01X3967621Y948047D01*
G01X3955042Y930082D01*
G01X3945774Y910206D01*
G01X3940098Y889023D01*
G01X3938186Y867175D01*
G01X3938186Y867175D01*
G01X3935814Y867175D01*
G01X3933902Y889023D01*
G01X3928226Y910206D01*
G01X3918958Y930082D01*
G01X3906379Y948047D01*
G01X3890872Y963554D01*
G01X3872907Y976133D01*
G01X3853031Y985402D01*
G01X3831847Y991078D01*
G01X3810000Y992989D01*
G01X3788153Y991078D01*
G01X3766969Y985402D01*
G01X3747093Y976133D01*
G01X3729128Y963554D01*
G01X3713621Y948047D01*
G01X3701042Y930082D01*
G01X3691774Y910206D01*
G01X3686098Y889023D01*
G01X3684186Y867175D01*
G01X3684186Y867175D01*
G01X3681814Y867175D01*
G01X3679902Y889023D01*
G01X3674226Y910206D01*
G01X3664958Y930082D01*
G01X3652379Y948047D01*
G01X3636872Y963554D01*
G01X3618907Y976133D01*
G01X3599031Y985402D01*
G01X3577847Y991078D01*
G01X3556000Y992989D01*
G01X3534153Y991078D01*
G01X3512969Y985402D01*
G01X3493093Y976133D01*
G01X3475128Y963554D01*
G01X3459621Y948047D01*
G01X3447042Y930082D01*
G01X3437774Y910206D01*
G01X3432098Y889023D01*
G01X3430186Y867175D01*
G01X3430186Y867175D01*
G01X3427814Y867175D01*
G01X3425902Y889023D01*
G01X3420226Y910206D01*
G01X3410958Y930082D01*
G01X3398379Y948047D01*
G01X3382872Y963554D01*
G01X3364907Y976133D01*
G01X3345031Y985402D01*
G01X3323847Y991078D01*
G01X3302000Y992989D01*
G01X3280153Y991078D01*
G01X3258969Y985402D01*
G01X3239093Y976133D01*
G01X3221128Y963554D01*
G01X3205621Y948047D01*
G01X3193042Y930082D01*
G01X3183774Y910206D01*
G01X3178098Y889023D01*
G01X3176186Y867175D01*
G01X3176186Y867175D01*
G01X3173814Y867175D01*
G01X3171902Y889023D01*
G01X3166226Y910206D01*
G01X3156958Y930082D01*
G01X3144379Y948047D01*
G01X3128872Y963554D01*
G01X3110907Y976133D01*
G01X3091031Y985402D01*
G01X3069847Y991078D01*
G01X3048000Y992989D01*
G01X3026153Y991078D01*
G01X3004969Y985402D01*
G01X2985093Y976133D01*
G01X2967128Y963554D01*
G01X2951621Y948047D01*
G01X2939042Y930082D01*
G01X2929774Y910206D01*
G01X2924098Y889023D01*
G01X2922186Y867175D01*
G01X2922186Y867175D01*
G01X2919814Y867175D01*
G01X2917902Y889023D01*
G01X2912226Y910206D01*
G01X2902958Y930082D01*
G01X2890379Y948047D01*
G01X2874872Y963554D01*
G01X2856907Y976133D01*
G01X2837031Y985402D01*
G01X2815847Y991078D01*
G01X2794000Y992989D01*
G01X2772153Y991078D01*
G01X2750969Y985402D01*
G01X2731093Y976133D01*
G01X2713128Y963554D01*
G01X2697621Y948047D01*
G01X2685042Y930082D01*
G01X2675774Y910206D01*
G01X2670098Y889023D01*
G01X2668186Y867175D01*
G01X2668186Y867175D01*
G01X2665814Y867175D01*
G01X2663902Y889023D01*
G01X2658226Y910206D01*
G01X2648958Y930082D01*
G01X2636379Y948047D01*
G01X2620872Y963554D01*
G01X2602907Y976133D01*
G01X2583031Y985402D01*
G01X2561847Y991078D01*
G01X2540000Y992989D01*
G01X2518153Y991078D01*
G01X2496969Y985402D01*
G01X2477093Y976133D01*
G01X2459128Y963554D01*
G01X2443621Y948047D01*
G01X2431042Y930082D01*
G01X2421774Y910206D01*
G01X2416098Y889023D01*
G01X2414186Y867175D01*
G01X2414186Y867175D01*
G01X2411604Y867175D01*
G01X2410303Y886613D01*
G01X2404953Y908154D01*
G01X2395901Y928419D01*
G01X2383429Y946778D01*
G01X2367925Y962660D01*
G01X2349872Y975571D01*
G01X2329830Y985108D01*
G01X2308425Y990975D01*
G01X2286322Y992989D01*
G01X2264208Y991088D01*
G01X2242773Y985330D01*
G01X2222683Y975896D01*
G01X2204564Y963078D01*
G01X2188979Y947275D01*
G01X2176413Y928980D01*
G01X2167258Y908761D01*
G01X2161798Y887248D01*
G01X2160203Y865111D01*
G01X2157633Y865111D01*
G01X2157814Y867175D01*
G01X2155902Y889023D01*
G01X2150226Y910206D01*
G01X2140958Y930082D01*
G01X2128379Y948047D01*
G01X2112872Y963554D01*
G01X2094907Y976133D01*
G01X2075031Y985402D01*
G01X2053847Y991078D01*
G01X2032000Y992989D01*
G01X2010153Y991078D01*
G01X1988969Y985402D01*
G01X1969093Y976133D01*
G01X1951128Y963554D01*
G01X1935621Y948047D01*
G01X1923042Y930082D01*
G01X1913774Y910206D01*
G01X1908098Y889023D01*
G01X1906186Y867175D01*
G01X1906186Y867175D01*
G01X1903814Y867175D01*
G01X1901902Y889023D01*
G01X1896226Y910206D01*
G01X1886958Y930082D01*
G01X1874379Y948047D01*
G01X1858872Y963554D01*
G01X1840907Y976133D01*
G01X1821031Y985402D01*
G01X1799847Y991078D01*
G01X1778000Y992989D01*
G01X1756153Y991078D01*
G01X1734969Y985402D01*
G01X1715093Y976133D01*
G01X1697128Y963554D01*
G01X1681621Y948047D01*
G01X1669042Y930082D01*
G01X1659774Y910206D01*
G01X1654098Y889023D01*
G01X1652186Y867175D01*
G01X1652186Y867175D01*
G01X1649814Y867175D01*
G01X1647902Y889023D01*
G01X1642226Y910206D01*
G01X1632958Y930082D01*
G01X1620379Y948047D01*
G01X1604872Y963554D01*
G01X1586907Y976133D01*
G01X1567031Y985402D01*
G01X1545847Y991078D01*
G01X1524000Y992989D01*
G01X1502153Y991078D01*
G01X1480969Y985402D01*
G01X1461093Y976133D01*
G01X1443128Y963554D01*
G01X1427621Y948047D01*
G01X1415042Y930082D01*
G01X1405774Y910206D01*
G01X1400098Y889023D01*
G01X1398186Y867175D01*
G01X1398186Y867175D01*
G01X1395814Y867175D01*
G01X1395814Y957175D01*
G01X1394061Y968242D01*
G01X1388974Y978226D01*
G01X1381051Y986149D01*
G01X1371067Y991236D01*
G01X1360000Y992989D01*
G01X1180000Y992989D01*
G01X1168933Y991236D01*
G01X1158949Y986149D01*
G01X1151026Y978226D01*
G01X1145939Y968242D01*
G01X1144186Y957175D01*
G01X320015Y957175D01*
G01X320015Y1141179D01*
G01X318262Y1152246D01*
G01X313175Y1162230D01*
G01X305252Y1170153D01*
G01X295268Y1175240D01*
G01X284201Y1176993D01*
G01X122199Y1176993D01*
G01X111132Y1175240D01*
G01X101148Y1170153D01*
G01X93225Y1162230D01*
G01X88138Y1152246D01*
G01X86385Y1141179D01*
G01X86385Y936541D01*
G01X48514Y936541D01*
G01X48514Y1374513D01*
G01X367287Y1374513D01*
G01X367287Y1173513D01*
G01X369039Y1162446D01*
G01X374126Y1152462D01*
G01X382050Y1144539D01*
G01X392033Y1139452D01*
G01X403101Y1137699D01*
G01X648368Y1137699D01*
G01X636831Y1125297D01*
G01X628294Y1110668D01*
G01X623170Y1094524D01*
G01X621708Y1077649D01*
G01X623981Y1060864D01*
G01X629877Y1044985D01*
G01X639110Y1030785D01*
G01X651230Y1018953D01*
G01X665649Y1010065D01*
G01X681665Y1004554D01*
G01X698500Y1002686D01*
G01X715335Y1004554D01*
G01X731351Y1010065D01*
G01X745770Y1018953D01*
G01X757890Y1030785D01*
G01X767123Y1044985D01*
G01X773019Y1060864D01*
G01X775292Y1077649D01*
G01X773830Y1094524D01*
G01X768706Y1110668D01*
G01X760169Y1125297D01*
G01X748632Y1137699D01*
G01X943099Y1137699D01*
G01X950710Y1138517D01*
G01X957972Y1140933D01*
G01X961147Y1135324D01*
G01X965276Y1130376D01*
G01X990676Y1104976D01*
G01X998093Y1099284D01*
G01X1006731Y1095706D01*
G01X1016000Y1094486D01*
G01X1219200Y1094486D01*
G01X1228469Y1095706D01*
G01X1237107Y1099284D01*
G01X1244524Y1104976D01*
G01X1257224Y1117676D01*
G01X1262916Y1125093D01*
G01X1266494Y1133731D01*
G01X1267714Y1143000D01*
G01X1267714Y1160380D01*
G01X1456779Y1160380D01*
G01X1458532Y1149313D01*
G01X1463619Y1139329D01*
G01X1471542Y1131406D01*
G01X1481526Y1126319D01*
G01X1492593Y1124566D01*
G01X1697342Y1124566D01*
G01X1708409Y1126319D01*
G01X1718393Y1131406D01*
G01X1726316Y1139329D01*
G01X1731403Y1149313D01*
G01X1733156Y1160380D01*
G01X1733156Y1379620D01*
G01X1731403Y1390687D01*
G01X1726316Y1400671D01*
G01X1718393Y1408594D01*
G01X1708409Y1413681D01*
G01X1697342Y1415434D01*
G01X1492593Y1415434D01*
G01X1481526Y1413681D01*
G01X1471542Y1408594D01*
G01X1463619Y1400671D01*
G01X1458532Y1390687D01*
G01X1456779Y1379620D01*
G01X1456779Y1160380D01*
G01X1456779Y1160380D01*
G01X1267714Y1160380D01*
G01X1267714Y1471065D01*
G01X1269924Y1473276D01*
G01X1275616Y1480693D01*
G01X1279194Y1489331D01*
G01X1280414Y1498600D01*
G01X1280414Y1943100D01*
G01X1279471Y1951263D01*
G01X1277841Y1955800D01*
G01X1373886Y1955800D01*
G01X1373886Y1524000D01*
G01X1375106Y1514731D01*
G01X1378684Y1506093D01*
G01X1384376Y1498676D01*
G01X1397076Y1485976D01*
G01X1404493Y1480284D01*
G01X1413131Y1476706D01*
G01X1422400Y1475486D01*
G01X1725065Y1475486D01*
G01X1742186Y1458365D01*
G01X1742186Y1155700D01*
G01X1743406Y1146431D01*
G01X1746984Y1137793D01*
G01X1752676Y1130376D01*
G01X1841576Y1041476D01*
G01X1848993Y1035784D01*
G01X1857631Y1032206D01*
G01X1866900Y1030986D01*
G01X2108200Y1030986D01*
G01X2117469Y1032206D01*
G01X2126107Y1035784D01*
G01X2133524Y1041476D01*
G01X2146224Y1054176D01*
G01X2151916Y1061593D01*
G01X2155494Y1070231D01*
G01X2156714Y1079500D01*
G01X2156714Y1666999D01*
G01X2344199Y1666999D01*
G01X2344199Y1127001D01*
G01X2345952Y1115933D01*
G01X2351039Y1105950D01*
G01X2358962Y1098026D01*
G01X2368946Y1092939D01*
G01X2380013Y1091187D01*
G01X2581013Y1091187D01*
G01X2592081Y1092939D01*
G01X2602064Y1098026D01*
G01X2609988Y1105950D01*
G01X2615075Y1115933D01*
G01X2616827Y1127001D01*
G01X2616827Y1666999D01*
G01X2616827Y1666999D01*
G01X2615075Y1678067D01*
G01X2609988Y1688050D01*
G01X2602064Y1695974D01*
G01X2592081Y1701061D01*
G01X2581013Y1702813D01*
G01X2380013Y1702813D01*
G01X2368946Y1701061D01*
G01X2358962Y1695974D01*
G01X2351039Y1688050D01*
G01X2345952Y1678067D01*
G01X2344199Y1666999D01*
G01X2156714Y1666999D01*
G01X2156714Y1696644D01*
G01X2155494Y1705913D01*
G01X2151916Y1714551D01*
G01X2146224Y1721968D01*
G01X2132906Y1735286D01*
G01X2192802Y1735286D01*
G01X2203869Y1737039D01*
G01X2213853Y1742126D01*
G01X2221776Y1750049D01*
G01X2226863Y1760033D01*
G01X2228616Y1771100D01*
G01X2228616Y1861100D01*
G01X2226863Y1872167D01*
G01X2221776Y1882151D01*
G01X2213853Y1890074D01*
G01X2203869Y1895161D01*
G01X2192802Y1896914D01*
G01X2118609Y1896914D01*
G01X2118609Y1922555D01*
G01X2117389Y1931824D01*
G01X2113811Y1940462D01*
G01X2108119Y1947879D01*
G01X2074874Y1981124D01*
G01X2065611Y1987810D01*
G01X2054714Y1991240D01*
G01X2054714Y2049408D01*
G01X2058821Y2058564D01*
G01X2060227Y2068500D01*
G01X2060227Y2122500D01*
G01X2058474Y2133567D01*
G01X2053387Y2143551D01*
G01X2045464Y2151474D01*
G01X2035480Y2156561D01*
G01X2024413Y2158314D01*
G01X2014146Y2158314D01*
G01X2014146Y2250589D01*
G01X2087910Y2250589D01*
G01X2098978Y2252341D01*
G01X2108961Y2257428D01*
G01X2116885Y2265352D01*
G01X2121972Y2275335D01*
G01X2123724Y2286403D01*
G01X2123724Y2384403D01*
G01X2121972Y2395471D01*
G01X2116885Y2405454D01*
G01X2108961Y2413378D01*
G01X2098978Y2418465D01*
G01X2087910Y2420217D01*
G01X1840911Y2420217D01*
G01X1829844Y2418465D01*
G01X1819860Y2413378D01*
G01X1811937Y2405454D01*
G01X1806850Y2395471D01*
G01X1805097Y2384403D01*
G01X1805097Y2286403D01*
G01X1806850Y2275335D01*
G01X1811937Y2265352D01*
G01X1819860Y2257428D01*
G01X1829844Y2252341D01*
G01X1840911Y2250589D01*
G01X1858507Y2250589D01*
G01X1853194Y2243311D01*
G01X1849866Y2234939D01*
G01X1848733Y2226000D01*
G01X1848733Y2193600D01*
G01X1850125Y2183711D01*
G01X1854194Y2174590D01*
G01X1860623Y2166948D01*
G01X1868913Y2161378D01*
G01X1878418Y2158314D01*
G01X1836387Y2158314D01*
G01X1825320Y2156561D01*
G01X1815336Y2151474D01*
G01X1807413Y2143551D01*
G01X1802326Y2133567D01*
G01X1800573Y2122500D01*
G01X1800573Y2068500D01*
G01X1802326Y2057433D01*
G01X1807413Y2047449D01*
G01X1815336Y2039526D01*
G01X1825320Y2034439D01*
G01X1836387Y2032686D01*
G01X1915396Y2032686D01*
G01X1923077Y2033519D01*
G01X1930400Y2035980D01*
G01X1933086Y2034871D01*
G01X1933086Y1993690D01*
G01X1931010Y1991614D01*
G01X1559814Y1991614D01*
G01X1559814Y2032490D01*
G01X1568912Y2044861D01*
G01X1574921Y2058994D01*
G01X1577518Y2074129D01*
G01X1576564Y2089456D01*
G01X1572110Y2104153D01*
G01X1564394Y2117431D01*
G01X1553832Y2128578D01*
G01X1540989Y2136997D01*
G01X1526553Y2142236D01*
G01X1511300Y2144014D01*
G01X1496047Y2142236D01*
G01X1481611Y2136997D01*
G01X1468768Y2128578D01*
G01X1458206Y2117431D01*
G01X1450490Y2104153D01*
G01X1446036Y2089456D01*
G01X1445082Y2074129D01*
G01X1447679Y2058994D01*
G01X1453688Y2044861D01*
G01X1462786Y2032490D01*
G01X1462786Y1991614D01*
G01X1409700Y1991614D01*
G01X1409700Y1991614D01*
G01X1398633Y1989861D01*
G01X1388649Y1984774D01*
G01X1380726Y1976851D01*
G01X1375639Y1966867D01*
G01X1373886Y1955800D01*
G01X1277841Y1955800D01*
G01X1276693Y1958995D01*
G01X1272226Y1965892D01*
G01X1267925Y1972946D01*
G01X1262123Y1978827D01*
G01X1255127Y1983221D01*
G01X1206424Y2031924D01*
G01X1204214Y2033957D01*
G01X1204214Y2143681D01*
G01X1202814Y2153598D01*
G01X1198722Y2162740D01*
G01X1192259Y2170391D01*
G01X1193724Y2171776D01*
G01X1206424Y2184476D01*
G01X1212116Y2191893D01*
G01X1215694Y2200531D01*
G01X1216914Y2209800D01*
G01X1216914Y2295387D01*
G01X1215694Y2304656D01*
G01X1212116Y2313294D01*
G01X1206424Y2320711D01*
G01X1170245Y2356891D01*
G01X1162827Y2362582D01*
G01X1154190Y2366160D01*
G01X1144920Y2367381D01*
G01X1061468Y2367381D01*
G01X1003224Y2425624D01*
G01X995807Y2431316D01*
G01X987169Y2434894D01*
G01X977900Y2436114D01*
G01X838200Y2436114D01*
G01X828455Y2434763D01*
G01X819446Y2430811D01*
G01X811851Y2424557D01*
G01X806245Y2416472D01*
G01X794151Y2425177D01*
G01X780408Y2430937D01*
G01X765721Y2433459D01*
G01X750844Y2432611D01*
G01X736539Y2428439D01*
G01X723539Y2421156D01*
G01X712510Y2411135D01*
G01X704019Y2398890D01*
G01X698500Y2385048D01*
G01X692656Y2399488D01*
G01X683582Y2412149D01*
G01X671786Y2422323D01*
G01X657930Y2429440D01*
G01X642789Y2433101D01*
G01X627211Y2433101D01*
G01X612070Y2429440D01*
G01X598214Y2422323D01*
G01X586418Y2412149D01*
G01X577344Y2399488D01*
G01X571500Y2385048D01*
G01X565632Y2399531D01*
G01X556514Y2412223D01*
G01X556514Y2507205D01*
G01X586536Y2537227D01*
G01X601718Y2539541D01*
G01X615959Y2545286D01*
G01X628498Y2554152D01*
G01X638661Y2565664D01*
G01X645904Y2579206D01*
G01X649837Y2594050D01*
G01X650251Y2609401D01*
G01X647122Y2624436D01*
G01X640620Y2638348D01*
G01X631091Y2650391D01*
G01X619048Y2659920D01*
G01X605136Y2666422D01*
G01X590101Y2669551D01*
G01X574750Y2669137D01*
G01X559906Y2665204D01*
G01X546364Y2657961D01*
G01X534852Y2647798D01*
G01X525986Y2635259D01*
G01X520241Y2621018D01*
G01X517927Y2605836D01*
G01X473695Y2561605D01*
G01X465986Y2551557D01*
G01X461139Y2539856D01*
G01X459486Y2527300D01*
G01X459486Y2412223D01*
G01X450075Y2398993D01*
G01X444189Y2383862D01*
G01X442186Y2367750D01*
G01X442186Y2267750D01*
G01X444034Y2252263D01*
G01X449475Y2237646D01*
G01X458202Y2224720D01*
G01X469726Y2214210D01*
G01X483399Y2206707D01*
G01X498454Y2202632D01*
G01X514045Y2202214D01*
G01X507895Y2194650D01*
G01X504013Y2185708D01*
G01X502686Y2176050D01*
G01X502686Y1926050D01*
G01X504439Y1914983D01*
G01X509526Y1904999D01*
G01X517449Y1897076D01*
G01X527433Y1891989D01*
G01X538500Y1890236D01*
G01X840338Y1890236D01*
G01X833563Y1882509D01*
G01X829261Y1873176D01*
G01X827786Y1863005D01*
G01X827786Y1863005D01*
G01X827786Y1845823D01*
G01X825500Y1838948D01*
G01X819656Y1853388D01*
G01X810582Y1866049D01*
G01X798786Y1876223D01*
G01X784930Y1883340D01*
G01X769789Y1887001D01*
G01X754211Y1887001D01*
G01X739070Y1883340D01*
G01X725214Y1876223D01*
G01X713418Y1866049D01*
G01X704344Y1853388D01*
G01X698500Y1838948D01*
G01X692656Y1853388D01*
G01X683582Y1866049D01*
G01X671786Y1876223D01*
G01X657930Y1883340D01*
G01X642789Y1887001D01*
G01X627211Y1887001D01*
G01X612070Y1883340D01*
G01X598214Y1876223D01*
G01X586418Y1866049D01*
G01X577344Y1853388D01*
G01X571500Y1838948D01*
G01X565580Y1853525D01*
G01X556369Y1866281D01*
G01X544393Y1876486D01*
G01X530338Y1883557D01*
G01X515006Y1887090D01*
G01X499274Y1886883D01*
G01X484040Y1882948D01*
G01X470176Y1875509D01*
G01X458473Y1864993D01*
G01X449601Y1851999D01*
G01X444067Y1837271D01*
G01X442186Y1821650D01*
G01X442186Y1771650D01*
G01X442186Y1665101D01*
G01X432101Y1660054D01*
G01X424086Y1652120D01*
G01X418935Y1642087D01*
G01X417159Y1630951D01*
G01X417159Y1493249D01*
G01X418912Y1482182D01*
G01X423999Y1472199D01*
G01X431922Y1464275D01*
G01X441906Y1459188D01*
G01X452973Y1457435D01*
G01X566227Y1457435D01*
G01X577294Y1459188D01*
G01X587278Y1464275D01*
G01X595201Y1472199D01*
G01X600288Y1482182D01*
G01X602041Y1493249D01*
G01X602041Y1630951D01*
G01X600729Y1640554D01*
G01X596891Y1649454D01*
G01X590806Y1656999D01*
G01X582922Y1662635D01*
G01X573814Y1665952D01*
G01X573814Y1697407D01*
G01X580441Y1684843D01*
G01X589609Y1673993D01*
G01X600892Y1665364D01*
G01X613764Y1659356D01*
G01X627625Y1656251D01*
G01X621946Y1648838D01*
G01X618376Y1640209D01*
G01X617159Y1630951D01*
G01X617159Y1493249D01*
G01X619152Y1481470D01*
G01X624907Y1471002D01*
G01X633786Y1463009D01*
G01X633786Y1410327D01*
G01X403101Y1410327D01*
G01X392033Y1408575D01*
G01X382050Y1403488D01*
G01X374126Y1395564D01*
G01X369039Y1385581D01*
G01X367287Y1374513D01*
G01X48514Y1374513D01*
G01X48514Y1449621D01*
G01X86385Y1449621D01*
G01X88138Y1438554D01*
G01X93225Y1428570D01*
G01X101148Y1420647D01*
G01X111132Y1415560D01*
G01X122199Y1413807D01*
G01X284201Y1413807D01*
G01X295268Y1415560D01*
G01X305252Y1420647D01*
G01X313175Y1428570D01*
G01X318262Y1438554D01*
G01X320015Y1449621D01*
G01X320015Y1586184D01*
G01X321856Y1589825D01*
G01X338498Y1587012D01*
G01X355352Y1587902D01*
G01X371605Y1592451D01*
G01X386472Y1600440D01*
G01X399236Y1611483D01*
G01X409280Y1625047D01*
G01X416119Y1640476D01*
G01X419424Y1657027D01*
G01X419034Y1673901D01*
G01X414968Y1690281D01*
G01X407423Y1705379D01*
G01X396764Y1718464D01*
G01X383503Y1728905D01*
G01X368283Y1736199D01*
G01X370015Y1747200D01*
G01X370015Y1888200D01*
G01X368167Y1899556D01*
G01X362814Y1909739D01*
G01X354509Y1917700D01*
G01X362814Y1925661D01*
G01X368167Y1935844D01*
G01X370015Y1947200D01*
G01X370015Y2088200D01*
G01X368262Y2099267D01*
G01X363175Y2109251D01*
G01X355251Y2117174D01*
G01X345268Y2122261D01*
G01X334201Y2124014D01*
G01X199200Y2124014D01*
G01X188132Y2122261D01*
G01X178149Y2117174D01*
G01X170225Y2109251D01*
G01X165138Y2099267D01*
G01X163386Y2088200D01*
G01X163386Y1947200D01*
G01X165233Y1935844D01*
G01X170586Y1925661D01*
G01X178891Y1917700D01*
G01X170586Y1909739D01*
G01X165233Y1899556D01*
G01X163386Y1888200D01*
G01X163386Y1747200D01*
G01X165138Y1736133D01*
G01X170225Y1726149D01*
G01X178149Y1718226D01*
G01X188132Y1713139D01*
G01X199200Y1711386D01*
G01X205886Y1711386D01*
G01X205886Y1690073D01*
G01X205886Y1690073D01*
G01X122199Y1690073D01*
G01X111132Y1688320D01*
G01X101148Y1683233D01*
G01X93225Y1675310D01*
G01X88138Y1665326D01*
G01X86385Y1654259D01*
G01X86385Y1449621D01*
G01X48514Y1449621D01*
G01X48514Y2844397D01*
G01X1805097Y2844397D01*
G01X1805097Y2746397D01*
G01X1806850Y2735329D01*
G01X1811937Y2725346D01*
G01X1819860Y2717422D01*
G01X1829844Y2712335D01*
G01X1840911Y2710583D01*
G01X2087910Y2710583D01*
G01X2098978Y2712335D01*
G01X2108961Y2717422D01*
G01X2116885Y2725346D01*
G01X2121972Y2735329D01*
G01X2123724Y2746397D01*
G01X2123724Y2844397D01*
G01X2123724Y2844397D01*
G01X2121972Y2855465D01*
G01X2116885Y2865448D01*
G01X2108961Y2873372D01*
G01X2098978Y2878459D01*
G01X2087910Y2880211D01*
G01X1840911Y2880211D01*
G01X1829844Y2878459D01*
G01X1819860Y2873372D01*
G01X1811937Y2865448D01*
G01X1806850Y2855465D01*
G01X1805097Y2844397D01*
G01X48514Y2844397D01*
G01X48514Y3201500D01*
G01X1144186Y3201500D01*
G01X1144186Y3021500D01*
G01X1145939Y3010433D01*
G01X1151026Y3000449D01*
G01X1158949Y2992526D01*
G01X1168933Y2987439D01*
G01X1180000Y2985686D01*
G01X1360000Y2985686D01*
G01X1360000Y2985686D01*
G01X1371067Y2987439D01*
G01X1381051Y2992526D01*
G01X1388974Y3000449D01*
G01X1394061Y3010433D01*
G01X1395814Y3021500D01*
G01X1395814Y3115558D01*
G01X1398252Y3115558D01*
G01X1399504Y3093339D01*
G01X1404651Y3071689D01*
G01X1413532Y3051284D01*
G01X1425869Y3032763D01*
G01X1441277Y3016705D01*
G01X1459272Y3003614D01*
G01X1479293Y2993897D01*
G01X1500712Y2987860D01*
G01X1522860Y2985691D01*
G01X1545044Y2987459D01*
G01X1566569Y2993107D01*
G01X1586762Y3002459D01*
G01X1604992Y3015222D01*
G01X1620688Y3030998D01*
G01X1633359Y3049292D01*
G01X1642608Y3069533D01*
G01X1648147Y3091086D01*
G01X1649669Y3111500D01*
G01X1652186Y3111500D01*
G01X1654098Y3089653D01*
G01X1659774Y3068469D01*
G01X1669042Y3048593D01*
G01X1681621Y3030628D01*
G01X1697128Y3015121D01*
G01X1715093Y3002542D01*
G01X1734969Y2993274D01*
G01X1756153Y2987598D01*
G01X1778000Y2985686D01*
G01X1799847Y2987598D01*
G01X1821031Y2993274D01*
G01X1840907Y3002542D01*
G01X1858872Y3015121D01*
G01X1874379Y3030628D01*
G01X1886958Y3048593D01*
G01X1896226Y3068469D01*
G01X1901902Y3089653D01*
G01X1903814Y3111500D01*
G01X1906186Y3111500D01*
G01X1908098Y3089653D01*
G01X1913774Y3068469D01*
G01X1923042Y3048593D01*
G01X1935621Y3030628D01*
G01X1951128Y3015121D01*
G01X1969093Y3002542D01*
G01X1988969Y2993274D01*
G01X2010153Y2987598D01*
G01X2032000Y2985686D01*
G01X2053847Y2987598D01*
G01X2075031Y2993274D01*
G01X2094907Y3002542D01*
G01X2112872Y3015121D01*
G01X2128379Y3030628D01*
G01X2140958Y3048593D01*
G01X2150226Y3068469D01*
G01X2155902Y3089653D01*
G01X2157814Y3111500D01*
G01X2155902Y3133347D01*
G01X2150226Y3154531D01*
G01X2140958Y3174407D01*
G01X2128379Y3192372D01*
G01X2112872Y3207879D01*
G01X2094907Y3220458D01*
G01X2075031Y3229726D01*
G01X2053847Y3235402D01*
G01X2032000Y3237314D01*
G01X2010153Y3235402D01*
G01X1988969Y3229726D01*
G01X1969093Y3220458D01*
G01X1951128Y3207879D01*
G01X1935621Y3192372D01*
G01X1923042Y3174407D01*
G01X1913774Y3154531D01*
G01X1908098Y3133347D01*
G01X1906186Y3111500D01*
G01X1906186Y3111500D01*
G01X1903814Y3111500D01*
G01X1901902Y3133347D01*
G01X1896226Y3154531D01*
G01X1886958Y3174407D01*
G01X1874379Y3192372D01*
G01X1858872Y3207879D01*
G01X1840907Y3220458D01*
G01X1821031Y3229726D01*
G01X1799847Y3235402D01*
G01X1778000Y3237314D01*
G01X1756153Y3235402D01*
G01X1734969Y3229726D01*
G01X1715093Y3220458D01*
G01X1697128Y3207879D01*
G01X1681621Y3192372D01*
G01X1669042Y3174407D01*
G01X1659774Y3154531D01*
G01X1654098Y3133347D01*
G01X1652186Y3111500D01*
G01X1652186Y3111500D01*
G01X1649669Y3111500D01*
G01X1649801Y3113278D01*
G01X1647520Y3135415D01*
G01X1641374Y3156803D01*
G01X1631556Y3176774D01*
G01X1618373Y3194703D01*
G01X1602238Y3210029D01*
G01X1747295Y3355086D01*
G01X6266405Y3355086D01*
G01X6517386Y3104105D01*
G01X6517386Y2955858D01*
G01X6502518Y2960663D01*
G01X6486939Y2961857D01*
G01X6471513Y2959371D01*
G01X6457096Y2953346D01*
G01X6444490Y2944114D01*
G01X6324600Y2944114D01*
G01X6312044Y2942461D01*
G01X6300343Y2937614D01*
G01X6290295Y2929905D01*
G01X6252195Y2891805D01*
G01X6244486Y2881757D01*
G01X6239639Y2870056D01*
G01X6237986Y2857500D01*
G01X6237986Y2740860D01*
G01X6239639Y2728304D01*
G01X6244486Y2716603D01*
G01X6252195Y2706556D01*
G01X6270156Y2688595D01*
G01X6280204Y2680885D01*
G01X6291904Y2676039D01*
G01X6304461Y2674386D01*
G01X6534722Y2674386D01*
G01X6534722Y2627300D01*
G01X6536423Y2616393D01*
G01X6541365Y2606522D01*
G01X6549078Y2598625D01*
G01X6558831Y2593453D01*
G01X6569695Y2591496D01*
G01X6574264Y2579989D01*
G01X6581596Y2570014D01*
G01X6506698Y2570014D01*
G01X6495631Y2568261D01*
G01X6485647Y2563174D01*
G01X6477724Y2555251D01*
G01X6472637Y2545267D01*
G01X6470884Y2534200D01*
G01X6470884Y2444200D01*
G01X6472637Y2433133D01*
G01X6477724Y2423149D01*
G01X6485647Y2415226D01*
G01X6495631Y2410139D01*
G01X6506698Y2408386D01*
G01X6586698Y2408386D01*
G01X6598338Y2410331D01*
G01X6608714Y2415953D01*
G01X6616700Y2424643D01*
G01X6620414Y2419878D01*
G01X6624876Y2415806D01*
G01X6620919Y2400199D01*
G01X6620840Y2384098D01*
G01X6624644Y2368453D01*
G01X6632107Y2354186D01*
G01X6629400Y2350557D01*
G01X6621414Y2359247D01*
G01X6611038Y2364869D01*
G01X6599398Y2366814D01*
G01X6519398Y2366814D01*
G01X6508331Y2365061D01*
G01X6498347Y2359974D01*
G01X6490424Y2352051D01*
G01X6485337Y2342067D01*
G01X6483584Y2331000D01*
G01X6483584Y2241000D01*
G01X6484577Y2232623D01*
G01X6487503Y2224710D01*
G01X4688745Y2224710D01*
G01X3986051Y2927404D01*
G01X3976003Y2935114D01*
G01X3964302Y2939961D01*
G01X3951746Y2941614D01*
G01X3540495Y2941614D01*
G01X3418388Y3063721D01*
G01X3424838Y3084298D01*
G01X3427679Y3105674D01*
G01X3427449Y3111500D01*
G01X3430186Y3111500D01*
G01X3432098Y3089653D01*
G01X3437774Y3068469D01*
G01X3447042Y3048593D01*
G01X3459621Y3030628D01*
G01X3475128Y3015121D01*
G01X3493093Y3002542D01*
G01X3512969Y2993274D01*
G01X3534153Y2987598D01*
G01X3556000Y2985686D01*
G01X3577847Y2987598D01*
G01X3599031Y2993274D01*
G01X3618907Y3002542D01*
G01X3636872Y3015121D01*
G01X3652379Y3030628D01*
G01X3664958Y3048593D01*
G01X3674226Y3068469D01*
G01X3679902Y3089653D01*
G01X3681814Y3111500D01*
G01X3684186Y3111500D01*
G01X3686098Y3089653D01*
G01X3691774Y3068469D01*
G01X3701042Y3048593D01*
G01X3713621Y3030628D01*
G01X3729128Y3015121D01*
G01X3747093Y3002542D01*
G01X3766969Y2993274D01*
G01X3788153Y2987598D01*
G01X3810000Y2985686D01*
G01X3831847Y2987598D01*
G01X3853031Y2993274D01*
G01X3872907Y3002542D01*
G01X3890872Y3015121D01*
G01X3906379Y3030628D01*
G01X3918958Y3048593D01*
G01X3928226Y3068469D01*
G01X3933902Y3089653D01*
G01X3935814Y3111500D01*
G01X3938186Y3111500D01*
G01X3940098Y3089653D01*
G01X3945774Y3068469D01*
G01X3955042Y3048593D01*
G01X3967621Y3030628D01*
G01X3983128Y3015121D01*
G01X4001093Y3002542D01*
G01X4020969Y2993274D01*
G01X4042153Y2987598D01*
G01X4064000Y2985686D01*
G01X4085847Y2987598D01*
G01X4107031Y2993274D01*
G01X4126907Y3002542D01*
G01X4144872Y3015121D01*
G01X4160379Y3030628D01*
G01X4172958Y3048593D01*
G01X4182226Y3068469D01*
G01X4187902Y3089653D01*
G01X4189814Y3111500D01*
G01X4192186Y3111500D01*
G01X4194098Y3089653D01*
G01X4199774Y3068469D01*
G01X4209042Y3048593D01*
G01X4221621Y3030628D01*
G01X4237128Y3015121D01*
G01X4255093Y3002542D01*
G01X4274969Y2993274D01*
G01X4296153Y2987598D01*
G01X4318000Y2985686D01*
G01X4339847Y2987598D01*
G01X4361031Y2993274D01*
G01X4380907Y3002542D01*
G01X4398872Y3015121D01*
G01X4414379Y3030628D01*
G01X4426958Y3048593D01*
G01X4436226Y3068469D01*
G01X4441902Y3089653D01*
G01X4443814Y3111500D01*
G01X4446186Y3111500D01*
G01X4448098Y3089653D01*
G01X4453774Y3068469D01*
G01X4463042Y3048593D01*
G01X4475621Y3030628D01*
G01X4491128Y3015121D01*
G01X4509093Y3002542D01*
G01X4528969Y2993274D01*
G01X4550153Y2987598D01*
G01X4572000Y2985686D01*
G01X4593847Y2987598D01*
G01X4615031Y2993274D01*
G01X4634907Y3002542D01*
G01X4652872Y3015121D01*
G01X4668379Y3030628D01*
G01X4680958Y3048593D01*
G01X4690226Y3068469D01*
G01X4695902Y3089653D01*
G01X4697814Y3111500D01*
G01X4700186Y3111500D01*
G01X4702098Y3089653D01*
G01X4707774Y3068469D01*
G01X4717042Y3048593D01*
G01X4729621Y3030628D01*
G01X4745128Y3015121D01*
G01X4763093Y3002542D01*
G01X4782969Y2993274D01*
G01X4804153Y2987598D01*
G01X4826000Y2985686D01*
G01X4847847Y2987598D01*
G01X4869031Y2993274D01*
G01X4888907Y3002542D01*
G01X4906872Y3015121D01*
G01X4922379Y3030628D01*
G01X4934958Y3048593D01*
G01X4944226Y3068469D01*
G01X4949902Y3089653D01*
G01X4951814Y3111500D01*
G01X4954186Y3111500D01*
G01X4956098Y3089653D01*
G01X4961774Y3068469D01*
G01X4971042Y3048593D01*
G01X4983621Y3030628D01*
G01X4999128Y3015121D01*
G01X5017093Y3002542D01*
G01X5036969Y2993274D01*
G01X5058153Y2987598D01*
G01X5080000Y2985686D01*
G01X5101847Y2987598D01*
G01X5123031Y2993274D01*
G01X5142907Y3002542D01*
G01X5160872Y3015121D01*
G01X5176379Y3030628D01*
G01X5188958Y3048593D01*
G01X5198226Y3068469D01*
G01X5203902Y3089653D01*
G01X5205814Y3111500D01*
G01X5208186Y3111500D01*
G01X5210098Y3089653D01*
G01X5215774Y3068469D01*
G01X5225042Y3048593D01*
G01X5237621Y3030628D01*
G01X5253128Y3015121D01*
G01X5271093Y3002542D01*
G01X5290969Y2993274D01*
G01X5312153Y2987598D01*
G01X5334000Y2985686D01*
G01X5355847Y2987598D01*
G01X5377031Y2993274D01*
G01X5396907Y3002542D01*
G01X5414872Y3015121D01*
G01X5430379Y3030628D01*
G01X5442958Y3048593D01*
G01X5452226Y3068469D01*
G01X5457902Y3089653D01*
G01X5459814Y3111500D01*
G01X5462186Y3111500D01*
G01X5464098Y3089653D01*
G01X5469774Y3068469D01*
G01X5479042Y3048593D01*
G01X5491621Y3030628D01*
G01X5507128Y3015121D01*
G01X5525093Y3002542D01*
G01X5544969Y2993274D01*
G01X5566153Y2987598D01*
G01X5588000Y2985686D01*
G01X5609847Y2987598D01*
G01X5631031Y2993274D01*
G01X5650907Y3002542D01*
G01X5668872Y3015121D01*
G01X5684379Y3030628D01*
G01X5696958Y3048593D01*
G01X5706226Y3068469D01*
G01X5711902Y3089653D01*
G01X5713814Y3111500D01*
G01X5716186Y3111500D01*
G01X5718098Y3089653D01*
G01X5723774Y3068469D01*
G01X5733042Y3048593D01*
G01X5745621Y3030628D01*
G01X5761128Y3015121D01*
G01X5779093Y3002542D01*
G01X5798969Y2993274D01*
G01X5820153Y2987598D01*
G01X5842000Y2985686D01*
G01X5863847Y2987598D01*
G01X5885031Y2993274D01*
G01X5904907Y3002542D01*
G01X5922872Y3015121D01*
G01X5938379Y3030628D01*
G01X5950958Y3048593D01*
G01X5960226Y3068469D01*
G01X5965902Y3089653D01*
G01X5967814Y3111500D01*
G01X5970186Y3111500D01*
G01X5972098Y3089653D01*
G01X5977774Y3068469D01*
G01X5987042Y3048593D01*
G01X5999621Y3030628D01*
G01X6015128Y3015121D01*
G01X6033093Y3002542D01*
G01X6052969Y2993274D01*
G01X6074153Y2987598D01*
G01X6096000Y2985686D01*
G01X6117847Y2987598D01*
G01X6139031Y2993274D01*
G01X6158907Y3002542D01*
G01X6176872Y3015121D01*
G01X6192379Y3030628D01*
G01X6204958Y3048593D01*
G01X6214226Y3068469D01*
G01X6219902Y3089653D01*
G01X6221814Y3111500D01*
G01X6219902Y3133347D01*
G01X6214226Y3154531D01*
G01X6204958Y3174407D01*
G01X6192379Y3192372D01*
G01X6176872Y3207879D01*
G01X6158907Y3220458D01*
G01X6139031Y3229726D01*
G01X6117847Y3235402D01*
G01X6096000Y3237314D01*
G01X6074153Y3235402D01*
G01X6052969Y3229726D01*
G01X6033093Y3220458D01*
G01X6015128Y3207879D01*
G01X5999621Y3192372D01*
G01X5987042Y3174407D01*
G01X5977774Y3154531D01*
G01X5972098Y3133347D01*
G01X5970186Y3111500D01*
G01X5970186Y3111500D01*
G01X5967814Y3111500D01*
G01X5965902Y3133347D01*
G01X5960226Y3154531D01*
G01X5950958Y3174407D01*
G01X5938379Y3192372D01*
G01X5922872Y3207879D01*
G01X5904907Y3220458D01*
G01X5885031Y3229726D01*
G01X5863847Y3235402D01*
G01X5842000Y3237314D01*
G01X5820153Y3235402D01*
G01X5798969Y3229726D01*
G01X5779093Y3220458D01*
G01X5761128Y3207879D01*
G01X5745621Y3192372D01*
G01X5733042Y3174407D01*
G01X5723774Y3154531D01*
G01X5718098Y3133347D01*
G01X5716186Y3111500D01*
G01X5716186Y3111500D01*
G01X5713814Y3111500D01*
G01X5711902Y3133347D01*
G01X5706226Y3154531D01*
G01X5696958Y3174407D01*
G01X5684379Y3192372D01*
G01X5668872Y3207879D01*
G01X5650907Y3220458D01*
G01X5631031Y3229726D01*
G01X5609847Y3235402D01*
G01X5588000Y3237314D01*
G01X5566153Y3235402D01*
G01X5544969Y3229726D01*
G01X5525093Y3220458D01*
G01X5507128Y3207879D01*
G01X5491621Y3192372D01*
G01X5479042Y3174407D01*
G01X5469774Y3154531D01*
G01X5464098Y3133347D01*
G01X5462186Y3111500D01*
G01X5462186Y3111500D01*
G01X5459814Y3111500D01*
G01X5457902Y3133347D01*
G01X5452226Y3154531D01*
G01X5442958Y3174407D01*
G01X5430379Y3192372D01*
G01X5414872Y3207879D01*
G01X5396907Y3220458D01*
G01X5377031Y3229726D01*
G01X5355847Y3235402D01*
G01X5334000Y3237314D01*
G01X5312153Y3235402D01*
G01X5290969Y3229726D01*
G01X5271093Y3220458D01*
G01X5253128Y3207879D01*
G01X5237621Y3192372D01*
G01X5225042Y3174407D01*
G01X5215774Y3154531D01*
G01X5210098Y3133347D01*
G01X5208186Y3111500D01*
G01X5208186Y3111500D01*
G01X5205814Y3111500D01*
G01X5203902Y3133347D01*
G01X5198226Y3154531D01*
G01X5188958Y3174407D01*
G01X5176379Y3192372D01*
G01X5160872Y3207879D01*
G01X5142907Y3220458D01*
G01X5123031Y3229726D01*
G01X5101847Y3235402D01*
G01X5080000Y3237314D01*
G01X5058153Y3235402D01*
G01X5036969Y3229726D01*
G01X5017093Y3220458D01*
G01X4999128Y3207879D01*
G01X4983621Y3192372D01*
G01X4971042Y3174407D01*
G01X4961774Y3154531D01*
G01X4956098Y3133347D01*
G01X4954186Y3111500D01*
G01X4954186Y3111500D01*
G01X4951814Y3111500D01*
G01X4949902Y3133347D01*
G01X4944226Y3154531D01*
G01X4934958Y3174407D01*
G01X4922379Y3192372D01*
G01X4906872Y3207879D01*
G01X4888907Y3220458D01*
G01X4869031Y3229726D01*
G01X4847847Y3235402D01*
G01X4826000Y3237314D01*
G01X4804153Y3235402D01*
G01X4782969Y3229726D01*
G01X4763093Y3220458D01*
G01X4745128Y3207879D01*
G01X4729621Y3192372D01*
G01X4717042Y3174407D01*
G01X4707774Y3154531D01*
G01X4702098Y3133347D01*
G01X4700186Y3111500D01*
G01X4700186Y3111500D01*
G01X4697814Y3111500D01*
G01X4695902Y3133347D01*
G01X4690226Y3154531D01*
G01X4680958Y3174407D01*
G01X4668379Y3192372D01*
G01X4652872Y3207879D01*
G01X4634907Y3220458D01*
G01X4615031Y3229726D01*
G01X4593847Y3235402D01*
G01X4572000Y3237314D01*
G01X4550153Y3235402D01*
G01X4528969Y3229726D01*
G01X4509093Y3220458D01*
G01X4491128Y3207879D01*
G01X4475621Y3192372D01*
G01X4463042Y3174407D01*
G01X4453774Y3154531D01*
G01X4448098Y3133347D01*
G01X4446186Y3111500D01*
G01X4446186Y3111500D01*
G01X4443814Y3111500D01*
G01X4441902Y3133347D01*
G01X4436226Y3154531D01*
G01X4426958Y3174407D01*
G01X4414379Y3192372D01*
G01X4398872Y3207879D01*
G01X4380907Y3220458D01*
G01X4361031Y3229726D01*
G01X4339847Y3235402D01*
G01X4318000Y3237314D01*
G01X4296153Y3235402D01*
G01X4274969Y3229726D01*
G01X4255093Y3220458D01*
G01X4237128Y3207879D01*
G01X4221621Y3192372D01*
G01X4209042Y3174407D01*
G01X4199774Y3154531D01*
G01X4194098Y3133347D01*
G01X4192186Y3111500D01*
G01X4192186Y3111500D01*
G01X4189814Y3111500D01*
G01X4187902Y3133347D01*
G01X4182226Y3154531D01*
G01X4172958Y3174407D01*
G01X4160379Y3192372D01*
G01X4144872Y3207879D01*
G01X4126907Y3220458D01*
G01X4107031Y3229726D01*
G01X4085847Y3235402D01*
G01X4064000Y3237314D01*
G01X4042153Y3235402D01*
G01X4020969Y3229726D01*
G01X4001093Y3220458D01*
G01X3983128Y3207879D01*
G01X3967621Y3192372D01*
G01X3955042Y3174407D01*
G01X3945774Y3154531D01*
G01X3940098Y3133347D01*
G01X3938186Y3111500D01*
G01X3938186Y3111500D01*
G01X3935814Y3111500D01*
G01X3933902Y3133347D01*
G01X3928226Y3154531D01*
G01X3918958Y3174407D01*
G01X3906379Y3192372D01*
G01X3890872Y3207879D01*
G01X3872907Y3220458D01*
G01X3853031Y3229726D01*
G01X3831847Y3235402D01*
G01X3810000Y3237314D01*
G01X3788153Y3235402D01*
G01X3766969Y3229726D01*
G01X3747093Y3220458D01*
G01X3729128Y3207879D01*
G01X3713621Y3192372D01*
G01X3701042Y3174407D01*
G01X3691774Y3154531D01*
G01X3686098Y3133347D01*
G01X3684186Y3111500D01*
G01X3684186Y3111500D01*
G01X3681814Y3111500D01*
G01X3679902Y3133347D01*
G01X3674226Y3154531D01*
G01X3664958Y3174407D01*
G01X3652379Y3192372D01*
G01X3636872Y3207879D01*
G01X3618907Y3220458D01*
G01X3599031Y3229726D01*
G01X3577847Y3235402D01*
G01X3556000Y3237314D01*
G01X3534153Y3235402D01*
G01X3512969Y3229726D01*
G01X3493093Y3220458D01*
G01X3475128Y3207879D01*
G01X3459621Y3192372D01*
G01X3447042Y3174407D01*
G01X3437774Y3154531D01*
G01X3432098Y3133347D01*
G01X3430186Y3111500D01*
G01X3430186Y3111500D01*
G01X3427449Y3111500D01*
G01X3426828Y3127222D01*
G01X3422309Y3148307D01*
G01X3414257Y3168311D01*
G01X3402906Y3186647D01*
G01X3388592Y3202774D01*
G01X3371733Y3216221D01*
G01X3352826Y3226591D01*
G01X3332426Y3233579D01*
G01X3311132Y3236982D01*
G01X3289569Y3236698D01*
G01X3268372Y3232736D01*
G01X3248163Y3225213D01*
G01X3229535Y3214349D01*
G01X3213036Y3200464D01*
G01X3199151Y3183965D01*
G01X3188287Y3165337D01*
G01X3180764Y3145128D01*
G01X3176802Y3123931D01*
G01X3176518Y3102368D01*
G01X3179921Y3081074D01*
G01X3186909Y3060674D01*
G01X3197279Y3041767D01*
G01X3210726Y3024908D01*
G01X3226853Y3010594D01*
G01X3245189Y2999243D01*
G01X3265193Y2991191D01*
G01X3286278Y2986672D01*
G01X3307826Y2985821D01*
G01X3329202Y2988662D01*
G01X3349779Y2995112D01*
G01X3438877Y2906014D01*
G01X3131310Y2906014D01*
G01X3118939Y2915112D01*
G01X3104806Y2921121D01*
G01X3089671Y2923718D01*
G01X3074344Y2922764D01*
G01X3059647Y2918310D01*
G01X3046369Y2910594D01*
G01X3035222Y2900032D01*
G01X3026803Y2887189D01*
G01X3021564Y2872753D01*
G01X3019786Y2857500D01*
G01X3021564Y2842247D01*
G01X3026803Y2827811D01*
G01X3035222Y2814968D01*
G01X3046369Y2804406D01*
G01X3059647Y2796690D01*
G01X3074344Y2792236D01*
G01X3089671Y2791282D01*
G01X3104806Y2793879D01*
G01X3118939Y2799888D01*
G01X3131310Y2808986D01*
G01X3916905Y2808986D01*
G01X4142486Y2583405D01*
G01X4142486Y2044700D01*
G01X4144139Y2032144D01*
G01X4148986Y2020443D01*
G01X4156695Y2010395D01*
G01X5165925Y1001165D01*
G01X5165925Y959077D01*
G01X5148277Y972851D01*
G01X5128466Y983279D01*
G01X5107121Y990031D01*
G01X5084916Y992893D01*
G01X5062557Y991774D01*
G01X5040749Y986710D01*
G01X5020185Y977861D01*
G01X5001514Y965507D01*
G01X5001514Y1079500D01*
G01X4999861Y1092056D01*
G01X4995014Y1103757D01*
G01X4987305Y1113805D01*
G01X4949205Y1151905D01*
G01X4939157Y1159614D01*
G01X4927456Y1164461D01*
G01X4914900Y1166114D01*
G01X4338095Y1166114D01*
G01X3566414Y1937795D01*
G01X3566414Y2081703D01*
G01X3705988Y2081703D01*
G01X3707741Y2070636D01*
G01X3712828Y2060652D01*
G01X3720751Y2052729D01*
G01X3730735Y2047642D01*
G01X3741802Y2045889D01*
G01X3951802Y2045889D01*
G01X3962869Y2047642D01*
G01X3972853Y2052729D01*
G01X3980776Y2060652D01*
G01X3985863Y2070636D01*
G01X3987616Y2081703D01*
G01X3987616Y2261702D01*
G01X3985863Y2272769D01*
G01X3980776Y2282753D01*
G01X3972853Y2290676D01*
G01X3962869Y2295763D01*
G01X3951802Y2297516D01*
G01X3741802Y2297516D01*
G01X3730735Y2295763D01*
G01X3720751Y2290676D01*
G01X3712828Y2282753D01*
G01X3707741Y2272769D01*
G01X3705988Y2261702D01*
G01X3705988Y2081703D01*
G01X3705988Y2081703D01*
G01X3566414Y2081703D01*
G01X3566414Y2692400D01*
G01X3564761Y2704956D01*
G01X3563459Y2708100D01*
G01X3609494Y2708100D01*
G01X3609494Y2575100D01*
G01X3611247Y2564033D01*
G01X3616334Y2554049D01*
G01X3624257Y2546126D01*
G01X3634241Y2541039D01*
G01X3645308Y2539286D01*
G01X3766108Y2539286D01*
G01X3777175Y2541039D01*
G01X3787158Y2546126D01*
G01X3795082Y2554049D01*
G01X3800169Y2564033D01*
G01X3801922Y2575100D01*
G01X3801922Y2708100D01*
G01X3801922Y2708100D01*
G01X3800169Y2719167D01*
G01X3795082Y2729151D01*
G01X3787158Y2737074D01*
G01X3777175Y2742161D01*
G01X3766108Y2743914D01*
G01X3645308Y2743914D01*
G01X3634241Y2742161D01*
G01X3624257Y2737074D01*
G01X3616334Y2729151D01*
G01X3611247Y2719167D01*
G01X3609494Y2708100D01*
G01X3563459Y2708100D01*
G01X3559914Y2716657D01*
G01X3552205Y2726705D01*
G01X3506665Y2772244D01*
G01X3496618Y2779954D01*
G01X3484917Y2784800D01*
G01X3472361Y2786453D01*
G01X3022556Y2786453D01*
G01X2939479Y2869531D01*
G01X2939479Y2897200D01*
G01X2937726Y2908267D01*
G01X2932639Y2918251D01*
G01X2924715Y2926174D01*
G01X2914732Y2931261D01*
G01X2903665Y2933014D01*
G01X2847099Y2933014D01*
G01X2839421Y2932182D01*
G01X2832100Y2929722D01*
G01X2824779Y2932182D01*
G01X2817101Y2933014D01*
G01X2760536Y2933014D01*
G01X2749651Y2931320D01*
G01X2739796Y2926398D01*
G01X2731903Y2918714D01*
G01X2547395Y2918714D01*
G01X2402388Y3063721D01*
G01X2408838Y3084298D01*
G01X2411679Y3105674D01*
G01X2411449Y3111500D01*
G01X2414186Y3111500D01*
G01X2416098Y3089653D01*
G01X2421774Y3068469D01*
G01X2431042Y3048593D01*
G01X2443621Y3030628D01*
G01X2459128Y3015121D01*
G01X2477093Y3002542D01*
G01X2496969Y2993274D01*
G01X2518153Y2987598D01*
G01X2540000Y2985686D01*
G01X2561847Y2987598D01*
G01X2583031Y2993274D01*
G01X2602907Y3002542D01*
G01X2620872Y3015121D01*
G01X2636379Y3030628D01*
G01X2648958Y3048593D01*
G01X2658226Y3068469D01*
G01X2663902Y3089653D01*
G01X2665814Y3111500D01*
G01X2668186Y3111500D01*
G01X2670098Y3089653D01*
G01X2675774Y3068469D01*
G01X2685042Y3048593D01*
G01X2697621Y3030628D01*
G01X2713128Y3015121D01*
G01X2731093Y3002542D01*
G01X2750969Y2993274D01*
G01X2772153Y2987598D01*
G01X2794000Y2985686D01*
G01X2815847Y2987598D01*
G01X2837031Y2993274D01*
G01X2856907Y3002542D01*
G01X2874872Y3015121D01*
G01X2890379Y3030628D01*
G01X2902958Y3048593D01*
G01X2912226Y3068469D01*
G01X2917902Y3089653D01*
G01X2919814Y3111500D01*
G01X2922186Y3111500D01*
G01X2924098Y3089653D01*
G01X2929774Y3068469D01*
G01X2939042Y3048593D01*
G01X2951621Y3030628D01*
G01X2967128Y3015121D01*
G01X2985093Y3002542D01*
G01X3004969Y2993274D01*
G01X3026153Y2987598D01*
G01X3048000Y2985686D01*
G01X3069847Y2987598D01*
G01X3091031Y2993274D01*
G01X3110907Y3002542D01*
G01X3128872Y3015121D01*
G01X3144379Y3030628D01*
G01X3156958Y3048593D01*
G01X3166226Y3068469D01*
G01X3171902Y3089653D01*
G01X3173814Y3111500D01*
G01X3171902Y3133347D01*
G01X3166226Y3154531D01*
G01X3156958Y3174407D01*
G01X3144379Y3192372D01*
G01X3128872Y3207879D01*
G01X3110907Y3220458D01*
G01X3091031Y3229726D01*
G01X3069847Y3235402D01*
G01X3048000Y3237314D01*
G01X3026153Y3235402D01*
G01X3004969Y3229726D01*
G01X2985093Y3220458D01*
G01X2967128Y3207879D01*
G01X2951621Y3192372D01*
G01X2939042Y3174407D01*
G01X2929774Y3154531D01*
G01X2924098Y3133347D01*
G01X2922186Y3111500D01*
G01X2922186Y3111500D01*
G01X2919814Y3111500D01*
G01X2917902Y3133347D01*
G01X2912226Y3154531D01*
G01X2902958Y3174407D01*
G01X2890379Y3192372D01*
G01X2874872Y3207879D01*
G01X2856907Y3220458D01*
G01X2837031Y3229726D01*
G01X2815847Y3235402D01*
G01X2794000Y3237314D01*
G01X2772153Y3235402D01*
G01X2750969Y3229726D01*
G01X2731093Y3220458D01*
G01X2713128Y3207879D01*
G01X2697621Y3192372D01*
G01X2685042Y3174407D01*
G01X2675774Y3154531D01*
G01X2670098Y3133347D01*
G01X2668186Y3111500D01*
G01X2668186Y3111500D01*
G01X2665814Y3111500D01*
G01X2663902Y3133347D01*
G01X2658226Y3154531D01*
G01X2648958Y3174407D01*
G01X2636379Y3192372D01*
G01X2620872Y3207879D01*
G01X2602907Y3220458D01*
G01X2583031Y3229726D01*
G01X2561847Y3235402D01*
G01X2540000Y3237314D01*
G01X2518153Y3235402D01*
G01X2496969Y3229726D01*
G01X2477093Y3220458D01*
G01X2459128Y3207879D01*
G01X2443621Y3192372D01*
G01X2431042Y3174407D01*
G01X2421774Y3154531D01*
G01X2416098Y3133347D01*
G01X2414186Y3111500D01*
G01X2414186Y3111500D01*
G01X2411449Y3111500D01*
G01X2410828Y3127222D01*
G01X2406309Y3148307D01*
G01X2398257Y3168311D01*
G01X2386906Y3186647D01*
G01X2372592Y3202774D01*
G01X2355733Y3216221D01*
G01X2336826Y3226591D01*
G01X2316426Y3233579D01*
G01X2295132Y3236982D01*
G01X2273569Y3236698D01*
G01X2252372Y3232736D01*
G01X2232163Y3225213D01*
G01X2213535Y3214349D01*
G01X2197036Y3200464D01*
G01X2183151Y3183965D01*
G01X2172287Y3165337D01*
G01X2164764Y3145128D01*
G01X2160802Y3123931D01*
G01X2160518Y3102368D01*
G01X2163921Y3081074D01*
G01X2170909Y3060674D01*
G01X2181279Y3041767D01*
G01X2194726Y3024908D01*
G01X2210853Y3010594D01*
G01X2229189Y2999243D01*
G01X2249193Y2991191D01*
G01X2270278Y2986672D01*
G01X2291826Y2985821D01*
G01X2313202Y2988662D01*
G01X2333779Y2995112D01*
G01X2492995Y2835895D01*
G01X2503043Y2828186D01*
G01X2514744Y2823339D01*
G01X2527300Y2821686D01*
G01X2731903Y2821686D01*
G01X2738382Y2815060D01*
G01X2746344Y2810318D01*
G01X2749080Y2801075D01*
G01X2753590Y2792555D01*
G01X2759695Y2785095D01*
G01X2899395Y2645395D01*
G01X2909443Y2637686D01*
G01X2921144Y2632839D01*
G01X2933700Y2631186D01*
G01X3284678Y2631186D01*
G01X3284678Y2575100D01*
G01X3286431Y2564033D01*
G01X3291518Y2554049D01*
G01X3299442Y2546126D01*
G01X3309425Y2541039D01*
G01X3320492Y2539286D01*
G01X3441292Y2539286D01*
G01X3451896Y2540892D01*
G01X3461550Y2545566D01*
G01X3469386Y2552888D01*
G01X3469386Y2297516D01*
G01X3261793Y2297516D01*
G01X3250726Y2295763D01*
G01X3240742Y2290676D01*
G01X3232819Y2282753D01*
G01X3227732Y2272769D01*
G01X3225979Y2261702D01*
G01X3225979Y2232516D01*
G01X2958887Y2232516D01*
G01X2843623Y2347780D01*
G01X2843714Y2351100D01*
G01X2843714Y2398586D01*
G01X2853400Y2398586D01*
G01X2864756Y2400433D01*
G01X2874939Y2405786D01*
G01X2882900Y2414091D01*
G01X2890861Y2405786D01*
G01X2901044Y2400433D01*
G01X2912400Y2398586D01*
G01X3053400Y2398586D01*
G01X3064467Y2400338D01*
G01X3074451Y2405425D01*
G01X3082374Y2413349D01*
G01X3087461Y2423332D01*
G01X3089214Y2434400D01*
G01X3089214Y2569401D01*
G01X3087461Y2580468D01*
G01X3082374Y2590451D01*
G01X3074451Y2598375D01*
G01X3064467Y2603462D01*
G01X3053400Y2605215D01*
G01X2912400Y2605215D01*
G01X2901044Y2603367D01*
G01X2890861Y2598014D01*
G01X2882900Y2589709D01*
G01X2874939Y2598014D01*
G01X2864756Y2603367D01*
G01X2853400Y2605215D01*
G01X2765590Y2605215D01*
G01X2762402Y2608402D01*
G01X2753187Y2615965D01*
G01X2742673Y2621585D01*
G01X2731264Y2625045D01*
G01X2719400Y2626214D01*
G01X2690703Y2626214D01*
G01X2690703Y2745400D01*
G01X2688950Y2756467D01*
G01X2683863Y2766451D01*
G01X2675940Y2774374D01*
G01X2665956Y2779461D01*
G01X2654889Y2781214D01*
G01X2407890Y2781214D01*
G01X2396822Y2779461D01*
G01X2386839Y2774374D01*
G01X2378915Y2766451D01*
G01X2373828Y2756467D01*
G01X2372076Y2745400D01*
G01X2372076Y2626214D01*
G01X2121720Y2626214D01*
G01X2116533Y2635926D01*
G01X2108642Y2643604D01*
G01X2098790Y2648522D01*
G01X2087910Y2650214D01*
G01X1840911Y2650214D01*
G01X1829844Y2648462D01*
G01X1819860Y2643375D01*
G01X1811937Y2635451D01*
G01X1806850Y2625468D01*
G01X1805097Y2614400D01*
G01X1805097Y2516400D01*
G01X1806850Y2505332D01*
G01X1811937Y2495349D01*
G01X1819860Y2487425D01*
G01X1829844Y2482338D01*
G01X1840911Y2480586D01*
G01X2087910Y2480586D01*
G01X2098790Y2482278D01*
G01X2108642Y2487196D01*
G01X2116533Y2494874D01*
G01X2121720Y2504586D01*
G01X2372076Y2504586D01*
G01X2372076Y2385400D01*
G01X2373828Y2374333D01*
G01X2378915Y2364349D01*
G01X2386839Y2356426D01*
G01X2396822Y2351339D01*
G01X2407890Y2349586D01*
G01X2654889Y2349586D01*
G01X2665956Y2351339D01*
G01X2675940Y2356426D01*
G01X2683863Y2364349D01*
G01X2688950Y2374333D01*
G01X2690703Y2385400D01*
G01X2690703Y2405906D01*
G01X2700951Y2400465D01*
G01X2712400Y2398586D01*
G01X2722086Y2398586D01*
G01X2722086Y2363359D01*
G01X2720486Y2349500D01*
G01X2720486Y2324100D01*
G01X2721655Y2312236D01*
G01X2725115Y2300828D01*
G01X2730735Y2290314D01*
G01X2738298Y2281098D01*
G01X2890696Y2128701D01*
G01X2899911Y2121138D01*
G01X2910425Y2115518D01*
G01X2921833Y2112057D01*
G01X2933697Y2110889D01*
G01X3225979Y2110889D01*
G01X3225979Y2081703D01*
G01X3227732Y2070636D01*
G01X3232819Y2060652D01*
G01X3240742Y2052729D01*
G01X3250726Y2047642D01*
G01X3261793Y2045889D01*
G01X3318279Y2045889D01*
G01X3318279Y1964488D01*
G01X3286964Y1933173D01*
G01X3271782Y1930859D01*
G01X3257541Y1925114D01*
G01X3245002Y1916248D01*
G01X3234839Y1904736D01*
G01X3227596Y1891194D01*
G01X3223663Y1876350D01*
G01X3223249Y1860999D01*
G01X3226378Y1845964D01*
G01X3232880Y1832052D01*
G01X3242409Y1820009D01*
G01X3254452Y1810480D01*
G01X3268364Y1803978D01*
G01X3283399Y1800849D01*
G01X3298750Y1801263D01*
G01X3313594Y1805196D01*
G01X3327136Y1812439D01*
G01X3338648Y1822602D01*
G01X3347514Y1835141D01*
G01X3353259Y1849382D01*
G01X3355573Y1864564D01*
G01X3401097Y1910088D01*
G01X3408807Y1920136D01*
G01X3413654Y1931837D01*
G01X3415307Y1944393D01*
G01X3415307Y2045889D01*
G01X3469386Y2045889D01*
G01X3469386Y1917700D01*
G01X3471039Y1905144D01*
G01X3475886Y1893443D01*
G01X3483595Y1883395D01*
G01X4283695Y1083295D01*
G01X4283695Y1083295D01*
G01X4293743Y1075586D01*
G01X4305444Y1070739D01*
G01X4318000Y1069086D01*
G01X4894805Y1069086D01*
G01X4904486Y1059405D01*
G01X4904486Y965507D01*
G01X4886427Y977528D01*
G01X4866571Y986268D01*
G01X4845508Y991467D01*
G01X4823866Y992971D01*
G01X4802287Y990734D01*
G01X4781413Y984824D01*
G01X4761865Y975415D01*
G01X4744224Y962788D01*
G01X4729014Y947318D01*
G01X4716688Y929465D01*
G01X4707612Y909760D01*
G01X4702057Y888789D01*
G01X4700186Y867175D01*
G01X4702057Y845562D01*
G01X4707612Y824590D01*
G01X4716688Y804885D01*
G01X4729014Y787033D01*
G01X4744224Y771563D01*
G01X4761865Y758936D01*
G01X4781413Y749527D01*
G01X4802287Y743616D01*
G01X4823866Y741380D01*
G01X4845508Y742883D01*
G01X4866571Y748082D01*
G01X4886427Y756823D01*
G01X4904486Y768844D01*
G01X4904486Y749300D01*
G01X4906139Y736744D01*
G01X4910986Y725043D01*
G01X4918695Y714995D01*
G01X5007595Y626095D01*
G01X5017643Y618386D01*
G01X5029344Y613539D01*
G01X5041900Y611886D01*
G01X5198398Y611886D01*
G01X5198186Y608000D01*
G01X5198186Y408000D01*
G01X5199939Y396933D01*
G01X5205026Y386949D01*
G01X5212949Y379026D01*
G01X5222933Y373939D01*
G01X5234000Y372186D01*
G01X5434000Y372186D01*
G01X5445067Y373939D01*
G01X5455051Y379026D01*
G01X5462974Y386949D01*
G01X5468061Y396933D01*
G01X5469814Y408000D01*
G01X5469814Y441087D01*
G01X5481784Y423362D01*
G01X5496389Y407736D01*
G01X5513265Y394597D01*
G01X5531996Y384271D01*
G01X5552115Y377013D01*
G01X5573123Y373003D01*
G01X5594501Y372342D01*
G01X5615718Y375045D01*
G01X5636247Y381045D01*
G01X5655580Y390194D01*
G01X5673237Y402264D01*
G01X5688780Y416957D01*
G01X5701823Y433907D01*
G01X5712043Y452695D01*
G01X5719188Y472855D01*
G01X5723078Y493886D01*
G01X5723078Y365300D01*
G01X5724831Y354233D01*
G01X5729918Y344249D01*
G01X5737842Y336326D01*
G01X5747825Y331239D01*
G01X5758892Y329486D01*
G01X5879692Y329486D01*
G01X5890759Y331239D01*
G01X5900743Y336326D01*
G01X5908666Y344249D01*
G01X5913753Y354233D01*
G01X5915506Y365300D01*
G01X5915506Y498300D01*
G01X5913753Y509367D01*
G01X5908666Y519351D01*
G01X5900743Y527274D01*
G01X5890759Y532361D01*
G01X5879692Y534114D01*
G01X5758892Y534114D01*
G01X5749193Y532775D01*
G01X5740218Y528860D01*
G01X5732640Y522660D01*
G01X5727023Y514640D01*
G01X5723789Y505398D01*
G01X5722423Y527386D01*
G01X5717520Y548864D01*
G01X5709209Y569267D01*
G01X5697709Y588058D01*
G01X5683322Y604742D01*
G01X5666427Y618881D01*
G01X5647468Y630102D01*
G01X5626944Y638110D01*
G01X5605396Y642695D01*
G01X5583390Y643736D01*
G01X5561505Y641204D01*
G01X5552723Y649986D01*
G01X5857312Y649986D01*
G01X6047894Y459405D01*
G01X6047894Y365300D01*
G01X6049647Y354233D01*
G01X6054734Y344249D01*
G01X6062657Y336326D01*
G01X6072641Y331239D01*
G01X6083708Y329486D01*
G01X6095594Y329486D01*
G01X6095594Y304321D01*
G01X6082687Y291414D01*
G01X6060199Y291414D01*
G01X6052521Y290582D01*
G01X6045200Y288122D01*
G01X6037879Y290582D01*
G01X6030201Y291414D01*
G01X5973636Y291414D01*
G01X5963692Y290006D01*
G01X5954530Y285893D01*
G01X5946871Y279397D01*
G01X5941316Y271031D01*
G01X5157509Y271031D01*
G01X5160498Y279019D01*
G01X5161514Y287487D01*
G01X5161514Y347487D01*
G01X5160353Y356529D01*
G01X5156948Y364985D01*
G01X5160353Y373441D01*
G01X5161514Y382483D01*
G01X5161514Y442483D01*
G01X5159971Y452882D01*
G01X5155475Y462385D01*
G01X5148413Y470173D01*
G01X5139395Y475575D01*
G01X5129196Y478126D01*
G01X5136199Y492325D01*
G01X5139638Y507778D01*
G01X5139315Y523607D01*
G01X5135249Y538908D01*
G01X5127673Y552809D01*
G01X5117018Y564518D01*
G01X5103890Y573368D01*
G01X5089040Y578854D01*
G01X5073312Y580663D01*
G01X5057603Y578693D01*
G01X5042809Y573056D01*
G01X5029773Y564073D01*
G01X5019237Y552255D01*
G01X5011803Y538278D01*
G01X5007894Y522936D01*
G01X5007733Y507105D01*
G01X5011329Y491687D01*
G01X5018476Y477561D01*
G01X5009269Y474306D01*
G01X5001283Y468684D01*
G01X4995113Y461114D01*
G01X4991217Y452158D01*
G01X4989886Y442483D01*
G01X4989886Y382483D01*
G01X4991046Y373441D01*
G01X4994452Y364985D01*
G01X4991046Y356529D01*
G01X4989886Y347487D01*
G01X4989886Y287487D01*
G01X4991044Y278452D01*
G01X4994444Y270002D01*
G01X4991044Y261552D01*
G01X4989886Y252517D01*
G01X4989886Y192517D01*
G01X4991639Y181450D01*
G01X4996726Y171466D01*
G01X5004649Y163543D01*
G01X5014633Y158456D01*
G01X5025700Y156703D01*
G01X5125700Y156703D01*
G01X5134799Y157878D01*
G01X5143301Y161326D01*
G01X5150647Y166821D01*
G01X5156357Y174003D01*
G01X5950809Y174003D01*
G01X5957713Y169520D01*
G01X5965458Y166732D01*
G01X5973636Y165786D01*
G01X6030201Y165786D01*
G01X6037879Y166618D01*
G01X6045200Y169078D01*
G01X6052521Y166618D01*
G01X6060199Y165786D01*
G01X6116765Y165786D01*
G01X6127832Y167539D01*
G01X6137815Y172626D01*
G01X6145739Y180549D01*
G01X6150826Y190533D01*
G01X6152579Y201600D01*
G01X6152579Y224088D01*
G01X6178412Y249921D01*
G01X6186122Y259969D01*
G01X6190969Y271670D01*
G01X6192622Y284226D01*
G01X6192622Y292734D01*
G01X8593450Y292734D01*
G01X8595438Y268734D01*
G01X8601350Y245388D01*
G01X8611024Y223334D01*
G01X8624196Y203173D01*
G01X8640507Y185455D01*
G01X8659511Y170663D01*
G01X8680691Y159201D01*
G01X8703468Y151382D01*
G01X8727222Y147418D01*
G01X8751305Y147418D01*
G01X8775059Y151382D01*
G01X8797837Y159201D01*
G01X8819016Y170663D01*
G01X8838021Y185455D01*
G01X8854331Y203173D01*
G01X8867503Y223334D01*
G01X8877177Y245388D01*
G01X8883089Y268734D01*
G01X8885078Y292734D01*
G01X8885078Y292734D01*
G01X8883089Y316734D01*
G01X8877177Y340080D01*
G01X8867503Y362134D01*
G01X8854331Y382295D01*
G01X8838021Y400013D01*
G01X8819016Y414805D01*
G01X8797837Y426267D01*
G01X8775059Y434086D01*
G01X8751305Y438050D01*
G01X8727222Y438050D01*
G01X8703468Y434086D01*
G01X8680691Y426267D01*
G01X8659511Y414805D01*
G01X8640507Y400013D01*
G01X8624196Y382295D01*
G01X8611024Y362134D01*
G01X8601350Y340080D01*
G01X8595438Y316734D01*
G01X8593450Y292734D01*
G01X6192622Y292734D01*
G01X6192622Y329486D01*
G01X6204508Y329486D01*
G01X6215575Y331239D01*
G01X6225558Y336326D01*
G01X6233482Y344249D01*
G01X6238569Y354233D01*
G01X6240322Y365300D01*
G01X6240322Y498300D01*
G01X6238569Y509367D01*
G01X6233482Y519351D01*
G01X6225558Y527274D01*
G01X6215575Y532361D01*
G01X6204508Y534114D01*
G01X6110403Y534114D01*
G01X6019715Y624802D01*
G01X6379188Y624802D01*
G01X6379188Y424802D01*
G01X6380941Y413735D01*
G01X6386028Y403751D01*
G01X6393951Y395828D01*
G01X6403935Y390741D01*
G01X6415002Y388988D01*
G01X6560003Y388988D01*
G01X6571071Y390741D01*
G01X6581054Y395828D01*
G01X6588978Y403751D01*
G01X6594065Y413735D01*
G01X6595817Y424802D01*
G01X6595817Y424802D01*
G01X7755183Y424802D01*
G01X7756935Y413735D01*
G01X7762022Y403751D01*
G01X7769946Y395828D01*
G01X7779929Y390741D01*
G01X7790997Y388988D01*
G01X7935998Y388988D01*
G01X7947065Y390741D01*
G01X7957049Y395828D01*
G01X7964972Y403751D01*
G01X7970059Y413735D01*
G01X7971812Y424802D01*
G01X7971812Y624802D01*
G01X7971812Y624802D01*
G01X7970059Y635869D01*
G01X7964972Y645853D01*
G01X7957049Y653776D01*
G01X7947065Y658863D01*
G01X7935998Y660616D01*
G01X7790997Y660616D01*
G01X7779929Y658863D01*
G01X7769946Y653776D01*
G01X7762022Y645853D01*
G01X7756935Y635869D01*
G01X7755183Y624802D01*
G01X7755183Y424802D01*
G01X6595817Y424802D01*
G01X6595817Y624802D01*
G01X6595817Y624802D01*
G01X6594065Y635869D01*
G01X6588978Y645853D01*
G01X6581054Y653776D01*
G01X6571071Y658863D01*
G01X6560003Y660616D01*
G01X6415002Y660616D01*
G01X6403935Y658863D01*
G01X6393951Y653776D01*
G01X6386028Y645853D01*
G01X6380941Y635869D01*
G01X6379188Y624802D01*
G01X6019715Y624802D01*
G01X5911712Y732805D01*
G01X5902175Y740215D01*
G01X5891104Y745041D01*
G01X5879183Y746982D01*
G01X5899829Y755439D01*
G01X5918657Y767411D01*
G01X5935074Y782521D01*
G01X5948563Y800292D01*
G01X5958702Y820167D01*
G01X5965170Y841521D01*
G01X5967765Y863681D01*
G01X5967552Y867175D01*
G01X5970186Y867175D01*
G01X5972098Y845328D01*
G01X5977774Y824144D01*
G01X5987042Y804268D01*
G01X5999621Y786304D01*
G01X6015128Y770796D01*
G01X6033093Y758217D01*
G01X6052969Y748949D01*
G01X6074153Y743273D01*
G01X6096000Y741361D01*
G01X6117847Y743273D01*
G01X6139031Y748949D01*
G01X6158907Y758217D01*
G01X6176872Y770796D01*
G01X6192379Y786304D01*
G01X6204958Y804268D01*
G01X6214226Y824144D01*
G01X6219902Y845328D01*
G01X6221814Y867175D01*
G01X6219902Y889023D01*
G01X6214226Y910206D01*
G01X6204958Y930082D01*
G01X6192379Y948047D01*
G01X6176872Y963554D01*
G01X6158907Y976133D01*
G01X6139031Y985402D01*
G01X6117847Y991078D01*
G01X6096000Y992989D01*
G01X6074153Y991078D01*
G01X6052969Y985402D01*
G01X6033093Y976133D01*
G01X6015128Y963554D01*
G01X5999621Y948047D01*
G01X5987042Y930082D01*
G01X5977774Y910206D01*
G01X5972098Y889023D01*
G01X5970186Y867175D01*
G01X5970186Y867175D01*
G01X5967552Y867175D01*
G01X5966405Y885951D01*
G01X5961132Y907630D01*
G01X5952113Y928038D01*
G01X5939631Y946531D01*
G01X5924078Y962529D01*
G01X5905945Y975528D01*
G01X5885800Y985119D01*
G01X5864278Y991001D01*
G01X5842055Y992989D01*
G01X5819830Y991020D01*
G01X5798303Y985157D01*
G01X5778150Y975583D01*
G01X5760005Y962600D01*
G01X5744438Y946616D01*
G01X5731940Y928134D01*
G01X5722903Y907734D01*
G01X5717611Y886059D01*
G01X5716232Y863790D01*
G01X5718807Y841628D01*
G01X5725257Y820269D01*
G01X5735378Y800385D01*
G01X5748852Y782602D01*
G01X5765256Y767478D01*
G01X5784073Y755490D01*
G01X5804712Y747014D01*
G01X5625288Y747014D01*
G01X5645924Y755488D01*
G01X5664738Y767474D01*
G01X5681141Y782594D01*
G01X5694615Y800374D01*
G01X5704737Y820253D01*
G01X5711189Y841608D01*
G01X5713768Y863766D01*
G01X5712393Y886032D01*
G01X5707107Y907705D01*
G01X5698077Y928104D01*
G01X5685585Y946587D01*
G01X5670026Y962573D01*
G01X5651888Y975561D01*
G01X5631742Y985140D01*
G01X5610220Y991011D01*
G01X5588000Y992989D01*
G01X5565780Y991011D01*
G01X5544258Y985140D01*
G01X5524112Y975561D01*
G01X5505974Y962573D01*
G01X5490415Y946587D01*
G01X5477923Y928104D01*
G01X5468893Y907705D01*
G01X5463607Y886032D01*
G01X5462232Y863766D01*
G01X5464811Y841608D01*
G01X5471263Y820253D01*
G01X5481385Y800374D01*
G01X5494859Y782594D01*
G01X5511262Y767474D01*
G01X5530076Y755488D01*
G01X5550712Y747014D01*
G01X5371288Y747014D01*
G01X5391308Y755171D01*
G01X5409636Y766635D01*
G01X5425731Y781068D01*
G01X5439118Y798042D01*
G01X5449401Y817058D01*
G01X5456277Y837553D01*
G01X5459543Y858923D01*
G01X5459102Y880537D01*
G01X5454968Y901756D01*
G01X5447262Y921954D01*
G01X5436213Y940535D01*
G01X5422145Y956950D01*
G01X5405476Y970714D01*
G01X5386696Y981422D01*
G01X5366360Y988756D01*
G01X5345068Y992501D01*
G01X5323450Y992546D01*
G01X5302144Y988889D01*
G01X5281778Y981639D01*
G01X5262953Y971009D01*
G01X5262953Y1021261D01*
G01X5261300Y1033817D01*
G01X5256454Y1045518D01*
G01X5248744Y1055565D01*
G01X5134531Y1169778D01*
G01X6779684Y1169778D01*
G01X6779684Y1019778D01*
G01X6781437Y1008711D01*
G01X6786524Y998727D01*
G01X6794447Y990804D01*
G01X6804431Y985717D01*
G01X6815498Y983964D01*
G01X6895498Y983964D01*
G01X6903179Y984798D01*
G01X6910502Y987259D01*
G01X6916992Y984991D01*
G01X6916992Y946910D01*
G01X6907893Y934539D01*
G01X6901885Y920406D01*
G01X6899288Y905271D01*
G01X6900242Y889944D01*
G01X6904696Y875247D01*
G01X6912411Y861969D01*
G01X6922973Y850822D01*
G01X6935817Y842403D01*
G01X6950252Y837164D01*
G01X6965506Y835386D01*
G01X6980759Y837164D01*
G01X6995194Y842403D01*
G01X7008038Y850822D01*
G01X7018600Y861969D01*
G01X7026315Y875247D01*
G01X7030769Y889944D01*
G01X7031723Y905271D01*
G01X7029126Y920406D01*
G01X7023118Y934539D01*
G01X7014020Y946910D01*
G01X7014020Y984991D01*
G01X7020509Y987259D01*
G01X7027832Y984798D01*
G01X7035513Y983964D01*
G01X7115513Y983964D01*
G01X7123187Y984796D01*
G01X7130504Y987253D01*
G01X7137821Y984796D01*
G01X7145495Y983964D01*
G01X7225495Y983964D01*
G01X7233175Y984798D01*
G01X7240499Y987259D01*
G01X7247822Y984798D01*
G01X7255502Y983964D01*
G01X7335502Y983964D01*
G01X7343183Y984798D01*
G01X7350506Y987259D01*
G01X7357829Y984798D01*
G01X7365510Y983964D01*
G01X7445510Y983964D01*
G01X7453183Y984796D01*
G01X7460501Y987253D01*
G01X7467818Y984796D01*
G01X7475492Y983964D01*
G01X7555492Y983964D01*
G01X7563172Y984798D01*
G01X7570495Y987259D01*
G01X7577819Y984798D01*
G01X7585499Y983964D01*
G01X7665499Y983964D01*
G01X7676566Y985717D01*
G01X7686550Y990804D01*
G01X7694473Y998727D01*
G01X7699560Y1008711D01*
G01X7701313Y1019778D01*
G01X7701313Y1103897D01*
G01X8133583Y1103897D01*
G01X8135572Y1079897D01*
G01X8141484Y1056551D01*
G01X8151157Y1034497D01*
G01X8164329Y1014336D01*
G01X8180640Y996618D01*
G01X8199644Y981826D01*
G01X8220824Y970364D01*
G01X8243602Y962545D01*
G01X8267355Y958581D01*
G01X8291438Y958581D01*
G01X8315192Y962545D01*
G01X8337969Y970364D01*
G01X8359149Y981826D01*
G01X8378154Y996618D01*
G01X8394464Y1014336D01*
G01X8407636Y1034497D01*
G01X8417310Y1056551D01*
G01X8423222Y1079897D01*
G01X8425210Y1103897D01*
G01X8425210Y1103897D01*
G01X8643590Y1103897D01*
G01X8645578Y1079897D01*
G01X8651490Y1056551D01*
G01X8661164Y1034497D01*
G01X8674336Y1014336D01*
G01X8690646Y996618D01*
G01X8709651Y981826D01*
G01X8730831Y970364D01*
G01X8753608Y962545D01*
G01X8777362Y958581D01*
G01X8801445Y958581D01*
G01X8825198Y962545D01*
G01X8847976Y970364D01*
G01X8869156Y981826D01*
G01X8888160Y996618D01*
G01X8904471Y1014336D01*
G01X8917643Y1034497D01*
G01X8927316Y1056551D01*
G01X8933228Y1079897D01*
G01X8935217Y1103897D01*
G01X8933228Y1127897D01*
G01X8927316Y1151242D01*
G01X8917643Y1173296D01*
G01X8904471Y1193457D01*
G01X8888160Y1211175D01*
G01X8869156Y1225967D01*
G01X8847976Y1237429D01*
G01X8825198Y1245249D01*
G01X8801445Y1249212D01*
G01X8777362Y1249212D01*
G01X8753608Y1245249D01*
G01X8730831Y1237429D01*
G01X8709651Y1225967D01*
G01X8690646Y1211175D01*
G01X8674336Y1193457D01*
G01X8661164Y1173296D01*
G01X8651490Y1151242D01*
G01X8645578Y1127897D01*
G01X8643590Y1103897D01*
G01X8643590Y1103897D01*
G01X8425210Y1103897D01*
G01X8423222Y1127897D01*
G01X8417310Y1151242D01*
G01X8407636Y1173296D01*
G01X8394464Y1193457D01*
G01X8378154Y1211175D01*
G01X8359149Y1225967D01*
G01X8337969Y1237429D01*
G01X8315192Y1245249D01*
G01X8291438Y1249212D01*
G01X8267355Y1249212D01*
G01X8243602Y1245249D01*
G01X8220824Y1237429D01*
G01X8199644Y1225967D01*
G01X8180640Y1211175D01*
G01X8164329Y1193457D01*
G01X8151157Y1173296D01*
G01X8141484Y1151242D01*
G01X8135572Y1127897D01*
G01X8133583Y1103897D01*
G01X8133583Y1103897D01*
G01X7701313Y1103897D01*
G01X7701313Y1169778D01*
G01X7699347Y1181482D01*
G01X7693663Y1191901D01*
G01X7684887Y1199890D01*
G01X7673982Y1204573D01*
G01X7679705Y1210295D01*
G01X7687414Y1220343D01*
G01X7692261Y1232044D01*
G01X7693914Y1244600D01*
G01X7693914Y1254798D01*
G01X7755183Y1254798D01*
G01X7756935Y1243731D01*
G01X7762022Y1233747D01*
G01X7769946Y1225824D01*
G01X7779929Y1220737D01*
G01X7790997Y1218984D01*
G01X7935998Y1218984D01*
G01X7947065Y1220737D01*
G01X7957049Y1225824D01*
G01X7964972Y1233747D01*
G01X7970059Y1243731D01*
G01X7971812Y1254798D01*
G01X7971812Y1454798D01*
G01X7971812Y1454798D01*
G01X7970059Y1465865D01*
G01X7964972Y1475849D01*
G01X7957049Y1483772D01*
G01X7947065Y1488859D01*
G01X7935998Y1490612D01*
G01X7790997Y1490612D01*
G01X7779929Y1488859D01*
G01X7769946Y1483772D01*
G01X7762022Y1475849D01*
G01X7756935Y1465865D01*
G01X7755183Y1454798D01*
G01X7755183Y1254798D01*
G01X7693914Y1254798D01*
G01X7693914Y1613903D01*
G01X8133583Y1613903D01*
G01X8135572Y1589903D01*
G01X8141484Y1566558D01*
G01X8151157Y1544504D01*
G01X8164329Y1524343D01*
G01X8180640Y1506625D01*
G01X8199644Y1491833D01*
G01X8220824Y1480371D01*
G01X8243602Y1472551D01*
G01X8267355Y1468588D01*
G01X8291438Y1468588D01*
G01X8315192Y1472551D01*
G01X8337969Y1480371D01*
G01X8359149Y1491833D01*
G01X8378154Y1506625D01*
G01X8394464Y1524343D01*
G01X8407636Y1544504D01*
G01X8417310Y1566558D01*
G01X8423222Y1589903D01*
G01X8425210Y1613903D01*
G01X8423222Y1637903D01*
G01X8417310Y1661249D01*
G01X8407636Y1683303D01*
G01X8394464Y1703464D01*
G01X8378154Y1721182D01*
G01X8359149Y1735974D01*
G01X8337969Y1747436D01*
G01X8315192Y1755255D01*
G01X8291438Y1759219D01*
G01X8267355Y1759219D01*
G01X8243602Y1755255D01*
G01X8220824Y1747436D01*
G01X8199644Y1735974D01*
G01X8180640Y1721182D01*
G01X8164329Y1703464D01*
G01X8151157Y1683303D01*
G01X8141484Y1661249D01*
G01X8135572Y1637903D01*
G01X8133583Y1613903D01*
G01X8133583Y1613903D01*
G01X7693914Y1613903D01*
G01X7693914Y1677803D01*
G01X7701598Y1685696D01*
G01X7706520Y1695551D01*
G01X7708214Y1706436D01*
G01X7708214Y1763001D01*
G01X7707382Y1770679D01*
G01X7704922Y1778000D01*
G01X7707382Y1785321D01*
G01X7708214Y1792999D01*
G01X7708214Y1849565D01*
G01X7706461Y1860632D01*
G01X7701374Y1870615D01*
G01X7693451Y1878539D01*
G01X7683467Y1883626D01*
G01X7672400Y1885379D01*
G01X7618400Y1885379D01*
G01X7607015Y1883521D01*
G01X7596811Y1878140D01*
G01X7588847Y1869796D01*
G01X7574953Y1869796D01*
G01X7566989Y1878140D01*
G01X7556785Y1883521D01*
G01X7545400Y1885379D01*
G01X7491400Y1885379D01*
G01X7481355Y1883941D01*
G01X7472117Y1879744D01*
G01X7464426Y1873125D01*
G01X7458901Y1864614D01*
G01X7449398Y1864614D01*
G01X7436165Y1874228D01*
G01X7420981Y1880311D01*
G01X7404770Y1882492D01*
G01X7388518Y1880639D01*
G01X7373215Y1874864D01*
G01X7359790Y1865519D01*
G01X7327813Y1897496D01*
G01X7321442Y1902857D01*
G01X7314249Y1907049D01*
G01X7311220Y1917700D01*
G01X7313681Y1925023D01*
G01X7314514Y1932704D01*
G01X7314514Y2011713D01*
G01X7312761Y2022780D01*
G01X7307674Y2032764D01*
G01X7299751Y2040687D01*
G01X7289767Y2045774D01*
G01X7278700Y2047527D01*
G01X7224700Y2047527D01*
G01X7213633Y2045774D01*
G01X7203649Y2040687D01*
G01X7195726Y2032764D01*
G01X7190639Y2022780D01*
G01X7188886Y2011713D01*
G01X7188886Y1932704D01*
G01X7189719Y1925023D01*
G01X7192180Y1917700D01*
G01X7189719Y1910377D01*
G01X7188886Y1902696D01*
G01X7188886Y1869796D01*
G01X7168553Y1869796D01*
G01X7160589Y1878140D01*
G01X7150385Y1883521D01*
G01X7139000Y1885379D01*
G01X7085000Y1885379D01*
G01X7073615Y1883521D01*
G01X7063411Y1878140D01*
G01X7055447Y1869796D01*
G01X7041553Y1869796D01*
G01X7033589Y1878140D01*
G01X7023385Y1883521D01*
G01X7012000Y1885379D01*
G01X6958000Y1885379D01*
G01X6946615Y1883521D01*
G01X6936411Y1878140D01*
G01X6928447Y1869796D01*
G01X6914553Y1869796D01*
G01X6906589Y1878140D01*
G01X6896385Y1883521D01*
G01X6885000Y1885379D01*
G01X6831000Y1885379D01*
G01X6819933Y1883626D01*
G01X6809949Y1878539D01*
G01X6802026Y1870615D01*
G01X6796939Y1860632D01*
G01X6795186Y1849565D01*
G01X6795186Y1792999D01*
G01X6796018Y1785321D01*
G01X6798478Y1778000D01*
G01X6796018Y1770679D01*
G01X6795186Y1763001D01*
G01X6795186Y1763001D01*
G01X6795186Y1706436D01*
G01X6796880Y1695551D01*
G01X6801802Y1685696D01*
G01X6809486Y1677803D01*
G01X6809486Y1205084D01*
G01X6799949Y1202041D01*
G01X6791628Y1196477D01*
G01X6785171Y1188828D01*
G01X6781083Y1179690D01*
G01X6779684Y1169778D01*
G01X5134531Y1169778D01*
G01X4849511Y1454798D01*
G01X6379188Y1454798D01*
G01X6379188Y1254798D01*
G01X6380941Y1243731D01*
G01X6386028Y1233747D01*
G01X6393951Y1225824D01*
G01X6403935Y1220737D01*
G01X6415002Y1218984D01*
G01X6560003Y1218984D01*
G01X6571071Y1220737D01*
G01X6581054Y1225824D01*
G01X6588978Y1233747D01*
G01X6594065Y1243731D01*
G01X6595817Y1254798D01*
G01X6595817Y1454798D01*
G01X6595817Y1454798D01*
G01X6594065Y1465865D01*
G01X6588978Y1475849D01*
G01X6581054Y1483772D01*
G01X6571071Y1488859D01*
G01X6560003Y1490612D01*
G01X6415002Y1490612D01*
G01X6403935Y1488859D01*
G01X6393951Y1483772D01*
G01X6386028Y1475849D01*
G01X6380941Y1465865D01*
G01X6379188Y1454798D01*
G01X4849511Y1454798D01*
G01X4239514Y2064795D01*
G01X4239514Y2536723D01*
G01X4634345Y2141891D01*
G01X4644393Y2134181D01*
G01X4656094Y2129335D01*
G01X4668650Y2127682D01*
G01X6813553Y2127682D01*
G01X6818241Y2116788D01*
G01X6826230Y2108022D01*
G01X6836644Y2102346D01*
G01X6848340Y2100382D01*
G01X7028340Y2100382D01*
G01X7039407Y2102135D01*
G01X7049391Y2107222D01*
G01X7057314Y2115145D01*
G01X7062401Y2125129D01*
G01X7064154Y2136196D01*
G01X7064154Y2216196D01*
G01X7063321Y2223876D01*
G01X7060860Y2231200D01*
G01X7063321Y2238523D01*
G01X7064154Y2246203D01*
G01X7064154Y2326203D01*
G01X7063321Y2333884D01*
G01X7060860Y2341207D01*
G01X7063321Y2348530D01*
G01X7064154Y2356211D01*
G01X7064154Y2436211D01*
G01X7063322Y2443884D01*
G01X7060866Y2451202D01*
G01X7063322Y2458519D01*
G01X7064154Y2466193D01*
G01X7064154Y2546193D01*
G01X7063321Y2553873D01*
G01X7060860Y2561196D01*
G01X7063321Y2568519D01*
G01X7064154Y2576200D01*
G01X7064154Y2656200D01*
G01X7063321Y2663881D01*
G01X7060860Y2671204D01*
G01X7063321Y2678527D01*
G01X7064154Y2686207D01*
G01X7064154Y2766207D01*
G01X7063322Y2773881D01*
G01X7060866Y2781198D01*
G01X7063322Y2788516D01*
G01X7064154Y2796189D01*
G01X7064154Y2876189D01*
G01X7063321Y2883870D01*
G01X7060860Y2891193D01*
G01X7063321Y2898516D01*
G01X7064154Y2906197D01*
G01X7064154Y2986197D01*
G01X7063321Y2993877D01*
G01X7060860Y3001201D01*
G01X7063321Y3008524D01*
G01X7064154Y3016204D01*
G01X7064154Y3096204D01*
G01X7744046Y3096204D01*
G01X7744046Y3016204D01*
G01X7744879Y3008524D01*
G01X7747340Y3001201D01*
G01X7744879Y2993877D01*
G01X7744046Y2986197D01*
G01X7744046Y2906197D01*
G01X7744879Y2898516D01*
G01X7747340Y2891193D01*
G01X7744879Y2883870D01*
G01X7744046Y2876189D01*
G01X7744046Y2796189D01*
G01X7744878Y2788516D01*
G01X7747334Y2781198D01*
G01X7744878Y2773881D01*
G01X7744046Y2766207D01*
G01X7744046Y2686207D01*
G01X7744879Y2678527D01*
G01X7747340Y2671204D01*
G01X7744879Y2663881D01*
G01X7744046Y2656200D01*
G01X7744046Y2576200D01*
G01X7744879Y2568519D01*
G01X7747340Y2561196D01*
G01X7744879Y2553873D01*
G01X7744046Y2546193D01*
G01X7744046Y2466193D01*
G01X7744878Y2458519D01*
G01X7747334Y2451202D01*
G01X7744878Y2443884D01*
G01X7744046Y2436211D01*
G01X7744046Y2356211D01*
G01X7744879Y2348530D01*
G01X7747340Y2341207D01*
G01X7744879Y2333884D01*
G01X7744046Y2326203D01*
G01X7744046Y2246203D01*
G01X7744879Y2238523D01*
G01X7747340Y2231200D01*
G01X7744879Y2223876D01*
G01X7744046Y2216196D01*
G01X7744046Y2136196D01*
G01X7745799Y2125129D01*
G01X7750886Y2115145D01*
G01X7758809Y2107222D01*
G01X7768793Y2102135D01*
G01X7779860Y2100382D01*
G01X7959860Y2100382D01*
G01X7970927Y2102135D01*
G01X7980911Y2107222D01*
G01X7988834Y2115145D01*
G01X7993921Y2125129D01*
G01X7995674Y2136196D01*
G01X7995674Y2216196D01*
G01X7994840Y2223876D01*
G01X7992379Y2231200D01*
G01X7994647Y2237689D01*
G01X8031502Y2237689D01*
G01X8485873Y1783318D01*
G01X8485873Y1485766D01*
G01X8485873Y1485766D01*
G01X8465894Y1476190D01*
G01X8447737Y1463494D01*
G01X8431887Y1448014D01*
G01X8418764Y1430163D01*
G01X8408718Y1410416D01*
G01X8402016Y1389299D01*
G01X8398837Y1367372D01*
G01X8399265Y1345221D01*
G01X8403289Y1323434D01*
G01X8410802Y1302591D01*
G01X8421604Y1283247D01*
G01X8435407Y1265917D01*
G01X8451844Y1251061D01*
G01X8470477Y1239076D01*
G01X8490812Y1230279D01*
G01X8512306Y1224906D01*
G01X8534387Y1223099D01*
G01X8556469Y1224906D01*
G01X8577963Y1230279D01*
G01X8598297Y1239076D01*
G01X8616931Y1251061D01*
G01X8633368Y1265917D01*
G01X8647171Y1283247D01*
G01X8657972Y1302591D01*
G01X8665485Y1323434D01*
G01X8669509Y1345221D01*
G01X8669937Y1367372D01*
G01X8666758Y1389299D01*
G01X8660057Y1410416D01*
G01X8650011Y1430163D01*
G01X8636888Y1448014D01*
G01X8621037Y1463494D01*
G01X8602881Y1476190D01*
G01X8582901Y1485766D01*
G01X8582901Y1613903D01*
G01X8643590Y1613903D01*
G01X8645578Y1589903D01*
G01X8651490Y1566558D01*
G01X8661164Y1544504D01*
G01X8674336Y1524343D01*
G01X8690646Y1506625D01*
G01X8709651Y1491833D01*
G01X8730831Y1480371D01*
G01X8753608Y1472551D01*
G01X8777362Y1468588D01*
G01X8801445Y1468588D01*
G01X8825198Y1472551D01*
G01X8847976Y1480371D01*
G01X8869156Y1491833D01*
G01X8888160Y1506625D01*
G01X8904471Y1524343D01*
G01X8917643Y1544504D01*
G01X8927316Y1566558D01*
G01X8933228Y1589903D01*
G01X8935217Y1613903D01*
G01X8933228Y1637903D01*
G01X8927316Y1661249D01*
G01X8917643Y1683303D01*
G01X8904471Y1703464D01*
G01X8888160Y1721182D01*
G01X8869156Y1735974D01*
G01X8847976Y1747436D01*
G01X8825198Y1755255D01*
G01X8801445Y1759219D01*
G01X8777362Y1759219D01*
G01X8753608Y1755255D01*
G01X8730831Y1747436D01*
G01X8709651Y1735974D01*
G01X8690646Y1721182D01*
G01X8674336Y1703464D01*
G01X8661164Y1683303D01*
G01X8651490Y1661249D01*
G01X8645578Y1637903D01*
G01X8643590Y1613903D01*
G01X8643590Y1613903D01*
G01X8582901Y1613903D01*
G01X8582901Y1803413D01*
G01X8581248Y1815969D01*
G01X8576402Y1827670D01*
G01X8568692Y1837717D01*
G01X8085901Y2320508D01*
G01X8075854Y2328218D01*
G01X8064153Y2333064D01*
G01X8051597Y2334717D01*
G01X7994647Y2334717D01*
G01X7994270Y2335797D01*
G01X8133583Y2335797D01*
G01X8135572Y2311797D01*
G01X8141484Y2288451D01*
G01X8151157Y2266397D01*
G01X8164329Y2246236D01*
G01X8180640Y2228518D01*
G01X8199644Y2213726D01*
G01X8220824Y2202264D01*
G01X8243602Y2194445D01*
G01X8267355Y2190481D01*
G01X8291438Y2190481D01*
G01X8315192Y2194445D01*
G01X8337969Y2202264D01*
G01X8359149Y2213726D01*
G01X8378154Y2228518D01*
G01X8394464Y2246236D01*
G01X8407636Y2266397D01*
G01X8417310Y2288451D01*
G01X8423222Y2311797D01*
G01X8425210Y2335797D01*
G01X8425210Y2335797D01*
G01X8643590Y2335797D01*
G01X8645578Y2311797D01*
G01X8651490Y2288451D01*
G01X8661164Y2266397D01*
G01X8674336Y2246236D01*
G01X8690646Y2228518D01*
G01X8709651Y2213726D01*
G01X8730831Y2202264D01*
G01X8753608Y2194445D01*
G01X8777362Y2190481D01*
G01X8801445Y2190481D01*
G01X8825198Y2194445D01*
G01X8847976Y2202264D01*
G01X8869156Y2213726D01*
G01X8888160Y2228518D01*
G01X8904471Y2246236D01*
G01X8917643Y2266397D01*
G01X8927316Y2288451D01*
G01X8933228Y2311797D01*
G01X8935217Y2335797D01*
G01X8933228Y2359797D01*
G01X8927316Y2383142D01*
G01X8917643Y2405196D01*
G01X8904471Y2425357D01*
G01X8888160Y2443075D01*
G01X8869156Y2457867D01*
G01X8847976Y2469329D01*
G01X8825198Y2477149D01*
G01X8801445Y2481112D01*
G01X8777362Y2481112D01*
G01X8753608Y2477149D01*
G01X8730831Y2469329D01*
G01X8709651Y2457867D01*
G01X8690646Y2443075D01*
G01X8674336Y2425357D01*
G01X8661164Y2405196D01*
G01X8651490Y2383142D01*
G01X8645578Y2359797D01*
G01X8643590Y2335797D01*
G01X8643590Y2335797D01*
G01X8425210Y2335797D01*
G01X8423222Y2359797D01*
G01X8417310Y2383142D01*
G01X8407636Y2405196D01*
G01X8394464Y2425357D01*
G01X8378154Y2443075D01*
G01X8359149Y2457867D01*
G01X8337969Y2469329D01*
G01X8315192Y2477149D01*
G01X8291438Y2481112D01*
G01X8267355Y2481112D01*
G01X8243602Y2477149D01*
G01X8220824Y2469329D01*
G01X8199644Y2457867D01*
G01X8180640Y2443075D01*
G01X8164329Y2425357D01*
G01X8151157Y2405196D01*
G01X8141484Y2383142D01*
G01X8135572Y2359797D01*
G01X8133583Y2335797D01*
G01X8133583Y2335797D01*
G01X7994270Y2335797D01*
G01X7992379Y2341207D01*
G01X7994840Y2348530D01*
G01X7995674Y2356211D01*
G01X7995674Y2436211D01*
G01X7994842Y2443884D01*
G01X7992385Y2451202D01*
G01X7994842Y2458519D01*
G01X7995674Y2466193D01*
G01X7995674Y2546193D01*
G01X7994840Y2553873D01*
G01X7992379Y2561196D01*
G01X7994647Y2567686D01*
G01X8400557Y2567686D01*
G01X8406537Y2544991D01*
G01X8416334Y2523664D01*
G01X8429657Y2504343D01*
G01X8446108Y2487604D01*
G01X8465194Y2473947D01*
G01X8486347Y2463779D01*
G01X8508934Y2457405D01*
G01X8532282Y2455015D01*
G01X8555692Y2456680D01*
G01X8578466Y2462351D01*
G01X8599924Y2471858D01*
G01X8619425Y2484917D01*
G01X8636386Y2501138D01*
G01X8650302Y2520037D01*
G01X8660756Y2541050D01*
G01X8667436Y2563548D01*
G01X8670144Y2586861D01*
G01X8668797Y2610292D01*
G01X8663437Y2633141D01*
G01X8654222Y2654726D01*
G01X8641430Y2674403D01*
G01X8625441Y2691583D01*
G01X8606732Y2705754D01*
G01X8585864Y2716493D01*
G01X8563458Y2723479D01*
G01X8540184Y2726503D01*
G01X8516737Y2725475D01*
G01X8493817Y2720425D01*
G01X8472109Y2711506D01*
G01X8452260Y2698982D01*
G01X8434864Y2683228D01*
G01X8420440Y2664714D01*
G01X7994647Y2664714D01*
G01X7992379Y2671204D01*
G01X7994840Y2678527D01*
G01X7995674Y2686207D01*
G01X7995674Y2766207D01*
G01X7994842Y2773881D01*
G01X7992385Y2781198D01*
G01X7994842Y2788516D01*
G01X7995674Y2796189D01*
G01X7995674Y2845803D01*
G01X8133583Y2845803D01*
G01X8135572Y2821803D01*
G01X8141484Y2798458D01*
G01X8151157Y2776404D01*
G01X8164329Y2756243D01*
G01X8180640Y2738525D01*
G01X8199644Y2723733D01*
G01X8220824Y2712271D01*
G01X8243602Y2704451D01*
G01X8267355Y2700488D01*
G01X8291438Y2700488D01*
G01X8315192Y2704451D01*
G01X8337969Y2712271D01*
G01X8359149Y2723733D01*
G01X8378154Y2738525D01*
G01X8394464Y2756243D01*
G01X8407636Y2776404D01*
G01X8417310Y2798458D01*
G01X8423222Y2821803D01*
G01X8425210Y2845803D01*
G01X8425210Y2845803D01*
G01X8643590Y2845803D01*
G01X8645578Y2821803D01*
G01X8651490Y2798458D01*
G01X8661164Y2776404D01*
G01X8674336Y2756243D01*
G01X8690646Y2738525D01*
G01X8709651Y2723733D01*
G01X8730831Y2712271D01*
G01X8753608Y2704451D01*
G01X8777362Y2700488D01*
G01X8801445Y2700488D01*
G01X8825198Y2704451D01*
G01X8847976Y2712271D01*
G01X8869156Y2723733D01*
G01X8888160Y2738525D01*
G01X8904471Y2756243D01*
G01X8917643Y2776404D01*
G01X8927316Y2798458D01*
G01X8933228Y2821803D01*
G01X8935217Y2845803D01*
G01X8933228Y2869803D01*
G01X8927316Y2893149D01*
G01X8917643Y2915203D01*
G01X8904471Y2935364D01*
G01X8888160Y2953082D01*
G01X8869156Y2967874D01*
G01X8847976Y2979336D01*
G01X8825198Y2987155D01*
G01X8801445Y2991119D01*
G01X8777362Y2991119D01*
G01X8753608Y2987155D01*
G01X8730831Y2979336D01*
G01X8709651Y2967874D01*
G01X8690646Y2953082D01*
G01X8674336Y2935364D01*
G01X8661164Y2915203D01*
G01X8651490Y2893149D01*
G01X8645578Y2869803D01*
G01X8643590Y2845803D01*
G01X8643590Y2845803D01*
G01X8425210Y2845803D01*
G01X8423222Y2869803D01*
G01X8417310Y2893149D01*
G01X8407636Y2915203D01*
G01X8394464Y2935364D01*
G01X8378154Y2953082D01*
G01X8359149Y2967874D01*
G01X8337969Y2979336D01*
G01X8315192Y2987155D01*
G01X8291438Y2991119D01*
G01X8267355Y2991119D01*
G01X8243602Y2987155D01*
G01X8220824Y2979336D01*
G01X8199644Y2967874D01*
G01X8180640Y2953082D01*
G01X8164329Y2935364D01*
G01X8151157Y2915203D01*
G01X8141484Y2893149D01*
G01X8135572Y2869803D01*
G01X8133583Y2845803D01*
G01X8133583Y2845803D01*
G01X7995674Y2845803D01*
G01X7995674Y2876189D01*
G01X7994840Y2883870D01*
G01X7992379Y2891193D01*
G01X7994840Y2898516D01*
G01X7995674Y2906197D01*
G01X7995674Y2986197D01*
G01X7994840Y2993877D01*
G01X7992379Y3001201D01*
G01X7994840Y3008524D01*
G01X7995674Y3016204D01*
G01X7995674Y3096204D01*
G01X7993921Y3107271D01*
G01X7988834Y3117255D01*
G01X7980911Y3125178D01*
G01X7970927Y3130265D01*
G01X7959860Y3132018D01*
G01X7779860Y3132018D01*
G01X7768793Y3130265D01*
G01X7758809Y3125178D01*
G01X7750886Y3117255D01*
G01X7745799Y3107271D01*
G01X7744046Y3096204D01*
G01X7064154Y3096204D01*
G01X7062401Y3107271D01*
G01X7057314Y3117255D01*
G01X7049391Y3125178D01*
G01X7039407Y3130265D01*
G01X7028340Y3132018D01*
G01X6848340Y3132018D01*
G01X6837273Y3130265D01*
G01X6827289Y3125178D01*
G01X6819366Y3117255D01*
G01X6814279Y3107271D01*
G01X6812526Y3096204D01*
G01X6812526Y3016204D01*
G01X6813360Y3008524D01*
G01X6815821Y3001201D01*
G01X6813603Y2994914D01*
G01X6801610Y2994914D01*
G01X6789946Y3003603D01*
G01X6776668Y3009541D01*
G01X6762416Y3012441D01*
G01X6747874Y3012164D01*
G01X6733742Y3008723D01*
G01X6720700Y3002284D01*
G01X6709375Y2993157D01*
G01X6700313Y2981781D01*
G01X6693949Y2968702D01*
G01X6690589Y2954551D01*
G01X6690395Y2940007D01*
G01X6693376Y2925771D01*
G01X6699389Y2912528D01*
G01X6708145Y2900914D01*
G01X6719222Y2891488D01*
G01X6732088Y2884703D01*
G01X6645406Y2884703D01*
G01X6614414Y2915695D01*
G01X6614414Y3124200D01*
G01X6612761Y3136756D01*
G01X6607914Y3148457D01*
G01X6600205Y3158505D01*
G01X6392575Y3366134D01*
G01X8605426Y3366134D01*
G01X8607414Y3342134D01*
G01X8613326Y3318788D01*
G01X8623000Y3296734D01*
G01X8636172Y3276573D01*
G01X8652483Y3258855D01*
G01X8671487Y3244063D01*
G01X8692667Y3232601D01*
G01X8715445Y3224782D01*
G01X8739199Y3220818D01*
G01X8763281Y3220818D01*
G01X8787035Y3224782D01*
G01X8809813Y3232601D01*
G01X8830993Y3244063D01*
G01X8849997Y3258855D01*
G01X8866308Y3276573D01*
G01X8879479Y3296734D01*
G01X8889153Y3318788D01*
G01X8895065Y3342134D01*
G01X8897054Y3366134D01*
G01X8897054Y3366134D01*
G01X8895065Y3390134D01*
G01X8889153Y3413480D01*
G01X8879479Y3435534D01*
G01X8866308Y3455695D01*
G01X8849997Y3473413D01*
G01X8830993Y3488205D01*
G01X8809813Y3499667D01*
G01X8787035Y3507486D01*
G01X8763281Y3511450D01*
G01X8739199Y3511450D01*
G01X8715445Y3507486D01*
G01X8692667Y3499667D01*
G01X8671487Y3488205D01*
G01X8652483Y3473413D01*
G01X8636172Y3455695D01*
G01X8623000Y3435534D01*
G01X8613326Y3413480D01*
G01X8607414Y3390134D01*
G01X8605426Y3366134D01*
G01X6392575Y3366134D01*
G01X6320805Y3437905D01*
G01X6310757Y3445614D01*
G01X6299056Y3450461D01*
G01X6286500Y3452114D01*
G01X1727200Y3452114D01*
G01X1714644Y3450461D01*
G01X1702943Y3445614D01*
G01X1692895Y3437905D01*
G01X1489695Y3234705D01*
G01X1486968Y3231740D01*
G01X1466362Y3223335D01*
G01X1447560Y3211430D01*
G01X1431150Y3196400D01*
G01X1417644Y3178713D01*
G01X1407466Y3158923D01*
G01X1400934Y3137649D01*
G01X1398252Y3115558D01*
G01X1395814Y3115558D01*
G01X1395814Y3201500D01*
G01X1394061Y3212567D01*
G01X1388974Y3222551D01*
G01X1381051Y3230474D01*
G01X1371067Y3235561D01*
G01X1360000Y3237314D01*
G01X1180000Y3237314D01*
G01X1168933Y3235561D01*
G01X1158949Y3230474D01*
G01X1151026Y3222551D01*
G01X1145939Y3212567D01*
G01X1144186Y3201500D01*
G01X48514Y3201500D01*
G01X48514Y3366134D01*
G01X221978Y3366134D01*
G01X223967Y3342134D01*
G01X229879Y3318788D01*
G01X239552Y3296734D01*
G01X252724Y3276573D01*
G01X269035Y3258855D01*
G01X288039Y3244063D01*
G01X309219Y3232601D01*
G01X331997Y3224782D01*
G01X355751Y3220818D01*
G01X379833Y3220818D01*
G01X403587Y3224782D01*
G01X426365Y3232601D01*
G01X447545Y3244063D01*
G01X466549Y3258855D01*
G01X482860Y3276573D01*
G01X496032Y3296734D01*
G01X505705Y3318788D01*
G01X511617Y3342134D01*
G01X513606Y3366134D01*
G01X513606Y3366134D01*
G01X511617Y3390134D01*
G01X505705Y3413480D01*
G01X496032Y3435534D01*
G01X482860Y3455695D01*
G01X466549Y3473413D01*
G01X447545Y3488205D01*
G01X426365Y3499667D01*
G01X403587Y3507486D01*
G01X379833Y3511450D01*
G01X355751Y3511450D01*
G01X331997Y3507486D01*
G01X309219Y3499667D01*
G01X288039Y3488205D01*
G01X269035Y3473413D01*
G01X252724Y3455695D01*
G01X239552Y3435534D01*
G01X229879Y3413480D01*
G01X223967Y3390134D01*
G01X221978Y3366134D01*
G01X48514Y3366134D01*
G01X48514Y3697986D01*
G01X9031986Y3697986D01*
G37*
G36*
G01X698500Y2250452D02*
G01X702826Y2238942D01*
G01X709218Y2228437D01*
G01X717452Y2219305D01*
G01X727241Y2211864D01*
G01X669759Y2211864D01*
G01X679548Y2219305D01*
G01X687782Y2228437D01*
G01X694174Y2238942D01*
G01X698500Y2250452D01*
G37*
G36*
G01X894314Y1926050D02*
G01X894314Y2176050D01*
G01X892698Y2186686D01*
G01X949026Y2186686D01*
G01X963937Y2171776D01*
G01X971354Y2166084D01*
G01X979992Y2162506D01*
G01X989261Y2161286D01*
G01X1002701Y2161286D01*
G01X999251Y2152782D01*
G01X998075Y2143681D01*
G01X998075Y2036150D01*
G01X939876Y1977950D01*
G01X934184Y1970533D01*
G01X930606Y1961895D01*
G01X929386Y1952626D01*
G01X929386Y1898819D01*
G01X881762Y1898819D01*
G01X888537Y1906546D01*
G01X892839Y1915880D01*
G01X894314Y1926050D01*
G37*
G36*
G01X7359021Y1767586D02*
G01X7370355Y1759122D01*
G01X7383226Y1753256D01*
G01X7397049Y1750255D01*
G01X7411194Y1750255D01*
G01X7425017Y1753256D01*
G01X7437889Y1759122D01*
G01X7449222Y1767586D01*
G01X7455880Y1767586D01*
G01X7455586Y1763001D01*
G01X7455586Y1706436D01*
G01X7457280Y1695551D01*
G01X7462202Y1685696D01*
G01X7469886Y1677803D01*
G01X7469886Y1365634D01*
G01X7459715Y1355176D01*
G01X7452077Y1342747D01*
G01X7447341Y1328950D01*
G01X7445736Y1314450D01*
G01X7447341Y1299950D01*
G01X7452077Y1286153D01*
G01X7459715Y1273724D01*
G01X7469886Y1263266D01*
G01X7469886Y1205151D01*
G01X7460501Y1202303D01*
G01X7453183Y1204760D01*
G01X7445510Y1205592D01*
G01X7365510Y1205592D01*
G01X7357829Y1204759D01*
G01X7350506Y1202298D01*
G01X7344016Y1204565D01*
G01X7344016Y1216474D01*
G01X7359282Y1219072D01*
G01X7373530Y1225140D01*
G01X7385982Y1234346D01*
G01X7395959Y1246190D01*
G01X7402917Y1260024D01*
G01X7406477Y1275095D01*
G01X7406444Y1290581D01*
G01X7402821Y1305637D01*
G01X7395805Y1319442D01*
G01X7385779Y1331243D01*
G01X7373288Y1340398D01*
G01X7359016Y1346406D01*
G01X7343739Y1348940D01*
G01X7328291Y1347862D01*
G01X7313514Y1343230D01*
G01X7300214Y1335298D01*
G01X7300214Y1700586D01*
G01X7322953Y1700586D01*
G01X7334020Y1702339D01*
G01X7344004Y1707426D01*
G01X7351927Y1715349D01*
G01X7357014Y1725333D01*
G01X7358767Y1736400D01*
G01X7358767Y1767586D01*
G01X7359021Y1767586D01*
G37*
G54D10*
G01X9031986Y3697986D02*
G01X9031986Y35814D01*
G01X48514Y35814D01*
G01X48514Y3697986D01*
G01X9031986Y3697986D01*
G01X180486Y565314D02*
G01X156300Y565314D01*
G03X120486Y529500I0J-35814D01*
G01X120486Y359500D01*
G03X156300Y323686I35814J0D01*
G01X182086Y323686D01*
G01X182086Y281115D01*
G01X172400Y281115D01*
G03X136586Y245301I0J-35814D01*
G01X136586Y110300D01*
G03X172400Y74486I35814J0D01*
G01X313400Y74486D01*
G03X342900Y89991I0J35814D01*
G03X372400Y74486I29500J20308D01*
G01X513400Y74486D01*
G03X549214Y110300I0J35814D01*
G01X549214Y245301D01*
G03X513400Y281115I-35814J0D01*
G01X372400Y281115D01*
G03X342900Y265609I0J-35814D01*
G03X313400Y281115I-29500J-20308D01*
G01X303714Y281115D01*
G01X303714Y323686D01*
G01X326300Y323686D01*
G03X362114Y359500I0J35814D01*
G01X362114Y529500D01*
G03X326300Y565314I-35814J0D01*
G01X302114Y565314D01*
G01X302114Y905529D01*
G03X320015Y936541I-17913J31012D01*
G01X320015Y1141179D01*
G03X284201Y1176993I-35814J0D01*
G01X122199Y1176993D01*
G03X86385Y1141179I0J-35814D01*
G01X86385Y936541D01*
G03X122199Y900727I35814J0D01*
G01X180486Y900727D01*
G01X180486Y565314D01*
G01X205886Y1690073D02*
G01X122199Y1690073D01*
G03X86385Y1654259I0J-35814D01*
G01X86385Y1449621D01*
G03X122199Y1413807I35814J0D01*
G01X284201Y1413807D01*
G03X320015Y1449621I0J35814D01*
G01X320015Y1586184D01*
G03X321856Y1589825I-53315J29256D01*
G03X416119Y1640476I21044J73875D01*
G03X368283Y1736199I-73219J23224D01*
G03X370015Y1747200I-34083J11001D01*
G01X370015Y1888200D01*
G03X354509Y1917700I-35814J0D01*
G03X370015Y1947200I-20308J29500D01*
G01X370015Y2088200D01*
G03X334201Y2124014I-35814J0D01*
G01X199200Y2124014D01*
G03X163386Y2088200I0J-35814D01*
G01X163386Y1947200D01*
G03X178891Y1917700I35814J0D01*
G03X163386Y1888200I20308J-29500D01*
G01X163386Y1747200D01*
G03X199200Y1711386I35814J0D01*
G01X205886Y1711386D01*
G01X205886Y1690073D01*
G01X513606Y3366134D02*
G03X221978Y3366134I-145814J0D01*
G03X513606Y3366134I145814J0D01*
G01X943099Y621673D02*
G03X978913Y657487I0J35814D01*
G01X978913Y858487D01*
G03X943099Y894301I-35814J0D01*
G01X403101Y894301D01*
G03X367287Y858487I0J-35814D01*
G01X367287Y657487D01*
G03X403101Y621673I35814J0D01*
G01X943099Y621673D01*
G01X827786Y1863005D02*
G01X827786Y1845823D01*
G03X825500Y1838948I61214J-24173D01*
G03X698500Y1838948I-63500J-17298D01*
G03X571500Y1838948I-63500J-17298D01*
G03X442186Y1821650I-63500J-17298D01*
G01X442186Y1771650D01*
G01X442186Y1665101D01*
G03X417159Y1630951I10787J-34151D01*
G01X417159Y1493249D01*
G03X452973Y1457435I35814J0D01*
G01X566227Y1457435D01*
G03X602041Y1493249I0J35814D01*
G01X602041Y1630951D01*
G03X573814Y1665952I-35814J0D01*
G01X573814Y1697407D01*
G03X627625Y1656251I61186J24244D01*
G03X617159Y1630951I25348J-25300D01*
G01X617159Y1493249D01*
G03X633786Y1463009I35814J0D01*
G01X633786Y1410327D01*
G01X403101Y1410327D01*
G03X367287Y1374513I0J-35814D01*
G01X367287Y1173513D01*
G03X403101Y1137699I35814J0D01*
G01X648368Y1137699D01*
G03X698500Y1002686I50132J-58199D01*
G03X748632Y1137699I0J76814D01*
G01X943099Y1137699D01*
G03X957972Y1140933I0J35814D01*
G03X965276Y1130376I32628J14767D01*
G01X990676Y1104976D01*
G03X1016000Y1094486I25324J25324D01*
G01X1219200Y1094486D01*
G03X1244524Y1104976I0J35814D01*
G01X1257224Y1117676D01*
G03X1267714Y1143000I-25324J25324D01*
G01X1267714Y1471065D01*
G01X1269924Y1473276D01*
G03X1280414Y1498600I-25324J25324D01*
G01X1280414Y1943100D01*
G03X1272226Y1965892I-35814J0D01*
G03X1255127Y1983221I-32525J-14991D01*
G01X1206424Y2031924D01*
G03X1204214Y2033957I-25324J-25324D01*
G01X1204214Y2143681D01*
G03X1192259Y2170391I-35814J0D01*
G01X1193724Y2171776D01*
G01X1206424Y2184476D01*
G03X1216914Y2209800I-25324J25324D01*
G01X1216914Y2295387D01*
G03X1206424Y2320711I-35814J0D01*
G01X1170245Y2356891D01*
G03X1144920Y2367381I-25324J-25324D01*
G01X1061468Y2367381D01*
G01X1003224Y2425624D01*
G03X977900Y2436114I-25324J-25324D01*
G01X838200Y2436114D01*
G03X806245Y2416472I0J-35814D01*
G03X698500Y2385048I-44245J-48722D01*
G03X571500Y2385048I-63500J-17298D01*
G03X556514Y2412223I-63500J-17298D01*
G01X556514Y2507205D01*
G01X586536Y2537227D01*
G03X631091Y2650391I-2336J66273D01*
G03X517927Y2605836I-46891J-46891D01*
G01X473695Y2561605D01*
G03X459486Y2527300I34305J-34305D01*
G01X459486Y2412223D01*
G03X442186Y2367750I48514J-44473D01*
G01X442186Y2267750D01*
G03X514045Y2202214I65814J0D01*
G03X502686Y2176050I24455J-26165D01*
G01X502686Y1926050D01*
G03X538500Y1890236I35814J0D01*
G01X840338Y1890236D01*
G03X827786Y1863005I23262J-27231D01*
G01X374486Y444500D02*
G03X616114Y444500I120814J0D01*
G03X374486Y444500I-120814J0D01*
G01X628486Y444500D02*
G03X870114Y444500I120814J0D01*
G03X628486Y444500I-120814J0D01*
G01X882486Y444500D02*
G03X1124114Y444500I120814J0D01*
G03X882486Y444500I-120814J0D01*
G01X1136486Y444500D02*
G03X1378114Y444500I120814J0D01*
G03X1136486Y444500I-120814J0D01*
G01X1360000Y2985686D02*
G03X1395814Y3021500I0J35814D01*
G01X1395814Y3201500D01*
G03X1360000Y3237314I-35814J0D01*
G01X1180000Y3237314D01*
G03X1144186Y3201500I0J-35814D01*
G01X1144186Y3021500D01*
G03X1180000Y2985686I35814J0D01*
G01X1360000Y2985686D01*
G01X1360000Y741361D02*
G03X1395814Y777175I0J35814D01*
G01X1395814Y957175D01*
G03X1360000Y992989I-35814J0D01*
G01X1180000Y992989D01*
G03X1144186Y957175I0J-35814D01*
G01X1144186Y777175D01*
G03X1180000Y741361I35814J0D01*
G01X1360000Y741361D01*
G01X1409700Y1991614D02*
G03X1373886Y1955800I0J-35814D01*
G01X1373886Y1524000D01*
G03X1384376Y1498676I35814J0D01*
G01X1397076Y1485976D01*
G03X1422400Y1475486I25324J25324D01*
G01X1725065Y1475486D01*
G01X1742186Y1458365D01*
G01X1742186Y1155700D01*
G03X1752676Y1130376I35814J0D01*
G01X1841576Y1041476D01*
G03X1866900Y1030986I25324J25324D01*
G01X2108200Y1030986D01*
G03X2133524Y1041476I0J35814D01*
G01X2146224Y1054176D01*
G03X2156714Y1079500I-25324J25324D01*
G01X2156714Y1696644D01*
G03X2146224Y1721968I-35814J0D01*
G01X2132906Y1735286D01*
G01X2192802Y1735286D01*
G03X2228616Y1771100I0J35814D01*
G01X2228616Y1861100D01*
G03X2192802Y1896914I-35814J0D01*
G01X2118609Y1896914D01*
G01X2118609Y1922555D01*
G03X2108119Y1947879I-35814J0D01*
G01X2074874Y1981124D01*
G03X2054714Y1991240I-25324J-25324D01*
G01X2054714Y2049408D01*
G03X2060227Y2068500I-30301J19092D01*
G01X2060227Y2122500D01*
G03X2024413Y2158314I-35814J0D01*
G01X2014146Y2158314D01*
G01X2014146Y2250589D01*
G01X2087910Y2250589D01*
G03X2123724Y2286403I0J35814D01*
G01X2123724Y2384403D01*
G03X2087910Y2420217I-35814J0D01*
G01X1840911Y2420217D01*
G03X1805097Y2384403I0J-35814D01*
G01X1805097Y2286403D01*
G03X1840911Y2250589I35814J0D01*
G01X1858507Y2250589D01*
G03X1848733Y2226000I26039J-24588D01*
G01X1848733Y2193600D01*
G03X1878418Y2158314I35814J0D01*
G01X1836387Y2158314D01*
G03X1800573Y2122500I0J-35814D01*
G01X1800573Y2068500D01*
G03X1836387Y2032686I35814J0D01*
G01X1915396Y2032686D01*
G03X1930400Y2035980I0J35814D01*
G03X1933086Y2034871I15004J32520D01*
G01X1933086Y1993690D01*
G01X1931010Y1991614D01*
G01X1559814Y1991614D01*
G01X1559814Y2032490D01*
G03X1511300Y2144014I-48514J45210D01*
G03X1462786Y2032490I0J-66314D01*
G01X1462786Y1991614D01*
G01X1409700Y1991614D01*
G01X1398186Y867175D02*
G03X1649814Y867175I125814J0D01*
G03X1398186Y867175I-125814J0D01*
G01X4283695Y1083295D02*
G03X4318000Y1069086I34305J34305D01*
G01X4894805Y1069086D01*
G01X4904486Y1059405D01*
G01X4904486Y965507D01*
G03X4700186Y867175I-78486J-98331D01*
G03X4904486Y768844I125814J0D01*
G01X4904486Y749300D01*
G03X4918695Y714995I48514J0D01*
G01X5007595Y626095D01*
G03X5041900Y611886I34305J34305D01*
G01X5198398Y611886D01*
G03X5198186Y608000I35603J-3886D01*
G01X5198186Y408000D01*
G03X5234000Y372186I35814J0D01*
G01X5434000Y372186D01*
G03X5469814Y408000I0J35814D01*
G01X5469814Y441087D01*
G03X5615718Y375045I118186J66913D01*
G03X5723078Y493886I-27718J132955D01*
G01X5723078Y365300D01*
G03X5758892Y329486I35814J0D01*
G01X5879692Y329486D01*
G03X5915506Y365300I0J35814D01*
G01X5915506Y498300D01*
G03X5879692Y534114I-35814J0D01*
G01X5758892Y534114D01*
G03X5723789Y505398I0J-35814D01*
G03X5561505Y641204I-135789J2602D01*
G01X5552723Y649986D01*
G01X5857312Y649986D01*
G01X6047894Y459405D01*
G01X6047894Y365300D01*
G03X6083708Y329486I35814J0D01*
G01X6095594Y329486D01*
G01X6095594Y304321D01*
G01X6082687Y291414D01*
G01X6060199Y291414D01*
G03X6045200Y288122I0J-35814D01*
G03X6030201Y291414I-14999J-32522D01*
G01X5973636Y291414D01*
G03X5941316Y271031I0J-35814D01*
G01X5157509Y271031D01*
G03X5161514Y287487I-31809J16457D01*
G01X5161514Y347487D01*
G03X5156948Y364985I-35814J0D01*
G03X5161514Y382483I-31248J17498D01*
G01X5161514Y442483D01*
G03X5129196Y478126I-35814J0D01*
G03X5073312Y580663I-55546J36224D01*
G03X5018476Y477561I338J-66313D01*
G03X4989886Y442483I7224J-35078D01*
G01X4989886Y382483D01*
G03X4994452Y364985I35814J0D01*
G03X4989886Y347487I31248J-17498D01*
G01X4989886Y287487D01*
G03X4994444Y270002I35814J0D01*
G03X4989886Y252517I31255J-17485D01*
G01X4989886Y192517D01*
G03X5025700Y156703I35814J0D01*
G01X5125700Y156703D01*
G03X5156357Y174003I0J35814D01*
G01X5950809Y174003D01*
G03X5973636Y165786I22826J27597D01*
G01X6030201Y165786D01*
G03X6045200Y169078I0J35814D01*
G03X6060199Y165786I14999J32522D01*
G01X6116765Y165786D01*
G03X6152579Y201600I0J35814D01*
G01X6152579Y224088D01*
G01X6178412Y249921D01*
G03X6192622Y284226I-34305J34305D01*
G01X6192622Y329486D01*
G01X6204508Y329486D01*
G03X6240322Y365300I0J35814D01*
G01X6240322Y498300D01*
G03X6204508Y534114I-35814J0D01*
G01X6110403Y534114D01*
G01X5911712Y732805D01*
G03X5879183Y746982I-34305J-34305D01*
G03X5842055Y992989I-37183J120194D01*
G03X5804712Y747014I-55J-125814D01*
G01X5625288Y747014D01*
G03X5588000Y992989I-37288J120161D01*
G03X5550712Y747014I0J-125814D01*
G01X5371288Y747014D01*
G03X5447262Y921954I-37288J120161D01*
G03X5262953Y971009I-113262J-54779D01*
G01X5262953Y1021261D01*
G03X5248744Y1055565I-48514J0D01*
G01X4239514Y2064795D01*
G01X4239514Y2536723D01*
G01X4634345Y2141891D01*
G03X4668650Y2127682I34305J34305D01*
G01X6813553Y2127682D01*
G03X6848340Y2100382I34787J8514D01*
G01X7028340Y2100382D01*
G03X7064154Y2136196I0J35814D01*
G01X7064154Y2216196D01*
G03X7060860Y2231200I-35814J0D01*
G03X7064154Y2246203I-32520J15004D01*
G01X7064154Y2326203D01*
G03X7060860Y2341207I-35814J0D01*
G03X7064154Y2356211I-32520J15004D01*
G01X7064154Y2436211D01*
G03X7060866Y2451202I-35814J0D01*
G03X7064154Y2466193I-32526J14991D01*
G01X7064154Y2546193D01*
G03X7060860Y2561196I-35814J0D01*
G03X7064154Y2576200I-32520J15004D01*
G01X7064154Y2656200D01*
G03X7060860Y2671204I-35814J0D01*
G03X7064154Y2686207I-32520J15004D01*
G01X7064154Y2766207D01*
G03X7060866Y2781198I-35814J0D01*
G03X7064154Y2796189I-32526J14991D01*
G01X7064154Y2876189D01*
G03X7060860Y2891193I-35814J0D01*
G03X7064154Y2906197I-32520J15004D01*
G01X7064154Y2986197D01*
G03X7060860Y3001201I-35814J0D01*
G03X7064154Y3016204I-32520J15004D01*
G01X7064154Y3096204D01*
G03X7028340Y3132018I-35814J0D01*
G01X6848340Y3132018D01*
G03X6812526Y3096204I0J-35814D01*
G01X6812526Y3016204D01*
G03X6815821Y3001201I35814J0D01*
G03X6813603Y2994914I32520J-15004D01*
G01X6801610Y2994914D01*
G03X6700313Y2981781I-45210J-48514D01*
G03X6732088Y2884703I56087J-35381D01*
G01X6645406Y2884703D01*
G01X6614414Y2915695D01*
G01X6614414Y3124200D01*
G03X6600205Y3158505I-48514J0D01*
G01X6320805Y3437905D01*
G03X6286500Y3452114I-34305J-34305D01*
G01X1727200Y3452114D01*
G03X1692895Y3437905I0J-48514D01*
G01X1489695Y3234705D01*
G03X1486968Y3231740I34305J-34305D01*
G03X1500712Y2987860I37032J-120240D01*
G03X1602238Y3210029I23288J123640D01*
G01X1747295Y3355086D01*
G01X6266405Y3355086D01*
G01X6517386Y3104105D01*
G01X6517386Y2955858D01*
G03X6444490Y2944114I-27686J-60258D01*
G01X6324600Y2944114D01*
G03X6290295Y2929905I0J-48514D01*
G01X6252195Y2891805D01*
G03X6237986Y2857500I34305J-34305D01*
G01X6237986Y2740860D01*
G03X6252195Y2706556I48514J0D01*
G01X6270156Y2688595D01*
G03X6304461Y2674386I34305J34305D01*
G01X6534722Y2674386D01*
G01X6534722Y2627300D01*
G03X6569695Y2591496I35814J0D01*
G03X6581596Y2570014I47005J12004D01*
G01X6506698Y2570014D01*
G03X6470884Y2534200I0J-35814D01*
G01X6470884Y2444200D01*
G03X6506698Y2408386I35814J0D01*
G01X6586698Y2408386D01*
G03X6616700Y2424643I0J35814D01*
G03X6624876Y2415806I30002J19557D01*
G03X6632107Y2354186I61827J-23979D01*
G03X6629400Y2350557I27296J-23186D01*
G03X6599398Y2366814I-30002J-19557D01*
G01X6519398Y2366814D01*
G03X6483584Y2331000I0J-35814D01*
G01X6483584Y2241000D01*
G03X6487503Y2224710I35814J0D01*
G01X4688745Y2224710D01*
G01X3986051Y2927404D01*
G03X3951746Y2941614I-34305J-34305D01*
G01X3540495Y2941614D01*
G01X3418388Y3063721D01*
G03X3213036Y3200464I-116388J47779D01*
G03X3349779Y2995112I88964J-88964D01*
G01X3438877Y2906014D01*
G01X3131310Y2906014D01*
G03X3019786Y2857500I-45210J-48514D01*
G03X3131310Y2808986I66314J0D01*
G01X3916905Y2808986D01*
G01X4142486Y2583405D01*
G01X4142486Y2044700D01*
G03X4156695Y2010395I48514J0D01*
G01X5165925Y1001165D01*
G01X5165925Y959077D01*
G03X5001514Y965507I-85925J-91902D01*
G01X5001514Y1079500D01*
G03X4987305Y1113805I-48514J0D01*
G01X4949205Y1151905D01*
G03X4914900Y1166114I-34305J-34305D01*
G01X4338095Y1166114D01*
G01X3566414Y1937795D01*
G01X3566414Y2692400D01*
G03X3552205Y2726705I-48514J0D01*
G01X3506665Y2772244D01*
G03X3472361Y2786453I-34305J-34305D01*
G01X3022556Y2786453D01*
G01X2939479Y2869531D01*
G01X2939479Y2897200D01*
G03X2903665Y2933014I-35814J0D01*
G01X2847099Y2933014D01*
G03X2832100Y2929722I0J-35814D01*
G03X2817101Y2933014I-14999J-32522D01*
G01X2760536Y2933014D01*
G03X2731903Y2918714I0J-35814D01*
G01X2547395Y2918714D01*
G01X2402388Y3063721D01*
G03X2197036Y3200464I-116388J47779D01*
G03X2333779Y2995112I88964J-88964D01*
G01X2492995Y2835895D01*
G03X2527300Y2821686I34305J34305D01*
G01X2731903Y2821686D01*
G03X2746344Y2810318I28632J21514D01*
G03X2759695Y2785095I47656J9082D01*
G01X2899395Y2645395D01*
G03X2933700Y2631186I34305J34305D01*
G01X3284678Y2631186D01*
G01X3284678Y2575100D01*
G03X3320492Y2539286I35814J0D01*
G01X3441292Y2539286D01*
G03X3469386Y2552888I0J35814D01*
G01X3469386Y2297516D01*
G01X3261793Y2297516D01*
G03X3225979Y2261702I0J-35814D01*
G01X3225979Y2232516D01*
G01X2958887Y2232516D01*
G01X2843623Y2347780D01*
G03X2843714Y2351100I-60723J3320D01*
G01X2843714Y2398586D01*
G01X2853400Y2398586D01*
G03X2882900Y2414091I0J35814D01*
G03X2912400Y2398586I29500J20308D01*
G01X3053400Y2398586D01*
G03X3089214Y2434400I0J35814D01*
G01X3089214Y2569401D01*
G03X3053400Y2605215I-35814J0D01*
G01X2912400Y2605215D01*
G03X2882900Y2589709I0J-35814D01*
G03X2853400Y2605215I-29500J-20308D01*
G01X2765590Y2605215D01*
G01X2762402Y2608402D01*
G03X2719400Y2626214I-43002J-43002D01*
G01X2690703Y2626214D01*
G01X2690703Y2745400D01*
G03X2654889Y2781214I-35814J0D01*
G01X2407890Y2781214D01*
G03X2372076Y2745400I0J-35814D01*
G01X2372076Y2626214D01*
G01X2121720Y2626214D01*
G03X2087910Y2650214I-33810J-11814D01*
G01X1840911Y2650214D01*
G03X1805097Y2614400I0J-35814D01*
G01X1805097Y2516400D01*
G03X1840911Y2480586I35814J0D01*
G01X2087910Y2480586D01*
G03X2121720Y2504586I0J35814D01*
G01X2372076Y2504586D01*
G01X2372076Y2385400D01*
G03X2407890Y2349586I35814J0D01*
G01X2654889Y2349586D01*
G03X2690703Y2385400I0J35814D01*
G01X2690703Y2405906D01*
G03X2712400Y2398586I21697J28494D01*
G01X2722086Y2398586D01*
G01X2722086Y2363359D01*
G03X2720486Y2349500I59214J-13859D01*
G01X2720486Y2324100D01*
G03X2738298Y2281098I60814J0D01*
G01X2890696Y2128701D01*
G03X2933697Y2110889I43002J43002D01*
G01X3225979Y2110889D01*
G01X3225979Y2081703D01*
G03X3261793Y2045889I35814J0D01*
G01X3318279Y2045889D01*
G01X3318279Y1964488D01*
G01X3286964Y1933173D01*
G03X3242409Y1820009I2336J-66273D01*
G03X3355573Y1864564I46891J46891D01*
G01X3401097Y1910088D01*
G03X3415307Y1944393I-34305J34305D01*
G01X3415307Y2045889D01*
G01X3469386Y2045889D01*
G01X3469386Y1917700D01*
G03X3483595Y1883395I48514J0D01*
G01X4283695Y1083295D01*
G01X1456779Y1160380D02*
G03X1492593Y1124566I35814J0D01*
G01X1697342Y1124566D01*
G03X1733156Y1160380I0J35814D01*
G01X1733156Y1379620D01*
G03X1697342Y1415434I-35814J0D01*
G01X1492593Y1415434D01*
G03X1456779Y1379620I0J-35814D01*
G01X1456779Y1160380D01*
G01X1898630Y318134D02*
G03X1607002Y318134I-145814J0D01*
G03X1898630Y318134I145814J0D01*
G01X1652186Y3111500D02*
G03X1903814Y3111500I125814J0D01*
G03X1652186Y3111500I-125814J0D01*
G01X1652186Y867175D02*
G03X1903814Y867175I125814J0D01*
G03X1652186Y867175I-125814J0D01*
G01X2123724Y2844397D02*
G03X2087910Y2880211I-35814J0D01*
G01X1840911Y2880211D01*
G03X1805097Y2844397I0J-35814D01*
G01X1805097Y2746397D01*
G03X1840911Y2710583I35814J0D01*
G01X2087910Y2710583D01*
G03X2123724Y2746397I0J35814D01*
G01X2123724Y2844397D01*
G01X1906186Y3111500D02*
G03X2157814Y3111500I125814J0D01*
G03X1906186Y3111500I-125814J0D01*
G01X1906186Y867175D02*
G03X2157814Y867175I125814J0D01*
G03X1906186Y867175I-125814J0D01*
G01X2195159Y121649D02*
G03X2230973Y85835I35814J0D01*
G01X2344227Y85835D01*
G03X2380041Y121649I0J35814D01*
G01X2380041Y259351D01*
G03X2344227Y295165I-35814J0D01*
G01X2230973Y295165D01*
G03X2195159Y259351I0J-35814D01*
G01X2195159Y239014D01*
G01X2191510Y239014D01*
G03X2079986Y190500I-45210J-48514D01*
G03X2191510Y141986I66314J0D01*
G01X2195159Y141986D01*
G01X2195159Y121649D01*
G01X2268286Y698500D02*
G03X2284634Y659034I55814J0D01*
G01X2346102Y597566D01*
G03X2385568Y581218I39466J39466D01*
G01X2386386Y581218D01*
G01X2386386Y563747D01*
G03X2422200Y527933I35814J0D01*
G01X2454600Y527933D01*
G03X2490414Y563747I0J35814D01*
G01X2490414Y575534D01*
G03X2542448Y576563I24811J61498D01*
G03X2577603Y547586I35155J6837D01*
G01X2642605Y547586D01*
G03X2678419Y583400I0J35814D01*
G01X2678419Y683400D01*
G03X2642605Y719214I-35814J0D01*
G01X2577603Y719214D01*
G03X2544320Y696623I0J-35814D01*
G03X2479416Y692846I-29094J-59591D01*
G01X2408687Y692846D01*
G01X2379914Y721619D01*
G01X2379914Y783454D01*
G03X2242773Y985330I-93914J83721D01*
G03X2268286Y742615I43227J-118155D01*
G01X2268286Y698500D01*
G01X2616827Y1666999D02*
G03X2581013Y1702813I-35814J0D01*
G01X2380013Y1702813D01*
G03X2344199Y1666999I0J-35814D01*
G01X2344199Y1127001D01*
G03X2380013Y1091187I35814J0D01*
G01X2581013Y1091187D01*
G03X2616827Y1127001I0J35814D01*
G01X2616827Y1666999D01*
G01X2430973Y295165D02*
G03X2395159Y259351I0J-35814D01*
G01X2395159Y121649D01*
G03X2430973Y85835I35814J0D01*
G01X2544227Y85835D01*
G03X2580041Y121649I0J35814D01*
G01X2580041Y141986D01*
G01X2588859Y141986D01*
G01X2588859Y121649D01*
G03X2624673Y85835I35814J0D01*
G01X2737927Y85835D01*
G03X2773741Y121649I0J35814D01*
G01X2773741Y259351D01*
G03X2737927Y295165I-35814J0D01*
G01X2636831Y295165D01*
G03X2657073Y340564I-46031J47735D01*
G01X2664927Y348418D01*
G03X2672599Y347586I7672J34983D01*
G01X2737601Y347586D01*
G03X2773415Y383400I0J35814D01*
G01X2773415Y483400D01*
G03X2737601Y519214I-35814J0D01*
G01X2672599Y519214D01*
G03X2636785Y483400I0J-35814D01*
G01X2636785Y457495D01*
G01X2588464Y409173D01*
G03X2524527Y345236I2336J-66273D01*
G01X2474455Y295165D01*
G01X2430973Y295165D01*
G01X2414186Y3111500D02*
G03X2665814Y3111500I125814J0D01*
G03X2414186Y3111500I-125814J0D01*
G01X2414186Y867175D02*
G03X2665814Y867175I125814J0D01*
G03X2414186Y867175I-125814J0D01*
G01X2668186Y3111500D02*
G03X2919814Y3111500I125814J0D01*
G03X2668186Y3111500I-125814J0D01*
G01X2668186Y867175D02*
G03X2919814Y867175I125814J0D01*
G03X2668186Y867175I-125814J0D01*
G01X2832597Y547586D02*
G03X2868411Y583400I0J35814D01*
G01X2868411Y683400D01*
G03X2832597Y719214I-35814J0D01*
G01X2767595Y719214D01*
G03X2731781Y683400I0J-35814D01*
G01X2731781Y583400D01*
G03X2767595Y547586I35814J0D01*
G01X2832597Y547586D01*
G01X2973741Y259351D02*
G03X2937927Y295165I-35814J0D01*
G01X2824673Y295165D01*
G03X2788859Y259351I0J-35814D01*
G01X2788859Y121649D01*
G03X2824673Y85835I35814J0D01*
G01X2937927Y85835D01*
G03X2973741Y121649I0J35814D01*
G01X2973741Y259351D01*
G01X3302000Y670414D02*
G03X3258998Y652602I0J-60814D01*
G01X3223318Y616922D01*
G01X3201111Y616922D01*
G03X3165300Y652322I-35812J-414D01*
G01X3032300Y652322D01*
G03X2996486Y616508I0J-35814D01*
G01X2996486Y606914D01*
G01X2985543Y606914D01*
G03X2892786Y546100I-26443J-60814D01*
G03X2985543Y485286I66314J0D01*
G01X2998036Y485286D01*
G03X3032300Y459894I34264J10422D01*
G01X3165300Y459894D01*
G03X3201111Y495294I0J35814D01*
G01X3248508Y495294D01*
G03X3291510Y513106I0J60814D01*
G01X3327190Y548786D01*
G01X3374776Y548786D01*
G03X3403103Y534886I28327J21914D01*
G01X3468105Y534886D01*
G03X3503919Y570700I0J35814D01*
G01X3503919Y670700D01*
G03X3468105Y706514I-35814J0D01*
G01X3403103Y706514D01*
G03X3367289Y670700I0J-35814D01*
G01X3367289Y670414D01*
G01X3302000Y670414D01*
G01X2922186Y3111500D02*
G03X3173814Y3111500I125814J0D01*
G03X2922186Y3111500I-125814J0D01*
G01X2922186Y867175D02*
G03X3173814Y867175I125814J0D01*
G03X2922186Y867175I-125814J0D01*
G01X3188430Y52745D02*
G03X3272994Y85835I24670J61555D01*
G01X3372927Y85835D01*
G03X3408741Y121649I0J35814D01*
G01X3408741Y259351D01*
G03X3372927Y295165I-35814J0D01*
G01X3259673Y295165D01*
G03X3223859Y259351I0J-35814D01*
G01X3223859Y238885D01*
G03X3201114Y231275I3541J-48385D01*
G01X3201114Y291692D01*
G03X3165300Y327506I-35814J0D01*
G01X3032300Y327506D01*
G03X2996486Y291692I0J-35814D01*
G01X2996486Y170892D01*
G03X3032300Y135078I35814J0D01*
G01X3150125Y135078D01*
G03X3188430Y52745I62975J-20778D01*
G01X3176186Y867175D02*
G03X3427814Y867175I125814J0D01*
G03X3176186Y867175I-125814J0D01*
G01X3459673Y295165D02*
G03X3423859Y259351I0J-35814D01*
G01X3423859Y121649D01*
G03X3459673Y85835I35814J0D01*
G01X3572927Y85835D01*
G03X3606800Y110021I0J35814D01*
G03X3640673Y85835I33873J11629D01*
G01X3753927Y85835D01*
G03X3789741Y121649I0J35814D01*
G01X3789741Y259351D01*
G03X3753927Y295165I-35814J0D01*
G01X3659103Y295165D01*
G03X3656784Y383255I-50703J42741D01*
G03X3642705Y414009I-48384J-3550D01*
G01X3598915Y457799D01*
G01X3598915Y470700D01*
G03X3563101Y506514I-35814J0D01*
G01X3498099Y506514D01*
G03X3462285Y470700I0J-35814D01*
G01X3462285Y370700D01*
G03X3498099Y334886I35814J0D01*
G01X3542155Y334886D01*
G03X3557697Y295165I66245J3019D01*
G01X3459673Y295165D01*
G01X3430186Y3111500D02*
G03X3681814Y3111500I125814J0D01*
G03X3430186Y3111500I-125814J0D01*
G01X3430186Y867175D02*
G03X3681814Y867175I125814J0D01*
G03X3430186Y867175I-125814J0D01*
G01X3658097Y534886D02*
G03X3693911Y570700I0J35814D01*
G01X3693911Y670700D01*
G03X3658097Y706514I-35814J0D01*
G01X3593095Y706514D01*
G03X3557281Y670700I0J-35814D01*
G01X3557281Y570700D01*
G03X3593095Y534886I35814J0D01*
G01X3658097Y534886D01*
G01X3801922Y2708100D02*
G03X3766108Y2743914I-35814J0D01*
G01X3645308Y2743914D01*
G03X3609494Y2708100I0J-35814D01*
G01X3609494Y2575100D01*
G03X3645308Y2539286I35814J0D01*
G01X3766108Y2539286D01*
G03X3801922Y2575100I0J35814D01*
G01X3801922Y2708100D01*
G01X3684186Y3111500D02*
G03X3935814Y3111500I125814J0D01*
G03X3684186Y3111500I-125814J0D01*
G01X3684186Y867175D02*
G03X3935814Y867175I125814J0D01*
G03X3684186Y867175I-125814J0D01*
G01X3705988Y2081703D02*
G03X3741802Y2045889I35814J0D01*
G01X3951802Y2045889D01*
G03X3987616Y2081703I0J35814D01*
G01X3987616Y2261702D01*
G03X3951802Y2297516I-35814J0D01*
G01X3741802Y2297516D01*
G03X3705988Y2261702I0J-35814D01*
G01X3705988Y2081703D01*
G01X3989741Y259351D02*
G03X3953927Y295165I-35814J0D01*
G01X3840673Y295165D01*
G03X3804859Y259351I0J-35814D01*
G01X3804859Y121649D01*
G03X3840673Y85835I35814J0D01*
G01X3953927Y85835D01*
G03X3989741Y121649I0J35814D01*
G01X3989741Y259351D01*
G01X3938186Y3111500D02*
G03X4189814Y3111500I125814J0D01*
G03X3938186Y3111500I-125814J0D01*
G01X3938186Y867175D02*
G03X4189814Y867175I125814J0D01*
G03X3938186Y867175I-125814J0D01*
G01X4192186Y3111500D02*
G03X4443814Y3111500I125814J0D01*
G03X4192186Y3111500I-125814J0D01*
G01X4192186Y867175D02*
G03X4443814Y867175I125814J0D01*
G03X4192186Y867175I-125814J0D01*
G01X4499686Y382600D02*
G03X4535500Y346786I35814J0D01*
G01X4735500Y346786D01*
G03X4770583Y375403I0J35814D01*
G03X4805685Y346695I35102J7106D01*
G01X4905685Y346695D01*
G03X4941499Y382509I0J35814D01*
G01X4941499Y442509D01*
G03X4905685Y478323I-35814J0D01*
G01X4858480Y478323D01*
G01X4819898Y516905D01*
G03X4785594Y531114I-34305J-34305D01*
G01X4771314Y531114D01*
G01X4771314Y582600D01*
G03X4735500Y618414I-35814J0D01*
G01X4535500Y618414D01*
G03X4499686Y582600I0J-35814D01*
G01X4499686Y549513D01*
G03X4245686Y482600I-118186J-66913D01*
G03X4499686Y415687I135814J0D01*
G01X4499686Y382600D01*
G01X4461609Y313591D02*
G03X4506164Y200427I46891J-46891D01*
G01X4639295Y67295D01*
G03X4673600Y53086I34305J34305D01*
G01X4840905Y53086D01*
G03X4856347Y49586I15442J32314D01*
G01X4893189Y49586D01*
G03X4902200Y50738I0J35814D01*
G03X4911211Y49586I9011J34662D01*
G01X4948053Y49586D01*
G03X4983867Y85400I0J35814D01*
G01X4983867Y117800D01*
G03X4948053Y153614I-35814J0D01*
G01X4923282Y153614D01*
G01X4923282Y161299D01*
G03X4941499Y192491I-17597J31193D01*
G01X4941499Y252491D01*
G03X4905685Y288305I-35814J0D01*
G01X4805685Y288305D01*
G03X4769871Y252491I0J-35814D01*
G01X4769871Y192491D01*
G03X4805685Y156677I35814J0D01*
G01X4826254Y156677D01*
G01X4826254Y150114D01*
G01X4693695Y150114D01*
G01X4574773Y269036D01*
G03X4461609Y313591I-66273J-2336D01*
G01X4446186Y3111500D02*
G03X4697814Y3111500I125814J0D01*
G03X4446186Y3111500I-125814J0D01*
G01X4446186Y867175D02*
G03X4697814Y867175I125814J0D01*
G03X4446186Y867175I-125814J0D01*
G01X4700186Y3111500D02*
G03X4951814Y3111500I125814J0D01*
G03X4700186Y3111500I-125814J0D01*
G01X4954186Y3111500D02*
G03X5205814Y3111500I125814J0D01*
G03X4954186Y3111500I-125814J0D01*
G01X5208186Y3111500D02*
G03X5459814Y3111500I125814J0D01*
G03X5208186Y3111500I-125814J0D01*
G01X5462186Y3111500D02*
G03X5713814Y3111500I125814J0D01*
G03X5462186Y3111500I-125814J0D01*
G01X5716186Y3111500D02*
G03X5967814Y3111500I125814J0D01*
G03X5716186Y3111500I-125814J0D01*
G01X5970186Y3111500D02*
G03X6221814Y3111500I125814J0D01*
G03X5970186Y3111500I-125814J0D01*
G01X5970186Y867175D02*
G03X6221814Y867175I125814J0D01*
G03X5970186Y867175I-125814J0D01*
G01X6595817Y1454798D02*
G03X6560003Y1490612I-35814J0D01*
G01X6415002Y1490612D01*
G03X6379188Y1454798I0J-35814D01*
G01X6379188Y1254798D01*
G03X6415002Y1218984I35814J0D01*
G01X6560003Y1218984D01*
G03X6595817Y1254798I0J35814D01*
G01X6595817Y1454798D01*
G01X6595817Y624802D02*
G03X6560003Y660616I-35814J0D01*
G01X6415002Y660616D01*
G03X6379188Y624802I0J-35814D01*
G01X6379188Y424802D01*
G03X6415002Y388988I35814J0D01*
G01X6560003Y388988D01*
G03X6595817Y424802I0J35814D01*
G01X6595817Y624802D01*
G01X6795186Y1763001D02*
G01X6795186Y1706436D01*
G03X6809486Y1677803I35814J0D01*
G01X6809486Y1205084D01*
G03X6779684Y1169778I6012J-35306D01*
G01X6779684Y1019778D01*
G03X6815498Y983964I35814J0D01*
G01X6895498Y983964D01*
G03X6910502Y987259I0J35814D01*
G03X6916992Y984991I15004J32520D01*
G01X6916992Y946910D01*
G03X6965506Y835386I48514J-45210D01*
G03X7014020Y946910I0J66314D01*
G01X7014020Y984991D01*
G03X7020509Y987259I-8514J34787D01*
G03X7035513Y983964I15004J32520D01*
G01X7115513Y983964D01*
G03X7130504Y987253I0J35814D01*
G03X7145495Y983964I14991J32526D01*
G01X7225495Y983964D01*
G03X7240499Y987259I0J35814D01*
G03X7255502Y983964I15004J32520D01*
G01X7335502Y983964D01*
G03X7350506Y987259I0J35814D01*
G03X7365510Y983964I15004J32520D01*
G01X7445510Y983964D01*
G03X7460501Y987253I0J35814D01*
G03X7475492Y983964I14991J32526D01*
G01X7555492Y983964D01*
G03X7570495Y987259I0J35814D01*
G03X7585499Y983964I15004J32520D01*
G01X7665499Y983964D01*
G03X7701313Y1019778I0J35814D01*
G01X7701313Y1169778D01*
G03X7673982Y1204573I-35814J0D01*
G01X7679705Y1210295D01*
G03X7693914Y1244600I-34305J34305D01*
G01X7693914Y1677803D01*
G03X7708214Y1706436I-21514J28632D01*
G01X7708214Y1763001D01*
G03X7704922Y1778000I-35814J0D01*
G03X7708214Y1792999I-32522J14999D01*
G01X7708214Y1849565D01*
G03X7672400Y1885379I-35814J0D01*
G01X7618400Y1885379D01*
G03X7588847Y1869796I0J-35814D01*
G01X7574953Y1869796D01*
G03X7545400Y1885379I-29552J-20231D01*
G01X7491400Y1885379D01*
G03X7458901Y1864614I0J-35814D01*
G01X7449398Y1864614D01*
G03X7359790Y1865519I-45298J-48432D01*
G01X7327813Y1897496D01*
G03X7314249Y1907049I-34305J-34305D01*
G03X7311220Y1917700I-35549J-4352D01*
G03X7314514Y1932704I-32520J15004D01*
G01X7314514Y2011713D01*
G03X7278700Y2047527I-35814J0D01*
G01X7224700Y2047527D01*
G03X7188886Y2011713I0J-35814D01*
G01X7188886Y1932704D01*
G03X7192180Y1917700I35814J0D01*
G03X7188886Y1902696I32520J-15004D01*
G01X7188886Y1869796D01*
G01X7168553Y1869796D01*
G03X7139000Y1885379I-29552J-20231D01*
G01X7085000Y1885379D01*
G03X7055447Y1869796I0J-35814D01*
G01X7041553Y1869796D01*
G03X7012000Y1885379I-29552J-20231D01*
G01X6958000Y1885379D01*
G03X6928447Y1869796I0J-35814D01*
G01X6914553Y1869796D01*
G03X6885000Y1885379I-29552J-20231D01*
G01X6831000Y1885379D01*
G03X6795186Y1849565I0J-35814D01*
G01X6795186Y1792999D01*
G03X6798478Y1778000I35814J0D01*
G03X6795186Y1763001I32522J-14999D01*
G01X8485873Y1485766D02*
G03X8534387Y1223099I48514J-126853D01*
G03X8582901Y1485766I0J135814D01*
G01X8582901Y1803413D01*
G03X8568692Y1837717I-48514J0D01*
G01X8085901Y2320508D01*
G03X8051597Y2334717I-34305J-34305D01*
G01X7994647Y2334717D01*
G03X7992379Y2341207I-34787J-8514D01*
G03X7995674Y2356211I-32520J15004D01*
G01X7995674Y2436211D01*
G03X7992385Y2451202I-35814J0D01*
G03X7995674Y2466193I-32526J14991D01*
G01X7995674Y2546193D01*
G03X7992379Y2561196I-35814J0D01*
G03X7994647Y2567686I-32520J15004D01*
G01X8400557Y2567686D01*
G03X8667436Y2563548I133830J23127D01*
G03X8420440Y2664714I-133049J27264D01*
G01X7994647Y2664714D01*
G03X7992379Y2671204I-34787J-8514D01*
G03X7995674Y2686207I-32520J15004D01*
G01X7995674Y2766207D01*
G03X7992385Y2781198I-35814J0D01*
G03X7995674Y2796189I-32526J14991D01*
G01X7995674Y2876189D01*
G03X7992379Y2891193I-35814J0D01*
G03X7995674Y2906197I-32520J15004D01*
G01X7995674Y2986197D01*
G03X7992379Y3001201I-35814J0D01*
G03X7995674Y3016204I-32520J15004D01*
G01X7995674Y3096204D01*
G03X7959860Y3132018I-35814J0D01*
G01X7779860Y3132018D01*
G03X7744046Y3096204I0J-35814D01*
G01X7744046Y3016204D01*
G03X7747340Y3001201I35814J0D01*
G03X7744046Y2986197I32520J-15004D01*
G01X7744046Y2906197D01*
G03X7747340Y2891193I35814J0D01*
G03X7744046Y2876189I32520J-15004D01*
G01X7744046Y2796189D01*
G03X7747334Y2781198I35814J0D01*
G03X7744046Y2766207I32526J-14991D01*
G01X7744046Y2686207D01*
G03X7747340Y2671204I35814J0D01*
G03X7744046Y2656200I32520J-15004D01*
G01X7744046Y2576200D01*
G03X7747340Y2561196I35814J0D01*
G03X7744046Y2546193I32520J-15004D01*
G01X7744046Y2466193D01*
G03X7747334Y2451202I35814J0D01*
G03X7744046Y2436211I32526J-14991D01*
G01X7744046Y2356211D01*
G03X7747340Y2341207I35814J0D01*
G03X7744046Y2326203I32520J-15004D01*
G01X7744046Y2246203D01*
G03X7747340Y2231200I35814J0D01*
G03X7744046Y2216196I32520J-15004D01*
G01X7744046Y2136196D01*
G03X7779860Y2100382I35814J0D01*
G01X7959860Y2100382D01*
G03X7995674Y2136196I0J35814D01*
G01X7995674Y2216196D01*
G03X7992379Y2231200I-35814J0D01*
G03X7994647Y2237689I-32520J15004D01*
G01X8031502Y2237689D01*
G01X8485873Y1783318D01*
G01X8485873Y1485766D01*
G01X7971812Y1454798D02*
G03X7935998Y1490612I-35814J0D01*
G01X7790997Y1490612D01*
G03X7755183Y1454798I0J-35814D01*
G01X7755183Y1254798D01*
G03X7790997Y1218984I35814J0D01*
G01X7935998Y1218984D01*
G03X7971812Y1254798I0J35814D01*
G01X7971812Y1454798D01*
G01X7971812Y624802D02*
G03X7935998Y660616I-35814J0D01*
G01X7790997Y660616D01*
G03X7755183Y624802I0J-35814D01*
G01X7755183Y424802D01*
G03X7790997Y388988I35814J0D01*
G01X7935998Y388988D01*
G03X7971812Y424802I0J35814D01*
G01X7971812Y624802D01*
G01X8133583Y2335797D02*
G03X8425210Y2335797I145814J0D01*
G03X8133583Y2335797I-145814J0D01*
G01X8133583Y2845803D02*
G03X8425210Y2845803I145814J0D01*
G03X8133583Y2845803I-145814J0D01*
G01X8133583Y1103897D02*
G03X8425210Y1103897I145814J0D01*
G03X8133583Y1103897I-145814J0D01*
G01X8133583Y1613903D02*
G03X8425210Y1613903I145814J0D01*
G03X8133583Y1613903I-145814J0D01*
G01X8885078Y292734D02*
G03X8593450Y292734I-145814J0D01*
G03X8885078Y292734I145814J0D01*
G01X8897054Y3366134D02*
G03X8605426Y3366134I-145814J0D01*
G03X8897054Y3366134I145814J0D01*
G01X8643590Y2335797D02*
G03X8935217Y2335797I145814J0D01*
G03X8643590Y2335797I-145814J0D01*
G01X8643590Y2845803D02*
G03X8935217Y2845803I145814J0D01*
G03X8643590Y2845803I-145814J0D01*
G01X8643590Y1103897D02*
G03X8935217Y1103897I145814J0D01*
G03X8643590Y1103897I-145814J0D01*
G01X8643590Y1613903D02*
G03X8935217Y1613903I145814J0D01*
G03X8643590Y1613903I-145814J0D01*
G01X698500Y2250452D02*
G03X727241Y2211864I63500J17298D01*
G01X669759Y2211864D01*
G03X698500Y2250452I-34759J55886D01*
G01X894314Y1926050D02*
G01X894314Y2176050D01*
G03X892698Y2186686I-35814J0D01*
G01X949026Y2186686D01*
G01X963937Y2171776D01*
G03X989261Y2161286I25324J25324D01*
G01X1002701Y2161286D01*
G03X998075Y2143681I31188J-17605D01*
G01X998075Y2036150D01*
G01X939876Y1977950D01*
G03X929386Y1952626I25324J-25324D01*
G01X929386Y1898819D01*
G01X881762Y1898819D01*
G03X894314Y1926050I-23262J27231D01*
G01X7359021Y1767586D02*
G03X7449222Y1767586I45100J48572D01*
G01X7455880Y1767586D01*
G03X7455586Y1763001I35519J-4585D01*
G01X7455586Y1706436D01*
G03X7469886Y1677803I35814J0D01*
G01X7469886Y1365634D01*
G03X7445736Y1314450I42164J-51184D01*
G03X7469886Y1263266I66314J0D01*
G01X7469886Y1205151D01*
G03X7460501Y1202303I5606J-35373D01*
G03X7445510Y1205592I-14991J-32526D01*
G01X7365510Y1205592D01*
G03X7350506Y1202298I0J-35814D01*
G03X7344016Y1204565I-15004J-32520D01*
G01X7344016Y1216474D01*
G03X7402821Y1305637I-3416J66226D01*
G03X7300214Y1335298I-62221J-22937D01*
G01X7300214Y1700586D01*
G01X7322953Y1700586D01*
G03X7358767Y1736400I0J35814D01*
G01X7358767Y1767586D01*
G01X7359021Y1767586D01*
G54D11*
G01X3846802Y2171703D02*
G01X3716148Y2171703D01*
G01X3846802Y2171703D02*
G01X3977456Y2171703D01*
G01X3846802Y2171703D02*
G01X3846802Y2287356D01*
G01X3846802Y2171703D02*
G01X3846802Y2056049D01*
G01X5075700Y317487D02*
G01X5000046Y317487D01*
G01X5075700Y317487D02*
G01X5151354Y317487D01*
G01X5819292Y431800D02*
G01X5733238Y431800D01*
G01X5819292Y431800D02*
G01X5905346Y431800D01*
G01X5819292Y431800D02*
G01X5819292Y523954D01*
G01X5819292Y431800D02*
G01X5819292Y339646D01*
G01X698500Y2051050D02*
G01X884154Y2051050D01*
G01X698500Y2051050D02*
G01X512846Y2051050D01*
G01X698500Y2051050D02*
G01X698500Y1900396D01*
G01X698500Y2051050D02*
G01X698500Y2201704D01*
G01X635000Y1771650D02*
G01X635000Y1877304D01*
G01X1594968Y1270000D02*
G01X1466939Y1270000D01*
G01X1594968Y1270000D02*
G01X1722996Y1270000D01*
G01X1594968Y1270000D02*
G01X1594968Y1405274D01*
G01X1594968Y1270000D02*
G01X1594968Y1134726D01*
G01X2480513Y1397000D02*
G01X2606667Y1397000D01*
G01X2480513Y1397000D02*
G01X2354359Y1397000D01*
G01X2480513Y1397000D02*
G01X2480513Y1101347D01*
G01X2480513Y1397000D02*
G01X2480513Y1692653D01*
G01X2152802Y1816100D02*
G01X2218456Y1816100D01*
G01X2152802Y1816100D02*
G01X2152802Y1745446D01*
G01X2152802Y1816100D02*
G01X2152802Y1886754D01*
G01X1884547Y2209800D02*
G01X1858893Y2209800D01*
G01X1875892Y2095500D02*
G01X1810733Y2095500D01*
G01X1875892Y2095500D02*
G01X1875892Y2148154D01*
G01X1875892Y2095500D02*
G01X1875892Y2042846D01*
G01X266700Y2017700D02*
G01X266700Y2113854D01*
G01X266700Y2017700D02*
G01X359855Y2017700D01*
G01X266700Y2017700D02*
G01X173546Y2017700D01*
G01X2881300Y190500D02*
G01X2963581Y190500D01*
G01X2881300Y190500D02*
G01X2799019Y190500D01*
G01X2881300Y190500D02*
G01X2881300Y95995D01*
G01X2881300Y190500D02*
G01X2881300Y285005D01*
G01X442900Y177800D02*
G01X539054Y177800D01*
G01X442900Y177800D02*
G01X442900Y84646D01*
G01X442900Y177800D02*
G01X442900Y270955D01*
G01X673100Y757987D02*
G01X673100Y631833D01*
G01X673100Y757987D02*
G01X673100Y884141D01*
G01X673100Y757987D02*
G01X377447Y757987D01*
G01X673100Y757987D02*
G01X968753Y757987D01*
G01X2800096Y633400D02*
G01X2800096Y557746D01*
G01X2800096Y633400D02*
G01X2800096Y709054D01*
G01X2800096Y633400D02*
G01X2741941Y633400D01*
G01X2800096Y633400D02*
G01X2858251Y633400D01*
G01X2438400Y563747D02*
G01X2438400Y538093D01*
G01X3625596Y620700D02*
G01X3625596Y545046D01*
G01X3625596Y620700D02*
G01X3625596Y696354D01*
G01X3625596Y620700D02*
G01X3567441Y620700D01*
G01X3625596Y620700D02*
G01X3683751Y620700D01*
G01X3897300Y190500D02*
G01X3979581Y190500D01*
G01X3897300Y190500D02*
G01X3815019Y190500D01*
G01X3897300Y190500D02*
G01X3897300Y95995D01*
G01X3897300Y190500D02*
G01X3897300Y285005D01*
G01X3098800Y231292D02*
G01X3098800Y145238D01*
G01X3098800Y231292D02*
G01X3098800Y317346D01*
G01X3098800Y231292D02*
G01X3006646Y231292D01*
G01X3098800Y231292D02*
G01X3190954Y231292D01*
G01X1964411Y2795397D02*
G01X2113564Y2795397D01*
G01X1964411Y2795397D02*
G01X1815257Y2795397D01*
G01X1964411Y2795397D02*
G01X1964411Y2720743D01*
G01X1964411Y2795397D02*
G01X1964411Y2870051D01*
G01X6938340Y3056204D02*
G01X6938340Y3121858D01*
G01X6938340Y3056204D02*
G01X7053994Y3056204D01*
G01X6938340Y3056204D02*
G01X6822686Y3056204D01*
G01X2982900Y2501900D02*
G01X3079054Y2501900D01*
G01X2982900Y2501900D02*
G01X2982900Y2408746D01*
G01X2982900Y2501900D02*
G01X2982900Y2595055D01*
G01X6559398Y2286000D02*
G01X6493744Y2286000D01*
G01X6559398Y2286000D02*
G01X6559398Y2356654D01*
G01X6546698Y2489200D02*
G01X6481044Y2489200D01*
G01X6546698Y2489200D02*
G01X6546698Y2559854D01*
G01X6546698Y2489200D02*
G01X6546698Y2418546D01*
G01X3705708Y2641600D02*
G01X3791762Y2641600D01*
G01X3705708Y2641600D02*
G01X3619654Y2641600D01*
G01X3705708Y2641600D02*
G01X3705708Y2549446D01*
G01X3705708Y2641600D02*
G01X3705708Y2733754D01*
G01X7251700Y1972208D02*
G01X7251700Y2037367D01*
G01X7251700Y1972208D02*
G01X7304354Y1972208D01*
G01X7251700Y1972208D02*
G01X7199046Y1972208D01*
G01X7863497Y524802D02*
G01X7961652Y524802D01*
G01X7863497Y524802D02*
G01X7765343Y524802D01*
G01X7863497Y524802D02*
G01X7863497Y399148D01*
G01X7863497Y524802D02*
G01X7863497Y650456D01*
G01X7863497Y1354798D02*
G01X7961652Y1354798D01*
G01X7863497Y1354798D02*
G01X7765343Y1354798D01*
G01X7863497Y1354798D02*
G01X7863497Y1229144D01*
G01X7863497Y1354798D02*
G01X7863497Y1480452D01*
G01X6487503Y524802D02*
G01X6585657Y524802D01*
G01X6487503Y524802D02*
G01X6389348Y524802D01*
G01X6487503Y524802D02*
G01X6487503Y399148D01*
G01X6487503Y524802D02*
G01X6487503Y650456D01*
G01X6487503Y1354798D02*
G01X6585657Y1354798D01*
G01X6487503Y1354798D02*
G01X6389348Y1354798D01*
G01X6487503Y1354798D02*
G01X6487503Y1229144D01*
G01X6487503Y1354798D02*
G01X6487503Y1480452D01*
G01X7405510Y1094778D02*
G01X7405510Y994124D01*
G01X7405510Y1094778D02*
G01X7405510Y1195432D01*
G01X7869860Y2396211D02*
G01X7985514Y2396211D01*
G01X7869860Y2396211D02*
G01X7754206Y2396211D01*
G01X7869860Y2176196D02*
G01X7869860Y2110542D01*
G01X7869860Y2176196D02*
G01X7985514Y2176196D01*
G01X7869860Y2176196D02*
G01X7754206Y2176196D01*
G01X7322953Y1752600D02*
G01X7348607Y1752600D01*
G01X4948053Y101600D02*
G01X4973707Y101600D01*
G01X8789403Y2845803D02*
G01X8653750Y2845803D01*
G01X8789403Y2845803D02*
G01X8925057Y2845803D01*
G01X8789403Y2845803D02*
G01X8789403Y2981457D01*
G01X8789403Y2845803D02*
G01X8789403Y2710150D01*
G01X5588000Y867175D02*
G01X5472346Y867175D01*
G01X5588000Y867175D02*
G01X5703654Y867175D01*
G01X5588000Y867175D02*
G01X5588000Y982829D01*
G01X1778000Y3111500D02*
G01X1662346Y3111500D01*
G01X1778000Y3111500D02*
G01X1893654Y3111500D01*
G01X1778000Y3111500D02*
G01X1778000Y3227154D01*
G01X1778000Y3111500D02*
G01X1778000Y2995846D01*
G01X3048000Y3111500D02*
G01X2932346Y3111500D01*
G01X3048000Y3111500D02*
G01X3163654Y3111500D01*
G01X3048000Y3111500D02*
G01X3048000Y3227154D01*
G01X3048000Y3111500D02*
G01X3048000Y2995846D01*
G01X4318000Y3111500D02*
G01X4202346Y3111500D01*
G01X4318000Y3111500D02*
G01X4433654Y3111500D01*
G01X4318000Y3111500D02*
G01X4318000Y3227154D01*
G01X4318000Y3111500D02*
G01X4318000Y2995846D01*
G01X5588000Y3111500D02*
G01X5472346Y3111500D01*
G01X5588000Y3111500D02*
G01X5703654Y3111500D01*
G01X5588000Y3111500D02*
G01X5588000Y3227154D01*
G01X5588000Y3111500D02*
G01X5588000Y2995846D01*
G01X8789403Y2335797D02*
G01X8653750Y2335797D01*
G01X8789403Y2335797D02*
G01X8925057Y2335797D01*
G01X8789403Y2335797D02*
G01X8789403Y2471450D01*
G01X8789403Y2335797D02*
G01X8789403Y2200143D01*
G01X8279397Y2845803D02*
G01X8143743Y2845803D01*
G01X8279397Y2845803D02*
G01X8415050Y2845803D01*
G01X8279397Y2845803D02*
G01X8279397Y2981457D01*
G01X8279397Y2845803D02*
G01X8279397Y2710150D01*
G01X8279397Y2335797D02*
G01X8143743Y2335797D01*
G01X8279397Y2335797D02*
G01X8415050Y2335797D01*
G01X8279397Y2335797D02*
G01X8279397Y2471450D01*
G01X8279397Y2335797D02*
G01X8279397Y2200143D01*
G01X8789403Y1613903D02*
G01X8653750Y1613903D01*
G01X8789403Y1613903D02*
G01X8925057Y1613903D01*
G01X8789403Y1613903D02*
G01X8789403Y1749557D01*
G01X8789403Y1613903D02*
G01X8789403Y1478250D01*
G01X8279397Y1613903D02*
G01X8143743Y1613903D01*
G01X8279397Y1613903D02*
G01X8415050Y1613903D01*
G01X8279397Y1613903D02*
G01X8279397Y1749557D01*
G01X8279397Y1613903D02*
G01X8279397Y1478250D01*
G01X1778000Y867175D02*
G01X1662346Y867175D01*
G01X1778000Y867175D02*
G01X1893654Y867175D01*
G01X1778000Y867175D02*
G01X1778000Y982829D01*
G01X1778000Y867175D02*
G01X1778000Y751521D01*
G01X2032000Y867175D02*
G01X1916346Y867175D01*
G01X2032000Y867175D02*
G01X2147654Y867175D01*
G01X2032000Y867175D02*
G01X2032000Y982829D01*
G01X2032000Y867175D02*
G01X2032000Y751521D01*
G01X3048000Y867175D02*
G01X2932346Y867175D01*
G01X3048000Y867175D02*
G01X3163654Y867175D01*
G01X3048000Y867175D02*
G01X3048000Y982829D01*
G01X3048000Y867175D02*
G01X3048000Y751521D01*
G01X4318000Y867175D02*
G01X4202346Y867175D01*
G01X4318000Y867175D02*
G01X4433654Y867175D01*
G01X4318000Y867175D02*
G01X4318000Y982829D01*
G01X4318000Y867175D02*
G01X4318000Y751521D01*
G01X4381500Y482600D02*
G01X4255846Y482600D01*
G01X4381500Y482600D02*
G01X4381500Y356946D01*
G01X4381500Y482600D02*
G01X4381500Y608254D01*
G01X1003300Y444500D02*
G01X892646Y444500D01*
G01X1003300Y444500D02*
G01X1113954Y444500D01*
G01X1003300Y444500D02*
G01X1003300Y555154D01*
G01X1003300Y444500D02*
G01X1003300Y333846D01*
G01X1257300Y444500D02*
G01X1146646Y444500D01*
G01X1257300Y444500D02*
G01X1367954Y444500D01*
G01X1257300Y444500D02*
G01X1257300Y555154D01*
G01X1257300Y444500D02*
G01X1257300Y333846D01*
G01X8789403Y1103897D02*
G01X8653750Y1103897D01*
G01X8789403Y1103897D02*
G01X8925057Y1103897D01*
G01X8789403Y1103897D02*
G01X8789403Y1239550D01*
G01X8789403Y1103897D02*
G01X8789403Y968243D01*
G01X8279397Y1103897D02*
G01X8143743Y1103897D01*
G01X8279397Y1103897D02*
G01X8415050Y1103897D01*
G01X8279397Y1103897D02*
G01X8279397Y1239550D01*
G01X8279397Y1103897D02*
G01X8279397Y968243D01*
G01X367792Y3366134D02*
G01X503446Y3366134D01*
G01X367792Y3366134D02*
G01X232138Y3366134D01*
G01X367792Y3366134D02*
G01X367792Y3230480D01*
G01X367792Y3366134D02*
G01X367792Y3501788D01*
G01X8751240Y3366134D02*
G01X8886894Y3366134D01*
G01X8751240Y3366134D02*
G01X8615586Y3366134D01*
G01X8751240Y3366134D02*
G01X8751240Y3230480D01*
G01X8751240Y3366134D02*
G01X8751240Y3501788D01*
G01X8739264Y292734D02*
G01X8874918Y292734D01*
G01X8739264Y292734D02*
G01X8603610Y292734D01*
G01X8739264Y292734D02*
G01X8739264Y157080D01*
G01X8739264Y292734D02*
G01X8739264Y428388D01*
G01X1752816Y318134D02*
G01X1888470Y318134D01*
G01X1752816Y318134D02*
G01X1617162Y318134D01*
G01X1752816Y318134D02*
G01X1752816Y182480D01*
G01X1752816Y318134D02*
G01X1752816Y453788D01*
G04 Copper End*

G04 PolygonModel Start*
G36*
G01X838200Y2400300D02*
G01X977900Y2400300D01*
G01X1046633Y2331567D01*
G01X1144920Y2331567D01*
G01X1181100Y2295387D01*
G01X1181100Y2209800D01*
G01X1168400Y2197100D01*
G01X989261Y2197100D01*
G01X963861Y2222500D01*
G01X850900Y2222500D01*
G01X838200Y2235200D01*
G01X838200Y2400300D01*
G37*
G36*
G01X1033889Y2143681D02*
G01X1168400Y2143681D01*
G01X1168400Y2006600D01*
G01X1181100Y2006600D01*
G01X1244600Y1943100D01*
G01X1244600Y1498600D01*
G01X1231900Y1485900D01*
G01X1231900Y1143000D01*
G01X1219200Y1130300D01*
G01X1016000Y1130300D01*
G01X990600Y1155700D01*
G01X990600Y1409700D01*
G01X977900Y1422400D01*
G01X977900Y1651000D01*
G01X939800Y1689100D01*
G01X863600Y1689100D01*
G01X863600Y1863005D01*
G01X948605Y1863005D01*
G01X965200Y1879600D01*
G01X965200Y1952626D01*
G01X1033889Y2021315D01*
G01X1033889Y2143681D01*
G37*
G36*
G01X1409700Y1955800D02*
G01X2049550Y1955800D01*
G01X2082795Y1922555D01*
G01X2082795Y1734749D01*
G01X2120900Y1696644D01*
G01X2120900Y1079500D01*
G01X2108200Y1066800D01*
G01X1866900Y1066800D01*
G01X1778000Y1155700D01*
G01X1778000Y1473200D01*
G01X1739900Y1511300D01*
G01X1422400Y1511300D01*
G01X1409700Y1524000D01*
G01X1409700Y1955800D01*
G37*

G04 Pad Start*
G54D12*
G01X1104900Y2241702D03*
G01X1104900Y2101698D03*
G54D13*
G01X2012798Y1816100D03*
G01X2152802Y1816100D03*
G54D14*
G01X1964487Y1397000D03*
G01X2480513Y1397000D03*
G54D15*
G01X266700Y1817700D03*
G01X266700Y2017700D03*
G54D16*
G01X673100Y1274013D03*
G01X673100Y757987D03*
G54D13*
G01X6686702Y2489200D03*
G01X6546698Y2489200D03*
G01X6699402Y2286000D03*
G01X6559398Y2286000D03*
G54D17*
G01X7304532Y1752600D03*
G01X7249668Y1752600D03*
G54D18*
G01X7251700Y1863192D03*
G01X7251700Y1972208D03*
G54D17*
G01X4929632Y101600D03*
G01X4874768Y101600D03*
G54D20*
G01X2782900Y2501900D03*
G01X2982900Y2501900D03*
G54D21*
G01X1984908Y2095500D03*
G01X1875892Y2095500D03*
G54D17*
G01X1957832Y2209800D03*
G01X1902968Y2209800D03*
G54D22*
G01X6487503Y1354798D03*
G01X7863497Y1354798D03*
G01X7863497Y524802D03*
G01X6487503Y524802D03*
G54D23*
G01X7625499Y1094778D03*
G01X7515492Y1094778D03*
G01X7405510Y1094778D03*
G01X7295502Y1094778D03*
G01X7185495Y1094778D03*
G01X7075513Y1094778D03*
G01X6965506Y1094778D03*
G01X6855498Y1094778D03*
G54D24*
G01X1594968Y1270000D03*
G01X1122832Y1270000D03*
G54D25*
G01X203200Y1038860D03*
G01X203200Y1551940D03*
G54D26*
G01X5819292Y431800D03*
G01X6144108Y431800D03*
G54D27*
G01X3846802Y2171703D03*
G01X3366793Y2171703D03*
G54D28*
G01X4635500Y482600D03*
G54D29*
G01X4381500Y482600D03*
G54D30*
G01X241300Y444500D03*
G54D31*
G01X495300Y444500D03*
G01X749300Y444500D03*
G01X1003300Y444500D03*
G01X1257300Y444500D03*
G54D28*
G01X5334000Y508000D03*
G54D29*
G01X5588000Y508000D03*
G54D32*
G01X1133500Y1739900D03*
G01X1533500Y1739900D03*
G54D33*
G01X709600Y1562100D03*
G01X509600Y1562100D03*
G54D34*
G01X6685382Y2654300D03*
G01X6598818Y2654300D03*
G54D35*
G01X7645400Y1821282D03*
G01X7645400Y1734718D03*
G01X6858000Y1821282D03*
G01X6858000Y1734718D03*
G01X7112000Y1821282D03*
G01X7112000Y1734718D03*
G01X6985000Y1821282D03*
G01X6985000Y1734718D03*
G01X7518400Y1821282D03*
G01X7518400Y1734718D03*
G54D34*
G01X2788818Y2870200D03*
G01X2875382Y2870200D03*
G54D33*
G01X3516300Y190500D03*
G01X3316300Y190500D03*
G01X3697300Y190500D03*
G01X3897300Y190500D03*
G54D34*
G01X6088482Y228600D03*
G01X6001918Y228600D03*
G54D33*
G01X2487600Y190500D03*
G01X2287600Y190500D03*
G01X2681300Y190500D03*
G01X2881300Y190500D03*
G54D29*
G01X8534387Y1358913D03*
G54D36*
G01X8789403Y1103897D03*
G01X8789403Y1613903D03*
G01X8279397Y1613903D03*
G01X8279397Y1103897D03*
G54D29*
G01X8534387Y2590813D03*
G54D36*
G01X8789403Y2335797D03*
G01X8789403Y2845803D03*
G01X8279397Y2845803D03*
G01X8279397Y2335797D03*
G54D37*
G01X698500Y2051050D03*
G54D38*
G01X508000Y2317750D03*
G01X635000Y2317750D03*
G01X762000Y2317750D03*
G01X508000Y1771650D03*
G01X635000Y1771650D03*
G01X762000Y1771650D03*
G01X889000Y2317750D03*
G01X889000Y1771650D03*
G54D39*
G01X1270000Y3111500D03*
G54D40*
G01X1524000Y3111500D03*
G01X1778000Y3111500D03*
G01X2032000Y3111500D03*
G01X2286000Y3111500D03*
G01X2540000Y3111500D03*
G01X2794000Y3111500D03*
G01X3048000Y3111500D03*
G01X3302000Y3111500D03*
G01X3556000Y3111500D03*
G01X3810000Y3111500D03*
G01X4064000Y3111500D03*
G01X4318000Y3111500D03*
G01X4572000Y3111500D03*
G01X4826000Y3111500D03*
G01X5080000Y3111500D03*
G01X5334000Y3111500D03*
G01X5588000Y3111500D03*
G01X5842000Y3111500D03*
G01X6096000Y3111500D03*
G54D39*
G01X1270000Y867175D03*
G54D40*
G01X1524000Y867175D03*
G01X1778000Y867175D03*
G01X2032000Y867175D03*
G01X2286000Y867175D03*
G01X2540000Y867175D03*
G01X2794000Y867175D03*
G01X3048000Y867175D03*
G01X3302000Y867175D03*
G01X3556000Y867175D03*
G01X3810000Y867175D03*
G01X4064000Y867175D03*
G01X4318000Y867175D03*
G01X4572000Y867175D03*
G01X4826000Y867175D03*
G01X5080000Y867175D03*
G01X5334000Y867175D03*
G01X5588000Y867175D03*
G01X5842000Y867175D03*
G01X6096000Y867175D03*
G54D41*
G01X6938340Y3056204D03*
G01X7869860Y3056204D03*
G01X6938340Y2946197D03*
G01X7869860Y2946197D03*
G01X6938340Y2836189D03*
G01X7869860Y2836189D03*
G01X6938340Y2726207D03*
G01X7869860Y2726207D03*
G01X6938340Y2616200D03*
G01X7869860Y2616200D03*
G01X6938340Y2506193D03*
G01X7869860Y2506193D03*
G01X6938340Y2396211D03*
G01X7869860Y2396211D03*
G01X6938340Y2286203D03*
G01X7869860Y2286203D03*
G01X6938340Y2176196D03*
G01X7869860Y2176196D03*
G54D42*
G01X5075700Y317487D03*
G01X5075700Y412483D03*
G01X5075700Y222517D03*
G01X4855685Y412509D03*
G01X4855685Y222491D03*
G54D43*
G01X2531389Y2565400D03*
G54D44*
G01X1964411Y2335403D03*
G01X1964411Y2565400D03*
G01X1964411Y2795397D03*
G54D20*
G01X242900Y177800D03*
G01X442900Y177800D03*
G54D36*
G01X367792Y3366134D03*
G01X1752816Y318134D03*
G01X8751240Y3366134D03*
G01X8739264Y292734D03*
G54D45*
G01X2438400Y582168D03*
G01X2438400Y637032D03*
G54D46*
G01X3625596Y620700D03*
G01X3435604Y620700D03*
G01X3530600Y420700D03*
G01X2800096Y633400D03*
G01X2610104Y633400D03*
G01X2705100Y433400D03*
G54D47*
G01X3098800Y231292D03*
G01X3098800Y556108D03*
G54D26*
G01X3705708Y2641600D03*
G01X3380892Y2641600D03*
G04 Pad End*

G04 Via Start*
G54D48*
G01X698500Y1079500D03*
G01X342900Y1663700D03*
G54D49*
G01X584200Y2603500D03*
G01X1511300Y2077700D03*
G01X1765300Y1882843D03*
G01X1765300Y1796512D03*
G01X609600Y1444124D03*
G01X571500Y1879600D03*
G01X695949Y1879600D03*
G01X609600Y2120900D03*
G01X800100Y2120900D03*
G01X800100Y1981200D03*
G01X609600Y1981200D03*
G01X7340600Y1282700D03*
G01X7112000Y1365046D03*
G01X6965506Y901700D03*
G01X7512050Y1314450D03*
G01X6686702Y2391827D03*
G01X7404100Y1816182D03*
G01X7405204Y1657161D03*
G01X7405204Y1402552D03*
G01X7405204Y884953D03*
G01X3608400Y337905D03*
G01X2590800Y342900D03*
G01X3213100Y114300D03*
G01X4508500Y266700D03*
G01X3086100Y2857500D03*
G01X6756400Y2946400D03*
G01X6362700Y2806700D03*
G01X6489700Y2895600D03*
G01X3289300Y1866900D03*
G01X2146300Y190500D03*
G01X5073650Y514350D03*
G01X2515226Y637032D03*
G01X2959100Y546100D03*
G01X3848100Y1943100D03*
G01X4038600Y2171700D03*
G01X3848100Y2641600D03*
G01X3670300Y2489200D03*
G01X2997200Y2286000D03*
G01X3115705Y2286000D03*
G01X3149600Y2590800D03*
G01X3227008Y2590800D03*
G01X2781300Y2667000D03*
G01X2171700Y2781300D03*
G01X1728704Y2806700D03*
G01X2679700Y1473200D03*
G01X2295205Y1397000D03*
G01X2679700Y1079500D03*
G01X2480501Y1779095D03*
G01X1397000Y1155700D03*
G01X3060700Y419100D03*
G01X3136900Y419100D03*
G04 Via End*

G04 Track Start*
G54D50*
G01X242900Y177800D02*
G01X242900Y442900D01*
G01X241300Y444500D01*
G01X241300Y1000760D01*
G01X203200Y1038860D01*
G01X203200Y1551940D02*
G01X266700Y1615440D01*
G54D51*
G01X709600Y1562100D02*
G01X762000Y1614500D01*
G01X762000Y1771650D01*
G01X709600Y1562100D02*
G01X709600Y1310513D01*
G01X673100Y1274013D01*
G54D50*
G01X266700Y1696204D02*
G01X299204Y1663700D01*
G01X342900Y1663700D01*
G54D11*
G01X698500Y1079500D02*
G01X698500Y1248613D01*
G01X673100Y1274013D01*
G54D50*
G01X266700Y1615440D02*
G01X266700Y1696204D01*
G01X266700Y1817700D01*
G54D52*
G01X508000Y1771650D02*
G01X508000Y1563700D01*
G01X509600Y1562100D01*
G54D11*
G01X508000Y2317750D02*
G01X508000Y2527300D01*
G01X584200Y2603500D01*
G01X1511300Y2077700D02*
G01X1511300Y1762100D01*
G01X1533500Y1739900D01*
G01X609600Y1444124D02*
G01X609600Y1746250D01*
G01X635000Y1771650D01*
G01X571500Y1879600D02*
G01X635000Y1816100D01*
G01X635000Y1771650D01*
G01X695949Y1879600D02*
G01X695949Y1832599D01*
G01X635000Y1771650D01*
G01X7112000Y1320800D02*
G01X7073900Y1282700D01*
G01X7073900Y1096391D01*
G01X7075513Y1094778D01*
G01X6985000Y1734718D02*
G01X6985000Y1282700D01*
G01X6959600Y1257300D01*
G01X6959600Y1100684D01*
G01X6965506Y1094778D01*
G01X6858000Y1734718D02*
G01X6858000Y1097280D01*
G01X6855498Y1094778D01*
G01X7518400Y1097686D02*
G01X7515492Y1094778D01*
G01X7645400Y1734718D02*
G01X7645400Y1244600D01*
G01X7620000Y1219200D01*
G01X7620000Y1100277D01*
G01X7625499Y1094778D01*
G01X7295502Y1094778D02*
G01X7295502Y1237602D01*
G01X7340600Y1282700D01*
G01X7112000Y1734718D02*
G01X7112000Y1365046D01*
G01X7112000Y1320800D01*
G01X7518400Y1734718D02*
G01X7518400Y1097686D01*
G01X6965506Y1094778D02*
G01X6965506Y901700D01*
G01X7869860Y2286203D02*
G01X8051597Y2286203D01*
G01X8534387Y1803413D02*
G01X8534387Y1358913D01*
G01X8051597Y2286203D02*
G01X8534387Y1803413D01*
G01X7869860Y2616200D02*
G01X8509000Y2616200D01*
G01X8534387Y2590813D01*
G01X6699402Y2286000D02*
G01X6938137Y2286000D01*
G01X6938340Y2286203D01*
G01X6798793Y2506193D02*
G01X6938340Y2506193D01*
G01X6686702Y2489200D02*
G01X6781800Y2489200D01*
G01X6798793Y2506193D01*
G01X6598818Y2654300D02*
G01X6616700Y2636418D01*
G01X6616700Y2603500D01*
G01X6686702Y2533498D01*
G01X6686702Y2489200D01*
G01X6685382Y2654300D02*
G01X6756400Y2654300D01*
G01X6794500Y2616200D01*
G01X6938340Y2616200D01*
G01X6686702Y2298700D02*
G01X6699402Y2286000D01*
G01X6686702Y2489200D02*
G01X6686702Y2391827D01*
G01X6686702Y2298700D01*
G01X7185495Y1267295D02*
G01X7185495Y1094778D01*
G01X7251700Y1333500D02*
G01X7185495Y1267295D01*
G01X6858000Y1821282D02*
G01X6985000Y1821282D01*
G01X7112000Y1821282D01*
G01X7209790Y1821282D01*
G01X7251700Y1863192D01*
G01X7293508Y1863192D01*
G01X7340600Y1816100D01*
G01X7513218Y1816100D02*
G01X7518400Y1821282D01*
G01X7645400Y1821282D02*
G01X7518400Y1821282D01*
G01X7340600Y1816100D02*
G01X7404100Y1816100D01*
G01X7513218Y1816100D01*
G54D50*
G01X1765300Y1882843D02*
G01X1908243Y1882843D01*
G01X1993900Y1968500D01*
G01X1993900Y2086508D02*
G01X1984908Y2095500D01*
G01X1993900Y1968500D02*
G01X1993900Y2086508D01*
G54D53*
G01X1957832Y2209800D02*
G01X1957832Y2122576D01*
G01X1984908Y2095500D01*
G01X1957832Y2209800D02*
G01X1957832Y2328824D01*
G01X1964411Y2335403D01*
G54D50*
G01X1964411Y2565400D02*
G01X2531389Y2565400D01*
G01X2782900Y2501900D02*
G01X2782900Y2351100D01*
G01X2781300Y2349500D01*
G01X2781300Y2324100D01*
G01X2933697Y2171703D01*
G01X3366793Y2171703D01*
G01X2782900Y2501900D02*
G01X2719400Y2565400D01*
G01X2531389Y2565400D01*
G54D11*
G01X2788818Y2870200D02*
G01X2527300Y2870200D01*
G01X2286000Y3111500D01*
G01X4635500Y482600D02*
G01X4785594Y482600D01*
G01X4855685Y412509D01*
G01X3530905Y457200D02*
G01X3608400Y379705D01*
G01X3608400Y337905D01*
G01X3608400Y190500D01*
G01X2590800Y342900D02*
G01X2487600Y239700D01*
G01X2487600Y190500D01*
G01X2681300Y190500D01*
G01X4508500Y266700D02*
G01X4673600Y101600D01*
G01X4874768Y101600D01*
G01X4874768Y203408D01*
G01X4855685Y222491D01*
G01X5075700Y222517D02*
G01X5995835Y222517D01*
G01X6001918Y228600D01*
G01X6088482Y228600D02*
G01X6144108Y284226D01*
G01X6144108Y431800D01*
G01X5877408Y698500D01*
G01X5232400Y698500D02*
G01X5214439Y716461D01*
G01X5877408Y698500D02*
G01X5232400Y698500D01*
G01X5214439Y716461D02*
G01X5214439Y1021261D01*
G01X4191000Y2044700D02*
G01X4191000Y2603500D01*
G01X3937000Y2857500D01*
G01X5214439Y1021261D02*
G01X4191000Y2044700D01*
G01X3937000Y2857500D02*
G01X3086100Y2857500D01*
G01X6756400Y2946400D02*
G01X6938137Y2946400D01*
G01X6938340Y2946197D01*
G01X1524000Y3111500D02*
G01X1524000Y3200400D01*
G01X1727200Y3403600D01*
G01X6286500Y3403600D01*
G01X6565900Y3124200D01*
G01X6565900Y2895600D01*
G01X6625311Y2836189D02*
G01X6938340Y2836189D01*
G01X6565900Y2895600D02*
G01X6625311Y2836189D01*
G01X6938340Y2726207D02*
G01X6824193Y2726207D01*
G01X6324600Y2895600D02*
G01X6489700Y2895600D01*
G01X6286500Y2857500D02*
G01X6324600Y2895600D01*
G01X6286500Y2740860D02*
G01X6286500Y2857500D01*
G01X6304461Y2722900D02*
G01X6286500Y2740860D01*
G01X6685382Y2654300D02*
G01X6685382Y2699918D01*
G01X6662400Y2722900D01*
G01X6304461Y2722900D01*
G01X6824193Y2726207D02*
G01X6769100Y2781300D01*
G01X6388100Y2781300D01*
G01X6362700Y2806700D01*
G01X3302000Y3111500D02*
G01X3520400Y2893100D01*
G01X3951746Y2893100D01*
G01X4668650Y2176196D01*
G01X6938340Y2176196D01*
G01X3366793Y2171703D02*
G01X3366793Y1944393D01*
G01X3289300Y1866900D01*
G01X2032000Y867175D02*
G01X1778000Y867175D01*
G01X3227400Y190500D02*
G01X3316300Y190500D01*
G01X3213100Y114300D02*
G01X3213100Y176200D01*
G01X3227400Y190500D01*
G01X2146300Y190500D02*
G01X2287600Y190500D01*
G01X5073650Y514350D02*
G01X5073650Y414533D01*
G01X5075700Y412483D01*
G01X2590800Y342900D02*
G01X2681300Y433400D01*
G01X2705100Y433400D01*
G54D54*
G01X2286000Y867175D02*
G01X2324100Y829075D01*
G01X2324100Y698500D01*
G01X2385568Y637032D01*
G01X2438400Y637032D01*
G01X2606472Y637032D02*
G01X2610104Y633400D01*
G01X2438400Y637032D02*
G01X2515226Y637032D01*
G01X2606472Y637032D01*
G54D50*
G01X2959100Y546100D02*
G01X3088792Y546100D01*
G01X3098800Y556108D01*
G01X3248508Y556108D01*
G01X3302000Y609600D01*
G01X3424504Y609600D01*
G01X3435604Y620700D01*
G54D11*
G01X7251700Y1863192D02*
G01X7251700Y1333500D01*
G01X2788818Y2870200D02*
G01X2794000Y2865018D01*
G01X2794000Y2819400D01*
G01X2933700Y2679700D01*
G01X3342792Y2679700D01*
G01X3380892Y2641600D01*
G01X3002461Y2737939D02*
G01X3472361Y2737939D01*
G01X3517900Y2692400D01*
G01X3517900Y1917700D01*
G01X4914900Y1117600D02*
G01X4953000Y1079500D01*
G01X4953000Y749300D01*
G01X5041900Y660400D01*
G01X5473700Y660400D01*
G01X5588000Y546100D01*
G01X5588000Y508000D01*
G01X3517900Y1917700D02*
G01X4318000Y1117600D01*
G01X4914900Y1117600D01*
G01X2875382Y2870200D02*
G01X2875382Y2865018D01*
G01X3002461Y2737939D01*
G01X3516300Y190500D02*
G01X3608400Y190500D01*
G01X3697300Y190500D01*
G04 Track End*

M02*

