G04 Layer: DrillDrawingLayer*
G04 EasyEDA Pro v3.2.149, 2026-09-25 09:59:00*
G04 Gerber Generator version 0.3*
G04 Scale: 100 percent, Rotated: No, Reflected: No*
G04 Dimensions in millimeters*
G04 Leading zeros omitted, absolute positions, 4 integers and 5 decimals*
G04 Generated by one-click*
G04 Object Configs: Pad,Via,Track,Text,Image,Dimension,BoardOutline,BoardCutout,CopperFilled,SolidRegion,FPCStiffener,Line,PlaneZone,ComponentProperty,ComponentSilkscreen,TearDrop*
G04 Layer Configs: 1,2,3,4,5,6,7,8,9,10,11,13,14,56*
G04 Copper Areas: 0*
%FSLAX45Y45*%
%MOMM*%
%AMIconRect*4,1,4,0.28,-0.28,-0.28,-0.28,-0.28,0.28,0.28,0.28,0.28,-0.28,0*4,0,4,0.233333,-0.233333,0.233333,0.233333,-0.233333,0.233333,-0.233333,-0.233333,0.233333,-0.233333,0*%
%AMIconTriangle*4,1,3,-0.339593,0.240473,0.339593,0.240473,0,-0.37884,-0.339593,0.240473,0*4,0,3,-0.265673,0.19404,0,-0.27342,0.266233,0.19404,-0.265673,0.19404,0*%
%AMIconStar6*4,1,12,0.12068,0.20888,0.298527,0.172713,0.241313,0,0.298527,-0.17206,0.12068,-0.208227,0,-0.344073,-0.120073,-0.208227,-0.298573,-0.17206,-0.240707,0,-0.298573,0.17206,-0.120073,0.20888,0,0.344073,0.12068,0.20888,0*4,0,12,-0.000467,0.273467,-0.090067,0.171733,-0.237533,0.136733,-0.193667,-0.007467,-0.237533,-0.1372,-0.090067,-0.171733,-0.000467,-0.273933,0.090067,-0.171733,0.237533,-0.1372,0.194133,0.007,0.237533,0.1372,0.090067,0.171267,-0.000467,0.273467,0*%
%AMIconStar4*4,1,8,-0.311733,0.311733,0,0.202533,0.311733,0.311733,0.202533,0,0.311733,-0.311733,0,-0.202533,-0.304407,-0.311733,-0.202533,0,-0.311733,0.311733,0*4,0,8,0.233333,-0.233333,0.1512,0,0.233333,0.233333,0,0.1512,-0.233333,0.233333,-0.1512,0,-0.233333,-0.233333,0,-0.1512,0.233333,-0.233333,0*%
%AMIconPlus*4,1,12,0.1736,-0.28,-0.1736,-0.28,-0.1736,-0.1736,-0.28,-0.1736,-0.28,0.1736,-0.1736,0.1736,-0.1736,0.28,0.1736,0.28,0.1736,0.1736,0.28,0.1736,0.28,-0.1736,0.1736,-0.1736,0.1736,-0.28,0*4,0,12,0.126933,-0.233333,0.126933,-0.126933,0.233333,-0.126933,0.233333,0.126933,0.126933,0.126933,0.126933,0.233333,-0.126933,0.233333,-0.126933,0.126933,-0.233333,0.126933,-0.233333,-0.126933,-0.126933,-0.126933,-0.126933,-0.233333,0.126933,-0.233333,0*%
%AMIconX*4,1,16,0.28,-0.28,0.076347,-0.28,0,-0.203653,-0.076347,-0.28,-0.28,-0.28,-0.28,-0.076347,-0.203653,0,-0.28,0.076347,-0.28,0.28,-0.076347,0.28,0,0.203653,0.076347,0.28,0.28,0.28,0.28,0.076347,0.203653,0,0.28,-0.076347,0.28,-0.28,0*4,0,16,0.23352,-0.23296,0.23352,-0.095853,0.137107,0.000093,0.23352,0.095853,0.23352,0.2331,0.095853,0.2331,0,0.137107,-0.095853,0.2331,-0.23352,0.2331,-0.23352,0.095853,-0.137107,0.000093,-0.23352,-0.095853,-0.23352,-0.23296,-0.095853,-0.23296,0,-0.137107,0.095853,-0.23296,0.23352,-0.23296,0*%
%ADD10IconRect*%
%ADD11C,0.616X0.522667*%
%ADD12IconTriangle*%
%ADD13IconStar6*%
%ADD14IconStar4*%
%ADD15IconPlus*%
%ADD16IconX*%
%ADD17C,0.2032*%
%ADD18C,0.254*%
G75*


G04 Drill Drawing Start*
G54D10*
G01X342900Y1663700D03*
G01X698500Y1079500D03*
G54D11*
G01X8534387Y1358913D03*
G01X8534387Y2590813D03*
G54D12*
G01X367792Y3366134D03*
G01X1752816Y318134D03*
G01X8739264Y292734D03*
G01X8751240Y3366134D03*
G54D13*
G01X241300Y444500D03*
G01X495300Y444500D03*
G01X749300Y444500D03*
G01X1003300Y444500D03*
G01X1257300Y444500D03*
G54D14*
G01X8279389Y1103914D03*
G01X8279389Y1613911D03*
G01X8279389Y2335814D03*
G01X8279389Y2845811D03*
G01X8789386Y1103914D03*
G01X8789386Y1613911D03*
G01X8789386Y2335814D03*
G01X8789386Y2845811D03*
G54D15*
G01X1270000Y867175D03*
G01X1270000Y3111500D03*
G01X1524000Y867175D03*
G01X1524000Y3111500D03*
G01X1778000Y867175D03*
G01X1778000Y3111500D03*
G01X2032000Y867175D03*
G01X2032000Y3111500D03*
G01X2286000Y867175D03*
G01X2286000Y3111500D03*
G01X2540000Y867175D03*
G01X2540000Y3111500D03*
G01X2794000Y867175D03*
G01X2794000Y3111500D03*
G01X3048000Y867175D03*
G01X3048000Y3111500D03*
G01X3302000Y867175D03*
G01X3302000Y3111500D03*
G01X3556000Y867175D03*
G01X3556000Y3111500D03*
G01X3810000Y867175D03*
G01X3810000Y3111500D03*
G01X4064000Y867175D03*
G01X4064000Y3111500D03*
G01X4318000Y867175D03*
G01X4318000Y3111500D03*
G01X4381500Y482600D03*
G01X4572000Y867175D03*
G01X4572000Y3111500D03*
G01X4635500Y482600D03*
G01X4826000Y867175D03*
G01X4826000Y3111500D03*
G01X5080000Y867175D03*
G01X5080000Y3111500D03*
G01X5334000Y508000D03*
G01X5334000Y867175D03*
G01X5334000Y3111500D03*
G01X5588000Y508000D03*
G01X5588000Y867175D03*
G01X5588000Y3111500D03*
G01X5842000Y867175D03*
G01X5842000Y3111500D03*
G01X6096000Y867175D03*
G01X6096000Y3111500D03*
G54D16*
G01X571500Y1879600D03*
G01X584200Y2603500D03*
G01X609600Y1444124D03*
G01X609600Y1981200D03*
G01X609600Y2120900D03*
G01X695949Y1879600D03*
G01X800100Y1981200D03*
G01X800100Y2120900D03*
G01X1397000Y1155700D03*
G01X1511300Y2077700D03*
G01X1728704Y2806700D03*
G01X1765300Y1796512D03*
G01X1765300Y1882843D03*
G01X2146300Y190500D03*
G01X2171700Y2781300D03*
G01X2295205Y1397000D03*
G01X2480501Y1779095D03*
G01X2515226Y637032D03*
G01X2590800Y342900D03*
G01X2679700Y1079500D03*
G01X2679700Y1473200D03*
G01X2781300Y2667000D03*
G01X2959100Y546100D03*
G01X2997200Y2286000D03*
G01X3060700Y419100D03*
G01X3086100Y2857500D03*
G01X3115705Y2286000D03*
G01X3136900Y419100D03*
G01X3149600Y2590800D03*
G01X3213100Y114300D03*
G01X3227008Y2590800D03*
G01X3289300Y1866900D03*
G01X3608400Y337905D03*
G01X3670300Y2489200D03*
G01X3848100Y1943100D03*
G01X3848100Y2641600D03*
G01X4038600Y2171700D03*
G01X4508500Y266700D03*
G01X5073650Y514350D03*
G01X6362700Y2806700D03*
G01X6489700Y2895600D03*
G01X6686702Y2391827D03*
G01X6756400Y2946400D03*
G01X6965506Y901700D03*
G01X7112000Y1365046D03*
G01X7340600Y1282700D03*
G01X7404100Y1816182D03*
G01X7405204Y884953D03*
G01X7405204Y1402552D03*
G01X7405204Y1657161D03*
G01X7512050Y1314450D03*
G04 Drill Drawing End*

G04 Text Start*
G54D17*
G01X11368246Y3512094D02*
G01X11368246Y3391952D01*
G01X11368246Y3512094D02*
G01X11413966Y3391952D01*
G01X11459686Y3512094D02*
G01X11413966Y3391952D01*
G01X11459686Y3512094D02*
G01X11459686Y3391952D01*
G01X11576018Y3471962D02*
G01X11576018Y3391952D01*
G01X11576018Y3454944D02*
G01X11564588Y3466374D01*
G01X11553158Y3471962D01*
G01X11536140Y3471962D01*
G01X11524710Y3466374D01*
G01X11513280Y3454944D01*
G01X11507438Y3437672D01*
G01X11507438Y3426242D01*
G01X11513280Y3409224D01*
G01X11524710Y3397794D01*
G01X11536140Y3391952D01*
G01X11553158Y3391952D01*
G01X11564588Y3397794D01*
G01X11576018Y3409224D01*
G01X11623770Y3471962D02*
G01X11623770Y3391952D01*
G01X11623770Y3437672D02*
G01X11629612Y3454944D01*
G01X11641042Y3466374D01*
G01X11652472Y3471962D01*
G01X11669490Y3471962D01*
G01X11717242Y3512094D02*
G01X11717242Y3391952D01*
G01X11774392Y3471962D02*
G01X11717242Y3414812D01*
G01X11740102Y3437672D02*
G01X11780234Y3391952D01*
G01X12905526Y3483392D02*
G01X12899684Y3494822D01*
G01X12888254Y3506252D01*
G01X12876824Y3512094D01*
G01X12853964Y3512094D01*
G01X12842534Y3506252D01*
G01X12831104Y3494822D01*
G01X12825516Y3483392D01*
G01X12819674Y3466374D01*
G01X12819674Y3437672D01*
G01X12825516Y3420654D01*
G01X12831104Y3409224D01*
G01X12842534Y3397794D01*
G01X12853964Y3391952D01*
G01X12876824Y3391952D01*
G01X12888254Y3397794D01*
G01X12899684Y3409224D01*
G01X12905526Y3420654D01*
G01X12981980Y3471962D02*
G01X12970550Y3466374D01*
G01X12959120Y3454944D01*
G01X12953278Y3437672D01*
G01X12953278Y3426242D01*
G01X12959120Y3409224D01*
G01X12970550Y3397794D01*
G01X12981980Y3391952D01*
G01X12998998Y3391952D01*
G01X13010428Y3397794D01*
G01X13021858Y3409224D01*
G01X13027700Y3426242D01*
G01X13027700Y3437672D01*
G01X13021858Y3454944D01*
G01X13010428Y3466374D01*
G01X12998998Y3471962D01*
G01X12981980Y3471962D01*
G01X13075452Y3471962D02*
G01X13075452Y3414812D01*
G01X13081294Y3397794D01*
G01X13092724Y3391952D01*
G01X13109742Y3391952D01*
G01X13121172Y3397794D01*
G01X13138444Y3414812D01*
G01X13138444Y3471962D02*
G01X13138444Y3391952D01*
G01X13186196Y3471962D02*
G01X13186196Y3391952D01*
G01X13186196Y3449102D02*
G01X13203468Y3466374D01*
G01X13214898Y3471962D01*
G01X13231916Y3471962D01*
G01X13243346Y3466374D01*
G01X13249188Y3449102D01*
G01X13249188Y3391952D01*
G01X13314212Y3512094D02*
G01X13314212Y3414812D01*
G01X13319800Y3397794D01*
G01X13331230Y3391952D01*
G01X13342660Y3391952D01*
G01X13296940Y3471962D02*
G01X13337072Y3471962D01*
G01X14313847Y3494822D02*
G01X14302417Y3506252D01*
G01X14285399Y3512094D01*
G01X14262539Y3512094D01*
G01X14245267Y3506252D01*
G01X14233837Y3494822D01*
G01X14233837Y3483392D01*
G01X14239679Y3471962D01*
G01X14245267Y3466374D01*
G01X14256697Y3460532D01*
G01X14290987Y3449102D01*
G01X14302417Y3443514D01*
G01X14308259Y3437672D01*
G01X14313847Y3426242D01*
G01X14313847Y3409224D01*
G01X14302417Y3397794D01*
G01X14285399Y3391952D01*
G01X14262539Y3391952D01*
G01X14245267Y3397794D01*
G01X14233837Y3409224D01*
G01X14361599Y3512094D02*
G01X14367441Y3506252D01*
G01X14373029Y3512094D01*
G01X14367441Y3517682D01*
G01X14361599Y3512094D01*
G01X14367441Y3471962D02*
G01X14367441Y3391952D01*
G01X14483773Y3471962D02*
G01X14420781Y3391952D01*
G01X14420781Y3471962D02*
G01X14483773Y3471962D01*
G01X14420781Y3391952D02*
G01X14483773Y3391952D01*
G01X14531525Y3437672D02*
G01X14600105Y3437672D01*
G01X14600105Y3449102D01*
G01X14594517Y3460532D01*
G01X14588675Y3466374D01*
G01X14577245Y3471962D01*
G01X14560227Y3471962D01*
G01X14548797Y3466374D01*
G01X14537367Y3454944D01*
G01X14531525Y3437672D01*
G01X14531525Y3426242D01*
G01X14537367Y3409224D01*
G01X14548797Y3397794D01*
G01X14560227Y3391952D01*
G01X14577245Y3391952D01*
G01X14588675Y3397794D01*
G01X14600105Y3409224D01*
G01X18104943Y3512094D02*
G01X18104943Y3391952D01*
G01X18104943Y3512094D02*
G01X18156505Y3512094D01*
G01X18173523Y3506252D01*
G01X18179365Y3500664D01*
G01X18184953Y3489234D01*
G01X18184953Y3471962D01*
G01X18179365Y3460532D01*
G01X18173523Y3454944D01*
G01X18156505Y3449102D01*
G01X18104943Y3449102D01*
G01X18232705Y3512094D02*
G01X18232705Y3391952D01*
G01X18349037Y3471962D02*
G01X18349037Y3391952D01*
G01X18349037Y3454944D02*
G01X18337607Y3466374D01*
G01X18326177Y3471962D01*
G01X18309159Y3471962D01*
G01X18297729Y3466374D01*
G01X18286299Y3454944D01*
G01X18280457Y3437672D01*
G01X18280457Y3426242D01*
G01X18286299Y3409224D01*
G01X18297729Y3397794D01*
G01X18309159Y3391952D01*
G01X18326177Y3391952D01*
G01X18337607Y3397794D01*
G01X18349037Y3409224D01*
G01X18414061Y3512094D02*
G01X18414061Y3414812D01*
G01X18419649Y3397794D01*
G01X18431079Y3391952D01*
G01X18442509Y3391952D01*
G01X18396789Y3471962D02*
G01X18436921Y3471962D01*
G01X18490261Y3437672D02*
G01X18558841Y3437672D01*
G01X18558841Y3449102D01*
G01X18553253Y3460532D01*
G01X18547411Y3466374D01*
G01X18535981Y3471962D01*
G01X18518963Y3471962D01*
G01X18507533Y3466374D01*
G01X18496103Y3454944D01*
G01X18490261Y3437672D01*
G01X18490261Y3426242D01*
G01X18496103Y3409224D01*
G01X18507533Y3397794D01*
G01X18518963Y3391952D01*
G01X18535981Y3391952D01*
G01X18547411Y3397794D01*
G01X18558841Y3409224D01*
G01X18675173Y3512094D02*
G01X18675173Y3391952D01*
G01X18675173Y3454944D02*
G01X18663743Y3466374D01*
G01X18652313Y3471962D01*
G01X18635295Y3471962D01*
G01X18623865Y3466374D01*
G01X18612435Y3454944D01*
G01X18606593Y3437672D01*
G01X18606593Y3426242D01*
G01X18612435Y3409224D01*
G01X18623865Y3397794D01*
G01X18635295Y3391952D01*
G01X18652313Y3391952D01*
G01X18663743Y3397794D01*
G01X18675173Y3409224D01*
G01X19646360Y3494822D02*
G01X19634930Y3506252D01*
G01X19617912Y3512094D01*
G01X19595052Y3512094D01*
G01X19577780Y3506252D01*
G01X19566350Y3494822D01*
G01X19566350Y3483392D01*
G01X19572192Y3471962D01*
G01X19577780Y3466374D01*
G01X19589210Y3460532D01*
G01X19623500Y3449102D01*
G01X19634930Y3443514D01*
G01X19640772Y3437672D01*
G01X19646360Y3426242D01*
G01X19646360Y3409224D01*
G01X19634930Y3397794D01*
G01X19617912Y3391952D01*
G01X19595052Y3391952D01*
G01X19577780Y3397794D01*
G01X19566350Y3409224D01*
G01X19694112Y3512094D02*
G01X19694112Y3391952D01*
G01X19694112Y3449102D02*
G01X19711384Y3466374D01*
G01X19722814Y3471962D01*
G01X19739832Y3471962D01*
G01X19751262Y3466374D01*
G01X19757104Y3449102D01*
G01X19757104Y3391952D01*
G01X19873436Y3471962D02*
G01X19873436Y3391952D01*
G01X19873436Y3454944D02*
G01X19862006Y3466374D01*
G01X19850576Y3471962D01*
G01X19833558Y3471962D01*
G01X19822128Y3466374D01*
G01X19810698Y3454944D01*
G01X19804856Y3437672D01*
G01X19804856Y3426242D01*
G01X19810698Y3409224D01*
G01X19822128Y3397794D01*
G01X19833558Y3391952D01*
G01X19850576Y3391952D01*
G01X19862006Y3397794D01*
G01X19873436Y3409224D01*
G01X19921188Y3471962D02*
G01X19921188Y3352074D01*
G01X19921188Y3454944D02*
G01X19932618Y3466374D01*
G01X19944048Y3471962D01*
G01X19961320Y3471962D01*
G01X19972750Y3466374D01*
G01X19984180Y3454944D01*
G01X19989768Y3437672D01*
G01X19989768Y3426242D01*
G01X19984180Y3409224D01*
G01X19972750Y3397794D01*
G01X19961320Y3391952D01*
G01X19944048Y3391952D01*
G01X19932618Y3397794D01*
G01X19921188Y3409224D01*
G01X20037520Y3437672D02*
G01X20106100Y3437672D01*
G01X20106100Y3449102D01*
G01X20100512Y3460532D01*
G01X20094670Y3466374D01*
G01X20083240Y3471962D01*
G01X20066222Y3471962D01*
G01X20054792Y3466374D01*
G01X20043362Y3454944D01*
G01X20037520Y3437672D01*
G01X20037520Y3426242D01*
G01X20043362Y3409224D01*
G01X20054792Y3397794D01*
G01X20066222Y3391952D01*
G01X20083240Y3391952D01*
G01X20094670Y3397794D01*
G01X20106100Y3409224D01*
G01X20997531Y3512094D02*
G01X21043251Y3391952D01*
G01X21088971Y3512094D02*
G01X21043251Y3391952D01*
G01X21136723Y3512094D02*
G01X21142565Y3506252D01*
G01X21148153Y3512094D01*
G01X21142565Y3517682D01*
G01X21136723Y3512094D01*
G01X21142565Y3471962D02*
G01X21142565Y3391952D01*
G01X21264485Y3471962D02*
G01X21264485Y3391952D01*
G01X21264485Y3454944D02*
G01X21253055Y3466374D01*
G01X21241625Y3471962D01*
G01X21224607Y3471962D01*
G01X21213177Y3466374D01*
G01X21201747Y3454944D01*
G01X21195905Y3437672D01*
G01X21195905Y3426242D01*
G01X21201747Y3409224D01*
G01X21213177Y3397794D01*
G01X21224607Y3391952D01*
G01X21241625Y3391952D01*
G01X21253055Y3397794D01*
G01X21264485Y3409224D01*
G01X21415107Y3534954D02*
G01X21312237Y3352074D01*
G01X21462859Y3512094D02*
G01X21462859Y3391952D01*
G01X21462859Y3512094D02*
G01X21514421Y3512094D01*
G01X21531439Y3506252D01*
G01X21537281Y3500664D01*
G01X21542869Y3489234D01*
G01X21542869Y3471962D01*
G01X21537281Y3460532D01*
G01X21531439Y3454944D01*
G01X21514421Y3449102D01*
G01X21462859Y3449102D01*
G01X21659201Y3471962D02*
G01X21659201Y3391952D01*
G01X21659201Y3454944D02*
G01X21647771Y3466374D01*
G01X21636341Y3471962D01*
G01X21619323Y3471962D01*
G01X21607893Y3466374D01*
G01X21596463Y3454944D01*
G01X21590621Y3437672D01*
G01X21590621Y3426242D01*
G01X21596463Y3409224D01*
G01X21607893Y3397794D01*
G01X21619323Y3391952D01*
G01X21636341Y3391952D01*
G01X21647771Y3397794D01*
G01X21659201Y3409224D01*
G01X21775533Y3512094D02*
G01X21775533Y3391952D01*
G01X21775533Y3454944D02*
G01X21764103Y3466374D01*
G01X21752673Y3471962D01*
G01X21735655Y3471962D01*
G01X21724225Y3466374D01*
G01X21712795Y3454944D01*
G01X21706953Y3437672D01*
G01X21706953Y3426242D01*
G01X21712795Y3409224D01*
G01X21724225Y3397794D01*
G01X21735655Y3391952D01*
G01X21752673Y3391952D01*
G01X21764103Y3397794D01*
G01X21775533Y3409224D01*
G01X22666710Y3512094D02*
G01X22666710Y3391952D01*
G01X22666710Y3512094D02*
G01X22718272Y3512094D01*
G01X22735290Y3506252D01*
G01X22741132Y3500664D01*
G01X22746720Y3489234D01*
G01X22746720Y3471962D01*
G01X22741132Y3460532D01*
G01X22735290Y3454944D01*
G01X22718272Y3449102D01*
G01X22666710Y3449102D01*
G01X22863052Y3471962D02*
G01X22863052Y3391952D01*
G01X22863052Y3454944D02*
G01X22851622Y3466374D01*
G01X22840192Y3471962D01*
G01X22823174Y3471962D01*
G01X22811744Y3466374D01*
G01X22800314Y3454944D01*
G01X22794472Y3437672D01*
G01X22794472Y3426242D01*
G01X22800314Y3409224D01*
G01X22811744Y3397794D01*
G01X22823174Y3391952D01*
G01X22840192Y3391952D01*
G01X22851622Y3397794D01*
G01X22863052Y3409224D01*
G01X22979384Y3512094D02*
G01X22979384Y3391952D01*
G01X22979384Y3454944D02*
G01X22967954Y3466374D01*
G01X22956524Y3471962D01*
G01X22939506Y3471962D01*
G01X22928076Y3466374D01*
G01X22916646Y3454944D01*
G01X22910804Y3437672D01*
G01X22910804Y3426242D01*
G01X22916646Y3409224D01*
G01X22928076Y3397794D01*
G01X22939506Y3391952D01*
G01X22956524Y3391952D01*
G01X22967954Y3397794D01*
G01X22979384Y3409224D01*
G01X23235162Y3494822D02*
G01X23223732Y3506252D01*
G01X23206714Y3512094D01*
G01X23183854Y3512094D01*
G01X23166582Y3506252D01*
G01X23155152Y3494822D01*
G01X23155152Y3483392D01*
G01X23160994Y3471962D01*
G01X23166582Y3466374D01*
G01X23178012Y3460532D01*
G01X23212302Y3449102D01*
G01X23223732Y3443514D01*
G01X23229574Y3437672D01*
G01X23235162Y3426242D01*
G01X23235162Y3409224D01*
G01X23223732Y3397794D01*
G01X23206714Y3391952D01*
G01X23183854Y3391952D01*
G01X23166582Y3397794D01*
G01X23155152Y3409224D01*
G01X23282914Y3512094D02*
G01X23282914Y3391952D01*
G01X23282914Y3449102D02*
G01X23300186Y3466374D01*
G01X23311616Y3471962D01*
G01X23328634Y3471962D01*
G01X23340064Y3466374D01*
G01X23345906Y3449102D01*
G01X23345906Y3391952D01*
G01X23462238Y3471962D02*
G01X23462238Y3391952D01*
G01X23462238Y3454944D02*
G01X23450808Y3466374D01*
G01X23439378Y3471962D01*
G01X23422360Y3471962D01*
G01X23410930Y3466374D01*
G01X23399500Y3454944D01*
G01X23393658Y3437672D01*
G01X23393658Y3426242D01*
G01X23399500Y3409224D01*
G01X23410930Y3397794D01*
G01X23422360Y3391952D01*
G01X23439378Y3391952D01*
G01X23450808Y3397794D01*
G01X23462238Y3409224D01*
G01X23509990Y3471962D02*
G01X23509990Y3352074D01*
G01X23509990Y3454944D02*
G01X23521420Y3466374D01*
G01X23532850Y3471962D01*
G01X23550122Y3471962D01*
G01X23561552Y3466374D01*
G01X23572982Y3454944D01*
G01X23578570Y3437672D01*
G01X23578570Y3426242D01*
G01X23572982Y3409224D01*
G01X23561552Y3397794D01*
G01X23550122Y3391952D01*
G01X23532850Y3391952D01*
G01X23521420Y3397794D01*
G01X23509990Y3409224D01*
G01X23626322Y3437672D02*
G01X23694902Y3437672D01*
G01X23694902Y3449102D01*
G01X23689314Y3460532D01*
G01X23683472Y3466374D01*
G01X23672042Y3471962D01*
G01X23655024Y3471962D01*
G01X23643594Y3466374D01*
G01X23632164Y3454944D01*
G01X23626322Y3437672D01*
G01X23626322Y3426242D01*
G01X23632164Y3409224D01*
G01X23643594Y3397794D01*
G01X23655024Y3391952D01*
G01X23672042Y3391952D01*
G01X23683472Y3397794D01*
G01X23694902Y3409224D01*
G01X24586079Y3512094D02*
G01X24586079Y3391952D01*
G01X24586079Y3391952D02*
G01X24654659Y3391952D01*
G01X24770991Y3471962D02*
G01X24770991Y3391952D01*
G01X24770991Y3454944D02*
G01X24759561Y3466374D01*
G01X24748131Y3471962D01*
G01X24731113Y3471962D01*
G01X24719683Y3466374D01*
G01X24708253Y3454944D01*
G01X24702411Y3437672D01*
G01X24702411Y3426242D01*
G01X24708253Y3409224D01*
G01X24719683Y3397794D01*
G01X24731113Y3391952D01*
G01X24748131Y3391952D01*
G01X24759561Y3397794D01*
G01X24770991Y3409224D01*
G01X24824585Y3471962D02*
G01X24858875Y3391952D01*
G01X24893165Y3471962D02*
G01X24858875Y3391952D01*
G01X24847445Y3369092D01*
G01X24836015Y3357662D01*
G01X24824585Y3352074D01*
G01X24818743Y3352074D01*
G01X24940917Y3437672D02*
G01X25009497Y3437672D01*
G01X25009497Y3449102D01*
G01X25003909Y3460532D01*
G01X24998067Y3466374D01*
G01X24986637Y3471962D01*
G01X24969619Y3471962D01*
G01X24958189Y3466374D01*
G01X24946759Y3454944D01*
G01X24940917Y3437672D01*
G01X24940917Y3426242D01*
G01X24946759Y3409224D01*
G01X24958189Y3397794D01*
G01X24969619Y3391952D01*
G01X24986637Y3391952D01*
G01X24998067Y3397794D01*
G01X25009497Y3409224D01*
G01X25057249Y3471962D02*
G01X25057249Y3391952D01*
G01X25057249Y3437672D02*
G01X25063091Y3454944D01*
G01X25074521Y3466374D01*
G01X25085951Y3471962D01*
G01X25102969Y3471962D01*
G01X25278737Y3512094D02*
G01X25278737Y3391952D01*
G01X25278737Y3512094D02*
G01X25330299Y3512094D01*
G01X25347317Y3506252D01*
G01X25353159Y3500664D01*
G01X25358747Y3489234D01*
G01X25358747Y3471962D01*
G01X25353159Y3460532D01*
G01X25347317Y3454944D01*
G01X25330299Y3449102D01*
G01X25278737Y3449102D01*
G01X25475079Y3471962D02*
G01X25475079Y3391952D01*
G01X25475079Y3454944D02*
G01X25463649Y3466374D01*
G01X25452219Y3471962D01*
G01X25435201Y3471962D01*
G01X25423771Y3466374D01*
G01X25412341Y3454944D01*
G01X25406499Y3437672D01*
G01X25406499Y3426242D01*
G01X25412341Y3409224D01*
G01X25423771Y3397794D01*
G01X25435201Y3391952D01*
G01X25452219Y3391952D01*
G01X25463649Y3397794D01*
G01X25475079Y3409224D01*
G01X25522831Y3512094D02*
G01X25528673Y3506252D01*
G01X25534261Y3512094D01*
G01X25528673Y3517682D01*
G01X25522831Y3512094D01*
G01X25528673Y3471962D02*
G01X25528673Y3391952D01*
G01X25582013Y3471962D02*
G01X25582013Y3391952D01*
G01X25582013Y3437672D02*
G01X25587855Y3454944D01*
G01X25599285Y3466374D01*
G01X25610715Y3471962D01*
G01X25627733Y3471962D01*
G01X12825516Y2902821D02*
G01X12825516Y2908663D01*
G01X12831104Y2920093D01*
G01X12836946Y2925681D01*
G01X12848376Y2931523D01*
G01X12871236Y2931523D01*
G01X12882666Y2925681D01*
G01X12888254Y2920093D01*
G01X12894096Y2908663D01*
G01X12894096Y2897233D01*
G01X12888254Y2885803D01*
G01X12876824Y2868531D01*
G01X12819674Y2811381D01*
G01X12899684Y2811381D01*
G01X14233837Y2908663D02*
G01X14245267Y2914251D01*
G01X14262539Y2931523D01*
G01X14262539Y2811381D01*
G01X14378871Y2914251D02*
G01X14373283Y2925681D01*
G01X14356011Y2931523D01*
G01X14344581Y2931523D01*
G01X14327563Y2925681D01*
G01X14316133Y2908663D01*
G01X14310291Y2879961D01*
G01X14310291Y2851513D01*
G01X14316133Y2828653D01*
G01X14327563Y2817223D01*
G01X14344581Y2811381D01*
G01X14350423Y2811381D01*
G01X14367441Y2817223D01*
G01X14378871Y2828653D01*
G01X14384713Y2845671D01*
G01X14384713Y2851513D01*
G01X14378871Y2868531D01*
G01X14367441Y2879961D01*
G01X14350423Y2885803D01*
G01X14344581Y2885803D01*
G01X14327563Y2879961D01*
G01X14316133Y2868531D01*
G01X14310291Y2851513D01*
G01X14438307Y2840083D02*
G01X14432465Y2834241D01*
G01X14438307Y2828653D01*
G01X14443895Y2834241D01*
G01X14438307Y2840083D01*
G01X14491647Y2908663D02*
G01X14503077Y2914251D01*
G01X14520349Y2931523D01*
G01X14520349Y2811381D01*
G01X14568101Y2891391D02*
G01X14568101Y2811381D01*
G01X14568101Y2868531D02*
G01X14585373Y2885803D01*
G01X14596803Y2891391D01*
G01X14613821Y2891391D01*
G01X14625251Y2885803D01*
G01X14631093Y2868531D01*
G01X14631093Y2811381D01*
G01X14631093Y2868531D02*
G01X14648111Y2885803D01*
G01X14659541Y2891391D01*
G01X14676813Y2891391D01*
G01X14688243Y2885803D01*
G01X14693831Y2868531D01*
G01X14693831Y2811381D01*
G01X14741583Y2931523D02*
G01X14747425Y2925681D01*
G01X14753013Y2931523D01*
G01X14747425Y2937111D01*
G01X14741583Y2931523D01*
G01X14747425Y2891391D02*
G01X14747425Y2811381D01*
G01X14800765Y2931523D02*
G01X14800765Y2811381D01*
G01X14888649Y2954383D02*
G01X14877219Y2942953D01*
G01X14865789Y2925681D01*
G01X14854359Y2902821D01*
G01X14848517Y2874373D01*
G01X14848517Y2851513D01*
G01X14854359Y2822811D01*
G01X14865789Y2799951D01*
G01X14877219Y2782933D01*
G01X14888649Y2771503D01*
G01X14970691Y2931523D02*
G01X14953673Y2925681D01*
G01X14942243Y2908663D01*
G01X14936401Y2879961D01*
G01X14936401Y2862943D01*
G01X14942243Y2834241D01*
G01X14953673Y2817223D01*
G01X14970691Y2811381D01*
G01X14982121Y2811381D01*
G01X14999393Y2817223D01*
G01X15010823Y2834241D01*
G01X15016411Y2862943D01*
G01X15016411Y2879961D01*
G01X15010823Y2908663D01*
G01X14999393Y2925681D01*
G01X14982121Y2931523D01*
G01X14970691Y2931523D01*
G01X15070005Y2840083D02*
G01X15064163Y2834241D01*
G01X15070005Y2828653D01*
G01X15075593Y2834241D01*
G01X15070005Y2840083D01*
G01X15180495Y2931523D02*
G01X15123345Y2851513D01*
G01X15209197Y2851513D01*
G01X15180495Y2931523D02*
G01X15180495Y2811381D01*
G01X15256949Y2908663D02*
G01X15268379Y2914251D01*
G01X15285651Y2931523D01*
G01X15285651Y2811381D01*
G01X15367693Y2931523D02*
G01X15350675Y2925681D01*
G01X15339245Y2908663D01*
G01X15333403Y2879961D01*
G01X15333403Y2862943D01*
G01X15339245Y2834241D01*
G01X15350675Y2817223D01*
G01X15367693Y2811381D01*
G01X15379123Y2811381D01*
G01X15396395Y2817223D01*
G01X15407825Y2834241D01*
G01X15413413Y2862943D01*
G01X15413413Y2879961D01*
G01X15407825Y2908663D01*
G01X15396395Y2925681D01*
G01X15379123Y2931523D01*
G01X15367693Y2931523D01*
G01X15461165Y2891391D02*
G01X15461165Y2811381D01*
G01X15461165Y2868531D02*
G01X15478437Y2885803D01*
G01X15489867Y2891391D01*
G01X15506885Y2891391D01*
G01X15518315Y2885803D01*
G01X15524157Y2868531D01*
G01X15524157Y2811381D01*
G01X15524157Y2868531D02*
G01X15541175Y2885803D01*
G01X15552605Y2891391D01*
G01X15569877Y2891391D01*
G01X15581307Y2885803D01*
G01X15586895Y2868531D01*
G01X15586895Y2811381D01*
G01X15634647Y2891391D02*
G01X15634647Y2811381D01*
G01X15634647Y2868531D02*
G01X15651919Y2885803D01*
G01X15663349Y2891391D01*
G01X15680367Y2891391D01*
G01X15691797Y2885803D01*
G01X15697639Y2868531D01*
G01X15697639Y2811381D01*
G01X15697639Y2868531D02*
G01X15714657Y2885803D01*
G01X15726087Y2891391D01*
G01X15743359Y2891391D01*
G01X15754789Y2885803D01*
G01X15760377Y2868531D01*
G01X15760377Y2811381D01*
G01X15808129Y2954383D02*
G01X15819559Y2942953D01*
G01X15830989Y2925681D01*
G01X15842419Y2902821D01*
G01X15848261Y2874373D01*
G01X15848261Y2851513D01*
G01X15842419Y2822811D01*
G01X15830989Y2799951D01*
G01X15819559Y2782933D01*
G01X15808129Y2771503D01*
G01X18104943Y2931523D02*
G01X18104943Y2811381D01*
G01X18104943Y2931523D02*
G01X18156505Y2931523D01*
G01X18173523Y2925681D01*
G01X18179365Y2920093D01*
G01X18184953Y2908663D01*
G01X18184953Y2891391D01*
G01X18179365Y2879961D01*
G01X18173523Y2874373D01*
G01X18156505Y2868531D01*
G01X18104943Y2868531D01*
G01X18272837Y2931523D02*
G01X18272837Y2811381D01*
G01X18232705Y2931523D02*
G01X18312715Y2931523D01*
G01X18360467Y2931523D02*
G01X18360467Y2811381D01*
G01X18440477Y2931523D02*
G01X18440477Y2811381D01*
G01X18360467Y2874373D02*
G01X18440477Y2874373D01*
G01X19566350Y2931523D02*
G01X19566350Y2811381D01*
G01X19566350Y2931523D02*
G01X19617912Y2931523D01*
G01X19634930Y2925681D01*
G01X19640772Y2920093D01*
G01X19646360Y2908663D01*
G01X19646360Y2897233D01*
G01X19640772Y2885803D01*
G01X19634930Y2879961D01*
G01X19617912Y2874373D01*
G01X19566350Y2874373D01*
G01X19606482Y2874373D02*
G01X19646360Y2811381D01*
G01X19722814Y2891391D02*
G01X19711384Y2885803D01*
G01X19699954Y2874373D01*
G01X19694112Y2857101D01*
G01X19694112Y2845671D01*
G01X19699954Y2828653D01*
G01X19711384Y2817223D01*
G01X19722814Y2811381D01*
G01X19739832Y2811381D01*
G01X19751262Y2817223D01*
G01X19762692Y2828653D01*
G01X19768534Y2845671D01*
G01X19768534Y2857101D01*
G01X19762692Y2874373D01*
G01X19751262Y2885803D01*
G01X19739832Y2891391D01*
G01X19722814Y2891391D01*
G01X19816286Y2891391D02*
G01X19816286Y2834241D01*
G01X19822128Y2817223D01*
G01X19833558Y2811381D01*
G01X19850576Y2811381D01*
G01X19862006Y2817223D01*
G01X19879278Y2834241D01*
G01X19879278Y2891391D02*
G01X19879278Y2811381D01*
G01X19927030Y2891391D02*
G01X19927030Y2811381D01*
G01X19927030Y2868531D02*
G01X19944302Y2885803D01*
G01X19955732Y2891391D01*
G01X19972750Y2891391D01*
G01X19984180Y2885803D01*
G01X19990022Y2868531D01*
G01X19990022Y2811381D01*
G01X20106354Y2931523D02*
G01X20106354Y2811381D01*
G01X20106354Y2874373D02*
G01X20094924Y2885803D01*
G01X20083494Y2891391D01*
G01X20066476Y2891391D01*
G01X20055046Y2885803D01*
G01X20043616Y2874373D01*
G01X20037774Y2857101D01*
G01X20037774Y2845671D01*
G01X20043616Y2828653D01*
G01X20055046Y2817223D01*
G01X20066476Y2811381D01*
G01X20083494Y2811381D01*
G01X20094924Y2817223D01*
G01X20106354Y2828653D01*
G01X20997531Y2931523D02*
G01X21043251Y2811381D01*
G01X21088971Y2931523D02*
G01X21043251Y2811381D01*
G01X21136723Y2931523D02*
G01X21142565Y2925681D01*
G01X21148153Y2931523D01*
G01X21142565Y2937111D01*
G01X21136723Y2931523D01*
G01X21142565Y2891391D02*
G01X21142565Y2811381D01*
G01X21264485Y2891391D02*
G01X21264485Y2811381D01*
G01X21264485Y2874373D02*
G01X21253055Y2885803D01*
G01X21241625Y2891391D01*
G01X21224607Y2891391D01*
G01X21213177Y2885803D01*
G01X21201747Y2874373D01*
G01X21195905Y2857101D01*
G01X21195905Y2845671D01*
G01X21201747Y2828653D01*
G01X21213177Y2817223D01*
G01X21224607Y2811381D01*
G01X21241625Y2811381D01*
G01X21253055Y2817223D01*
G01X21264485Y2828653D01*
G01X24626211Y2931523D02*
G01X24626211Y2811381D01*
G01X24586079Y2931523D02*
G01X24666089Y2931523D01*
G01X24742543Y2891391D02*
G01X24731113Y2885803D01*
G01X24719683Y2874373D01*
G01X24713841Y2857101D01*
G01X24713841Y2845671D01*
G01X24719683Y2828653D01*
G01X24731113Y2817223D01*
G01X24742543Y2811381D01*
G01X24759561Y2811381D01*
G01X24770991Y2817223D01*
G01X24782421Y2828653D01*
G01X24788263Y2845671D01*
G01X24788263Y2857101D01*
G01X24782421Y2874373D01*
G01X24770991Y2885803D01*
G01X24759561Y2891391D01*
G01X24742543Y2891391D01*
G01X24836015Y2891391D02*
G01X24836015Y2771503D01*
G01X24836015Y2874373D02*
G01X24847445Y2885803D01*
G01X24858875Y2891391D01*
G01X24876147Y2891391D01*
G01X24887577Y2885803D01*
G01X24899007Y2874373D01*
G01X24904595Y2857101D01*
G01X24904595Y2845671D01*
G01X24899007Y2828653D01*
G01X24887577Y2817223D01*
G01X24876147Y2811381D01*
G01X24858875Y2811381D01*
G01X24847445Y2817223D01*
G01X24836015Y2828653D01*
G01X25080363Y2931523D02*
G01X25080363Y2811381D01*
G01X25080363Y2811381D02*
G01X25148943Y2811381D01*
G01X25265275Y2891391D02*
G01X25265275Y2811381D01*
G01X25265275Y2874373D02*
G01X25253845Y2885803D01*
G01X25242415Y2891391D01*
G01X25225397Y2891391D01*
G01X25213967Y2885803D01*
G01X25202537Y2874373D01*
G01X25196695Y2857101D01*
G01X25196695Y2845671D01*
G01X25202537Y2828653D01*
G01X25213967Y2817223D01*
G01X25225397Y2811381D01*
G01X25242415Y2811381D01*
G01X25253845Y2817223D01*
G01X25265275Y2828653D01*
G01X25318869Y2891391D02*
G01X25353159Y2811381D01*
G01X25387449Y2891391D02*
G01X25353159Y2811381D01*
G01X25341729Y2788521D01*
G01X25330299Y2777091D01*
G01X25318869Y2771503D01*
G01X25313027Y2771503D01*
G01X25435201Y2857101D02*
G01X25503781Y2857101D01*
G01X25503781Y2868531D01*
G01X25498193Y2879961D01*
G01X25492351Y2885803D01*
G01X25480921Y2891391D01*
G01X25463903Y2891391D01*
G01X25452473Y2885803D01*
G01X25441043Y2874373D01*
G01X25435201Y2857101D01*
G01X25435201Y2845671D01*
G01X25441043Y2828653D01*
G01X25452473Y2817223D01*
G01X25463903Y2811381D01*
G01X25480921Y2811381D01*
G01X25492351Y2817223D01*
G01X25503781Y2828653D01*
G01X25551533Y2891391D02*
G01X25551533Y2811381D01*
G01X25551533Y2857101D02*
G01X25557375Y2874373D01*
G01X25568805Y2885803D01*
G01X25580235Y2891391D01*
G01X25597253Y2891391D01*
G01X25645005Y2862943D02*
G01X25747875Y2862943D01*
G01X25795627Y2931523D02*
G01X25795627Y2811381D01*
G01X25795627Y2931523D02*
G01X25847189Y2931523D01*
G01X25864207Y2925681D01*
G01X25870049Y2920093D01*
G01X25875637Y2908663D01*
G01X25875637Y2897233D01*
G01X25870049Y2885803D01*
G01X25864207Y2879961D01*
G01X25847189Y2874373D01*
G01X25795627Y2874373D02*
G01X25847189Y2874373D01*
G01X25864207Y2868531D01*
G01X25870049Y2862943D01*
G01X25875637Y2851513D01*
G01X25875637Y2834241D01*
G01X25870049Y2822811D01*
G01X25864207Y2817223D01*
G01X25847189Y2811381D01*
G01X25795627Y2811381D01*
G01X25952091Y2891391D02*
G01X25940661Y2885803D01*
G01X25929231Y2874373D01*
G01X25923389Y2857101D01*
G01X25923389Y2845671D01*
G01X25929231Y2828653D01*
G01X25940661Y2817223D01*
G01X25952091Y2811381D01*
G01X25969109Y2811381D01*
G01X25980539Y2817223D01*
G01X25991969Y2828653D01*
G01X25997811Y2845671D01*
G01X25997811Y2857101D01*
G01X25991969Y2874373D01*
G01X25980539Y2885803D01*
G01X25969109Y2891391D01*
G01X25952091Y2891391D01*
G01X26062835Y2931523D02*
G01X26062835Y2834241D01*
G01X26068423Y2817223D01*
G01X26079853Y2811381D01*
G01X26091283Y2811381D01*
G01X26045563Y2891391D02*
G01X26085695Y2891391D01*
G01X26156307Y2931523D02*
G01X26156307Y2834241D01*
G01X26161895Y2817223D01*
G01X26173325Y2811381D01*
G01X26184755Y2811381D01*
G01X26139035Y2891391D02*
G01X26179167Y2891391D01*
G01X26261209Y2891391D02*
G01X26249779Y2885803D01*
G01X26238349Y2874373D01*
G01X26232507Y2857101D01*
G01X26232507Y2845671D01*
G01X26238349Y2828653D01*
G01X26249779Y2817223D01*
G01X26261209Y2811381D01*
G01X26278227Y2811381D01*
G01X26289657Y2817223D01*
G01X26301087Y2828653D01*
G01X26306929Y2845671D01*
G01X26306929Y2857101D01*
G01X26301087Y2874373D01*
G01X26289657Y2885803D01*
G01X26278227Y2891391D01*
G01X26261209Y2891391D01*
G01X26354681Y2891391D02*
G01X26354681Y2811381D01*
G01X26354681Y2868531D02*
G01X26371953Y2885803D01*
G01X26383383Y2891391D01*
G01X26400401Y2891391D01*
G01X26411831Y2885803D01*
G01X26417673Y2868531D01*
G01X26417673Y2811381D01*
G01X26417673Y2868531D02*
G01X26434691Y2885803D01*
G01X26446121Y2891391D01*
G01X26463393Y2891391D01*
G01X26474823Y2885803D01*
G01X26480411Y2868531D01*
G01X26480411Y2811381D01*
G01X26656179Y2931523D02*
G01X26656179Y2811381D01*
G01X26656179Y2811381D02*
G01X26724759Y2811381D01*
G01X26841091Y2891391D02*
G01X26841091Y2811381D01*
G01X26841091Y2874373D02*
G01X26829661Y2885803D01*
G01X26818231Y2891391D01*
G01X26801213Y2891391D01*
G01X26789783Y2885803D01*
G01X26778353Y2874373D01*
G01X26772511Y2857101D01*
G01X26772511Y2845671D01*
G01X26778353Y2828653D01*
G01X26789783Y2817223D01*
G01X26801213Y2811381D01*
G01X26818231Y2811381D01*
G01X26829661Y2817223D01*
G01X26841091Y2828653D01*
G01X26894685Y2891391D02*
G01X26928975Y2811381D01*
G01X26963265Y2891391D02*
G01X26928975Y2811381D01*
G01X26917545Y2788521D01*
G01X26906115Y2777091D01*
G01X26894685Y2771503D01*
G01X26888843Y2771503D01*
G01X27011017Y2857101D02*
G01X27079597Y2857101D01*
G01X27079597Y2868531D01*
G01X27074009Y2879961D01*
G01X27068167Y2885803D01*
G01X27056737Y2891391D01*
G01X27039719Y2891391D01*
G01X27028289Y2885803D01*
G01X27016859Y2874373D01*
G01X27011017Y2857101D01*
G01X27011017Y2845671D01*
G01X27016859Y2828653D01*
G01X27028289Y2817223D01*
G01X27039719Y2811381D01*
G01X27056737Y2811381D01*
G01X27068167Y2817223D01*
G01X27079597Y2828653D01*
G01X27127349Y2891391D02*
G01X27127349Y2811381D01*
G01X27127349Y2857101D02*
G01X27133191Y2874373D01*
G01X27144621Y2885803D01*
G01X27156051Y2891391D01*
G01X27173069Y2891391D01*
G01X12825516Y2322249D02*
G01X12825516Y2328091D01*
G01X12831104Y2339521D01*
G01X12836946Y2345109D01*
G01X12848376Y2350951D01*
G01X12871236Y2350951D01*
G01X12882666Y2345109D01*
G01X12888254Y2339521D01*
G01X12894096Y2328091D01*
G01X12894096Y2316661D01*
G01X12888254Y2305231D01*
G01X12876824Y2287959D01*
G01X12819674Y2230809D01*
G01X12899684Y2230809D01*
G01X14302417Y2350951D02*
G01X14245267Y2350951D01*
G01X14239679Y2299389D01*
G01X14245267Y2305231D01*
G01X14262539Y2310819D01*
G01X14279557Y2310819D01*
G01X14296829Y2305231D01*
G01X14308259Y2293801D01*
G01X14313847Y2276529D01*
G01X14313847Y2265099D01*
G01X14308259Y2248081D01*
G01X14296829Y2236651D01*
G01X14279557Y2230809D01*
G01X14262539Y2230809D01*
G01X14245267Y2236651D01*
G01X14239679Y2242239D01*
G01X14233837Y2253669D01*
G01X14361599Y2328091D02*
G01X14373029Y2333679D01*
G01X14390301Y2350951D01*
G01X14390301Y2230809D01*
G01X14443895Y2259511D02*
G01X14438053Y2253669D01*
G01X14443895Y2248081D01*
G01X14449483Y2253669D01*
G01X14443895Y2259511D01*
G01X14503077Y2322249D02*
G01X14503077Y2328091D01*
G01X14508665Y2339521D01*
G01X14514507Y2345109D01*
G01X14525937Y2350951D01*
G01X14548797Y2350951D01*
G01X14560227Y2345109D01*
G01X14565815Y2339521D01*
G01X14571657Y2328091D01*
G01X14571657Y2316661D01*
G01X14565815Y2305231D01*
G01X14554385Y2287959D01*
G01X14497235Y2230809D01*
G01X14577245Y2230809D01*
G01X14624997Y2310819D02*
G01X14687989Y2230809D01*
G01X14687989Y2310819D02*
G01X14624997Y2230809D01*
G01X14804321Y2350951D02*
G01X14747171Y2350951D01*
G01X14741583Y2299389D01*
G01X14747171Y2305231D01*
G01X14764443Y2310819D01*
G01X14781461Y2310819D01*
G01X14798733Y2305231D01*
G01X14810163Y2293801D01*
G01X14815751Y2276529D01*
G01X14815751Y2265099D01*
G01X14810163Y2248081D01*
G01X14798733Y2236651D01*
G01X14781461Y2230809D01*
G01X14764443Y2230809D01*
G01X14747171Y2236651D01*
G01X14741583Y2242239D01*
G01X14735741Y2253669D01*
G01X14863503Y2328091D02*
G01X14874933Y2333679D01*
G01X14892205Y2350951D01*
G01X14892205Y2230809D01*
G01X14945799Y2259511D02*
G01X14939957Y2253669D01*
G01X14945799Y2248081D01*
G01X14951387Y2253669D01*
G01X14945799Y2259511D01*
G01X15004981Y2322249D02*
G01X15004981Y2328091D01*
G01X15010569Y2339521D01*
G01X15016411Y2345109D01*
G01X15027841Y2350951D01*
G01X15050701Y2350951D01*
G01X15062131Y2345109D01*
G01X15067719Y2339521D01*
G01X15073561Y2328091D01*
G01X15073561Y2316661D01*
G01X15067719Y2305231D01*
G01X15056289Y2287959D01*
G01X14999139Y2230809D01*
G01X15079149Y2230809D01*
G01X15126901Y2310819D02*
G01X15126901Y2230809D01*
G01X15126901Y2287959D02*
G01X15144173Y2305231D01*
G01X15155603Y2310819D01*
G01X15172621Y2310819D01*
G01X15184051Y2305231D01*
G01X15189893Y2287959D01*
G01X15189893Y2230809D01*
G01X15189893Y2287959D02*
G01X15206911Y2305231D01*
G01X15218341Y2310819D01*
G01X15235613Y2310819D01*
G01X15247043Y2305231D01*
G01X15252631Y2287959D01*
G01X15252631Y2230809D01*
G01X15300383Y2350951D02*
G01X15306225Y2345109D01*
G01X15311813Y2350951D01*
G01X15306225Y2356539D01*
G01X15300383Y2350951D01*
G01X15306225Y2310819D02*
G01X15306225Y2230809D01*
G01X15359565Y2350951D02*
G01X15359565Y2230809D01*
G01X15447449Y2373811D02*
G01X15436019Y2362381D01*
G01X15424589Y2345109D01*
G01X15413159Y2322249D01*
G01X15407317Y2293801D01*
G01X15407317Y2270941D01*
G01X15413159Y2242239D01*
G01X15424589Y2219379D01*
G01X15436019Y2202361D01*
G01X15447449Y2190931D01*
G01X15495201Y2328091D02*
G01X15506631Y2333679D01*
G01X15523903Y2350951D01*
G01X15523903Y2230809D01*
G01X15577497Y2259511D02*
G01X15571655Y2253669D01*
G01X15577497Y2248081D01*
G01X15583085Y2253669D01*
G01X15577497Y2259511D01*
G01X15642267Y2350951D02*
G01X15705259Y2350951D01*
G01X15670969Y2305231D01*
G01X15687987Y2305231D01*
G01X15699417Y2299389D01*
G01X15705259Y2293801D01*
G01X15710847Y2276529D01*
G01X15710847Y2265099D01*
G01X15705259Y2248081D01*
G01X15693829Y2236651D01*
G01X15676557Y2230809D01*
G01X15659539Y2230809D01*
G01X15642267Y2236651D01*
G01X15636679Y2242239D01*
G01X15630837Y2253669D01*
G01X15792889Y2350951D02*
G01X15775871Y2345109D01*
G01X15764441Y2328091D01*
G01X15758599Y2299389D01*
G01X15758599Y2282371D01*
G01X15764441Y2253669D01*
G01X15775871Y2236651D01*
G01X15792889Y2230809D01*
G01X15804319Y2230809D01*
G01X15821591Y2236651D01*
G01X15833021Y2253669D01*
G01X15838609Y2282371D01*
G01X15838609Y2299389D01*
G01X15833021Y2328091D01*
G01X15821591Y2345109D01*
G01X15804319Y2350951D01*
G01X15792889Y2350951D01*
G01X15920651Y2350951D02*
G01X15903633Y2345109D01*
G01X15892203Y2328091D01*
G01X15886361Y2299389D01*
G01X15886361Y2282371D01*
G01X15892203Y2253669D01*
G01X15903633Y2236651D01*
G01X15920651Y2230809D01*
G01X15932081Y2230809D01*
G01X15949353Y2236651D01*
G01X15960783Y2253669D01*
G01X15966371Y2282371D01*
G01X15966371Y2299389D01*
G01X15960783Y2328091D01*
G01X15949353Y2345109D01*
G01X15932081Y2350951D01*
G01X15920651Y2350951D01*
G01X16014123Y2310819D02*
G01X16077115Y2230809D01*
G01X16077115Y2310819D02*
G01X16014123Y2230809D01*
G01X16124867Y2328091D02*
G01X16136297Y2333679D01*
G01X16153569Y2350951D01*
G01X16153569Y2230809D01*
G01X16207163Y2259511D02*
G01X16201321Y2253669D01*
G01X16207163Y2248081D01*
G01X16212751Y2253669D01*
G01X16207163Y2259511D01*
G01X16271933Y2350951D02*
G01X16334925Y2350951D01*
G01X16300635Y2305231D01*
G01X16317653Y2305231D01*
G01X16329083Y2299389D01*
G01X16334925Y2293801D01*
G01X16340513Y2276529D01*
G01X16340513Y2265099D01*
G01X16334925Y2248081D01*
G01X16323495Y2236651D01*
G01X16306223Y2230809D01*
G01X16289205Y2230809D01*
G01X16271933Y2236651D01*
G01X16266345Y2242239D01*
G01X16260503Y2253669D01*
G01X16422555Y2350951D02*
G01X16405537Y2345109D01*
G01X16394107Y2328091D01*
G01X16388265Y2299389D01*
G01X16388265Y2282371D01*
G01X16394107Y2253669D01*
G01X16405537Y2236651D01*
G01X16422555Y2230809D01*
G01X16433985Y2230809D01*
G01X16451257Y2236651D01*
G01X16462687Y2253669D01*
G01X16468275Y2282371D01*
G01X16468275Y2299389D01*
G01X16462687Y2328091D01*
G01X16451257Y2345109D01*
G01X16433985Y2350951D01*
G01X16422555Y2350951D01*
G01X16550317Y2350951D02*
G01X16533299Y2345109D01*
G01X16521869Y2328091D01*
G01X16516027Y2299389D01*
G01X16516027Y2282371D01*
G01X16521869Y2253669D01*
G01X16533299Y2236651D01*
G01X16550317Y2230809D01*
G01X16561747Y2230809D01*
G01X16579019Y2236651D01*
G01X16590449Y2253669D01*
G01X16596037Y2282371D01*
G01X16596037Y2299389D01*
G01X16590449Y2328091D01*
G01X16579019Y2345109D01*
G01X16561747Y2350951D01*
G01X16550317Y2350951D01*
G01X16643789Y2310819D02*
G01X16643789Y2230809D01*
G01X16643789Y2287959D02*
G01X16661061Y2305231D01*
G01X16672491Y2310819D01*
G01X16689509Y2310819D01*
G01X16700939Y2305231D01*
G01X16706781Y2287959D01*
G01X16706781Y2230809D01*
G01X16706781Y2287959D02*
G01X16723799Y2305231D01*
G01X16735229Y2310819D01*
G01X16752501Y2310819D01*
G01X16763931Y2305231D01*
G01X16769519Y2287959D01*
G01X16769519Y2230809D01*
G01X16817271Y2310819D02*
G01X16817271Y2230809D01*
G01X16817271Y2287959D02*
G01X16834543Y2305231D01*
G01X16845973Y2310819D01*
G01X16862991Y2310819D01*
G01X16874421Y2305231D01*
G01X16880263Y2287959D01*
G01X16880263Y2230809D01*
G01X16880263Y2287959D02*
G01X16897281Y2305231D01*
G01X16908711Y2310819D01*
G01X16925983Y2310819D01*
G01X16937413Y2305231D01*
G01X16943001Y2287959D01*
G01X16943001Y2230809D01*
G01X16990753Y2373811D02*
G01X17002183Y2362381D01*
G01X17013613Y2345109D01*
G01X17025043Y2322249D01*
G01X17030885Y2293801D01*
G01X17030885Y2270941D01*
G01X17025043Y2242239D01*
G01X17013613Y2219379D01*
G01X17002183Y2202361D01*
G01X16990753Y2190931D01*
G01X18104943Y2350951D02*
G01X18104943Y2230809D01*
G01X18104943Y2350951D02*
G01X18156505Y2350951D01*
G01X18173523Y2345109D01*
G01X18179365Y2339521D01*
G01X18184953Y2328091D01*
G01X18184953Y2310819D01*
G01X18179365Y2299389D01*
G01X18173523Y2293801D01*
G01X18156505Y2287959D01*
G01X18104943Y2287959D01*
G01X18272837Y2350951D02*
G01X18272837Y2230809D01*
G01X18232705Y2350951D02*
G01X18312715Y2350951D01*
G01X18360467Y2350951D02*
G01X18360467Y2230809D01*
G01X18440477Y2350951D02*
G01X18440477Y2230809D01*
G01X18360467Y2293801D02*
G01X18440477Y2293801D01*
G01X19566350Y2350951D02*
G01X19566350Y2230809D01*
G01X19566350Y2350951D02*
G01X19617912Y2350951D01*
G01X19634930Y2345109D01*
G01X19640772Y2339521D01*
G01X19646360Y2328091D01*
G01X19646360Y2316661D01*
G01X19640772Y2305231D01*
G01X19634930Y2299389D01*
G01X19617912Y2293801D01*
G01X19566350Y2293801D01*
G01X19606482Y2293801D02*
G01X19646360Y2230809D01*
G01X19722814Y2310819D02*
G01X19711384Y2305231D01*
G01X19699954Y2293801D01*
G01X19694112Y2276529D01*
G01X19694112Y2265099D01*
G01X19699954Y2248081D01*
G01X19711384Y2236651D01*
G01X19722814Y2230809D01*
G01X19739832Y2230809D01*
G01X19751262Y2236651D01*
G01X19762692Y2248081D01*
G01X19768534Y2265099D01*
G01X19768534Y2276529D01*
G01X19762692Y2293801D01*
G01X19751262Y2305231D01*
G01X19739832Y2310819D01*
G01X19722814Y2310819D01*
G01X19816286Y2310819D02*
G01X19816286Y2253669D01*
G01X19822128Y2236651D01*
G01X19833558Y2230809D01*
G01X19850576Y2230809D01*
G01X19862006Y2236651D01*
G01X19879278Y2253669D01*
G01X19879278Y2310819D02*
G01X19879278Y2230809D01*
G01X19927030Y2310819D02*
G01X19927030Y2230809D01*
G01X19927030Y2287959D02*
G01X19944302Y2305231D01*
G01X19955732Y2310819D01*
G01X19972750Y2310819D01*
G01X19984180Y2305231D01*
G01X19990022Y2287959D01*
G01X19990022Y2230809D01*
G01X20106354Y2350951D02*
G01X20106354Y2230809D01*
G01X20106354Y2293801D02*
G01X20094924Y2305231D01*
G01X20083494Y2310819D01*
G01X20066476Y2310819D01*
G01X20055046Y2305231D01*
G01X20043616Y2293801D01*
G01X20037774Y2276529D01*
G01X20037774Y2265099D01*
G01X20043616Y2248081D01*
G01X20055046Y2236651D01*
G01X20066476Y2230809D01*
G01X20083494Y2230809D01*
G01X20094924Y2236651D01*
G01X20106354Y2248081D01*
G01X20997531Y2350951D02*
G01X20997531Y2230809D01*
G01X20997531Y2350951D02*
G01X21049093Y2350951D01*
G01X21066111Y2345109D01*
G01X21071953Y2339521D01*
G01X21077541Y2328091D01*
G01X21077541Y2310819D01*
G01X21071953Y2299389D01*
G01X21066111Y2293801D01*
G01X21049093Y2287959D01*
G01X20997531Y2287959D01*
G01X21193873Y2310819D02*
G01X21193873Y2230809D01*
G01X21193873Y2293801D02*
G01X21182443Y2305231D01*
G01X21171013Y2310819D01*
G01X21153995Y2310819D01*
G01X21142565Y2305231D01*
G01X21131135Y2293801D01*
G01X21125293Y2276529D01*
G01X21125293Y2265099D01*
G01X21131135Y2248081D01*
G01X21142565Y2236651D01*
G01X21153995Y2230809D01*
G01X21171013Y2230809D01*
G01X21182443Y2236651D01*
G01X21193873Y2248081D01*
G01X21310205Y2350951D02*
G01X21310205Y2230809D01*
G01X21310205Y2293801D02*
G01X21298775Y2305231D01*
G01X21287345Y2310819D01*
G01X21270327Y2310819D01*
G01X21258897Y2305231D01*
G01X21247467Y2293801D01*
G01X21241625Y2276529D01*
G01X21241625Y2265099D01*
G01X21247467Y2248081D01*
G01X21258897Y2236651D01*
G01X21270327Y2230809D01*
G01X21287345Y2230809D01*
G01X21298775Y2236651D01*
G01X21310205Y2248081D01*
G01X22666710Y2350951D02*
G01X22666710Y2230809D01*
G01X22666710Y2350951D02*
G01X22718272Y2350951D01*
G01X22735290Y2345109D01*
G01X22741132Y2339521D01*
G01X22746720Y2328091D01*
G01X22746720Y2316661D01*
G01X22741132Y2305231D01*
G01X22735290Y2299389D01*
G01X22718272Y2293801D01*
G01X22666710Y2293801D01*
G01X22706842Y2293801D02*
G01X22746720Y2230809D01*
G01X22823174Y2310819D02*
G01X22811744Y2305231D01*
G01X22800314Y2293801D01*
G01X22794472Y2276529D01*
G01X22794472Y2265099D01*
G01X22800314Y2248081D01*
G01X22811744Y2236651D01*
G01X22823174Y2230809D01*
G01X22840192Y2230809D01*
G01X22851622Y2236651D01*
G01X22863052Y2248081D01*
G01X22868894Y2265099D01*
G01X22868894Y2276529D01*
G01X22863052Y2293801D01*
G01X22851622Y2305231D01*
G01X22840192Y2310819D01*
G01X22823174Y2310819D01*
G01X22916646Y2310819D02*
G01X22916646Y2253669D01*
G01X22922488Y2236651D01*
G01X22933918Y2230809D01*
G01X22950936Y2230809D01*
G01X22962366Y2236651D01*
G01X22979638Y2253669D01*
G01X22979638Y2310819D02*
G01X22979638Y2230809D01*
G01X23027390Y2310819D02*
G01X23027390Y2230809D01*
G01X23027390Y2287959D02*
G01X23044662Y2305231D01*
G01X23056092Y2310819D01*
G01X23073110Y2310819D01*
G01X23084540Y2305231D01*
G01X23090382Y2287959D01*
G01X23090382Y2230809D01*
G01X23206714Y2350951D02*
G01X23206714Y2230809D01*
G01X23206714Y2293801D02*
G01X23195284Y2305231D01*
G01X23183854Y2310819D01*
G01X23166836Y2310819D01*
G01X23155406Y2305231D01*
G01X23143976Y2293801D01*
G01X23138134Y2276529D01*
G01X23138134Y2265099D01*
G01X23143976Y2248081D01*
G01X23155406Y2236651D01*
G01X23166836Y2230809D01*
G01X23183854Y2230809D01*
G01X23195284Y2236651D01*
G01X23206714Y2248081D01*
G01X24626211Y2350951D02*
G01X24626211Y2230809D01*
G01X24586079Y2350951D02*
G01X24666089Y2350951D01*
G01X24742543Y2310819D02*
G01X24731113Y2305231D01*
G01X24719683Y2293801D01*
G01X24713841Y2276529D01*
G01X24713841Y2265099D01*
G01X24719683Y2248081D01*
G01X24731113Y2236651D01*
G01X24742543Y2230809D01*
G01X24759561Y2230809D01*
G01X24770991Y2236651D01*
G01X24782421Y2248081D01*
G01X24788263Y2265099D01*
G01X24788263Y2276529D01*
G01X24782421Y2293801D01*
G01X24770991Y2305231D01*
G01X24759561Y2310819D01*
G01X24742543Y2310819D01*
G01X24836015Y2310819D02*
G01X24836015Y2190931D01*
G01X24836015Y2293801D02*
G01X24847445Y2305231D01*
G01X24858875Y2310819D01*
G01X24876147Y2310819D01*
G01X24887577Y2305231D01*
G01X24899007Y2293801D01*
G01X24904595Y2276529D01*
G01X24904595Y2265099D01*
G01X24899007Y2248081D01*
G01X24887577Y2236651D01*
G01X24876147Y2230809D01*
G01X24858875Y2230809D01*
G01X24847445Y2236651D01*
G01X24836015Y2248081D01*
G01X25080363Y2350951D02*
G01X25080363Y2230809D01*
G01X25080363Y2230809D02*
G01X25148943Y2230809D01*
G01X25265275Y2310819D02*
G01X25265275Y2230809D01*
G01X25265275Y2293801D02*
G01X25253845Y2305231D01*
G01X25242415Y2310819D01*
G01X25225397Y2310819D01*
G01X25213967Y2305231D01*
G01X25202537Y2293801D01*
G01X25196695Y2276529D01*
G01X25196695Y2265099D01*
G01X25202537Y2248081D01*
G01X25213967Y2236651D01*
G01X25225397Y2230809D01*
G01X25242415Y2230809D01*
G01X25253845Y2236651D01*
G01X25265275Y2248081D01*
G01X25318869Y2310819D02*
G01X25353159Y2230809D01*
G01X25387449Y2310819D02*
G01X25353159Y2230809D01*
G01X25341729Y2207949D01*
G01X25330299Y2196519D01*
G01X25318869Y2190931D01*
G01X25313027Y2190931D01*
G01X25435201Y2276529D02*
G01X25503781Y2276529D01*
G01X25503781Y2287959D01*
G01X25498193Y2299389D01*
G01X25492351Y2305231D01*
G01X25480921Y2310819D01*
G01X25463903Y2310819D01*
G01X25452473Y2305231D01*
G01X25441043Y2293801D01*
G01X25435201Y2276529D01*
G01X25435201Y2265099D01*
G01X25441043Y2248081D01*
G01X25452473Y2236651D01*
G01X25463903Y2230809D01*
G01X25480921Y2230809D01*
G01X25492351Y2236651D01*
G01X25503781Y2248081D01*
G01X25551533Y2310819D02*
G01X25551533Y2230809D01*
G01X25551533Y2276529D02*
G01X25557375Y2293801D01*
G01X25568805Y2305231D01*
G01X25580235Y2310819D01*
G01X25597253Y2310819D01*
G01X25645005Y2282371D02*
G01X25747875Y2282371D01*
G01X25795627Y2350951D02*
G01X25795627Y2230809D01*
G01X25795627Y2350951D02*
G01X25847189Y2350951D01*
G01X25864207Y2345109D01*
G01X25870049Y2339521D01*
G01X25875637Y2328091D01*
G01X25875637Y2316661D01*
G01X25870049Y2305231D01*
G01X25864207Y2299389D01*
G01X25847189Y2293801D01*
G01X25795627Y2293801D02*
G01X25847189Y2293801D01*
G01X25864207Y2287959D01*
G01X25870049Y2282371D01*
G01X25875637Y2270941D01*
G01X25875637Y2253669D01*
G01X25870049Y2242239D01*
G01X25864207Y2236651D01*
G01X25847189Y2230809D01*
G01X25795627Y2230809D01*
G01X25952091Y2310819D02*
G01X25940661Y2305231D01*
G01X25929231Y2293801D01*
G01X25923389Y2276529D01*
G01X25923389Y2265099D01*
G01X25929231Y2248081D01*
G01X25940661Y2236651D01*
G01X25952091Y2230809D01*
G01X25969109Y2230809D01*
G01X25980539Y2236651D01*
G01X25991969Y2248081D01*
G01X25997811Y2265099D01*
G01X25997811Y2276529D01*
G01X25991969Y2293801D01*
G01X25980539Y2305231D01*
G01X25969109Y2310819D01*
G01X25952091Y2310819D01*
G01X26062835Y2350951D02*
G01X26062835Y2253669D01*
G01X26068423Y2236651D01*
G01X26079853Y2230809D01*
G01X26091283Y2230809D01*
G01X26045563Y2310819D02*
G01X26085695Y2310819D01*
G01X26156307Y2350951D02*
G01X26156307Y2253669D01*
G01X26161895Y2236651D01*
G01X26173325Y2230809D01*
G01X26184755Y2230809D01*
G01X26139035Y2310819D02*
G01X26179167Y2310819D01*
G01X26261209Y2310819D02*
G01X26249779Y2305231D01*
G01X26238349Y2293801D01*
G01X26232507Y2276529D01*
G01X26232507Y2265099D01*
G01X26238349Y2248081D01*
G01X26249779Y2236651D01*
G01X26261209Y2230809D01*
G01X26278227Y2230809D01*
G01X26289657Y2236651D01*
G01X26301087Y2248081D01*
G01X26306929Y2265099D01*
G01X26306929Y2276529D01*
G01X26301087Y2293801D01*
G01X26289657Y2305231D01*
G01X26278227Y2310819D01*
G01X26261209Y2310819D01*
G01X26354681Y2310819D02*
G01X26354681Y2230809D01*
G01X26354681Y2287959D02*
G01X26371953Y2305231D01*
G01X26383383Y2310819D01*
G01X26400401Y2310819D01*
G01X26411831Y2305231D01*
G01X26417673Y2287959D01*
G01X26417673Y2230809D01*
G01X26417673Y2287959D02*
G01X26434691Y2305231D01*
G01X26446121Y2310819D01*
G01X26463393Y2310819D01*
G01X26474823Y2305231D01*
G01X26480411Y2287959D01*
G01X26480411Y2230809D01*
G01X26656179Y2350951D02*
G01X26656179Y2230809D01*
G01X26656179Y2230809D02*
G01X26724759Y2230809D01*
G01X26841091Y2310819D02*
G01X26841091Y2230809D01*
G01X26841091Y2293801D02*
G01X26829661Y2305231D01*
G01X26818231Y2310819D01*
G01X26801213Y2310819D01*
G01X26789783Y2305231D01*
G01X26778353Y2293801D01*
G01X26772511Y2276529D01*
G01X26772511Y2265099D01*
G01X26778353Y2248081D01*
G01X26789783Y2236651D01*
G01X26801213Y2230809D01*
G01X26818231Y2230809D01*
G01X26829661Y2236651D01*
G01X26841091Y2248081D01*
G01X26894685Y2310819D02*
G01X26928975Y2230809D01*
G01X26963265Y2310819D02*
G01X26928975Y2230809D01*
G01X26917545Y2207949D01*
G01X26906115Y2196519D01*
G01X26894685Y2190931D01*
G01X26888843Y2190931D01*
G01X27011017Y2276529D02*
G01X27079597Y2276529D01*
G01X27079597Y2287959D01*
G01X27074009Y2299389D01*
G01X27068167Y2305231D01*
G01X27056737Y2310819D01*
G01X27039719Y2310819D01*
G01X27028289Y2305231D01*
G01X27016859Y2293801D01*
G01X27011017Y2276529D01*
G01X27011017Y2265099D01*
G01X27016859Y2248081D01*
G01X27028289Y2236651D01*
G01X27039719Y2230809D01*
G01X27056737Y2230809D01*
G01X27068167Y2236651D01*
G01X27079597Y2248081D01*
G01X27127349Y2310819D02*
G01X27127349Y2230809D01*
G01X27127349Y2276529D02*
G01X27133191Y2293801D01*
G01X27144621Y2305231D01*
G01X27156051Y2310819D01*
G01X27173069Y2310819D01*
G01X12876824Y1770380D02*
G01X12819674Y1690370D01*
G01X12905526Y1690370D01*
G01X12876824Y1770380D02*
G01X12876824Y1650238D01*
G01X14262539Y1770380D02*
G01X14245267Y1764538D01*
G01X14239679Y1753108D01*
G01X14239679Y1741678D01*
G01X14245267Y1730248D01*
G01X14256697Y1724660D01*
G01X14279557Y1718818D01*
G01X14296829Y1713230D01*
G01X14308259Y1701800D01*
G01X14313847Y1690370D01*
G01X14313847Y1673098D01*
G01X14308259Y1661668D01*
G01X14302417Y1656080D01*
G01X14285399Y1650238D01*
G01X14262539Y1650238D01*
G01X14245267Y1656080D01*
G01X14239679Y1661668D01*
G01X14233837Y1673098D01*
G01X14233837Y1690370D01*
G01X14239679Y1701800D01*
G01X14251109Y1713230D01*
G01X14268127Y1718818D01*
G01X14290987Y1724660D01*
G01X14302417Y1730248D01*
G01X14308259Y1741678D01*
G01X14308259Y1753108D01*
G01X14302417Y1764538D01*
G01X14285399Y1770380D01*
G01X14262539Y1770380D01*
G01X14430179Y1753108D02*
G01X14424591Y1764538D01*
G01X14407319Y1770380D01*
G01X14395889Y1770380D01*
G01X14378871Y1764538D01*
G01X14367441Y1747520D01*
G01X14361599Y1718818D01*
G01X14361599Y1690370D01*
G01X14367441Y1667510D01*
G01X14378871Y1656080D01*
G01X14395889Y1650238D01*
G01X14401731Y1650238D01*
G01X14418749Y1656080D01*
G01X14430179Y1667510D01*
G01X14436021Y1684528D01*
G01X14436021Y1690370D01*
G01X14430179Y1707388D01*
G01X14418749Y1718818D01*
G01X14401731Y1724660D01*
G01X14395889Y1724660D01*
G01X14378871Y1718818D01*
G01X14367441Y1707388D01*
G01X14361599Y1690370D01*
G01X14489615Y1678940D02*
G01X14483773Y1673098D01*
G01X14489615Y1667510D01*
G01X14495203Y1673098D01*
G01X14489615Y1678940D01*
G01X14611535Y1753108D02*
G01X14605947Y1764538D01*
G01X14588675Y1770380D01*
G01X14577245Y1770380D01*
G01X14560227Y1764538D01*
G01X14548797Y1747520D01*
G01X14542955Y1718818D01*
G01X14542955Y1690370D01*
G01X14548797Y1667510D01*
G01X14560227Y1656080D01*
G01X14577245Y1650238D01*
G01X14583087Y1650238D01*
G01X14600105Y1656080D01*
G01X14611535Y1667510D01*
G01X14617377Y1684528D01*
G01X14617377Y1690370D01*
G01X14611535Y1707388D01*
G01X14600105Y1718818D01*
G01X14583087Y1724660D01*
G01X14577245Y1724660D01*
G01X14560227Y1718818D01*
G01X14548797Y1707388D01*
G01X14542955Y1690370D01*
G01X14665129Y1730248D02*
G01X14728121Y1650238D01*
G01X14728121Y1730248D02*
G01X14665129Y1650238D01*
G01X14804575Y1770380D02*
G01X14787303Y1764538D01*
G01X14781715Y1753108D01*
G01X14781715Y1741678D01*
G01X14787303Y1730248D01*
G01X14798733Y1724660D01*
G01X14821593Y1718818D01*
G01X14838865Y1713230D01*
G01X14850295Y1701800D01*
G01X14855883Y1690370D01*
G01X14855883Y1673098D01*
G01X14850295Y1661668D01*
G01X14844453Y1656080D01*
G01X14827435Y1650238D01*
G01X14804575Y1650238D01*
G01X14787303Y1656080D01*
G01X14781715Y1661668D01*
G01X14775873Y1673098D01*
G01X14775873Y1690370D01*
G01X14781715Y1701800D01*
G01X14793145Y1713230D01*
G01X14810163Y1718818D01*
G01X14833023Y1724660D01*
G01X14844453Y1730248D01*
G01X14850295Y1741678D01*
G01X14850295Y1753108D01*
G01X14844453Y1764538D01*
G01X14827435Y1770380D01*
G01X14804575Y1770380D01*
G01X14972215Y1753108D02*
G01X14966627Y1764538D01*
G01X14949355Y1770380D01*
G01X14937925Y1770380D01*
G01X14920907Y1764538D01*
G01X14909477Y1747520D01*
G01X14903635Y1718818D01*
G01X14903635Y1690370D01*
G01X14909477Y1667510D01*
G01X14920907Y1656080D01*
G01X14937925Y1650238D01*
G01X14943767Y1650238D01*
G01X14960785Y1656080D01*
G01X14972215Y1667510D01*
G01X14978057Y1684528D01*
G01X14978057Y1690370D01*
G01X14972215Y1707388D01*
G01X14960785Y1718818D01*
G01X14943767Y1724660D01*
G01X14937925Y1724660D01*
G01X14920907Y1718818D01*
G01X14909477Y1707388D01*
G01X14903635Y1690370D01*
G01X15031651Y1678940D02*
G01X15025809Y1673098D01*
G01X15031651Y1667510D01*
G01X15037239Y1673098D01*
G01X15031651Y1678940D01*
G01X15153571Y1753108D02*
G01X15147983Y1764538D01*
G01X15130711Y1770380D01*
G01X15119281Y1770380D01*
G01X15102263Y1764538D01*
G01X15090833Y1747520D01*
G01X15084991Y1718818D01*
G01X15084991Y1690370D01*
G01X15090833Y1667510D01*
G01X15102263Y1656080D01*
G01X15119281Y1650238D01*
G01X15125123Y1650238D01*
G01X15142141Y1656080D01*
G01X15153571Y1667510D01*
G01X15159413Y1684528D01*
G01X15159413Y1690370D01*
G01X15153571Y1707388D01*
G01X15142141Y1718818D01*
G01X15125123Y1724660D01*
G01X15119281Y1724660D01*
G01X15102263Y1718818D01*
G01X15090833Y1707388D01*
G01X15084991Y1690370D01*
G01X15207165Y1730248D02*
G01X15207165Y1650238D01*
G01X15207165Y1707388D02*
G01X15224437Y1724660D01*
G01X15235867Y1730248D01*
G01X15252885Y1730248D01*
G01X15264315Y1724660D01*
G01X15270157Y1707388D01*
G01X15270157Y1650238D01*
G01X15270157Y1707388D02*
G01X15287175Y1724660D01*
G01X15298605Y1730248D01*
G01X15315877Y1730248D01*
G01X15327307Y1724660D01*
G01X15332895Y1707388D01*
G01X15332895Y1650238D01*
G01X15380647Y1770380D02*
G01X15386489Y1764538D01*
G01X15392077Y1770380D01*
G01X15386489Y1775968D01*
G01X15380647Y1770380D01*
G01X15386489Y1730248D02*
G01X15386489Y1650238D01*
G01X15439829Y1770380D02*
G01X15439829Y1650238D01*
G01X15527713Y1793240D02*
G01X15516283Y1781810D01*
G01X15504853Y1764538D01*
G01X15493423Y1741678D01*
G01X15487581Y1713230D01*
G01X15487581Y1690370D01*
G01X15493423Y1661668D01*
G01X15504853Y1638808D01*
G01X15516283Y1621790D01*
G01X15527713Y1610360D01*
G01X15581307Y1741678D02*
G01X15581307Y1747520D01*
G01X15586895Y1758950D01*
G01X15592737Y1764538D01*
G01X15604167Y1770380D01*
G01X15627027Y1770380D01*
G01X15638457Y1764538D01*
G01X15644045Y1758950D01*
G01X15649887Y1747520D01*
G01X15649887Y1736090D01*
G01X15644045Y1724660D01*
G01X15632615Y1707388D01*
G01X15575465Y1650238D01*
G01X15655475Y1650238D01*
G01X15709069Y1678940D02*
G01X15703227Y1673098D01*
G01X15709069Y1667510D01*
G01X15714657Y1673098D01*
G01X15709069Y1678940D01*
G01X15768251Y1741678D02*
G01X15768251Y1747520D01*
G01X15773839Y1758950D01*
G01X15779681Y1764538D01*
G01X15791111Y1770380D01*
G01X15813971Y1770380D01*
G01X15825401Y1764538D01*
G01X15830989Y1758950D01*
G01X15836831Y1747520D01*
G01X15836831Y1736090D01*
G01X15830989Y1724660D01*
G01X15819559Y1707388D01*
G01X15762409Y1650238D01*
G01X15842419Y1650238D01*
G01X15924461Y1770380D02*
G01X15907443Y1764538D01*
G01X15896013Y1747520D01*
G01X15890171Y1718818D01*
G01X15890171Y1701800D01*
G01X15896013Y1673098D01*
G01X15907443Y1656080D01*
G01X15924461Y1650238D01*
G01X15935891Y1650238D01*
G01X15953163Y1656080D01*
G01X15964593Y1673098D01*
G01X15970181Y1701800D01*
G01X15970181Y1718818D01*
G01X15964593Y1747520D01*
G01X15953163Y1764538D01*
G01X15935891Y1770380D01*
G01X15924461Y1770380D01*
G01X16052223Y1770380D02*
G01X16035205Y1764538D01*
G01X16023775Y1747520D01*
G01X16017933Y1718818D01*
G01X16017933Y1701800D01*
G01X16023775Y1673098D01*
G01X16035205Y1656080D01*
G01X16052223Y1650238D01*
G01X16063653Y1650238D01*
G01X16080925Y1656080D01*
G01X16092355Y1673098D01*
G01X16097943Y1701800D01*
G01X16097943Y1718818D01*
G01X16092355Y1747520D01*
G01X16080925Y1764538D01*
G01X16063653Y1770380D01*
G01X16052223Y1770380D01*
G01X16145695Y1730248D02*
G01X16208687Y1650238D01*
G01X16208687Y1730248D02*
G01X16145695Y1650238D01*
G01X16262281Y1741678D02*
G01X16262281Y1747520D01*
G01X16267869Y1758950D01*
G01X16273711Y1764538D01*
G01X16285141Y1770380D01*
G01X16308001Y1770380D01*
G01X16319431Y1764538D01*
G01X16325019Y1758950D01*
G01X16330861Y1747520D01*
G01X16330861Y1736090D01*
G01X16325019Y1724660D01*
G01X16313589Y1707388D01*
G01X16256439Y1650238D01*
G01X16336449Y1650238D01*
G01X16390043Y1678940D02*
G01X16384201Y1673098D01*
G01X16390043Y1667510D01*
G01X16395631Y1673098D01*
G01X16390043Y1678940D01*
G01X16449225Y1741678D02*
G01X16449225Y1747520D01*
G01X16454813Y1758950D01*
G01X16460655Y1764538D01*
G01X16472085Y1770380D01*
G01X16494945Y1770380D01*
G01X16506375Y1764538D01*
G01X16511963Y1758950D01*
G01X16517805Y1747520D01*
G01X16517805Y1736090D01*
G01X16511963Y1724660D01*
G01X16500533Y1707388D01*
G01X16443383Y1650238D01*
G01X16523393Y1650238D01*
G01X16605435Y1770380D02*
G01X16588417Y1764538D01*
G01X16576987Y1747520D01*
G01X16571145Y1718818D01*
G01X16571145Y1701800D01*
G01X16576987Y1673098D01*
G01X16588417Y1656080D01*
G01X16605435Y1650238D01*
G01X16616865Y1650238D01*
G01X16634137Y1656080D01*
G01X16645567Y1673098D01*
G01X16651155Y1701800D01*
G01X16651155Y1718818D01*
G01X16645567Y1747520D01*
G01X16634137Y1764538D01*
G01X16616865Y1770380D01*
G01X16605435Y1770380D01*
G01X16733197Y1770380D02*
G01X16716179Y1764538D01*
G01X16704749Y1747520D01*
G01X16698907Y1718818D01*
G01X16698907Y1701800D01*
G01X16704749Y1673098D01*
G01X16716179Y1656080D01*
G01X16733197Y1650238D01*
G01X16744627Y1650238D01*
G01X16761899Y1656080D01*
G01X16773329Y1673098D01*
G01X16778917Y1701800D01*
G01X16778917Y1718818D01*
G01X16773329Y1747520D01*
G01X16761899Y1764538D01*
G01X16744627Y1770380D01*
G01X16733197Y1770380D01*
G01X16826669Y1730248D02*
G01X16826669Y1650238D01*
G01X16826669Y1707388D02*
G01X16843941Y1724660D01*
G01X16855371Y1730248D01*
G01X16872389Y1730248D01*
G01X16883819Y1724660D01*
G01X16889661Y1707388D01*
G01X16889661Y1650238D01*
G01X16889661Y1707388D02*
G01X16906679Y1724660D01*
G01X16918109Y1730248D01*
G01X16935381Y1730248D01*
G01X16946811Y1724660D01*
G01X16952399Y1707388D01*
G01X16952399Y1650238D01*
G01X17000151Y1730248D02*
G01X17000151Y1650238D01*
G01X17000151Y1707388D02*
G01X17017423Y1724660D01*
G01X17028853Y1730248D01*
G01X17045871Y1730248D01*
G01X17057301Y1724660D01*
G01X17063143Y1707388D01*
G01X17063143Y1650238D01*
G01X17063143Y1707388D02*
G01X17080161Y1724660D01*
G01X17091591Y1730248D01*
G01X17108863Y1730248D01*
G01X17120293Y1724660D01*
G01X17125881Y1707388D01*
G01X17125881Y1650238D01*
G01X17173633Y1793240D02*
G01X17185063Y1781810D01*
G01X17196493Y1764538D01*
G01X17207923Y1741678D01*
G01X17213765Y1713230D01*
G01X17213765Y1690370D01*
G01X17207923Y1661668D01*
G01X17196493Y1638808D01*
G01X17185063Y1621790D01*
G01X17173633Y1610360D01*
G01X18104943Y1770380D02*
G01X18104943Y1650238D01*
G01X18104943Y1770380D02*
G01X18156505Y1770380D01*
G01X18173523Y1764538D01*
G01X18179365Y1758950D01*
G01X18184953Y1747520D01*
G01X18184953Y1730248D01*
G01X18179365Y1718818D01*
G01X18173523Y1713230D01*
G01X18156505Y1707388D01*
G01X18104943Y1707388D01*
G01X18272837Y1770380D02*
G01X18272837Y1650238D01*
G01X18232705Y1770380D02*
G01X18312715Y1770380D01*
G01X18360467Y1770380D02*
G01X18360467Y1650238D01*
G01X18440477Y1770380D02*
G01X18440477Y1650238D01*
G01X18360467Y1713230D02*
G01X18440477Y1713230D01*
G01X19566350Y1770380D02*
G01X19566350Y1650238D01*
G01X19566350Y1770380D02*
G01X19617912Y1770380D01*
G01X19634930Y1764538D01*
G01X19640772Y1758950D01*
G01X19646360Y1747520D01*
G01X19646360Y1736090D01*
G01X19640772Y1724660D01*
G01X19634930Y1718818D01*
G01X19617912Y1713230D01*
G01X19566350Y1713230D01*
G01X19606482Y1713230D02*
G01X19646360Y1650238D01*
G01X19722814Y1730248D02*
G01X19711384Y1724660D01*
G01X19699954Y1713230D01*
G01X19694112Y1695958D01*
G01X19694112Y1684528D01*
G01X19699954Y1667510D01*
G01X19711384Y1656080D01*
G01X19722814Y1650238D01*
G01X19739832Y1650238D01*
G01X19751262Y1656080D01*
G01X19762692Y1667510D01*
G01X19768534Y1684528D01*
G01X19768534Y1695958D01*
G01X19762692Y1713230D01*
G01X19751262Y1724660D01*
G01X19739832Y1730248D01*
G01X19722814Y1730248D01*
G01X19816286Y1730248D02*
G01X19816286Y1673098D01*
G01X19822128Y1656080D01*
G01X19833558Y1650238D01*
G01X19850576Y1650238D01*
G01X19862006Y1656080D01*
G01X19879278Y1673098D01*
G01X19879278Y1730248D02*
G01X19879278Y1650238D01*
G01X19927030Y1730248D02*
G01X19927030Y1650238D01*
G01X19927030Y1707388D02*
G01X19944302Y1724660D01*
G01X19955732Y1730248D01*
G01X19972750Y1730248D01*
G01X19984180Y1724660D01*
G01X19990022Y1707388D01*
G01X19990022Y1650238D01*
G01X20106354Y1770380D02*
G01X20106354Y1650238D01*
G01X20106354Y1713230D02*
G01X20094924Y1724660D01*
G01X20083494Y1730248D01*
G01X20066476Y1730248D01*
G01X20055046Y1724660D01*
G01X20043616Y1713230D01*
G01X20037774Y1695958D01*
G01X20037774Y1684528D01*
G01X20043616Y1667510D01*
G01X20055046Y1656080D01*
G01X20066476Y1650238D01*
G01X20083494Y1650238D01*
G01X20094924Y1656080D01*
G01X20106354Y1667510D01*
G01X20997531Y1770380D02*
G01X20997531Y1650238D01*
G01X20997531Y1770380D02*
G01X21049093Y1770380D01*
G01X21066111Y1764538D01*
G01X21071953Y1758950D01*
G01X21077541Y1747520D01*
G01X21077541Y1730248D01*
G01X21071953Y1718818D01*
G01X21066111Y1713230D01*
G01X21049093Y1707388D01*
G01X20997531Y1707388D01*
G01X21193873Y1730248D02*
G01X21193873Y1650238D01*
G01X21193873Y1713230D02*
G01X21182443Y1724660D01*
G01X21171013Y1730248D01*
G01X21153995Y1730248D01*
G01X21142565Y1724660D01*
G01X21131135Y1713230D01*
G01X21125293Y1695958D01*
G01X21125293Y1684528D01*
G01X21131135Y1667510D01*
G01X21142565Y1656080D01*
G01X21153995Y1650238D01*
G01X21171013Y1650238D01*
G01X21182443Y1656080D01*
G01X21193873Y1667510D01*
G01X21310205Y1770380D02*
G01X21310205Y1650238D01*
G01X21310205Y1713230D02*
G01X21298775Y1724660D01*
G01X21287345Y1730248D01*
G01X21270327Y1730248D01*
G01X21258897Y1724660D01*
G01X21247467Y1713230D01*
G01X21241625Y1695958D01*
G01X21241625Y1684528D01*
G01X21247467Y1667510D01*
G01X21258897Y1656080D01*
G01X21270327Y1650238D01*
G01X21287345Y1650238D01*
G01X21298775Y1656080D01*
G01X21310205Y1667510D01*
G01X22666710Y1770380D02*
G01X22666710Y1650238D01*
G01X22666710Y1770380D02*
G01X22718272Y1770380D01*
G01X22735290Y1764538D01*
G01X22741132Y1758950D01*
G01X22746720Y1747520D01*
G01X22746720Y1736090D01*
G01X22741132Y1724660D01*
G01X22735290Y1718818D01*
G01X22718272Y1713230D01*
G01X22666710Y1713230D01*
G01X22706842Y1713230D02*
G01X22746720Y1650238D01*
G01X22823174Y1730248D02*
G01X22811744Y1724660D01*
G01X22800314Y1713230D01*
G01X22794472Y1695958D01*
G01X22794472Y1684528D01*
G01X22800314Y1667510D01*
G01X22811744Y1656080D01*
G01X22823174Y1650238D01*
G01X22840192Y1650238D01*
G01X22851622Y1656080D01*
G01X22863052Y1667510D01*
G01X22868894Y1684528D01*
G01X22868894Y1695958D01*
G01X22863052Y1713230D01*
G01X22851622Y1724660D01*
G01X22840192Y1730248D01*
G01X22823174Y1730248D01*
G01X22916646Y1730248D02*
G01X22916646Y1673098D01*
G01X22922488Y1656080D01*
G01X22933918Y1650238D01*
G01X22950936Y1650238D01*
G01X22962366Y1656080D01*
G01X22979638Y1673098D01*
G01X22979638Y1730248D02*
G01X22979638Y1650238D01*
G01X23027390Y1730248D02*
G01X23027390Y1650238D01*
G01X23027390Y1707388D02*
G01X23044662Y1724660D01*
G01X23056092Y1730248D01*
G01X23073110Y1730248D01*
G01X23084540Y1724660D01*
G01X23090382Y1707388D01*
G01X23090382Y1650238D01*
G01X23206714Y1770380D02*
G01X23206714Y1650238D01*
G01X23206714Y1713230D02*
G01X23195284Y1724660D01*
G01X23183854Y1730248D01*
G01X23166836Y1730248D01*
G01X23155406Y1724660D01*
G01X23143976Y1713230D01*
G01X23138134Y1695958D01*
G01X23138134Y1684528D01*
G01X23143976Y1667510D01*
G01X23155406Y1656080D01*
G01X23166836Y1650238D01*
G01X23183854Y1650238D01*
G01X23195284Y1656080D01*
G01X23206714Y1667510D01*
G01X24626211Y1770380D02*
G01X24626211Y1650238D01*
G01X24586079Y1770380D02*
G01X24666089Y1770380D01*
G01X24742543Y1730248D02*
G01X24731113Y1724660D01*
G01X24719683Y1713230D01*
G01X24713841Y1695958D01*
G01X24713841Y1684528D01*
G01X24719683Y1667510D01*
G01X24731113Y1656080D01*
G01X24742543Y1650238D01*
G01X24759561Y1650238D01*
G01X24770991Y1656080D01*
G01X24782421Y1667510D01*
G01X24788263Y1684528D01*
G01X24788263Y1695958D01*
G01X24782421Y1713230D01*
G01X24770991Y1724660D01*
G01X24759561Y1730248D01*
G01X24742543Y1730248D01*
G01X24836015Y1730248D02*
G01X24836015Y1610360D01*
G01X24836015Y1713230D02*
G01X24847445Y1724660D01*
G01X24858875Y1730248D01*
G01X24876147Y1730248D01*
G01X24887577Y1724660D01*
G01X24899007Y1713230D01*
G01X24904595Y1695958D01*
G01X24904595Y1684528D01*
G01X24899007Y1667510D01*
G01X24887577Y1656080D01*
G01X24876147Y1650238D01*
G01X24858875Y1650238D01*
G01X24847445Y1656080D01*
G01X24836015Y1667510D01*
G01X25080363Y1770380D02*
G01X25080363Y1650238D01*
G01X25080363Y1650238D02*
G01X25148943Y1650238D01*
G01X25265275Y1730248D02*
G01X25265275Y1650238D01*
G01X25265275Y1713230D02*
G01X25253845Y1724660D01*
G01X25242415Y1730248D01*
G01X25225397Y1730248D01*
G01X25213967Y1724660D01*
G01X25202537Y1713230D01*
G01X25196695Y1695958D01*
G01X25196695Y1684528D01*
G01X25202537Y1667510D01*
G01X25213967Y1656080D01*
G01X25225397Y1650238D01*
G01X25242415Y1650238D01*
G01X25253845Y1656080D01*
G01X25265275Y1667510D01*
G01X25318869Y1730248D02*
G01X25353159Y1650238D01*
G01X25387449Y1730248D02*
G01X25353159Y1650238D01*
G01X25341729Y1627378D01*
G01X25330299Y1615948D01*
G01X25318869Y1610360D01*
G01X25313027Y1610360D01*
G01X25435201Y1695958D02*
G01X25503781Y1695958D01*
G01X25503781Y1707388D01*
G01X25498193Y1718818D01*
G01X25492351Y1724660D01*
G01X25480921Y1730248D01*
G01X25463903Y1730248D01*
G01X25452473Y1724660D01*
G01X25441043Y1713230D01*
G01X25435201Y1695958D01*
G01X25435201Y1684528D01*
G01X25441043Y1667510D01*
G01X25452473Y1656080D01*
G01X25463903Y1650238D01*
G01X25480921Y1650238D01*
G01X25492351Y1656080D01*
G01X25503781Y1667510D01*
G01X25551533Y1730248D02*
G01X25551533Y1650238D01*
G01X25551533Y1695958D02*
G01X25557375Y1713230D01*
G01X25568805Y1724660D01*
G01X25580235Y1730248D01*
G01X25597253Y1730248D01*
G01X25645005Y1701800D02*
G01X25747875Y1701800D01*
G01X25795627Y1770380D02*
G01X25795627Y1650238D01*
G01X25795627Y1770380D02*
G01X25847189Y1770380D01*
G01X25864207Y1764538D01*
G01X25870049Y1758950D01*
G01X25875637Y1747520D01*
G01X25875637Y1736090D01*
G01X25870049Y1724660D01*
G01X25864207Y1718818D01*
G01X25847189Y1713230D01*
G01X25795627Y1713230D02*
G01X25847189Y1713230D01*
G01X25864207Y1707388D01*
G01X25870049Y1701800D01*
G01X25875637Y1690370D01*
G01X25875637Y1673098D01*
G01X25870049Y1661668D01*
G01X25864207Y1656080D01*
G01X25847189Y1650238D01*
G01X25795627Y1650238D01*
G01X25952091Y1730248D02*
G01X25940661Y1724660D01*
G01X25929231Y1713230D01*
G01X25923389Y1695958D01*
G01X25923389Y1684528D01*
G01X25929231Y1667510D01*
G01X25940661Y1656080D01*
G01X25952091Y1650238D01*
G01X25969109Y1650238D01*
G01X25980539Y1656080D01*
G01X25991969Y1667510D01*
G01X25997811Y1684528D01*
G01X25997811Y1695958D01*
G01X25991969Y1713230D01*
G01X25980539Y1724660D01*
G01X25969109Y1730248D01*
G01X25952091Y1730248D01*
G01X26062835Y1770380D02*
G01X26062835Y1673098D01*
G01X26068423Y1656080D01*
G01X26079853Y1650238D01*
G01X26091283Y1650238D01*
G01X26045563Y1730248D02*
G01X26085695Y1730248D01*
G01X26156307Y1770380D02*
G01X26156307Y1673098D01*
G01X26161895Y1656080D01*
G01X26173325Y1650238D01*
G01X26184755Y1650238D01*
G01X26139035Y1730248D02*
G01X26179167Y1730248D01*
G01X26261209Y1730248D02*
G01X26249779Y1724660D01*
G01X26238349Y1713230D01*
G01X26232507Y1695958D01*
G01X26232507Y1684528D01*
G01X26238349Y1667510D01*
G01X26249779Y1656080D01*
G01X26261209Y1650238D01*
G01X26278227Y1650238D01*
G01X26289657Y1656080D01*
G01X26301087Y1667510D01*
G01X26306929Y1684528D01*
G01X26306929Y1695958D01*
G01X26301087Y1713230D01*
G01X26289657Y1724660D01*
G01X26278227Y1730248D01*
G01X26261209Y1730248D01*
G01X26354681Y1730248D02*
G01X26354681Y1650238D01*
G01X26354681Y1707388D02*
G01X26371953Y1724660D01*
G01X26383383Y1730248D01*
G01X26400401Y1730248D01*
G01X26411831Y1724660D01*
G01X26417673Y1707388D01*
G01X26417673Y1650238D01*
G01X26417673Y1707388D02*
G01X26434691Y1724660D01*
G01X26446121Y1730248D01*
G01X26463393Y1730248D01*
G01X26474823Y1724660D01*
G01X26480411Y1707388D01*
G01X26480411Y1650238D01*
G01X26656179Y1770380D02*
G01X26656179Y1650238D01*
G01X26656179Y1650238D02*
G01X26724759Y1650238D01*
G01X26841091Y1730248D02*
G01X26841091Y1650238D01*
G01X26841091Y1713230D02*
G01X26829661Y1724660D01*
G01X26818231Y1730248D01*
G01X26801213Y1730248D01*
G01X26789783Y1724660D01*
G01X26778353Y1713230D01*
G01X26772511Y1695958D01*
G01X26772511Y1684528D01*
G01X26778353Y1667510D01*
G01X26789783Y1656080D01*
G01X26801213Y1650238D01*
G01X26818231Y1650238D01*
G01X26829661Y1656080D01*
G01X26841091Y1667510D01*
G01X26894685Y1730248D02*
G01X26928975Y1650238D01*
G01X26963265Y1730248D02*
G01X26928975Y1650238D01*
G01X26917545Y1627378D01*
G01X26906115Y1615948D01*
G01X26894685Y1610360D01*
G01X26888843Y1610360D01*
G01X27011017Y1695958D02*
G01X27079597Y1695958D01*
G01X27079597Y1707388D01*
G01X27074009Y1718818D01*
G01X27068167Y1724660D01*
G01X27056737Y1730248D01*
G01X27039719Y1730248D01*
G01X27028289Y1724660D01*
G01X27016859Y1713230D01*
G01X27011017Y1695958D01*
G01X27011017Y1684528D01*
G01X27016859Y1667510D01*
G01X27028289Y1656080D01*
G01X27039719Y1650238D01*
G01X27056737Y1650238D01*
G01X27068167Y1656080D01*
G01X27079597Y1667510D01*
G01X27127349Y1730248D02*
G01X27127349Y1650238D01*
G01X27127349Y1695958D02*
G01X27133191Y1713230D01*
G01X27144621Y1724660D01*
G01X27156051Y1730248D01*
G01X27173069Y1730248D01*
G01X12888254Y1189809D02*
G01X12831104Y1189809D01*
G01X12825516Y1138247D01*
G01X12831104Y1144089D01*
G01X12848376Y1149677D01*
G01X12865394Y1149677D01*
G01X12882666Y1144089D01*
G01X12894096Y1132659D01*
G01X12899684Y1115387D01*
G01X12899684Y1103957D01*
G01X12894096Y1086939D01*
G01X12882666Y1075509D01*
G01X12865394Y1069667D01*
G01X12848376Y1069667D01*
G01X12831104Y1075509D01*
G01X12825516Y1081097D01*
G01X12819674Y1092527D01*
G01X14290987Y1189809D02*
G01X14233837Y1109799D01*
G01X14319689Y1109799D01*
G01X14290987Y1189809D02*
G01X14290987Y1069667D01*
G01X14378871Y1189809D02*
G01X14441863Y1189809D01*
G01X14407573Y1144089D01*
G01X14424591Y1144089D01*
G01X14436021Y1138247D01*
G01X14441863Y1132659D01*
G01X14447451Y1115387D01*
G01X14447451Y1103957D01*
G01X14441863Y1086939D01*
G01X14430433Y1075509D01*
G01X14413161Y1069667D01*
G01X14396143Y1069667D01*
G01X14378871Y1075509D01*
G01X14373283Y1081097D01*
G01X14367441Y1092527D01*
G01X14501045Y1098369D02*
G01X14495203Y1092527D01*
G01X14501045Y1086939D01*
G01X14506633Y1092527D01*
G01X14501045Y1098369D01*
G01X14565815Y1189809D02*
G01X14628807Y1189809D01*
G01X14594517Y1144089D01*
G01X14611535Y1144089D01*
G01X14622965Y1138247D01*
G01X14628807Y1132659D01*
G01X14634395Y1115387D01*
G01X14634395Y1103957D01*
G01X14628807Y1086939D01*
G01X14617377Y1075509D01*
G01X14600105Y1069667D01*
G01X14583087Y1069667D01*
G01X14565815Y1075509D01*
G01X14560227Y1081097D01*
G01X14554385Y1092527D01*
G01X14682147Y1149677D02*
G01X14745139Y1069667D01*
G01X14745139Y1149677D02*
G01X14682147Y1069667D01*
G01X14850041Y1189809D02*
G01X14792891Y1109799D01*
G01X14878743Y1109799D01*
G01X14850041Y1189809D02*
G01X14850041Y1069667D01*
G01X14937925Y1189809D02*
G01X15000917Y1189809D01*
G01X14966627Y1144089D01*
G01X14983645Y1144089D01*
G01X14995075Y1138247D01*
G01X15000917Y1132659D01*
G01X15006505Y1115387D01*
G01X15006505Y1103957D01*
G01X15000917Y1086939D01*
G01X14989487Y1075509D01*
G01X14972215Y1069667D01*
G01X14955197Y1069667D01*
G01X14937925Y1075509D01*
G01X14932337Y1081097D01*
G01X14926495Y1092527D01*
G01X15060099Y1098369D02*
G01X15054257Y1092527D01*
G01X15060099Y1086939D01*
G01X15065687Y1092527D01*
G01X15060099Y1098369D01*
G01X15124869Y1189809D02*
G01X15187861Y1189809D01*
G01X15153571Y1144089D01*
G01X15170589Y1144089D01*
G01X15182019Y1138247D01*
G01X15187861Y1132659D01*
G01X15193449Y1115387D01*
G01X15193449Y1103957D01*
G01X15187861Y1086939D01*
G01X15176431Y1075509D01*
G01X15159159Y1069667D01*
G01X15142141Y1069667D01*
G01X15124869Y1075509D01*
G01X15119281Y1081097D01*
G01X15113439Y1092527D01*
G01X15241201Y1149677D02*
G01X15241201Y1069667D01*
G01X15241201Y1126817D02*
G01X15258473Y1144089D01*
G01X15269903Y1149677D01*
G01X15286921Y1149677D01*
G01X15298351Y1144089D01*
G01X15304193Y1126817D01*
G01X15304193Y1069667D01*
G01X15304193Y1126817D02*
G01X15321211Y1144089D01*
G01X15332641Y1149677D01*
G01X15349913Y1149677D01*
G01X15361343Y1144089D01*
G01X15366931Y1126817D01*
G01X15366931Y1069667D01*
G01X15414683Y1189809D02*
G01X15420525Y1183967D01*
G01X15426113Y1189809D01*
G01X15420525Y1195397D01*
G01X15414683Y1189809D01*
G01X15420525Y1149677D02*
G01X15420525Y1069667D01*
G01X15473865Y1189809D02*
G01X15473865Y1069667D01*
G01X15561749Y1212669D02*
G01X15550319Y1201239D01*
G01X15538889Y1183967D01*
G01X15527459Y1161107D01*
G01X15521617Y1132659D01*
G01X15521617Y1109799D01*
G01X15527459Y1081097D01*
G01X15538889Y1058237D01*
G01X15550319Y1041219D01*
G01X15561749Y1029789D01*
G01X15609501Y1166949D02*
G01X15620931Y1172537D01*
G01X15638203Y1189809D01*
G01X15638203Y1069667D01*
G01X15691797Y1098369D02*
G01X15685955Y1092527D01*
G01X15691797Y1086939D01*
G01X15697385Y1092527D01*
G01X15691797Y1098369D01*
G01X15745137Y1166949D02*
G01X15756567Y1172537D01*
G01X15773839Y1189809D01*
G01X15773839Y1069667D01*
G01X15855881Y1189809D02*
G01X15838863Y1183967D01*
G01X15827433Y1166949D01*
G01X15821591Y1138247D01*
G01X15821591Y1121229D01*
G01X15827433Y1092527D01*
G01X15838863Y1075509D01*
G01X15855881Y1069667D01*
G01X15867311Y1069667D01*
G01X15884583Y1075509D01*
G01X15896013Y1092527D01*
G01X15901601Y1121229D01*
G01X15901601Y1138247D01*
G01X15896013Y1166949D01*
G01X15884583Y1183967D01*
G01X15867311Y1189809D01*
G01X15855881Y1189809D01*
G01X15983643Y1189809D02*
G01X15966625Y1183967D01*
G01X15955195Y1166949D01*
G01X15949353Y1138247D01*
G01X15949353Y1121229D01*
G01X15955195Y1092527D01*
G01X15966625Y1075509D01*
G01X15983643Y1069667D01*
G01X15995073Y1069667D01*
G01X16012345Y1075509D01*
G01X16023775Y1092527D01*
G01X16029363Y1121229D01*
G01X16029363Y1138247D01*
G01X16023775Y1166949D01*
G01X16012345Y1183967D01*
G01X15995073Y1189809D01*
G01X15983643Y1189809D01*
G01X16077115Y1149677D02*
G01X16140107Y1069667D01*
G01X16140107Y1149677D02*
G01X16077115Y1069667D01*
G01X16187859Y1166949D02*
G01X16199289Y1172537D01*
G01X16216561Y1189809D01*
G01X16216561Y1069667D01*
G01X16270155Y1098369D02*
G01X16264313Y1092527D01*
G01X16270155Y1086939D01*
G01X16275743Y1092527D01*
G01X16270155Y1098369D01*
G01X16323495Y1166949D02*
G01X16334925Y1172537D01*
G01X16352197Y1189809D01*
G01X16352197Y1069667D01*
G01X16434239Y1189809D02*
G01X16417221Y1183967D01*
G01X16405791Y1166949D01*
G01X16399949Y1138247D01*
G01X16399949Y1121229D01*
G01X16405791Y1092527D01*
G01X16417221Y1075509D01*
G01X16434239Y1069667D01*
G01X16445669Y1069667D01*
G01X16462941Y1075509D01*
G01X16474371Y1092527D01*
G01X16479959Y1121229D01*
G01X16479959Y1138247D01*
G01X16474371Y1166949D01*
G01X16462941Y1183967D01*
G01X16445669Y1189809D01*
G01X16434239Y1189809D01*
G01X16562001Y1189809D02*
G01X16544983Y1183967D01*
G01X16533553Y1166949D01*
G01X16527711Y1138247D01*
G01X16527711Y1121229D01*
G01X16533553Y1092527D01*
G01X16544983Y1075509D01*
G01X16562001Y1069667D01*
G01X16573431Y1069667D01*
G01X16590703Y1075509D01*
G01X16602133Y1092527D01*
G01X16607721Y1121229D01*
G01X16607721Y1138247D01*
G01X16602133Y1166949D01*
G01X16590703Y1183967D01*
G01X16573431Y1189809D01*
G01X16562001Y1189809D01*
G01X16655473Y1149677D02*
G01X16655473Y1069667D01*
G01X16655473Y1126817D02*
G01X16672745Y1144089D01*
G01X16684175Y1149677D01*
G01X16701193Y1149677D01*
G01X16712623Y1144089D01*
G01X16718465Y1126817D01*
G01X16718465Y1069667D01*
G01X16718465Y1126817D02*
G01X16735483Y1144089D01*
G01X16746913Y1149677D01*
G01X16764185Y1149677D01*
G01X16775615Y1144089D01*
G01X16781203Y1126817D01*
G01X16781203Y1069667D01*
G01X16828955Y1149677D02*
G01X16828955Y1069667D01*
G01X16828955Y1126817D02*
G01X16846227Y1144089D01*
G01X16857657Y1149677D01*
G01X16874675Y1149677D01*
G01X16886105Y1144089D01*
G01X16891947Y1126817D01*
G01X16891947Y1069667D01*
G01X16891947Y1126817D02*
G01X16908965Y1144089D01*
G01X16920395Y1149677D01*
G01X16937667Y1149677D01*
G01X16949097Y1144089D01*
G01X16954685Y1126817D01*
G01X16954685Y1069667D01*
G01X17002437Y1212669D02*
G01X17013867Y1201239D01*
G01X17025297Y1183967D01*
G01X17036727Y1161107D01*
G01X17042569Y1132659D01*
G01X17042569Y1109799D01*
G01X17036727Y1081097D01*
G01X17025297Y1058237D01*
G01X17013867Y1041219D01*
G01X17002437Y1029789D01*
G01X18104943Y1189809D02*
G01X18104943Y1069667D01*
G01X18104943Y1189809D02*
G01X18156505Y1189809D01*
G01X18173523Y1183967D01*
G01X18179365Y1178379D01*
G01X18184953Y1166949D01*
G01X18184953Y1149677D01*
G01X18179365Y1138247D01*
G01X18173523Y1132659D01*
G01X18156505Y1126817D01*
G01X18104943Y1126817D01*
G01X18272837Y1189809D02*
G01X18272837Y1069667D01*
G01X18232705Y1189809D02*
G01X18312715Y1189809D01*
G01X18360467Y1189809D02*
G01X18360467Y1069667D01*
G01X18440477Y1189809D02*
G01X18440477Y1069667D01*
G01X18360467Y1132659D02*
G01X18440477Y1132659D01*
G01X19566350Y1189809D02*
G01X19566350Y1069667D01*
G01X19566350Y1189809D02*
G01X19617912Y1189809D01*
G01X19634930Y1183967D01*
G01X19640772Y1178379D01*
G01X19646360Y1166949D01*
G01X19646360Y1155519D01*
G01X19640772Y1144089D01*
G01X19634930Y1138247D01*
G01X19617912Y1132659D01*
G01X19566350Y1132659D01*
G01X19606482Y1132659D02*
G01X19646360Y1069667D01*
G01X19722814Y1149677D02*
G01X19711384Y1144089D01*
G01X19699954Y1132659D01*
G01X19694112Y1115387D01*
G01X19694112Y1103957D01*
G01X19699954Y1086939D01*
G01X19711384Y1075509D01*
G01X19722814Y1069667D01*
G01X19739832Y1069667D01*
G01X19751262Y1075509D01*
G01X19762692Y1086939D01*
G01X19768534Y1103957D01*
G01X19768534Y1115387D01*
G01X19762692Y1132659D01*
G01X19751262Y1144089D01*
G01X19739832Y1149677D01*
G01X19722814Y1149677D01*
G01X19816286Y1149677D02*
G01X19816286Y1092527D01*
G01X19822128Y1075509D01*
G01X19833558Y1069667D01*
G01X19850576Y1069667D01*
G01X19862006Y1075509D01*
G01X19879278Y1092527D01*
G01X19879278Y1149677D02*
G01X19879278Y1069667D01*
G01X19927030Y1149677D02*
G01X19927030Y1069667D01*
G01X19927030Y1126817D02*
G01X19944302Y1144089D01*
G01X19955732Y1149677D01*
G01X19972750Y1149677D01*
G01X19984180Y1144089D01*
G01X19990022Y1126817D01*
G01X19990022Y1069667D01*
G01X20106354Y1189809D02*
G01X20106354Y1069667D01*
G01X20106354Y1132659D02*
G01X20094924Y1144089D01*
G01X20083494Y1149677D01*
G01X20066476Y1149677D01*
G01X20055046Y1144089D01*
G01X20043616Y1132659D01*
G01X20037774Y1115387D01*
G01X20037774Y1103957D01*
G01X20043616Y1086939D01*
G01X20055046Y1075509D01*
G01X20066476Y1069667D01*
G01X20083494Y1069667D01*
G01X20094924Y1075509D01*
G01X20106354Y1086939D01*
G01X20997531Y1189809D02*
G01X20997531Y1069667D01*
G01X20997531Y1189809D02*
G01X21049093Y1189809D01*
G01X21066111Y1183967D01*
G01X21071953Y1178379D01*
G01X21077541Y1166949D01*
G01X21077541Y1149677D01*
G01X21071953Y1138247D01*
G01X21066111Y1132659D01*
G01X21049093Y1126817D01*
G01X20997531Y1126817D01*
G01X21193873Y1149677D02*
G01X21193873Y1069667D01*
G01X21193873Y1132659D02*
G01X21182443Y1144089D01*
G01X21171013Y1149677D01*
G01X21153995Y1149677D01*
G01X21142565Y1144089D01*
G01X21131135Y1132659D01*
G01X21125293Y1115387D01*
G01X21125293Y1103957D01*
G01X21131135Y1086939D01*
G01X21142565Y1075509D01*
G01X21153995Y1069667D01*
G01X21171013Y1069667D01*
G01X21182443Y1075509D01*
G01X21193873Y1086939D01*
G01X21310205Y1189809D02*
G01X21310205Y1069667D01*
G01X21310205Y1132659D02*
G01X21298775Y1144089D01*
G01X21287345Y1149677D01*
G01X21270327Y1149677D01*
G01X21258897Y1144089D01*
G01X21247467Y1132659D01*
G01X21241625Y1115387D01*
G01X21241625Y1103957D01*
G01X21247467Y1086939D01*
G01X21258897Y1075509D01*
G01X21270327Y1069667D01*
G01X21287345Y1069667D01*
G01X21298775Y1075509D01*
G01X21310205Y1086939D01*
G01X22706842Y1212669D02*
G01X22695412Y1201239D01*
G01X22683982Y1183967D01*
G01X22672552Y1161107D01*
G01X22666710Y1132659D01*
G01X22666710Y1109799D01*
G01X22672552Y1081097D01*
G01X22683982Y1058237D01*
G01X22695412Y1041219D01*
G01X22706842Y1029789D01*
G01X22754594Y1189809D02*
G01X22754594Y1069667D01*
G01X22754594Y1189809D02*
G01X22800314Y1069667D01*
G01X22846034Y1189809D02*
G01X22800314Y1069667D01*
G01X22846034Y1189809D02*
G01X22846034Y1069667D01*
G01X22893786Y1189809D02*
G01X22899628Y1183967D01*
G01X22905216Y1189809D01*
G01X22899628Y1195397D01*
G01X22893786Y1189809D01*
G01X22899628Y1149677D02*
G01X22899628Y1069667D01*
G01X22952968Y1149677D02*
G01X23015960Y1069667D01*
G01X23015960Y1149677D02*
G01X22952968Y1069667D01*
G01X23063712Y1115387D02*
G01X23132292Y1115387D01*
G01X23132292Y1126817D01*
G01X23126704Y1138247D01*
G01X23120862Y1144089D01*
G01X23109432Y1149677D01*
G01X23092414Y1149677D01*
G01X23080984Y1144089D01*
G01X23069554Y1132659D01*
G01X23063712Y1115387D01*
G01X23063712Y1103957D01*
G01X23069554Y1086939D01*
G01X23080984Y1075509D01*
G01X23092414Y1069667D01*
G01X23109432Y1069667D01*
G01X23120862Y1075509D01*
G01X23132292Y1086939D01*
G01X23248624Y1189809D02*
G01X23248624Y1069667D01*
G01X23248624Y1132659D02*
G01X23237194Y1144089D01*
G01X23225764Y1149677D01*
G01X23208746Y1149677D01*
G01X23197316Y1144089D01*
G01X23185886Y1132659D01*
G01X23180044Y1115387D01*
G01X23180044Y1103957D01*
G01X23185886Y1086939D01*
G01X23197316Y1075509D01*
G01X23208746Y1069667D01*
G01X23225764Y1069667D01*
G01X23237194Y1075509D01*
G01X23248624Y1086939D01*
G01X23296376Y1212669D02*
G01X23307806Y1201239D01*
G01X23319236Y1183967D01*
G01X23330666Y1161107D01*
G01X23336508Y1132659D01*
G01X23336508Y1109799D01*
G01X23330666Y1081097D01*
G01X23319236Y1058237D01*
G01X23307806Y1041219D01*
G01X23296376Y1029789D01*
G01X24626211Y1189809D02*
G01X24626211Y1069667D01*
G01X24586079Y1189809D02*
G01X24666089Y1189809D01*
G01X24742543Y1149677D02*
G01X24731113Y1144089D01*
G01X24719683Y1132659D01*
G01X24713841Y1115387D01*
G01X24713841Y1103957D01*
G01X24719683Y1086939D01*
G01X24731113Y1075509D01*
G01X24742543Y1069667D01*
G01X24759561Y1069667D01*
G01X24770991Y1075509D01*
G01X24782421Y1086939D01*
G01X24788263Y1103957D01*
G01X24788263Y1115387D01*
G01X24782421Y1132659D01*
G01X24770991Y1144089D01*
G01X24759561Y1149677D01*
G01X24742543Y1149677D01*
G01X24836015Y1149677D02*
G01X24836015Y1029789D01*
G01X24836015Y1132659D02*
G01X24847445Y1144089D01*
G01X24858875Y1149677D01*
G01X24876147Y1149677D01*
G01X24887577Y1144089D01*
G01X24899007Y1132659D01*
G01X24904595Y1115387D01*
G01X24904595Y1103957D01*
G01X24899007Y1086939D01*
G01X24887577Y1075509D01*
G01X24876147Y1069667D01*
G01X24858875Y1069667D01*
G01X24847445Y1075509D01*
G01X24836015Y1086939D01*
G01X25080363Y1189809D02*
G01X25080363Y1069667D01*
G01X25080363Y1069667D02*
G01X25148943Y1069667D01*
G01X25265275Y1149677D02*
G01X25265275Y1069667D01*
G01X25265275Y1132659D02*
G01X25253845Y1144089D01*
G01X25242415Y1149677D01*
G01X25225397Y1149677D01*
G01X25213967Y1144089D01*
G01X25202537Y1132659D01*
G01X25196695Y1115387D01*
G01X25196695Y1103957D01*
G01X25202537Y1086939D01*
G01X25213967Y1075509D01*
G01X25225397Y1069667D01*
G01X25242415Y1069667D01*
G01X25253845Y1075509D01*
G01X25265275Y1086939D01*
G01X25318869Y1149677D02*
G01X25353159Y1069667D01*
G01X25387449Y1149677D02*
G01X25353159Y1069667D01*
G01X25341729Y1046807D01*
G01X25330299Y1035377D01*
G01X25318869Y1029789D01*
G01X25313027Y1029789D01*
G01X25435201Y1115387D02*
G01X25503781Y1115387D01*
G01X25503781Y1126817D01*
G01X25498193Y1138247D01*
G01X25492351Y1144089D01*
G01X25480921Y1149677D01*
G01X25463903Y1149677D01*
G01X25452473Y1144089D01*
G01X25441043Y1132659D01*
G01X25435201Y1115387D01*
G01X25435201Y1103957D01*
G01X25441043Y1086939D01*
G01X25452473Y1075509D01*
G01X25463903Y1069667D01*
G01X25480921Y1069667D01*
G01X25492351Y1075509D01*
G01X25503781Y1086939D01*
G01X25551533Y1149677D02*
G01X25551533Y1069667D01*
G01X25551533Y1115387D02*
G01X25557375Y1132659D01*
G01X25568805Y1144089D01*
G01X25580235Y1149677D01*
G01X25597253Y1149677D01*
G01X25645005Y1121229D02*
G01X25747875Y1121229D01*
G01X25795627Y1189809D02*
G01X25795627Y1069667D01*
G01X25795627Y1189809D02*
G01X25847189Y1189809D01*
G01X25864207Y1183967D01*
G01X25870049Y1178379D01*
G01X25875637Y1166949D01*
G01X25875637Y1155519D01*
G01X25870049Y1144089D01*
G01X25864207Y1138247D01*
G01X25847189Y1132659D01*
G01X25795627Y1132659D02*
G01X25847189Y1132659D01*
G01X25864207Y1126817D01*
G01X25870049Y1121229D01*
G01X25875637Y1109799D01*
G01X25875637Y1092527D01*
G01X25870049Y1081097D01*
G01X25864207Y1075509D01*
G01X25847189Y1069667D01*
G01X25795627Y1069667D01*
G01X25952091Y1149677D02*
G01X25940661Y1144089D01*
G01X25929231Y1132659D01*
G01X25923389Y1115387D01*
G01X25923389Y1103957D01*
G01X25929231Y1086939D01*
G01X25940661Y1075509D01*
G01X25952091Y1069667D01*
G01X25969109Y1069667D01*
G01X25980539Y1075509D01*
G01X25991969Y1086939D01*
G01X25997811Y1103957D01*
G01X25997811Y1115387D01*
G01X25991969Y1132659D01*
G01X25980539Y1144089D01*
G01X25969109Y1149677D01*
G01X25952091Y1149677D01*
G01X26062835Y1189809D02*
G01X26062835Y1092527D01*
G01X26068423Y1075509D01*
G01X26079853Y1069667D01*
G01X26091283Y1069667D01*
G01X26045563Y1149677D02*
G01X26085695Y1149677D01*
G01X26156307Y1189809D02*
G01X26156307Y1092527D01*
G01X26161895Y1075509D01*
G01X26173325Y1069667D01*
G01X26184755Y1069667D01*
G01X26139035Y1149677D02*
G01X26179167Y1149677D01*
G01X26261209Y1149677D02*
G01X26249779Y1144089D01*
G01X26238349Y1132659D01*
G01X26232507Y1115387D01*
G01X26232507Y1103957D01*
G01X26238349Y1086939D01*
G01X26249779Y1075509D01*
G01X26261209Y1069667D01*
G01X26278227Y1069667D01*
G01X26289657Y1075509D01*
G01X26301087Y1086939D01*
G01X26306929Y1103957D01*
G01X26306929Y1115387D01*
G01X26301087Y1132659D01*
G01X26289657Y1144089D01*
G01X26278227Y1149677D01*
G01X26261209Y1149677D01*
G01X26354681Y1149677D02*
G01X26354681Y1069667D01*
G01X26354681Y1126817D02*
G01X26371953Y1144089D01*
G01X26383383Y1149677D01*
G01X26400401Y1149677D01*
G01X26411831Y1144089D01*
G01X26417673Y1126817D01*
G01X26417673Y1069667D01*
G01X26417673Y1126817D02*
G01X26434691Y1144089D01*
G01X26446121Y1149677D01*
G01X26463393Y1149677D01*
G01X26474823Y1144089D01*
G01X26480411Y1126817D01*
G01X26480411Y1069667D01*
G01X26656179Y1189809D02*
G01X26656179Y1069667D01*
G01X26656179Y1069667D02*
G01X26724759Y1069667D01*
G01X26841091Y1149677D02*
G01X26841091Y1069667D01*
G01X26841091Y1132659D02*
G01X26829661Y1144089D01*
G01X26818231Y1149677D01*
G01X26801213Y1149677D01*
G01X26789783Y1144089D01*
G01X26778353Y1132659D01*
G01X26772511Y1115387D01*
G01X26772511Y1103957D01*
G01X26778353Y1086939D01*
G01X26789783Y1075509D01*
G01X26801213Y1069667D01*
G01X26818231Y1069667D01*
G01X26829661Y1075509D01*
G01X26841091Y1086939D01*
G01X26894685Y1149677D02*
G01X26928975Y1069667D01*
G01X26963265Y1149677D02*
G01X26928975Y1069667D01*
G01X26917545Y1046807D01*
G01X26906115Y1035377D01*
G01X26894685Y1029789D01*
G01X26888843Y1029789D01*
G01X27011017Y1115387D02*
G01X27079597Y1115387D01*
G01X27079597Y1126817D01*
G01X27074009Y1138247D01*
G01X27068167Y1144089D01*
G01X27056737Y1149677D01*
G01X27039719Y1149677D01*
G01X27028289Y1144089D01*
G01X27016859Y1132659D01*
G01X27011017Y1115387D01*
G01X27011017Y1103957D01*
G01X27016859Y1086939D01*
G01X27028289Y1075509D01*
G01X27039719Y1069667D01*
G01X27056737Y1069667D01*
G01X27068167Y1075509D01*
G01X27079597Y1086939D01*
G01X27127349Y1149677D02*
G01X27127349Y1069667D01*
G01X27127349Y1115387D02*
G01X27133191Y1132659D01*
G01X27144621Y1144089D01*
G01X27156051Y1149677D01*
G01X27173069Y1149677D01*
G01X12848376Y609237D02*
G01X12831104Y603395D01*
G01X12825516Y591965D01*
G01X12825516Y580535D01*
G01X12831104Y569105D01*
G01X12842534Y563517D01*
G01X12865394Y557675D01*
G01X12882666Y552087D01*
G01X12894096Y540657D01*
G01X12899684Y529227D01*
G01X12899684Y511955D01*
G01X12894096Y500525D01*
G01X12888254Y494937D01*
G01X12871236Y489095D01*
G01X12848376Y489095D01*
G01X12831104Y494937D01*
G01X12825516Y500525D01*
G01X12819674Y511955D01*
G01X12819674Y529227D01*
G01X12825516Y540657D01*
G01X12836946Y552087D01*
G01X12853964Y557675D01*
G01X12876824Y563517D01*
G01X12888254Y569105D01*
G01X12894096Y580535D01*
G01X12894096Y591965D01*
G01X12888254Y603395D01*
G01X12871236Y609237D01*
G01X12848376Y609237D01*
G01X14302417Y591965D02*
G01X14296829Y603395D01*
G01X14279557Y609237D01*
G01X14268127Y609237D01*
G01X14251109Y603395D01*
G01X14239679Y586377D01*
G01X14233837Y557675D01*
G01X14233837Y529227D01*
G01X14239679Y506367D01*
G01X14251109Y494937D01*
G01X14268127Y489095D01*
G01X14273969Y489095D01*
G01X14290987Y494937D01*
G01X14302417Y506367D01*
G01X14308259Y523385D01*
G01X14308259Y529227D01*
G01X14302417Y546245D01*
G01X14290987Y557675D01*
G01X14273969Y563517D01*
G01X14268127Y563517D01*
G01X14251109Y557675D01*
G01X14239679Y546245D01*
G01X14233837Y529227D01*
G01X14367441Y609237D02*
G01X14430433Y609237D01*
G01X14396143Y563517D01*
G01X14413161Y563517D01*
G01X14424591Y557675D01*
G01X14430433Y552087D01*
G01X14436021Y534815D01*
G01X14436021Y523385D01*
G01X14430433Y506367D01*
G01X14419003Y494937D01*
G01X14401731Y489095D01*
G01X14384713Y489095D01*
G01X14367441Y494937D01*
G01X14361853Y500525D01*
G01X14356011Y511955D01*
G01X14489615Y517797D02*
G01X14483773Y511955D01*
G01X14489615Y506367D01*
G01X14495203Y511955D01*
G01X14489615Y517797D01*
G01X14577245Y609237D02*
G01X14560227Y603395D01*
G01X14548797Y586377D01*
G01X14542955Y557675D01*
G01X14542955Y540657D01*
G01X14548797Y511955D01*
G01X14560227Y494937D01*
G01X14577245Y489095D01*
G01X14588675Y489095D01*
G01X14605947Y494937D01*
G01X14617377Y511955D01*
G01X14622965Y540657D01*
G01X14622965Y557675D01*
G01X14617377Y586377D01*
G01X14605947Y603395D01*
G01X14588675Y609237D01*
G01X14577245Y609237D01*
G01X14670717Y569105D02*
G01X14733709Y489095D01*
G01X14733709Y569105D02*
G01X14670717Y489095D01*
G01X14850041Y591965D02*
G01X14844453Y603395D01*
G01X14827181Y609237D01*
G01X14815751Y609237D01*
G01X14798733Y603395D01*
G01X14787303Y586377D01*
G01X14781461Y557675D01*
G01X14781461Y529227D01*
G01X14787303Y506367D01*
G01X14798733Y494937D01*
G01X14815751Y489095D01*
G01X14821593Y489095D01*
G01X14838611Y494937D01*
G01X14850041Y506367D01*
G01X14855883Y523385D01*
G01X14855883Y529227D01*
G01X14850041Y546245D01*
G01X14838611Y557675D01*
G01X14821593Y563517D01*
G01X14815751Y563517D01*
G01X14798733Y557675D01*
G01X14787303Y546245D01*
G01X14781461Y529227D01*
G01X14915065Y609237D02*
G01X14978057Y609237D01*
G01X14943767Y563517D01*
G01X14960785Y563517D01*
G01X14972215Y557675D01*
G01X14978057Y552087D01*
G01X14983645Y534815D01*
G01X14983645Y523385D01*
G01X14978057Y506367D01*
G01X14966627Y494937D01*
G01X14949355Y489095D01*
G01X14932337Y489095D01*
G01X14915065Y494937D01*
G01X14909477Y500525D01*
G01X14903635Y511955D01*
G01X15037239Y517797D02*
G01X15031397Y511955D01*
G01X15037239Y506367D01*
G01X15042827Y511955D01*
G01X15037239Y517797D01*
G01X15124869Y609237D02*
G01X15107851Y603395D01*
G01X15096421Y586377D01*
G01X15090579Y557675D01*
G01X15090579Y540657D01*
G01X15096421Y511955D01*
G01X15107851Y494937D01*
G01X15124869Y489095D01*
G01X15136299Y489095D01*
G01X15153571Y494937D01*
G01X15165001Y511955D01*
G01X15170589Y540657D01*
G01X15170589Y557675D01*
G01X15165001Y586377D01*
G01X15153571Y603395D01*
G01X15136299Y609237D01*
G01X15124869Y609237D01*
G01X15218341Y569105D02*
G01X15218341Y489095D01*
G01X15218341Y546245D02*
G01X15235613Y563517D01*
G01X15247043Y569105D01*
G01X15264061Y569105D01*
G01X15275491Y563517D01*
G01X15281333Y546245D01*
G01X15281333Y489095D01*
G01X15281333Y546245D02*
G01X15298351Y563517D01*
G01X15309781Y569105D01*
G01X15327053Y569105D01*
G01X15338483Y563517D01*
G01X15344071Y546245D01*
G01X15344071Y489095D01*
G01X15391823Y609237D02*
G01X15397665Y603395D01*
G01X15403253Y609237D01*
G01X15397665Y614825D01*
G01X15391823Y609237D01*
G01X15397665Y569105D02*
G01X15397665Y489095D01*
G01X15451005Y609237D02*
G01X15451005Y489095D01*
G01X15538889Y632097D02*
G01X15527459Y620667D01*
G01X15516029Y603395D01*
G01X15504599Y580535D01*
G01X15498757Y552087D01*
G01X15498757Y529227D01*
G01X15504599Y500525D01*
G01X15516029Y477665D01*
G01X15527459Y460647D01*
G01X15538889Y449217D01*
G01X15586641Y586377D02*
G01X15598071Y591965D01*
G01X15615343Y609237D01*
G01X15615343Y489095D01*
G01X15668937Y517797D02*
G01X15663095Y511955D01*
G01X15668937Y506367D01*
G01X15674525Y511955D01*
G01X15668937Y517797D01*
G01X15790857Y591965D02*
G01X15785269Y603395D01*
G01X15767997Y609237D01*
G01X15756567Y609237D01*
G01X15739549Y603395D01*
G01X15728119Y586377D01*
G01X15722277Y557675D01*
G01X15722277Y529227D01*
G01X15728119Y506367D01*
G01X15739549Y494937D01*
G01X15756567Y489095D01*
G01X15762409Y489095D01*
G01X15779427Y494937D01*
G01X15790857Y506367D01*
G01X15796699Y523385D01*
G01X15796699Y529227D01*
G01X15790857Y546245D01*
G01X15779427Y557675D01*
G01X15762409Y563517D01*
G01X15756567Y563517D01*
G01X15739549Y557675D01*
G01X15728119Y546245D01*
G01X15722277Y529227D01*
G01X15878741Y609237D02*
G01X15861723Y603395D01*
G01X15850293Y586377D01*
G01X15844451Y557675D01*
G01X15844451Y540657D01*
G01X15850293Y511955D01*
G01X15861723Y494937D01*
G01X15878741Y489095D01*
G01X15890171Y489095D01*
G01X15907443Y494937D01*
G01X15918873Y511955D01*
G01X15924461Y540657D01*
G01X15924461Y557675D01*
G01X15918873Y586377D01*
G01X15907443Y603395D01*
G01X15890171Y609237D01*
G01X15878741Y609237D01*
G01X16006503Y609237D02*
G01X15989485Y603395D01*
G01X15978055Y586377D01*
G01X15972213Y557675D01*
G01X15972213Y540657D01*
G01X15978055Y511955D01*
G01X15989485Y494937D01*
G01X16006503Y489095D01*
G01X16017933Y489095D01*
G01X16035205Y494937D01*
G01X16046635Y511955D01*
G01X16052223Y540657D01*
G01X16052223Y557675D01*
G01X16046635Y586377D01*
G01X16035205Y603395D01*
G01X16017933Y609237D01*
G01X16006503Y609237D01*
G01X16099975Y569105D02*
G01X16162967Y489095D01*
G01X16162967Y569105D02*
G01X16099975Y489095D01*
G01X16210719Y586377D02*
G01X16222149Y591965D01*
G01X16239421Y609237D01*
G01X16239421Y489095D01*
G01X16293015Y517797D02*
G01X16287173Y511955D01*
G01X16293015Y506367D01*
G01X16298603Y511955D01*
G01X16293015Y517797D01*
G01X16414935Y591965D02*
G01X16409347Y603395D01*
G01X16392075Y609237D01*
G01X16380645Y609237D01*
G01X16363627Y603395D01*
G01X16352197Y586377D01*
G01X16346355Y557675D01*
G01X16346355Y529227D01*
G01X16352197Y506367D01*
G01X16363627Y494937D01*
G01X16380645Y489095D01*
G01X16386487Y489095D01*
G01X16403505Y494937D01*
G01X16414935Y506367D01*
G01X16420777Y523385D01*
G01X16420777Y529227D01*
G01X16414935Y546245D01*
G01X16403505Y557675D01*
G01X16386487Y563517D01*
G01X16380645Y563517D01*
G01X16363627Y557675D01*
G01X16352197Y546245D01*
G01X16346355Y529227D01*
G01X16502819Y609237D02*
G01X16485801Y603395D01*
G01X16474371Y586377D01*
G01X16468529Y557675D01*
G01X16468529Y540657D01*
G01X16474371Y511955D01*
G01X16485801Y494937D01*
G01X16502819Y489095D01*
G01X16514249Y489095D01*
G01X16531521Y494937D01*
G01X16542951Y511955D01*
G01X16548539Y540657D01*
G01X16548539Y557675D01*
G01X16542951Y586377D01*
G01X16531521Y603395D01*
G01X16514249Y609237D01*
G01X16502819Y609237D01*
G01X16630581Y609237D02*
G01X16613563Y603395D01*
G01X16602133Y586377D01*
G01X16596291Y557675D01*
G01X16596291Y540657D01*
G01X16602133Y511955D01*
G01X16613563Y494937D01*
G01X16630581Y489095D01*
G01X16642011Y489095D01*
G01X16659283Y494937D01*
G01X16670713Y511955D01*
G01X16676301Y540657D01*
G01X16676301Y557675D01*
G01X16670713Y586377D01*
G01X16659283Y603395D01*
G01X16642011Y609237D01*
G01X16630581Y609237D01*
G01X16724053Y569105D02*
G01X16724053Y489095D01*
G01X16724053Y546245D02*
G01X16741325Y563517D01*
G01X16752755Y569105D01*
G01X16769773Y569105D01*
G01X16781203Y563517D01*
G01X16787045Y546245D01*
G01X16787045Y489095D01*
G01X16787045Y546245D02*
G01X16804063Y563517D01*
G01X16815493Y569105D01*
G01X16832765Y569105D01*
G01X16844195Y563517D01*
G01X16849783Y546245D01*
G01X16849783Y489095D01*
G01X16897535Y569105D02*
G01X16897535Y489095D01*
G01X16897535Y546245D02*
G01X16914807Y563517D01*
G01X16926237Y569105D01*
G01X16943255Y569105D01*
G01X16954685Y563517D01*
G01X16960527Y546245D01*
G01X16960527Y489095D01*
G01X16960527Y546245D02*
G01X16977545Y563517D01*
G01X16988975Y569105D01*
G01X17006247Y569105D01*
G01X17017677Y563517D01*
G01X17023265Y546245D01*
G01X17023265Y489095D01*
G01X17071017Y632097D02*
G01X17082447Y620667D01*
G01X17093877Y603395D01*
G01X17105307Y580535D01*
G01X17111149Y552087D01*
G01X17111149Y529227D01*
G01X17105307Y500525D01*
G01X17093877Y477665D01*
G01X17082447Y460647D01*
G01X17071017Y449217D01*
G01X18104943Y609237D02*
G01X18104943Y489095D01*
G01X18104943Y609237D02*
G01X18156505Y609237D01*
G01X18173523Y603395D01*
G01X18179365Y597807D01*
G01X18184953Y586377D01*
G01X18184953Y569105D01*
G01X18179365Y557675D01*
G01X18173523Y552087D01*
G01X18156505Y546245D01*
G01X18104943Y546245D01*
G01X18272837Y609237D02*
G01X18272837Y489095D01*
G01X18232705Y609237D02*
G01X18312715Y609237D01*
G01X18360467Y609237D02*
G01X18360467Y489095D01*
G01X18440477Y609237D02*
G01X18440477Y489095D01*
G01X18360467Y552087D02*
G01X18440477Y552087D01*
G01X19566350Y609237D02*
G01X19566350Y489095D01*
G01X19566350Y609237D02*
G01X19617912Y609237D01*
G01X19634930Y603395D01*
G01X19640772Y597807D01*
G01X19646360Y586377D01*
G01X19646360Y574947D01*
G01X19640772Y563517D01*
G01X19634930Y557675D01*
G01X19617912Y552087D01*
G01X19566350Y552087D01*
G01X19606482Y552087D02*
G01X19646360Y489095D01*
G01X19722814Y569105D02*
G01X19711384Y563517D01*
G01X19699954Y552087D01*
G01X19694112Y534815D01*
G01X19694112Y523385D01*
G01X19699954Y506367D01*
G01X19711384Y494937D01*
G01X19722814Y489095D01*
G01X19739832Y489095D01*
G01X19751262Y494937D01*
G01X19762692Y506367D01*
G01X19768534Y523385D01*
G01X19768534Y534815D01*
G01X19762692Y552087D01*
G01X19751262Y563517D01*
G01X19739832Y569105D01*
G01X19722814Y569105D01*
G01X19816286Y569105D02*
G01X19816286Y511955D01*
G01X19822128Y494937D01*
G01X19833558Y489095D01*
G01X19850576Y489095D01*
G01X19862006Y494937D01*
G01X19879278Y511955D01*
G01X19879278Y569105D02*
G01X19879278Y489095D01*
G01X19927030Y569105D02*
G01X19927030Y489095D01*
G01X19927030Y546245D02*
G01X19944302Y563517D01*
G01X19955732Y569105D01*
G01X19972750Y569105D01*
G01X19984180Y563517D01*
G01X19990022Y546245D01*
G01X19990022Y489095D01*
G01X20106354Y609237D02*
G01X20106354Y489095D01*
G01X20106354Y552087D02*
G01X20094924Y563517D01*
G01X20083494Y569105D01*
G01X20066476Y569105D01*
G01X20055046Y563517D01*
G01X20043616Y552087D01*
G01X20037774Y534815D01*
G01X20037774Y523385D01*
G01X20043616Y506367D01*
G01X20055046Y494937D01*
G01X20066476Y489095D01*
G01X20083494Y489095D01*
G01X20094924Y494937D01*
G01X20106354Y506367D01*
G01X20997531Y609237D02*
G01X20997531Y489095D01*
G01X20997531Y609237D02*
G01X21049093Y609237D01*
G01X21066111Y603395D01*
G01X21071953Y597807D01*
G01X21077541Y586377D01*
G01X21077541Y569105D01*
G01X21071953Y557675D01*
G01X21066111Y552087D01*
G01X21049093Y546245D01*
G01X20997531Y546245D01*
G01X21193873Y569105D02*
G01X21193873Y489095D01*
G01X21193873Y552087D02*
G01X21182443Y563517D01*
G01X21171013Y569105D01*
G01X21153995Y569105D01*
G01X21142565Y563517D01*
G01X21131135Y552087D01*
G01X21125293Y534815D01*
G01X21125293Y523385D01*
G01X21131135Y506367D01*
G01X21142565Y494937D01*
G01X21153995Y489095D01*
G01X21171013Y489095D01*
G01X21182443Y494937D01*
G01X21193873Y506367D01*
G01X21310205Y609237D02*
G01X21310205Y489095D01*
G01X21310205Y552087D02*
G01X21298775Y563517D01*
G01X21287345Y569105D01*
G01X21270327Y569105D01*
G01X21258897Y563517D01*
G01X21247467Y552087D01*
G01X21241625Y534815D01*
G01X21241625Y523385D01*
G01X21247467Y506367D01*
G01X21258897Y494937D01*
G01X21270327Y489095D01*
G01X21287345Y489095D01*
G01X21298775Y494937D01*
G01X21310205Y506367D01*
G01X22666710Y609237D02*
G01X22666710Y489095D01*
G01X22666710Y609237D02*
G01X22718272Y609237D01*
G01X22735290Y603395D01*
G01X22741132Y597807D01*
G01X22746720Y586377D01*
G01X22746720Y574947D01*
G01X22741132Y563517D01*
G01X22735290Y557675D01*
G01X22718272Y552087D01*
G01X22666710Y552087D01*
G01X22706842Y552087D02*
G01X22746720Y489095D01*
G01X22823174Y569105D02*
G01X22811744Y563517D01*
G01X22800314Y552087D01*
G01X22794472Y534815D01*
G01X22794472Y523385D01*
G01X22800314Y506367D01*
G01X22811744Y494937D01*
G01X22823174Y489095D01*
G01X22840192Y489095D01*
G01X22851622Y494937D01*
G01X22863052Y506367D01*
G01X22868894Y523385D01*
G01X22868894Y534815D01*
G01X22863052Y552087D01*
G01X22851622Y563517D01*
G01X22840192Y569105D01*
G01X22823174Y569105D01*
G01X22916646Y569105D02*
G01X22916646Y511955D01*
G01X22922488Y494937D01*
G01X22933918Y489095D01*
G01X22950936Y489095D01*
G01X22962366Y494937D01*
G01X22979638Y511955D01*
G01X22979638Y569105D02*
G01X22979638Y489095D01*
G01X23027390Y569105D02*
G01X23027390Y489095D01*
G01X23027390Y546245D02*
G01X23044662Y563517D01*
G01X23056092Y569105D01*
G01X23073110Y569105D01*
G01X23084540Y563517D01*
G01X23090382Y546245D01*
G01X23090382Y489095D01*
G01X23206714Y609237D02*
G01X23206714Y489095D01*
G01X23206714Y552087D02*
G01X23195284Y563517D01*
G01X23183854Y569105D01*
G01X23166836Y569105D01*
G01X23155406Y563517D01*
G01X23143976Y552087D01*
G01X23138134Y534815D01*
G01X23138134Y523385D01*
G01X23143976Y506367D01*
G01X23155406Y494937D01*
G01X23166836Y489095D01*
G01X23183854Y489095D01*
G01X23195284Y494937D01*
G01X23206714Y506367D01*
G01X24626211Y609237D02*
G01X24626211Y489095D01*
G01X24586079Y609237D02*
G01X24666089Y609237D01*
G01X24742543Y569105D02*
G01X24731113Y563517D01*
G01X24719683Y552087D01*
G01X24713841Y534815D01*
G01X24713841Y523385D01*
G01X24719683Y506367D01*
G01X24731113Y494937D01*
G01X24742543Y489095D01*
G01X24759561Y489095D01*
G01X24770991Y494937D01*
G01X24782421Y506367D01*
G01X24788263Y523385D01*
G01X24788263Y534815D01*
G01X24782421Y552087D01*
G01X24770991Y563517D01*
G01X24759561Y569105D01*
G01X24742543Y569105D01*
G01X24836015Y569105D02*
G01X24836015Y449217D01*
G01X24836015Y552087D02*
G01X24847445Y563517D01*
G01X24858875Y569105D01*
G01X24876147Y569105D01*
G01X24887577Y563517D01*
G01X24899007Y552087D01*
G01X24904595Y534815D01*
G01X24904595Y523385D01*
G01X24899007Y506367D01*
G01X24887577Y494937D01*
G01X24876147Y489095D01*
G01X24858875Y489095D01*
G01X24847445Y494937D01*
G01X24836015Y506367D01*
G01X25080363Y609237D02*
G01X25080363Y489095D01*
G01X25080363Y489095D02*
G01X25148943Y489095D01*
G01X25265275Y569105D02*
G01X25265275Y489095D01*
G01X25265275Y552087D02*
G01X25253845Y563517D01*
G01X25242415Y569105D01*
G01X25225397Y569105D01*
G01X25213967Y563517D01*
G01X25202537Y552087D01*
G01X25196695Y534815D01*
G01X25196695Y523385D01*
G01X25202537Y506367D01*
G01X25213967Y494937D01*
G01X25225397Y489095D01*
G01X25242415Y489095D01*
G01X25253845Y494937D01*
G01X25265275Y506367D01*
G01X25318869Y569105D02*
G01X25353159Y489095D01*
G01X25387449Y569105D02*
G01X25353159Y489095D01*
G01X25341729Y466235D01*
G01X25330299Y454805D01*
G01X25318869Y449217D01*
G01X25313027Y449217D01*
G01X25435201Y534815D02*
G01X25503781Y534815D01*
G01X25503781Y546245D01*
G01X25498193Y557675D01*
G01X25492351Y563517D01*
G01X25480921Y569105D01*
G01X25463903Y569105D01*
G01X25452473Y563517D01*
G01X25441043Y552087D01*
G01X25435201Y534815D01*
G01X25435201Y523385D01*
G01X25441043Y506367D01*
G01X25452473Y494937D01*
G01X25463903Y489095D01*
G01X25480921Y489095D01*
G01X25492351Y494937D01*
G01X25503781Y506367D01*
G01X25551533Y569105D02*
G01X25551533Y489095D01*
G01X25551533Y534815D02*
G01X25557375Y552087D01*
G01X25568805Y563517D01*
G01X25580235Y569105D01*
G01X25597253Y569105D01*
G01X25645005Y540657D02*
G01X25747875Y540657D01*
G01X25795627Y609237D02*
G01X25795627Y489095D01*
G01X25795627Y609237D02*
G01X25847189Y609237D01*
G01X25864207Y603395D01*
G01X25870049Y597807D01*
G01X25875637Y586377D01*
G01X25875637Y574947D01*
G01X25870049Y563517D01*
G01X25864207Y557675D01*
G01X25847189Y552087D01*
G01X25795627Y552087D02*
G01X25847189Y552087D01*
G01X25864207Y546245D01*
G01X25870049Y540657D01*
G01X25875637Y529227D01*
G01X25875637Y511955D01*
G01X25870049Y500525D01*
G01X25864207Y494937D01*
G01X25847189Y489095D01*
G01X25795627Y489095D01*
G01X25952091Y569105D02*
G01X25940661Y563517D01*
G01X25929231Y552087D01*
G01X25923389Y534815D01*
G01X25923389Y523385D01*
G01X25929231Y506367D01*
G01X25940661Y494937D01*
G01X25952091Y489095D01*
G01X25969109Y489095D01*
G01X25980539Y494937D01*
G01X25991969Y506367D01*
G01X25997811Y523385D01*
G01X25997811Y534815D01*
G01X25991969Y552087D01*
G01X25980539Y563517D01*
G01X25969109Y569105D01*
G01X25952091Y569105D01*
G01X26062835Y609237D02*
G01X26062835Y511955D01*
G01X26068423Y494937D01*
G01X26079853Y489095D01*
G01X26091283Y489095D01*
G01X26045563Y569105D02*
G01X26085695Y569105D01*
G01X26156307Y609237D02*
G01X26156307Y511955D01*
G01X26161895Y494937D01*
G01X26173325Y489095D01*
G01X26184755Y489095D01*
G01X26139035Y569105D02*
G01X26179167Y569105D01*
G01X26261209Y569105D02*
G01X26249779Y563517D01*
G01X26238349Y552087D01*
G01X26232507Y534815D01*
G01X26232507Y523385D01*
G01X26238349Y506367D01*
G01X26249779Y494937D01*
G01X26261209Y489095D01*
G01X26278227Y489095D01*
G01X26289657Y494937D01*
G01X26301087Y506367D01*
G01X26306929Y523385D01*
G01X26306929Y534815D01*
G01X26301087Y552087D01*
G01X26289657Y563517D01*
G01X26278227Y569105D01*
G01X26261209Y569105D01*
G01X26354681Y569105D02*
G01X26354681Y489095D01*
G01X26354681Y546245D02*
G01X26371953Y563517D01*
G01X26383383Y569105D01*
G01X26400401Y569105D01*
G01X26411831Y563517D01*
G01X26417673Y546245D01*
G01X26417673Y489095D01*
G01X26417673Y546245D02*
G01X26434691Y563517D01*
G01X26446121Y569105D01*
G01X26463393Y569105D01*
G01X26474823Y563517D01*
G01X26480411Y546245D01*
G01X26480411Y489095D01*
G01X26656179Y609237D02*
G01X26656179Y489095D01*
G01X26656179Y489095D02*
G01X26724759Y489095D01*
G01X26841091Y569105D02*
G01X26841091Y489095D01*
G01X26841091Y552087D02*
G01X26829661Y563517D01*
G01X26818231Y569105D01*
G01X26801213Y569105D01*
G01X26789783Y563517D01*
G01X26778353Y552087D01*
G01X26772511Y534815D01*
G01X26772511Y523385D01*
G01X26778353Y506367D01*
G01X26789783Y494937D01*
G01X26801213Y489095D01*
G01X26818231Y489095D01*
G01X26829661Y494937D01*
G01X26841091Y506367D01*
G01X26894685Y569105D02*
G01X26928975Y489095D01*
G01X26963265Y569105D02*
G01X26928975Y489095D01*
G01X26917545Y466235D01*
G01X26906115Y454805D01*
G01X26894685Y449217D01*
G01X26888843Y449217D01*
G01X27011017Y534815D02*
G01X27079597Y534815D01*
G01X27079597Y546245D01*
G01X27074009Y557675D01*
G01X27068167Y563517D01*
G01X27056737Y569105D01*
G01X27039719Y569105D01*
G01X27028289Y563517D01*
G01X27016859Y552087D01*
G01X27011017Y534815D01*
G01X27011017Y523385D01*
G01X27016859Y506367D01*
G01X27028289Y494937D01*
G01X27039719Y489095D01*
G01X27056737Y489095D01*
G01X27068167Y494937D01*
G01X27079597Y506367D01*
G01X27127349Y569105D02*
G01X27127349Y489095D01*
G01X27127349Y534815D02*
G01X27133191Y552087D01*
G01X27144621Y563517D01*
G01X27156051Y569105D01*
G01X27173069Y569105D01*
G01X12876824Y28666D02*
G01X12819674Y-51344D01*
G01X12905526Y-51344D01*
G01X12876824Y28666D02*
G01X12876824Y-91476D01*
G01X13010428Y28666D02*
G01X12953278Y-51344D01*
G01X13039130Y-51344D01*
G01X13010428Y28666D02*
G01X13010428Y-91476D01*
G01X14290987Y28666D02*
G01X14233837Y-51344D01*
G01X14319689Y-51344D01*
G01X14290987Y28666D02*
G01X14290987Y-91476D01*
G01X14447451Y28666D02*
G01X14390301Y-91476D01*
G01X14367441Y28666D02*
G01X14447451Y28666D01*
G01X14501045Y-62774D02*
G01X14495203Y-68616D01*
G01X14501045Y-74204D01*
G01X14506633Y-68616D01*
G01X14501045Y-62774D01*
G01X14560227Y-36D02*
G01X14560227Y5806D01*
G01X14565815Y17236D01*
G01X14571657Y22824D01*
G01X14583087Y28666D01*
G01X14605947Y28666D01*
G01X14617377Y22824D01*
G01X14622965Y17236D01*
G01X14628807Y5806D01*
G01X14628807Y-5624D01*
G01X14622965Y-17054D01*
G01X14611535Y-34326D01*
G01X14554385Y-91476D01*
G01X14634395Y-91476D01*
G01X14682147Y-11466D02*
G01X14745139Y-91476D01*
G01X14745139Y-11466D02*
G01X14682147Y-91476D01*
G01X14850041Y28666D02*
G01X14792891Y-51344D01*
G01X14878743Y-51344D01*
G01X14850041Y28666D02*
G01X14850041Y-91476D01*
G01X15006505Y28666D02*
G01X14949355Y-91476D01*
G01X14926495Y28666D02*
G01X15006505Y28666D01*
G01X15060099Y-62774D02*
G01X15054257Y-68616D01*
G01X15060099Y-74204D01*
G01X15065687Y-68616D01*
G01X15060099Y-62774D01*
G01X15119281Y-36D02*
G01X15119281Y5806D01*
G01X15124869Y17236D01*
G01X15130711Y22824D01*
G01X15142141Y28666D01*
G01X15165001Y28666D01*
G01X15176431Y22824D01*
G01X15182019Y17236D01*
G01X15187861Y5806D01*
G01X15187861Y-5624D01*
G01X15182019Y-17054D01*
G01X15170589Y-34326D01*
G01X15113439Y-91476D01*
G01X15193449Y-91476D01*
G01X15241201Y-11466D02*
G01X15241201Y-91476D01*
G01X15241201Y-34326D02*
G01X15258473Y-17054D01*
G01X15269903Y-11466D01*
G01X15286921Y-11466D01*
G01X15298351Y-17054D01*
G01X15304193Y-34326D01*
G01X15304193Y-91476D01*
G01X15304193Y-34326D02*
G01X15321211Y-17054D01*
G01X15332641Y-11466D01*
G01X15349913Y-11466D01*
G01X15361343Y-17054D01*
G01X15366931Y-34326D01*
G01X15366931Y-91476D01*
G01X15414683Y28666D02*
G01X15420525Y22824D01*
G01X15426113Y28666D01*
G01X15420525Y34254D01*
G01X15414683Y28666D01*
G01X15420525Y-11466D02*
G01X15420525Y-91476D01*
G01X15473865Y28666D02*
G01X15473865Y-91476D01*
G01X15561749Y51526D02*
G01X15550319Y40096D01*
G01X15538889Y22824D01*
G01X15527459Y-36D01*
G01X15521617Y-28484D01*
G01X15521617Y-51344D01*
G01X15527459Y-80046D01*
G01X15538889Y-102906D01*
G01X15550319Y-119924D01*
G01X15561749Y-131354D01*
G01X15609501Y5806D02*
G01X15620931Y11394D01*
G01X15638203Y28666D01*
G01X15638203Y-91476D01*
G01X15691797Y-62774D02*
G01X15685955Y-68616D01*
G01X15691797Y-74204D01*
G01X15697385Y-68616D01*
G01X15691797Y-62774D01*
G01X15750979Y-36D02*
G01X15750979Y5806D01*
G01X15756567Y17236D01*
G01X15762409Y22824D01*
G01X15773839Y28666D01*
G01X15796699Y28666D01*
G01X15808129Y22824D01*
G01X15813717Y17236D01*
G01X15819559Y5806D01*
G01X15819559Y-5624D01*
G01X15813717Y-17054D01*
G01X15802287Y-34326D01*
G01X15745137Y-91476D01*
G01X15825147Y-91476D01*
G01X15907189Y28666D02*
G01X15890171Y22824D01*
G01X15878741Y5806D01*
G01X15872899Y-22896D01*
G01X15872899Y-39914D01*
G01X15878741Y-68616D01*
G01X15890171Y-85634D01*
G01X15907189Y-91476D01*
G01X15918619Y-91476D01*
G01X15935891Y-85634D01*
G01X15947321Y-68616D01*
G01X15952909Y-39914D01*
G01X15952909Y-22896D01*
G01X15947321Y5806D01*
G01X15935891Y22824D01*
G01X15918619Y28666D01*
G01X15907189Y28666D01*
G01X16034951Y28666D02*
G01X16017933Y22824D01*
G01X16006503Y5806D01*
G01X16000661Y-22896D01*
G01X16000661Y-39914D01*
G01X16006503Y-68616D01*
G01X16017933Y-85634D01*
G01X16034951Y-91476D01*
G01X16046381Y-91476D01*
G01X16063653Y-85634D01*
G01X16075083Y-68616D01*
G01X16080671Y-39914D01*
G01X16080671Y-22896D01*
G01X16075083Y5806D01*
G01X16063653Y22824D01*
G01X16046381Y28666D01*
G01X16034951Y28666D01*
G01X16128423Y-11466D02*
G01X16191415Y-91476D01*
G01X16191415Y-11466D02*
G01X16128423Y-91476D01*
G01X16239167Y5806D02*
G01X16250597Y11394D01*
G01X16267869Y28666D01*
G01X16267869Y-91476D01*
G01X16321463Y-62774D02*
G01X16315621Y-68616D01*
G01X16321463Y-74204D01*
G01X16327051Y-68616D01*
G01X16321463Y-62774D01*
G01X16380645Y-36D02*
G01X16380645Y5806D01*
G01X16386233Y17236D01*
G01X16392075Y22824D01*
G01X16403505Y28666D01*
G01X16426365Y28666D01*
G01X16437795Y22824D01*
G01X16443383Y17236D01*
G01X16449225Y5806D01*
G01X16449225Y-5624D01*
G01X16443383Y-17054D01*
G01X16431953Y-34326D01*
G01X16374803Y-91476D01*
G01X16454813Y-91476D01*
G01X16536855Y28666D02*
G01X16519837Y22824D01*
G01X16508407Y5806D01*
G01X16502565Y-22896D01*
G01X16502565Y-39914D01*
G01X16508407Y-68616D01*
G01X16519837Y-85634D01*
G01X16536855Y-91476D01*
G01X16548285Y-91476D01*
G01X16565557Y-85634D01*
G01X16576987Y-68616D01*
G01X16582575Y-39914D01*
G01X16582575Y-22896D01*
G01X16576987Y5806D01*
G01X16565557Y22824D01*
G01X16548285Y28666D01*
G01X16536855Y28666D01*
G01X16664617Y28666D02*
G01X16647599Y22824D01*
G01X16636169Y5806D01*
G01X16630327Y-22896D01*
G01X16630327Y-39914D01*
G01X16636169Y-68616D01*
G01X16647599Y-85634D01*
G01X16664617Y-91476D01*
G01X16676047Y-91476D01*
G01X16693319Y-85634D01*
G01X16704749Y-68616D01*
G01X16710337Y-39914D01*
G01X16710337Y-22896D01*
G01X16704749Y5806D01*
G01X16693319Y22824D01*
G01X16676047Y28666D01*
G01X16664617Y28666D01*
G01X16758089Y-11466D02*
G01X16758089Y-91476D01*
G01X16758089Y-34326D02*
G01X16775361Y-17054D01*
G01X16786791Y-11466D01*
G01X16803809Y-11466D01*
G01X16815239Y-17054D01*
G01X16821081Y-34326D01*
G01X16821081Y-91476D01*
G01X16821081Y-34326D02*
G01X16838099Y-17054D01*
G01X16849529Y-11466D01*
G01X16866801Y-11466D01*
G01X16878231Y-17054D01*
G01X16883819Y-34326D01*
G01X16883819Y-91476D01*
G01X16931571Y-11466D02*
G01X16931571Y-91476D01*
G01X16931571Y-34326D02*
G01X16948843Y-17054D01*
G01X16960273Y-11466D01*
G01X16977291Y-11466D01*
G01X16988721Y-17054D01*
G01X16994563Y-34326D01*
G01X16994563Y-91476D01*
G01X16994563Y-34326D02*
G01X17011581Y-17054D01*
G01X17023011Y-11466D01*
G01X17040283Y-11466D01*
G01X17051713Y-17054D01*
G01X17057301Y-34326D01*
G01X17057301Y-91476D01*
G01X17105053Y51526D02*
G01X17116483Y40096D01*
G01X17127913Y22824D01*
G01X17139343Y-36D01*
G01X17145185Y-28484D01*
G01X17145185Y-51344D01*
G01X17139343Y-80046D01*
G01X17127913Y-102906D01*
G01X17116483Y-119924D01*
G01X17105053Y-131354D01*
G01X18104943Y28666D02*
G01X18104943Y-91476D01*
G01X18104943Y28666D02*
G01X18156505Y28666D01*
G01X18173523Y22824D01*
G01X18179365Y17236D01*
G01X18184953Y5806D01*
G01X18184953Y-11466D01*
G01X18179365Y-22896D01*
G01X18173523Y-28484D01*
G01X18156505Y-34326D01*
G01X18104943Y-34326D01*
G01X18272837Y28666D02*
G01X18272837Y-91476D01*
G01X18232705Y28666D02*
G01X18312715Y28666D01*
G01X18360467Y28666D02*
G01X18360467Y-91476D01*
G01X18440477Y28666D02*
G01X18440477Y-91476D01*
G01X18360467Y-28484D02*
G01X18440477Y-28484D01*
G01X19566350Y28666D02*
G01X19566350Y-91476D01*
G01X19566350Y28666D02*
G01X19617912Y28666D01*
G01X19634930Y22824D01*
G01X19640772Y17236D01*
G01X19646360Y5806D01*
G01X19646360Y-5624D01*
G01X19640772Y-17054D01*
G01X19634930Y-22896D01*
G01X19617912Y-28484D01*
G01X19566350Y-28484D01*
G01X19606482Y-28484D02*
G01X19646360Y-91476D01*
G01X19722814Y-11466D02*
G01X19711384Y-17054D01*
G01X19699954Y-28484D01*
G01X19694112Y-45756D01*
G01X19694112Y-57186D01*
G01X19699954Y-74204D01*
G01X19711384Y-85634D01*
G01X19722814Y-91476D01*
G01X19739832Y-91476D01*
G01X19751262Y-85634D01*
G01X19762692Y-74204D01*
G01X19768534Y-57186D01*
G01X19768534Y-45756D01*
G01X19762692Y-28484D01*
G01X19751262Y-17054D01*
G01X19739832Y-11466D01*
G01X19722814Y-11466D01*
G01X19816286Y-11466D02*
G01X19816286Y-68616D01*
G01X19822128Y-85634D01*
G01X19833558Y-91476D01*
G01X19850576Y-91476D01*
G01X19862006Y-85634D01*
G01X19879278Y-68616D01*
G01X19879278Y-11466D02*
G01X19879278Y-91476D01*
G01X19927030Y-11466D02*
G01X19927030Y-91476D01*
G01X19927030Y-34326D02*
G01X19944302Y-17054D01*
G01X19955732Y-11466D01*
G01X19972750Y-11466D01*
G01X19984180Y-17054D01*
G01X19990022Y-34326D01*
G01X19990022Y-91476D01*
G01X20106354Y28666D02*
G01X20106354Y-91476D01*
G01X20106354Y-28484D02*
G01X20094924Y-17054D01*
G01X20083494Y-11466D01*
G01X20066476Y-11466D01*
G01X20055046Y-17054D01*
G01X20043616Y-28484D01*
G01X20037774Y-45756D01*
G01X20037774Y-57186D01*
G01X20043616Y-74204D01*
G01X20055046Y-85634D01*
G01X20066476Y-91476D01*
G01X20083494Y-91476D01*
G01X20094924Y-85634D01*
G01X20106354Y-74204D01*
G01X20997531Y28666D02*
G01X20997531Y-91476D01*
G01X20997531Y28666D02*
G01X21049093Y28666D01*
G01X21066111Y22824D01*
G01X21071953Y17236D01*
G01X21077541Y5806D01*
G01X21077541Y-11466D01*
G01X21071953Y-22896D01*
G01X21066111Y-28484D01*
G01X21049093Y-34326D01*
G01X20997531Y-34326D01*
G01X21193873Y-11466D02*
G01X21193873Y-91476D01*
G01X21193873Y-28484D02*
G01X21182443Y-17054D01*
G01X21171013Y-11466D01*
G01X21153995Y-11466D01*
G01X21142565Y-17054D01*
G01X21131135Y-28484D01*
G01X21125293Y-45756D01*
G01X21125293Y-57186D01*
G01X21131135Y-74204D01*
G01X21142565Y-85634D01*
G01X21153995Y-91476D01*
G01X21171013Y-91476D01*
G01X21182443Y-85634D01*
G01X21193873Y-74204D01*
G01X21310205Y28666D02*
G01X21310205Y-91476D01*
G01X21310205Y-28484D02*
G01X21298775Y-17054D01*
G01X21287345Y-11466D01*
G01X21270327Y-11466D01*
G01X21258897Y-17054D01*
G01X21247467Y-28484D01*
G01X21241625Y-45756D01*
G01X21241625Y-57186D01*
G01X21247467Y-74204D01*
G01X21258897Y-85634D01*
G01X21270327Y-91476D01*
G01X21287345Y-91476D01*
G01X21298775Y-85634D01*
G01X21310205Y-74204D01*
G01X22706842Y51526D02*
G01X22695412Y40096D01*
G01X22683982Y22824D01*
G01X22672552Y-36D01*
G01X22666710Y-28484D01*
G01X22666710Y-51344D01*
G01X22672552Y-80046D01*
G01X22683982Y-102906D01*
G01X22695412Y-119924D01*
G01X22706842Y-131354D01*
G01X22754594Y28666D02*
G01X22754594Y-91476D01*
G01X22754594Y28666D02*
G01X22800314Y-91476D01*
G01X22846034Y28666D02*
G01X22800314Y-91476D01*
G01X22846034Y28666D02*
G01X22846034Y-91476D01*
G01X22893786Y28666D02*
G01X22899628Y22824D01*
G01X22905216Y28666D01*
G01X22899628Y34254D01*
G01X22893786Y28666D01*
G01X22899628Y-11466D02*
G01X22899628Y-91476D01*
G01X22952968Y-11466D02*
G01X23015960Y-91476D01*
G01X23015960Y-11466D02*
G01X22952968Y-91476D01*
G01X23063712Y-45756D02*
G01X23132292Y-45756D01*
G01X23132292Y-34326D01*
G01X23126704Y-22896D01*
G01X23120862Y-17054D01*
G01X23109432Y-11466D01*
G01X23092414Y-11466D01*
G01X23080984Y-17054D01*
G01X23069554Y-28484D01*
G01X23063712Y-45756D01*
G01X23063712Y-57186D01*
G01X23069554Y-74204D01*
G01X23080984Y-85634D01*
G01X23092414Y-91476D01*
G01X23109432Y-91476D01*
G01X23120862Y-85634D01*
G01X23132292Y-74204D01*
G01X23248624Y28666D02*
G01X23248624Y-91476D01*
G01X23248624Y-28484D02*
G01X23237194Y-17054D01*
G01X23225764Y-11466D01*
G01X23208746Y-11466D01*
G01X23197316Y-17054D01*
G01X23185886Y-28484D01*
G01X23180044Y-45756D01*
G01X23180044Y-57186D01*
G01X23185886Y-74204D01*
G01X23197316Y-85634D01*
G01X23208746Y-91476D01*
G01X23225764Y-91476D01*
G01X23237194Y-85634D01*
G01X23248624Y-74204D01*
G01X23296376Y51526D02*
G01X23307806Y40096D01*
G01X23319236Y22824D01*
G01X23330666Y-36D01*
G01X23336508Y-28484D01*
G01X23336508Y-51344D01*
G01X23330666Y-80046D01*
G01X23319236Y-102906D01*
G01X23307806Y-119924D01*
G01X23296376Y-131354D01*
G01X24626211Y28666D02*
G01X24626211Y-91476D01*
G01X24586079Y28666D02*
G01X24666089Y28666D01*
G01X24742543Y-11466D02*
G01X24731113Y-17054D01*
G01X24719683Y-28484D01*
G01X24713841Y-45756D01*
G01X24713841Y-57186D01*
G01X24719683Y-74204D01*
G01X24731113Y-85634D01*
G01X24742543Y-91476D01*
G01X24759561Y-91476D01*
G01X24770991Y-85634D01*
G01X24782421Y-74204D01*
G01X24788263Y-57186D01*
G01X24788263Y-45756D01*
G01X24782421Y-28484D01*
G01X24770991Y-17054D01*
G01X24759561Y-11466D01*
G01X24742543Y-11466D01*
G01X24836015Y-11466D02*
G01X24836015Y-131354D01*
G01X24836015Y-28484D02*
G01X24847445Y-17054D01*
G01X24858875Y-11466D01*
G01X24876147Y-11466D01*
G01X24887577Y-17054D01*
G01X24899007Y-28484D01*
G01X24904595Y-45756D01*
G01X24904595Y-57186D01*
G01X24899007Y-74204D01*
G01X24887577Y-85634D01*
G01X24876147Y-91476D01*
G01X24858875Y-91476D01*
G01X24847445Y-85634D01*
G01X24836015Y-74204D01*
G01X25080363Y28666D02*
G01X25080363Y-91476D01*
G01X25080363Y-91476D02*
G01X25148943Y-91476D01*
G01X25265275Y-11466D02*
G01X25265275Y-91476D01*
G01X25265275Y-28484D02*
G01X25253845Y-17054D01*
G01X25242415Y-11466D01*
G01X25225397Y-11466D01*
G01X25213967Y-17054D01*
G01X25202537Y-28484D01*
G01X25196695Y-45756D01*
G01X25196695Y-57186D01*
G01X25202537Y-74204D01*
G01X25213967Y-85634D01*
G01X25225397Y-91476D01*
G01X25242415Y-91476D01*
G01X25253845Y-85634D01*
G01X25265275Y-74204D01*
G01X25318869Y-11466D02*
G01X25353159Y-91476D01*
G01X25387449Y-11466D02*
G01X25353159Y-91476D01*
G01X25341729Y-114336D01*
G01X25330299Y-125766D01*
G01X25318869Y-131354D01*
G01X25313027Y-131354D01*
G01X25435201Y-45756D02*
G01X25503781Y-45756D01*
G01X25503781Y-34326D01*
G01X25498193Y-22896D01*
G01X25492351Y-17054D01*
G01X25480921Y-11466D01*
G01X25463903Y-11466D01*
G01X25452473Y-17054D01*
G01X25441043Y-28484D01*
G01X25435201Y-45756D01*
G01X25435201Y-57186D01*
G01X25441043Y-74204D01*
G01X25452473Y-85634D01*
G01X25463903Y-91476D01*
G01X25480921Y-91476D01*
G01X25492351Y-85634D01*
G01X25503781Y-74204D01*
G01X25551533Y-11466D02*
G01X25551533Y-91476D01*
G01X25551533Y-45756D02*
G01X25557375Y-28484D01*
G01X25568805Y-17054D01*
G01X25580235Y-11466D01*
G01X25597253Y-11466D01*
G01X25645005Y-39914D02*
G01X25747875Y-39914D01*
G01X25795627Y28666D02*
G01X25795627Y-91476D01*
G01X25795627Y28666D02*
G01X25847189Y28666D01*
G01X25864207Y22824D01*
G01X25870049Y17236D01*
G01X25875637Y5806D01*
G01X25875637Y-5624D01*
G01X25870049Y-17054D01*
G01X25864207Y-22896D01*
G01X25847189Y-28484D01*
G01X25795627Y-28484D02*
G01X25847189Y-28484D01*
G01X25864207Y-34326D01*
G01X25870049Y-39914D01*
G01X25875637Y-51344D01*
G01X25875637Y-68616D01*
G01X25870049Y-80046D01*
G01X25864207Y-85634D01*
G01X25847189Y-91476D01*
G01X25795627Y-91476D01*
G01X25952091Y-11466D02*
G01X25940661Y-17054D01*
G01X25929231Y-28484D01*
G01X25923389Y-45756D01*
G01X25923389Y-57186D01*
G01X25929231Y-74204D01*
G01X25940661Y-85634D01*
G01X25952091Y-91476D01*
G01X25969109Y-91476D01*
G01X25980539Y-85634D01*
G01X25991969Y-74204D01*
G01X25997811Y-57186D01*
G01X25997811Y-45756D01*
G01X25991969Y-28484D01*
G01X25980539Y-17054D01*
G01X25969109Y-11466D01*
G01X25952091Y-11466D01*
G01X26062835Y28666D02*
G01X26062835Y-68616D01*
G01X26068423Y-85634D01*
G01X26079853Y-91476D01*
G01X26091283Y-91476D01*
G01X26045563Y-11466D02*
G01X26085695Y-11466D01*
G01X26156307Y28666D02*
G01X26156307Y-68616D01*
G01X26161895Y-85634D01*
G01X26173325Y-91476D01*
G01X26184755Y-91476D01*
G01X26139035Y-11466D02*
G01X26179167Y-11466D01*
G01X26261209Y-11466D02*
G01X26249779Y-17054D01*
G01X26238349Y-28484D01*
G01X26232507Y-45756D01*
G01X26232507Y-57186D01*
G01X26238349Y-74204D01*
G01X26249779Y-85634D01*
G01X26261209Y-91476D01*
G01X26278227Y-91476D01*
G01X26289657Y-85634D01*
G01X26301087Y-74204D01*
G01X26306929Y-57186D01*
G01X26306929Y-45756D01*
G01X26301087Y-28484D01*
G01X26289657Y-17054D01*
G01X26278227Y-11466D01*
G01X26261209Y-11466D01*
G01X26354681Y-11466D02*
G01X26354681Y-91476D01*
G01X26354681Y-34326D02*
G01X26371953Y-17054D01*
G01X26383383Y-11466D01*
G01X26400401Y-11466D01*
G01X26411831Y-17054D01*
G01X26417673Y-34326D01*
G01X26417673Y-91476D01*
G01X26417673Y-34326D02*
G01X26434691Y-17054D01*
G01X26446121Y-11466D01*
G01X26463393Y-11466D01*
G01X26474823Y-17054D01*
G01X26480411Y-34326D01*
G01X26480411Y-91476D01*
G01X26656179Y28666D02*
G01X26656179Y-91476D01*
G01X26656179Y-91476D02*
G01X26724759Y-91476D01*
G01X26841091Y-11466D02*
G01X26841091Y-91476D01*
G01X26841091Y-28484D02*
G01X26829661Y-17054D01*
G01X26818231Y-11466D01*
G01X26801213Y-11466D01*
G01X26789783Y-17054D01*
G01X26778353Y-28484D01*
G01X26772511Y-45756D01*
G01X26772511Y-57186D01*
G01X26778353Y-74204D01*
G01X26789783Y-85634D01*
G01X26801213Y-91476D01*
G01X26818231Y-91476D01*
G01X26829661Y-85634D01*
G01X26841091Y-74204D01*
G01X26894685Y-11466D02*
G01X26928975Y-91476D01*
G01X26963265Y-11466D02*
G01X26928975Y-91476D01*
G01X26917545Y-114336D01*
G01X26906115Y-125766D01*
G01X26894685Y-131354D01*
G01X26888843Y-131354D01*
G01X27011017Y-45756D02*
G01X27079597Y-45756D01*
G01X27079597Y-34326D01*
G01X27074009Y-22896D01*
G01X27068167Y-17054D01*
G01X27056737Y-11466D01*
G01X27039719Y-11466D01*
G01X27028289Y-17054D01*
G01X27016859Y-28484D01*
G01X27011017Y-45756D01*
G01X27011017Y-57186D01*
G01X27016859Y-74204D01*
G01X27028289Y-85634D01*
G01X27039719Y-91476D01*
G01X27056737Y-91476D01*
G01X27068167Y-85634D01*
G01X27079597Y-74204D01*
G01X27127349Y-11466D02*
G01X27127349Y-91476D01*
G01X27127349Y-45756D02*
G01X27133191Y-28484D01*
G01X27144621Y-17054D01*
G01X27156051Y-11466D01*
G01X27173069Y-11466D01*
G01X12888254Y-551906D02*
G01X12831104Y-551906D01*
G01X12825516Y-603468D01*
G01X12831104Y-597626D01*
G01X12848376Y-592038D01*
G01X12865394Y-592038D01*
G01X12882666Y-597626D01*
G01X12894096Y-609056D01*
G01X12899684Y-626328D01*
G01X12899684Y-637758D01*
G01X12894096Y-654776D01*
G01X12882666Y-666206D01*
G01X12865394Y-672048D01*
G01X12848376Y-672048D01*
G01X12831104Y-666206D01*
G01X12825516Y-660618D01*
G01X12819674Y-649188D01*
G01X12947436Y-574766D02*
G01X12958866Y-569178D01*
G01X12976138Y-551906D01*
G01X12976138Y-672048D01*
G01X14233837Y-574766D02*
G01X14245267Y-569178D01*
G01X14262539Y-551906D01*
G01X14262539Y-672048D01*
G01X14316133Y-580608D02*
G01X14316133Y-574766D01*
G01X14321721Y-563336D01*
G01X14327563Y-557748D01*
G01X14338993Y-551906D01*
G01X14361853Y-551906D01*
G01X14373283Y-557748D01*
G01X14378871Y-563336D01*
G01X14384713Y-574766D01*
G01X14384713Y-586196D01*
G01X14378871Y-597626D01*
G01X14367441Y-614898D01*
G01X14310291Y-672048D01*
G01X14390301Y-672048D01*
G01X14443895Y-643346D02*
G01X14438053Y-649188D01*
G01X14443895Y-654776D01*
G01X14449483Y-649188D01*
G01X14443895Y-643346D01*
G01X14531525Y-551906D02*
G01X14514507Y-557748D01*
G01X14503077Y-574766D01*
G01X14497235Y-603468D01*
G01X14497235Y-620486D01*
G01X14503077Y-649188D01*
G01X14514507Y-666206D01*
G01X14531525Y-672048D01*
G01X14542955Y-672048D01*
G01X14560227Y-666206D01*
G01X14571657Y-649188D01*
G01X14577245Y-620486D01*
G01X14577245Y-603468D01*
G01X14571657Y-574766D01*
G01X14560227Y-557748D01*
G01X14542955Y-551906D01*
G01X14531525Y-551906D01*
G01X14624997Y-592038D02*
G01X14624997Y-672048D01*
G01X14624997Y-614898D02*
G01X14642269Y-597626D01*
G01X14653699Y-592038D01*
G01X14670717Y-592038D01*
G01X14682147Y-597626D01*
G01X14687989Y-614898D01*
G01X14687989Y-672048D01*
G01X14687989Y-614898D02*
G01X14705007Y-597626D01*
G01X14716437Y-592038D01*
G01X14733709Y-592038D01*
G01X14745139Y-597626D01*
G01X14750727Y-614898D01*
G01X14750727Y-672048D01*
G01X14798479Y-551906D02*
G01X14804321Y-557748D01*
G01X14809909Y-551906D01*
G01X14804321Y-546318D01*
G01X14798479Y-551906D01*
G01X14804321Y-592038D02*
G01X14804321Y-672048D01*
G01X14857661Y-551906D02*
G01X14857661Y-672048D01*
G01X14945545Y-529046D02*
G01X14934115Y-540476D01*
G01X14922685Y-557748D01*
G01X14911255Y-580608D01*
G01X14905413Y-609056D01*
G01X14905413Y-631916D01*
G01X14911255Y-660618D01*
G01X14922685Y-683478D01*
G01X14934115Y-700496D01*
G01X14945545Y-711926D01*
G01X15027587Y-551906D02*
G01X15010569Y-557748D01*
G01X14999139Y-574766D01*
G01X14993297Y-603468D01*
G01X14993297Y-620486D01*
G01X14999139Y-649188D01*
G01X15010569Y-666206D01*
G01X15027587Y-672048D01*
G01X15039017Y-672048D01*
G01X15056289Y-666206D01*
G01X15067719Y-649188D01*
G01X15073307Y-620486D01*
G01X15073307Y-603468D01*
G01X15067719Y-574766D01*
G01X15056289Y-557748D01*
G01X15039017Y-551906D01*
G01X15027587Y-551906D01*
G01X15126901Y-643346D02*
G01X15121059Y-649188D01*
G01X15126901Y-654776D01*
G01X15132489Y-649188D01*
G01X15126901Y-643346D01*
G01X15191671Y-551906D02*
G01X15254663Y-551906D01*
G01X15220373Y-597626D01*
G01X15237391Y-597626D01*
G01X15248821Y-603468D01*
G01X15254663Y-609056D01*
G01X15260251Y-626328D01*
G01X15260251Y-637758D01*
G01X15254663Y-654776D01*
G01X15243233Y-666206D01*
G01X15225961Y-672048D01*
G01X15208943Y-672048D01*
G01X15191671Y-666206D01*
G01X15186083Y-660618D01*
G01X15180241Y-649188D01*
G01X15342293Y-551906D02*
G01X15325275Y-557748D01*
G01X15313845Y-574766D01*
G01X15308003Y-603468D01*
G01X15308003Y-620486D01*
G01X15313845Y-649188D01*
G01X15325275Y-666206D01*
G01X15342293Y-672048D01*
G01X15353723Y-672048D01*
G01X15370995Y-666206D01*
G01X15382425Y-649188D01*
G01X15388013Y-620486D01*
G01X15388013Y-603468D01*
G01X15382425Y-574766D01*
G01X15370995Y-557748D01*
G01X15353723Y-551906D01*
G01X15342293Y-551906D01*
G01X15504345Y-551906D02*
G01X15447195Y-551906D01*
G01X15441607Y-603468D01*
G01X15447195Y-597626D01*
G01X15464467Y-592038D01*
G01X15481485Y-592038D01*
G01X15498757Y-597626D01*
G01X15510187Y-609056D01*
G01X15515775Y-626328D01*
G01X15515775Y-637758D01*
G01X15510187Y-654776D01*
G01X15498757Y-666206D01*
G01X15481485Y-672048D01*
G01X15464467Y-672048D01*
G01X15447195Y-666206D01*
G01X15441607Y-660618D01*
G01X15435765Y-649188D01*
G01X15563527Y-592038D02*
G01X15563527Y-672048D01*
G01X15563527Y-614898D02*
G01X15580799Y-597626D01*
G01X15592229Y-592038D01*
G01X15609247Y-592038D01*
G01X15620677Y-597626D01*
G01X15626519Y-614898D01*
G01X15626519Y-672048D01*
G01X15626519Y-614898D02*
G01X15643537Y-597626D01*
G01X15654967Y-592038D01*
G01X15672239Y-592038D01*
G01X15683669Y-597626D01*
G01X15689257Y-614898D01*
G01X15689257Y-672048D01*
G01X15737009Y-592038D02*
G01X15737009Y-672048D01*
G01X15737009Y-614898D02*
G01X15754281Y-597626D01*
G01X15765711Y-592038D01*
G01X15782729Y-592038D01*
G01X15794159Y-597626D01*
G01X15800001Y-614898D01*
G01X15800001Y-672048D01*
G01X15800001Y-614898D02*
G01X15817019Y-597626D01*
G01X15828449Y-592038D01*
G01X15845721Y-592038D01*
G01X15857151Y-597626D01*
G01X15862739Y-614898D01*
G01X15862739Y-672048D01*
G01X15910491Y-529046D02*
G01X15921921Y-540476D01*
G01X15933351Y-557748D01*
G01X15944781Y-580608D01*
G01X15950623Y-609056D01*
G01X15950623Y-631916D01*
G01X15944781Y-660618D01*
G01X15933351Y-683478D01*
G01X15921921Y-700496D01*
G01X15910491Y-711926D01*
G01X18104943Y-551906D02*
G01X18104943Y-672048D01*
G01X18104943Y-551906D02*
G01X18156505Y-551906D01*
G01X18173523Y-557748D01*
G01X18179365Y-563336D01*
G01X18184953Y-574766D01*
G01X18184953Y-592038D01*
G01X18179365Y-603468D01*
G01X18173523Y-609056D01*
G01X18156505Y-614898D01*
G01X18104943Y-614898D01*
G01X18272837Y-551906D02*
G01X18272837Y-672048D01*
G01X18232705Y-551906D02*
G01X18312715Y-551906D01*
G01X18360467Y-551906D02*
G01X18360467Y-672048D01*
G01X18440477Y-551906D02*
G01X18440477Y-672048D01*
G01X18360467Y-609056D02*
G01X18440477Y-609056D01*
G01X19566350Y-551906D02*
G01X19566350Y-672048D01*
G01X19566350Y-551906D02*
G01X19617912Y-551906D01*
G01X19634930Y-557748D01*
G01X19640772Y-563336D01*
G01X19646360Y-574766D01*
G01X19646360Y-586196D01*
G01X19640772Y-597626D01*
G01X19634930Y-603468D01*
G01X19617912Y-609056D01*
G01X19566350Y-609056D01*
G01X19606482Y-609056D02*
G01X19646360Y-672048D01*
G01X19722814Y-592038D02*
G01X19711384Y-597626D01*
G01X19699954Y-609056D01*
G01X19694112Y-626328D01*
G01X19694112Y-637758D01*
G01X19699954Y-654776D01*
G01X19711384Y-666206D01*
G01X19722814Y-672048D01*
G01X19739832Y-672048D01*
G01X19751262Y-666206D01*
G01X19762692Y-654776D01*
G01X19768534Y-637758D01*
G01X19768534Y-626328D01*
G01X19762692Y-609056D01*
G01X19751262Y-597626D01*
G01X19739832Y-592038D01*
G01X19722814Y-592038D01*
G01X19816286Y-592038D02*
G01X19816286Y-649188D01*
G01X19822128Y-666206D01*
G01X19833558Y-672048D01*
G01X19850576Y-672048D01*
G01X19862006Y-666206D01*
G01X19879278Y-649188D01*
G01X19879278Y-592038D02*
G01X19879278Y-672048D01*
G01X19927030Y-592038D02*
G01X19927030Y-672048D01*
G01X19927030Y-614898D02*
G01X19944302Y-597626D01*
G01X19955732Y-592038D01*
G01X19972750Y-592038D01*
G01X19984180Y-597626D01*
G01X19990022Y-614898D01*
G01X19990022Y-672048D01*
G01X20106354Y-551906D02*
G01X20106354Y-672048D01*
G01X20106354Y-609056D02*
G01X20094924Y-597626D01*
G01X20083494Y-592038D01*
G01X20066476Y-592038D01*
G01X20055046Y-597626D01*
G01X20043616Y-609056D01*
G01X20037774Y-626328D01*
G01X20037774Y-637758D01*
G01X20043616Y-654776D01*
G01X20055046Y-666206D01*
G01X20066476Y-672048D01*
G01X20083494Y-672048D01*
G01X20094924Y-666206D01*
G01X20106354Y-654776D01*
G01X20997531Y-551906D02*
G01X21043251Y-672048D01*
G01X21088971Y-551906D02*
G01X21043251Y-672048D01*
G01X21136723Y-551906D02*
G01X21142565Y-557748D01*
G01X21148153Y-551906D01*
G01X21142565Y-546318D01*
G01X21136723Y-551906D01*
G01X21142565Y-592038D02*
G01X21142565Y-672048D01*
G01X21264485Y-592038D02*
G01X21264485Y-672048D01*
G01X21264485Y-609056D02*
G01X21253055Y-597626D01*
G01X21241625Y-592038D01*
G01X21224607Y-592038D01*
G01X21213177Y-597626D01*
G01X21201747Y-609056D01*
G01X21195905Y-626328D01*
G01X21195905Y-637758D01*
G01X21201747Y-654776D01*
G01X21213177Y-666206D01*
G01X21224607Y-672048D01*
G01X21241625Y-672048D01*
G01X21253055Y-666206D01*
G01X21264485Y-654776D01*
G01X24626211Y-551906D02*
G01X24626211Y-672048D01*
G01X24586079Y-551906D02*
G01X24666089Y-551906D01*
G01X24742543Y-592038D02*
G01X24731113Y-597626D01*
G01X24719683Y-609056D01*
G01X24713841Y-626328D01*
G01X24713841Y-637758D01*
G01X24719683Y-654776D01*
G01X24731113Y-666206D01*
G01X24742543Y-672048D01*
G01X24759561Y-672048D01*
G01X24770991Y-666206D01*
G01X24782421Y-654776D01*
G01X24788263Y-637758D01*
G01X24788263Y-626328D01*
G01X24782421Y-609056D01*
G01X24770991Y-597626D01*
G01X24759561Y-592038D01*
G01X24742543Y-592038D01*
G01X24836015Y-592038D02*
G01X24836015Y-711926D01*
G01X24836015Y-609056D02*
G01X24847445Y-597626D01*
G01X24858875Y-592038D01*
G01X24876147Y-592038D01*
G01X24887577Y-597626D01*
G01X24899007Y-609056D01*
G01X24904595Y-626328D01*
G01X24904595Y-637758D01*
G01X24899007Y-654776D01*
G01X24887577Y-666206D01*
G01X24876147Y-672048D01*
G01X24858875Y-672048D01*
G01X24847445Y-666206D01*
G01X24836015Y-654776D01*
G01X25080363Y-551906D02*
G01X25080363Y-672048D01*
G01X25080363Y-672048D02*
G01X25148943Y-672048D01*
G01X25265275Y-592038D02*
G01X25265275Y-672048D01*
G01X25265275Y-609056D02*
G01X25253845Y-597626D01*
G01X25242415Y-592038D01*
G01X25225397Y-592038D01*
G01X25213967Y-597626D01*
G01X25202537Y-609056D01*
G01X25196695Y-626328D01*
G01X25196695Y-637758D01*
G01X25202537Y-654776D01*
G01X25213967Y-666206D01*
G01X25225397Y-672048D01*
G01X25242415Y-672048D01*
G01X25253845Y-666206D01*
G01X25265275Y-654776D01*
G01X25318869Y-592038D02*
G01X25353159Y-672048D01*
G01X25387449Y-592038D02*
G01X25353159Y-672048D01*
G01X25341729Y-694908D01*
G01X25330299Y-706338D01*
G01X25318869Y-711926D01*
G01X25313027Y-711926D01*
G01X25435201Y-626328D02*
G01X25503781Y-626328D01*
G01X25503781Y-614898D01*
G01X25498193Y-603468D01*
G01X25492351Y-597626D01*
G01X25480921Y-592038D01*
G01X25463903Y-592038D01*
G01X25452473Y-597626D01*
G01X25441043Y-609056D01*
G01X25435201Y-626328D01*
G01X25435201Y-637758D01*
G01X25441043Y-654776D01*
G01X25452473Y-666206D01*
G01X25463903Y-672048D01*
G01X25480921Y-672048D01*
G01X25492351Y-666206D01*
G01X25503781Y-654776D01*
G01X25551533Y-592038D02*
G01X25551533Y-672048D01*
G01X25551533Y-626328D02*
G01X25557375Y-609056D01*
G01X25568805Y-597626D01*
G01X25580235Y-592038D01*
G01X25597253Y-592038D01*
G01X25645005Y-620486D02*
G01X25747875Y-620486D01*
G01X25795627Y-551906D02*
G01X25795627Y-672048D01*
G01X25795627Y-551906D02*
G01X25847189Y-551906D01*
G01X25864207Y-557748D01*
G01X25870049Y-563336D01*
G01X25875637Y-574766D01*
G01X25875637Y-586196D01*
G01X25870049Y-597626D01*
G01X25864207Y-603468D01*
G01X25847189Y-609056D01*
G01X25795627Y-609056D02*
G01X25847189Y-609056D01*
G01X25864207Y-614898D01*
G01X25870049Y-620486D01*
G01X25875637Y-631916D01*
G01X25875637Y-649188D01*
G01X25870049Y-660618D01*
G01X25864207Y-666206D01*
G01X25847189Y-672048D01*
G01X25795627Y-672048D01*
G01X25952091Y-592038D02*
G01X25940661Y-597626D01*
G01X25929231Y-609056D01*
G01X25923389Y-626328D01*
G01X25923389Y-637758D01*
G01X25929231Y-654776D01*
G01X25940661Y-666206D01*
G01X25952091Y-672048D01*
G01X25969109Y-672048D01*
G01X25980539Y-666206D01*
G01X25991969Y-654776D01*
G01X25997811Y-637758D01*
G01X25997811Y-626328D01*
G01X25991969Y-609056D01*
G01X25980539Y-597626D01*
G01X25969109Y-592038D01*
G01X25952091Y-592038D01*
G01X26062835Y-551906D02*
G01X26062835Y-649188D01*
G01X26068423Y-666206D01*
G01X26079853Y-672048D01*
G01X26091283Y-672048D01*
G01X26045563Y-592038D02*
G01X26085695Y-592038D01*
G01X26156307Y-551906D02*
G01X26156307Y-649188D01*
G01X26161895Y-666206D01*
G01X26173325Y-672048D01*
G01X26184755Y-672048D01*
G01X26139035Y-592038D02*
G01X26179167Y-592038D01*
G01X26261209Y-592038D02*
G01X26249779Y-597626D01*
G01X26238349Y-609056D01*
G01X26232507Y-626328D01*
G01X26232507Y-637758D01*
G01X26238349Y-654776D01*
G01X26249779Y-666206D01*
G01X26261209Y-672048D01*
G01X26278227Y-672048D01*
G01X26289657Y-666206D01*
G01X26301087Y-654776D01*
G01X26306929Y-637758D01*
G01X26306929Y-626328D01*
G01X26301087Y-609056D01*
G01X26289657Y-597626D01*
G01X26278227Y-592038D01*
G01X26261209Y-592038D01*
G01X26354681Y-592038D02*
G01X26354681Y-672048D01*
G01X26354681Y-614898D02*
G01X26371953Y-597626D01*
G01X26383383Y-592038D01*
G01X26400401Y-592038D01*
G01X26411831Y-597626D01*
G01X26417673Y-614898D01*
G01X26417673Y-672048D01*
G01X26417673Y-614898D02*
G01X26434691Y-597626D01*
G01X26446121Y-592038D01*
G01X26463393Y-592038D01*
G01X26474823Y-597626D01*
G01X26480411Y-614898D01*
G01X26480411Y-672048D01*
G01X26656179Y-551906D02*
G01X26656179Y-672048D01*
G01X26656179Y-672048D02*
G01X26724759Y-672048D01*
G01X26841091Y-592038D02*
G01X26841091Y-672048D01*
G01X26841091Y-609056D02*
G01X26829661Y-597626D01*
G01X26818231Y-592038D01*
G01X26801213Y-592038D01*
G01X26789783Y-597626D01*
G01X26778353Y-609056D01*
G01X26772511Y-626328D01*
G01X26772511Y-637758D01*
G01X26778353Y-654776D01*
G01X26789783Y-666206D01*
G01X26801213Y-672048D01*
G01X26818231Y-672048D01*
G01X26829661Y-666206D01*
G01X26841091Y-654776D01*
G01X26894685Y-592038D02*
G01X26928975Y-672048D01*
G01X26963265Y-592038D02*
G01X26928975Y-672048D01*
G01X26917545Y-694908D01*
G01X26906115Y-706338D01*
G01X26894685Y-711926D01*
G01X26888843Y-711926D01*
G01X27011017Y-626328D02*
G01X27079597Y-626328D01*
G01X27079597Y-614898D01*
G01X27074009Y-603468D01*
G01X27068167Y-597626D01*
G01X27056737Y-592038D01*
G01X27039719Y-592038D01*
G01X27028289Y-597626D01*
G01X27016859Y-609056D01*
G01X27011017Y-626328D01*
G01X27011017Y-637758D01*
G01X27016859Y-654776D01*
G01X27028289Y-666206D01*
G01X27039719Y-672048D01*
G01X27056737Y-672048D01*
G01X27068167Y-666206D01*
G01X27079597Y-654776D01*
G01X27127349Y-592038D02*
G01X27127349Y-672048D01*
G01X27127349Y-626328D02*
G01X27133191Y-609056D01*
G01X27144621Y-597626D01*
G01X27156051Y-592038D01*
G01X27173069Y-592038D01*

G04 Image Start*
G36*
G01X11655063Y1009196D02*
G01X11549449Y1020677D01*
G01X11506574Y923471D01*
G01X11463699Y1020677D01*
G01X11358086Y1009196D01*
G01X11420849Y1094921D01*
G01X11381127Y1149176D01*
G01X11412620Y1149176D01*
G01X11452320Y1094921D01*
G01X11412620Y1040667D01*
G01X11479447Y1047931D01*
G01X11479447Y1047931D01*
G01X11506574Y986438D01*
G01X11533701Y1047931D01*
G01X11600529Y1040667D01*
G01X11560829Y1094921D01*
G01X11600503Y1149150D01*
G01X11533676Y1141886D01*
G01X11506574Y1203405D01*
G01X11479447Y1141911D01*
G01X11412620Y1149176D01*
G01X11381127Y1149176D01*
G01X11358086Y1180646D01*
G01X11463724Y1169166D01*
G01X11506574Y1266371D01*
G01X11549449Y1169166D01*
G01X11655063Y1180646D01*
G01X11592299Y1094921D01*
G01X11655063Y1009196D01*
G37*
G36*
G01X11526069Y2123501D02*
G01X11518329Y2122913D01*
G01X11510486Y2122714D01*
G01X11502643Y2122913D01*
G01X11494902Y2123501D01*
G01X11487275Y2124470D01*
G01X11479770Y2125810D01*
G01X11465164Y2129565D01*
G01X11451162Y2134690D01*
G01X11437840Y2141107D01*
G01X11425274Y2148740D01*
G01X11413542Y2157513D01*
G01X11402720Y2167348D01*
G01X11392884Y2178171D01*
G01X11384111Y2189903D01*
G01X11376478Y2202468D01*
G01X11370061Y2215790D01*
G01X11364937Y2229792D01*
G01X11361182Y2244398D01*
G01X11359842Y2251904D01*
G01X11358872Y2259531D01*
G01X11358284Y2267271D01*
G01X11358086Y2275114D01*
G01X11383486Y2275114D01*
G01X11384143Y2262148D01*
G01X11386070Y2249552D01*
G01X11389205Y2237390D01*
G01X11393482Y2225728D01*
G01X11398837Y2214628D01*
G01X11405205Y2204157D01*
G01X11412523Y2194377D01*
G01X11420725Y2185354D01*
G01X11429749Y2177151D01*
G01X11439528Y2169834D01*
G01X11450000Y2163465D01*
G01X11461099Y2158110D01*
G01X11472762Y2153834D01*
G01X11484923Y2150699D01*
G01X11484923Y2150699D01*
G01X11497519Y2148771D01*
G01X11510486Y2148114D01*
G01X11523452Y2148771D01*
G01X11536048Y2150699D01*
G01X11548210Y2153834D01*
G01X11559872Y2158110D01*
G01X11570972Y2163465D01*
G01X11581443Y2169834D01*
G01X11591223Y2177151D01*
G01X11600246Y2185354D01*
G01X11608449Y2194377D01*
G01X11615766Y2204157D01*
G01X11622135Y2214628D01*
G01X11627490Y2225728D01*
G01X11631766Y2237390D01*
G01X11634901Y2249552D01*
G01X11636829Y2262148D01*
G01X11637486Y2275114D01*
G01X11636829Y2288081D01*
G01X11634901Y2300677D01*
G01X11631766Y2312838D01*
G01X11627490Y2324501D01*
G01X11622135Y2335600D01*
G01X11615766Y2346072D01*
G01X11608449Y2355851D01*
G01X11600246Y2364875D01*
G01X11591223Y2373077D01*
G01X11581443Y2380395D01*
G01X11570972Y2386763D01*
G01X11559872Y2392118D01*
G01X11548210Y2396395D01*
G01X11536048Y2399529D01*
G01X11523452Y2401457D01*
G01X11510486Y2402114D01*
G01X11497519Y2401457D01*
G01X11484923Y2399529D01*
G01X11472762Y2396395D01*
G01X11461099Y2392118D01*
G01X11450000Y2386763D01*
G01X11439528Y2380395D01*
G01X11429749Y2373077D01*
G01X11420725Y2364875D01*
G01X11412523Y2355851D01*
G01X11405205Y2346072D01*
G01X11398837Y2335600D01*
G01X11393482Y2324501D01*
G01X11389205Y2312838D01*
G01X11386070Y2300677D01*
G01X11384143Y2288081D01*
G01X11383486Y2275114D01*
G01X11358086Y2275114D01*
G01X11358284Y2282957D01*
G01X11358872Y2290698D01*
G01X11359842Y2298325D01*
G01X11361182Y2305830D01*
G01X11364937Y2320436D01*
G01X11370061Y2334438D01*
G01X11376478Y2347760D01*
G01X11384111Y2360326D01*
G01X11392884Y2372058D01*
G01X11402720Y2382880D01*
G01X11413542Y2392716D01*
G01X11425274Y2401489D01*
G01X11437840Y2409122D01*
G01X11451162Y2415539D01*
G01X11465164Y2420663D01*
G01X11479770Y2424418D01*
G01X11487275Y2425758D01*
G01X11494902Y2426728D01*
G01X11502643Y2427316D01*
G01X11510486Y2427514D01*
G01X11518329Y2427316D01*
G01X11526069Y2426728D01*
G01X11533696Y2425758D01*
G01X11541202Y2424418D01*
G01X11555808Y2420663D01*
G01X11569810Y2415539D01*
G01X11583132Y2409122D01*
G01X11595697Y2401489D01*
G01X11607429Y2392716D01*
G01X11618252Y2382880D01*
G01X11628087Y2372058D01*
G01X11636860Y2360326D01*
G01X11644493Y2347760D01*
G01X11650910Y2334438D01*
G01X11656035Y2320436D01*
G01X11659790Y2305830D01*
G01X11661130Y2298325D01*
G01X11662099Y2290698D01*
G01X11662687Y2282957D01*
G01X11662886Y2275114D01*
G01X11662687Y2267271D01*
G01X11662099Y2259531D01*
G01X11661130Y2251904D01*
G01X11659790Y2244398D01*
G01X11656035Y2229792D01*
G01X11650910Y2215790D01*
G01X11644493Y2202468D01*
G01X11636860Y2189903D01*
G01X11628087Y2178171D01*
G01X11618252Y2167348D01*
G01X11607429Y2157513D01*
G01X11595697Y2148740D01*
G01X11583132Y2141107D01*
G01X11569810Y2134690D01*
G01X11555808Y2129565D01*
G01X11541202Y2125810D01*
G01X11533696Y2124470D01*
G01X11526069Y2123501D01*
G37*
G36*
G01X11662886Y-116437D02*
G01X11579777Y-116437D01*
G01X11579777Y-199571D01*
G01X11441220Y-199571D01*
G01X11441220Y-116463D01*
G01X11358086Y-116463D01*
G01X11358086Y-3306D01*
G01X11383486Y-3306D01*
G01X11383486Y-91037D01*
G01X11466620Y-91037D01*
G01X11466620Y-174171D01*
G01X11466620Y-174171D01*
G01X11554352Y-174171D01*
G01X11554352Y-91063D01*
G01X11637486Y-91063D01*
G01X11637486Y-3306D01*
G01X11554352Y-3306D01*
G01X11554352Y79829D01*
G01X11466620Y79829D01*
G01X11466620Y-3306D01*
G01X11383486Y-3306D01*
G01X11358086Y-3306D01*
G01X11358086Y22094D01*
G01X11441220Y22094D01*
G01X11441220Y105229D01*
G01X11579752Y105229D01*
G01X11579752Y22094D01*
G01X11662886Y22094D01*
G01X11662886Y-116437D01*
G37*
G36*
G01X11662886Y685800D02*
G01X11592858Y533400D01*
G01X11662886Y381000D01*
G01X11510486Y451028D01*
G01X11358086Y381000D01*
G01X11381848Y432714D01*
G01X11409800Y432714D01*
G01X11499869Y474116D01*
G01X11510486Y478993D01*
G01X11521103Y474116D01*
G01X11611171Y432714D01*
G01X11569769Y522783D01*
G01X11564893Y533400D01*
G01X11569769Y544017D01*
G01X11611171Y634086D01*
G01X11521103Y592684D01*
G01X11510486Y587807D01*
G01X11499869Y592684D01*
G01X11409800Y634086D01*
G01X11451202Y544017D01*
G01X11456079Y533400D01*
G01X11456079Y533400D01*
G01X11451202Y522783D01*
G01X11409800Y432714D01*
G01X11381848Y432714D01*
G01X11428114Y533400D01*
G01X11358086Y685800D01*
G01X11510486Y615772D01*
G01X11662886Y685800D01*
G37*
G36*
G01X11358086Y1846943D02*
G01X11662886Y1846943D01*
G01X11510486Y1582986D01*
G01X11372751Y1821543D01*
G01X11402079Y1821543D01*
G01X11510486Y1633786D01*
G01X11618893Y1821543D01*
G01X11618893Y1821543D01*
G01X11402079Y1821543D01*
G01X11372751Y1821543D01*
G01X11358086Y1846943D01*
G37*
G36*
G01X11358086Y3008086D02*
G01X11637486Y3008086D01*
G01X11637486Y2728686D01*
G01X11358086Y2728686D01*
G01X11358086Y2982686D01*
G01X11383486Y2982686D01*
G01X11383486Y2754086D01*
G01X11612086Y2754086D01*
G01X11612086Y2982686D01*
G01X11612086Y2982686D01*
G01X11383486Y2982686D01*
G01X11358086Y2982686D01*
G01X11358086Y3008086D01*
G37*
G36*
G01X11637486Y-754743D02*
G01X11535886Y-754743D01*
G01X11497786Y-678543D01*
G01X11459686Y-754743D01*
G01X11358086Y-754743D01*
G01X11358086Y-729343D01*
G01X11383486Y-729343D01*
G01X11443989Y-729343D01*
G01X11475053Y-667189D01*
G01X11497786Y-621748D01*
G01X11520519Y-667189D01*
G01X11551583Y-729343D01*
G01X11612086Y-729343D01*
G01X11612086Y-668840D01*
G01X11549932Y-637750D01*
G01X11504491Y-615043D01*
G01X11549932Y-592335D01*
G01X11612086Y-561246D01*
G01X11612086Y-500743D01*
G01X11551583Y-500743D01*
G01X11520519Y-562897D01*
G01X11497786Y-608337D01*
G01X11475053Y-562897D01*
G01X11443989Y-500743D01*
G01X11383486Y-500743D01*
G01X11383486Y-561246D01*
G01X11445640Y-592335D01*
G01X11491080Y-615043D01*
G01X11445640Y-637750D01*
G01X11383486Y-668840D01*
G01X11383486Y-729343D01*
G01X11383486Y-729343D01*
G01X11358086Y-729343D01*
G01X11358086Y-653143D01*
G01X11434286Y-615043D01*
G01X11358086Y-576943D01*
G01X11358086Y-475343D01*
G01X11459686Y-475343D01*
G01X11497786Y-551543D01*
G01X11535886Y-475343D01*
G01X11637486Y-475343D01*
G01X11637486Y-576943D01*
G01X11561286Y-615043D01*
G01X11637486Y-653143D01*
G01X11637486Y-754743D01*
G37*

G04 PolygonModel Start*
G54D18*
G01X11067800Y-910771D02*
G01X27763801Y-910771D01*
G01X11067800Y-330200D02*
G01X27763801Y-330200D01*
G01X11067800Y250371D02*
G01X27763801Y250371D01*
G01X11067800Y830943D02*
G01X27763801Y830943D01*
G01X11067800Y1411514D02*
G01X27763801Y1411514D01*
G01X11067800Y1992086D02*
G01X27763801Y1992086D01*
G01X11067800Y2572657D02*
G01X27763801Y2572657D01*
G01X11067800Y3153229D02*
G01X27763801Y3153229D01*
G01X11067800Y3733800D02*
G01X27763801Y3733800D01*
G01X11067800Y3733800D02*
G01X11067800Y-885371D01*
G01X12519229Y3733800D02*
G01X12519229Y-885371D01*
G01X13933392Y3733800D02*
G01X13933392Y-885371D01*
G01X17804497Y3733800D02*
G01X17804497Y-885371D01*
G01X19265904Y3733800D02*
G01X19265904Y-885371D01*
G01X20697085Y3733800D02*
G01X20697085Y-885371D01*
G01X22366264Y3733800D02*
G01X22366264Y-885371D01*
G01X24285633Y3733800D02*
G01X24285633Y-885371D01*
G01X27763801Y3733800D02*
G01X27763801Y-885371D01*

M02*

